{
 "cells": [
  {
   "cell_type": "code",
   "execution_count": 30,
   "metadata": {},
   "outputs": [],
   "source": [
    "import os\n",
    "import mido\n",
    "import pretty_midi\n",
    "import pandas as pd\n",
    "import numpy as np\n",
    "import matplotlib.pyplot as plt"
   ]
  },
  {
   "cell_type": "code",
   "execution_count": 31,
   "metadata": {},
   "outputs": [],
   "source": [
    "midi_folder = \"../data/\"\n",
    "bitmidi = [f for f in os.listdir(midi_folder) if f.endswith(\".mid\")]\n",
    "midi_path = os.path.join(midi_folder, bitmidi[0])\n",
    "sample1_pm = pretty_midi.PrettyMIDI(midi_path)\n",
    "sample1_mido = mido.MidiFile(midi_path)"
   ]
  },
  {
   "cell_type": "code",
   "execution_count": 32,
   "metadata": {},
   "outputs": [
    {
     "name": "stdout",
     "output_type": "stream",
     "text": [
      "There are 17 tracks\n",
      "Track 1: I Want It That Way\n",
      "Track 2: \n",
      "Track 3: \n",
      "Track 4: \n",
      "Track 5: \n",
      "Track 6: \n",
      "Track 7: \n",
      "Track 8: \n",
      "Track 9: \n",
      "Track 10: \n",
      "Track 11: \n",
      "Track 12: \n",
      "Track 13: \n",
      "Track 14: \n",
      "Track 15: \n",
      "Track 16: \n",
      "Track 17: \n"
     ]
    }
   ],
   "source": [
    "print(f\"There are {len(sample1_mido.tracks)} tracks\")\n",
    "for i, track in enumerate(sample1_mido.tracks):\n",
    "    print(f\"Track {i + 1}: {track.name}\")"
   ]
  },
  {
   "cell_type": "markdown",
   "metadata": {},
   "source": [
    "It makes sense that there are more tracks than in MAESTRO, since each track represents an instrument. Let's compare what is inside each of there tracks (curious why only one has a name). "
   ]
  },
  {
   "cell_type": "code",
   "execution_count": 33,
   "metadata": {},
   "outputs": [
    {
     "name": "stdout",
     "output_type": "stream",
     "text": [
      "Track 0\n",
      "MetaMessage('track_name', name='I Want It That Way', time=0)\n",
      "MetaMessage('copyright', text='Copyright © 1999 by Izzet Selanik & Kim Winther', time=0)\n",
      "MetaMessage('text', text='*****non commercial use only****\\n', time=0)\n",
      "MetaMessage('text', text='Copyright ® 1999 by Izzet Selanik & Kim Winther\\n', time=0)\n",
      "MetaMessage('text', text='Date: June 1999\\n', time=0)\n",
      "MetaMessage('text', text='Title: I Want It That Way\\n', time=0)\n",
      "MetaMessage('text', text='Artist: Backstreet Boys\\n', time=0)\n",
      "MetaMessage('text', text='Version: 2\\n', time=0)\n",
      "MetaMessage('midi_port', port=0, time=0)\n",
      "sysex data=(126,127,9,1) time=0\n",
      "sysex data=(65,16,66,18,64,0,127,0,65) time=0\n",
      "sysex data=(65,16,69,18,16,1,0,31,0,0,31,4,4,4,4,0,16,16,16,16,30,0,31,31,0,0,15,9,9,9,15,0,23,20,23,16,23,0,31,31,0,0,15,8,15,8,8,0,31,2,18,18,18,0,31,16,0,0,16,16,16,0,0,0,16,0,0,0,0,0,16,25) time=0\n",
      "sysex data=(65,16,69,18,16,0,0,67,111,112,121,114,105,103,104,116,32,84,111,112,108,105,115,116,32,84,101,97,109,44,32,70,111,120,77,117,115,105,99,7) time=0\n",
      "MetaMessage('midi_port', port=0, time=0)\n",
      "MetaMessage('time_signature', numerator=4, denominator=4, clocks_per_click=24, notated_32nd_notes_per_beat=8, time=0)\n",
      "MetaMessage('key_signature', key='C', time=0)\n",
      "MetaMessage('set_tempo', tempo=606061, time=0)\n",
      "MetaMessage('marker', text='Copyright © 1999 by Izzet Selanik & Kim Winther', time=120)\n",
      "MetaMessage('marker', text='Verse', time=6600)\n",
      "MetaMessage('marker', text='Chorus', time=3840)\n",
      "MetaMessage('marker', text='Verse', time=3840)\n",
      "MetaMessage('marker', text='Chorus t/Br', time=3840)\n",
      "MetaMessage('marker', text='Bridge', time=3840)\n",
      "MetaMessage('marker', text='Verse spec', time=3840)\n",
      "MetaMessage('marker', text='Verse +1', time=3840)\n",
      "MetaMessage('marker', text='Chorus', time=3840)\n",
      "MetaMessage('marker', text='Chorus', time=3840)\n",
      "MetaMessage('set_tempo', tempo=666667, time=3360)\n",
      "MetaMessage('set_tempo', tempo=769231, time=120)\n",
      "MetaMessage('set_tempo', tempo=967742, time=360)\n",
      "MetaMessage('marker', text='End', time=0)\n",
      "MetaMessage('set_tempo', tempo=606061, time=240)\n",
      "MetaMessage('end_of_track', time=0)\n",
      "Track 1\n",
      "MetaMessage('midi_port', port=0, time=0)\n",
      "MetaMessage('track_name', name='', time=0)\n",
      "program_change channel=0 program=1 time=0\n",
      "control_change channel=0 control=7 value=79 time=0\n",
      "control_change channel=0 control=10 value=55 time=0\n",
      "control_change channel=0 control=11 value=127 time=500\n",
      "control_change channel=0 control=91 value=118 time=2\n",
      "control_change channel=0 control=93 value=0 time=2\n",
      "control_change channel=0 control=94 value=0 time=2\n",
      "note_on channel=0 note=100 velocity=69 time=10174\n",
      "note_on channel=0 note=100 velocity=0 time=120\n",
      "note_on channel=0 note=98 velocity=69 time=0\n",
      "note_on channel=0 note=98 velocity=0 time=60\n",
      "note_on channel=0 note=97 velocity=69 time=0\n",
      "note_on channel=0 note=97 velocity=0 time=60\n",
      "note_on channel=0 note=95 velocity=69 time=0\n",
      "note_on channel=0 note=95 velocity=0 time=60\n",
      "note_on channel=0 note=93 velocity=69 time=0\n",
      "note_on channel=0 note=93 velocity=0 time=60\n",
      "note_on channel=0 note=92 velocity=69 time=0\n",
      "note_on channel=0 note=92 velocity=0 time=120\n",
      "note_on channel=0 note=93 velocity=69 time=60\n",
      "note_on channel=0 note=93 velocity=0 time=120\n",
      "note_on channel=0 note=100 velocity=69 time=300\n",
      "note_on channel=0 note=100 velocity=0 time=120\n",
      "note_on channel=0 note=98 velocity=69 time=0\n",
      "note_on channel=0 note=98 velocity=0 time=60\n",
      "note_on channel=0 note=97 velocity=69 time=0\n",
      "note_on channel=0 note=97 velocity=0 time=60\n",
      "note_on channel=0 note=95 velocity=69 time=0\n",
      "note_on channel=0 note=95 velocity=0 time=60\n",
      "note_on channel=0 note=93 velocity=69 time=0\n",
      "note_on channel=0 note=93 velocity=0 time=60\n",
      "note_on channel=0 note=92 velocity=69 time=0\n",
      "note_on channel=0 note=92 velocity=0 time=120\n",
      "note_on channel=0 note=93 velocity=69 time=60\n",
      "note_on channel=0 note=93 velocity=0 time=118\n",
      "note_on channel=0 note=93 velocity=69 time=62\n",
      "note_on channel=0 note=93 velocity=0 time=60\n",
      "note_on channel=0 note=92 velocity=72 time=10\n",
      "note_on channel=0 note=92 velocity=0 time=50\n",
      "note_on channel=0 note=90 velocity=72 time=0\n",
      "note_on channel=0 note=90 velocity=0 time=120\n",
      "note_on channel=0 note=90 velocity=80 time=840\n",
      "note_on channel=0 note=90 velocity=0 time=120\n",
      "note_on channel=0 note=93 velocity=80 time=60\n",
      "note_on channel=0 note=93 velocity=0 time=120\n",
      "note_on channel=0 note=97 velocity=80 time=60\n",
      "note_on channel=0 note=97 velocity=0 time=110\n",
      "note_on channel=0 note=95 velocity=80 time=10\n",
      "note_on channel=0 note=95 velocity=0 time=120\n",
      "note_on channel=0 note=93 velocity=80 time=60\n",
      "note_on channel=0 note=93 velocity=0 time=120\n",
      "note_on channel=0 note=100 velocity=69 time=4140\n",
      "note_on channel=0 note=100 velocity=0 time=120\n",
      "note_on channel=0 note=98 velocity=69 time=0\n",
      "note_on channel=0 note=98 velocity=0 time=60\n",
      "note_on channel=0 note=97 velocity=69 time=0\n",
      "note_on channel=0 note=97 velocity=0 time=60\n",
      "note_on channel=0 note=95 velocity=69 time=0\n",
      "note_on channel=0 note=95 velocity=0 time=60\n",
      "note_on channel=0 note=93 velocity=69 time=0\n",
      "note_on channel=0 note=93 velocity=0 time=60\n",
      "note_on channel=0 note=92 velocity=69 time=0\n",
      "note_on channel=0 note=92 velocity=0 time=120\n",
      "note_on channel=0 note=93 velocity=69 time=60\n",
      "note_on channel=0 note=93 velocity=0 time=120\n",
      "note_on channel=0 note=100 velocity=69 time=300\n",
      "note_on channel=0 note=100 velocity=0 time=120\n",
      "note_on channel=0 note=98 velocity=69 time=0\n",
      "note_on channel=0 note=98 velocity=0 time=60\n",
      "note_on channel=0 note=97 velocity=69 time=0\n",
      "note_on channel=0 note=97 velocity=0 time=60\n",
      "note_on channel=0 note=95 velocity=69 time=0\n",
      "note_on channel=0 note=95 velocity=0 time=60\n",
      "note_on channel=0 note=93 velocity=69 time=0\n",
      "note_on channel=0 note=93 velocity=0 time=60\n",
      "note_on channel=0 note=92 velocity=69 time=0\n",
      "note_on channel=0 note=92 velocity=0 time=120\n",
      "note_on channel=0 note=93 velocity=69 time=60\n",
      "note_on channel=0 note=93 velocity=0 time=118\n",
      "note_on channel=0 note=93 velocity=69 time=62\n",
      "note_on channel=0 note=93 velocity=0 time=60\n",
      "note_on channel=0 note=92 velocity=72 time=10\n",
      "note_on channel=0 note=92 velocity=0 time=50\n",
      "note_on channel=0 note=90 velocity=72 time=0\n",
      "note_on channel=0 note=90 velocity=0 time=120\n",
      "note_on channel=0 note=90 velocity=80 time=840\n",
      "note_on channel=0 note=90 velocity=0 time=120\n",
      "note_on channel=0 note=93 velocity=80 time=60\n",
      "note_on channel=0 note=93 velocity=0 time=120\n",
      "note_on channel=0 note=97 velocity=80 time=60\n",
      "note_on channel=0 note=97 velocity=0 time=110\n",
      "note_on channel=0 note=97 velocity=80 time=10\n",
      "note_on channel=0 note=97 velocity=0 time=120\n",
      "note_on channel=0 note=97 velocity=80 time=60\n",
      "note_on channel=0 note=97 velocity=0 time=120\n",
      "note_on channel=0 note=61 velocity=77 time=180\n",
      "note_on channel=0 note=66 velocity=90 time=60\n",
      "note_on channel=0 note=69 velocity=77 time=60\n",
      "note_on channel=0 note=73 velocity=77 time=60\n",
      "note_on channel=0 note=73 velocity=0 time=180\n",
      "note_on channel=0 note=61 velocity=0 time=0\n",
      "note_on channel=0 note=66 velocity=0 time=0\n",
      "note_on channel=0 note=69 velocity=0 time=0\n",
      "note_on channel=0 note=61 velocity=94 time=120\n",
      "note_on channel=0 note=64 velocity=94 time=60\n",
      "note_on channel=0 note=68 velocity=94 time=60\n",
      "note_on channel=0 note=68 velocity=0 time=60\n",
      "note_on channel=0 note=69 velocity=94 time=0\n",
      "note_on channel=0 note=64 velocity=0 time=120\n",
      "note_on channel=0 note=69 velocity=0 time=60\n",
      "note_on channel=0 note=61 velocity=0 time=0\n",
      "note_on channel=0 note=57 velocity=94 time=120\n",
      "note_on channel=0 note=62 velocity=94 time=60\n",
      "note_on channel=0 note=66 velocity=94 time=60\n",
      "note_on channel=0 note=69 velocity=94 time=60\n",
      "note_on channel=0 note=69 velocity=0 time=180\n",
      "note_on channel=0 note=57 velocity=0 time=0\n",
      "note_on channel=0 note=62 velocity=0 time=0\n",
      "note_on channel=0 note=66 velocity=0 time=0\n",
      "note_on channel=0 note=62 velocity=95 time=120\n",
      "note_on channel=0 note=71 velocity=95 time=0\n",
      "note_on channel=0 note=66 velocity=95 time=0\n",
      "note_on channel=0 note=66 velocity=0 time=240\n",
      "note_on channel=0 note=71 velocity=0 time=0\n",
      "note_on channel=0 note=62 velocity=0 time=0\n",
      "note_on channel=0 note=61 velocity=104 time=0\n",
      "note_on channel=0 note=71 velocity=104 time=0\n",
      "note_on channel=0 note=68 velocity=104 time=0\n",
      "note_on channel=0 note=76 velocity=104 time=0\n",
      "note_on channel=0 note=64 velocity=104 time=0\n",
      "note_on channel=0 note=64 velocity=0 time=240\n",
      "note_on channel=0 note=68 velocity=0 time=0\n",
      "note_on channel=0 note=61 velocity=0 time=0\n",
      "note_on channel=0 note=71 velocity=0 time=0\n",
      "note_on channel=0 note=76 velocity=0 time=0\n",
      "note_on channel=0 note=61 velocity=77 time=0\n",
      "note_on channel=0 note=66 velocity=90 time=60\n",
      "note_on channel=0 note=69 velocity=77 time=60\n",
      "note_on channel=0 note=73 velocity=77 time=60\n",
      "note_on channel=0 note=73 velocity=0 time=180\n",
      "note_on channel=0 note=61 velocity=0 time=0\n",
      "note_on channel=0 note=66 velocity=0 time=0\n",
      "note_on channel=0 note=69 velocity=0 time=0\n",
      "note_on channel=0 note=61 velocity=94 time=120\n",
      "note_on channel=0 note=64 velocity=94 time=60\n",
      "note_on channel=0 note=68 velocity=94 time=60\n",
      "note_on channel=0 note=68 velocity=0 time=60\n",
      "note_on channel=0 note=69 velocity=94 time=0\n",
      "note_on channel=0 note=64 velocity=0 time=120\n",
      "note_on channel=0 note=69 velocity=0 time=60\n",
      "note_on channel=0 note=61 velocity=0 time=0\n",
      "note_on channel=0 note=57 velocity=94 time=120\n",
      "note_on channel=0 note=62 velocity=94 time=60\n",
      "note_on channel=0 note=66 velocity=94 time=60\n",
      "note_on channel=0 note=69 velocity=94 time=60\n",
      "note_on channel=0 note=69 velocity=0 time=180\n",
      "note_on channel=0 note=57 velocity=0 time=0\n",
      "note_on channel=0 note=62 velocity=0 time=0\n",
      "note_on channel=0 note=66 velocity=0 time=0\n",
      "note_on channel=0 note=52 velocity=104 time=120\n",
      "note_on channel=0 note=59 velocity=104 time=0\n",
      "note_on channel=0 note=69 velocity=104 time=0\n",
      "note_on channel=0 note=64 velocity=104 time=0\n",
      "note_on channel=0 note=64 velocity=0 time=240\n",
      "note_on channel=0 note=52 velocity=0 time=0\n",
      "note_on channel=0 note=59 velocity=0 time=0\n",
      "note_on channel=0 note=69 velocity=0 time=0\n",
      "note_on channel=0 note=52 velocity=104 time=0\n",
      "note_on channel=0 note=68 velocity=104 time=0\n",
      "note_on channel=0 note=64 velocity=104 time=0\n",
      "note_on channel=0 note=76 velocity=104 time=0\n",
      "note_on channel=0 note=59 velocity=104 time=0\n",
      "note_on channel=0 note=59 velocity=0 time=240\n",
      "note_on channel=0 note=64 velocity=0 time=0\n",
      "note_on channel=0 note=52 velocity=0 time=0\n",
      "note_on channel=0 note=68 velocity=0 time=0\n",
      "note_on channel=0 note=76 velocity=0 time=0\n",
      "note_on channel=0 note=66 velocity=127 time=1800\n",
      "note_on channel=0 note=66 velocity=0 time=60\n",
      "note_on channel=0 note=69 velocity=127 time=0\n",
      "note_on channel=0 note=69 velocity=0 time=120\n",
      "note_on channel=0 note=66 velocity=127 time=900\n",
      "note_on channel=0 note=66 velocity=0 time=122\n",
      "note_on channel=0 note=69 velocity=127 time=58\n",
      "note_on channel=0 note=73 velocity=127 time=180\n",
      "note_on channel=0 note=69 velocity=0 time=3\n",
      "note_on channel=0 note=73 velocity=0 time=102\n",
      "note_on channel=0 note=71 velocity=127 time=15\n",
      "note_on channel=0 note=71 velocity=0 time=133\n",
      "note_on channel=0 note=78 velocity=62 time=828\n",
      "note_on channel=0 note=82 velocity=61 time=1\n",
      "note_on channel=0 note=73 velocity=62 time=1\n",
      "note_on channel=0 note=73 velocity=0 time=136\n",
      "note_on channel=0 note=82 velocity=0 time=15\n",
      "note_on channel=0 note=78 velocity=0 time=0\n",
      "note_on channel=0 note=78 velocity=74 time=18\n",
      "note_on channel=0 note=75 velocity=80 time=1\n",
      "note_on channel=0 note=83 velocity=76 time=1\n",
      "note_on channel=0 note=75 velocity=0 time=159\n",
      "note_on channel=0 note=83 velocity=0 time=13\n",
      "note_on channel=0 note=78 velocity=0 time=14\n",
      "note_on channel=0 note=78 velocity=74 time=120\n",
      "note_on channel=0 note=83 velocity=69 time=0\n",
      "note_on channel=0 note=75 velocity=66 time=0\n",
      "note_on channel=0 note=78 velocity=0 time=180\n",
      "note_on channel=0 note=83 velocity=0 time=2\n",
      "note_on channel=0 note=75 velocity=0 time=2\n",
      "note_on channel=0 note=78 velocity=74 time=295\n",
      "note_on channel=0 note=73 velocity=76 time=2\n",
      "note_on channel=0 note=82 velocity=69 time=1\n",
      "note_on channel=0 note=73 velocity=0 time=149\n",
      "note_on channel=0 note=82 velocity=0 time=11\n",
      "note_on channel=0 note=78 velocity=0 time=2\n",
      "note_on channel=0 note=78 velocity=76 time=15\n",
      "note_on channel=0 note=75 velocity=85 time=1\n",
      "note_on channel=0 note=83 velocity=72 time=1\n",
      "note_on channel=0 note=75 velocity=0 time=160\n",
      "note_on channel=0 note=83 velocity=0 time=4\n",
      "note_on channel=0 note=78 velocity=0 time=7\n",
      "note_on channel=0 note=83 velocity=76 time=128\n",
      "note_on channel=0 note=78 velocity=76 time=0\n",
      "note_on channel=0 note=75 velocity=75 time=0\n",
      "note_on channel=0 note=75 velocity=0 time=338\n",
      "note_on channel=0 note=83 velocity=0 time=3\n",
      "note_on channel=0 note=78 velocity=0 time=4\n",
      "note_on channel=0 note=78 velocity=79 time=132\n",
      "note_on channel=0 note=73 velocity=74 time=2\n",
      "note_on channel=0 note=82 velocity=66 time=0\n",
      "note_on channel=0 note=73 velocity=0 time=133\n",
      "note_on channel=0 note=78 velocity=0 time=19\n",
      "note_on channel=0 note=82 velocity=0 time=1\n",
      "note_on channel=0 note=78 velocity=76 time=24\n",
      "note_on channel=0 note=75 velocity=99 time=0\n",
      "note_on channel=0 note=83 velocity=74 time=2\n",
      "note_on channel=0 note=75 velocity=0 time=252\n",
      "note_on channel=0 note=78 velocity=0 time=14\n",
      "note_on channel=0 note=83 velocity=0 time=10\n",
      "note_on channel=0 note=78 velocity=79 time=512\n",
      "note_on channel=0 note=73 velocity=79 time=2\n",
      "note_on channel=0 note=82 velocity=63 time=0\n",
      "note_on channel=0 note=73 velocity=0 time=109\n",
      "note_on channel=0 note=82 velocity=0 time=7\n",
      "note_on channel=0 note=78 velocity=0 time=0\n",
      "note_on channel=0 note=83 velocity=81 time=59\n",
      "note_on channel=0 note=78 velocity=83 time=0\n",
      "note_on channel=0 note=75 velocity=82 time=2\n",
      "note_on channel=0 note=75 velocity=0 time=157\n",
      "note_on channel=0 note=78 velocity=0 time=8\n",
      "note_on channel=0 note=83 velocity=0 time=7\n",
      "note_on channel=0 note=90 velocity=82 time=243\n",
      "note_on channel=0 note=90 velocity=0 time=120\n",
      "note_on channel=0 note=88 velocity=82 time=0\n",
      "note_on channel=0 note=88 velocity=0 time=60\n",
      "note_on channel=0 note=87 velocity=82 time=0\n",
      "note_on channel=0 note=87 velocity=0 time=60\n",
      "note_on channel=0 note=85 velocity=82 time=0\n",
      "note_on channel=0 note=85 velocity=0 time=60\n",
      "note_on channel=0 note=83 velocity=82 time=0\n",
      "note_on channel=0 note=83 velocity=0 time=60\n",
      "note_on channel=0 note=82 velocity=82 time=0\n",
      "note_on channel=0 note=82 velocity=0 time=120\n",
      "note_on channel=0 note=83 velocity=82 time=60\n",
      "note_on channel=0 note=83 velocity=0 time=120\n",
      "note_on channel=0 note=90 velocity=82 time=300\n",
      "note_on channel=0 note=90 velocity=0 time=120\n",
      "note_on channel=0 note=88 velocity=82 time=0\n",
      "note_on channel=0 note=88 velocity=0 time=60\n",
      "note_on channel=0 note=87 velocity=82 time=0\n",
      "note_on channel=0 note=87 velocity=0 time=60\n",
      "note_on channel=0 note=85 velocity=82 time=0\n",
      "note_on channel=0 note=85 velocity=0 time=60\n",
      "note_on channel=0 note=83 velocity=82 time=0\n",
      "note_on channel=0 note=83 velocity=0 time=60\n",
      "note_on channel=0 note=82 velocity=82 time=0\n",
      "note_on channel=0 note=82 velocity=0 time=120\n",
      "note_on channel=0 note=83 velocity=82 time=60\n",
      "note_on channel=0 note=83 velocity=0 time=118\n",
      "note_on channel=0 note=83 velocity=82 time=62\n",
      "note_on channel=0 note=83 velocity=0 time=60\n",
      "note_on channel=0 note=82 velocity=86 time=10\n",
      "note_on channel=0 note=82 velocity=0 time=50\n",
      "note_on channel=0 note=80 velocity=86 time=0\n",
      "note_on channel=0 note=80 velocity=0 time=120\n",
      "note_on channel=0 note=80 velocity=96 time=840\n",
      "note_on channel=0 note=80 velocity=0 time=120\n",
      "note_on channel=0 note=83 velocity=96 time=60\n",
      "note_on channel=0 note=83 velocity=0 time=120\n",
      "note_on channel=0 note=87 velocity=96 time=60\n",
      "note_on channel=0 note=87 velocity=0 time=110\n",
      "note_on channel=0 note=85 velocity=96 time=10\n",
      "note_on channel=0 note=85 velocity=0 time=120\n",
      "note_on channel=0 note=83 velocity=96 time=60\n",
      "note_on channel=0 note=83 velocity=0 time=120\n",
      "note_on channel=0 note=66 velocity=69 time=3060\n",
      "note_on channel=0 note=66 velocity=0 time=64\n",
      "note_on channel=0 note=68 velocity=82 time=0\n",
      "note_on channel=0 note=71 velocity=95 time=58\n",
      "note_on channel=0 note=68 velocity=0 time=1\n",
      "note_on channel=0 note=85 velocity=95 time=57\n",
      "note_on channel=0 note=73 velocity=95 time=0\n",
      "note_on channel=0 note=71 velocity=0 time=4\n",
      "note_on channel=0 note=73 velocity=0 time=101\n",
      "note_on channel=0 note=85 velocity=0 time=0\n",
      "note_on channel=0 note=75 velocity=95 time=15\n",
      "note_on channel=0 note=87 velocity=95 time=0\n",
      "note_on channel=0 note=87 velocity=0 time=120\n",
      "note_on channel=0 note=75 velocity=0 time=0\n",
      "note_on channel=0 note=73 velocity=81 time=70\n",
      "note_on channel=0 note=70 velocity=81 time=60\n",
      "note_on channel=0 note=73 velocity=0 time=2\n",
      "note_on channel=0 note=70 velocity=0 time=54\n",
      "note_on channel=0 note=66 velocity=81 time=2\n",
      "note_on channel=0 note=83 velocity=95 time=56\n",
      "note_on channel=0 note=71 velocity=95 time=0\n",
      "note_on channel=0 note=66 velocity=0 time=3\n",
      "note_on channel=0 note=71 velocity=0 time=158\n",
      "note_on channel=0 note=83 velocity=0 time=0\n",
      "note_on channel=0 note=56 velocity=113 time=134\n",
      "note_on channel=0 note=63 velocity=72 time=57\n",
      "note_on channel=0 note=68 velocity=69 time=65\n",
      "note_on channel=0 note=63 velocity=0 time=22\n",
      "note_on channel=0 note=68 velocity=0 time=37\n",
      "note_on channel=0 note=63 velocity=77 time=0\n",
      "note_on channel=0 note=68 velocity=114 time=60\n",
      "note_on channel=0 note=56 velocity=0 time=52\n",
      "note_on channel=0 note=68 velocity=0 time=8\n",
      "note_on channel=0 note=71 velocity=114 time=0\n",
      "note_on channel=0 note=63 velocity=0 time=39\n",
      "note_on channel=0 note=63 velocity=84 time=19\n",
      "note_on channel=0 note=71 velocity=0 time=51\n",
      "note_on channel=0 note=68 velocity=57 time=12\n",
      "note_on channel=0 note=70 velocity=80 time=65\n",
      "note_on channel=0 note=73 velocity=78 time=0\n",
      "note_on channel=0 note=66 velocity=68 time=0\n",
      "note_on channel=0 note=63 velocity=0 time=19\n",
      "note_on channel=0 note=68 velocity=0 time=16\n",
      "note_on channel=0 note=70 velocity=0 time=67\n",
      "note_on channel=0 note=73 velocity=0 time=1\n",
      "note_on channel=0 note=66 velocity=0 time=1\n",
      "note_on channel=0 note=59 velocity=68 time=63\n",
      "note_on channel=0 note=63 velocity=84 time=9\n",
      "note_on channel=0 note=66 velocity=73 time=12\n",
      "note_on channel=0 note=71 velocity=95 time=12\n",
      "note_on channel=0 note=59 velocity=0 time=194\n",
      "note_on channel=0 note=63 velocity=0 time=10\n",
      "note_on channel=0 note=66 velocity=0 time=6\n",
      "note_on channel=0 note=71 velocity=0 time=11\n",
      "MetaMessage('end_of_track', time=0)\n",
      "Track 2\n",
      "MetaMessage('midi_port', port=0, time=0)\n",
      "MetaMessage('track_name', name='', time=0)\n",
      "control_change channel=1 control=0 value=0 time=0\n",
      "control_change channel=1 control=32 value=2 time=0\n",
      "program_change channel=1 program=33 time=0\n",
      "control_change channel=1 control=7 value=70 time=0\n",
      "control_change channel=1 control=10 value=64 time=0\n",
      "control_change channel=1 control=11 value=127 time=520\n",
      "control_change channel=1 control=11 value=127 time=0\n",
      "control_change channel=1 control=91 value=0 time=2\n",
      "control_change channel=1 control=93 value=0 time=2\n",
      "control_change channel=1 control=94 value=0 time=2\n",
      "control_change channel=1 control=101 value=0 time=6\n",
      "control_change channel=1 control=100 value=0 time=0\n",
      "control_change channel=1 control=6 value=2 time=0\n",
      "control_change channel=1 control=38 value=0 time=0\n",
      "note_on channel=1 note=40 velocity=125 time=6068\n",
      "pitchwheel channel=1 pitch=-128 time=2\n",
      "pitchwheel channel=1 pitch=-384 time=4\n",
      "pitchwheel channel=1 pitch=-640 time=3\n",
      "pitchwheel channel=1 pitch=-896 time=3\n",
      "pitchwheel channel=1 pitch=-1024 time=3\n",
      "pitchwheel channel=1 pitch=-1408 time=10\n",
      "pitchwheel channel=1 pitch=-1536 time=3\n",
      "pitchwheel channel=1 pitch=-1792 time=3\n",
      "pitchwheel channel=1 pitch=-2048 time=3\n",
      "pitchwheel channel=1 pitch=-2304 time=3\n",
      "pitchwheel channel=1 pitch=-2688 time=4\n",
      "pitchwheel channel=1 pitch=-3584 time=6\n",
      "pitchwheel channel=1 pitch=-3968 time=3\n",
      "pitchwheel channel=1 pitch=-4224 time=6\n",
      "pitchwheel channel=1 pitch=-4480 time=4\n",
      "pitchwheel channel=1 pitch=-4992 time=6\n",
      "pitchwheel channel=1 pitch=-5504 time=6\n",
      "pitchwheel channel=1 pitch=-5888 time=3\n",
      "pitchwheel channel=1 pitch=-6400 time=7\n",
      "pitchwheel channel=1 pitch=-6656 time=3\n",
      "pitchwheel channel=1 pitch=-6784 time=3\n",
      "pitchwheel channel=1 pitch=-7168 time=3\n",
      "pitchwheel channel=1 pitch=-7424 time=3\n",
      "pitchwheel channel=1 pitch=-7552 time=3\n",
      "pitchwheel channel=1 pitch=-7808 time=4\n",
      "pitchwheel channel=1 pitch=-7936 time=3\n",
      "pitchwheel channel=1 pitch=-8192 time=6\n",
      "note_on channel=1 note=40 velocity=0 time=8\n",
      "pitchwheel channel=1 pitch=0 time=0\n",
      "note_on channel=1 note=30 velocity=123 time=2\n",
      "control_change channel=1 control=101 value=0 time=6\n",
      "control_change channel=1 control=100 value=0 time=0\n",
      "control_change channel=1 control=6 value=4 time=0\n",
      "control_change channel=1 control=38 value=0 time=0\n",
      "note_on channel=1 note=30 velocity=0 time=52\n",
      "note_on channel=1 note=30 velocity=112 time=2\n",
      "note_on channel=1 note=30 velocity=0 time=48\n",
      "note_on channel=1 note=30 velocity=105 time=72\n",
      "note_on channel=1 note=30 velocity=0 time=28\n",
      "note_on channel=1 note=30 velocity=123 time=32\n",
      "note_on channel=1 note=30 velocity=0 time=58\n",
      "note_on channel=1 note=30 velocity=112 time=2\n",
      "note_on channel=1 note=30 velocity=0 time=48\n",
      "note_on channel=1 note=30 velocity=125 time=12\n",
      "pitchwheel channel=1 pitch=128 time=2\n",
      "pitchwheel channel=1 pitch=896 time=1\n",
      "pitchwheel channel=1 pitch=1152 time=3\n",
      "pitchwheel channel=1 pitch=1664 time=3\n",
      "pitchwheel channel=1 pitch=2048 time=3\n",
      "pitchwheel channel=1 pitch=2176 time=3\n",
      "pitchwheel channel=1 pitch=2816 time=7\n",
      "pitchwheel channel=1 pitch=3200 time=3\n",
      "pitchwheel channel=1 pitch=4480 time=3\n",
      "pitchwheel channel=1 pitch=4864 time=3\n",
      "pitchwheel channel=1 pitch=5248 time=3\n",
      "pitchwheel channel=1 pitch=6144 time=3\n",
      "pitchwheel channel=1 pitch=6528 time=4\n",
      "pitchwheel channel=1 pitch=8191 time=3\n",
      "note_on channel=1 note=30 velocity=0 time=14\n",
      "pitchwheel channel=1 pitch=0 time=0\n",
      "note_on channel=1 note=37 velocity=112 time=2\n",
      "note_on channel=1 note=37 velocity=0 time=48\n",
      "note_on channel=1 note=38 velocity=123 time=12\n",
      "note_on channel=1 note=38 velocity=0 time=58\n",
      "note_on channel=1 note=38 velocity=112 time=2\n",
      "note_on channel=1 note=38 velocity=0 time=48\n",
      "note_on channel=1 note=33 velocity=123 time=72\n",
      "note_on channel=1 note=33 velocity=0 time=178\n",
      "note_on channel=1 note=45 velocity=125 time=2\n",
      "pitchwheel channel=1 pitch=-128 time=6\n",
      "pitchwheel channel=1 pitch=-256 time=38\n",
      "pitchwheel channel=1 pitch=-512 time=6\n",
      "pitchwheel channel=1 pitch=-768 time=6\n",
      "pitchwheel channel=1 pitch=-1152 time=4\n",
      "pitchwheel channel=1 pitch=-1280 time=3\n",
      "pitchwheel channel=1 pitch=-1664 time=3\n",
      "pitchwheel channel=1 pitch=-2176 time=3\n",
      "pitchwheel channel=1 pitch=-2304 time=3\n",
      "pitchwheel channel=1 pitch=-2560 time=3\n",
      "pitchwheel channel=1 pitch=-2688 time=3\n",
      "pitchwheel channel=1 pitch=-3456 time=7\n",
      "pitchwheel channel=1 pitch=-4096 time=3\n",
      "pitchwheel channel=1 pitch=-4736 time=3\n",
      "pitchwheel channel=1 pitch=-4992 time=3\n",
      "pitchwheel channel=1 pitch=-6144 time=3\n",
      "pitchwheel channel=1 pitch=-7296 time=4\n",
      "pitchwheel channel=1 pitch=-7552 time=3\n",
      "pitchwheel channel=1 pitch=-8192 time=3\n",
      "note_on channel=1 note=45 velocity=0 time=11\n",
      "pitchwheel channel=1 pitch=0 time=0\n",
      "note_on channel=1 note=30 velocity=123 time=2\n",
      "note_on channel=1 note=30 velocity=0 time=58\n",
      "note_on channel=1 note=30 velocity=112 time=2\n",
      "note_on channel=1 note=30 velocity=0 time=48\n",
      "note_on channel=1 note=30 velocity=105 time=72\n",
      "note_on channel=1 note=30 velocity=0 time=28\n",
      "note_on channel=1 note=30 velocity=123 time=32\n",
      "note_on channel=1 note=30 velocity=0 time=58\n",
      "note_on channel=1 note=30 velocity=112 time=2\n",
      "note_on channel=1 note=30 velocity=0 time=48\n",
      "note_on channel=1 note=38 velocity=123 time=132\n",
      "note_on channel=1 note=38 velocity=0 time=58\n",
      "note_on channel=1 note=38 velocity=112 time=2\n",
      "note_on channel=1 note=38 velocity=0 time=48\n",
      "note_on channel=1 note=33 velocity=123 time=72\n",
      "note_on channel=1 note=33 velocity=0 time=165\n",
      "note_on channel=1 note=33 velocity=118 time=15\n",
      "pitchwheel channel=1 pitch=-128 time=6\n",
      "pitchwheel channel=1 pitch=-256 time=38\n",
      "pitchwheel channel=1 pitch=-512 time=6\n",
      "pitchwheel channel=1 pitch=-768 time=6\n",
      "pitchwheel channel=1 pitch=-1152 time=4\n",
      "pitchwheel channel=1 pitch=-1280 time=3\n",
      "pitchwheel channel=1 pitch=-1664 time=3\n",
      "pitchwheel channel=1 pitch=-2176 time=3\n",
      "pitchwheel channel=1 pitch=-2304 time=3\n",
      "pitchwheel channel=1 pitch=-2560 time=3\n",
      "pitchwheel channel=1 pitch=-2688 time=3\n",
      "pitchwheel channel=1 pitch=-3456 time=7\n",
      "pitchwheel channel=1 pitch=-4096 time=3\n",
      "pitchwheel channel=1 pitch=-4736 time=3\n",
      "pitchwheel channel=1 pitch=-4992 time=3\n",
      "pitchwheel channel=1 pitch=-6144 time=3\n",
      "pitchwheel channel=1 pitch=-7296 time=4\n",
      "pitchwheel channel=1 pitch=-7552 time=3\n",
      "pitchwheel channel=1 pitch=-8192 time=3\n",
      "note_on channel=1 note=33 velocity=0 time=11\n",
      "pitchwheel channel=1 pitch=0 time=0\n",
      "note_on channel=1 note=30 velocity=123 time=2\n",
      "note_on channel=1 note=30 velocity=0 time=58\n",
      "note_on channel=1 note=30 velocity=112 time=2\n",
      "note_on channel=1 note=30 velocity=0 time=48\n",
      "note_on channel=1 note=30 velocity=105 time=72\n",
      "note_on channel=1 note=30 velocity=0 time=28\n",
      "note_on channel=1 note=30 velocity=123 time=32\n",
      "note_on channel=1 note=30 velocity=0 time=58\n",
      "note_on channel=1 note=30 velocity=112 time=2\n",
      "note_on channel=1 note=30 velocity=0 time=48\n",
      "note_on channel=1 note=30 velocity=125 time=12\n",
      "pitchwheel channel=1 pitch=128 time=2\n",
      "pitchwheel channel=1 pitch=896 time=1\n",
      "pitchwheel channel=1 pitch=1152 time=3\n",
      "pitchwheel channel=1 pitch=1664 time=3\n",
      "pitchwheel channel=1 pitch=2048 time=3\n",
      "pitchwheel channel=1 pitch=2176 time=3\n",
      "pitchwheel channel=1 pitch=2816 time=7\n",
      "pitchwheel channel=1 pitch=3200 time=3\n",
      "pitchwheel channel=1 pitch=4480 time=3\n",
      "pitchwheel channel=1 pitch=4864 time=3\n",
      "pitchwheel channel=1 pitch=5248 time=3\n",
      "pitchwheel channel=1 pitch=6144 time=3\n",
      "pitchwheel channel=1 pitch=6528 time=4\n",
      "pitchwheel channel=1 pitch=8191 time=3\n",
      "note_on channel=1 note=30 velocity=0 time=14\n",
      "pitchwheel channel=1 pitch=0 time=0\n",
      "note_on channel=1 note=37 velocity=112 time=2\n",
      "note_on channel=1 note=37 velocity=0 time=48\n",
      "note_on channel=1 note=38 velocity=123 time=12\n",
      "note_on channel=1 note=38 velocity=0 time=58\n",
      "note_on channel=1 note=38 velocity=112 time=2\n",
      "note_on channel=1 note=38 velocity=0 time=48\n",
      "note_on channel=1 note=33 velocity=123 time=72\n",
      "note_on channel=1 note=33 velocity=0 time=178\n",
      "note_on channel=1 note=45 velocity=125 time=2\n",
      "pitchwheel channel=1 pitch=-128 time=6\n",
      "pitchwheel channel=1 pitch=-256 time=38\n",
      "pitchwheel channel=1 pitch=-512 time=6\n",
      "pitchwheel channel=1 pitch=-768 time=6\n",
      "pitchwheel channel=1 pitch=-1152 time=4\n",
      "pitchwheel channel=1 pitch=-1280 time=3\n",
      "pitchwheel channel=1 pitch=-1664 time=3\n",
      "pitchwheel channel=1 pitch=-2176 time=3\n",
      "pitchwheel channel=1 pitch=-2304 time=3\n",
      "pitchwheel channel=1 pitch=-2560 time=3\n",
      "pitchwheel channel=1 pitch=-2688 time=3\n",
      "pitchwheel channel=1 pitch=-3456 time=7\n",
      "pitchwheel channel=1 pitch=-4096 time=3\n",
      "pitchwheel channel=1 pitch=-4736 time=3\n",
      "pitchwheel channel=1 pitch=-4992 time=3\n",
      "pitchwheel channel=1 pitch=-6144 time=3\n",
      "pitchwheel channel=1 pitch=-7296 time=4\n",
      "pitchwheel channel=1 pitch=-7552 time=3\n",
      "pitchwheel channel=1 pitch=-8192 time=3\n",
      "note_on channel=1 note=45 velocity=0 time=11\n",
      "pitchwheel channel=1 pitch=0 time=0\n",
      "note_on channel=1 note=30 velocity=123 time=2\n",
      "note_on channel=1 note=30 velocity=0 time=58\n",
      "note_on channel=1 note=30 velocity=112 time=2\n",
      "note_on channel=1 note=30 velocity=0 time=48\n",
      "note_on channel=1 note=30 velocity=105 time=72\n",
      "note_on channel=1 note=30 velocity=0 time=28\n",
      "note_on channel=1 note=30 velocity=123 time=32\n",
      "note_on channel=1 note=30 velocity=0 time=58\n",
      "note_on channel=1 note=30 velocity=112 time=2\n",
      "note_on channel=1 note=30 velocity=0 time=48\n",
      "note_on channel=1 note=28 velocity=125 time=132\n",
      "note_on channel=1 note=28 velocity=0 time=165\n",
      "note_on channel=1 note=33 velocity=118 time=15\n",
      "note_on channel=1 note=33 velocity=0 time=178\n",
      "note_on channel=1 note=38 velocity=123 time=122\n",
      "note_on channel=1 note=38 velocity=0 time=58\n",
      "note_on channel=1 note=38 velocity=112 time=2\n",
      "note_on channel=1 note=38 velocity=0 time=48\n",
      "note_on channel=1 note=38 velocity=105 time=72\n",
      "note_on channel=1 note=38 velocity=0 time=28\n",
      "note_on channel=1 note=38 velocity=123 time=32\n",
      "note_on channel=1 note=38 velocity=0 time=58\n",
      "note_on channel=1 note=38 velocity=112 time=2\n",
      "note_on channel=1 note=38 velocity=0 time=48\n",
      "note_on channel=1 note=38 velocity=125 time=12\n",
      "note_on channel=1 note=38 velocity=0 time=58\n",
      "note_on channel=1 note=38 velocity=112 time=2\n",
      "note_on channel=1 note=38 velocity=0 time=48\n",
      "note_on channel=1 note=28 velocity=123 time=12\n",
      "note_on channel=1 note=28 velocity=0 time=58\n",
      "note_on channel=1 note=28 velocity=112 time=2\n",
      "note_on channel=1 note=28 velocity=0 time=48\n",
      "note_on channel=1 note=30 velocity=123 time=72\n",
      "note_on channel=1 note=30 velocity=0 time=178\n",
      "note_on channel=1 note=28 velocity=112 time=52\n",
      "note_on channel=1 note=28 velocity=0 time=48\n",
      "control_change channel=1 control=101 value=0 time=22\n",
      "control_change channel=1 control=100 value=0 time=0\n",
      "control_change channel=1 control=6 value=2 time=0\n",
      "control_change channel=1 control=38 value=0 time=0\n",
      "note_on channel=1 note=38 velocity=123 time=0\n",
      "note_on channel=1 note=38 velocity=0 time=58\n",
      "note_on channel=1 note=38 velocity=112 time=2\n",
      "note_on channel=1 note=38 velocity=0 time=48\n",
      "note_on channel=1 note=38 velocity=105 time=72\n",
      "note_on channel=1 note=38 velocity=0 time=28\n",
      "note_on channel=1 note=38 velocity=123 time=32\n",
      "note_on channel=1 note=38 velocity=0 time=58\n",
      "note_on channel=1 note=38 velocity=112 time=2\n",
      "note_on channel=1 note=38 velocity=0 time=48\n",
      "note_on channel=1 note=38 velocity=125 time=12\n",
      "note_on channel=1 note=38 velocity=0 time=58\n",
      "note_on channel=1 note=38 velocity=112 time=2\n",
      "note_on channel=1 note=38 velocity=0 time=48\n",
      "note_on channel=1 note=28 velocity=123 time=12\n",
      "note_on channel=1 note=28 velocity=0 time=58\n",
      "note_on channel=1 note=28 velocity=112 time=2\n",
      "note_on channel=1 note=28 velocity=0 time=48\n",
      "note_on channel=1 note=30 velocity=123 time=72\n",
      "note_on channel=1 note=30 velocity=0 time=178\n",
      "note_on channel=1 note=28 velocity=112 time=52\n",
      "note_on channel=1 note=28 velocity=0 time=48\n",
      "note_on channel=1 note=38 velocity=123 time=22\n",
      "note_on channel=1 note=38 velocity=0 time=58\n",
      "note_on channel=1 note=38 velocity=112 time=2\n",
      "note_on channel=1 note=38 velocity=0 time=48\n",
      "note_on channel=1 note=38 velocity=105 time=72\n",
      "note_on channel=1 note=38 velocity=0 time=28\n",
      "note_on channel=1 note=38 velocity=123 time=32\n",
      "note_on channel=1 note=38 velocity=0 time=58\n",
      "note_on channel=1 note=38 velocity=112 time=2\n",
      "note_on channel=1 note=38 velocity=0 time=48\n",
      "note_on channel=1 note=38 velocity=105 time=72\n",
      "note_on channel=1 note=38 velocity=0 time=28\n",
      "note_on channel=1 note=28 velocity=123 time=32\n",
      "note_on channel=1 note=28 velocity=0 time=58\n",
      "note_on channel=1 note=28 velocity=112 time=2\n",
      "note_on channel=1 note=28 velocity=0 time=48\n",
      "note_on channel=1 note=30 velocity=123 time=12\n",
      "pitchwheel channel=1 pitch=128 time=2\n",
      "pitchwheel channel=1 pitch=896 time=1\n",
      "pitchwheel channel=1 pitch=1152 time=3\n",
      "pitchwheel channel=1 pitch=1664 time=3\n",
      "pitchwheel channel=1 pitch=2048 time=3\n",
      "pitchwheel channel=1 pitch=2176 time=3\n",
      "pitchwheel channel=1 pitch=2816 time=7\n",
      "pitchwheel channel=1 pitch=3200 time=3\n",
      "pitchwheel channel=1 pitch=4480 time=3\n",
      "pitchwheel channel=1 pitch=4864 time=3\n",
      "pitchwheel channel=1 pitch=5248 time=3\n",
      "pitchwheel channel=1 pitch=6144 time=3\n",
      "pitchwheel channel=1 pitch=6528 time=4\n",
      "pitchwheel channel=1 pitch=8191 time=3\n",
      "note_on channel=1 note=30 velocity=0 time=14\n",
      "pitchwheel channel=1 pitch=0 time=0\n",
      "note_on channel=1 note=33 velocity=126 time=2\n",
      "note_on channel=1 note=33 velocity=0 time=165\n",
      "note_on channel=1 note=33 velocity=118 time=15\n",
      "pitchwheel channel=1 pitch=-128 time=6\n",
      "pitchwheel channel=1 pitch=-256 time=38\n",
      "pitchwheel channel=1 pitch=-512 time=6\n",
      "pitchwheel channel=1 pitch=-768 time=6\n",
      "pitchwheel channel=1 pitch=-1152 time=4\n",
      "pitchwheel channel=1 pitch=-1280 time=3\n",
      "pitchwheel channel=1 pitch=-1664 time=3\n",
      "pitchwheel channel=1 pitch=-2176 time=3\n",
      "pitchwheel channel=1 pitch=-2304 time=3\n",
      "pitchwheel channel=1 pitch=-2560 time=3\n",
      "pitchwheel channel=1 pitch=-2688 time=3\n",
      "pitchwheel channel=1 pitch=-3456 time=7\n",
      "pitchwheel channel=1 pitch=-4096 time=3\n",
      "pitchwheel channel=1 pitch=-4736 time=3\n",
      "pitchwheel channel=1 pitch=-4992 time=3\n",
      "pitchwheel channel=1 pitch=-6144 time=3\n",
      "pitchwheel channel=1 pitch=-7296 time=4\n",
      "pitchwheel channel=1 pitch=-7552 time=3\n",
      "pitchwheel channel=1 pitch=-8192 time=3\n",
      "note_on channel=1 note=33 velocity=0 time=11\n",
      "pitchwheel channel=1 pitch=0 time=0\n",
      "note_on channel=1 note=30 velocity=123 time=2\n",
      "note_on channel=1 note=30 velocity=0 time=58\n",
      "note_on channel=1 note=30 velocity=112 time=2\n",
      "note_on channel=1 note=30 velocity=0 time=48\n",
      "note_on channel=1 note=30 velocity=105 time=72\n",
      "note_on channel=1 note=30 velocity=0 time=28\n",
      "note_on channel=1 note=30 velocity=123 time=32\n",
      "note_on channel=1 note=30 velocity=0 time=58\n",
      "note_on channel=1 note=30 velocity=112 time=2\n",
      "note_on channel=1 note=30 velocity=0 time=48\n",
      "note_on channel=1 note=28 velocity=123 time=132\n",
      "note_on channel=1 note=28 velocity=0 time=58\n",
      "note_on channel=1 note=28 velocity=112 time=2\n",
      "note_on channel=1 note=28 velocity=0 time=48\n",
      "note_on channel=1 note=30 velocity=123 time=12\n",
      "pitchwheel channel=1 pitch=128 time=2\n",
      "pitchwheel channel=1 pitch=896 time=1\n",
      "pitchwheel channel=1 pitch=1152 time=3\n",
      "pitchwheel channel=1 pitch=1664 time=3\n",
      "pitchwheel channel=1 pitch=2048 time=3\n",
      "pitchwheel channel=1 pitch=2176 time=3\n",
      "pitchwheel channel=1 pitch=2816 time=7\n",
      "pitchwheel channel=1 pitch=3200 time=3\n",
      "pitchwheel channel=1 pitch=4480 time=3\n",
      "pitchwheel channel=1 pitch=4864 time=3\n",
      "pitchwheel channel=1 pitch=5248 time=3\n",
      "pitchwheel channel=1 pitch=6144 time=3\n",
      "pitchwheel channel=1 pitch=6528 time=4\n",
      "pitchwheel channel=1 pitch=8191 time=3\n",
      "note_on channel=1 note=30 velocity=0 time=14\n",
      "pitchwheel channel=1 pitch=0 time=0\n",
      "note_on channel=1 note=33 velocity=126 time=2\n",
      "note_on channel=1 note=33 velocity=0 time=178\n",
      "note_on channel=1 note=30 velocity=125 time=62\n",
      "note_on channel=1 note=30 velocity=0 time=57\n",
      "note_on channel=1 note=30 velocity=123 time=3\n",
      "note_on channel=1 note=30 velocity=0 time=58\n",
      "note_on channel=1 note=30 velocity=112 time=2\n",
      "note_on channel=1 note=30 velocity=0 time=48\n",
      "note_on channel=1 note=30 velocity=105 time=72\n",
      "note_on channel=1 note=30 velocity=0 time=28\n",
      "note_on channel=1 note=30 velocity=123 time=32\n",
      "note_on channel=1 note=30 velocity=0 time=58\n",
      "note_on channel=1 note=30 velocity=112 time=2\n",
      "note_on channel=1 note=30 velocity=0 time=48\n",
      "note_on channel=1 note=30 velocity=125 time=12\n",
      "pitchwheel channel=1 pitch=128 time=2\n",
      "pitchwheel channel=1 pitch=896 time=1\n",
      "pitchwheel channel=1 pitch=1152 time=3\n",
      "pitchwheel channel=1 pitch=1664 time=3\n",
      "pitchwheel channel=1 pitch=2048 time=3\n",
      "pitchwheel channel=1 pitch=2176 time=3\n",
      "pitchwheel channel=1 pitch=2816 time=7\n",
      "pitchwheel channel=1 pitch=3200 time=3\n",
      "pitchwheel channel=1 pitch=4480 time=3\n",
      "pitchwheel channel=1 pitch=4864 time=3\n",
      "pitchwheel channel=1 pitch=5248 time=3\n",
      "pitchwheel channel=1 pitch=6144 time=3\n",
      "pitchwheel channel=1 pitch=6528 time=4\n",
      "pitchwheel channel=1 pitch=8191 time=3\n",
      "note_on channel=1 note=30 velocity=0 time=14\n",
      "pitchwheel channel=1 pitch=0 time=0\n",
      "note_on channel=1 note=37 velocity=112 time=2\n",
      "note_on channel=1 note=37 velocity=0 time=48\n",
      "note_on channel=1 note=38 velocity=123 time=12\n",
      "note_on channel=1 note=38 velocity=0 time=58\n",
      "note_on channel=1 note=38 velocity=112 time=2\n",
      "note_on channel=1 note=38 velocity=0 time=48\n",
      "note_on channel=1 note=33 velocity=123 time=72\n",
      "note_on channel=1 note=33 velocity=0 time=178\n",
      "note_on channel=1 note=45 velocity=125 time=2\n",
      "pitchwheel channel=1 pitch=-128 time=6\n",
      "pitchwheel channel=1 pitch=-256 time=38\n",
      "pitchwheel channel=1 pitch=-512 time=6\n",
      "pitchwheel channel=1 pitch=-768 time=6\n",
      "pitchwheel channel=1 pitch=-1152 time=4\n",
      "pitchwheel channel=1 pitch=-1280 time=3\n",
      "pitchwheel channel=1 pitch=-1664 time=3\n",
      "pitchwheel channel=1 pitch=-2176 time=3\n",
      "pitchwheel channel=1 pitch=-2304 time=3\n",
      "pitchwheel channel=1 pitch=-2560 time=3\n",
      "pitchwheel channel=1 pitch=-2688 time=3\n",
      "pitchwheel channel=1 pitch=-3456 time=7\n",
      "pitchwheel channel=1 pitch=-4096 time=3\n",
      "pitchwheel channel=1 pitch=-4736 time=3\n",
      "pitchwheel channel=1 pitch=-4992 time=3\n",
      "pitchwheel channel=1 pitch=-6144 time=3\n",
      "pitchwheel channel=1 pitch=-7296 time=4\n",
      "pitchwheel channel=1 pitch=-7552 time=3\n",
      "pitchwheel channel=1 pitch=-8192 time=3\n",
      "note_on channel=1 note=45 velocity=0 time=11\n",
      "pitchwheel channel=1 pitch=0 time=0\n",
      "note_on channel=1 note=30 velocity=123 time=2\n",
      "note_on channel=1 note=30 velocity=0 time=58\n",
      "note_on channel=1 note=30 velocity=112 time=2\n",
      "note_on channel=1 note=30 velocity=0 time=48\n",
      "note_on channel=1 note=30 velocity=105 time=72\n",
      "note_on channel=1 note=30 velocity=0 time=28\n",
      "note_on channel=1 note=30 velocity=123 time=32\n",
      "note_on channel=1 note=30 velocity=0 time=58\n",
      "note_on channel=1 note=30 velocity=112 time=2\n",
      "note_on channel=1 note=30 velocity=0 time=48\n",
      "note_on channel=1 note=38 velocity=123 time=132\n",
      "note_on channel=1 note=38 velocity=0 time=58\n",
      "note_on channel=1 note=38 velocity=112 time=2\n",
      "note_on channel=1 note=38 velocity=0 time=48\n",
      "note_on channel=1 note=33 velocity=123 time=72\n",
      "note_on channel=1 note=33 velocity=0 time=165\n",
      "note_on channel=1 note=33 velocity=118 time=15\n",
      "pitchwheel channel=1 pitch=-128 time=6\n",
      "pitchwheel channel=1 pitch=-256 time=38\n",
      "pitchwheel channel=1 pitch=-512 time=6\n",
      "pitchwheel channel=1 pitch=-768 time=6\n",
      "pitchwheel channel=1 pitch=-1152 time=4\n",
      "pitchwheel channel=1 pitch=-1280 time=3\n",
      "pitchwheel channel=1 pitch=-1664 time=3\n",
      "pitchwheel channel=1 pitch=-2176 time=3\n",
      "pitchwheel channel=1 pitch=-2304 time=3\n",
      "pitchwheel channel=1 pitch=-2560 time=3\n",
      "pitchwheel channel=1 pitch=-2688 time=3\n",
      "pitchwheel channel=1 pitch=-3456 time=7\n",
      "pitchwheel channel=1 pitch=-4096 time=3\n",
      "pitchwheel channel=1 pitch=-4736 time=3\n",
      "pitchwheel channel=1 pitch=-4992 time=3\n",
      "pitchwheel channel=1 pitch=-6144 time=3\n",
      "pitchwheel channel=1 pitch=-7296 time=4\n",
      "pitchwheel channel=1 pitch=-7552 time=3\n",
      "pitchwheel channel=1 pitch=-8192 time=3\n",
      "note_on channel=1 note=33 velocity=0 time=11\n",
      "pitchwheel channel=1 pitch=0 time=0\n",
      "note_on channel=1 note=30 velocity=123 time=2\n",
      "note_on channel=1 note=30 velocity=0 time=58\n",
      "note_on channel=1 note=30 velocity=112 time=2\n",
      "note_on channel=1 note=30 velocity=0 time=48\n",
      "note_on channel=1 note=30 velocity=105 time=72\n",
      "note_on channel=1 note=30 velocity=0 time=28\n",
      "note_on channel=1 note=30 velocity=123 time=32\n",
      "note_on channel=1 note=30 velocity=0 time=58\n",
      "note_on channel=1 note=30 velocity=112 time=2\n",
      "note_on channel=1 note=30 velocity=0 time=48\n",
      "note_on channel=1 note=30 velocity=125 time=12\n",
      "pitchwheel channel=1 pitch=128 time=2\n",
      "pitchwheel channel=1 pitch=896 time=1\n",
      "pitchwheel channel=1 pitch=1152 time=3\n",
      "pitchwheel channel=1 pitch=1664 time=3\n",
      "pitchwheel channel=1 pitch=2048 time=3\n",
      "pitchwheel channel=1 pitch=2176 time=3\n",
      "pitchwheel channel=1 pitch=2816 time=7\n",
      "pitchwheel channel=1 pitch=3200 time=3\n",
      "pitchwheel channel=1 pitch=4480 time=3\n",
      "pitchwheel channel=1 pitch=4864 time=3\n",
      "pitchwheel channel=1 pitch=5248 time=3\n",
      "pitchwheel channel=1 pitch=6144 time=3\n",
      "pitchwheel channel=1 pitch=6528 time=4\n",
      "pitchwheel channel=1 pitch=8191 time=3\n",
      "note_on channel=1 note=30 velocity=0 time=14\n",
      "pitchwheel channel=1 pitch=0 time=0\n",
      "note_on channel=1 note=37 velocity=112 time=2\n",
      "note_on channel=1 note=37 velocity=0 time=48\n",
      "note_on channel=1 note=38 velocity=123 time=12\n",
      "note_on channel=1 note=38 velocity=0 time=58\n",
      "note_on channel=1 note=38 velocity=112 time=2\n",
      "note_on channel=1 note=38 velocity=0 time=48\n",
      "note_on channel=1 note=33 velocity=123 time=72\n",
      "note_on channel=1 note=33 velocity=0 time=178\n",
      "note_on channel=1 note=45 velocity=125 time=2\n",
      "pitchwheel channel=1 pitch=-128 time=6\n",
      "pitchwheel channel=1 pitch=-256 time=38\n",
      "pitchwheel channel=1 pitch=-512 time=6\n",
      "pitchwheel channel=1 pitch=-768 time=6\n",
      "pitchwheel channel=1 pitch=-1152 time=4\n",
      "pitchwheel channel=1 pitch=-1280 time=3\n",
      "pitchwheel channel=1 pitch=-1664 time=3\n",
      "pitchwheel channel=1 pitch=-2176 time=3\n",
      "pitchwheel channel=1 pitch=-2304 time=3\n",
      "pitchwheel channel=1 pitch=-2560 time=3\n",
      "pitchwheel channel=1 pitch=-2688 time=3\n",
      "pitchwheel channel=1 pitch=-3456 time=7\n",
      "pitchwheel channel=1 pitch=-4096 time=3\n",
      "pitchwheel channel=1 pitch=-4736 time=3\n",
      "pitchwheel channel=1 pitch=-4992 time=3\n",
      "pitchwheel channel=1 pitch=-6144 time=3\n",
      "pitchwheel channel=1 pitch=-7296 time=4\n",
      "pitchwheel channel=1 pitch=-7552 time=3\n",
      "pitchwheel channel=1 pitch=-8192 time=3\n",
      "note_on channel=1 note=45 velocity=0 time=11\n",
      "pitchwheel channel=1 pitch=0 time=0\n",
      "note_on channel=1 note=30 velocity=123 time=2\n",
      "note_on channel=1 note=30 velocity=0 time=58\n",
      "note_on channel=1 note=30 velocity=112 time=2\n",
      "note_on channel=1 note=30 velocity=0 time=48\n",
      "note_on channel=1 note=30 velocity=105 time=72\n",
      "note_on channel=1 note=30 velocity=0 time=28\n",
      "note_on channel=1 note=30 velocity=123 time=32\n",
      "note_on channel=1 note=30 velocity=0 time=58\n",
      "note_on channel=1 note=30 velocity=112 time=2\n",
      "note_on channel=1 note=30 velocity=0 time=48\n",
      "note_on channel=1 note=28 velocity=125 time=132\n",
      "note_on channel=1 note=28 velocity=0 time=165\n",
      "note_on channel=1 note=33 velocity=118 time=15\n",
      "pitchwheel channel=1 pitch=640 time=116\n",
      "pitchwheel channel=1 pitch=896 time=4\n",
      "pitchwheel channel=1 pitch=1152 time=3\n",
      "pitchwheel channel=1 pitch=1280 time=3\n",
      "pitchwheel channel=1 pitch=1536 time=3\n",
      "pitchwheel channel=1 pitch=2176 time=9\n",
      "pitchwheel channel=1 pitch=2688 time=4\n",
      "pitchwheel channel=1 pitch=3072 time=3\n",
      "pitchwheel channel=1 pitch=3328 time=3\n",
      "pitchwheel channel=1 pitch=3840 time=3\n",
      "pitchwheel channel=1 pitch=4224 time=3\n",
      "pitchwheel channel=1 pitch=4736 time=3\n",
      "pitchwheel channel=1 pitch=6912 time=4\n",
      "pitchwheel channel=1 pitch=7808 time=3\n",
      "pitchwheel channel=1 pitch=8191 time=6\n",
      "note_on channel=1 note=33 velocity=0 time=8\n",
      "pitchwheel channel=1 pitch=0 time=0\n",
      "note_on channel=1 note=40 velocity=125 time=2\n",
      "pitchwheel channel=1 pitch=-128 time=6\n",
      "pitchwheel channel=1 pitch=-256 time=38\n",
      "pitchwheel channel=1 pitch=-512 time=6\n",
      "pitchwheel channel=1 pitch=-768 time=6\n",
      "pitchwheel channel=1 pitch=-1152 time=4\n",
      "pitchwheel channel=1 pitch=-1280 time=3\n",
      "pitchwheel channel=1 pitch=-1664 time=3\n",
      "pitchwheel channel=1 pitch=-2176 time=3\n",
      "pitchwheel channel=1 pitch=-2304 time=3\n",
      "pitchwheel channel=1 pitch=-2560 time=3\n",
      "pitchwheel channel=1 pitch=-2688 time=3\n",
      "pitchwheel channel=1 pitch=-3456 time=7\n",
      "pitchwheel channel=1 pitch=-4096 time=3\n",
      "pitchwheel channel=1 pitch=-4736 time=3\n",
      "pitchwheel channel=1 pitch=-4992 time=3\n",
      "pitchwheel channel=1 pitch=-6144 time=3\n",
      "pitchwheel channel=1 pitch=-7296 time=4\n",
      "pitchwheel channel=1 pitch=-7552 time=3\n",
      "pitchwheel channel=1 pitch=-8192 time=3\n",
      "note_on channel=1 note=40 velocity=0 time=11\n",
      "pitchwheel channel=1 pitch=0 time=0\n",
      "note_on channel=1 note=38 velocity=123 time=2\n",
      "note_on channel=1 note=38 velocity=0 time=58\n",
      "note_on channel=1 note=38 velocity=112 time=2\n",
      "note_on channel=1 note=38 velocity=0 time=48\n",
      "note_on channel=1 note=38 velocity=105 time=72\n",
      "note_on channel=1 note=38 velocity=0 time=28\n",
      "note_on channel=1 note=38 velocity=123 time=32\n",
      "note_on channel=1 note=38 velocity=0 time=58\n",
      "note_on channel=1 note=38 velocity=112 time=2\n",
      "note_on channel=1 note=38 velocity=0 time=48\n",
      "note_on channel=1 note=38 velocity=125 time=12\n",
      "note_on channel=1 note=38 velocity=0 time=58\n",
      "note_on channel=1 note=38 velocity=112 time=2\n",
      "note_on channel=1 note=38 velocity=0 time=48\n",
      "note_on channel=1 note=28 velocity=123 time=12\n",
      "note_on channel=1 note=28 velocity=0 time=58\n",
      "note_on channel=1 note=28 velocity=112 time=2\n",
      "note_on channel=1 note=28 velocity=0 time=48\n",
      "note_on channel=1 note=30 velocity=123 time=72\n",
      "note_on channel=1 note=30 velocity=0 time=178\n",
      "note_on channel=1 note=28 velocity=112 time=52\n",
      "note_on channel=1 note=28 velocity=0 time=48\n",
      "control_change channel=1 control=101 value=0 time=22\n",
      "control_change channel=1 control=100 value=0 time=0\n",
      "control_change channel=1 control=6 value=2 time=0\n",
      "control_change channel=1 control=38 value=0 time=0\n",
      "note_on channel=1 note=38 velocity=123 time=0\n",
      "note_on channel=1 note=38 velocity=0 time=58\n",
      "note_on channel=1 note=38 velocity=112 time=2\n",
      "note_on channel=1 note=38 velocity=0 time=48\n",
      "note_on channel=1 note=38 velocity=105 time=72\n",
      "note_on channel=1 note=38 velocity=0 time=28\n",
      "note_on channel=1 note=38 velocity=123 time=32\n",
      "note_on channel=1 note=38 velocity=0 time=58\n",
      "note_on channel=1 note=38 velocity=112 time=2\n",
      "note_on channel=1 note=38 velocity=0 time=48\n",
      "note_on channel=1 note=38 velocity=125 time=12\n",
      "note_on channel=1 note=38 velocity=0 time=58\n",
      "note_on channel=1 note=38 velocity=112 time=2\n",
      "note_on channel=1 note=38 velocity=0 time=48\n",
      "note_on channel=1 note=28 velocity=123 time=12\n",
      "note_on channel=1 note=28 velocity=0 time=58\n",
      "note_on channel=1 note=28 velocity=112 time=2\n",
      "note_on channel=1 note=28 velocity=0 time=48\n",
      "note_on channel=1 note=30 velocity=123 time=72\n",
      "note_on channel=1 note=30 velocity=0 time=178\n",
      "note_on channel=1 note=28 velocity=112 time=52\n",
      "note_on channel=1 note=28 velocity=0 time=48\n",
      "note_on channel=1 note=38 velocity=123 time=22\n",
      "note_on channel=1 note=38 velocity=0 time=58\n",
      "note_on channel=1 note=38 velocity=112 time=2\n",
      "note_on channel=1 note=38 velocity=0 time=48\n",
      "note_on channel=1 note=38 velocity=105 time=72\n",
      "note_on channel=1 note=38 velocity=0 time=28\n",
      "note_on channel=1 note=38 velocity=123 time=32\n",
      "note_on channel=1 note=38 velocity=0 time=58\n",
      "note_on channel=1 note=38 velocity=112 time=2\n",
      "note_on channel=1 note=38 velocity=0 time=48\n",
      "note_on channel=1 note=38 velocity=105 time=72\n",
      "note_on channel=1 note=38 velocity=0 time=28\n",
      "note_on channel=1 note=28 velocity=123 time=32\n",
      "note_on channel=1 note=28 velocity=0 time=58\n",
      "note_on channel=1 note=28 velocity=112 time=2\n",
      "note_on channel=1 note=28 velocity=0 time=48\n",
      "note_on channel=1 note=30 velocity=123 time=12\n",
      "pitchwheel channel=1 pitch=128 time=2\n",
      "pitchwheel channel=1 pitch=896 time=1\n",
      "pitchwheel channel=1 pitch=1152 time=3\n",
      "pitchwheel channel=1 pitch=1664 time=3\n",
      "pitchwheel channel=1 pitch=2048 time=3\n",
      "pitchwheel channel=1 pitch=2176 time=3\n",
      "pitchwheel channel=1 pitch=2816 time=7\n",
      "pitchwheel channel=1 pitch=3200 time=3\n",
      "pitchwheel channel=1 pitch=4480 time=3\n",
      "pitchwheel channel=1 pitch=4864 time=3\n",
      "pitchwheel channel=1 pitch=5248 time=3\n",
      "pitchwheel channel=1 pitch=6144 time=3\n",
      "pitchwheel channel=1 pitch=6528 time=4\n",
      "pitchwheel channel=1 pitch=8191 time=3\n",
      "note_on channel=1 note=30 velocity=0 time=14\n",
      "pitchwheel channel=1 pitch=0 time=0\n",
      "note_on channel=1 note=33 velocity=126 time=2\n",
      "note_on channel=1 note=33 velocity=0 time=165\n",
      "note_on channel=1 note=33 velocity=118 time=15\n",
      "pitchwheel channel=1 pitch=-128 time=6\n",
      "pitchwheel channel=1 pitch=-256 time=38\n",
      "pitchwheel channel=1 pitch=-512 time=6\n",
      "pitchwheel channel=1 pitch=-768 time=6\n",
      "pitchwheel channel=1 pitch=-1152 time=4\n",
      "pitchwheel channel=1 pitch=-1280 time=3\n",
      "pitchwheel channel=1 pitch=-1664 time=3\n",
      "pitchwheel channel=1 pitch=-2176 time=3\n",
      "pitchwheel channel=1 pitch=-2304 time=3\n",
      "pitchwheel channel=1 pitch=-2560 time=3\n",
      "pitchwheel channel=1 pitch=-2688 time=3\n",
      "pitchwheel channel=1 pitch=-3456 time=7\n",
      "pitchwheel channel=1 pitch=-4096 time=3\n",
      "pitchwheel channel=1 pitch=-4736 time=3\n",
      "pitchwheel channel=1 pitch=-4992 time=3\n",
      "pitchwheel channel=1 pitch=-6144 time=3\n",
      "pitchwheel channel=1 pitch=-7296 time=4\n",
      "pitchwheel channel=1 pitch=-7552 time=3\n",
      "pitchwheel channel=1 pitch=-8192 time=3\n",
      "note_on channel=1 note=33 velocity=0 time=11\n",
      "pitchwheel channel=1 pitch=0 time=0\n",
      "note_on channel=1 note=30 velocity=123 time=2\n",
      "note_on channel=1 note=30 velocity=0 time=58\n",
      "note_on channel=1 note=30 velocity=112 time=2\n",
      "note_on channel=1 note=30 velocity=0 time=48\n",
      "note_on channel=1 note=30 velocity=105 time=72\n",
      "note_on channel=1 note=30 velocity=0 time=28\n",
      "note_on channel=1 note=30 velocity=123 time=32\n",
      "note_on channel=1 note=30 velocity=0 time=58\n",
      "note_on channel=1 note=30 velocity=112 time=2\n",
      "note_on channel=1 note=30 velocity=0 time=48\n",
      "note_on channel=1 note=37 velocity=125 time=132\n",
      "pitchwheel channel=1 pitch=128 time=122\n",
      "pitchwheel channel=1 pitch=896 time=1\n",
      "pitchwheel channel=1 pitch=1152 time=3\n",
      "pitchwheel channel=1 pitch=1664 time=3\n",
      "pitchwheel channel=1 pitch=2048 time=3\n",
      "pitchwheel channel=1 pitch=2176 time=3\n",
      "pitchwheel channel=1 pitch=2816 time=7\n",
      "pitchwheel channel=1 pitch=3200 time=3\n",
      "pitchwheel channel=1 pitch=4480 time=3\n",
      "pitchwheel channel=1 pitch=4864 time=3\n",
      "pitchwheel channel=1 pitch=5248 time=3\n",
      "pitchwheel channel=1 pitch=6144 time=3\n",
      "pitchwheel channel=1 pitch=6528 time=4\n",
      "pitchwheel channel=1 pitch=8191 time=3\n",
      "note_on channel=1 note=37 velocity=0 time=1\n",
      "pitchwheel channel=1 pitch=0 time=13\n",
      "note_on channel=1 note=37 velocity=126 time=2\n",
      "note_on channel=1 note=37 velocity=0 time=178\n",
      "note_on channel=1 note=37 velocity=102 time=2\n",
      "pitchwheel channel=1 pitch=-128 time=3\n",
      "pitchwheel channel=1 pitch=-384 time=5\n",
      "pitchwheel channel=1 pitch=-768 time=5\n",
      "pitchwheel channel=1 pitch=-1152 time=5\n",
      "pitchwheel channel=1 pitch=-2048 time=10\n",
      "pitchwheel channel=1 pitch=-2432 time=5\n",
      "pitchwheel channel=1 pitch=-3200 time=10\n",
      "pitchwheel channel=1 pitch=-3584 time=5\n",
      "pitchwheel channel=1 pitch=-3840 time=5\n",
      "pitchwheel channel=1 pitch=-4480 time=5\n",
      "pitchwheel channel=1 pitch=-5504 time=15\n",
      "pitchwheel channel=1 pitch=-6016 time=5\n",
      "pitchwheel channel=1 pitch=-6144 time=5\n",
      "pitchwheel channel=1 pitch=-7168 time=5\n",
      "pitchwheel channel=1 pitch=-7424 time=5\n",
      "pitchwheel channel=1 pitch=-7552 time=5\n",
      "pitchwheel channel=1 pitch=-7680 time=5\n",
      "pitchwheel channel=1 pitch=-8192 time=5\n",
      "note_on channel=1 note=37 velocity=0 time=10\n",
      "pitchwheel channel=1 pitch=0 time=0\n",
      "note_on channel=1 note=28 velocity=123 time=1862\n",
      "note_on channel=1 note=28 velocity=0 time=58\n",
      "note_on channel=1 note=30 velocity=123 time=2\n",
      "note_on channel=1 note=30 velocity=0 time=58\n",
      "note_on channel=1 note=30 velocity=125 time=2\n",
      "note_on channel=1 note=30 velocity=0 time=135\n",
      "note_on channel=1 note=28 velocity=123 time=285\n",
      "note_on channel=1 note=28 velocity=0 time=178\n",
      "note_on channel=1 note=40 velocity=125 time=2\n",
      "note_on channel=1 note=40 velocity=0 time=285\n",
      "note_on channel=1 note=38 velocity=123 time=15\n",
      "note_on channel=1 note=38 velocity=0 time=58\n",
      "note_on channel=1 note=45 velocity=112 time=2\n",
      "note_on channel=1 note=45 velocity=0 time=48\n",
      "note_on channel=1 note=52 velocity=123 time=10\n",
      "pitchwheel channel=1 pitch=-512 time=15\n",
      "pitchwheel channel=1 pitch=-768 time=6\n",
      "pitchwheel channel=1 pitch=-896 time=3\n",
      "pitchwheel channel=1 pitch=-1024 time=3\n",
      "pitchwheel channel=1 pitch=-1664 time=3\n",
      "pitchwheel channel=1 pitch=-2048 time=4\n",
      "pitchwheel channel=1 pitch=-2816 time=6\n",
      "pitchwheel channel=1 pitch=-2944 time=3\n",
      "pitchwheel channel=1 pitch=-3200 time=3\n",
      "pitchwheel channel=1 pitch=-3584 time=3\n",
      "pitchwheel channel=1 pitch=-3712 time=4\n",
      "note_on channel=1 note=52 velocity=0 time=5\n",
      "pitchwheel channel=1 pitch=-4096 time=1\n",
      "pitchwheel channel=1 pitch=0 time=1\n",
      "note_on channel=1 note=50 velocity=125 time=2\n",
      "note_on channel=1 note=50 velocity=0 time=225\n",
      "note_on channel=1 note=28 velocity=123 time=15\n",
      "note_on channel=1 note=28 velocity=0 time=56\n",
      "note_on channel=1 note=40 velocity=123 time=2\n",
      "note_on channel=1 note=40 velocity=0 time=238\n",
      "note_on channel=1 note=40 velocity=121 time=4\n",
      "pitchwheel channel=1 pitch=-128 time=126\n",
      "pitchwheel channel=1 pitch=-256 time=38\n",
      "pitchwheel channel=1 pitch=-512 time=6\n",
      "pitchwheel channel=1 pitch=-768 time=6\n",
      "pitchwheel channel=1 pitch=-1152 time=4\n",
      "pitchwheel channel=1 pitch=-1280 time=3\n",
      "pitchwheel channel=1 pitch=-1664 time=3\n",
      "pitchwheel channel=1 pitch=-2176 time=3\n",
      "pitchwheel channel=1 pitch=-2304 time=3\n",
      "pitchwheel channel=1 pitch=-2560 time=3\n",
      "pitchwheel channel=1 pitch=-2688 time=3\n",
      "pitchwheel channel=1 pitch=-3456 time=7\n",
      "pitchwheel channel=1 pitch=-4096 time=3\n",
      "pitchwheel channel=1 pitch=-4736 time=3\n",
      "pitchwheel channel=1 pitch=-4992 time=3\n",
      "pitchwheel channel=1 pitch=-6144 time=3\n",
      "pitchwheel channel=1 pitch=-7296 time=4\n",
      "pitchwheel channel=1 pitch=-7552 time=3\n",
      "pitchwheel channel=1 pitch=-8192 time=3\n",
      "pitchwheel channel=1 pitch=0 time=11\n",
      "note_on channel=1 note=40 velocity=0 time=4\n",
      "control_change channel=1 control=101 value=0 time=3358\n",
      "control_change channel=1 control=100 value=0 time=0\n",
      "control_change channel=1 control=6 value=4 time=0\n",
      "control_change channel=1 control=38 value=0 time=0\n",
      "note_on channel=1 note=32 velocity=121 time=300\n",
      "pitchwheel channel=1 pitch=384 time=6\n",
      "pitchwheel channel=1 pitch=1536 time=6\n",
      "pitchwheel channel=1 pitch=1664 time=3\n",
      "pitchwheel channel=1 pitch=1792 time=3\n",
      "pitchwheel channel=1 pitch=2816 time=7\n",
      "pitchwheel channel=1 pitch=3200 time=3\n",
      "pitchwheel channel=1 pitch=3712 time=3\n",
      "pitchwheel channel=1 pitch=4864 time=6\n",
      "pitchwheel channel=1 pitch=5632 time=4\n",
      "pitchwheel channel=1 pitch=6016 time=3\n",
      "pitchwheel channel=1 pitch=6144 time=3\n",
      "pitchwheel channel=1 pitch=6912 time=3\n",
      "pitchwheel channel=1 pitch=7936 time=3\n",
      "pitchwheel channel=1 pitch=8191 time=3\n",
      "note_on channel=1 note=32 velocity=0 time=2\n",
      "pitchwheel channel=1 pitch=0 time=1\n",
      "note_on channel=1 note=42 velocity=125 time=1\n",
      "pitchwheel channel=1 pitch=-128 time=2\n",
      "pitchwheel channel=1 pitch=-384 time=4\n",
      "pitchwheel channel=1 pitch=-640 time=3\n",
      "pitchwheel channel=1 pitch=-896 time=3\n",
      "pitchwheel channel=1 pitch=-1024 time=3\n",
      "pitchwheel channel=1 pitch=-1408 time=10\n",
      "pitchwheel channel=1 pitch=-1536 time=3\n",
      "pitchwheel channel=1 pitch=-1792 time=3\n",
      "pitchwheel channel=1 pitch=-2048 time=3\n",
      "pitchwheel channel=1 pitch=-2304 time=3\n",
      "pitchwheel channel=1 pitch=-2688 time=4\n",
      "pitchwheel channel=1 pitch=-3584 time=6\n",
      "pitchwheel channel=1 pitch=-3968 time=3\n",
      "pitchwheel channel=1 pitch=-4224 time=6\n",
      "pitchwheel channel=1 pitch=-4480 time=4\n",
      "pitchwheel channel=1 pitch=-4992 time=6\n",
      "pitchwheel channel=1 pitch=-5504 time=6\n",
      "pitchwheel channel=1 pitch=-5888 time=3\n",
      "pitchwheel channel=1 pitch=-6400 time=7\n",
      "pitchwheel channel=1 pitch=-6656 time=3\n",
      "pitchwheel channel=1 pitch=-6784 time=3\n",
      "pitchwheel channel=1 pitch=-7168 time=3\n",
      "pitchwheel channel=1 pitch=-7424 time=3\n",
      "pitchwheel channel=1 pitch=-7552 time=3\n",
      "pitchwheel channel=1 pitch=-7808 time=4\n",
      "pitchwheel channel=1 pitch=-7936 time=3\n",
      "pitchwheel channel=1 pitch=-8192 time=6\n",
      "note_on channel=1 note=42 velocity=0 time=8\n",
      "pitchwheel channel=1 pitch=0 time=0\n",
      "note_on channel=1 note=28 velocity=123 time=2\n",
      "control_change channel=1 control=101 value=0 time=0\n",
      "control_change channel=1 control=100 value=0 time=0\n",
      "control_change channel=1 control=6 value=2 time=0\n",
      "control_change channel=1 control=38 value=0 time=0\n",
      "note_on channel=1 note=28 velocity=0 time=58\n",
      "note_on channel=1 note=28 velocity=112 time=2\n",
      "note_on channel=1 note=28 velocity=0 time=48\n",
      "note_on channel=1 note=28 velocity=105 time=72\n",
      "note_on channel=1 note=28 velocity=0 time=28\n",
      "note_on channel=1 note=28 velocity=123 time=32\n",
      "note_on channel=1 note=28 velocity=0 time=58\n",
      "note_on channel=1 note=28 velocity=112 time=2\n",
      "note_on channel=1 note=28 velocity=0 time=48\n",
      "note_on channel=1 note=28 velocity=125 time=12\n",
      "note_on channel=1 note=28 velocity=0 time=58\n",
      "note_on channel=1 note=28 velocity=112 time=2\n",
      "note_on channel=1 note=28 velocity=0 time=48\n",
      "note_on channel=1 note=30 velocity=123 time=12\n",
      "note_on channel=1 note=30 velocity=0 time=58\n",
      "note_on channel=1 note=30 velocity=112 time=2\n",
      "note_on channel=1 note=30 velocity=0 time=48\n",
      "note_on channel=1 note=32 velocity=123 time=72\n",
      "note_on channel=1 note=32 velocity=0 time=178\n",
      "note_on channel=1 note=30 velocity=112 time=52\n",
      "note_on channel=1 note=30 velocity=0 time=48\n",
      "control_change channel=1 control=101 value=0 time=22\n",
      "control_change channel=1 control=100 value=0 time=0\n",
      "control_change channel=1 control=6 value=2 time=0\n",
      "control_change channel=1 control=38 value=0 time=0\n",
      "note_on channel=1 note=28 velocity=123 time=0\n",
      "note_on channel=1 note=28 velocity=0 time=58\n",
      "note_on channel=1 note=28 velocity=112 time=2\n",
      "note_on channel=1 note=28 velocity=0 time=48\n",
      "note_on channel=1 note=28 velocity=105 time=72\n",
      "note_on channel=1 note=28 velocity=0 time=28\n",
      "note_on channel=1 note=28 velocity=123 time=32\n",
      "note_on channel=1 note=28 velocity=0 time=58\n",
      "note_on channel=1 note=28 velocity=112 time=2\n",
      "note_on channel=1 note=28 velocity=0 time=48\n",
      "note_on channel=1 note=28 velocity=125 time=12\n",
      "note_on channel=1 note=28 velocity=0 time=58\n",
      "note_on channel=1 note=28 velocity=112 time=2\n",
      "note_on channel=1 note=28 velocity=0 time=48\n",
      "note_on channel=1 note=30 velocity=123 time=12\n",
      "note_on channel=1 note=30 velocity=0 time=58\n",
      "note_on channel=1 note=30 velocity=112 time=2\n",
      "note_on channel=1 note=30 velocity=0 time=48\n",
      "note_on channel=1 note=32 velocity=123 time=72\n",
      "note_on channel=1 note=32 velocity=0 time=178\n",
      "note_on channel=1 note=30 velocity=112 time=52\n",
      "note_on channel=1 note=30 velocity=0 time=48\n",
      "note_on channel=1 note=28 velocity=123 time=22\n",
      "note_on channel=1 note=28 velocity=0 time=58\n",
      "note_on channel=1 note=28 velocity=112 time=2\n",
      "note_on channel=1 note=28 velocity=0 time=48\n",
      "note_on channel=1 note=28 velocity=105 time=72\n",
      "note_on channel=1 note=28 velocity=0 time=28\n",
      "note_on channel=1 note=28 velocity=123 time=32\n",
      "note_on channel=1 note=28 velocity=0 time=58\n",
      "note_on channel=1 note=28 velocity=112 time=2\n",
      "note_on channel=1 note=28 velocity=0 time=48\n",
      "note_on channel=1 note=28 velocity=105 time=72\n",
      "note_on channel=1 note=28 velocity=0 time=28\n",
      "note_on channel=1 note=30 velocity=123 time=32\n",
      "note_on channel=1 note=30 velocity=0 time=58\n",
      "note_on channel=1 note=30 velocity=112 time=2\n",
      "note_on channel=1 note=30 velocity=0 time=48\n",
      "note_on channel=1 note=32 velocity=123 time=12\n",
      "pitchwheel channel=1 pitch=128 time=6\n",
      "pitchwheel channel=1 pitch=512 time=3\n",
      "pitchwheel channel=1 pitch=1024 time=6\n",
      "pitchwheel channel=1 pitch=1280 time=3\n",
      "pitchwheel channel=1 pitch=1792 time=7\n",
      "pitchwheel channel=1 pitch=2048 time=6\n",
      "pitchwheel channel=1 pitch=2816 time=3\n",
      "pitchwheel channel=1 pitch=3072 time=3\n",
      "pitchwheel channel=1 pitch=3456 time=4\n",
      "pitchwheel channel=1 pitch=4096 time=3\n",
      "note_on channel=1 note=32 velocity=0 time=14\n",
      "pitchwheel channel=1 pitch=0 time=0\n",
      "note_on channel=1 note=35 velocity=125 time=2\n",
      "note_on channel=1 note=35 velocity=0 time=165\n",
      "note_on channel=1 note=35 velocity=118 time=15\n",
      "pitchwheel channel=1 pitch=-128 time=6\n",
      "pitchwheel channel=1 pitch=-256 time=38\n",
      "pitchwheel channel=1 pitch=-512 time=6\n",
      "pitchwheel channel=1 pitch=-768 time=6\n",
      "pitchwheel channel=1 pitch=-1152 time=4\n",
      "pitchwheel channel=1 pitch=-1280 time=3\n",
      "pitchwheel channel=1 pitch=-1664 time=3\n",
      "pitchwheel channel=1 pitch=-2176 time=3\n",
      "pitchwheel channel=1 pitch=-2304 time=3\n",
      "pitchwheel channel=1 pitch=-2560 time=3\n",
      "pitchwheel channel=1 pitch=-2688 time=3\n",
      "pitchwheel channel=1 pitch=-3456 time=7\n",
      "pitchwheel channel=1 pitch=-4096 time=3\n",
      "pitchwheel channel=1 pitch=-4736 time=3\n",
      "pitchwheel channel=1 pitch=-4992 time=3\n",
      "pitchwheel channel=1 pitch=-6144 time=3\n",
      "pitchwheel channel=1 pitch=-7296 time=4\n",
      "pitchwheel channel=1 pitch=-7552 time=3\n",
      "pitchwheel channel=1 pitch=-8192 time=3\n",
      "note_on channel=1 note=35 velocity=0 time=11\n",
      "pitchwheel channel=1 pitch=0 time=0\n",
      "note_on channel=1 note=32 velocity=123 time=2\n",
      "note_on channel=1 note=32 velocity=0 time=58\n",
      "note_on channel=1 note=32 velocity=112 time=2\n",
      "note_on channel=1 note=32 velocity=0 time=48\n",
      "note_on channel=1 note=32 velocity=105 time=72\n",
      "note_on channel=1 note=32 velocity=0 time=28\n",
      "note_on channel=1 note=32 velocity=123 time=32\n",
      "note_on channel=1 note=32 velocity=0 time=58\n",
      "note_on channel=1 note=32 velocity=112 time=2\n",
      "note_on channel=1 note=32 velocity=0 time=48\n",
      "note_on channel=1 note=30 velocity=123 time=132\n",
      "note_on channel=1 note=30 velocity=0 time=58\n",
      "note_on channel=1 note=30 velocity=112 time=2\n",
      "note_on channel=1 note=30 velocity=0 time=48\n",
      "note_on channel=1 note=32 velocity=123 time=12\n",
      "pitchwheel channel=1 pitch=128 time=6\n",
      "pitchwheel channel=1 pitch=512 time=3\n",
      "pitchwheel channel=1 pitch=1024 time=6\n",
      "pitchwheel channel=1 pitch=1280 time=3\n",
      "pitchwheel channel=1 pitch=1792 time=7\n",
      "pitchwheel channel=1 pitch=2048 time=6\n",
      "pitchwheel channel=1 pitch=2816 time=3\n",
      "pitchwheel channel=1 pitch=3072 time=3\n",
      "pitchwheel channel=1 pitch=3456 time=4\n",
      "pitchwheel channel=1 pitch=4096 time=3\n",
      "note_on channel=1 note=32 velocity=0 time=14\n",
      "pitchwheel channel=1 pitch=0 time=0\n",
      "note_on channel=1 note=35 velocity=125 time=2\n",
      "note_on channel=1 note=35 velocity=0 time=178\n",
      "note_on channel=1 note=32 velocity=112 time=62\n",
      "note_on channel=1 note=32 velocity=0 time=57\n",
      "note_on channel=1 note=28 velocity=123 time=3\n",
      "note_on channel=1 note=28 velocity=0 time=58\n",
      "note_on channel=1 note=28 velocity=112 time=2\n",
      "note_on channel=1 note=28 velocity=0 time=48\n",
      "note_on channel=1 note=28 velocity=105 time=72\n",
      "note_on channel=1 note=28 velocity=0 time=28\n",
      "note_on channel=1 note=28 velocity=123 time=32\n",
      "note_on channel=1 note=28 velocity=0 time=58\n",
      "note_on channel=1 note=28 velocity=112 time=2\n",
      "note_on channel=1 note=28 velocity=0 time=48\n",
      "note_on channel=1 note=28 velocity=125 time=12\n",
      "note_on channel=1 note=28 velocity=0 time=58\n",
      "note_on channel=1 note=28 velocity=112 time=2\n",
      "note_on channel=1 note=28 velocity=0 time=48\n",
      "note_on channel=1 note=30 velocity=123 time=12\n",
      "note_on channel=1 note=30 velocity=0 time=58\n",
      "note_on channel=1 note=30 velocity=112 time=2\n",
      "note_on channel=1 note=30 velocity=0 time=48\n",
      "note_on channel=1 note=32 velocity=123 time=72\n",
      "note_on channel=1 note=32 velocity=0 time=178\n",
      "note_on channel=1 note=30 velocity=112 time=52\n",
      "note_on channel=1 note=30 velocity=0 time=48\n",
      "control_change channel=1 control=101 value=0 time=22\n",
      "control_change channel=1 control=100 value=0 time=0\n",
      "control_change channel=1 control=6 value=2 time=0\n",
      "control_change channel=1 control=38 value=0 time=0\n",
      "note_on channel=1 note=28 velocity=123 time=0\n",
      "note_on channel=1 note=28 velocity=0 time=58\n",
      "note_on channel=1 note=28 velocity=112 time=2\n",
      "note_on channel=1 note=28 velocity=0 time=48\n",
      "note_on channel=1 note=28 velocity=105 time=72\n",
      "note_on channel=1 note=28 velocity=0 time=28\n",
      "note_on channel=1 note=28 velocity=123 time=32\n",
      "note_on channel=1 note=28 velocity=0 time=58\n",
      "note_on channel=1 note=28 velocity=112 time=2\n",
      "note_on channel=1 note=28 velocity=0 time=48\n",
      "note_on channel=1 note=28 velocity=125 time=12\n",
      "note_on channel=1 note=28 velocity=0 time=58\n",
      "note_on channel=1 note=28 velocity=112 time=2\n",
      "note_on channel=1 note=28 velocity=0 time=48\n",
      "note_on channel=1 note=30 velocity=123 time=12\n",
      "note_on channel=1 note=30 velocity=0 time=58\n",
      "note_on channel=1 note=30 velocity=112 time=2\n",
      "note_on channel=1 note=30 velocity=0 time=48\n",
      "note_on channel=1 note=32 velocity=123 time=72\n",
      "note_on channel=1 note=32 velocity=0 time=178\n",
      "note_on channel=1 note=30 velocity=112 time=52\n",
      "note_on channel=1 note=30 velocity=0 time=48\n",
      "note_on channel=1 note=28 velocity=123 time=22\n",
      "note_on channel=1 note=28 velocity=0 time=58\n",
      "note_on channel=1 note=28 velocity=112 time=2\n",
      "note_on channel=1 note=28 velocity=0 time=48\n",
      "note_on channel=1 note=28 velocity=105 time=72\n",
      "note_on channel=1 note=28 velocity=0 time=28\n",
      "note_on channel=1 note=28 velocity=123 time=32\n",
      "note_on channel=1 note=28 velocity=0 time=58\n",
      "note_on channel=1 note=28 velocity=112 time=2\n",
      "note_on channel=1 note=28 velocity=0 time=48\n",
      "note_on channel=1 note=28 velocity=105 time=72\n",
      "note_on channel=1 note=28 velocity=0 time=28\n",
      "note_on channel=1 note=30 velocity=123 time=32\n",
      "note_on channel=1 note=30 velocity=0 time=58\n",
      "note_on channel=1 note=30 velocity=112 time=2\n",
      "note_on channel=1 note=30 velocity=0 time=48\n",
      "note_on channel=1 note=32 velocity=123 time=12\n",
      "pitchwheel channel=1 pitch=128 time=6\n",
      "pitchwheel channel=1 pitch=512 time=3\n",
      "pitchwheel channel=1 pitch=1024 time=6\n",
      "pitchwheel channel=1 pitch=1280 time=3\n",
      "pitchwheel channel=1 pitch=1792 time=7\n",
      "pitchwheel channel=1 pitch=2048 time=6\n",
      "pitchwheel channel=1 pitch=2816 time=3\n",
      "pitchwheel channel=1 pitch=3072 time=3\n",
      "pitchwheel channel=1 pitch=3456 time=4\n",
      "pitchwheel channel=1 pitch=4096 time=3\n",
      "note_on channel=1 note=32 velocity=0 time=14\n",
      "pitchwheel channel=1 pitch=0 time=0\n",
      "note_on channel=1 note=35 velocity=125 time=2\n",
      "note_on channel=1 note=35 velocity=0 time=165\n",
      "note_on channel=1 note=35 velocity=118 time=15\n",
      "pitchwheel channel=1 pitch=-128 time=6\n",
      "pitchwheel channel=1 pitch=-256 time=38\n",
      "pitchwheel channel=1 pitch=-512 time=6\n",
      "pitchwheel channel=1 pitch=-768 time=6\n",
      "pitchwheel channel=1 pitch=-1152 time=4\n",
      "pitchwheel channel=1 pitch=-1280 time=3\n",
      "pitchwheel channel=1 pitch=-1664 time=3\n",
      "pitchwheel channel=1 pitch=-2176 time=3\n",
      "pitchwheel channel=1 pitch=-2304 time=3\n",
      "pitchwheel channel=1 pitch=-2560 time=3\n",
      "pitchwheel channel=1 pitch=-2688 time=3\n",
      "pitchwheel channel=1 pitch=-3456 time=7\n",
      "pitchwheel channel=1 pitch=-4096 time=3\n",
      "pitchwheel channel=1 pitch=-4736 time=3\n",
      "pitchwheel channel=1 pitch=-4992 time=3\n",
      "pitchwheel channel=1 pitch=-6144 time=3\n",
      "pitchwheel channel=1 pitch=-7296 time=4\n",
      "pitchwheel channel=1 pitch=-7552 time=3\n",
      "pitchwheel channel=1 pitch=-8192 time=3\n",
      "note_on channel=1 note=35 velocity=0 time=11\n",
      "pitchwheel channel=1 pitch=0 time=0\n",
      "note_on channel=1 note=32 velocity=123 time=2\n",
      "note_on channel=1 note=32 velocity=0 time=58\n",
      "note_on channel=1 note=32 velocity=112 time=2\n",
      "note_on channel=1 note=32 velocity=0 time=48\n",
      "note_on channel=1 note=32 velocity=105 time=72\n",
      "note_on channel=1 note=32 velocity=0 time=28\n",
      "note_on channel=1 note=32 velocity=123 time=32\n",
      "note_on channel=1 note=32 velocity=0 time=58\n",
      "note_on channel=1 note=32 velocity=112 time=2\n",
      "note_on channel=1 note=32 velocity=0 time=48\n",
      "note_on channel=1 note=30 velocity=123 time=132\n",
      "note_on channel=1 note=30 velocity=0 time=58\n",
      "note_on channel=1 note=30 velocity=112 time=2\n",
      "note_on channel=1 note=30 velocity=0 time=48\n",
      "note_on channel=1 note=32 velocity=123 time=12\n",
      "pitchwheel channel=1 pitch=128 time=6\n",
      "pitchwheel channel=1 pitch=512 time=3\n",
      "pitchwheel channel=1 pitch=1024 time=6\n",
      "pitchwheel channel=1 pitch=1280 time=3\n",
      "pitchwheel channel=1 pitch=1792 time=7\n",
      "pitchwheel channel=1 pitch=2048 time=6\n",
      "pitchwheel channel=1 pitch=2816 time=3\n",
      "pitchwheel channel=1 pitch=3072 time=3\n",
      "pitchwheel channel=1 pitch=3456 time=4\n",
      "pitchwheel channel=1 pitch=4096 time=3\n",
      "note_on channel=1 note=32 velocity=0 time=14\n",
      "pitchwheel channel=1 pitch=0 time=0\n",
      "note_on channel=1 note=35 velocity=125 time=2\n",
      "note_on channel=1 note=35 velocity=0 time=178\n",
      "note_on channel=1 note=32 velocity=112 time=62\n",
      "note_on channel=1 note=32 velocity=0 time=57\n",
      "note_on channel=1 note=28 velocity=123 time=3\n",
      "note_on channel=1 note=28 velocity=0 time=58\n",
      "note_on channel=1 note=28 velocity=112 time=2\n",
      "note_on channel=1 note=28 velocity=0 time=48\n",
      "note_on channel=1 note=28 velocity=105 time=72\n",
      "note_on channel=1 note=28 velocity=0 time=28\n",
      "note_on channel=1 note=28 velocity=123 time=32\n",
      "note_on channel=1 note=28 velocity=0 time=58\n",
      "note_on channel=1 note=28 velocity=112 time=2\n",
      "note_on channel=1 note=28 velocity=0 time=48\n",
      "note_on channel=1 note=28 velocity=125 time=12\n",
      "note_on channel=1 note=28 velocity=0 time=58\n",
      "note_on channel=1 note=28 velocity=112 time=2\n",
      "note_on channel=1 note=28 velocity=0 time=48\n",
      "note_on channel=1 note=30 velocity=123 time=12\n",
      "note_on channel=1 note=30 velocity=0 time=58\n",
      "note_on channel=1 note=30 velocity=112 time=2\n",
      "note_on channel=1 note=30 velocity=0 time=48\n",
      "note_on channel=1 note=32 velocity=123 time=72\n",
      "note_on channel=1 note=32 velocity=0 time=178\n",
      "note_on channel=1 note=30 velocity=112 time=52\n",
      "note_on channel=1 note=30 velocity=0 time=48\n",
      "control_change channel=1 control=101 value=0 time=22\n",
      "control_change channel=1 control=100 value=0 time=0\n",
      "control_change channel=1 control=6 value=2 time=0\n",
      "control_change channel=1 control=38 value=0 time=0\n",
      "note_on channel=1 note=28 velocity=123 time=0\n",
      "note_on channel=1 note=28 velocity=0 time=58\n",
      "note_on channel=1 note=28 velocity=112 time=2\n",
      "note_on channel=1 note=28 velocity=0 time=48\n",
      "note_on channel=1 note=28 velocity=105 time=72\n",
      "note_on channel=1 note=28 velocity=0 time=28\n",
      "note_on channel=1 note=28 velocity=123 time=32\n",
      "note_on channel=1 note=28 velocity=0 time=58\n",
      "note_on channel=1 note=28 velocity=112 time=2\n",
      "note_on channel=1 note=28 velocity=0 time=48\n",
      "note_on channel=1 note=28 velocity=125 time=12\n",
      "note_on channel=1 note=28 velocity=0 time=58\n",
      "note_on channel=1 note=28 velocity=112 time=2\n",
      "note_on channel=1 note=28 velocity=0 time=48\n",
      "note_on channel=1 note=30 velocity=123 time=12\n",
      "note_on channel=1 note=30 velocity=0 time=58\n",
      "note_on channel=1 note=30 velocity=112 time=2\n",
      "note_on channel=1 note=30 velocity=0 time=48\n",
      "note_on channel=1 note=32 velocity=123 time=72\n",
      "note_on channel=1 note=32 velocity=0 time=178\n",
      "note_on channel=1 note=30 velocity=112 time=52\n",
      "note_on channel=1 note=30 velocity=0 time=48\n",
      "note_on channel=1 note=28 velocity=123 time=22\n",
      "note_on channel=1 note=28 velocity=0 time=58\n",
      "note_on channel=1 note=28 velocity=112 time=2\n",
      "note_on channel=1 note=28 velocity=0 time=48\n",
      "note_on channel=1 note=28 velocity=105 time=72\n",
      "note_on channel=1 note=28 velocity=0 time=28\n",
      "note_on channel=1 note=28 velocity=123 time=32\n",
      "note_on channel=1 note=28 velocity=0 time=58\n",
      "note_on channel=1 note=28 velocity=112 time=2\n",
      "note_on channel=1 note=28 velocity=0 time=48\n",
      "note_on channel=1 note=28 velocity=105 time=72\n",
      "note_on channel=1 note=28 velocity=0 time=28\n",
      "note_on channel=1 note=30 velocity=123 time=32\n",
      "note_on channel=1 note=30 velocity=0 time=58\n",
      "note_on channel=1 note=30 velocity=112 time=2\n",
      "note_on channel=1 note=30 velocity=0 time=48\n",
      "note_on channel=1 note=32 velocity=123 time=12\n",
      "pitchwheel channel=1 pitch=128 time=6\n",
      "pitchwheel channel=1 pitch=512 time=3\n",
      "pitchwheel channel=1 pitch=1024 time=6\n",
      "pitchwheel channel=1 pitch=1280 time=3\n",
      "pitchwheel channel=1 pitch=1792 time=7\n",
      "pitchwheel channel=1 pitch=2048 time=6\n",
      "pitchwheel channel=1 pitch=2816 time=3\n",
      "pitchwheel channel=1 pitch=3072 time=3\n",
      "pitchwheel channel=1 pitch=3456 time=4\n",
      "pitchwheel channel=1 pitch=4096 time=3\n",
      "note_on channel=1 note=32 velocity=0 time=14\n",
      "pitchwheel channel=1 pitch=0 time=0\n",
      "note_on channel=1 note=35 velocity=125 time=2\n",
      "note_on channel=1 note=35 velocity=0 time=165\n",
      "note_on channel=1 note=35 velocity=118 time=15\n",
      "pitchwheel channel=1 pitch=-128 time=6\n",
      "pitchwheel channel=1 pitch=-256 time=38\n",
      "pitchwheel channel=1 pitch=-512 time=6\n",
      "pitchwheel channel=1 pitch=-768 time=6\n",
      "pitchwheel channel=1 pitch=-1152 time=4\n",
      "pitchwheel channel=1 pitch=-1280 time=3\n",
      "pitchwheel channel=1 pitch=-1664 time=3\n",
      "pitchwheel channel=1 pitch=-2176 time=3\n",
      "pitchwheel channel=1 pitch=-2304 time=3\n",
      "pitchwheel channel=1 pitch=-2560 time=3\n",
      "pitchwheel channel=1 pitch=-2688 time=3\n",
      "pitchwheel channel=1 pitch=-3456 time=7\n",
      "pitchwheel channel=1 pitch=-4096 time=3\n",
      "pitchwheel channel=1 pitch=-4736 time=3\n",
      "pitchwheel channel=1 pitch=-4992 time=3\n",
      "pitchwheel channel=1 pitch=-6144 time=3\n",
      "pitchwheel channel=1 pitch=-7296 time=4\n",
      "pitchwheel channel=1 pitch=-7552 time=3\n",
      "pitchwheel channel=1 pitch=-8192 time=3\n",
      "note_on channel=1 note=35 velocity=0 time=11\n",
      "pitchwheel channel=1 pitch=0 time=0\n",
      "note_on channel=1 note=32 velocity=123 time=2\n",
      "note_on channel=1 note=32 velocity=0 time=380\n",
      "note_on channel=1 note=30 velocity=123 time=100\n",
      "pitchwheel channel=1 pitch=128 time=126\n",
      "pitchwheel channel=1 pitch=512 time=3\n",
      "pitchwheel channel=1 pitch=1024 time=6\n",
      "pitchwheel channel=1 pitch=1280 time=3\n",
      "pitchwheel channel=1 pitch=1792 time=7\n",
      "pitchwheel channel=1 pitch=2048 time=6\n",
      "pitchwheel channel=1 pitch=2816 time=3\n",
      "pitchwheel channel=1 pitch=3072 time=3\n",
      "pitchwheel channel=1 pitch=3456 time=4\n",
      "pitchwheel channel=1 pitch=4096 time=3\n",
      "pitchwheel channel=1 pitch=0 time=14\n",
      "note_on channel=1 note=30 velocity=0 time=2\n",
      "note_on channel=1 note=35 velocity=118 time=0\n",
      "pitchwheel channel=1 pitch=-512 time=180\n",
      "pitchwheel channel=1 pitch=-640 time=3\n",
      "pitchwheel channel=1 pitch=-896 time=3\n",
      "pitchwheel channel=1 pitch=-1152 time=3\n",
      "pitchwheel channel=1 pitch=-1280 time=3\n",
      "pitchwheel channel=1 pitch=-1664 time=10\n",
      "pitchwheel channel=1 pitch=-1920 time=6\n",
      "pitchwheel channel=1 pitch=-2176 time=6\n",
      "pitchwheel channel=1 pitch=-2432 time=7\n",
      "pitchwheel channel=1 pitch=-2688 time=6\n",
      "pitchwheel channel=1 pitch=-2816 time=3\n",
      "pitchwheel channel=1 pitch=-3200 time=10\n",
      "pitchwheel channel=1 pitch=-3584 time=3\n",
      "pitchwheel channel=1 pitch=-4352 time=9\n",
      "pitchwheel channel=1 pitch=-4480 time=3\n",
      "pitchwheel channel=1 pitch=-4992 time=3\n",
      "pitchwheel channel=1 pitch=-5248 time=4\n",
      "pitchwheel channel=1 pitch=-5376 time=3\n",
      "pitchwheel channel=1 pitch=-5760 time=3\n",
      "pitchwheel channel=1 pitch=-6400 time=3\n",
      "pitchwheel channel=1 pitch=-7040 time=6\n",
      "pitchwheel channel=1 pitch=-7552 time=4\n",
      "pitchwheel channel=1 pitch=-7680 time=3\n",
      "pitchwheel channel=1 pitch=-8192 time=3\n",
      "note_on channel=1 note=35 velocity=0 time=3\n",
      "pitchwheel channel=1 pitch=0 time=8\n",
      "note_on channel=1 note=32 velocity=85 time=2\n",
      "note_on channel=1 note=32 velocity=0 time=470\n",
      "MetaMessage('end_of_track', time=0)\n",
      "Track 3\n",
      "MetaMessage('midi_port', port=0, time=0)\n",
      "MetaMessage('track_name', name='', time=0)\n",
      "program_change channel=2 program=18 time=0\n",
      "control_change channel=2 control=7 value=65 time=0\n",
      "control_change channel=2 control=10 value=68 time=0\n",
      "control_change channel=2 control=11 value=127 time=540\n",
      "control_change channel=2 control=91 value=40 time=2\n",
      "control_change channel=2 control=93 value=0 time=2\n",
      "control_change channel=2 control=94 value=0 time=2\n",
      "note_on channel=2 note=66 velocity=49 time=6171\n",
      "note_on channel=2 note=73 velocity=58 time=1\n",
      "note_on channel=2 note=69 velocity=49 time=1\n",
      "note_on channel=2 note=74 velocity=72 time=476\n",
      "note_on channel=2 note=73 velocity=0 time=2\n",
      "note_on channel=2 note=66 velocity=0 time=167\n",
      "note_on channel=2 note=74 velocity=0 time=16\n",
      "note_on channel=2 note=73 velocity=63 time=0\n",
      "note_on channel=2 note=64 velocity=57 time=1\n",
      "note_on channel=2 note=64 velocity=0 time=255\n",
      "note_on channel=2 note=66 velocity=56 time=39\n",
      "note_on channel=2 note=74 velocity=74 time=481\n",
      "note_on channel=2 note=73 velocity=0 time=6\n",
      "note_on channel=2 note=66 velocity=0 time=159\n",
      "note_on channel=2 note=74 velocity=0 time=16\n",
      "note_on channel=2 note=73 velocity=66 time=0\n",
      "note_on channel=2 note=64 velocity=62 time=3\n",
      "note_on channel=2 note=64 velocity=0 time=260\n",
      "note_on channel=2 note=66 velocity=58 time=37\n",
      "note_on channel=2 note=74 velocity=79 time=483\n",
      "note_on channel=2 note=73 velocity=0 time=5\n",
      "note_on channel=2 note=66 velocity=0 time=151\n",
      "note_on channel=2 note=74 velocity=0 time=23\n",
      "note_on channel=2 note=73 velocity=69 time=0\n",
      "note_on channel=2 note=64 velocity=69 time=2\n",
      "note_on channel=2 note=64 velocity=0 time=265\n",
      "note_on channel=2 note=66 velocity=61 time=34\n",
      "note_on channel=2 note=69 velocity=0 time=445\n",
      "note_on channel=2 note=66 velocity=0 time=18\n",
      "note_on channel=2 note=71 velocity=67 time=12\n",
      "note_on channel=2 note=68 velocity=61 time=5\n",
      "note_on channel=2 note=64 velocity=69 time=1\n",
      "note_on channel=2 note=73 velocity=0 time=2\n",
      "note_on channel=2 note=69 velocity=74 time=174\n",
      "note_on channel=2 note=73 velocity=69 time=1\n",
      "note_on channel=2 note=68 velocity=0 time=2\n",
      "note_on channel=2 note=71 velocity=0 time=2\n",
      "note_on channel=2 note=73 velocity=0 time=297\n",
      "note_on channel=2 note=64 velocity=0 time=4\n",
      "note_on channel=2 note=69 velocity=0 time=5\n",
      "note_on channel=2 note=66 velocity=30 time=3829\n",
      "note_on channel=2 note=73 velocity=36 time=1\n",
      "note_on channel=2 note=69 velocity=30 time=1\n",
      "note_on channel=2 note=74 velocity=45 time=476\n",
      "note_on channel=2 note=73 velocity=0 time=2\n",
      "note_on channel=2 note=66 velocity=0 time=167\n",
      "note_on channel=2 note=74 velocity=0 time=16\n",
      "note_on channel=2 note=73 velocity=39 time=0\n",
      "note_on channel=2 note=64 velocity=35 time=1\n",
      "note_on channel=2 note=64 velocity=0 time=255\n",
      "note_on channel=2 note=66 velocity=35 time=39\n",
      "note_on channel=2 note=74 velocity=45 time=481\n",
      "note_on channel=2 note=73 velocity=0 time=6\n",
      "note_on channel=2 note=66 velocity=0 time=159\n",
      "note_on channel=2 note=74 velocity=0 time=16\n",
      "note_on channel=2 note=73 velocity=41 time=0\n",
      "note_on channel=2 note=64 velocity=38 time=3\n",
      "note_on channel=2 note=64 velocity=0 time=260\n",
      "note_on channel=2 note=66 velocity=36 time=37\n",
      "note_on channel=2 note=74 velocity=49 time=483\n",
      "note_on channel=2 note=73 velocity=0 time=5\n",
      "note_on channel=2 note=66 velocity=0 time=151\n",
      "note_on channel=2 note=74 velocity=0 time=23\n",
      "note_on channel=2 note=73 velocity=43 time=0\n",
      "note_on channel=2 note=64 velocity=43 time=2\n",
      "note_on channel=2 note=64 velocity=0 time=265\n",
      "note_on channel=2 note=73 velocity=0 time=34\n",
      "note_on channel=2 note=69 velocity=0 time=0\n",
      "note_on channel=2 note=102 velocity=101 time=6839\n",
      "note_on channel=2 note=102 velocity=0 time=22\n",
      "note_on channel=2 note=90 velocity=95 time=38\n",
      "note_on channel=2 note=90 velocity=0 time=89\n",
      "note_on channel=2 note=90 velocity=104 time=31\n",
      "note_on channel=2 note=90 velocity=0 time=48\n",
      "note_on channel=2 note=90 velocity=96 time=12\n",
      "note_on channel=2 note=90 velocity=0 time=91\n",
      "MetaMessage('end_of_track', time=0)\n",
      "Track 4\n",
      "MetaMessage('midi_port', port=0, time=0)\n",
      "MetaMessage('track_name', name='', time=0)\n",
      "program_change channel=3 program=68 time=0\n",
      "control_change channel=3 control=7 value=78 time=0\n",
      "control_change channel=3 control=10 value=64 time=0\n",
      "control_change channel=3 control=11 value=127 time=560\n",
      "control_change channel=3 control=91 value=110 time=2\n",
      "control_change channel=3 control=93 value=0 time=2\n",
      "control_change channel=3 control=94 value=0 time=2\n",
      "note_on channel=3 note=73 velocity=106 time=989\n",
      "note_on channel=3 note=73 velocity=0 time=54\n",
      "note_on channel=3 note=71 velocity=96 time=6\n",
      "note_on channel=3 note=71 velocity=0 time=120\n",
      "note_on channel=3 note=69 velocity=106 time=7\n",
      "note_on channel=3 note=69 velocity=0 time=178\n",
      "note_on channel=3 note=66 velocity=98 time=839\n",
      "note_on channel=3 note=66 velocity=0 time=55\n",
      "note_on channel=3 note=69 velocity=96 time=4\n",
      "note_on channel=3 note=69 velocity=0 time=302\n",
      "note_on channel=3 note=73 velocity=80 time=125\n",
      "note_on channel=3 note=73 velocity=0 time=112\n",
      "note_on channel=3 note=66 velocity=80 time=1\n",
      "note_on channel=3 note=66 velocity=0 time=180\n",
      "note_on channel=3 note=64 velocity=96 time=3\n",
      "note_on channel=3 note=66 velocity=99 time=182\n",
      "note_on channel=3 note=64 velocity=0 time=3\n",
      "note_on channel=3 note=66 velocity=0 time=54\n",
      "note_on channel=3 note=69 velocity=102 time=2\n",
      "note_on channel=3 note=69 velocity=0 time=298\n",
      "note_on channel=3 note=73 velocity=106 time=123\n",
      "note_on channel=3 note=73 velocity=0 time=115\n",
      "note_on channel=3 note=66 velocity=80 time=7\n",
      "note_on channel=3 note=66 velocity=0 time=173\n",
      "note_on channel=3 note=71 velocity=91 time=2\n",
      "pitchwheel channel=3 pitch=-41 time=55\n",
      "pitchwheel channel=3 pitch=-641 time=1\n",
      "pitchwheel channel=3 pitch=-1341 time=1\n",
      "pitchwheel channel=3 pitch=-2181 time=1\n",
      "pitchwheel channel=3 pitch=-2981 time=0\n",
      "pitchwheel channel=3 pitch=-3761 time=1\n",
      "pitchwheel channel=3 pitch=-4541 time=1\n",
      "pitchwheel channel=3 pitch=-5281 time=1\n",
      "pitchwheel channel=3 pitch=-5981 time=0\n",
      "pitchwheel channel=3 pitch=-6621 time=1\n",
      "pitchwheel channel=3 pitch=-7221 time=1\n",
      "pitchwheel channel=3 pitch=-7721 time=1\n",
      "pitchwheel channel=3 pitch=-8041 time=0\n",
      "pitchwheel channel=3 pitch=-8161 time=1\n",
      "pitchwheel channel=3 pitch=-8192 time=5\n",
      "note_on channel=3 note=71 velocity=0 time=80\n",
      "pitchwheel channel=3 pitch=0 time=11\n",
      "note_on channel=3 note=66 velocity=80 time=19\n",
      "note_on channel=3 note=66 velocity=0 time=50\n",
      "note_on channel=3 note=69 velocity=106 time=8\n",
      "note_on channel=3 note=69 velocity=0 time=302\n",
      "note_on channel=3 note=73 velocity=91 time=120\n",
      "note_on channel=3 note=73 velocity=0 time=115\n",
      "note_on channel=3 note=66 velocity=99 time=5\n",
      "note_on channel=3 note=66 velocity=0 time=150\n",
      "note_on channel=3 note=64 velocity=91 time=30\n",
      "note_on channel=3 note=64 velocity=0 time=180\n",
      "note_on channel=3 note=66 velocity=91 time=123\n",
      "note_on channel=3 note=66 velocity=0 time=147\n",
      "note_on channel=3 note=69 velocity=106 time=30\n",
      "note_on channel=3 note=69 velocity=0 time=150\n",
      "note_on channel=3 note=73 velocity=114 time=36\n",
      "note_on channel=3 note=73 velocity=0 time=114\n",
      "note_on channel=3 note=71 velocity=102 time=0\n",
      "note_on channel=3 note=71 velocity=0 time=118\n",
      "note_on channel=3 note=69 velocity=86 time=2\n",
      "note_on channel=3 note=69 velocity=0 time=9\n",
      "note_on channel=3 note=69 velocity=114 time=49\n",
      "note_on channel=3 note=69 velocity=0 time=107\n",
      "note_on channel=3 note=66 velocity=98 time=74\n",
      "note_on channel=3 note=66 velocity=0 time=55\n",
      "note_on channel=3 note=69 velocity=96 time=4\n",
      "note_on channel=3 note=69 velocity=0 time=302\n",
      "note_on channel=3 note=73 velocity=80 time=125\n",
      "note_on channel=3 note=73 velocity=0 time=112\n",
      "note_on channel=3 note=66 velocity=80 time=1\n",
      "note_on channel=3 note=66 velocity=0 time=180\n",
      "note_on channel=3 note=64 velocity=96 time=3\n",
      "note_on channel=3 note=66 velocity=99 time=182\n",
      "note_on channel=3 note=64 velocity=0 time=3\n",
      "note_on channel=3 note=66 velocity=0 time=54\n",
      "note_on channel=3 note=69 velocity=102 time=2\n",
      "note_on channel=3 note=69 velocity=0 time=298\n",
      "note_on channel=3 note=73 velocity=106 time=123\n",
      "note_on channel=3 note=73 velocity=0 time=115\n",
      "note_on channel=3 note=66 velocity=80 time=7\n",
      "note_on channel=3 note=66 velocity=0 time=145\n",
      "note_on channel=3 note=71 velocity=91 time=30\n",
      "pitchwheel channel=3 pitch=-41 time=55\n",
      "pitchwheel channel=3 pitch=-61 time=0\n",
      "pitchwheel channel=3 pitch=-641 time=1\n",
      "pitchwheel channel=3 pitch=-641 time=1\n",
      "pitchwheel channel=3 pitch=-1341 time=0\n",
      "pitchwheel channel=3 pitch=-1241 time=1\n",
      "pitchwheel channel=3 pitch=-2181 time=0\n",
      "pitchwheel channel=3 pitch=-2981 time=0\n",
      "pitchwheel channel=3 pitch=-1801 time=0\n",
      "pitchwheel channel=3 pitch=-2321 time=1\n",
      "pitchwheel channel=3 pitch=-3761 time=0\n",
      "pitchwheel channel=3 pitch=-2821 time=1\n",
      "pitchwheel channel=3 pitch=-4541 time=0\n",
      "pitchwheel channel=3 pitch=-5281 time=1\n",
      "pitchwheel channel=3 pitch=-5981 time=0\n",
      "pitchwheel channel=3 pitch=-3241 time=0\n",
      "pitchwheel channel=3 pitch=-6621 time=1\n",
      "pitchwheel channel=3 pitch=-3921 time=0\n",
      "pitchwheel channel=3 pitch=-3601 time=0\n",
      "pitchwheel channel=3 pitch=-7221 time=1\n",
      "pitchwheel channel=3 pitch=-7721 time=1\n",
      "pitchwheel channel=3 pitch=-8041 time=0\n",
      "pitchwheel channel=3 pitch=-4201 time=0\n",
      "pitchwheel channel=3 pitch=-4401 time=0\n",
      "pitchwheel channel=3 pitch=-8161 time=1\n",
      "pitchwheel channel=3 pitch=-4641 time=0\n",
      "pitchwheel channel=3 pitch=-4521 time=0\n",
      "pitchwheel channel=3 pitch=-4781 time=1\n",
      "pitchwheel channel=3 pitch=-4961 time=1\n",
      "pitchwheel channel=3 pitch=-5161 time=1\n",
      "pitchwheel channel=3 pitch=-5361 time=1\n",
      "pitchwheel channel=3 pitch=-5621 time=0\n",
      "pitchwheel channel=3 pitch=-5941 time=1\n",
      "pitchwheel channel=3 pitch=-8192 time=0\n",
      "pitchwheel channel=3 pitch=-6281 time=1\n",
      "pitchwheel channel=3 pitch=-6681 time=1\n",
      "pitchwheel channel=3 pitch=-7581 time=1\n",
      "pitchwheel channel=3 pitch=-7121 time=0\n",
      "pitchwheel channel=3 pitch=-7981 time=1\n",
      "pitchwheel channel=3 pitch=-8181 time=1\n",
      "pitchwheel channel=3 pitch=-8192 time=2\n",
      "note_on channel=3 note=71 velocity=0 time=73\n",
      "pitchwheel channel=3 pitch=0 time=28\n",
      "note_on channel=3 note=73 velocity=99 time=6\n",
      "note_on channel=3 note=71 velocity=72 time=116\n",
      "note_on channel=3 note=73 velocity=0 time=7\n",
      "note_on channel=3 note=71 velocity=0 time=14\n",
      "note_on channel=3 note=69 velocity=69 time=4\n",
      "note_on channel=3 note=69 velocity=0 time=33\n",
      "note_on channel=3 note=66 velocity=72 time=7\n",
      "note_on channel=3 note=66 velocity=0 time=183\n",
      "note_on channel=3 note=73 velocity=91 time=112\n",
      "note_on channel=3 note=73 velocity=0 time=115\n",
      "note_on channel=3 note=66 velocity=99 time=5\n",
      "note_on channel=3 note=66 velocity=0 time=150\n",
      "note_on channel=3 note=64 velocity=91 time=30\n",
      "note_on channel=3 note=64 velocity=0 time=180\n",
      "note_on channel=3 note=64 velocity=106 time=60\n",
      "note_on channel=3 note=64 velocity=0 time=49\n",
      "note_on channel=3 note=66 velocity=91 time=14\n",
      "note_on channel=3 note=66 velocity=0 time=147\n",
      "note_on channel=3 note=69 velocity=106 time=30\n",
      "note_on channel=3 note=69 velocity=0 time=150\n",
      "note_on channel=3 note=73 velocity=114 time=36\n",
      "note_on channel=3 note=73 velocity=0 time=114\n",
      "note_on channel=3 note=71 velocity=102 time=0\n",
      "note_on channel=3 note=71 velocity=0 time=167\n",
      "note_on channel=3 note=69 velocity=114 time=11\n",
      "note_on channel=3 note=69 velocity=0 time=107\n",
      "note_on channel=3 note=73 velocity=106 time=76\n",
      "note_on channel=3 note=73 velocity=0 time=49\n",
      "note_on channel=3 note=76 velocity=91 time=8\n",
      "note_on channel=3 note=76 velocity=0 time=20\n",
      "note_on channel=3 note=76 velocity=96 time=42\n",
      "pitchwheel channel=3 pitch=660 time=53\n",
      "pitchwheel channel=3 pitch=1380 time=1\n",
      "pitchwheel channel=3 pitch=2260 time=1\n",
      "pitchwheel channel=3 pitch=3300 time=1\n",
      "pitchwheel channel=3 pitch=4400 time=1\n",
      "pitchwheel channel=3 pitch=5560 time=0\n",
      "pitchwheel channel=3 pitch=6700 time=1\n",
      "pitchwheel channel=3 pitch=7720 time=1\n",
      "pitchwheel channel=3 pitch=8191 time=1\n",
      "pitchwheel channel=3 pitch=0 time=56\n",
      "note_on channel=3 note=76 velocity=0 time=4\n",
      "note_on channel=3 note=64 velocity=102 time=1\n",
      "note_on channel=3 note=64 velocity=0 time=121\n",
      "note_on channel=3 note=62 velocity=96 time=6\n",
      "note_on channel=3 note=62 velocity=0 time=56\n",
      "note_on channel=3 note=61 velocity=99 time=0\n",
      "note_on channel=3 note=61 velocity=0 time=60\n",
      "note_on channel=3 note=59 velocity=96 time=2\n",
      "note_on channel=3 note=57 velocity=86 time=55\n",
      "note_on channel=3 note=59 velocity=0 time=8\n",
      "note_on channel=3 note=57 velocity=0 time=51\n",
      "note_on channel=3 note=56 velocity=102 time=0\n",
      "note_on channel=3 note=56 velocity=0 time=150\n",
      "note_on channel=3 note=57 velocity=102 time=30\n",
      "note_on channel=3 note=57 velocity=0 time=121\n",
      "note_on channel=3 note=73 velocity=99 time=58\n",
      "note_on channel=3 note=73 velocity=0 time=54\n",
      "note_on channel=3 note=76 velocity=91 time=4\n",
      "note_on channel=3 note=76 velocity=0 time=31\n",
      "note_on channel=3 note=76 velocity=96 time=30\n",
      "pitchwheel channel=3 pitch=660 time=55\n",
      "pitchwheel channel=3 pitch=1380 time=1\n",
      "pitchwheel channel=3 pitch=2260 time=1\n",
      "pitchwheel channel=3 pitch=3300 time=1\n",
      "pitchwheel channel=3 pitch=4400 time=1\n",
      "pitchwheel channel=3 pitch=5560 time=0\n",
      "pitchwheel channel=3 pitch=6700 time=1\n",
      "pitchwheel channel=3 pitch=7720 time=1\n",
      "pitchwheel channel=3 pitch=8191 time=1\n",
      "pitchwheel channel=3 pitch=0 time=56\n",
      "note_on channel=3 note=76 velocity=0 time=2\n",
      "note_on channel=3 note=64 velocity=102 time=2\n",
      "note_on channel=3 note=64 velocity=0 time=120\n",
      "note_on channel=3 note=62 velocity=96 time=2\n",
      "note_on channel=3 note=61 velocity=96 time=58\n",
      "note_on channel=3 note=62 velocity=0 time=5\n",
      "note_on channel=3 note=59 velocity=96 time=55\n",
      "note_on channel=3 note=61 velocity=0 time=3\n",
      "note_on channel=3 note=57 velocity=86 time=55\n",
      "note_on channel=3 note=59 velocity=0 time=10\n",
      "note_on channel=3 note=56 velocity=102 time=52\n",
      "note_on channel=3 note=57 velocity=0 time=11\n",
      "note_on channel=3 note=56 velocity=0 time=139\n",
      "note_on channel=3 note=57 velocity=102 time=30\n",
      "note_on channel=3 note=57 velocity=0 time=121\n",
      "note_on channel=3 note=57 velocity=96 time=61\n",
      "note_on channel=3 note=57 velocity=0 time=53\n",
      "note_on channel=3 note=54 velocity=99 time=6\n",
      "note_on channel=3 note=54 velocity=0 time=44\n",
      "note_on channel=3 note=54 velocity=125 time=15\n",
      "note_on channel=3 note=54 velocity=0 time=58\n",
      "note_on channel=3 note=64 velocity=106 time=61\n",
      "note_on channel=3 note=64 velocity=0 time=111\n",
      "note_on channel=3 note=62 velocity=106 time=3\n",
      "note_on channel=3 note=62 velocity=0 time=59\n",
      "note_on channel=3 note=61 velocity=114 time=4\n",
      "note_on channel=3 note=61 velocity=0 time=60\n",
      "note_on channel=3 note=59 velocity=102 time=3\n",
      "note_on channel=3 note=57 velocity=91 time=56\n",
      "note_on channel=3 note=59 velocity=0 time=3\n",
      "note_on channel=3 note=57 velocity=0 time=60\n",
      "note_on channel=3 note=59 velocity=106 time=2\n",
      "note_on channel=3 note=59 velocity=0 time=113\n",
      "note_on channel=3 note=61 velocity=114 time=5\n",
      "note_on channel=3 note=61 velocity=0 time=16\n",
      "note_on channel=3 note=61 velocity=123 time=46\n",
      "note_on channel=3 note=61 velocity=0 time=90\n",
      "note_on channel=3 note=59 velocity=91 time=7\n",
      "note_on channel=3 note=59 velocity=0 time=14\n",
      "note_on channel=3 note=57 velocity=91 time=7\n",
      "note_on channel=3 note=57 velocity=0 time=92\n",
      "note_on channel=3 note=54 velocity=127 time=90\n",
      "note_on channel=3 note=54 velocity=0 time=148\n",
      "note_on channel=3 note=57 velocity=110 time=31\n",
      "note_on channel=3 note=57 velocity=0 time=184\n",
      "note_on channel=3 note=61 velocity=123 time=1\n",
      "note_on channel=3 note=59 velocity=110 time=116\n",
      "note_on channel=3 note=61 velocity=0 time=1\n",
      "note_on channel=3 note=59 velocity=0 time=117\n",
      "note_on channel=3 note=57 velocity=92 time=2\n",
      "note_on channel=3 note=57 velocity=0 time=8\n",
      "note_on channel=3 note=57 velocity=110 time=53\n",
      "note_on channel=3 note=57 velocity=0 time=134\n",
      "note_on channel=3 note=66 velocity=66 time=44\n",
      "note_on channel=3 note=66 velocity=0 time=55\n",
      "note_on channel=3 note=69 velocity=106 time=4\n",
      "note_on channel=3 note=69 velocity=0 time=62\n",
      "note_on channel=3 note=69 velocity=68 time=60\n",
      "note_on channel=3 note=69 velocity=0 time=62\n",
      "note_on channel=3 note=69 velocity=47 time=58\n",
      "note_on channel=3 note=69 velocity=0 time=62\n",
      "note_on channel=3 note=69 velocity=35 time=58\n",
      "note_on channel=3 note=69 velocity=0 time=62\n",
      "note_on channel=3 note=73 velocity=80 time=3\n",
      "note_on channel=3 note=73 velocity=0 time=112\n",
      "note_on channel=3 note=66 velocity=80 time=1\n",
      "note_on channel=3 note=66 velocity=0 time=180\n",
      "note_on channel=3 note=64 velocity=96 time=3\n",
      "note_on channel=3 note=66 velocity=99 time=182\n",
      "note_on channel=3 note=64 velocity=0 time=3\n",
      "note_on channel=3 note=66 velocity=0 time=54\n",
      "note_on channel=3 note=69 velocity=102 time=2\n",
      "note_on channel=3 note=69 velocity=0 time=298\n",
      "note_on channel=3 note=73 velocity=106 time=123\n",
      "note_on channel=3 note=73 velocity=0 time=115\n",
      "note_on channel=3 note=66 velocity=80 time=2\n",
      "note_on channel=3 note=66 velocity=0 time=178\n",
      "note_on channel=3 note=71 velocity=91 time=2\n",
      "pitchwheel channel=3 pitch=-41 time=55\n",
      "pitchwheel channel=3 pitch=-61 time=0\n",
      "pitchwheel channel=3 pitch=-641 time=1\n",
      "pitchwheel channel=3 pitch=-641 time=1\n",
      "pitchwheel channel=3 pitch=-1341 time=0\n",
      "pitchwheel channel=3 pitch=-1241 time=1\n",
      "pitchwheel channel=3 pitch=-2181 time=0\n",
      "pitchwheel channel=3 pitch=-2981 time=0\n",
      "pitchwheel channel=3 pitch=-1801 time=0\n",
      "pitchwheel channel=3 pitch=-2321 time=1\n",
      "pitchwheel channel=3 pitch=-3761 time=0\n",
      "pitchwheel channel=3 pitch=-2821 time=1\n",
      "pitchwheel channel=3 pitch=-4541 time=0\n",
      "pitchwheel channel=3 pitch=-5281 time=1\n",
      "pitchwheel channel=3 pitch=-5981 time=0\n",
      "pitchwheel channel=3 pitch=-3241 time=0\n",
      "pitchwheel channel=3 pitch=-6621 time=1\n",
      "pitchwheel channel=3 pitch=-3921 time=0\n",
      "pitchwheel channel=3 pitch=-3601 time=0\n",
      "pitchwheel channel=3 pitch=-7221 time=1\n",
      "pitchwheel channel=3 pitch=-7721 time=1\n",
      "pitchwheel channel=3 pitch=-8041 time=0\n",
      "pitchwheel channel=3 pitch=-4201 time=0\n",
      "pitchwheel channel=3 pitch=-4401 time=0\n",
      "pitchwheel channel=3 pitch=-8161 time=1\n",
      "pitchwheel channel=3 pitch=-4641 time=0\n",
      "pitchwheel channel=3 pitch=-4521 time=0\n",
      "pitchwheel channel=3 pitch=-4781 time=1\n",
      "pitchwheel channel=3 pitch=-4961 time=1\n",
      "pitchwheel channel=3 pitch=-5161 time=1\n",
      "pitchwheel channel=3 pitch=-5361 time=1\n",
      "pitchwheel channel=3 pitch=-5621 time=0\n",
      "pitchwheel channel=3 pitch=-5941 time=1\n",
      "pitchwheel channel=3 pitch=-8192 time=0\n",
      "pitchwheel channel=3 pitch=-6281 time=1\n",
      "pitchwheel channel=3 pitch=-6681 time=1\n",
      "pitchwheel channel=3 pitch=-7581 time=1\n",
      "pitchwheel channel=3 pitch=-7121 time=0\n",
      "pitchwheel channel=3 pitch=-7981 time=1\n",
      "pitchwheel channel=3 pitch=-8181 time=1\n",
      "pitchwheel channel=3 pitch=-8192 time=2\n",
      "note_on channel=3 note=71 velocity=0 time=41\n",
      "pitchwheel channel=3 pitch=0 time=1\n",
      "note_on channel=3 note=73 velocity=99 time=1\n",
      "note_on channel=3 note=73 velocity=0 time=60\n",
      "note_on channel=3 note=76 velocity=99 time=0\n",
      "note_on channel=3 note=76 velocity=0 time=58\n",
      "note_on channel=3 note=76 velocity=98 time=2\n",
      "note_on channel=3 note=76 velocity=0 time=60\n",
      "note_on channel=3 note=73 velocity=72 time=0\n",
      "pitchwheel channel=3 pitch=-781 time=58\n",
      "pitchwheel channel=3 pitch=-1881 time=1\n",
      "pitchwheel channel=3 pitch=-2941 time=1\n",
      "pitchwheel channel=3 pitch=-3981 time=1\n",
      "pitchwheel channel=3 pitch=-4921 time=1\n",
      "pitchwheel channel=3 pitch=-5721 time=0\n",
      "pitchwheel channel=3 pitch=-6461 time=1\n",
      "pitchwheel channel=3 pitch=-7201 time=1\n",
      "pitchwheel channel=3 pitch=-7801 time=1\n",
      "pitchwheel channel=3 pitch=-8121 time=0\n",
      "pitchwheel channel=3 pitch=-8192 time=2\n",
      "pitchwheel channel=3 pitch=0 time=52\n",
      "note_on channel=3 note=73 velocity=0 time=1\n",
      "note_on channel=3 note=69 velocity=72 time=0\n",
      "note_on channel=3 note=69 velocity=0 time=183\n",
      "note_on channel=3 note=69 velocity=91 time=57\n",
      "note_on channel=3 note=69 velocity=0 time=115\n",
      "note_on channel=3 note=71 velocity=99 time=5\n",
      "pitchwheel channel=3 pitch=-61 time=57\n",
      "pitchwheel channel=3 pitch=-361 time=0\n",
      "pitchwheel channel=3 pitch=-761 time=1\n",
      "pitchwheel channel=3 pitch=-1281 time=0\n",
      "pitchwheel channel=3 pitch=-1821 time=1\n",
      "pitchwheel channel=3 pitch=-2401 time=1\n",
      "pitchwheel channel=3 pitch=-3001 time=1\n",
      "pitchwheel channel=3 pitch=-3601 time=0\n",
      "pitchwheel channel=3 pitch=-4241 time=2\n",
      "pitchwheel channel=3 pitch=-4901 time=0\n",
      "pitchwheel channel=3 pitch=-5541 time=1\n",
      "pitchwheel channel=3 pitch=-6161 time=1\n",
      "pitchwheel channel=3 pitch=-6741 time=0\n",
      "pitchwheel channel=3 pitch=-7321 time=2\n",
      "pitchwheel channel=3 pitch=-7841 time=0\n",
      "pitchwheel channel=3 pitch=-8141 time=1\n",
      "pitchwheel channel=3 pitch=-8192 time=1\n",
      "pitchwheel channel=3 pitch=-8081 time=43\n",
      "pitchwheel channel=3 pitch=-7801 time=1\n",
      "pitchwheel channel=3 pitch=-7461 time=1\n",
      "pitchwheel channel=3 pitch=-7081 time=1\n",
      "pitchwheel channel=3 pitch=-6701 time=1\n",
      "pitchwheel channel=3 pitch=-6261 time=0\n",
      "pitchwheel channel=3 pitch=-5821 time=1\n",
      "pitchwheel channel=3 pitch=-5381 time=1\n",
      "pitchwheel channel=3 pitch=-4861 time=0\n",
      "pitchwheel channel=3 pitch=-4361 time=2\n",
      "pitchwheel channel=3 pitch=-3841 time=0\n",
      "pitchwheel channel=3 pitch=-3241 time=1\n",
      "pitchwheel channel=3 pitch=-2701 time=1\n",
      "pitchwheel channel=3 pitch=-2121 time=1\n",
      "pitchwheel channel=3 pitch=-1481 time=0\n",
      "pitchwheel channel=3 pitch=-901 time=1\n",
      "pitchwheel channel=3 pitch=-361 time=1\n",
      "pitchwheel channel=3 pitch=0 time=1\n",
      "note_on channel=3 note=71 velocity=0 time=24\n",
      "note_on channel=3 note=73 velocity=91 time=30\n",
      "note_on channel=3 note=73 velocity=0 time=90\n",
      "note_on channel=3 note=71 velocity=81 time=6\n",
      "note_on channel=3 note=71 velocity=0 time=17\n",
      "note_on channel=3 note=69 velocity=75 time=4\n",
      "note_on channel=3 note=69 velocity=0 time=96\n",
      "note_on channel=3 note=69 velocity=106 time=27\n",
      "note_on channel=3 note=69 velocity=0 time=29\n",
      "note_on channel=3 note=68 velocity=106 time=1\n",
      "note_on channel=3 note=68 velocity=0 time=29\n",
      "note_on channel=3 note=66 velocity=91 time=4\n",
      "note_on channel=3 note=66 velocity=0 time=147\n",
      "note_on channel=3 note=69 velocity=106 time=30\n",
      "note_on channel=3 note=69 velocity=0 time=150\n",
      "note_on channel=3 note=73 velocity=114 time=36\n",
      "note_on channel=3 note=73 velocity=0 time=114\n",
      "note_on channel=3 note=71 velocity=102 time=0\n",
      "note_on channel=3 note=71 velocity=0 time=167\n",
      "note_on channel=3 note=69 velocity=114 time=11\n",
      "note_on channel=3 note=69 velocity=0 time=107\n",
      "note_on channel=3 note=73 velocity=106 time=76\n",
      "note_on channel=3 note=73 velocity=0 time=49\n",
      "note_on channel=3 note=76 velocity=91 time=8\n",
      "note_on channel=3 note=76 velocity=0 time=20\n",
      "note_on channel=3 note=76 velocity=96 time=42\n",
      "pitchwheel channel=3 pitch=660 time=53\n",
      "pitchwheel channel=3 pitch=1380 time=1\n",
      "pitchwheel channel=3 pitch=2260 time=1\n",
      "pitchwheel channel=3 pitch=3300 time=1\n",
      "pitchwheel channel=3 pitch=4400 time=1\n",
      "pitchwheel channel=3 pitch=5560 time=0\n",
      "pitchwheel channel=3 pitch=6700 time=1\n",
      "pitchwheel channel=3 pitch=7720 time=1\n",
      "pitchwheel channel=3 pitch=8191 time=1\n",
      "pitchwheel channel=3 pitch=0 time=56\n",
      "note_on channel=3 note=76 velocity=0 time=4\n",
      "note_on channel=3 note=64 velocity=102 time=1\n",
      "note_on channel=3 note=64 velocity=0 time=121\n",
      "note_on channel=3 note=62 velocity=96 time=6\n",
      "note_on channel=3 note=62 velocity=0 time=56\n",
      "note_on channel=3 note=61 velocity=99 time=0\n",
      "note_on channel=3 note=61 velocity=0 time=60\n",
      "note_on channel=3 note=59 velocity=96 time=2\n",
      "note_on channel=3 note=57 velocity=86 time=55\n",
      "note_on channel=3 note=59 velocity=0 time=8\n",
      "note_on channel=3 note=57 velocity=0 time=51\n",
      "note_on channel=3 note=56 velocity=102 time=0\n",
      "note_on channel=3 note=56 velocity=0 time=150\n",
      "note_on channel=3 note=57 velocity=102 time=22\n",
      "note_on channel=3 note=78 velocity=99 time=10\n",
      "note_on channel=3 note=57 velocity=0 time=111\n",
      "note_on channel=3 note=78 velocity=0 time=99\n",
      "note_on channel=3 note=76 velocity=91 time=25\n",
      "note_on channel=3 note=76 velocity=0 time=31\n",
      "note_on channel=3 note=76 velocity=102 time=30\n",
      "note_on channel=3 note=76 velocity=0 time=62\n",
      "note_on channel=3 note=64 velocity=102 time=60\n",
      "note_on channel=3 note=64 velocity=0 time=120\n",
      "note_on channel=3 note=62 velocity=96 time=2\n",
      "note_on channel=3 note=61 velocity=96 time=58\n",
      "note_on channel=3 note=62 velocity=0 time=5\n",
      "note_on channel=3 note=59 velocity=96 time=55\n",
      "note_on channel=3 note=61 velocity=0 time=3\n",
      "note_on channel=3 note=57 velocity=86 time=55\n",
      "note_on channel=3 note=59 velocity=0 time=10\n",
      "note_on channel=3 note=56 velocity=102 time=52\n",
      "note_on channel=3 note=57 velocity=0 time=11\n",
      "note_on channel=3 note=56 velocity=0 time=139\n",
      "note_on channel=3 note=57 velocity=102 time=30\n",
      "note_on channel=3 note=57 velocity=0 time=121\n",
      "note_on channel=3 note=57 velocity=96 time=61\n",
      "note_on channel=3 note=57 velocity=0 time=53\n",
      "note_on channel=3 note=56 velocity=99 time=6\n",
      "note_on channel=3 note=56 velocity=0 time=44\n",
      "note_on channel=3 note=54 velocity=125 time=15\n",
      "note_on channel=3 note=54 velocity=0 time=58\n",
      "note_on channel=3 note=64 velocity=106 time=61\n",
      "note_on channel=3 note=64 velocity=0 time=111\n",
      "note_on channel=3 note=62 velocity=106 time=3\n",
      "note_on channel=3 note=62 velocity=0 time=59\n",
      "note_on channel=3 note=61 velocity=114 time=4\n",
      "note_on channel=3 note=61 velocity=0 time=60\n",
      "note_on channel=3 note=59 velocity=102 time=3\n",
      "note_on channel=3 note=57 velocity=91 time=56\n",
      "note_on channel=3 note=59 velocity=0 time=3\n",
      "note_on channel=3 note=57 velocity=0 time=60\n",
      "note_on channel=3 note=59 velocity=106 time=2\n",
      "note_on channel=3 note=59 velocity=0 time=113\n",
      "note_on channel=3 note=61 velocity=114 time=5\n",
      "note_on channel=3 note=61 velocity=0 time=16\n",
      "note_on channel=3 note=61 velocity=123 time=46\n",
      "note_on channel=3 note=61 velocity=0 time=90\n",
      "note_on channel=3 note=59 velocity=67 time=9\n",
      "note_on channel=3 note=59 velocity=0 time=14\n",
      "note_on channel=3 note=57 velocity=79 time=7\n",
      "note_on channel=3 note=57 velocity=0 time=95\n",
      "note_on channel=3 note=69 velocity=127 time=85\n",
      "note_on channel=3 note=69 velocity=0 time=58\n",
      "note_on channel=3 note=68 velocity=121 time=1\n",
      "note_on channel=3 note=66 velocity=121 time=58\n",
      "note_on channel=3 note=68 velocity=0 time=3\n",
      "note_on channel=3 note=66 velocity=0 time=59\n",
      "note_on channel=3 note=64 velocity=106 time=4\n",
      "note_on channel=3 note=64 velocity=0 time=114\n",
      "note_on channel=3 note=66 velocity=114 time=3\n",
      "note_on channel=3 note=66 velocity=0 time=112\n",
      "note_on channel=3 note=66 velocity=110 time=68\n",
      "note_on channel=3 note=66 velocity=0 time=150\n",
      "note_on channel=3 note=65 velocity=110 time=31\n",
      "note_on channel=3 note=65 velocity=0 time=134\n",
      "note_on channel=3 note=57 velocity=96 time=164\n",
      "note_on channel=3 note=57 velocity=0 time=52\n",
      "note_on channel=3 note=57 velocity=91 time=13\n",
      "note_on channel=3 note=57 velocity=0 time=51\n",
      "note_on channel=3 note=56 velocity=80 time=6\n",
      "note_on channel=3 note=56 velocity=0 time=40\n",
      "note_on channel=3 note=57 velocity=96 time=23\n",
      "note_on channel=3 note=57 velocity=0 time=78\n",
      "note_on channel=3 note=57 velocity=106 time=37\n",
      "note_on channel=3 note=57 velocity=0 time=54\n",
      "note_on channel=3 note=56 velocity=85 time=7\n",
      "note_on channel=3 note=56 velocity=0 time=44\n",
      "note_on channel=3 note=57 velocity=102 time=15\n",
      "note_on channel=3 note=57 velocity=0 time=75\n",
      "note_on channel=3 note=57 velocity=102 time=42\n",
      "note_on channel=3 note=57 velocity=0 time=60\n",
      "note_on channel=3 note=56 velocity=91 time=4\n",
      "note_on channel=3 note=56 velocity=0 time=49\n",
      "note_on channel=3 note=57 velocity=106 time=12\n",
      "note_on channel=3 note=57 velocity=0 time=65\n",
      "note_on channel=3 note=56 velocity=99 time=177\n",
      "note_on channel=3 note=56 velocity=0 time=20\n",
      "note_on channel=3 note=56 velocity=69 time=13\n",
      "note_on channel=3 note=56 velocity=0 time=23\n",
      "note_on channel=3 note=57 velocity=106 time=1\n",
      "note_on channel=3 note=57 velocity=0 time=48\n",
      "note_on channel=3 note=57 velocity=102 time=12\n",
      "note_on channel=3 note=57 velocity=0 time=51\n",
      "note_on channel=3 note=56 velocity=106 time=14\n",
      "note_on channel=3 note=56 velocity=0 time=48\n",
      "note_on channel=3 note=57 velocity=102 time=9\n",
      "note_on channel=3 note=57 velocity=0 time=80\n",
      "note_on channel=3 note=57 velocity=106 time=37\n",
      "note_on channel=3 note=57 velocity=0 time=58\n",
      "note_on channel=3 note=61 velocity=114 time=4\n",
      "note_on channel=3 note=61 velocity=0 time=51\n",
      "note_on channel=3 note=54 velocity=106 time=8\n",
      "note_on channel=3 note=54 velocity=0 time=141\n",
      "note_on channel=3 note=57 velocity=110 time=39\n",
      "note_on channel=3 note=56 velocity=99 time=62\n",
      "note_on channel=3 note=57 velocity=0 time=1\n",
      "note_on channel=3 note=56 velocity=0 time=89\n",
      "note_on channel=3 note=56 velocity=80 time=148\n",
      "note_on channel=3 note=56 velocity=0 time=40\n",
      "note_on channel=3 note=57 velocity=96 time=19\n",
      "note_on channel=3 note=57 velocity=0 time=52\n",
      "note_on channel=3 note=57 velocity=91 time=13\n",
      "note_on channel=3 note=57 velocity=0 time=51\n",
      "note_on channel=3 note=56 velocity=80 time=6\n",
      "note_on channel=3 note=56 velocity=0 time=40\n",
      "note_on channel=3 note=57 velocity=96 time=23\n",
      "note_on channel=3 note=57 velocity=0 time=78\n",
      "note_on channel=3 note=57 velocity=106 time=37\n",
      "note_on channel=3 note=57 velocity=0 time=54\n",
      "note_on channel=3 note=56 velocity=85 time=67\n",
      "note_on channel=3 note=56 velocity=0 time=44\n",
      "note_on channel=3 note=57 velocity=96 time=16\n",
      "note_on channel=3 note=57 velocity=0 time=52\n",
      "note_on channel=3 note=57 velocity=91 time=8\n",
      "note_on channel=3 note=57 velocity=0 time=51\n",
      "note_on channel=3 note=56 velocity=91 time=9\n",
      "note_on channel=3 note=56 velocity=0 time=49\n",
      "note_on channel=3 note=57 velocity=106 time=12\n",
      "note_on channel=3 note=57 velocity=0 time=65\n",
      "note_on channel=3 note=56 velocity=80 time=175\n",
      "note_on channel=3 note=56 velocity=0 time=37\n",
      "note_on channel=3 note=57 velocity=102 time=24\n",
      "note_on channel=3 note=57 velocity=0 time=44\n",
      "note_on channel=3 note=57 velocity=91 time=14\n",
      "note_on channel=3 note=57 velocity=0 time=58\n",
      "note_on channel=3 note=56 velocity=91 time=5\n",
      "note_on channel=3 note=56 velocity=0 time=46\n",
      "note_on channel=3 note=57 velocity=106 time=13\n",
      "note_on channel=3 note=57 velocity=0 time=175\n",
      "note_on channel=3 note=64 velocity=102 time=6\n",
      "note_on channel=3 note=64 velocity=0 time=43\n",
      "note_on channel=3 note=64 velocity=102 time=16\n",
      "note_on channel=3 note=66 velocity=98 time=417\n",
      "note_on channel=3 note=64 velocity=0 time=1\n",
      "note_on channel=3 note=66 velocity=0 time=54\n",
      "note_on channel=3 note=69 velocity=99 time=4\n",
      "note_on channel=3 note=69 velocity=0 time=302\n",
      "note_on channel=3 note=73 velocity=96 time=125\n",
      "note_on channel=3 note=73 velocity=0 time=112\n",
      "note_on channel=3 note=71 velocity=83 time=1\n",
      "note_on channel=3 note=71 velocity=0 time=180\n",
      "note_on channel=3 note=69 velocity=99 time=3\n",
      "note_on channel=3 note=66 velocity=102 time=182\n",
      "note_on channel=3 note=69 velocity=0 time=3\n",
      "note_on channel=3 note=66 velocity=0 time=54\n",
      "note_on channel=3 note=69 velocity=106 time=2\n",
      "note_on channel=3 note=69 velocity=0 time=298\n",
      "note_on channel=3 note=73 velocity=110 time=123\n",
      "note_on channel=3 note=73 velocity=0 time=115\n",
      "note_on channel=3 note=71 velocity=98 time=2\n",
      "note_on channel=3 note=71 velocity=0 time=180\n",
      "note_on channel=3 note=69 velocity=99 time=0\n",
      "note_on channel=3 note=69 velocity=0 time=165\n",
      "note_on channel=3 note=66 velocity=96 time=5\n",
      "note_on channel=3 note=66 velocity=0 time=50\n",
      "note_on channel=3 note=69 velocity=110 time=18\n",
      "note_on channel=3 note=69 velocity=0 time=197\n",
      "note_on channel=3 note=66 velocity=91 time=1363\n",
      "note_on channel=3 note=66 velocity=0 time=20\n",
      "note_on channel=3 note=66 velocity=106 time=41\n",
      "note_on channel=3 note=66 velocity=0 time=54\n",
      "note_on channel=3 note=63 velocity=72 time=6\n",
      "note_on channel=3 note=63 velocity=0 time=60\n",
      "note_on channel=3 note=68 velocity=99 time=3\n",
      "note_on channel=3 note=68 velocity=0 time=115\n",
      "note_on channel=3 note=66 velocity=85 time=3\n",
      "note_on channel=3 note=66 velocity=0 time=94\n",
      "note_on channel=3 note=66 velocity=106 time=27\n",
      "note_on channel=3 note=66 velocity=0 time=148\n",
      "note_on channel=3 note=66 velocity=102 time=34\n",
      "note_on channel=3 note=66 velocity=0 time=88\n",
      "note_on channel=3 note=66 velocity=96 time=31\n",
      "note_on channel=3 note=66 velocity=0 time=56\n",
      "note_on channel=3 note=59 velocity=102 time=5\n",
      "note_on channel=3 note=59 velocity=0 time=22\n",
      "note_on channel=3 note=59 velocity=91 time=35\n",
      "note_on channel=3 note=59 velocity=0 time=60\n",
      "note_on channel=3 note=61 velocity=106 time=2\n",
      "note_on channel=3 note=61 velocity=0 time=164\n",
      "note_on channel=3 note=63 velocity=123 time=12\n",
      "note_on channel=3 note=63 velocity=0 time=155\n",
      "note_on channel=3 note=66 velocity=106 time=148\n",
      "note_on channel=3 note=66 velocity=0 time=148\n",
      "note_on channel=3 note=66 velocity=102 time=34\n",
      "note_on channel=3 note=66 velocity=0 time=88\n",
      "note_on channel=3 note=66 velocity=96 time=31\n",
      "note_on channel=3 note=66 velocity=0 time=56\n",
      "note_on channel=3 note=59 velocity=102 time=5\n",
      "note_on channel=3 note=59 velocity=0 time=22\n",
      "note_on channel=3 note=59 velocity=91 time=35\n",
      "note_on channel=3 note=59 velocity=0 time=60\n",
      "note_on channel=3 note=61 velocity=106 time=2\n",
      "note_on channel=3 note=61 velocity=0 time=164\n",
      "note_on channel=3 note=59 velocity=123 time=12\n",
      "note_on channel=3 note=59 velocity=0 time=155\n",
      "note_on channel=3 note=66 velocity=82 time=156\n",
      "note_on channel=3 note=66 velocity=0 time=132\n",
      "note_on channel=3 note=66 velocity=102 time=40\n",
      "note_on channel=3 note=66 velocity=0 time=97\n",
      "note_on channel=3 note=66 velocity=106 time=23\n",
      "note_on channel=3 note=66 velocity=0 time=57\n",
      "note_on channel=3 note=59 velocity=114 time=3\n",
      "note_on channel=3 note=59 velocity=0 time=45\n",
      "note_on channel=3 note=59 velocity=102 time=12\n",
      "note_on channel=3 note=59 velocity=0 time=64\n",
      "note_on channel=3 note=61 velocity=114 time=1\n",
      "note_on channel=3 note=61 velocity=0 time=112\n",
      "note_on channel=3 note=61 velocity=112 time=5\n",
      "note_on channel=3 note=61 velocity=0 time=22\n",
      "note_on channel=3 note=63 velocity=114 time=36\n",
      "note_on channel=3 note=63 velocity=0 time=107\n",
      "note_on channel=3 note=63 velocity=106 time=315\n",
      "note_on channel=3 note=63 velocity=0 time=190\n",
      "note_on channel=3 note=64 velocity=110 time=48\n",
      "note_on channel=3 note=64 velocity=0 time=60\n",
      "note_on channel=3 note=63 velocity=106 time=4\n",
      "note_on channel=3 note=63 velocity=0 time=57\n",
      "note_on channel=3 note=61 velocity=114 time=5\n",
      "note_on channel=3 note=61 velocity=0 time=117\n",
      "note_on channel=3 note=59 velocity=114 time=62\n",
      "note_on channel=3 note=59 velocity=0 time=140\n",
      "note_on channel=3 note=75 velocity=106 time=38\n",
      "note_on channel=3 note=75 velocity=0 time=49\n",
      "note_on channel=3 note=78 velocity=91 time=8\n",
      "note_on channel=3 note=78 velocity=0 time=20\n",
      "note_on channel=3 note=78 velocity=96 time=42\n",
      "pitchwheel channel=3 pitch=660 time=53\n",
      "pitchwheel channel=3 pitch=1380 time=1\n",
      "pitchwheel channel=3 pitch=2260 time=1\n",
      "pitchwheel channel=3 pitch=3300 time=1\n",
      "pitchwheel channel=3 pitch=4400 time=1\n",
      "pitchwheel channel=3 pitch=5560 time=0\n",
      "pitchwheel channel=3 pitch=6700 time=1\n",
      "pitchwheel channel=3 pitch=7720 time=1\n",
      "pitchwheel channel=3 pitch=8191 time=1\n",
      "pitchwheel channel=3 pitch=0 time=56\n",
      "note_on channel=3 note=78 velocity=0 time=4\n",
      "note_on channel=3 note=66 velocity=102 time=1\n",
      "note_on channel=3 note=66 velocity=0 time=121\n",
      "note_on channel=3 note=64 velocity=96 time=6\n",
      "note_on channel=3 note=64 velocity=0 time=56\n",
      "note_on channel=3 note=63 velocity=99 time=0\n",
      "note_on channel=3 note=63 velocity=0 time=60\n",
      "note_on channel=3 note=61 velocity=96 time=2\n",
      "note_on channel=3 note=59 velocity=86 time=55\n",
      "note_on channel=3 note=61 velocity=0 time=8\n",
      "note_on channel=3 note=59 velocity=0 time=51\n",
      "note_on channel=3 note=58 velocity=102 time=0\n",
      "note_on channel=3 note=58 velocity=0 time=150\n",
      "note_on channel=3 note=59 velocity=102 time=30\n",
      "note_on channel=3 note=59 velocity=0 time=121\n",
      "note_on channel=3 note=75 velocity=99 time=58\n",
      "note_on channel=3 note=75 velocity=0 time=54\n",
      "note_on channel=3 note=78 velocity=91 time=4\n",
      "note_on channel=3 note=78 velocity=0 time=31\n",
      "note_on channel=3 note=78 velocity=96 time=30\n",
      "pitchwheel channel=3 pitch=660 time=55\n",
      "pitchwheel channel=3 pitch=1380 time=1\n",
      "pitchwheel channel=3 pitch=2260 time=1\n",
      "pitchwheel channel=3 pitch=3300 time=1\n",
      "pitchwheel channel=3 pitch=4400 time=1\n",
      "pitchwheel channel=3 pitch=5560 time=0\n",
      "pitchwheel channel=3 pitch=6700 time=1\n",
      "pitchwheel channel=3 pitch=7720 time=1\n",
      "pitchwheel channel=3 pitch=8191 time=1\n",
      "pitchwheel channel=3 pitch=0 time=56\n",
      "note_on channel=3 note=78 velocity=0 time=2\n",
      "note_on channel=3 note=66 velocity=102 time=2\n",
      "note_on channel=3 note=66 velocity=0 time=120\n",
      "note_on channel=3 note=64 velocity=96 time=2\n",
      "note_on channel=3 note=63 velocity=96 time=58\n",
      "note_on channel=3 note=64 velocity=0 time=5\n",
      "note_on channel=3 note=61 velocity=96 time=55\n",
      "note_on channel=3 note=63 velocity=0 time=3\n",
      "note_on channel=3 note=59 velocity=86 time=55\n",
      "note_on channel=3 note=61 velocity=0 time=10\n",
      "note_on channel=3 note=58 velocity=102 time=52\n",
      "note_on channel=3 note=59 velocity=0 time=11\n",
      "note_on channel=3 note=58 velocity=0 time=139\n",
      "note_on channel=3 note=59 velocity=102 time=30\n",
      "note_on channel=3 note=59 velocity=0 time=121\n",
      "note_on channel=3 note=59 velocity=96 time=61\n",
      "note_on channel=3 note=59 velocity=0 time=53\n",
      "note_on channel=3 note=58 velocity=99 time=6\n",
      "note_on channel=3 note=58 velocity=0 time=44\n",
      "note_on channel=3 note=56 velocity=125 time=15\n",
      "note_on channel=3 note=56 velocity=0 time=58\n",
      "note_on channel=3 note=66 velocity=106 time=61\n",
      "note_on channel=3 note=66 velocity=0 time=111\n",
      "note_on channel=3 note=64 velocity=106 time=3\n",
      "note_on channel=3 note=64 velocity=0 time=59\n",
      "note_on channel=3 note=63 velocity=114 time=4\n",
      "note_on channel=3 note=63 velocity=0 time=60\n",
      "note_on channel=3 note=61 velocity=102 time=3\n",
      "note_on channel=3 note=59 velocity=91 time=56\n",
      "note_on channel=3 note=61 velocity=0 time=3\n",
      "note_on channel=3 note=59 velocity=0 time=60\n",
      "note_on channel=3 note=61 velocity=106 time=2\n",
      "note_on channel=3 note=61 velocity=0 time=113\n",
      "note_on channel=3 note=63 velocity=114 time=5\n",
      "note_on channel=3 note=63 velocity=0 time=16\n",
      "note_on channel=3 note=63 velocity=123 time=46\n",
      "note_on channel=3 note=63 velocity=0 time=165\n",
      "note_on channel=3 note=56 velocity=127 time=135\n",
      "note_on channel=3 note=56 velocity=0 time=148\n",
      "note_on channel=3 note=59 velocity=110 time=31\n",
      "note_on channel=3 note=59 velocity=0 time=184\n",
      "note_on channel=3 note=63 velocity=123 time=1\n",
      "note_on channel=3 note=61 velocity=110 time=116\n",
      "note_on channel=3 note=63 velocity=0 time=1\n",
      "note_on channel=3 note=61 velocity=0 time=149\n",
      "note_on channel=3 note=59 velocity=110 time=31\n",
      "note_on channel=3 note=59 velocity=0 time=134\n",
      "note_on channel=3 note=75 velocity=106 time=46\n",
      "note_on channel=3 note=75 velocity=0 time=49\n",
      "note_on channel=3 note=78 velocity=91 time=8\n",
      "note_on channel=3 note=78 velocity=0 time=20\n",
      "note_on channel=3 note=78 velocity=96 time=42\n",
      "note_on channel=3 note=66 velocity=102 time=121\n",
      "note_on channel=3 note=66 velocity=0 time=121\n",
      "note_on channel=3 note=64 velocity=96 time=6\n",
      "note_on channel=3 note=64 velocity=0 time=56\n",
      "note_on channel=3 note=63 velocity=99 time=0\n",
      "note_on channel=3 note=63 velocity=0 time=60\n",
      "note_on channel=3 note=61 velocity=96 time=2\n",
      "note_on channel=3 note=59 velocity=86 time=55\n",
      "note_on channel=3 note=83 velocity=81 time=5\n",
      "note_on channel=3 note=61 velocity=0 time=3\n",
      "note_on channel=3 note=78 velocity=0 time=6\n",
      "note_on channel=3 note=59 velocity=0 time=45\n",
      "note_on channel=3 note=58 velocity=102 time=0\n",
      "note_on channel=3 note=82 velocity=91 time=3\n",
      "note_on channel=3 note=83 velocity=0 time=9\n",
      "note_on channel=3 note=80 velocity=84 time=47\n",
      "note_on channel=3 note=82 velocity=0 time=8\n",
      "note_on channel=3 note=80 velocity=0 time=51\n",
      "note_on channel=3 note=78 velocity=88 time=2\n",
      "note_on channel=3 note=58 velocity=0 time=30\n",
      "note_on channel=3 note=59 velocity=102 time=30\n",
      "note_on channel=3 note=59 velocity=0 time=121\n",
      "note_on channel=3 note=78 velocity=0 time=29\n",
      "note_on channel=3 note=76 velocity=91 time=1\n",
      "note_on channel=3 note=76 velocity=0 time=19\n",
      "note_on channel=3 note=75 velocity=85 time=4\n",
      "note_on channel=3 note=75 velocity=0 time=111\n",
      "pitchwheel channel=3 pitch=660 time=68\n",
      "pitchwheel channel=3 pitch=1380 time=1\n",
      "pitchwheel channel=3 pitch=2260 time=1\n",
      "pitchwheel channel=3 pitch=3300 time=1\n",
      "pitchwheel channel=3 pitch=4400 time=1\n",
      "pitchwheel channel=3 pitch=5560 time=0\n",
      "pitchwheel channel=3 pitch=6700 time=1\n",
      "pitchwheel channel=3 pitch=7720 time=1\n",
      "pitchwheel channel=3 pitch=8191 time=1\n",
      "pitchwheel channel=3 pitch=0 time=56\n",
      "note_on channel=3 note=66 velocity=102 time=4\n",
      "note_on channel=3 note=66 velocity=0 time=120\n",
      "note_on channel=3 note=64 velocity=96 time=2\n",
      "note_on channel=3 note=63 velocity=96 time=58\n",
      "note_on channel=3 note=64 velocity=0 time=5\n",
      "note_on channel=3 note=61 velocity=96 time=55\n",
      "note_on channel=3 note=63 velocity=0 time=3\n",
      "note_on channel=3 note=59 velocity=86 time=55\n",
      "note_on channel=3 note=61 velocity=0 time=10\n",
      "note_on channel=3 note=58 velocity=102 time=52\n",
      "note_on channel=3 note=59 velocity=0 time=11\n",
      "note_on channel=3 note=58 velocity=0 time=139\n",
      "note_on channel=3 note=59 velocity=102 time=30\n",
      "note_on channel=3 note=59 velocity=0 time=121\n",
      "note_on channel=3 note=59 velocity=96 time=61\n",
      "note_on channel=3 note=59 velocity=0 time=53\n",
      "note_on channel=3 note=58 velocity=99 time=6\n",
      "note_on channel=3 note=58 velocity=0 time=44\n",
      "note_on channel=3 note=56 velocity=125 time=15\n",
      "note_on channel=3 note=56 velocity=0 time=58\n",
      "note_on channel=3 note=66 velocity=106 time=61\n",
      "note_on channel=3 note=66 velocity=0 time=111\n",
      "note_on channel=3 note=64 velocity=106 time=3\n",
      "note_on channel=3 note=64 velocity=0 time=59\n",
      "note_on channel=3 note=63 velocity=114 time=4\n",
      "note_on channel=3 note=63 velocity=0 time=60\n",
      "note_on channel=3 note=61 velocity=102 time=3\n",
      "note_on channel=3 note=59 velocity=91 time=56\n",
      "note_on channel=3 note=61 velocity=0 time=3\n",
      "note_on channel=3 note=59 velocity=0 time=60\n",
      "note_on channel=3 note=61 velocity=106 time=2\n",
      "note_on channel=3 note=61 velocity=0 time=113\n",
      "note_on channel=3 note=63 velocity=114 time=5\n",
      "note_on channel=3 note=63 velocity=0 time=16\n",
      "note_on channel=3 note=63 velocity=123 time=46\n",
      "note_on channel=3 note=63 velocity=0 time=165\n",
      "note_on channel=3 note=56 velocity=127 time=135\n",
      "note_on channel=3 note=56 velocity=0 time=148\n",
      "note_on channel=3 note=59 velocity=110 time=31\n",
      "note_on channel=3 note=59 velocity=0 time=184\n",
      "note_on channel=3 note=63 velocity=123 time=1\n",
      "note_on channel=3 note=61 velocity=110 time=116\n",
      "note_on channel=3 note=63 velocity=0 time=1\n",
      "note_on channel=3 note=61 velocity=0 time=149\n",
      "note_on channel=3 note=59 velocity=110 time=31\n",
      "note_on channel=3 note=59 velocity=0 time=134\n",
      "note_on channel=3 note=59 velocity=91 time=105\n",
      "note_on channel=3 note=56 velocity=127 time=62\n",
      "note_on channel=3 note=59 velocity=0 time=1\n",
      "note_on channel=3 note=56 velocity=0 time=147\n",
      "note_on channel=3 note=59 velocity=110 time=29\n",
      "note_on channel=3 note=59 velocity=0 time=184\n",
      "note_on channel=3 note=63 velocity=123 time=1\n",
      "note_on channel=3 note=61 velocity=110 time=116\n",
      "note_on channel=3 note=63 velocity=0 time=1\n",
      "note_on channel=3 note=61 velocity=0 time=120\n",
      "note_on channel=3 note=59 velocity=86 time=1\n",
      "note_on channel=3 note=59 velocity=0 time=9\n",
      "note_on channel=3 note=59 velocity=110 time=50\n",
      "note_on channel=3 note=59 velocity=0 time=284\n",
      "MetaMessage('end_of_track', time=0)\n",
      "Track 5\n",
      "MetaMessage('midi_port', port=0, time=0)\n",
      "MetaMessage('track_name', name='', time=0)\n",
      "program_change channel=4 program=25 time=0\n",
      "control_change channel=4 control=7 value=80 time=0\n",
      "control_change channel=4 control=10 value=70 time=0\n",
      "control_change channel=4 control=11 value=127 time=580\n",
      "control_change channel=4 control=91 value=40 time=2\n",
      "control_change channel=4 control=93 value=0 time=2\n",
      "control_change channel=4 control=94 value=0 time=2\n",
      "note_on channel=4 note=42 velocity=86 time=374\n",
      "note_on channel=4 note=54 velocity=76 time=60\n",
      "note_on channel=4 note=61 velocity=96 time=60\n",
      "note_on channel=4 note=57 velocity=80 time=60\n",
      "note_on channel=4 note=54 velocity=0 time=59\n",
      "note_on channel=4 note=54 velocity=72 time=1\n",
      "note_on channel=4 note=61 velocity=0 time=59\n",
      "note_on channel=4 note=62 velocity=101 time=1\n",
      "note_on channel=4 note=62 velocity=0 time=59\n",
      "note_on channel=4 note=61 velocity=71 time=1\n",
      "note_on channel=4 note=61 velocity=0 time=59\n",
      "note_on channel=4 note=57 velocity=0 time=0\n",
      "note_on channel=4 note=54 velocity=0 time=0\n",
      "note_on channel=4 note=57 velocity=72 time=1\n",
      "note_on channel=4 note=57 velocity=0 time=59\n",
      "note_on channel=4 note=42 velocity=0 time=0\n",
      "note_on channel=4 note=50 velocity=81 time=1\n",
      "note_on channel=4 note=57 velocity=69 time=60\n",
      "note_on channel=4 note=62 velocity=86 time=60\n",
      "note_on channel=4 note=62 velocity=0 time=59\n",
      "note_on channel=4 note=57 velocity=0 time=0\n",
      "note_on channel=4 note=50 velocity=0 time=0\n",
      "note_on channel=4 note=45 velocity=76 time=1\n",
      "note_on channel=4 note=52 velocity=76 time=60\n",
      "note_on channel=4 note=57 velocity=81 time=60\n",
      "note_on channel=4 note=57 velocity=0 time=59\n",
      "note_on channel=4 note=64 velocity=99 time=1\n",
      "note_on channel=4 note=64 velocity=0 time=59\n",
      "note_on channel=4 note=52 velocity=0 time=0\n",
      "note_on channel=4 note=57 velocity=77 time=1\n",
      "note_on channel=4 note=57 velocity=0 time=59\n",
      "note_on channel=4 note=45 velocity=0 time=0\n",
      "note_on channel=4 note=42 velocity=86 time=1\n",
      "note_on channel=4 note=54 velocity=76 time=60\n",
      "note_on channel=4 note=61 velocity=96 time=60\n",
      "note_on channel=4 note=57 velocity=80 time=60\n",
      "note_on channel=4 note=54 velocity=0 time=59\n",
      "note_on channel=4 note=54 velocity=72 time=1\n",
      "note_on channel=4 note=61 velocity=0 time=59\n",
      "note_on channel=4 note=62 velocity=101 time=1\n",
      "note_on channel=4 note=62 velocity=0 time=59\n",
      "note_on channel=4 note=61 velocity=71 time=1\n",
      "note_on channel=4 note=61 velocity=0 time=59\n",
      "note_on channel=4 note=57 velocity=0 time=0\n",
      "note_on channel=4 note=54 velocity=0 time=0\n",
      "note_on channel=4 note=57 velocity=72 time=1\n",
      "note_on channel=4 note=57 velocity=0 time=59\n",
      "note_on channel=4 note=42 velocity=0 time=0\n",
      "note_on channel=4 note=50 velocity=81 time=1\n",
      "note_on channel=4 note=57 velocity=69 time=60\n",
      "note_on channel=4 note=62 velocity=86 time=60\n",
      "note_on channel=4 note=62 velocity=0 time=59\n",
      "note_on channel=4 note=57 velocity=0 time=0\n",
      "note_on channel=4 note=50 velocity=0 time=0\n",
      "note_on channel=4 note=45 velocity=76 time=1\n",
      "note_on channel=4 note=52 velocity=76 time=60\n",
      "note_on channel=4 note=57 velocity=81 time=60\n",
      "note_on channel=4 note=57 velocity=0 time=59\n",
      "note_on channel=4 note=64 velocity=99 time=1\n",
      "note_on channel=4 note=64 velocity=0 time=59\n",
      "note_on channel=4 note=52 velocity=0 time=0\n",
      "note_on channel=4 note=57 velocity=77 time=1\n",
      "note_on channel=4 note=57 velocity=0 time=59\n",
      "note_on channel=4 note=45 velocity=0 time=0\n",
      "note_on channel=4 note=42 velocity=86 time=1\n",
      "note_on channel=4 note=54 velocity=76 time=60\n",
      "note_on channel=4 note=61 velocity=96 time=60\n",
      "note_on channel=4 note=57 velocity=80 time=60\n",
      "note_on channel=4 note=54 velocity=0 time=59\n",
      "note_on channel=4 note=54 velocity=72 time=1\n",
      "note_on channel=4 note=61 velocity=0 time=59\n",
      "note_on channel=4 note=62 velocity=101 time=1\n",
      "note_on channel=4 note=62 velocity=0 time=59\n",
      "note_on channel=4 note=61 velocity=71 time=1\n",
      "note_on channel=4 note=61 velocity=0 time=59\n",
      "note_on channel=4 note=57 velocity=0 time=0\n",
      "note_on channel=4 note=54 velocity=0 time=0\n",
      "note_on channel=4 note=57 velocity=72 time=1\n",
      "note_on channel=4 note=57 velocity=0 time=59\n",
      "note_on channel=4 note=42 velocity=0 time=0\n",
      "note_on channel=4 note=50 velocity=81 time=1\n",
      "note_on channel=4 note=57 velocity=69 time=60\n",
      "note_on channel=4 note=62 velocity=86 time=60\n",
      "note_on channel=4 note=62 velocity=0 time=59\n",
      "note_on channel=4 note=57 velocity=0 time=0\n",
      "note_on channel=4 note=50 velocity=0 time=0\n",
      "note_on channel=4 note=45 velocity=76 time=1\n",
      "note_on channel=4 note=52 velocity=76 time=60\n",
      "note_on channel=4 note=57 velocity=81 time=60\n",
      "note_on channel=4 note=57 velocity=0 time=59\n",
      "note_on channel=4 note=64 velocity=99 time=1\n",
      "note_on channel=4 note=64 velocity=0 time=59\n",
      "note_on channel=4 note=52 velocity=0 time=0\n",
      "note_on channel=4 note=57 velocity=77 time=1\n",
      "note_on channel=4 note=57 velocity=0 time=59\n",
      "note_on channel=4 note=45 velocity=0 time=0\n",
      "note_on channel=4 note=42 velocity=86 time=1\n",
      "note_on channel=4 note=54 velocity=76 time=60\n",
      "note_on channel=4 note=61 velocity=96 time=60\n",
      "note_on channel=4 note=57 velocity=80 time=60\n",
      "note_on channel=4 note=54 velocity=0 time=59\n",
      "note_on channel=4 note=54 velocity=72 time=1\n",
      "note_on channel=4 note=61 velocity=0 time=59\n",
      "note_on channel=4 note=62 velocity=101 time=1\n",
      "note_on channel=4 note=62 velocity=0 time=59\n",
      "note_on channel=4 note=61 velocity=71 time=1\n",
      "note_on channel=4 note=61 velocity=0 time=59\n",
      "note_on channel=4 note=57 velocity=0 time=0\n",
      "note_on channel=4 note=54 velocity=0 time=0\n",
      "note_on channel=4 note=57 velocity=72 time=1\n",
      "note_on channel=4 note=57 velocity=0 time=59\n",
      "note_on channel=4 note=42 velocity=0 time=0\n",
      "note_on channel=4 note=50 velocity=81 time=1\n",
      "note_on channel=4 note=57 velocity=69 time=60\n",
      "note_on channel=4 note=62 velocity=86 time=60\n",
      "note_on channel=4 note=62 velocity=0 time=59\n",
      "note_on channel=4 note=57 velocity=0 time=0\n",
      "note_on channel=4 note=50 velocity=0 time=0\n",
      "note_on channel=4 note=45 velocity=76 time=1\n",
      "note_on channel=4 note=52 velocity=76 time=60\n",
      "note_on channel=4 note=57 velocity=81 time=60\n",
      "note_on channel=4 note=57 velocity=0 time=59\n",
      "note_on channel=4 note=64 velocity=99 time=1\n",
      "note_on channel=4 note=64 velocity=0 time=59\n",
      "note_on channel=4 note=52 velocity=0 time=0\n",
      "note_on channel=4 note=57 velocity=77 time=1\n",
      "note_on channel=4 note=57 velocity=0 time=59\n",
      "note_on channel=4 note=45 velocity=0 time=0\n",
      "note_on channel=4 note=42 velocity=86 time=1\n",
      "note_on channel=4 note=54 velocity=76 time=60\n",
      "note_on channel=4 note=61 velocity=96 time=60\n",
      "note_on channel=4 note=57 velocity=80 time=60\n",
      "note_on channel=4 note=54 velocity=0 time=59\n",
      "note_on channel=4 note=54 velocity=72 time=1\n",
      "note_on channel=4 note=61 velocity=0 time=59\n",
      "note_on channel=4 note=62 velocity=101 time=1\n",
      "note_on channel=4 note=62 velocity=0 time=59\n",
      "note_on channel=4 note=61 velocity=71 time=1\n",
      "note_on channel=4 note=61 velocity=0 time=59\n",
      "note_on channel=4 note=57 velocity=0 time=0\n",
      "note_on channel=4 note=54 velocity=0 time=0\n",
      "note_on channel=4 note=57 velocity=72 time=1\n",
      "note_on channel=4 note=57 velocity=0 time=59\n",
      "note_on channel=4 note=42 velocity=0 time=0\n",
      "note_on channel=4 note=50 velocity=81 time=1\n",
      "note_on channel=4 note=57 velocity=69 time=60\n",
      "note_on channel=4 note=62 velocity=86 time=60\n",
      "note_on channel=4 note=62 velocity=0 time=59\n",
      "note_on channel=4 note=57 velocity=0 time=0\n",
      "note_on channel=4 note=50 velocity=0 time=0\n",
      "note_on channel=4 note=45 velocity=76 time=1\n",
      "note_on channel=4 note=52 velocity=76 time=60\n",
      "note_on channel=4 note=57 velocity=81 time=60\n",
      "note_on channel=4 note=57 velocity=0 time=59\n",
      "note_on channel=4 note=64 velocity=99 time=1\n",
      "note_on channel=4 note=64 velocity=0 time=59\n",
      "note_on channel=4 note=52 velocity=0 time=0\n",
      "note_on channel=4 note=57 velocity=92 time=1\n",
      "note_on channel=4 note=57 velocity=0 time=36\n",
      "note_on channel=4 note=45 velocity=0 time=23\n",
      "note_on channel=4 note=42 velocity=79 time=1\n",
      "note_on channel=4 note=54 velocity=76 time=60\n",
      "note_on channel=4 note=61 velocity=86 time=60\n",
      "note_on channel=4 note=61 velocity=0 time=59\n",
      "note_on channel=4 note=57 velocity=80 time=1\n",
      "note_on channel=4 note=54 velocity=0 time=59\n",
      "note_on channel=4 note=54 velocity=72 time=1\n",
      "note_on channel=4 note=54 velocity=0 time=59\n",
      "note_on channel=4 note=62 velocity=101 time=1\n",
      "note_on channel=4 note=62 velocity=0 time=59\n",
      "note_on channel=4 note=61 velocity=71 time=0\n",
      "note_on channel=4 note=61 velocity=0 time=60\n",
      "note_on channel=4 note=57 velocity=0 time=1\n",
      "note_on channel=4 note=57 velocity=72 time=0\n",
      "note_on channel=4 note=57 velocity=0 time=57\n",
      "note_on channel=4 note=42 velocity=0 time=0\n",
      "note_on channel=4 note=52 velocity=86 time=0\n",
      "note_on channel=4 note=56 velocity=86 time=3\n",
      "note_on channel=4 note=59 velocity=86 time=3\n",
      "note_on channel=4 note=64 velocity=78 time=3\n",
      "note_on channel=4 note=52 velocity=0 time=170\n",
      "note_on channel=4 note=52 velocity=84 time=1\n",
      "note_on channel=4 note=56 velocity=0 time=2\n",
      "note_on channel=4 note=57 velocity=84 time=1\n",
      "note_on channel=4 note=59 velocity=0 time=2\n",
      "note_on channel=4 note=61 velocity=84 time=1\n",
      "note_on channel=4 note=64 velocity=0 time=2\n",
      "note_on channel=4 note=64 velocity=76 time=1\n",
      "note_on channel=4 note=52 velocity=0 time=290\n",
      "note_on channel=4 note=57 velocity=0 time=3\n",
      "note_on channel=4 note=61 velocity=0 time=3\n",
      "note_on channel=4 note=64 velocity=0 time=3\n",
      "note_on channel=4 note=50 velocity=77 time=3835\n",
      "note_on channel=4 note=54 velocity=68 time=60\n",
      "note_on channel=4 note=62 velocity=77 time=60\n",
      "note_on channel=4 note=57 velocity=72 time=60\n",
      "note_on channel=4 note=50 velocity=0 time=58\n",
      "note_on channel=4 note=54 velocity=0 time=1\n",
      "note_on channel=4 note=50 velocity=64 time=1\n",
      "note_on channel=4 note=62 velocity=0 time=59\n",
      "note_on channel=4 note=62 velocity=81 time=1\n",
      "note_on channel=4 note=62 velocity=0 time=59\n",
      "note_on channel=4 note=61 velocity=63 time=1\n",
      "note_on channel=4 note=61 velocity=0 time=59\n",
      "note_on channel=4 note=50 velocity=0 time=0\n",
      "note_on channel=4 note=57 velocity=0 time=0\n",
      "note_on channel=4 note=57 velocity=64 time=1\n",
      "note_on channel=4 note=57 velocity=0 time=59\n",
      "note_on channel=4 note=52 velocity=72 time=1\n",
      "note_on channel=4 note=59 velocity=62 time=60\n",
      "note_on channel=4 note=64 velocity=77 time=60\n",
      "note_on channel=4 note=64 velocity=0 time=59\n",
      "note_on channel=4 note=59 velocity=0 time=0\n",
      "note_on channel=4 note=52 velocity=0 time=0\n",
      "note_on channel=4 note=49 velocity=68 time=1\n",
      "note_on channel=4 note=54 velocity=68 time=60\n",
      "note_on channel=4 note=57 velocity=72 time=60\n",
      "note_on channel=4 note=57 velocity=0 time=59\n",
      "note_on channel=4 note=66 velocity=80 time=1\n",
      "note_on channel=4 note=66 velocity=0 time=59\n",
      "note_on channel=4 note=54 velocity=0 time=0\n",
      "note_on channel=4 note=61 velocity=69 time=1\n",
      "note_on channel=4 note=61 velocity=0 time=59\n",
      "note_on channel=4 note=49 velocity=0 time=0\n",
      "note_on channel=4 note=50 velocity=77 time=1\n",
      "note_on channel=4 note=54 velocity=68 time=60\n",
      "note_on channel=4 note=62 velocity=77 time=60\n",
      "note_on channel=4 note=57 velocity=72 time=60\n",
      "note_on channel=4 note=50 velocity=0 time=58\n",
      "note_on channel=4 note=54 velocity=0 time=1\n",
      "note_on channel=4 note=50 velocity=64 time=1\n",
      "note_on channel=4 note=62 velocity=0 time=59\n",
      "note_on channel=4 note=62 velocity=81 time=1\n",
      "note_on channel=4 note=62 velocity=0 time=59\n",
      "note_on channel=4 note=61 velocity=63 time=1\n",
      "note_on channel=4 note=61 velocity=0 time=59\n",
      "note_on channel=4 note=50 velocity=0 time=0\n",
      "note_on channel=4 note=57 velocity=0 time=0\n",
      "note_on channel=4 note=57 velocity=64 time=1\n",
      "note_on channel=4 note=57 velocity=0 time=59\n",
      "note_on channel=4 note=52 velocity=72 time=1\n",
      "note_on channel=4 note=59 velocity=62 time=60\n",
      "note_on channel=4 note=64 velocity=77 time=60\n",
      "note_on channel=4 note=64 velocity=0 time=59\n",
      "note_on channel=4 note=59 velocity=0 time=0\n",
      "note_on channel=4 note=52 velocity=0 time=0\n",
      "note_on channel=4 note=49 velocity=68 time=1\n",
      "note_on channel=4 note=54 velocity=68 time=60\n",
      "note_on channel=4 note=57 velocity=72 time=60\n",
      "note_on channel=4 note=57 velocity=0 time=59\n",
      "note_on channel=4 note=66 velocity=80 time=1\n",
      "note_on channel=4 note=66 velocity=0 time=59\n",
      "note_on channel=4 note=54 velocity=0 time=0\n",
      "note_on channel=4 note=61 velocity=69 time=1\n",
      "note_on channel=4 note=61 velocity=0 time=59\n",
      "note_on channel=4 note=49 velocity=0 time=0\n",
      "note_on channel=4 note=50 velocity=77 time=1\n",
      "note_on channel=4 note=54 velocity=68 time=60\n",
      "note_on channel=4 note=62 velocity=77 time=60\n",
      "note_on channel=4 note=57 velocity=72 time=60\n",
      "note_on channel=4 note=50 velocity=0 time=58\n",
      "note_on channel=4 note=54 velocity=0 time=1\n",
      "note_on channel=4 note=50 velocity=64 time=1\n",
      "note_on channel=4 note=62 velocity=0 time=59\n",
      "note_on channel=4 note=62 velocity=81 time=1\n",
      "note_on channel=4 note=62 velocity=0 time=59\n",
      "note_on channel=4 note=61 velocity=63 time=1\n",
      "note_on channel=4 note=61 velocity=0 time=59\n",
      "note_on channel=4 note=50 velocity=0 time=0\n",
      "note_on channel=4 note=57 velocity=0 time=0\n",
      "note_on channel=4 note=57 velocity=64 time=1\n",
      "note_on channel=4 note=57 velocity=0 time=59\n",
      "note_on channel=4 note=52 velocity=72 time=1\n",
      "note_on channel=4 note=59 velocity=62 time=60\n",
      "note_on channel=4 note=64 velocity=77 time=60\n",
      "note_on channel=4 note=64 velocity=0 time=59\n",
      "note_on channel=4 note=59 velocity=0 time=0\n",
      "note_on channel=4 note=52 velocity=0 time=0\n",
      "note_on channel=4 note=49 velocity=68 time=1\n",
      "note_on channel=4 note=52 velocity=68 time=60\n",
      "note_on channel=4 note=57 velocity=72 time=60\n",
      "note_on channel=4 note=57 velocity=0 time=59\n",
      "note_on channel=4 note=64 velocity=80 time=1\n",
      "note_on channel=4 note=64 velocity=0 time=59\n",
      "note_on channel=4 note=52 velocity=0 time=0\n",
      "note_on channel=4 note=61 velocity=69 time=1\n",
      "note_on channel=4 note=61 velocity=0 time=59\n",
      "note_on channel=4 note=49 velocity=0 time=0\n",
      "note_on channel=4 note=42 velocity=69 time=1\n",
      "note_on channel=4 note=54 velocity=61 time=60\n",
      "note_on channel=4 note=61 velocity=86 time=60\n",
      "note_on channel=4 note=57 velocity=64 time=60\n",
      "note_on channel=4 note=54 velocity=0 time=59\n",
      "note_on channel=4 note=54 velocity=57 time=1\n",
      "note_on channel=4 note=61 velocity=0 time=59\n",
      "note_on channel=4 note=62 velocity=81 time=1\n",
      "note_on channel=4 note=62 velocity=0 time=59\n",
      "note_on channel=4 note=61 velocity=57 time=1\n",
      "note_on channel=4 note=61 velocity=0 time=59\n",
      "note_on channel=4 note=57 velocity=0 time=0\n",
      "note_on channel=4 note=54 velocity=0 time=0\n",
      "note_on channel=4 note=57 velocity=57 time=1\n",
      "note_on channel=4 note=57 velocity=0 time=59\n",
      "note_on channel=4 note=42 velocity=0 time=0\n",
      "note_on channel=4 note=52 velocity=72 time=1\n",
      "note_on channel=4 note=59 velocity=62 time=60\n",
      "note_on channel=4 note=64 velocity=77 time=60\n",
      "note_on channel=4 note=64 velocity=0 time=59\n",
      "note_on channel=4 note=59 velocity=0 time=0\n",
      "note_on channel=4 note=52 velocity=0 time=0\n",
      "note_on channel=4 note=57 velocity=68 time=1\n",
      "note_on channel=4 note=57 velocity=0 time=299\n",
      "note_on channel=4 note=50 velocity=77 time=3841\n",
      "note_on channel=4 note=54 velocity=68 time=60\n",
      "note_on channel=4 note=62 velocity=77 time=60\n",
      "note_on channel=4 note=57 velocity=72 time=60\n",
      "note_on channel=4 note=50 velocity=0 time=58\n",
      "note_on channel=4 note=54 velocity=0 time=1\n",
      "note_on channel=4 note=50 velocity=64 time=1\n",
      "note_on channel=4 note=62 velocity=0 time=59\n",
      "note_on channel=4 note=62 velocity=81 time=1\n",
      "note_on channel=4 note=62 velocity=0 time=59\n",
      "note_on channel=4 note=61 velocity=63 time=1\n",
      "note_on channel=4 note=61 velocity=0 time=59\n",
      "note_on channel=4 note=50 velocity=0 time=0\n",
      "note_on channel=4 note=57 velocity=0 time=0\n",
      "note_on channel=4 note=57 velocity=64 time=1\n",
      "note_on channel=4 note=57 velocity=0 time=59\n",
      "note_on channel=4 note=52 velocity=72 time=1\n",
      "note_on channel=4 note=59 velocity=62 time=60\n",
      "note_on channel=4 note=64 velocity=77 time=60\n",
      "note_on channel=4 note=64 velocity=0 time=59\n",
      "note_on channel=4 note=59 velocity=0 time=0\n",
      "note_on channel=4 note=52 velocity=0 time=0\n",
      "note_on channel=4 note=49 velocity=68 time=1\n",
      "note_on channel=4 note=54 velocity=68 time=60\n",
      "note_on channel=4 note=57 velocity=72 time=60\n",
      "note_on channel=4 note=57 velocity=0 time=59\n",
      "note_on channel=4 note=66 velocity=80 time=1\n",
      "note_on channel=4 note=66 velocity=0 time=59\n",
      "note_on channel=4 note=54 velocity=0 time=0\n",
      "note_on channel=4 note=61 velocity=69 time=1\n",
      "note_on channel=4 note=61 velocity=0 time=59\n",
      "note_on channel=4 note=49 velocity=0 time=0\n",
      "note_on channel=4 note=50 velocity=77 time=1\n",
      "note_on channel=4 note=54 velocity=68 time=60\n",
      "note_on channel=4 note=62 velocity=77 time=60\n",
      "note_on channel=4 note=57 velocity=72 time=60\n",
      "note_on channel=4 note=50 velocity=0 time=58\n",
      "note_on channel=4 note=54 velocity=0 time=1\n",
      "note_on channel=4 note=50 velocity=64 time=1\n",
      "note_on channel=4 note=62 velocity=0 time=59\n",
      "note_on channel=4 note=62 velocity=81 time=1\n",
      "note_on channel=4 note=62 velocity=0 time=59\n",
      "note_on channel=4 note=61 velocity=63 time=1\n",
      "note_on channel=4 note=61 velocity=0 time=59\n",
      "note_on channel=4 note=50 velocity=0 time=0\n",
      "note_on channel=4 note=57 velocity=0 time=0\n",
      "note_on channel=4 note=57 velocity=64 time=1\n",
      "note_on channel=4 note=57 velocity=0 time=59\n",
      "note_on channel=4 note=52 velocity=72 time=1\n",
      "note_on channel=4 note=59 velocity=62 time=60\n",
      "note_on channel=4 note=64 velocity=77 time=60\n",
      "note_on channel=4 note=64 velocity=0 time=59\n",
      "note_on channel=4 note=59 velocity=0 time=0\n",
      "note_on channel=4 note=52 velocity=0 time=0\n",
      "note_on channel=4 note=49 velocity=68 time=1\n",
      "note_on channel=4 note=54 velocity=68 time=60\n",
      "note_on channel=4 note=57 velocity=72 time=60\n",
      "note_on channel=4 note=57 velocity=0 time=59\n",
      "note_on channel=4 note=66 velocity=80 time=1\n",
      "note_on channel=4 note=66 velocity=0 time=59\n",
      "note_on channel=4 note=54 velocity=0 time=0\n",
      "note_on channel=4 note=61 velocity=69 time=1\n",
      "note_on channel=4 note=61 velocity=0 time=59\n",
      "note_on channel=4 note=49 velocity=0 time=0\n",
      "note_on channel=4 note=50 velocity=77 time=1\n",
      "note_on channel=4 note=54 velocity=68 time=60\n",
      "note_on channel=4 note=62 velocity=77 time=60\n",
      "note_on channel=4 note=57 velocity=72 time=60\n",
      "note_on channel=4 note=50 velocity=0 time=58\n",
      "note_on channel=4 note=54 velocity=0 time=1\n",
      "note_on channel=4 note=50 velocity=64 time=1\n",
      "note_on channel=4 note=62 velocity=0 time=59\n",
      "note_on channel=4 note=62 velocity=81 time=1\n",
      "note_on channel=4 note=62 velocity=0 time=59\n",
      "note_on channel=4 note=61 velocity=63 time=1\n",
      "note_on channel=4 note=61 velocity=0 time=59\n",
      "note_on channel=4 note=50 velocity=0 time=0\n",
      "note_on channel=4 note=57 velocity=0 time=0\n",
      "note_on channel=4 note=57 velocity=64 time=1\n",
      "note_on channel=4 note=57 velocity=0 time=59\n",
      "note_on channel=4 note=52 velocity=72 time=1\n",
      "note_on channel=4 note=59 velocity=62 time=60\n",
      "note_on channel=4 note=64 velocity=77 time=60\n",
      "note_on channel=4 note=64 velocity=0 time=59\n",
      "note_on channel=4 note=59 velocity=0 time=0\n",
      "note_on channel=4 note=52 velocity=0 time=0\n",
      "note_on channel=4 note=49 velocity=68 time=1\n",
      "note_on channel=4 note=52 velocity=68 time=60\n",
      "note_on channel=4 note=57 velocity=72 time=60\n",
      "note_on channel=4 note=57 velocity=0 time=59\n",
      "note_on channel=4 note=64 velocity=80 time=1\n",
      "note_on channel=4 note=64 velocity=0 time=59\n",
      "note_on channel=4 note=52 velocity=0 time=0\n",
      "note_on channel=4 note=61 velocity=69 time=1\n",
      "note_on channel=4 note=61 velocity=0 time=59\n",
      "note_on channel=4 note=49 velocity=0 time=0\n",
      "note_on channel=4 note=42 velocity=69 time=1\n",
      "note_on channel=4 note=54 velocity=61 time=60\n",
      "note_on channel=4 note=61 velocity=86 time=60\n",
      "note_on channel=4 note=57 velocity=64 time=60\n",
      "note_on channel=4 note=54 velocity=0 time=59\n",
      "note_on channel=4 note=54 velocity=57 time=1\n",
      "note_on channel=4 note=61 velocity=0 time=59\n",
      "note_on channel=4 note=62 velocity=81 time=1\n",
      "note_on channel=4 note=62 velocity=0 time=59\n",
      "note_on channel=4 note=61 velocity=57 time=1\n",
      "note_on channel=4 note=61 velocity=0 time=59\n",
      "note_on channel=4 note=57 velocity=0 time=0\n",
      "note_on channel=4 note=54 velocity=0 time=0\n",
      "note_on channel=4 note=57 velocity=57 time=1\n",
      "note_on channel=4 note=57 velocity=0 time=59\n",
      "note_on channel=4 note=42 velocity=0 time=0\n",
      "note_on channel=4 note=66 velocity=91 time=7203\n",
      "note_on channel=4 note=66 velocity=0 time=122\n",
      "note_on channel=4 note=69 velocity=91 time=52\n",
      "note_on channel=4 note=69 velocity=0 time=183\n",
      "note_on channel=4 note=73 velocity=102 time=2\n",
      "note_on channel=4 note=73 velocity=0 time=105\n",
      "note_on channel=4 note=71 velocity=90 time=16\n",
      "note_on channel=4 note=71 velocity=0 time=133\n",
      "note_on channel=4 note=52 velocity=77 time=345\n",
      "note_on channel=4 note=56 velocity=68 time=60\n",
      "note_on channel=4 note=64 velocity=77 time=60\n",
      "note_on channel=4 note=59 velocity=72 time=60\n",
      "note_on channel=4 note=52 velocity=0 time=58\n",
      "note_on channel=4 note=56 velocity=0 time=1\n",
      "note_on channel=4 note=52 velocity=64 time=1\n",
      "note_on channel=4 note=64 velocity=0 time=59\n",
      "note_on channel=4 note=64 velocity=81 time=1\n",
      "note_on channel=4 note=64 velocity=0 time=59\n",
      "note_on channel=4 note=63 velocity=63 time=1\n",
      "note_on channel=4 note=63 velocity=0 time=59\n",
      "note_on channel=4 note=52 velocity=0 time=0\n",
      "note_on channel=4 note=59 velocity=0 time=0\n",
      "note_on channel=4 note=59 velocity=64 time=1\n",
      "note_on channel=4 note=59 velocity=0 time=59\n",
      "note_on channel=4 note=54 velocity=72 time=1\n",
      "note_on channel=4 note=61 velocity=62 time=60\n",
      "note_on channel=4 note=66 velocity=77 time=60\n",
      "note_on channel=4 note=66 velocity=0 time=59\n",
      "note_on channel=4 note=61 velocity=0 time=0\n",
      "note_on channel=4 note=54 velocity=0 time=0\n",
      "note_on channel=4 note=51 velocity=68 time=1\n",
      "note_on channel=4 note=54 velocity=68 time=60\n",
      "note_on channel=4 note=59 velocity=72 time=60\n",
      "note_on channel=4 note=59 velocity=0 time=59\n",
      "note_on channel=4 note=68 velocity=80 time=1\n",
      "note_on channel=4 note=68 velocity=0 time=59\n",
      "note_on channel=4 note=54 velocity=0 time=0\n",
      "note_on channel=4 note=63 velocity=69 time=1\n",
      "note_on channel=4 note=63 velocity=0 time=59\n",
      "note_on channel=4 note=51 velocity=0 time=0\n",
      "note_on channel=4 note=52 velocity=77 time=1\n",
      "note_on channel=4 note=56 velocity=68 time=60\n",
      "note_on channel=4 note=64 velocity=77 time=60\n",
      "note_on channel=4 note=59 velocity=72 time=60\n",
      "note_on channel=4 note=52 velocity=0 time=58\n",
      "note_on channel=4 note=56 velocity=0 time=1\n",
      "note_on channel=4 note=52 velocity=64 time=1\n",
      "note_on channel=4 note=64 velocity=0 time=59\n",
      "note_on channel=4 note=64 velocity=81 time=1\n",
      "note_on channel=4 note=64 velocity=0 time=59\n",
      "note_on channel=4 note=63 velocity=63 time=1\n",
      "note_on channel=4 note=63 velocity=0 time=59\n",
      "note_on channel=4 note=52 velocity=0 time=0\n",
      "note_on channel=4 note=59 velocity=0 time=0\n",
      "note_on channel=4 note=59 velocity=64 time=1\n",
      "note_on channel=4 note=59 velocity=0 time=59\n",
      "note_on channel=4 note=54 velocity=72 time=1\n",
      "note_on channel=4 note=61 velocity=62 time=60\n",
      "note_on channel=4 note=66 velocity=77 time=60\n",
      "note_on channel=4 note=66 velocity=0 time=59\n",
      "note_on channel=4 note=61 velocity=0 time=0\n",
      "note_on channel=4 note=54 velocity=0 time=0\n",
      "note_on channel=4 note=51 velocity=68 time=1\n",
      "note_on channel=4 note=54 velocity=68 time=60\n",
      "note_on channel=4 note=59 velocity=72 time=60\n",
      "note_on channel=4 note=59 velocity=0 time=59\n",
      "note_on channel=4 note=68 velocity=80 time=1\n",
      "note_on channel=4 note=68 velocity=0 time=59\n",
      "note_on channel=4 note=54 velocity=0 time=0\n",
      "note_on channel=4 note=63 velocity=69 time=1\n",
      "note_on channel=4 note=63 velocity=0 time=59\n",
      "note_on channel=4 note=51 velocity=0 time=0\n",
      "note_on channel=4 note=52 velocity=77 time=1\n",
      "note_on channel=4 note=56 velocity=68 time=60\n",
      "note_on channel=4 note=64 velocity=77 time=60\n",
      "note_on channel=4 note=59 velocity=72 time=60\n",
      "note_on channel=4 note=52 velocity=0 time=58\n",
      "note_on channel=4 note=56 velocity=0 time=1\n",
      "note_on channel=4 note=52 velocity=64 time=1\n",
      "note_on channel=4 note=64 velocity=0 time=59\n",
      "note_on channel=4 note=64 velocity=81 time=1\n",
      "note_on channel=4 note=64 velocity=0 time=59\n",
      "note_on channel=4 note=63 velocity=63 time=1\n",
      "note_on channel=4 note=63 velocity=0 time=59\n",
      "note_on channel=4 note=52 velocity=0 time=0\n",
      "note_on channel=4 note=59 velocity=0 time=0\n",
      "note_on channel=4 note=59 velocity=64 time=1\n",
      "note_on channel=4 note=59 velocity=0 time=59\n",
      "note_on channel=4 note=54 velocity=72 time=1\n",
      "note_on channel=4 note=61 velocity=62 time=60\n",
      "note_on channel=4 note=66 velocity=77 time=60\n",
      "note_on channel=4 note=66 velocity=0 time=59\n",
      "note_on channel=4 note=61 velocity=0 time=0\n",
      "note_on channel=4 note=54 velocity=0 time=0\n",
      "note_on channel=4 note=51 velocity=68 time=1\n",
      "note_on channel=4 note=54 velocity=68 time=60\n",
      "note_on channel=4 note=59 velocity=72 time=60\n",
      "note_on channel=4 note=59 velocity=0 time=59\n",
      "note_on channel=4 note=68 velocity=80 time=1\n",
      "note_on channel=4 note=68 velocity=0 time=59\n",
      "note_on channel=4 note=54 velocity=0 time=0\n",
      "note_on channel=4 note=63 velocity=69 time=1\n",
      "note_on channel=4 note=63 velocity=0 time=59\n",
      "note_on channel=4 note=51 velocity=0 time=0\n",
      "note_on channel=4 note=44 velocity=69 time=1\n",
      "note_on channel=4 note=56 velocity=61 time=60\n",
      "note_on channel=4 note=63 velocity=86 time=60\n",
      "note_on channel=4 note=59 velocity=64 time=60\n",
      "note_on channel=4 note=56 velocity=0 time=59\n",
      "note_on channel=4 note=56 velocity=57 time=1\n",
      "note_on channel=4 note=63 velocity=0 time=59\n",
      "note_on channel=4 note=64 velocity=81 time=1\n",
      "note_on channel=4 note=64 velocity=0 time=59\n",
      "note_on channel=4 note=63 velocity=57 time=1\n",
      "note_on channel=4 note=63 velocity=0 time=59\n",
      "note_on channel=4 note=59 velocity=0 time=0\n",
      "note_on channel=4 note=56 velocity=0 time=0\n",
      "note_on channel=4 note=59 velocity=57 time=1\n",
      "note_on channel=4 note=59 velocity=0 time=59\n",
      "note_on channel=4 note=44 velocity=0 time=0\n",
      "note_on channel=4 note=54 velocity=72 time=1\n",
      "note_on channel=4 note=61 velocity=62 time=60\n",
      "note_on channel=4 note=66 velocity=77 time=60\n",
      "note_on channel=4 note=66 velocity=0 time=59\n",
      "note_on channel=4 note=61 velocity=0 time=0\n",
      "note_on channel=4 note=54 velocity=0 time=0\n",
      "note_on channel=4 note=59 velocity=68 time=1\n",
      "note_on channel=4 note=59 velocity=0 time=299\n",
      "note_on channel=4 note=52 velocity=77 time=1\n",
      "note_on channel=4 note=56 velocity=68 time=60\n",
      "note_on channel=4 note=64 velocity=77 time=60\n",
      "note_on channel=4 note=59 velocity=72 time=60\n",
      "note_on channel=4 note=52 velocity=0 time=58\n",
      "note_on channel=4 note=56 velocity=0 time=1\n",
      "note_on channel=4 note=52 velocity=64 time=1\n",
      "note_on channel=4 note=64 velocity=0 time=59\n",
      "note_on channel=4 note=64 velocity=81 time=1\n",
      "note_on channel=4 note=64 velocity=0 time=59\n",
      "note_on channel=4 note=63 velocity=63 time=1\n",
      "note_on channel=4 note=63 velocity=0 time=59\n",
      "note_on channel=4 note=52 velocity=0 time=0\n",
      "note_on channel=4 note=59 velocity=0 time=0\n",
      "note_on channel=4 note=59 velocity=64 time=1\n",
      "note_on channel=4 note=59 velocity=0 time=59\n",
      "note_on channel=4 note=54 velocity=72 time=1\n",
      "note_on channel=4 note=61 velocity=62 time=60\n",
      "note_on channel=4 note=66 velocity=77 time=60\n",
      "note_on channel=4 note=66 velocity=0 time=59\n",
      "note_on channel=4 note=61 velocity=0 time=0\n",
      "note_on channel=4 note=54 velocity=0 time=0\n",
      "note_on channel=4 note=51 velocity=68 time=1\n",
      "note_on channel=4 note=56 velocity=68 time=60\n",
      "note_on channel=4 note=59 velocity=72 time=60\n",
      "note_on channel=4 note=59 velocity=0 time=59\n",
      "note_on channel=4 note=68 velocity=80 time=1\n",
      "note_on channel=4 note=68 velocity=0 time=59\n",
      "note_on channel=4 note=56 velocity=0 time=0\n",
      "note_on channel=4 note=63 velocity=69 time=1\n",
      "note_on channel=4 note=63 velocity=0 time=59\n",
      "note_on channel=4 note=51 velocity=0 time=0\n",
      "note_on channel=4 note=52 velocity=77 time=1\n",
      "note_on channel=4 note=56 velocity=68 time=60\n",
      "note_on channel=4 note=64 velocity=77 time=60\n",
      "note_on channel=4 note=59 velocity=72 time=60\n",
      "note_on channel=4 note=52 velocity=0 time=58\n",
      "note_on channel=4 note=56 velocity=0 time=1\n",
      "note_on channel=4 note=52 velocity=64 time=1\n",
      "note_on channel=4 note=64 velocity=0 time=59\n",
      "note_on channel=4 note=64 velocity=81 time=1\n",
      "note_on channel=4 note=64 velocity=0 time=59\n",
      "note_on channel=4 note=63 velocity=63 time=1\n",
      "note_on channel=4 note=63 velocity=0 time=59\n",
      "note_on channel=4 note=52 velocity=0 time=0\n",
      "note_on channel=4 note=59 velocity=0 time=0\n",
      "note_on channel=4 note=59 velocity=64 time=1\n",
      "note_on channel=4 note=59 velocity=0 time=59\n",
      "note_on channel=4 note=54 velocity=72 time=1\n",
      "note_on channel=4 note=61 velocity=62 time=60\n",
      "note_on channel=4 note=66 velocity=77 time=60\n",
      "note_on channel=4 note=66 velocity=0 time=59\n",
      "note_on channel=4 note=61 velocity=0 time=0\n",
      "note_on channel=4 note=54 velocity=0 time=0\n",
      "note_on channel=4 note=51 velocity=68 time=1\n",
      "note_on channel=4 note=56 velocity=68 time=60\n",
      "note_on channel=4 note=59 velocity=72 time=60\n",
      "note_on channel=4 note=59 velocity=0 time=59\n",
      "note_on channel=4 note=68 velocity=80 time=1\n",
      "note_on channel=4 note=68 velocity=0 time=59\n",
      "note_on channel=4 note=56 velocity=0 time=0\n",
      "note_on channel=4 note=63 velocity=69 time=1\n",
      "note_on channel=4 note=63 velocity=0 time=59\n",
      "note_on channel=4 note=51 velocity=0 time=0\n",
      "note_on channel=4 note=52 velocity=77 time=1\n",
      "note_on channel=4 note=56 velocity=68 time=60\n",
      "note_on channel=4 note=64 velocity=77 time=60\n",
      "note_on channel=4 note=59 velocity=72 time=60\n",
      "note_on channel=4 note=52 velocity=0 time=58\n",
      "note_on channel=4 note=56 velocity=0 time=1\n",
      "note_on channel=4 note=52 velocity=64 time=1\n",
      "note_on channel=4 note=64 velocity=0 time=59\n",
      "note_on channel=4 note=64 velocity=81 time=1\n",
      "note_on channel=4 note=64 velocity=0 time=59\n",
      "note_on channel=4 note=63 velocity=63 time=1\n",
      "note_on channel=4 note=63 velocity=0 time=59\n",
      "note_on channel=4 note=52 velocity=0 time=0\n",
      "note_on channel=4 note=59 velocity=0 time=0\n",
      "note_on channel=4 note=59 velocity=64 time=1\n",
      "note_on channel=4 note=59 velocity=0 time=59\n",
      "note_on channel=4 note=54 velocity=72 time=1\n",
      "note_on channel=4 note=61 velocity=62 time=60\n",
      "note_on channel=4 note=66 velocity=77 time=60\n",
      "note_on channel=4 note=66 velocity=0 time=59\n",
      "note_on channel=4 note=61 velocity=0 time=0\n",
      "note_on channel=4 note=54 velocity=0 time=0\n",
      "note_on channel=4 note=51 velocity=68 time=1\n",
      "note_on channel=4 note=54 velocity=68 time=60\n",
      "note_on channel=4 note=59 velocity=72 time=60\n",
      "note_on channel=4 note=59 velocity=0 time=59\n",
      "note_on channel=4 note=66 velocity=80 time=1\n",
      "note_on channel=4 note=66 velocity=0 time=59\n",
      "note_on channel=4 note=54 velocity=0 time=0\n",
      "note_on channel=4 note=63 velocity=69 time=1\n",
      "note_on channel=4 note=63 velocity=0 time=59\n",
      "note_on channel=4 note=51 velocity=0 time=0\n",
      "note_on channel=4 note=44 velocity=69 time=1\n",
      "note_on channel=4 note=56 velocity=61 time=60\n",
      "note_on channel=4 note=63 velocity=86 time=60\n",
      "note_on channel=4 note=59 velocity=64 time=60\n",
      "note_on channel=4 note=56 velocity=0 time=59\n",
      "note_on channel=4 note=56 velocity=57 time=1\n",
      "note_on channel=4 note=63 velocity=0 time=59\n",
      "note_on channel=4 note=64 velocity=81 time=1\n",
      "note_on channel=4 note=64 velocity=0 time=59\n",
      "note_on channel=4 note=63 velocity=57 time=1\n",
      "note_on channel=4 note=63 velocity=0 time=59\n",
      "note_on channel=4 note=59 velocity=0 time=0\n",
      "note_on channel=4 note=56 velocity=0 time=0\n",
      "note_on channel=4 note=59 velocity=57 time=1\n",
      "note_on channel=4 note=59 velocity=0 time=59\n",
      "note_on channel=4 note=44 velocity=0 time=0\n",
      "note_on channel=4 note=54 velocity=72 time=1\n",
      "note_on channel=4 note=61 velocity=62 time=60\n",
      "note_on channel=4 note=66 velocity=77 time=60\n",
      "note_on channel=4 note=66 velocity=0 time=59\n",
      "note_on channel=4 note=61 velocity=0 time=0\n",
      "note_on channel=4 note=54 velocity=0 time=0\n",
      "note_on channel=4 note=59 velocity=68 time=1\n",
      "note_on channel=4 note=59 velocity=0 time=299\n",
      "note_on channel=4 note=52 velocity=77 time=1\n",
      "note_on channel=4 note=56 velocity=68 time=60\n",
      "note_on channel=4 note=64 velocity=77 time=60\n",
      "note_on channel=4 note=59 velocity=72 time=60\n",
      "note_on channel=4 note=52 velocity=0 time=58\n",
      "note_on channel=4 note=56 velocity=0 time=1\n",
      "note_on channel=4 note=52 velocity=64 time=1\n",
      "note_on channel=4 note=64 velocity=0 time=59\n",
      "note_on channel=4 note=64 velocity=81 time=1\n",
      "note_on channel=4 note=64 velocity=0 time=59\n",
      "note_on channel=4 note=63 velocity=63 time=1\n",
      "note_on channel=4 note=63 velocity=0 time=59\n",
      "note_on channel=4 note=52 velocity=0 time=0\n",
      "note_on channel=4 note=59 velocity=0 time=0\n",
      "note_on channel=4 note=59 velocity=64 time=1\n",
      "note_on channel=4 note=59 velocity=0 time=59\n",
      "note_on channel=4 note=54 velocity=72 time=1\n",
      "note_on channel=4 note=61 velocity=62 time=60\n",
      "note_on channel=4 note=66 velocity=77 time=60\n",
      "note_on channel=4 note=66 velocity=0 time=59\n",
      "note_on channel=4 note=61 velocity=0 time=0\n",
      "note_on channel=4 note=54 velocity=0 time=0\n",
      "note_on channel=4 note=51 velocity=68 time=1\n",
      "note_on channel=4 note=56 velocity=68 time=60\n",
      "note_on channel=4 note=59 velocity=72 time=60\n",
      "note_on channel=4 note=59 velocity=0 time=59\n",
      "note_on channel=4 note=68 velocity=80 time=1\n",
      "note_on channel=4 note=68 velocity=0 time=59\n",
      "note_on channel=4 note=56 velocity=0 time=0\n",
      "note_on channel=4 note=63 velocity=69 time=1\n",
      "note_on channel=4 note=63 velocity=0 time=59\n",
      "note_on channel=4 note=51 velocity=0 time=0\n",
      "note_on channel=4 note=52 velocity=77 time=1\n",
      "note_on channel=4 note=56 velocity=68 time=60\n",
      "note_on channel=4 note=64 velocity=77 time=60\n",
      "note_on channel=4 note=59 velocity=72 time=60\n",
      "note_on channel=4 note=52 velocity=0 time=58\n",
      "note_on channel=4 note=56 velocity=0 time=1\n",
      "note_on channel=4 note=52 velocity=64 time=1\n",
      "note_on channel=4 note=64 velocity=0 time=59\n",
      "note_on channel=4 note=64 velocity=81 time=1\n",
      "note_on channel=4 note=64 velocity=0 time=59\n",
      "note_on channel=4 note=63 velocity=63 time=1\n",
      "note_on channel=4 note=63 velocity=0 time=59\n",
      "note_on channel=4 note=52 velocity=0 time=0\n",
      "note_on channel=4 note=59 velocity=0 time=0\n",
      "note_on channel=4 note=59 velocity=64 time=1\n",
      "note_on channel=4 note=59 velocity=0 time=59\n",
      "note_on channel=4 note=54 velocity=72 time=1\n",
      "note_on channel=4 note=61 velocity=62 time=60\n",
      "note_on channel=4 note=66 velocity=77 time=60\n",
      "note_on channel=4 note=66 velocity=0 time=59\n",
      "note_on channel=4 note=61 velocity=0 time=0\n",
      "note_on channel=4 note=54 velocity=0 time=0\n",
      "note_on channel=4 note=51 velocity=68 time=1\n",
      "note_on channel=4 note=56 velocity=68 time=60\n",
      "note_on channel=4 note=59 velocity=72 time=60\n",
      "note_on channel=4 note=59 velocity=0 time=59\n",
      "note_on channel=4 note=68 velocity=80 time=1\n",
      "note_on channel=4 note=68 velocity=0 time=59\n",
      "note_on channel=4 note=56 velocity=0 time=0\n",
      "note_on channel=4 note=63 velocity=69 time=1\n",
      "note_on channel=4 note=63 velocity=0 time=59\n",
      "note_on channel=4 note=51 velocity=0 time=0\n",
      "note_on channel=4 note=52 velocity=77 time=1\n",
      "note_on channel=4 note=56 velocity=68 time=60\n",
      "note_on channel=4 note=64 velocity=77 time=60\n",
      "note_on channel=4 note=59 velocity=72 time=60\n",
      "note_on channel=4 note=52 velocity=0 time=58\n",
      "note_on channel=4 note=56 velocity=0 time=1\n",
      "note_on channel=4 note=52 velocity=64 time=1\n",
      "note_on channel=4 note=64 velocity=0 time=59\n",
      "note_on channel=4 note=64 velocity=81 time=1\n",
      "note_on channel=4 note=64 velocity=0 time=59\n",
      "note_on channel=4 note=63 velocity=63 time=1\n",
      "note_on channel=4 note=63 velocity=0 time=59\n",
      "note_on channel=4 note=52 velocity=0 time=0\n",
      "note_on channel=4 note=59 velocity=0 time=0\n",
      "note_on channel=4 note=59 velocity=64 time=1\n",
      "note_on channel=4 note=59 velocity=0 time=59\n",
      "note_on channel=4 note=54 velocity=72 time=1\n",
      "note_on channel=4 note=61 velocity=62 time=60\n",
      "note_on channel=4 note=66 velocity=77 time=60\n",
      "note_on channel=4 note=66 velocity=0 time=59\n",
      "note_on channel=4 note=61 velocity=0 time=0\n",
      "note_on channel=4 note=54 velocity=0 time=0\n",
      "note_on channel=4 note=51 velocity=68 time=1\n",
      "note_on channel=4 note=54 velocity=68 time=60\n",
      "note_on channel=4 note=59 velocity=72 time=60\n",
      "note_on channel=4 note=59 velocity=0 time=59\n",
      "note_on channel=4 note=66 velocity=80 time=1\n",
      "note_on channel=4 note=66 velocity=0 time=59\n",
      "note_on channel=4 note=54 velocity=0 time=0\n",
      "note_on channel=4 note=63 velocity=69 time=1\n",
      "note_on channel=4 note=51 velocity=77 time=46\n",
      "note_on channel=4 note=56 velocity=77 time=12\n",
      "note_on channel=4 note=63 velocity=0 time=1\n",
      "note_on channel=4 note=51 velocity=0 time=0\n",
      "note_on channel=4 note=59 velocity=77 time=14\n",
      "note_on channel=4 note=63 velocity=71 time=5\n",
      "note_on channel=4 note=59 velocity=0 time=422\n",
      "note_on channel=4 note=56 velocity=0 time=0\n",
      "note_on channel=4 note=51 velocity=0 time=10\n",
      "note_on channel=4 note=63 velocity=0 time=0\n",
      "note_on channel=4 note=54 velocity=77 time=7\n",
      "note_on channel=4 note=58 velocity=77 time=12\n",
      "note_on channel=4 note=61 velocity=77 time=15\n",
      "note_on channel=4 note=66 velocity=71 time=5\n",
      "note_on channel=4 note=54 velocity=0 time=241\n",
      "note_on channel=4 note=58 velocity=0 time=12\n",
      "note_on channel=4 note=61 velocity=0 time=15\n",
      "note_on channel=4 note=66 velocity=0 time=5\n",
      "note_on channel=4 note=51 velocity=77 time=184\n",
      "note_on channel=4 note=56 velocity=77 time=12\n",
      "note_on channel=4 note=59 velocity=77 time=15\n",
      "note_on channel=4 note=63 velocity=71 time=5\n",
      "note_on channel=4 note=59 velocity=0 time=422\n",
      "note_on channel=4 note=56 velocity=0 time=0\n",
      "note_on channel=4 note=51 velocity=0 time=10\n",
      "note_on channel=4 note=63 velocity=0 time=0\n",
      "note_on channel=4 note=49 velocity=77 time=16\n",
      "note_on channel=4 note=54 velocity=77 time=12\n",
      "note_on channel=4 note=58 velocity=77 time=15\n",
      "note_on channel=4 note=61 velocity=71 time=5\n",
      "note_on channel=4 note=54 velocity=0 time=132\n",
      "note_on channel=4 note=49 velocity=0 time=0\n",
      "note_on channel=4 note=51 velocity=77 time=1\n",
      "note_on channel=4 note=54 velocity=77 time=12\n",
      "note_on channel=4 note=59 velocity=77 time=15\n",
      "note_on channel=4 note=58 velocity=0 time=2\n",
      "note_on channel=4 note=61 velocity=0 time=0\n",
      "note_on channel=4 note=63 velocity=71 time=2\n",
      "note_on channel=4 note=63 velocity=0 time=297\n",
      "note_on channel=4 note=59 velocity=0 time=1\n",
      "note_on channel=4 note=51 velocity=0 time=0\n",
      "note_on channel=4 note=54 velocity=0 time=0\n",
      "MetaMessage('end_of_track', time=0)\n",
      "Track 6\n",
      "MetaMessage('midi_port', port=0, time=0)\n",
      "MetaMessage('track_name', name='', time=0)\n",
      "program_change channel=5 program=25 time=0\n",
      "control_change channel=5 control=7 value=37 time=0\n",
      "control_change channel=5 control=10 value=60 time=0\n",
      "control_change channel=5 control=11 value=127 time=600\n",
      "control_change channel=5 control=91 value=62 time=2\n",
      "control_change channel=5 control=93 value=40 time=2\n",
      "control_change channel=5 control=94 value=0 time=2\n",
      "note_on channel=5 note=50 velocity=104 time=4622\n",
      "note_on channel=5 note=54 velocity=104 time=17\n",
      "note_on channel=5 note=57 velocity=104 time=11\n",
      "note_on channel=5 note=62 velocity=86 time=24\n",
      "note_on channel=5 note=50 velocity=0 time=160\n",
      "note_on channel=5 note=54 velocity=0 time=10\n",
      "note_on channel=5 note=57 velocity=0 time=0\n",
      "note_on channel=5 note=62 velocity=0 time=9\n",
      "note_on channel=5 note=54 velocity=104 time=249\n",
      "note_on channel=5 note=57 velocity=104 time=17\n",
      "note_on channel=5 note=61 velocity=104 time=11\n",
      "note_on channel=5 note=66 velocity=86 time=13\n",
      "note_on channel=5 note=61 velocity=0 time=171\n",
      "note_on channel=5 note=54 velocity=0 time=0\n",
      "note_on channel=5 note=57 velocity=0 time=0\n",
      "note_on channel=5 note=66 velocity=0 time=10\n",
      "note_on channel=5 note=49 velocity=116 time=789\n",
      "note_on channel=5 note=54 velocity=116 time=1\n",
      "note_on channel=5 note=61 velocity=106 time=3\n",
      "note_on channel=5 note=57 velocity=116 time=0\n",
      "note_on channel=5 note=54 velocity=0 time=49\n",
      "note_on channel=5 note=61 velocity=0 time=1\n",
      "note_on channel=5 note=49 velocity=0 time=2\n",
      "note_on channel=5 note=57 velocity=0 time=0\n",
      "note_on channel=5 note=49 velocity=103 time=4\n",
      "note_on channel=5 note=54 velocity=103 time=1\n",
      "note_on channel=5 note=57 velocity=103 time=1\n",
      "note_on channel=5 note=61 velocity=94 time=2\n",
      "note_on channel=5 note=61 velocity=0 time=53\n",
      "note_on channel=5 note=54 velocity=0 time=0\n",
      "note_on channel=5 note=57 velocity=0 time=1\n",
      "note_on channel=5 note=49 velocity=0 time=0\n",
      "note_on channel=5 note=49 velocity=96 time=2\n",
      "note_on channel=5 note=54 velocity=96 time=1\n",
      "note_on channel=5 note=57 velocity=96 time=1\n",
      "note_on channel=5 note=61 velocity=86 time=2\n",
      "note_on channel=5 note=57 velocity=0 time=6\n",
      "note_on channel=5 note=49 velocity=0 time=0\n",
      "note_on channel=5 note=54 velocity=0 time=1\n",
      "note_on channel=5 note=61 velocity=0 time=3\n",
      "note_on channel=5 note=49 velocity=116 time=44\n",
      "note_on channel=5 note=54 velocity=116 time=1\n",
      "note_on channel=5 note=57 velocity=116 time=3\n",
      "note_on channel=5 note=61 velocity=106 time=0\n",
      "note_on channel=5 note=54 velocity=0 time=54\n",
      "note_on channel=5 note=49 velocity=0 time=0\n",
      "note_on channel=5 note=61 velocity=0 time=1\n",
      "note_on channel=5 note=57 velocity=0 time=1\n",
      "note_on channel=5 note=49 velocity=116 time=2\n",
      "note_on channel=5 note=54 velocity=116 time=1\n",
      "note_on channel=5 note=57 velocity=116 time=3\n",
      "note_on channel=5 note=61 velocity=106 time=0\n",
      "note_on channel=5 note=61 velocity=0 time=50\n",
      "note_on channel=5 note=57 velocity=0 time=0\n",
      "note_on channel=5 note=49 velocity=0 time=2\n",
      "note_on channel=5 note=54 velocity=0 time=1\n",
      "note_on channel=5 note=49 velocity=103 time=3\n",
      "note_on channel=5 note=54 velocity=103 time=1\n",
      "note_on channel=5 note=57 velocity=103 time=1\n",
      "note_on channel=5 note=62 velocity=94 time=2\n",
      "note_on channel=5 note=62 velocity=0 time=53\n",
      "note_on channel=5 note=57 velocity=0 time=1\n",
      "note_on channel=5 note=49 velocity=0 time=0\n",
      "note_on channel=5 note=54 velocity=0 time=1\n",
      "note_on channel=5 note=49 velocity=96 time=1\n",
      "note_on channel=5 note=54 velocity=96 time=1\n",
      "note_on channel=5 note=57 velocity=96 time=1\n",
      "note_on channel=5 note=61 velocity=86 time=2\n",
      "note_on channel=5 note=49 velocity=0 time=6\n",
      "note_on channel=5 note=54 velocity=0 time=1\n",
      "note_on channel=5 note=57 velocity=0 time=1\n",
      "note_on channel=5 note=61 velocity=0 time=2\n",
      "note_on channel=5 note=49 velocity=116 time=44\n",
      "note_on channel=5 note=54 velocity=116 time=1\n",
      "note_on channel=5 note=61 velocity=106 time=3\n",
      "note_on channel=5 note=57 velocity=116 time=0\n",
      "note_on channel=5 note=49 velocity=0 time=54\n",
      "note_on channel=5 note=54 velocity=0 time=1\n",
      "note_on channel=5 note=61 velocity=0 time=1\n",
      "note_on channel=5 note=57 velocity=0 time=0\n",
      "note_on channel=5 note=50 velocity=116 time=2\n",
      "note_on channel=5 note=54 velocity=116 time=1\n",
      "note_on channel=5 note=57 velocity=116 time=3\n",
      "note_on channel=5 note=62 velocity=106 time=0\n",
      "note_on channel=5 note=62 velocity=0 time=50\n",
      "note_on channel=5 note=57 velocity=0 time=0\n",
      "note_on channel=5 note=50 velocity=0 time=2\n",
      "note_on channel=5 note=54 velocity=0 time=1\n",
      "note_on channel=5 note=50 velocity=103 time=3\n",
      "note_on channel=5 note=54 velocity=103 time=1\n",
      "note_on channel=5 note=57 velocity=103 time=1\n",
      "note_on channel=5 note=62 velocity=94 time=2\n",
      "note_on channel=5 note=62 velocity=0 time=53\n",
      "note_on channel=5 note=57 velocity=0 time=1\n",
      "note_on channel=5 note=50 velocity=0 time=0\n",
      "note_on channel=5 note=54 velocity=0 time=1\n",
      "note_on channel=5 note=50 velocity=96 time=1\n",
      "note_on channel=5 note=54 velocity=96 time=1\n",
      "note_on channel=5 note=57 velocity=96 time=1\n",
      "note_on channel=5 note=62 velocity=86 time=2\n",
      "note_on channel=5 note=50 velocity=0 time=6\n",
      "note_on channel=5 note=54 velocity=0 time=1\n",
      "note_on channel=5 note=57 velocity=0 time=1\n",
      "note_on channel=5 note=62 velocity=0 time=2\n",
      "note_on channel=5 note=49 velocity=116 time=44\n",
      "note_on channel=5 note=52 velocity=116 time=1\n",
      "note_on channel=5 note=61 velocity=106 time=3\n",
      "note_on channel=5 note=57 velocity=116 time=0\n",
      "note_on channel=5 note=49 velocity=0 time=54\n",
      "note_on channel=5 note=52 velocity=0 time=1\n",
      "note_on channel=5 note=61 velocity=0 time=1\n",
      "note_on channel=5 note=57 velocity=0 time=0\n",
      "note_on channel=5 note=49 velocity=116 time=2\n",
      "note_on channel=5 note=52 velocity=116 time=1\n",
      "note_on channel=5 note=61 velocity=106 time=3\n",
      "note_on channel=5 note=57 velocity=116 time=0\n",
      "note_on channel=5 note=57 velocity=0 time=50\n",
      "note_on channel=5 note=61 velocity=0 time=0\n",
      "note_on channel=5 note=49 velocity=0 time=2\n",
      "note_on channel=5 note=52 velocity=0 time=1\n",
      "note_on channel=5 note=49 velocity=103 time=3\n",
      "note_on channel=5 note=52 velocity=103 time=1\n",
      "note_on channel=5 note=57 velocity=103 time=1\n",
      "note_on channel=5 note=61 velocity=94 time=2\n",
      "note_on channel=5 note=61 velocity=0 time=53\n",
      "note_on channel=5 note=57 velocity=0 time=1\n",
      "note_on channel=5 note=49 velocity=0 time=0\n",
      "note_on channel=5 note=52 velocity=0 time=1\n",
      "note_on channel=5 note=49 velocity=96 time=1\n",
      "note_on channel=5 note=52 velocity=96 time=1\n",
      "note_on channel=5 note=57 velocity=96 time=1\n",
      "note_on channel=5 note=61 velocity=86 time=2\n",
      "note_on channel=5 note=49 velocity=0 time=6\n",
      "note_on channel=5 note=52 velocity=0 time=1\n",
      "note_on channel=5 note=57 velocity=0 time=1\n",
      "note_on channel=5 note=61 velocity=0 time=2\n",
      "note_on channel=5 note=49 velocity=116 time=44\n",
      "note_on channel=5 note=52 velocity=116 time=1\n",
      "note_on channel=5 note=61 velocity=106 time=3\n",
      "note_on channel=5 note=57 velocity=116 time=0\n",
      "note_on channel=5 note=49 velocity=0 time=54\n",
      "note_on channel=5 note=52 velocity=0 time=1\n",
      "note_on channel=5 note=61 velocity=0 time=1\n",
      "note_on channel=5 note=57 velocity=0 time=0\n",
      "note_on channel=5 note=49 velocity=116 time=2\n",
      "note_on channel=5 note=54 velocity=116 time=1\n",
      "note_on channel=5 note=61 velocity=106 time=3\n",
      "note_on channel=5 note=57 velocity=116 time=0\n",
      "note_on channel=5 note=54 velocity=0 time=49\n",
      "note_on channel=5 note=61 velocity=0 time=1\n",
      "note_on channel=5 note=49 velocity=0 time=2\n",
      "note_on channel=5 note=57 velocity=0 time=0\n",
      "note_on channel=5 note=49 velocity=103 time=4\n",
      "note_on channel=5 note=54 velocity=103 time=1\n",
      "note_on channel=5 note=57 velocity=103 time=1\n",
      "note_on channel=5 note=61 velocity=94 time=2\n",
      "note_on channel=5 note=61 velocity=0 time=53\n",
      "note_on channel=5 note=54 velocity=0 time=0\n",
      "note_on channel=5 note=57 velocity=0 time=1\n",
      "note_on channel=5 note=49 velocity=0 time=0\n",
      "note_on channel=5 note=49 velocity=96 time=2\n",
      "note_on channel=5 note=54 velocity=96 time=1\n",
      "note_on channel=5 note=57 velocity=96 time=1\n",
      "note_on channel=5 note=61 velocity=86 time=2\n",
      "note_on channel=5 note=57 velocity=0 time=6\n",
      "note_on channel=5 note=49 velocity=0 time=0\n",
      "note_on channel=5 note=54 velocity=0 time=1\n",
      "note_on channel=5 note=61 velocity=0 time=3\n",
      "note_on channel=5 note=49 velocity=116 time=44\n",
      "note_on channel=5 note=54 velocity=116 time=1\n",
      "note_on channel=5 note=57 velocity=116 time=3\n",
      "note_on channel=5 note=61 velocity=106 time=0\n",
      "note_on channel=5 note=54 velocity=0 time=54\n",
      "note_on channel=5 note=49 velocity=0 time=0\n",
      "note_on channel=5 note=61 velocity=0 time=1\n",
      "note_on channel=5 note=57 velocity=0 time=1\n",
      "note_on channel=5 note=49 velocity=116 time=2\n",
      "note_on channel=5 note=54 velocity=116 time=1\n",
      "note_on channel=5 note=57 velocity=116 time=3\n",
      "note_on channel=5 note=61 velocity=106 time=0\n",
      "note_on channel=5 note=61 velocity=0 time=50\n",
      "note_on channel=5 note=57 velocity=0 time=0\n",
      "note_on channel=5 note=49 velocity=0 time=2\n",
      "note_on channel=5 note=54 velocity=0 time=1\n",
      "note_on channel=5 note=49 velocity=103 time=3\n",
      "note_on channel=5 note=54 velocity=103 time=1\n",
      "note_on channel=5 note=57 velocity=103 time=1\n",
      "note_on channel=5 note=62 velocity=94 time=2\n",
      "note_on channel=5 note=62 velocity=0 time=53\n",
      "note_on channel=5 note=57 velocity=0 time=1\n",
      "note_on channel=5 note=49 velocity=0 time=0\n",
      "note_on channel=5 note=54 velocity=0 time=1\n",
      "note_on channel=5 note=49 velocity=96 time=1\n",
      "note_on channel=5 note=54 velocity=96 time=1\n",
      "note_on channel=5 note=57 velocity=96 time=1\n",
      "note_on channel=5 note=61 velocity=86 time=2\n",
      "note_on channel=5 note=49 velocity=0 time=6\n",
      "note_on channel=5 note=54 velocity=0 time=1\n",
      "note_on channel=5 note=57 velocity=0 time=1\n",
      "note_on channel=5 note=61 velocity=0 time=2\n",
      "note_on channel=5 note=49 velocity=116 time=44\n",
      "note_on channel=5 note=54 velocity=116 time=1\n",
      "note_on channel=5 note=61 velocity=106 time=3\n",
      "note_on channel=5 note=57 velocity=116 time=0\n",
      "note_on channel=5 note=49 velocity=0 time=54\n",
      "note_on channel=5 note=54 velocity=0 time=1\n",
      "note_on channel=5 note=61 velocity=0 time=1\n",
      "note_on channel=5 note=57 velocity=0 time=0\n",
      "note_on channel=5 note=50 velocity=116 time=2\n",
      "note_on channel=5 note=54 velocity=116 time=1\n",
      "note_on channel=5 note=57 velocity=116 time=3\n",
      "note_on channel=5 note=62 velocity=106 time=0\n",
      "note_on channel=5 note=62 velocity=0 time=50\n",
      "note_on channel=5 note=57 velocity=0 time=0\n",
      "note_on channel=5 note=50 velocity=0 time=2\n",
      "note_on channel=5 note=54 velocity=0 time=1\n",
      "note_on channel=5 note=50 velocity=103 time=3\n",
      "note_on channel=5 note=54 velocity=103 time=1\n",
      "note_on channel=5 note=57 velocity=103 time=1\n",
      "note_on channel=5 note=62 velocity=94 time=2\n",
      "note_on channel=5 note=62 velocity=0 time=53\n",
      "note_on channel=5 note=57 velocity=0 time=1\n",
      "note_on channel=5 note=50 velocity=0 time=0\n",
      "note_on channel=5 note=54 velocity=0 time=1\n",
      "note_on channel=5 note=50 velocity=96 time=1\n",
      "note_on channel=5 note=54 velocity=96 time=1\n",
      "note_on channel=5 note=57 velocity=96 time=1\n",
      "note_on channel=5 note=62 velocity=86 time=2\n",
      "note_on channel=5 note=50 velocity=0 time=6\n",
      "note_on channel=5 note=54 velocity=0 time=1\n",
      "note_on channel=5 note=57 velocity=0 time=1\n",
      "note_on channel=5 note=62 velocity=0 time=2\n",
      "note_on channel=5 note=49 velocity=116 time=44\n",
      "note_on channel=5 note=52 velocity=116 time=1\n",
      "note_on channel=5 note=61 velocity=106 time=3\n",
      "note_on channel=5 note=57 velocity=116 time=0\n",
      "note_on channel=5 note=49 velocity=0 time=54\n",
      "note_on channel=5 note=52 velocity=0 time=1\n",
      "note_on channel=5 note=61 velocity=0 time=1\n",
      "note_on channel=5 note=57 velocity=0 time=0\n",
      "note_on channel=5 note=49 velocity=116 time=2\n",
      "note_on channel=5 note=52 velocity=116 time=1\n",
      "note_on channel=5 note=61 velocity=106 time=3\n",
      "note_on channel=5 note=57 velocity=116 time=0\n",
      "note_on channel=5 note=57 velocity=0 time=50\n",
      "note_on channel=5 note=61 velocity=0 time=0\n",
      "note_on channel=5 note=49 velocity=0 time=2\n",
      "note_on channel=5 note=52 velocity=0 time=1\n",
      "note_on channel=5 note=49 velocity=103 time=3\n",
      "note_on channel=5 note=52 velocity=103 time=1\n",
      "note_on channel=5 note=57 velocity=103 time=1\n",
      "note_on channel=5 note=61 velocity=94 time=2\n",
      "note_on channel=5 note=61 velocity=0 time=53\n",
      "note_on channel=5 note=57 velocity=0 time=1\n",
      "note_on channel=5 note=49 velocity=0 time=0\n",
      "note_on channel=5 note=52 velocity=0 time=1\n",
      "note_on channel=5 note=49 velocity=96 time=1\n",
      "note_on channel=5 note=52 velocity=96 time=1\n",
      "note_on channel=5 note=57 velocity=96 time=1\n",
      "note_on channel=5 note=61 velocity=86 time=2\n",
      "note_on channel=5 note=49 velocity=0 time=6\n",
      "note_on channel=5 note=52 velocity=0 time=1\n",
      "note_on channel=5 note=57 velocity=0 time=1\n",
      "note_on channel=5 note=61 velocity=0 time=2\n",
      "note_on channel=5 note=49 velocity=116 time=44\n",
      "note_on channel=5 note=52 velocity=116 time=1\n",
      "note_on channel=5 note=61 velocity=106 time=3\n",
      "note_on channel=5 note=57 velocity=116 time=0\n",
      "note_on channel=5 note=45 velocity=127 time=48\n",
      "note_on channel=5 note=49 velocity=0 time=6\n",
      "note_on channel=5 note=49 velocity=127 time=0\n",
      "note_on channel=5 note=52 velocity=0 time=1\n",
      "note_on channel=5 note=57 velocity=0 time=1\n",
      "note_on channel=5 note=61 velocity=0 time=0\n",
      "note_on channel=5 note=54 velocity=127 time=3\n",
      "note_on channel=5 note=57 velocity=127 time=5\n",
      "note_on channel=5 note=61 velocity=122 time=5\n",
      "note_on channel=5 note=45 velocity=0 time=35\n",
      "note_on channel=5 note=49 velocity=0 time=6\n",
      "note_on channel=5 note=54 velocity=0 time=1\n",
      "note_on channel=5 note=57 velocity=0 time=5\n",
      "note_on channel=5 note=49 velocity=103 time=2\n",
      "note_on channel=5 note=61 velocity=0 time=1\n",
      "note_on channel=5 note=54 velocity=103 time=0\n",
      "note_on channel=5 note=57 velocity=103 time=1\n",
      "note_on channel=5 note=61 velocity=94 time=2\n",
      "note_on channel=5 note=61 velocity=0 time=53\n",
      "note_on channel=5 note=54 velocity=0 time=0\n",
      "note_on channel=5 note=57 velocity=0 time=1\n",
      "note_on channel=5 note=49 velocity=0 time=0\n",
      "note_on channel=5 note=49 velocity=96 time=2\n",
      "note_on channel=5 note=54 velocity=96 time=1\n",
      "note_on channel=5 note=57 velocity=96 time=1\n",
      "note_on channel=5 note=61 velocity=86 time=2\n",
      "note_on channel=5 note=57 velocity=0 time=6\n",
      "note_on channel=5 note=49 velocity=0 time=0\n",
      "note_on channel=5 note=54 velocity=0 time=1\n",
      "note_on channel=5 note=61 velocity=0 time=3\n",
      "note_on channel=5 note=49 velocity=116 time=44\n",
      "note_on channel=5 note=54 velocity=116 time=1\n",
      "note_on channel=5 note=57 velocity=116 time=3\n",
      "note_on channel=5 note=61 velocity=106 time=0\n",
      "note_on channel=5 note=54 velocity=0 time=54\n",
      "note_on channel=5 note=49 velocity=0 time=0\n",
      "note_on channel=5 note=61 velocity=0 time=1\n",
      "note_on channel=5 note=57 velocity=0 time=1\n",
      "note_on channel=5 note=49 velocity=116 time=2\n",
      "note_on channel=5 note=54 velocity=116 time=1\n",
      "note_on channel=5 note=57 velocity=116 time=3\n",
      "note_on channel=5 note=61 velocity=106 time=0\n",
      "note_on channel=5 note=61 velocity=0 time=50\n",
      "note_on channel=5 note=57 velocity=0 time=0\n",
      "note_on channel=5 note=49 velocity=0 time=2\n",
      "note_on channel=5 note=54 velocity=0 time=1\n",
      "note_on channel=5 note=49 velocity=103 time=3\n",
      "note_on channel=5 note=54 velocity=103 time=1\n",
      "note_on channel=5 note=57 velocity=103 time=1\n",
      "note_on channel=5 note=62 velocity=94 time=2\n",
      "note_on channel=5 note=62 velocity=0 time=53\n",
      "note_on channel=5 note=57 velocity=0 time=1\n",
      "note_on channel=5 note=49 velocity=0 time=0\n",
      "note_on channel=5 note=54 velocity=0 time=1\n",
      "note_on channel=5 note=49 velocity=96 time=1\n",
      "note_on channel=5 note=54 velocity=96 time=1\n",
      "note_on channel=5 note=57 velocity=96 time=1\n",
      "note_on channel=5 note=61 velocity=86 time=2\n",
      "note_on channel=5 note=49 velocity=0 time=6\n",
      "note_on channel=5 note=54 velocity=0 time=1\n",
      "note_on channel=5 note=57 velocity=0 time=1\n",
      "note_on channel=5 note=61 velocity=0 time=2\n",
      "note_on channel=5 note=49 velocity=116 time=44\n",
      "note_on channel=5 note=54 velocity=116 time=1\n",
      "note_on channel=5 note=61 velocity=106 time=3\n",
      "note_on channel=5 note=57 velocity=116 time=0\n",
      "note_on channel=5 note=49 velocity=0 time=54\n",
      "note_on channel=5 note=54 velocity=0 time=1\n",
      "note_on channel=5 note=61 velocity=0 time=1\n",
      "note_on channel=5 note=57 velocity=0 time=0\n",
      "note_on channel=5 note=50 velocity=116 time=2\n",
      "note_on channel=5 note=54 velocity=116 time=1\n",
      "note_on channel=5 note=57 velocity=116 time=3\n",
      "note_on channel=5 note=62 velocity=106 time=0\n",
      "note_on channel=5 note=62 velocity=0 time=50\n",
      "note_on channel=5 note=57 velocity=0 time=0\n",
      "note_on channel=5 note=50 velocity=0 time=2\n",
      "note_on channel=5 note=54 velocity=0 time=1\n",
      "note_on channel=5 note=50 velocity=103 time=3\n",
      "note_on channel=5 note=54 velocity=103 time=1\n",
      "note_on channel=5 note=57 velocity=103 time=1\n",
      "note_on channel=5 note=62 velocity=94 time=2\n",
      "note_on channel=5 note=62 velocity=0 time=53\n",
      "note_on channel=5 note=57 velocity=0 time=1\n",
      "note_on channel=5 note=50 velocity=0 time=0\n",
      "note_on channel=5 note=54 velocity=0 time=1\n",
      "note_on channel=5 note=50 velocity=96 time=1\n",
      "note_on channel=5 note=54 velocity=96 time=1\n",
      "note_on channel=5 note=57 velocity=96 time=1\n",
      "note_on channel=5 note=62 velocity=86 time=2\n",
      "note_on channel=5 note=50 velocity=0 time=6\n",
      "note_on channel=5 note=54 velocity=0 time=1\n",
      "note_on channel=5 note=57 velocity=0 time=1\n",
      "note_on channel=5 note=62 velocity=0 time=2\n",
      "note_on channel=5 note=49 velocity=116 time=44\n",
      "note_on channel=5 note=52 velocity=116 time=1\n",
      "note_on channel=5 note=61 velocity=106 time=3\n",
      "note_on channel=5 note=57 velocity=116 time=0\n",
      "note_on channel=5 note=49 velocity=0 time=54\n",
      "note_on channel=5 note=52 velocity=0 time=1\n",
      "note_on channel=5 note=61 velocity=0 time=1\n",
      "note_on channel=5 note=57 velocity=0 time=0\n",
      "note_on channel=5 note=49 velocity=116 time=2\n",
      "note_on channel=5 note=52 velocity=116 time=1\n",
      "note_on channel=5 note=61 velocity=106 time=3\n",
      "note_on channel=5 note=57 velocity=116 time=0\n",
      "note_on channel=5 note=57 velocity=0 time=50\n",
      "note_on channel=5 note=61 velocity=0 time=0\n",
      "note_on channel=5 note=49 velocity=0 time=2\n",
      "note_on channel=5 note=52 velocity=0 time=1\n",
      "note_on channel=5 note=49 velocity=103 time=3\n",
      "note_on channel=5 note=52 velocity=103 time=1\n",
      "note_on channel=5 note=57 velocity=103 time=1\n",
      "note_on channel=5 note=61 velocity=94 time=2\n",
      "note_on channel=5 note=61 velocity=0 time=53\n",
      "note_on channel=5 note=57 velocity=0 time=1\n",
      "note_on channel=5 note=49 velocity=0 time=0\n",
      "note_on channel=5 note=52 velocity=0 time=1\n",
      "note_on channel=5 note=49 velocity=96 time=1\n",
      "note_on channel=5 note=52 velocity=96 time=1\n",
      "note_on channel=5 note=57 velocity=96 time=1\n",
      "note_on channel=5 note=61 velocity=86 time=2\n",
      "note_on channel=5 note=49 velocity=0 time=6\n",
      "note_on channel=5 note=52 velocity=0 time=1\n",
      "note_on channel=5 note=57 velocity=0 time=1\n",
      "note_on channel=5 note=61 velocity=0 time=2\n",
      "note_on channel=5 note=49 velocity=116 time=44\n",
      "note_on channel=5 note=52 velocity=116 time=1\n",
      "note_on channel=5 note=61 velocity=106 time=3\n",
      "note_on channel=5 note=57 velocity=116 time=0\n",
      "note_on channel=5 note=49 velocity=0 time=54\n",
      "note_on channel=5 note=52 velocity=0 time=1\n",
      "note_on channel=5 note=61 velocity=0 time=1\n",
      "note_on channel=5 note=57 velocity=0 time=0\n",
      "note_on channel=5 note=49 velocity=116 time=2\n",
      "note_on channel=5 note=54 velocity=116 time=1\n",
      "note_on channel=5 note=61 velocity=106 time=3\n",
      "note_on channel=5 note=57 velocity=116 time=0\n",
      "note_on channel=5 note=54 velocity=0 time=49\n",
      "note_on channel=5 note=61 velocity=0 time=1\n",
      "note_on channel=5 note=49 velocity=0 time=2\n",
      "note_on channel=5 note=57 velocity=0 time=0\n",
      "note_on channel=5 note=49 velocity=103 time=4\n",
      "note_on channel=5 note=54 velocity=103 time=1\n",
      "note_on channel=5 note=57 velocity=103 time=1\n",
      "note_on channel=5 note=61 velocity=94 time=2\n",
      "note_on channel=5 note=61 velocity=0 time=53\n",
      "note_on channel=5 note=54 velocity=0 time=0\n",
      "note_on channel=5 note=57 velocity=0 time=1\n",
      "note_on channel=5 note=49 velocity=0 time=0\n",
      "note_on channel=5 note=49 velocity=96 time=2\n",
      "note_on channel=5 note=54 velocity=96 time=1\n",
      "note_on channel=5 note=57 velocity=96 time=1\n",
      "note_on channel=5 note=61 velocity=86 time=2\n",
      "note_on channel=5 note=57 velocity=0 time=6\n",
      "note_on channel=5 note=49 velocity=0 time=0\n",
      "note_on channel=5 note=54 velocity=0 time=1\n",
      "note_on channel=5 note=61 velocity=0 time=3\n",
      "note_on channel=5 note=49 velocity=116 time=44\n",
      "note_on channel=5 note=54 velocity=116 time=1\n",
      "note_on channel=5 note=57 velocity=116 time=3\n",
      "note_on channel=5 note=61 velocity=106 time=0\n",
      "note_on channel=5 note=54 velocity=0 time=54\n",
      "note_on channel=5 note=49 velocity=0 time=0\n",
      "note_on channel=5 note=61 velocity=0 time=1\n",
      "note_on channel=5 note=57 velocity=0 time=1\n",
      "note_on channel=5 note=49 velocity=116 time=2\n",
      "note_on channel=5 note=54 velocity=116 time=1\n",
      "note_on channel=5 note=57 velocity=116 time=3\n",
      "note_on channel=5 note=61 velocity=106 time=0\n",
      "note_on channel=5 note=61 velocity=0 time=50\n",
      "note_on channel=5 note=57 velocity=0 time=0\n",
      "note_on channel=5 note=49 velocity=0 time=2\n",
      "note_on channel=5 note=54 velocity=0 time=1\n",
      "note_on channel=5 note=49 velocity=103 time=3\n",
      "note_on channel=5 note=54 velocity=103 time=1\n",
      "note_on channel=5 note=57 velocity=103 time=1\n",
      "note_on channel=5 note=62 velocity=94 time=2\n",
      "note_on channel=5 note=62 velocity=0 time=53\n",
      "note_on channel=5 note=57 velocity=0 time=1\n",
      "note_on channel=5 note=49 velocity=0 time=0\n",
      "note_on channel=5 note=54 velocity=0 time=1\n",
      "note_on channel=5 note=49 velocity=96 time=1\n",
      "note_on channel=5 note=54 velocity=96 time=1\n",
      "note_on channel=5 note=57 velocity=96 time=1\n",
      "note_on channel=5 note=61 velocity=86 time=2\n",
      "note_on channel=5 note=49 velocity=0 time=6\n",
      "note_on channel=5 note=54 velocity=0 time=1\n",
      "note_on channel=5 note=57 velocity=0 time=1\n",
      "note_on channel=5 note=61 velocity=0 time=2\n",
      "note_on channel=5 note=49 velocity=116 time=44\n",
      "note_on channel=5 note=54 velocity=116 time=1\n",
      "note_on channel=5 note=61 velocity=106 time=3\n",
      "note_on channel=5 note=57 velocity=116 time=0\n",
      "note_on channel=5 note=49 velocity=0 time=54\n",
      "note_on channel=5 note=54 velocity=0 time=1\n",
      "note_on channel=5 note=61 velocity=0 time=1\n",
      "note_on channel=5 note=57 velocity=0 time=0\n",
      "note_on channel=5 note=52 velocity=116 time=0\n",
      "note_on channel=5 note=56 velocity=116 time=3\n",
      "note_on channel=5 note=59 velocity=116 time=3\n",
      "note_on channel=5 note=64 velocity=106 time=3\n",
      "note_on channel=5 note=52 velocity=0 time=170\n",
      "note_on channel=5 note=52 velocity=113 time=1\n",
      "note_on channel=5 note=56 velocity=0 time=2\n",
      "note_on channel=5 note=57 velocity=113 time=1\n",
      "note_on channel=5 note=59 velocity=0 time=2\n",
      "note_on channel=5 note=61 velocity=113 time=1\n",
      "note_on channel=5 note=64 velocity=0 time=2\n",
      "note_on channel=5 note=64 velocity=94 time=1\n",
      "note_on channel=5 note=52 velocity=0 time=290\n",
      "note_on channel=5 note=57 velocity=0 time=3\n",
      "note_on channel=5 note=50 velocity=116 time=0\n",
      "note_on channel=5 note=54 velocity=116 time=1\n",
      "note_on channel=5 note=61 velocity=0 time=2\n",
      "note_on channel=5 note=62 velocity=106 time=1\n",
      "note_on channel=5 note=57 velocity=116 time=0\n",
      "note_on channel=5 note=64 velocity=0 time=2\n",
      "note_on channel=5 note=54 velocity=0 time=47\n",
      "note_on channel=5 note=62 velocity=0 time=1\n",
      "note_on channel=5 note=50 velocity=0 time=2\n",
      "note_on channel=5 note=57 velocity=0 time=0\n",
      "note_on channel=5 note=50 velocity=103 time=4\n",
      "note_on channel=5 note=54 velocity=103 time=1\n",
      "note_on channel=5 note=57 velocity=103 time=1\n",
      "note_on channel=5 note=62 velocity=94 time=2\n",
      "note_on channel=5 note=62 velocity=0 time=53\n",
      "note_on channel=5 note=54 velocity=0 time=0\n",
      "note_on channel=5 note=57 velocity=0 time=1\n",
      "note_on channel=5 note=50 velocity=0 time=0\n",
      "note_on channel=5 note=50 velocity=96 time=2\n",
      "note_on channel=5 note=54 velocity=96 time=1\n",
      "note_on channel=5 note=57 velocity=96 time=1\n",
      "note_on channel=5 note=62 velocity=86 time=2\n",
      "note_on channel=5 note=57 velocity=0 time=6\n",
      "note_on channel=5 note=50 velocity=0 time=0\n",
      "note_on channel=5 note=54 velocity=0 time=1\n",
      "note_on channel=5 note=62 velocity=0 time=3\n",
      "note_on channel=5 note=50 velocity=116 time=44\n",
      "note_on channel=5 note=54 velocity=116 time=1\n",
      "note_on channel=5 note=57 velocity=116 time=3\n",
      "note_on channel=5 note=62 velocity=106 time=0\n",
      "note_on channel=5 note=54 velocity=0 time=54\n",
      "note_on channel=5 note=50 velocity=0 time=0\n",
      "note_on channel=5 note=62 velocity=0 time=1\n",
      "note_on channel=5 note=57 velocity=0 time=1\n",
      "note_on channel=5 note=50 velocity=116 time=2\n",
      "note_on channel=5 note=54 velocity=116 time=1\n",
      "note_on channel=5 note=57 velocity=116 time=3\n",
      "note_on channel=5 note=62 velocity=106 time=0\n",
      "note_on channel=5 note=62 velocity=0 time=50\n",
      "note_on channel=5 note=57 velocity=0 time=0\n",
      "note_on channel=5 note=50 velocity=0 time=2\n",
      "note_on channel=5 note=54 velocity=0 time=1\n",
      "note_on channel=5 note=50 velocity=103 time=3\n",
      "note_on channel=5 note=54 velocity=103 time=1\n",
      "note_on channel=5 note=57 velocity=103 time=1\n",
      "note_on channel=5 note=62 velocity=94 time=2\n",
      "note_on channel=5 note=62 velocity=0 time=53\n",
      "note_on channel=5 note=57 velocity=0 time=1\n",
      "note_on channel=5 note=50 velocity=0 time=0\n",
      "note_on channel=5 note=54 velocity=0 time=1\n",
      "note_on channel=5 note=50 velocity=96 time=1\n",
      "note_on channel=5 note=54 velocity=96 time=1\n",
      "note_on channel=5 note=57 velocity=96 time=1\n",
      "note_on channel=5 note=62 velocity=86 time=2\n",
      "note_on channel=5 note=50 velocity=0 time=6\n",
      "note_on channel=5 note=54 velocity=0 time=1\n",
      "note_on channel=5 note=57 velocity=0 time=1\n",
      "note_on channel=5 note=62 velocity=0 time=2\n",
      "note_on channel=5 note=50 velocity=116 time=44\n",
      "note_on channel=5 note=54 velocity=116 time=1\n",
      "note_on channel=5 note=62 velocity=106 time=3\n",
      "note_on channel=5 note=57 velocity=116 time=0\n",
      "note_on channel=5 note=50 velocity=0 time=54\n",
      "note_on channel=5 note=54 velocity=0 time=1\n",
      "note_on channel=5 note=62 velocity=0 time=1\n",
      "note_on channel=5 note=57 velocity=0 time=0\n",
      "note_on channel=5 note=52 velocity=116 time=2\n",
      "note_on channel=5 note=56 velocity=116 time=1\n",
      "note_on channel=5 note=59 velocity=116 time=3\n",
      "note_on channel=5 note=64 velocity=106 time=0\n",
      "note_on channel=5 note=64 velocity=0 time=50\n",
      "note_on channel=5 note=59 velocity=0 time=0\n",
      "note_on channel=5 note=52 velocity=0 time=2\n",
      "note_on channel=5 note=56 velocity=0 time=1\n",
      "note_on channel=5 note=52 velocity=103 time=3\n",
      "note_on channel=5 note=56 velocity=103 time=1\n",
      "note_on channel=5 note=59 velocity=103 time=1\n",
      "note_on channel=5 note=64 velocity=94 time=2\n",
      "note_on channel=5 note=64 velocity=0 time=53\n",
      "note_on channel=5 note=59 velocity=0 time=1\n",
      "note_on channel=5 note=52 velocity=0 time=0\n",
      "note_on channel=5 note=56 velocity=0 time=1\n",
      "note_on channel=5 note=52 velocity=96 time=1\n",
      "note_on channel=5 note=56 velocity=96 time=1\n",
      "note_on channel=5 note=59 velocity=96 time=1\n",
      "note_on channel=5 note=64 velocity=86 time=2\n",
      "note_on channel=5 note=52 velocity=0 time=6\n",
      "note_on channel=5 note=56 velocity=0 time=1\n",
      "note_on channel=5 note=59 velocity=0 time=1\n",
      "note_on channel=5 note=64 velocity=0 time=2\n",
      "note_on channel=5 note=52 velocity=116 time=44\n",
      "note_on channel=5 note=56 velocity=116 time=1\n",
      "note_on channel=5 note=64 velocity=106 time=3\n",
      "note_on channel=5 note=59 velocity=116 time=0\n",
      "note_on channel=5 note=52 velocity=0 time=54\n",
      "note_on channel=5 note=56 velocity=0 time=1\n",
      "note_on channel=5 note=64 velocity=0 time=1\n",
      "note_on channel=5 note=59 velocity=0 time=0\n",
      "note_on channel=5 note=49 velocity=116 time=2\n",
      "note_on channel=5 note=54 velocity=116 time=1\n",
      "note_on channel=5 note=61 velocity=106 time=3\n",
      "note_on channel=5 note=57 velocity=116 time=0\n",
      "note_on channel=5 note=57 velocity=0 time=50\n",
      "note_on channel=5 note=61 velocity=0 time=0\n",
      "note_on channel=5 note=49 velocity=0 time=2\n",
      "note_on channel=5 note=54 velocity=0 time=1\n",
      "note_on channel=5 note=49 velocity=103 time=3\n",
      "note_on channel=5 note=54 velocity=103 time=1\n",
      "note_on channel=5 note=57 velocity=103 time=1\n",
      "note_on channel=5 note=61 velocity=94 time=2\n",
      "note_on channel=5 note=61 velocity=0 time=53\n",
      "note_on channel=5 note=57 velocity=0 time=1\n",
      "note_on channel=5 note=49 velocity=0 time=0\n",
      "note_on channel=5 note=54 velocity=0 time=1\n",
      "note_on channel=5 note=49 velocity=96 time=1\n",
      "note_on channel=5 note=54 velocity=96 time=1\n",
      "note_on channel=5 note=57 velocity=96 time=1\n",
      "note_on channel=5 note=61 velocity=86 time=2\n",
      "note_on channel=5 note=49 velocity=0 time=6\n",
      "note_on channel=5 note=54 velocity=0 time=1\n",
      "note_on channel=5 note=57 velocity=0 time=1\n",
      "note_on channel=5 note=61 velocity=0 time=2\n",
      "note_on channel=5 note=49 velocity=116 time=44\n",
      "note_on channel=5 note=54 velocity=116 time=1\n",
      "note_on channel=5 note=61 velocity=106 time=3\n",
      "note_on channel=5 note=57 velocity=116 time=0\n",
      "note_on channel=5 note=49 velocity=0 time=54\n",
      "note_on channel=5 note=54 velocity=0 time=1\n",
      "note_on channel=5 note=61 velocity=0 time=1\n",
      "note_on channel=5 note=57 velocity=0 time=0\n",
      "note_on channel=5 note=50 velocity=116 time=2\n",
      "note_on channel=5 note=54 velocity=116 time=1\n",
      "note_on channel=5 note=62 velocity=106 time=3\n",
      "note_on channel=5 note=57 velocity=116 time=0\n",
      "note_on channel=5 note=54 velocity=0 time=49\n",
      "note_on channel=5 note=62 velocity=0 time=1\n",
      "note_on channel=5 note=50 velocity=0 time=2\n",
      "note_on channel=5 note=57 velocity=0 time=0\n",
      "note_on channel=5 note=50 velocity=103 time=4\n",
      "note_on channel=5 note=54 velocity=103 time=1\n",
      "note_on channel=5 note=57 velocity=103 time=1\n",
      "note_on channel=5 note=62 velocity=94 time=2\n",
      "note_on channel=5 note=62 velocity=0 time=53\n",
      "note_on channel=5 note=54 velocity=0 time=0\n",
      "note_on channel=5 note=57 velocity=0 time=1\n",
      "note_on channel=5 note=50 velocity=0 time=0\n",
      "note_on channel=5 note=50 velocity=96 time=2\n",
      "note_on channel=5 note=54 velocity=96 time=1\n",
      "note_on channel=5 note=57 velocity=96 time=1\n",
      "note_on channel=5 note=62 velocity=86 time=2\n",
      "note_on channel=5 note=57 velocity=0 time=6\n",
      "note_on channel=5 note=50 velocity=0 time=0\n",
      "note_on channel=5 note=54 velocity=0 time=1\n",
      "note_on channel=5 note=62 velocity=0 time=3\n",
      "note_on channel=5 note=50 velocity=116 time=44\n",
      "note_on channel=5 note=54 velocity=116 time=1\n",
      "note_on channel=5 note=57 velocity=116 time=3\n",
      "note_on channel=5 note=62 velocity=106 time=0\n",
      "note_on channel=5 note=54 velocity=0 time=54\n",
      "note_on channel=5 note=50 velocity=0 time=0\n",
      "note_on channel=5 note=62 velocity=0 time=1\n",
      "note_on channel=5 note=57 velocity=0 time=1\n",
      "note_on channel=5 note=50 velocity=116 time=2\n",
      "note_on channel=5 note=54 velocity=116 time=1\n",
      "note_on channel=5 note=57 velocity=116 time=3\n",
      "note_on channel=5 note=62 velocity=106 time=0\n",
      "note_on channel=5 note=62 velocity=0 time=50\n",
      "note_on channel=5 note=57 velocity=0 time=0\n",
      "note_on channel=5 note=50 velocity=0 time=2\n",
      "note_on channel=5 note=54 velocity=0 time=1\n",
      "note_on channel=5 note=50 velocity=103 time=3\n",
      "note_on channel=5 note=54 velocity=103 time=1\n",
      "note_on channel=5 note=57 velocity=103 time=1\n",
      "note_on channel=5 note=62 velocity=94 time=2\n",
      "note_on channel=5 note=62 velocity=0 time=53\n",
      "note_on channel=5 note=57 velocity=0 time=1\n",
      "note_on channel=5 note=50 velocity=0 time=0\n",
      "note_on channel=5 note=54 velocity=0 time=1\n",
      "note_on channel=5 note=50 velocity=96 time=1\n",
      "note_on channel=5 note=54 velocity=96 time=1\n",
      "note_on channel=5 note=57 velocity=96 time=1\n",
      "note_on channel=5 note=62 velocity=86 time=2\n",
      "note_on channel=5 note=50 velocity=0 time=6\n",
      "note_on channel=5 note=54 velocity=0 time=1\n",
      "note_on channel=5 note=57 velocity=0 time=1\n",
      "note_on channel=5 note=62 velocity=0 time=2\n",
      "note_on channel=5 note=50 velocity=116 time=44\n",
      "note_on channel=5 note=54 velocity=116 time=1\n",
      "note_on channel=5 note=62 velocity=106 time=3\n",
      "note_on channel=5 note=57 velocity=116 time=0\n",
      "note_on channel=5 note=50 velocity=0 time=54\n",
      "note_on channel=5 note=54 velocity=0 time=1\n",
      "note_on channel=5 note=62 velocity=0 time=1\n",
      "note_on channel=5 note=57 velocity=0 time=0\n",
      "note_on channel=5 note=52 velocity=116 time=2\n",
      "note_on channel=5 note=56 velocity=116 time=1\n",
      "note_on channel=5 note=64 velocity=106 time=3\n",
      "note_on channel=5 note=59 velocity=116 time=0\n",
      "note_on channel=5 note=59 velocity=0 time=50\n",
      "note_on channel=5 note=64 velocity=0 time=0\n",
      "note_on channel=5 note=52 velocity=0 time=2\n",
      "note_on channel=5 note=56 velocity=0 time=1\n",
      "note_on channel=5 note=52 velocity=103 time=3\n",
      "note_on channel=5 note=56 velocity=103 time=1\n",
      "note_on channel=5 note=59 velocity=103 time=1\n",
      "note_on channel=5 note=64 velocity=94 time=2\n",
      "note_on channel=5 note=64 velocity=0 time=53\n",
      "note_on channel=5 note=59 velocity=0 time=1\n",
      "note_on channel=5 note=52 velocity=0 time=0\n",
      "note_on channel=5 note=56 velocity=0 time=1\n",
      "note_on channel=5 note=52 velocity=96 time=1\n",
      "note_on channel=5 note=56 velocity=96 time=1\n",
      "note_on channel=5 note=59 velocity=96 time=1\n",
      "note_on channel=5 note=64 velocity=86 time=2\n",
      "note_on channel=5 note=52 velocity=0 time=6\n",
      "note_on channel=5 note=56 velocity=0 time=1\n",
      "note_on channel=5 note=59 velocity=0 time=1\n",
      "note_on channel=5 note=64 velocity=0 time=2\n",
      "note_on channel=5 note=52 velocity=116 time=44\n",
      "note_on channel=5 note=56 velocity=116 time=1\n",
      "note_on channel=5 note=59 velocity=116 time=3\n",
      "note_on channel=5 note=64 velocity=106 time=0\n",
      "note_on channel=5 note=52 velocity=0 time=54\n",
      "note_on channel=5 note=56 velocity=0 time=1\n",
      "note_on channel=5 note=59 velocity=0 time=1\n",
      "note_on channel=5 note=64 velocity=0 time=0\n",
      "note_on channel=5 note=49 velocity=116 time=2\n",
      "note_on channel=5 note=54 velocity=116 time=1\n",
      "note_on channel=5 note=61 velocity=106 time=3\n",
      "note_on channel=5 note=57 velocity=116 time=0\n",
      "note_on channel=5 note=57 velocity=0 time=50\n",
      "note_on channel=5 note=61 velocity=0 time=0\n",
      "note_on channel=5 note=49 velocity=0 time=2\n",
      "note_on channel=5 note=54 velocity=0 time=1\n",
      "note_on channel=5 note=49 velocity=103 time=3\n",
      "note_on channel=5 note=54 velocity=103 time=1\n",
      "note_on channel=5 note=57 velocity=103 time=1\n",
      "note_on channel=5 note=61 velocity=94 time=2\n",
      "note_on channel=5 note=61 velocity=0 time=53\n",
      "note_on channel=5 note=57 velocity=0 time=1\n",
      "note_on channel=5 note=49 velocity=0 time=0\n",
      "note_on channel=5 note=54 velocity=0 time=1\n",
      "note_on channel=5 note=49 velocity=96 time=1\n",
      "note_on channel=5 note=54 velocity=96 time=1\n",
      "note_on channel=5 note=57 velocity=96 time=1\n",
      "note_on channel=5 note=61 velocity=86 time=2\n",
      "note_on channel=5 note=49 velocity=0 time=6\n",
      "note_on channel=5 note=54 velocity=0 time=1\n",
      "note_on channel=5 note=57 velocity=0 time=1\n",
      "note_on channel=5 note=61 velocity=0 time=2\n",
      "note_on channel=5 note=49 velocity=116 time=44\n",
      "note_on channel=5 note=54 velocity=116 time=1\n",
      "note_on channel=5 note=61 velocity=106 time=3\n",
      "note_on channel=5 note=57 velocity=116 time=0\n",
      "note_on channel=5 note=49 velocity=0 time=54\n",
      "note_on channel=5 note=54 velocity=0 time=1\n",
      "note_on channel=5 note=61 velocity=0 time=1\n",
      "note_on channel=5 note=57 velocity=0 time=0\n",
      "note_on channel=5 note=50 velocity=116 time=2\n",
      "note_on channel=5 note=54 velocity=116 time=1\n",
      "note_on channel=5 note=62 velocity=106 time=3\n",
      "note_on channel=5 note=57 velocity=116 time=0\n",
      "note_on channel=5 note=54 velocity=0 time=49\n",
      "note_on channel=5 note=62 velocity=0 time=1\n",
      "note_on channel=5 note=50 velocity=0 time=2\n",
      "note_on channel=5 note=57 velocity=0 time=0\n",
      "note_on channel=5 note=50 velocity=103 time=4\n",
      "note_on channel=5 note=54 velocity=103 time=1\n",
      "note_on channel=5 note=57 velocity=103 time=1\n",
      "note_on channel=5 note=62 velocity=94 time=2\n",
      "note_on channel=5 note=62 velocity=0 time=53\n",
      "note_on channel=5 note=54 velocity=0 time=0\n",
      "note_on channel=5 note=57 velocity=0 time=1\n",
      "note_on channel=5 note=50 velocity=0 time=0\n",
      "note_on channel=5 note=50 velocity=96 time=2\n",
      "note_on channel=5 note=54 velocity=96 time=1\n",
      "note_on channel=5 note=57 velocity=96 time=1\n",
      "note_on channel=5 note=62 velocity=86 time=2\n",
      "note_on channel=5 note=57 velocity=0 time=6\n",
      "note_on channel=5 note=50 velocity=0 time=0\n",
      "note_on channel=5 note=54 velocity=0 time=1\n",
      "note_on channel=5 note=62 velocity=0 time=3\n",
      "note_on channel=5 note=50 velocity=116 time=44\n",
      "note_on channel=5 note=54 velocity=116 time=1\n",
      "note_on channel=5 note=57 velocity=116 time=3\n",
      "note_on channel=5 note=62 velocity=106 time=0\n",
      "note_on channel=5 note=54 velocity=0 time=54\n",
      "note_on channel=5 note=50 velocity=0 time=0\n",
      "note_on channel=5 note=62 velocity=0 time=1\n",
      "note_on channel=5 note=57 velocity=0 time=1\n",
      "note_on channel=5 note=50 velocity=116 time=2\n",
      "note_on channel=5 note=54 velocity=116 time=1\n",
      "note_on channel=5 note=57 velocity=116 time=3\n",
      "note_on channel=5 note=62 velocity=106 time=0\n",
      "note_on channel=5 note=62 velocity=0 time=50\n",
      "note_on channel=5 note=57 velocity=0 time=0\n",
      "note_on channel=5 note=50 velocity=0 time=2\n",
      "note_on channel=5 note=54 velocity=0 time=1\n",
      "note_on channel=5 note=50 velocity=103 time=3\n",
      "note_on channel=5 note=54 velocity=103 time=1\n",
      "note_on channel=5 note=57 velocity=103 time=1\n",
      "note_on channel=5 note=62 velocity=94 time=2\n",
      "note_on channel=5 note=62 velocity=0 time=53\n",
      "note_on channel=5 note=57 velocity=0 time=1\n",
      "note_on channel=5 note=50 velocity=0 time=0\n",
      "note_on channel=5 note=54 velocity=0 time=1\n",
      "note_on channel=5 note=50 velocity=96 time=1\n",
      "note_on channel=5 note=54 velocity=96 time=1\n",
      "note_on channel=5 note=57 velocity=96 time=1\n",
      "note_on channel=5 note=62 velocity=86 time=2\n",
      "note_on channel=5 note=50 velocity=0 time=6\n",
      "note_on channel=5 note=54 velocity=0 time=1\n",
      "note_on channel=5 note=57 velocity=0 time=1\n",
      "note_on channel=5 note=62 velocity=0 time=2\n",
      "note_on channel=5 note=50 velocity=116 time=44\n",
      "note_on channel=5 note=54 velocity=116 time=1\n",
      "note_on channel=5 note=62 velocity=106 time=3\n",
      "note_on channel=5 note=57 velocity=116 time=0\n",
      "note_on channel=5 note=50 velocity=0 time=54\n",
      "note_on channel=5 note=54 velocity=0 time=1\n",
      "note_on channel=5 note=62 velocity=0 time=1\n",
      "note_on channel=5 note=57 velocity=0 time=0\n",
      "note_on channel=5 note=52 velocity=116 time=2\n",
      "note_on channel=5 note=56 velocity=116 time=1\n",
      "note_on channel=5 note=59 velocity=116 time=3\n",
      "note_on channel=5 note=64 velocity=106 time=0\n",
      "note_on channel=5 note=64 velocity=0 time=50\n",
      "note_on channel=5 note=59 velocity=0 time=0\n",
      "note_on channel=5 note=52 velocity=0 time=2\n",
      "note_on channel=5 note=56 velocity=0 time=1\n",
      "note_on channel=5 note=52 velocity=103 time=3\n",
      "note_on channel=5 note=56 velocity=103 time=1\n",
      "note_on channel=5 note=59 velocity=103 time=1\n",
      "note_on channel=5 note=64 velocity=94 time=2\n",
      "note_on channel=5 note=64 velocity=0 time=53\n",
      "note_on channel=5 note=59 velocity=0 time=1\n",
      "note_on channel=5 note=52 velocity=0 time=0\n",
      "note_on channel=5 note=56 velocity=0 time=1\n",
      "note_on channel=5 note=52 velocity=96 time=1\n",
      "note_on channel=5 note=56 velocity=96 time=1\n",
      "note_on channel=5 note=59 velocity=96 time=1\n",
      "note_on channel=5 note=64 velocity=86 time=2\n",
      "note_on channel=5 note=52 velocity=0 time=6\n",
      "note_on channel=5 note=56 velocity=0 time=1\n",
      "note_on channel=5 note=59 velocity=0 time=1\n",
      "note_on channel=5 note=64 velocity=0 time=2\n",
      "note_on channel=5 note=52 velocity=116 time=44\n",
      "note_on channel=5 note=56 velocity=116 time=1\n",
      "note_on channel=5 note=64 velocity=106 time=3\n",
      "note_on channel=5 note=59 velocity=116 time=0\n",
      "note_on channel=5 note=52 velocity=0 time=54\n",
      "note_on channel=5 note=56 velocity=0 time=1\n",
      "note_on channel=5 note=64 velocity=0 time=1\n",
      "note_on channel=5 note=59 velocity=0 time=0\n",
      "note_on channel=5 note=49 velocity=116 time=2\n",
      "note_on channel=5 note=52 velocity=116 time=1\n",
      "note_on channel=5 note=61 velocity=106 time=3\n",
      "note_on channel=5 note=57 velocity=116 time=0\n",
      "note_on channel=5 note=57 velocity=0 time=50\n",
      "note_on channel=5 note=61 velocity=0 time=0\n",
      "note_on channel=5 note=49 velocity=0 time=2\n",
      "note_on channel=5 note=52 velocity=0 time=1\n",
      "note_on channel=5 note=49 velocity=103 time=3\n",
      "note_on channel=5 note=52 velocity=103 time=1\n",
      "note_on channel=5 note=57 velocity=103 time=1\n",
      "note_on channel=5 note=61 velocity=94 time=2\n",
      "note_on channel=5 note=61 velocity=0 time=53\n",
      "note_on channel=5 note=57 velocity=0 time=1\n",
      "note_on channel=5 note=49 velocity=0 time=0\n",
      "note_on channel=5 note=52 velocity=0 time=1\n",
      "note_on channel=5 note=49 velocity=96 time=1\n",
      "note_on channel=5 note=52 velocity=96 time=1\n",
      "note_on channel=5 note=57 velocity=96 time=1\n",
      "note_on channel=5 note=61 velocity=86 time=2\n",
      "note_on channel=5 note=49 velocity=0 time=6\n",
      "note_on channel=5 note=52 velocity=0 time=1\n",
      "note_on channel=5 note=57 velocity=0 time=1\n",
      "note_on channel=5 note=61 velocity=0 time=2\n",
      "note_on channel=5 note=49 velocity=116 time=44\n",
      "note_on channel=5 note=52 velocity=116 time=1\n",
      "note_on channel=5 note=61 velocity=106 time=3\n",
      "note_on channel=5 note=57 velocity=116 time=0\n",
      "note_on channel=5 note=49 velocity=0 time=54\n",
      "note_on channel=5 note=52 velocity=0 time=1\n",
      "note_on channel=5 note=61 velocity=0 time=1\n",
      "note_on channel=5 note=57 velocity=0 time=0\n",
      "note_on channel=5 note=49 velocity=116 time=2\n",
      "note_on channel=5 note=54 velocity=116 time=1\n",
      "note_on channel=5 note=61 velocity=106 time=3\n",
      "note_on channel=5 note=57 velocity=116 time=0\n",
      "note_on channel=5 note=54 velocity=0 time=49\n",
      "note_on channel=5 note=61 velocity=0 time=1\n",
      "note_on channel=5 note=49 velocity=0 time=2\n",
      "note_on channel=5 note=57 velocity=0 time=0\n",
      "note_on channel=5 note=49 velocity=103 time=4\n",
      "note_on channel=5 note=54 velocity=103 time=1\n",
      "note_on channel=5 note=57 velocity=103 time=1\n",
      "note_on channel=5 note=61 velocity=94 time=2\n",
      "note_on channel=5 note=61 velocity=0 time=53\n",
      "note_on channel=5 note=54 velocity=0 time=0\n",
      "note_on channel=5 note=57 velocity=0 time=1\n",
      "note_on channel=5 note=49 velocity=0 time=0\n",
      "note_on channel=5 note=49 velocity=96 time=2\n",
      "note_on channel=5 note=54 velocity=96 time=1\n",
      "note_on channel=5 note=57 velocity=96 time=1\n",
      "note_on channel=5 note=61 velocity=86 time=2\n",
      "note_on channel=5 note=57 velocity=0 time=6\n",
      "note_on channel=5 note=49 velocity=0 time=0\n",
      "note_on channel=5 note=54 velocity=0 time=1\n",
      "note_on channel=5 note=61 velocity=0 time=3\n",
      "note_on channel=5 note=49 velocity=116 time=44\n",
      "note_on channel=5 note=54 velocity=116 time=1\n",
      "note_on channel=5 note=57 velocity=116 time=3\n",
      "note_on channel=5 note=61 velocity=106 time=0\n",
      "note_on channel=5 note=54 velocity=0 time=54\n",
      "note_on channel=5 note=49 velocity=0 time=0\n",
      "note_on channel=5 note=61 velocity=0 time=1\n",
      "note_on channel=5 note=57 velocity=0 time=1\n",
      "note_on channel=5 note=49 velocity=116 time=2\n",
      "note_on channel=5 note=54 velocity=116 time=1\n",
      "note_on channel=5 note=57 velocity=116 time=3\n",
      "note_on channel=5 note=61 velocity=106 time=0\n",
      "note_on channel=5 note=61 velocity=0 time=50\n",
      "note_on channel=5 note=57 velocity=0 time=0\n",
      "note_on channel=5 note=49 velocity=0 time=2\n",
      "note_on channel=5 note=54 velocity=0 time=1\n",
      "note_on channel=5 note=49 velocity=103 time=3\n",
      "note_on channel=5 note=54 velocity=103 time=1\n",
      "note_on channel=5 note=57 velocity=103 time=1\n",
      "note_on channel=5 note=62 velocity=94 time=2\n",
      "note_on channel=5 note=62 velocity=0 time=53\n",
      "note_on channel=5 note=57 velocity=0 time=1\n",
      "note_on channel=5 note=49 velocity=0 time=0\n",
      "note_on channel=5 note=54 velocity=0 time=1\n",
      "note_on channel=5 note=49 velocity=96 time=1\n",
      "note_on channel=5 note=54 velocity=96 time=1\n",
      "note_on channel=5 note=57 velocity=96 time=1\n",
      "note_on channel=5 note=61 velocity=86 time=2\n",
      "note_on channel=5 note=49 velocity=0 time=6\n",
      "note_on channel=5 note=54 velocity=0 time=1\n",
      "note_on channel=5 note=57 velocity=0 time=1\n",
      "note_on channel=5 note=61 velocity=0 time=2\n",
      "note_on channel=5 note=49 velocity=116 time=44\n",
      "note_on channel=5 note=54 velocity=116 time=1\n",
      "note_on channel=5 note=61 velocity=106 time=3\n",
      "note_on channel=5 note=57 velocity=116 time=0\n",
      "note_on channel=5 note=49 velocity=0 time=54\n",
      "note_on channel=5 note=54 velocity=0 time=1\n",
      "note_on channel=5 note=61 velocity=0 time=1\n",
      "note_on channel=5 note=57 velocity=0 time=0\n",
      "note_on channel=5 note=52 velocity=116 time=2\n",
      "note_on channel=5 note=56 velocity=116 time=1\n",
      "note_on channel=5 note=64 velocity=106 time=3\n",
      "note_on channel=5 note=59 velocity=116 time=0\n",
      "note_on channel=5 note=59 velocity=0 time=50\n",
      "note_on channel=5 note=64 velocity=0 time=0\n",
      "note_on channel=5 note=52 velocity=0 time=2\n",
      "note_on channel=5 note=56 velocity=0 time=1\n",
      "note_on channel=5 note=52 velocity=103 time=3\n",
      "note_on channel=5 note=56 velocity=103 time=1\n",
      "note_on channel=5 note=59 velocity=103 time=1\n",
      "note_on channel=5 note=64 velocity=94 time=2\n",
      "note_on channel=5 note=64 velocity=0 time=53\n",
      "note_on channel=5 note=59 velocity=0 time=1\n",
      "note_on channel=5 note=52 velocity=0 time=0\n",
      "note_on channel=5 note=56 velocity=0 time=1\n",
      "note_on channel=5 note=52 velocity=96 time=1\n",
      "note_on channel=5 note=56 velocity=96 time=1\n",
      "note_on channel=5 note=59 velocity=96 time=1\n",
      "note_on channel=5 note=64 velocity=86 time=2\n",
      "note_on channel=5 note=52 velocity=0 time=6\n",
      "note_on channel=5 note=56 velocity=0 time=1\n",
      "note_on channel=5 note=59 velocity=0 time=1\n",
      "note_on channel=5 note=64 velocity=0 time=2\n",
      "note_on channel=5 note=52 velocity=116 time=44\n",
      "note_on channel=5 note=56 velocity=116 time=1\n",
      "note_on channel=5 note=64 velocity=106 time=3\n",
      "note_on channel=5 note=59 velocity=116 time=0\n",
      "note_on channel=5 note=52 velocity=0 time=54\n",
      "note_on channel=5 note=56 velocity=0 time=1\n",
      "note_on channel=5 note=64 velocity=0 time=1\n",
      "note_on channel=5 note=59 velocity=0 time=0\n",
      "note_on channel=5 note=49 velocity=116 time=2\n",
      "note_on channel=5 note=52 velocity=116 time=1\n",
      "note_on channel=5 note=61 velocity=106 time=3\n",
      "note_on channel=5 note=57 velocity=116 time=0\n",
      "note_on channel=5 note=57 velocity=0 time=50\n",
      "note_on channel=5 note=61 velocity=0 time=0\n",
      "note_on channel=5 note=49 velocity=0 time=2\n",
      "note_on channel=5 note=52 velocity=0 time=1\n",
      "note_on channel=5 note=49 velocity=103 time=3\n",
      "note_on channel=5 note=52 velocity=103 time=1\n",
      "note_on channel=5 note=57 velocity=103 time=1\n",
      "note_on channel=5 note=61 velocity=94 time=2\n",
      "note_on channel=5 note=61 velocity=0 time=53\n",
      "note_on channel=5 note=57 velocity=0 time=1\n",
      "note_on channel=5 note=49 velocity=0 time=0\n",
      "note_on channel=5 note=52 velocity=0 time=1\n",
      "note_on channel=5 note=49 velocity=96 time=1\n",
      "note_on channel=5 note=52 velocity=96 time=1\n",
      "note_on channel=5 note=57 velocity=96 time=1\n",
      "note_on channel=5 note=61 velocity=86 time=2\n",
      "note_on channel=5 note=49 velocity=0 time=6\n",
      "note_on channel=5 note=52 velocity=0 time=1\n",
      "note_on channel=5 note=57 velocity=0 time=1\n",
      "note_on channel=5 note=61 velocity=0 time=2\n",
      "note_on channel=5 note=49 velocity=116 time=44\n",
      "note_on channel=5 note=52 velocity=116 time=1\n",
      "note_on channel=5 note=61 velocity=106 time=3\n",
      "note_on channel=5 note=57 velocity=116 time=0\n",
      "note_on channel=5 note=49 velocity=0 time=54\n",
      "note_on channel=5 note=52 velocity=0 time=1\n",
      "note_on channel=5 note=61 velocity=0 time=1\n",
      "note_on channel=5 note=57 velocity=0 time=0\n",
      "note_on channel=5 note=49 velocity=116 time=2\n",
      "note_on channel=5 note=54 velocity=116 time=1\n",
      "note_on channel=5 note=61 velocity=106 time=3\n",
      "note_on channel=5 note=57 velocity=116 time=0\n",
      "note_on channel=5 note=54 velocity=0 time=49\n",
      "note_on channel=5 note=61 velocity=0 time=1\n",
      "note_on channel=5 note=49 velocity=0 time=2\n",
      "note_on channel=5 note=57 velocity=0 time=0\n",
      "note_on channel=5 note=49 velocity=103 time=4\n",
      "note_on channel=5 note=54 velocity=103 time=1\n",
      "note_on channel=5 note=57 velocity=103 time=1\n",
      "note_on channel=5 note=61 velocity=94 time=2\n",
      "note_on channel=5 note=61 velocity=0 time=53\n",
      "note_on channel=5 note=54 velocity=0 time=0\n",
      "note_on channel=5 note=57 velocity=0 time=1\n",
      "note_on channel=5 note=49 velocity=0 time=0\n",
      "note_on channel=5 note=49 velocity=96 time=2\n",
      "note_on channel=5 note=54 velocity=96 time=1\n",
      "note_on channel=5 note=57 velocity=96 time=1\n",
      "note_on channel=5 note=61 velocity=86 time=2\n",
      "note_on channel=5 note=57 velocity=0 time=6\n",
      "note_on channel=5 note=49 velocity=0 time=0\n",
      "note_on channel=5 note=54 velocity=0 time=1\n",
      "note_on channel=5 note=61 velocity=0 time=3\n",
      "note_on channel=5 note=49 velocity=116 time=44\n",
      "note_on channel=5 note=54 velocity=116 time=1\n",
      "note_on channel=5 note=57 velocity=116 time=3\n",
      "note_on channel=5 note=61 velocity=106 time=0\n",
      "note_on channel=5 note=54 velocity=0 time=54\n",
      "note_on channel=5 note=49 velocity=0 time=0\n",
      "note_on channel=5 note=61 velocity=0 time=1\n",
      "note_on channel=5 note=57 velocity=0 time=1\n",
      "note_on channel=5 note=49 velocity=116 time=2\n",
      "note_on channel=5 note=54 velocity=116 time=1\n",
      "note_on channel=5 note=57 velocity=116 time=3\n",
      "note_on channel=5 note=61 velocity=106 time=0\n",
      "note_on channel=5 note=61 velocity=0 time=50\n",
      "note_on channel=5 note=57 velocity=0 time=0\n",
      "note_on channel=5 note=49 velocity=0 time=2\n",
      "note_on channel=5 note=54 velocity=0 time=1\n",
      "note_on channel=5 note=49 velocity=103 time=3\n",
      "note_on channel=5 note=54 velocity=103 time=1\n",
      "note_on channel=5 note=57 velocity=103 time=1\n",
      "note_on channel=5 note=62 velocity=94 time=2\n",
      "note_on channel=5 note=62 velocity=0 time=53\n",
      "note_on channel=5 note=57 velocity=0 time=1\n",
      "note_on channel=5 note=49 velocity=0 time=0\n",
      "note_on channel=5 note=54 velocity=0 time=1\n",
      "note_on channel=5 note=49 velocity=96 time=1\n",
      "note_on channel=5 note=54 velocity=96 time=1\n",
      "note_on channel=5 note=57 velocity=96 time=1\n",
      "note_on channel=5 note=61 velocity=86 time=2\n",
      "note_on channel=5 note=49 velocity=0 time=6\n",
      "note_on channel=5 note=54 velocity=0 time=1\n",
      "note_on channel=5 note=57 velocity=0 time=1\n",
      "note_on channel=5 note=61 velocity=0 time=2\n",
      "note_on channel=5 note=49 velocity=116 time=44\n",
      "note_on channel=5 note=54 velocity=116 time=1\n",
      "note_on channel=5 note=61 velocity=106 time=3\n",
      "note_on channel=5 note=57 velocity=116 time=0\n",
      "note_on channel=5 note=49 velocity=0 time=54\n",
      "note_on channel=5 note=54 velocity=0 time=1\n",
      "note_on channel=5 note=61 velocity=0 time=1\n",
      "note_on channel=5 note=57 velocity=0 time=0\n",
      "note_on channel=5 note=50 velocity=116 time=2\n",
      "note_on channel=5 note=54 velocity=116 time=1\n",
      "note_on channel=5 note=57 velocity=116 time=3\n",
      "note_on channel=5 note=62 velocity=106 time=0\n",
      "note_on channel=5 note=62 velocity=0 time=50\n",
      "note_on channel=5 note=57 velocity=0 time=0\n",
      "note_on channel=5 note=50 velocity=0 time=2\n",
      "note_on channel=5 note=54 velocity=0 time=1\n",
      "note_on channel=5 note=50 velocity=103 time=3\n",
      "note_on channel=5 note=54 velocity=103 time=1\n",
      "note_on channel=5 note=57 velocity=103 time=1\n",
      "note_on channel=5 note=62 velocity=94 time=2\n",
      "note_on channel=5 note=62 velocity=0 time=53\n",
      "note_on channel=5 note=57 velocity=0 time=1\n",
      "note_on channel=5 note=50 velocity=0 time=0\n",
      "note_on channel=5 note=54 velocity=0 time=1\n",
      "note_on channel=5 note=50 velocity=96 time=1\n",
      "note_on channel=5 note=54 velocity=96 time=1\n",
      "note_on channel=5 note=57 velocity=96 time=1\n",
      "note_on channel=5 note=62 velocity=86 time=2\n",
      "note_on channel=5 note=50 velocity=0 time=6\n",
      "note_on channel=5 note=54 velocity=0 time=1\n",
      "note_on channel=5 note=57 velocity=0 time=1\n",
      "note_on channel=5 note=62 velocity=0 time=2\n",
      "note_on channel=5 note=49 velocity=116 time=44\n",
      "note_on channel=5 note=52 velocity=116 time=1\n",
      "note_on channel=5 note=61 velocity=106 time=3\n",
      "note_on channel=5 note=57 velocity=116 time=0\n",
      "note_on channel=5 note=49 velocity=0 time=54\n",
      "note_on channel=5 note=52 velocity=0 time=1\n",
      "note_on channel=5 note=61 velocity=0 time=1\n",
      "note_on channel=5 note=57 velocity=0 time=0\n",
      "note_on channel=5 note=49 velocity=116 time=2\n",
      "note_on channel=5 note=52 velocity=116 time=1\n",
      "note_on channel=5 note=61 velocity=106 time=3\n",
      "note_on channel=5 note=57 velocity=116 time=0\n",
      "note_on channel=5 note=57 velocity=0 time=50\n",
      "note_on channel=5 note=61 velocity=0 time=0\n",
      "note_on channel=5 note=49 velocity=0 time=2\n",
      "note_on channel=5 note=52 velocity=0 time=1\n",
      "note_on channel=5 note=49 velocity=103 time=3\n",
      "note_on channel=5 note=52 velocity=103 time=1\n",
      "note_on channel=5 note=57 velocity=103 time=1\n",
      "note_on channel=5 note=61 velocity=94 time=2\n",
      "note_on channel=5 note=61 velocity=0 time=53\n",
      "note_on channel=5 note=57 velocity=0 time=1\n",
      "note_on channel=5 note=49 velocity=0 time=0\n",
      "note_on channel=5 note=52 velocity=0 time=1\n",
      "note_on channel=5 note=49 velocity=96 time=1\n",
      "note_on channel=5 note=52 velocity=96 time=1\n",
      "note_on channel=5 note=57 velocity=96 time=1\n",
      "note_on channel=5 note=61 velocity=86 time=2\n",
      "note_on channel=5 note=49 velocity=0 time=6\n",
      "note_on channel=5 note=52 velocity=0 time=1\n",
      "note_on channel=5 note=57 velocity=0 time=1\n",
      "note_on channel=5 note=61 velocity=0 time=2\n",
      "note_on channel=5 note=49 velocity=116 time=44\n",
      "note_on channel=5 note=52 velocity=116 time=1\n",
      "note_on channel=5 note=61 velocity=106 time=3\n",
      "note_on channel=5 note=57 velocity=116 time=0\n",
      "note_on channel=5 note=49 velocity=0 time=54\n",
      "note_on channel=5 note=52 velocity=0 time=1\n",
      "note_on channel=5 note=61 velocity=0 time=1\n",
      "note_on channel=5 note=57 velocity=0 time=0\n",
      "note_on channel=5 note=49 velocity=116 time=2\n",
      "note_on channel=5 note=54 velocity=116 time=1\n",
      "note_on channel=5 note=61 velocity=106 time=3\n",
      "note_on channel=5 note=57 velocity=116 time=0\n",
      "note_on channel=5 note=54 velocity=0 time=49\n",
      "note_on channel=5 note=61 velocity=0 time=1\n",
      "note_on channel=5 note=49 velocity=0 time=2\n",
      "note_on channel=5 note=57 velocity=0 time=0\n",
      "note_on channel=5 note=49 velocity=103 time=4\n",
      "note_on channel=5 note=54 velocity=103 time=1\n",
      "note_on channel=5 note=57 velocity=103 time=1\n",
      "note_on channel=5 note=61 velocity=94 time=2\n",
      "note_on channel=5 note=61 velocity=0 time=53\n",
      "note_on channel=5 note=54 velocity=0 time=0\n",
      "note_on channel=5 note=57 velocity=0 time=1\n",
      "note_on channel=5 note=49 velocity=0 time=0\n",
      "note_on channel=5 note=49 velocity=96 time=2\n",
      "note_on channel=5 note=54 velocity=96 time=1\n",
      "note_on channel=5 note=57 velocity=96 time=1\n",
      "note_on channel=5 note=61 velocity=86 time=2\n",
      "note_on channel=5 note=57 velocity=0 time=6\n",
      "note_on channel=5 note=49 velocity=0 time=0\n",
      "note_on channel=5 note=54 velocity=0 time=1\n",
      "note_on channel=5 note=61 velocity=0 time=3\n",
      "note_on channel=5 note=49 velocity=116 time=44\n",
      "note_on channel=5 note=54 velocity=116 time=1\n",
      "note_on channel=5 note=57 velocity=116 time=3\n",
      "note_on channel=5 note=61 velocity=106 time=0\n",
      "note_on channel=5 note=54 velocity=0 time=54\n",
      "note_on channel=5 note=49 velocity=0 time=0\n",
      "note_on channel=5 note=61 velocity=0 time=1\n",
      "note_on channel=5 note=57 velocity=0 time=1\n",
      "note_on channel=5 note=49 velocity=116 time=2\n",
      "note_on channel=5 note=54 velocity=116 time=1\n",
      "note_on channel=5 note=57 velocity=116 time=3\n",
      "note_on channel=5 note=61 velocity=106 time=0\n",
      "note_on channel=5 note=61 velocity=0 time=50\n",
      "note_on channel=5 note=57 velocity=0 time=0\n",
      "note_on channel=5 note=49 velocity=0 time=2\n",
      "note_on channel=5 note=54 velocity=0 time=1\n",
      "note_on channel=5 note=49 velocity=103 time=3\n",
      "note_on channel=5 note=54 velocity=103 time=1\n",
      "note_on channel=5 note=57 velocity=103 time=1\n",
      "note_on channel=5 note=62 velocity=94 time=2\n",
      "note_on channel=5 note=62 velocity=0 time=53\n",
      "note_on channel=5 note=57 velocity=0 time=1\n",
      "note_on channel=5 note=49 velocity=0 time=0\n",
      "note_on channel=5 note=54 velocity=0 time=1\n",
      "note_on channel=5 note=49 velocity=96 time=1\n",
      "note_on channel=5 note=54 velocity=96 time=1\n",
      "note_on channel=5 note=57 velocity=96 time=1\n",
      "note_on channel=5 note=61 velocity=86 time=2\n",
      "note_on channel=5 note=49 velocity=0 time=6\n",
      "note_on channel=5 note=54 velocity=0 time=1\n",
      "note_on channel=5 note=57 velocity=0 time=1\n",
      "note_on channel=5 note=61 velocity=0 time=2\n",
      "note_on channel=5 note=49 velocity=116 time=44\n",
      "note_on channel=5 note=54 velocity=116 time=1\n",
      "note_on channel=5 note=61 velocity=106 time=3\n",
      "note_on channel=5 note=57 velocity=116 time=0\n",
      "note_on channel=5 note=49 velocity=0 time=54\n",
      "note_on channel=5 note=54 velocity=0 time=1\n",
      "note_on channel=5 note=61 velocity=0 time=1\n",
      "note_on channel=5 note=57 velocity=0 time=0\n",
      "note_on channel=5 note=50 velocity=116 time=2\n",
      "note_on channel=5 note=54 velocity=116 time=1\n",
      "note_on channel=5 note=57 velocity=116 time=3\n",
      "note_on channel=5 note=62 velocity=106 time=0\n",
      "note_on channel=5 note=62 velocity=0 time=50\n",
      "note_on channel=5 note=57 velocity=0 time=0\n",
      "note_on channel=5 note=50 velocity=0 time=2\n",
      "note_on channel=5 note=54 velocity=0 time=1\n",
      "note_on channel=5 note=50 velocity=103 time=3\n",
      "note_on channel=5 note=54 velocity=103 time=1\n",
      "note_on channel=5 note=57 velocity=103 time=1\n",
      "note_on channel=5 note=62 velocity=94 time=2\n",
      "note_on channel=5 note=62 velocity=0 time=53\n",
      "note_on channel=5 note=57 velocity=0 time=1\n",
      "note_on channel=5 note=50 velocity=0 time=0\n",
      "note_on channel=5 note=54 velocity=0 time=1\n",
      "note_on channel=5 note=50 velocity=96 time=1\n",
      "note_on channel=5 note=54 velocity=96 time=1\n",
      "note_on channel=5 note=57 velocity=96 time=1\n",
      "note_on channel=5 note=62 velocity=86 time=2\n",
      "note_on channel=5 note=50 velocity=0 time=6\n",
      "note_on channel=5 note=54 velocity=0 time=1\n",
      "note_on channel=5 note=57 velocity=0 time=1\n",
      "note_on channel=5 note=62 velocity=0 time=2\n",
      "note_on channel=5 note=49 velocity=116 time=44\n",
      "note_on channel=5 note=52 velocity=116 time=1\n",
      "note_on channel=5 note=61 velocity=106 time=3\n",
      "note_on channel=5 note=57 velocity=116 time=0\n",
      "note_on channel=5 note=49 velocity=0 time=54\n",
      "note_on channel=5 note=52 velocity=0 time=1\n",
      "note_on channel=5 note=61 velocity=0 time=1\n",
      "note_on channel=5 note=57 velocity=0 time=0\n",
      "note_on channel=5 note=49 velocity=116 time=2\n",
      "note_on channel=5 note=52 velocity=116 time=1\n",
      "note_on channel=5 note=61 velocity=106 time=3\n",
      "note_on channel=5 note=57 velocity=116 time=0\n",
      "note_on channel=5 note=57 velocity=0 time=50\n",
      "note_on channel=5 note=61 velocity=0 time=0\n",
      "note_on channel=5 note=49 velocity=0 time=2\n",
      "note_on channel=5 note=52 velocity=0 time=1\n",
      "note_on channel=5 note=49 velocity=103 time=3\n",
      "note_on channel=5 note=52 velocity=103 time=1\n",
      "note_on channel=5 note=57 velocity=103 time=1\n",
      "note_on channel=5 note=61 velocity=94 time=2\n",
      "note_on channel=5 note=61 velocity=0 time=53\n",
      "note_on channel=5 note=57 velocity=0 time=1\n",
      "note_on channel=5 note=49 velocity=0 time=0\n",
      "note_on channel=5 note=52 velocity=0 time=1\n",
      "note_on channel=5 note=49 velocity=96 time=1\n",
      "note_on channel=5 note=52 velocity=96 time=1\n",
      "note_on channel=5 note=57 velocity=96 time=1\n",
      "note_on channel=5 note=61 velocity=86 time=2\n",
      "note_on channel=5 note=49 velocity=0 time=6\n",
      "note_on channel=5 note=52 velocity=0 time=1\n",
      "note_on channel=5 note=57 velocity=0 time=1\n",
      "note_on channel=5 note=61 velocity=0 time=2\n",
      "note_on channel=5 note=49 velocity=116 time=44\n",
      "note_on channel=5 note=52 velocity=116 time=1\n",
      "note_on channel=5 note=61 velocity=106 time=3\n",
      "note_on channel=5 note=57 velocity=116 time=0\n",
      "note_on channel=5 note=45 velocity=127 time=48\n",
      "note_on channel=5 note=49 velocity=0 time=6\n",
      "note_on channel=5 note=49 velocity=127 time=0\n",
      "note_on channel=5 note=52 velocity=0 time=1\n",
      "note_on channel=5 note=57 velocity=0 time=1\n",
      "note_on channel=5 note=61 velocity=0 time=0\n",
      "note_on channel=5 note=54 velocity=127 time=3\n",
      "note_on channel=5 note=57 velocity=127 time=5\n",
      "note_on channel=5 note=61 velocity=122 time=5\n",
      "note_on channel=5 note=45 velocity=0 time=35\n",
      "note_on channel=5 note=49 velocity=0 time=6\n",
      "note_on channel=5 note=54 velocity=0 time=1\n",
      "note_on channel=5 note=57 velocity=0 time=5\n",
      "note_on channel=5 note=49 velocity=103 time=2\n",
      "note_on channel=5 note=61 velocity=0 time=1\n",
      "note_on channel=5 note=54 velocity=103 time=0\n",
      "note_on channel=5 note=57 velocity=103 time=1\n",
      "note_on channel=5 note=61 velocity=94 time=2\n",
      "note_on channel=5 note=61 velocity=0 time=53\n",
      "note_on channel=5 note=54 velocity=0 time=0\n",
      "note_on channel=5 note=57 velocity=0 time=1\n",
      "note_on channel=5 note=49 velocity=0 time=0\n",
      "note_on channel=5 note=49 velocity=96 time=2\n",
      "note_on channel=5 note=54 velocity=96 time=1\n",
      "note_on channel=5 note=57 velocity=96 time=1\n",
      "note_on channel=5 note=61 velocity=86 time=2\n",
      "note_on channel=5 note=57 velocity=0 time=6\n",
      "note_on channel=5 note=49 velocity=0 time=0\n",
      "note_on channel=5 note=54 velocity=0 time=1\n",
      "note_on channel=5 note=61 velocity=0 time=3\n",
      "note_on channel=5 note=49 velocity=116 time=44\n",
      "note_on channel=5 note=54 velocity=116 time=1\n",
      "note_on channel=5 note=61 velocity=106 time=3\n",
      "note_on channel=5 note=57 velocity=116 time=0\n",
      "note_on channel=5 note=54 velocity=0 time=54\n",
      "note_on channel=5 note=49 velocity=0 time=0\n",
      "note_on channel=5 note=61 velocity=0 time=1\n",
      "note_on channel=5 note=57 velocity=0 time=1\n",
      "note_on channel=5 note=49 velocity=116 time=2\n",
      "note_on channel=5 note=54 velocity=116 time=1\n",
      "note_on channel=5 note=57 velocity=116 time=3\n",
      "note_on channel=5 note=61 velocity=106 time=0\n",
      "note_on channel=5 note=61 velocity=0 time=50\n",
      "note_on channel=5 note=57 velocity=0 time=0\n",
      "note_on channel=5 note=49 velocity=0 time=2\n",
      "note_on channel=5 note=54 velocity=0 time=1\n",
      "note_on channel=5 note=49 velocity=103 time=3\n",
      "note_on channel=5 note=54 velocity=103 time=1\n",
      "note_on channel=5 note=57 velocity=103 time=1\n",
      "note_on channel=5 note=62 velocity=94 time=2\n",
      "note_on channel=5 note=62 velocity=0 time=53\n",
      "note_on channel=5 note=57 velocity=0 time=1\n",
      "note_on channel=5 note=49 velocity=0 time=0\n",
      "note_on channel=5 note=54 velocity=0 time=1\n",
      "note_on channel=5 note=49 velocity=96 time=1\n",
      "note_on channel=5 note=54 velocity=96 time=1\n",
      "note_on channel=5 note=57 velocity=96 time=1\n",
      "note_on channel=5 note=61 velocity=86 time=2\n",
      "note_on channel=5 note=49 velocity=0 time=6\n",
      "note_on channel=5 note=54 velocity=0 time=1\n",
      "note_on channel=5 note=57 velocity=0 time=1\n",
      "note_on channel=5 note=61 velocity=0 time=2\n",
      "note_on channel=5 note=49 velocity=116 time=44\n",
      "note_on channel=5 note=54 velocity=116 time=1\n",
      "note_on channel=5 note=57 velocity=116 time=3\n",
      "note_on channel=5 note=61 velocity=106 time=0\n",
      "note_on channel=5 note=49 velocity=0 time=54\n",
      "note_on channel=5 note=54 velocity=0 time=1\n",
      "note_on channel=5 note=57 velocity=0 time=1\n",
      "note_on channel=5 note=61 velocity=0 time=0\n",
      "note_on channel=5 note=50 velocity=116 time=2\n",
      "note_on channel=5 note=54 velocity=116 time=1\n",
      "note_on channel=5 note=57 velocity=116 time=3\n",
      "note_on channel=5 note=62 velocity=106 time=0\n",
      "note_on channel=5 note=62 velocity=0 time=50\n",
      "note_on channel=5 note=57 velocity=0 time=0\n",
      "note_on channel=5 note=50 velocity=0 time=2\n",
      "note_on channel=5 note=54 velocity=0 time=1\n",
      "note_on channel=5 note=50 velocity=103 time=3\n",
      "note_on channel=5 note=54 velocity=103 time=1\n",
      "note_on channel=5 note=57 velocity=103 time=1\n",
      "note_on channel=5 note=62 velocity=94 time=2\n",
      "note_on channel=5 note=62 velocity=0 time=53\n",
      "note_on channel=5 note=57 velocity=0 time=1\n",
      "note_on channel=5 note=50 velocity=0 time=0\n",
      "note_on channel=5 note=54 velocity=0 time=1\n",
      "note_on channel=5 note=50 velocity=96 time=1\n",
      "note_on channel=5 note=54 velocity=96 time=1\n",
      "note_on channel=5 note=57 velocity=96 time=1\n",
      "note_on channel=5 note=62 velocity=86 time=2\n",
      "note_on channel=5 note=50 velocity=0 time=6\n",
      "note_on channel=5 note=54 velocity=0 time=1\n",
      "note_on channel=5 note=57 velocity=0 time=1\n",
      "note_on channel=5 note=62 velocity=0 time=2\n",
      "note_on channel=5 note=49 velocity=116 time=44\n",
      "note_on channel=5 note=52 velocity=116 time=1\n",
      "note_on channel=5 note=61 velocity=106 time=3\n",
      "note_on channel=5 note=57 velocity=116 time=0\n",
      "note_on channel=5 note=49 velocity=0 time=54\n",
      "note_on channel=5 note=52 velocity=0 time=1\n",
      "note_on channel=5 note=61 velocity=0 time=1\n",
      "note_on channel=5 note=57 velocity=0 time=0\n",
      "note_on channel=5 note=49 velocity=116 time=2\n",
      "note_on channel=5 note=52 velocity=116 time=1\n",
      "note_on channel=5 note=61 velocity=106 time=3\n",
      "note_on channel=5 note=57 velocity=116 time=0\n",
      "note_on channel=5 note=57 velocity=0 time=50\n",
      "note_on channel=5 note=61 velocity=0 time=0\n",
      "note_on channel=5 note=49 velocity=0 time=2\n",
      "note_on channel=5 note=52 velocity=0 time=1\n",
      "note_on channel=5 note=49 velocity=103 time=3\n",
      "note_on channel=5 note=52 velocity=103 time=1\n",
      "note_on channel=5 note=57 velocity=103 time=1\n",
      "note_on channel=5 note=61 velocity=94 time=2\n",
      "note_on channel=5 note=61 velocity=0 time=53\n",
      "note_on channel=5 note=57 velocity=0 time=1\n",
      "note_on channel=5 note=49 velocity=0 time=0\n",
      "note_on channel=5 note=52 velocity=0 time=1\n",
      "note_on channel=5 note=49 velocity=96 time=1\n",
      "note_on channel=5 note=52 velocity=96 time=1\n",
      "note_on channel=5 note=57 velocity=96 time=1\n",
      "note_on channel=5 note=61 velocity=86 time=2\n",
      "note_on channel=5 note=49 velocity=0 time=6\n",
      "note_on channel=5 note=52 velocity=0 time=1\n",
      "note_on channel=5 note=57 velocity=0 time=1\n",
      "note_on channel=5 note=61 velocity=0 time=2\n",
      "note_on channel=5 note=49 velocity=116 time=44\n",
      "note_on channel=5 note=52 velocity=116 time=1\n",
      "note_on channel=5 note=61 velocity=106 time=3\n",
      "note_on channel=5 note=57 velocity=116 time=0\n",
      "note_on channel=5 note=49 velocity=0 time=54\n",
      "note_on channel=5 note=52 velocity=0 time=1\n",
      "note_on channel=5 note=61 velocity=0 time=1\n",
      "note_on channel=5 note=57 velocity=0 time=0\n",
      "note_on channel=5 note=49 velocity=116 time=2\n",
      "note_on channel=5 note=54 velocity=116 time=1\n",
      "note_on channel=5 note=57 velocity=116 time=3\n",
      "note_on channel=5 note=61 velocity=106 time=0\n",
      "note_on channel=5 note=54 velocity=0 time=49\n",
      "note_on channel=5 note=61 velocity=0 time=1\n",
      "note_on channel=5 note=57 velocity=0 time=2\n",
      "note_on channel=5 note=49 velocity=0 time=0\n",
      "note_on channel=5 note=49 velocity=103 time=4\n",
      "note_on channel=5 note=54 velocity=103 time=1\n",
      "note_on channel=5 note=57 velocity=103 time=1\n",
      "note_on channel=5 note=61 velocity=94 time=2\n",
      "note_on channel=5 note=61 velocity=0 time=53\n",
      "note_on channel=5 note=54 velocity=0 time=0\n",
      "note_on channel=5 note=57 velocity=0 time=1\n",
      "note_on channel=5 note=49 velocity=0 time=0\n",
      "note_on channel=5 note=49 velocity=96 time=2\n",
      "note_on channel=5 note=54 velocity=96 time=1\n",
      "note_on channel=5 note=57 velocity=96 time=1\n",
      "note_on channel=5 note=61 velocity=86 time=2\n",
      "note_on channel=5 note=57 velocity=0 time=6\n",
      "note_on channel=5 note=49 velocity=0 time=0\n",
      "note_on channel=5 note=54 velocity=0 time=1\n",
      "note_on channel=5 note=61 velocity=0 time=3\n",
      "note_on channel=5 note=49 velocity=116 time=44\n",
      "note_on channel=5 note=54 velocity=116 time=1\n",
      "note_on channel=5 note=61 velocity=106 time=3\n",
      "note_on channel=5 note=57 velocity=116 time=0\n",
      "note_on channel=5 note=54 velocity=0 time=54\n",
      "note_on channel=5 note=49 velocity=0 time=0\n",
      "note_on channel=5 note=61 velocity=0 time=1\n",
      "note_on channel=5 note=57 velocity=0 time=1\n",
      "note_on channel=5 note=49 velocity=116 time=2\n",
      "note_on channel=5 note=54 velocity=116 time=1\n",
      "note_on channel=5 note=57 velocity=116 time=3\n",
      "note_on channel=5 note=61 velocity=106 time=0\n",
      "note_on channel=5 note=61 velocity=0 time=50\n",
      "note_on channel=5 note=57 velocity=0 time=0\n",
      "note_on channel=5 note=49 velocity=0 time=2\n",
      "note_on channel=5 note=54 velocity=0 time=1\n",
      "note_on channel=5 note=49 velocity=103 time=3\n",
      "note_on channel=5 note=54 velocity=103 time=1\n",
      "note_on channel=5 note=57 velocity=103 time=1\n",
      "note_on channel=5 note=62 velocity=94 time=2\n",
      "note_on channel=5 note=62 velocity=0 time=53\n",
      "note_on channel=5 note=57 velocity=0 time=1\n",
      "note_on channel=5 note=49 velocity=0 time=0\n",
      "note_on channel=5 note=54 velocity=0 time=1\n",
      "note_on channel=5 note=49 velocity=96 time=1\n",
      "note_on channel=5 note=54 velocity=96 time=1\n",
      "note_on channel=5 note=57 velocity=96 time=1\n",
      "note_on channel=5 note=61 velocity=86 time=2\n",
      "note_on channel=5 note=49 velocity=0 time=6\n",
      "note_on channel=5 note=54 velocity=0 time=1\n",
      "note_on channel=5 note=57 velocity=0 time=1\n",
      "note_on channel=5 note=61 velocity=0 time=2\n",
      "note_on channel=5 note=49 velocity=116 time=44\n",
      "note_on channel=5 note=54 velocity=116 time=1\n",
      "note_on channel=5 note=57 velocity=116 time=3\n",
      "note_on channel=5 note=61 velocity=106 time=0\n",
      "note_on channel=5 note=49 velocity=0 time=54\n",
      "note_on channel=5 note=54 velocity=0 time=1\n",
      "note_on channel=5 note=57 velocity=0 time=1\n",
      "note_on channel=5 note=61 velocity=0 time=0\n",
      "note_on channel=5 note=52 velocity=116 time=0\n",
      "note_on channel=5 note=56 velocity=116 time=3\n",
      "note_on channel=5 note=59 velocity=116 time=3\n",
      "note_on channel=5 note=64 velocity=106 time=3\n",
      "note_on channel=5 note=52 velocity=0 time=170\n",
      "note_on channel=5 note=52 velocity=113 time=1\n",
      "note_on channel=5 note=56 velocity=0 time=2\n",
      "note_on channel=5 note=57 velocity=113 time=1\n",
      "note_on channel=5 note=59 velocity=0 time=2\n",
      "note_on channel=5 note=61 velocity=113 time=1\n",
      "note_on channel=5 note=64 velocity=0 time=2\n",
      "note_on channel=5 note=64 velocity=94 time=1\n",
      "note_on channel=5 note=52 velocity=0 time=290\n",
      "note_on channel=5 note=57 velocity=0 time=3\n",
      "note_on channel=5 note=50 velocity=116 time=0\n",
      "note_on channel=5 note=54 velocity=116 time=1\n",
      "note_on channel=5 note=61 velocity=0 time=2\n",
      "note_on channel=5 note=62 velocity=106 time=1\n",
      "note_on channel=5 note=57 velocity=116 time=0\n",
      "note_on channel=5 note=64 velocity=0 time=2\n",
      "note_on channel=5 note=54 velocity=0 time=47\n",
      "note_on channel=5 note=62 velocity=0 time=1\n",
      "note_on channel=5 note=50 velocity=0 time=2\n",
      "note_on channel=5 note=57 velocity=0 time=0\n",
      "note_on channel=5 note=50 velocity=103 time=4\n",
      "note_on channel=5 note=54 velocity=103 time=1\n",
      "note_on channel=5 note=57 velocity=103 time=1\n",
      "note_on channel=5 note=62 velocity=94 time=2\n",
      "note_on channel=5 note=62 velocity=0 time=53\n",
      "note_on channel=5 note=54 velocity=0 time=0\n",
      "note_on channel=5 note=57 velocity=0 time=1\n",
      "note_on channel=5 note=50 velocity=0 time=0\n",
      "note_on channel=5 note=50 velocity=96 time=2\n",
      "note_on channel=5 note=54 velocity=96 time=1\n",
      "note_on channel=5 note=57 velocity=96 time=1\n",
      "note_on channel=5 note=62 velocity=86 time=2\n",
      "note_on channel=5 note=57 velocity=0 time=6\n",
      "note_on channel=5 note=50 velocity=0 time=0\n",
      "note_on channel=5 note=54 velocity=0 time=1\n",
      "note_on channel=5 note=62 velocity=0 time=3\n",
      "note_on channel=5 note=50 velocity=116 time=44\n",
      "note_on channel=5 note=54 velocity=116 time=1\n",
      "note_on channel=5 note=57 velocity=116 time=3\n",
      "note_on channel=5 note=62 velocity=106 time=0\n",
      "note_on channel=5 note=54 velocity=0 time=54\n",
      "note_on channel=5 note=50 velocity=0 time=0\n",
      "note_on channel=5 note=62 velocity=0 time=1\n",
      "note_on channel=5 note=57 velocity=0 time=1\n",
      "note_on channel=5 note=50 velocity=116 time=2\n",
      "note_on channel=5 note=54 velocity=116 time=1\n",
      "note_on channel=5 note=57 velocity=116 time=3\n",
      "note_on channel=5 note=62 velocity=106 time=0\n",
      "note_on channel=5 note=62 velocity=0 time=50\n",
      "note_on channel=5 note=57 velocity=0 time=0\n",
      "note_on channel=5 note=50 velocity=0 time=2\n",
      "note_on channel=5 note=54 velocity=0 time=1\n",
      "note_on channel=5 note=50 velocity=103 time=3\n",
      "note_on channel=5 note=54 velocity=103 time=1\n",
      "note_on channel=5 note=57 velocity=103 time=1\n",
      "note_on channel=5 note=62 velocity=94 time=2\n",
      "note_on channel=5 note=62 velocity=0 time=53\n",
      "note_on channel=5 note=57 velocity=0 time=1\n",
      "note_on channel=5 note=50 velocity=0 time=0\n",
      "note_on channel=5 note=54 velocity=0 time=1\n",
      "note_on channel=5 note=50 velocity=96 time=1\n",
      "note_on channel=5 note=54 velocity=96 time=1\n",
      "note_on channel=5 note=57 velocity=96 time=1\n",
      "note_on channel=5 note=62 velocity=86 time=2\n",
      "note_on channel=5 note=50 velocity=0 time=6\n",
      "note_on channel=5 note=54 velocity=0 time=1\n",
      "note_on channel=5 note=57 velocity=0 time=1\n",
      "note_on channel=5 note=62 velocity=0 time=2\n",
      "note_on channel=5 note=50 velocity=116 time=44\n",
      "note_on channel=5 note=54 velocity=116 time=1\n",
      "note_on channel=5 note=62 velocity=106 time=3\n",
      "note_on channel=5 note=57 velocity=116 time=0\n",
      "note_on channel=5 note=50 velocity=0 time=54\n",
      "note_on channel=5 note=54 velocity=0 time=1\n",
      "note_on channel=5 note=62 velocity=0 time=1\n",
      "note_on channel=5 note=57 velocity=0 time=0\n",
      "note_on channel=5 note=52 velocity=116 time=2\n",
      "note_on channel=5 note=56 velocity=116 time=1\n",
      "note_on channel=5 note=59 velocity=116 time=3\n",
      "note_on channel=5 note=64 velocity=106 time=0\n",
      "note_on channel=5 note=64 velocity=0 time=50\n",
      "note_on channel=5 note=59 velocity=0 time=0\n",
      "note_on channel=5 note=52 velocity=0 time=2\n",
      "note_on channel=5 note=56 velocity=0 time=1\n",
      "note_on channel=5 note=52 velocity=103 time=3\n",
      "note_on channel=5 note=56 velocity=103 time=1\n",
      "note_on channel=5 note=59 velocity=103 time=1\n",
      "note_on channel=5 note=64 velocity=94 time=2\n",
      "note_on channel=5 note=64 velocity=0 time=53\n",
      "note_on channel=5 note=59 velocity=0 time=1\n",
      "note_on channel=5 note=52 velocity=0 time=0\n",
      "note_on channel=5 note=56 velocity=0 time=1\n",
      "note_on channel=5 note=52 velocity=96 time=1\n",
      "note_on channel=5 note=56 velocity=96 time=1\n",
      "note_on channel=5 note=59 velocity=96 time=1\n",
      "note_on channel=5 note=64 velocity=86 time=2\n",
      "note_on channel=5 note=52 velocity=0 time=6\n",
      "note_on channel=5 note=56 velocity=0 time=1\n",
      "note_on channel=5 note=59 velocity=0 time=1\n",
      "note_on channel=5 note=64 velocity=0 time=2\n",
      "note_on channel=5 note=52 velocity=116 time=44\n",
      "note_on channel=5 note=56 velocity=116 time=1\n",
      "note_on channel=5 note=64 velocity=106 time=3\n",
      "note_on channel=5 note=59 velocity=116 time=0\n",
      "note_on channel=5 note=52 velocity=0 time=54\n",
      "note_on channel=5 note=56 velocity=0 time=1\n",
      "note_on channel=5 note=64 velocity=0 time=1\n",
      "note_on channel=5 note=59 velocity=0 time=0\n",
      "note_on channel=5 note=49 velocity=116 time=2\n",
      "note_on channel=5 note=54 velocity=116 time=1\n",
      "note_on channel=5 note=61 velocity=106 time=3\n",
      "note_on channel=5 note=57 velocity=116 time=0\n",
      "note_on channel=5 note=57 velocity=0 time=50\n",
      "note_on channel=5 note=61 velocity=0 time=0\n",
      "note_on channel=5 note=49 velocity=0 time=2\n",
      "note_on channel=5 note=54 velocity=0 time=1\n",
      "note_on channel=5 note=49 velocity=103 time=3\n",
      "note_on channel=5 note=54 velocity=103 time=1\n",
      "note_on channel=5 note=57 velocity=103 time=1\n",
      "note_on channel=5 note=61 velocity=94 time=2\n",
      "note_on channel=5 note=61 velocity=0 time=53\n",
      "note_on channel=5 note=57 velocity=0 time=1\n",
      "note_on channel=5 note=49 velocity=0 time=0\n",
      "note_on channel=5 note=54 velocity=0 time=1\n",
      "note_on channel=5 note=49 velocity=96 time=1\n",
      "note_on channel=5 note=54 velocity=96 time=1\n",
      "note_on channel=5 note=57 velocity=96 time=1\n",
      "note_on channel=5 note=61 velocity=86 time=2\n",
      "note_on channel=5 note=49 velocity=0 time=6\n",
      "note_on channel=5 note=54 velocity=0 time=1\n",
      "note_on channel=5 note=57 velocity=0 time=1\n",
      "note_on channel=5 note=61 velocity=0 time=2\n",
      "note_on channel=5 note=49 velocity=116 time=44\n",
      "note_on channel=5 note=54 velocity=116 time=1\n",
      "note_on channel=5 note=61 velocity=106 time=3\n",
      "note_on channel=5 note=57 velocity=116 time=0\n",
      "note_on channel=5 note=49 velocity=0 time=54\n",
      "note_on channel=5 note=54 velocity=0 time=1\n",
      "note_on channel=5 note=61 velocity=0 time=1\n",
      "note_on channel=5 note=57 velocity=0 time=0\n",
      "note_on channel=5 note=50 velocity=116 time=2\n",
      "note_on channel=5 note=54 velocity=116 time=1\n",
      "note_on channel=5 note=62 velocity=106 time=3\n",
      "note_on channel=5 note=57 velocity=116 time=0\n",
      "note_on channel=5 note=54 velocity=0 time=49\n",
      "note_on channel=5 note=62 velocity=0 time=1\n",
      "note_on channel=5 note=50 velocity=0 time=2\n",
      "note_on channel=5 note=57 velocity=0 time=0\n",
      "note_on channel=5 note=50 velocity=103 time=4\n",
      "note_on channel=5 note=54 velocity=103 time=1\n",
      "note_on channel=5 note=57 velocity=103 time=1\n",
      "note_on channel=5 note=62 velocity=94 time=2\n",
      "note_on channel=5 note=62 velocity=0 time=53\n",
      "note_on channel=5 note=54 velocity=0 time=0\n",
      "note_on channel=5 note=57 velocity=0 time=1\n",
      "note_on channel=5 note=50 velocity=0 time=0\n",
      "note_on channel=5 note=50 velocity=96 time=2\n",
      "note_on channel=5 note=54 velocity=96 time=1\n",
      "note_on channel=5 note=57 velocity=96 time=1\n",
      "note_on channel=5 note=62 velocity=86 time=2\n",
      "note_on channel=5 note=57 velocity=0 time=6\n",
      "note_on channel=5 note=50 velocity=0 time=0\n",
      "note_on channel=5 note=54 velocity=0 time=1\n",
      "note_on channel=5 note=62 velocity=0 time=3\n",
      "note_on channel=5 note=50 velocity=116 time=44\n",
      "note_on channel=5 note=54 velocity=116 time=1\n",
      "note_on channel=5 note=57 velocity=116 time=3\n",
      "note_on channel=5 note=62 velocity=106 time=0\n",
      "note_on channel=5 note=54 velocity=0 time=54\n",
      "note_on channel=5 note=50 velocity=0 time=0\n",
      "note_on channel=5 note=62 velocity=0 time=1\n",
      "note_on channel=5 note=57 velocity=0 time=1\n",
      "note_on channel=5 note=50 velocity=116 time=2\n",
      "note_on channel=5 note=54 velocity=116 time=1\n",
      "note_on channel=5 note=57 velocity=116 time=3\n",
      "note_on channel=5 note=62 velocity=106 time=0\n",
      "note_on channel=5 note=62 velocity=0 time=50\n",
      "note_on channel=5 note=57 velocity=0 time=0\n",
      "note_on channel=5 note=50 velocity=0 time=2\n",
      "note_on channel=5 note=54 velocity=0 time=1\n",
      "note_on channel=5 note=50 velocity=103 time=3\n",
      "note_on channel=5 note=54 velocity=103 time=1\n",
      "note_on channel=5 note=57 velocity=103 time=1\n",
      "note_on channel=5 note=62 velocity=94 time=2\n",
      "note_on channel=5 note=62 velocity=0 time=53\n",
      "note_on channel=5 note=57 velocity=0 time=1\n",
      "note_on channel=5 note=50 velocity=0 time=0\n",
      "note_on channel=5 note=54 velocity=0 time=1\n",
      "note_on channel=5 note=50 velocity=96 time=1\n",
      "note_on channel=5 note=54 velocity=96 time=1\n",
      "note_on channel=5 note=57 velocity=96 time=1\n",
      "note_on channel=5 note=62 velocity=86 time=2\n",
      "note_on channel=5 note=50 velocity=0 time=6\n",
      "note_on channel=5 note=54 velocity=0 time=1\n",
      "note_on channel=5 note=57 velocity=0 time=1\n",
      "note_on channel=5 note=62 velocity=0 time=2\n",
      "note_on channel=5 note=50 velocity=116 time=44\n",
      "note_on channel=5 note=54 velocity=116 time=1\n",
      "note_on channel=5 note=62 velocity=106 time=3\n",
      "note_on channel=5 note=57 velocity=116 time=0\n",
      "note_on channel=5 note=50 velocity=0 time=54\n",
      "note_on channel=5 note=54 velocity=0 time=1\n",
      "note_on channel=5 note=62 velocity=0 time=1\n",
      "note_on channel=5 note=57 velocity=0 time=0\n",
      "note_on channel=5 note=52 velocity=116 time=2\n",
      "note_on channel=5 note=56 velocity=116 time=1\n",
      "note_on channel=5 note=64 velocity=106 time=3\n",
      "note_on channel=5 note=59 velocity=116 time=0\n",
      "note_on channel=5 note=59 velocity=0 time=50\n",
      "note_on channel=5 note=64 velocity=0 time=0\n",
      "note_on channel=5 note=52 velocity=0 time=2\n",
      "note_on channel=5 note=56 velocity=0 time=1\n",
      "note_on channel=5 note=52 velocity=103 time=3\n",
      "note_on channel=5 note=56 velocity=103 time=1\n",
      "note_on channel=5 note=59 velocity=103 time=1\n",
      "note_on channel=5 note=64 velocity=94 time=2\n",
      "note_on channel=5 note=64 velocity=0 time=53\n",
      "note_on channel=5 note=59 velocity=0 time=1\n",
      "note_on channel=5 note=52 velocity=0 time=0\n",
      "note_on channel=5 note=56 velocity=0 time=1\n",
      "note_on channel=5 note=52 velocity=96 time=1\n",
      "note_on channel=5 note=56 velocity=96 time=1\n",
      "note_on channel=5 note=59 velocity=96 time=1\n",
      "note_on channel=5 note=64 velocity=86 time=2\n",
      "note_on channel=5 note=52 velocity=0 time=6\n",
      "note_on channel=5 note=56 velocity=0 time=1\n",
      "note_on channel=5 note=59 velocity=0 time=1\n",
      "note_on channel=5 note=64 velocity=0 time=2\n",
      "note_on channel=5 note=52 velocity=116 time=44\n",
      "note_on channel=5 note=56 velocity=116 time=1\n",
      "note_on channel=5 note=59 velocity=116 time=3\n",
      "note_on channel=5 note=64 velocity=106 time=0\n",
      "note_on channel=5 note=52 velocity=0 time=54\n",
      "note_on channel=5 note=56 velocity=0 time=1\n",
      "note_on channel=5 note=59 velocity=0 time=1\n",
      "note_on channel=5 note=64 velocity=0 time=0\n",
      "note_on channel=5 note=49 velocity=116 time=2\n",
      "note_on channel=5 note=54 velocity=116 time=1\n",
      "note_on channel=5 note=61 velocity=106 time=3\n",
      "note_on channel=5 note=57 velocity=116 time=0\n",
      "note_on channel=5 note=57 velocity=0 time=50\n",
      "note_on channel=5 note=61 velocity=0 time=0\n",
      "note_on channel=5 note=49 velocity=0 time=2\n",
      "note_on channel=5 note=54 velocity=0 time=1\n",
      "note_on channel=5 note=49 velocity=103 time=3\n",
      "note_on channel=5 note=54 velocity=103 time=1\n",
      "note_on channel=5 note=57 velocity=103 time=1\n",
      "note_on channel=5 note=61 velocity=94 time=2\n",
      "note_on channel=5 note=61 velocity=0 time=53\n",
      "note_on channel=5 note=57 velocity=0 time=1\n",
      "note_on channel=5 note=49 velocity=0 time=0\n",
      "note_on channel=5 note=54 velocity=0 time=1\n",
      "note_on channel=5 note=49 velocity=96 time=1\n",
      "note_on channel=5 note=54 velocity=96 time=1\n",
      "note_on channel=5 note=57 velocity=96 time=1\n",
      "note_on channel=5 note=61 velocity=86 time=2\n",
      "note_on channel=5 note=49 velocity=0 time=6\n",
      "note_on channel=5 note=54 velocity=0 time=1\n",
      "note_on channel=5 note=57 velocity=0 time=1\n",
      "note_on channel=5 note=61 velocity=0 time=2\n",
      "note_on channel=5 note=49 velocity=116 time=44\n",
      "note_on channel=5 note=54 velocity=116 time=1\n",
      "note_on channel=5 note=61 velocity=106 time=3\n",
      "note_on channel=5 note=57 velocity=116 time=0\n",
      "note_on channel=5 note=49 velocity=0 time=54\n",
      "note_on channel=5 note=54 velocity=0 time=1\n",
      "note_on channel=5 note=61 velocity=0 time=1\n",
      "note_on channel=5 note=57 velocity=0 time=0\n",
      "note_on channel=5 note=50 velocity=116 time=2\n",
      "note_on channel=5 note=54 velocity=116 time=1\n",
      "note_on channel=5 note=62 velocity=106 time=3\n",
      "note_on channel=5 note=57 velocity=116 time=0\n",
      "note_on channel=5 note=54 velocity=0 time=49\n",
      "note_on channel=5 note=62 velocity=0 time=1\n",
      "note_on channel=5 note=50 velocity=0 time=2\n",
      "note_on channel=5 note=57 velocity=0 time=0\n",
      "note_on channel=5 note=50 velocity=103 time=4\n",
      "note_on channel=5 note=54 velocity=103 time=1\n",
      "note_on channel=5 note=57 velocity=103 time=1\n",
      "note_on channel=5 note=62 velocity=94 time=2\n",
      "note_on channel=5 note=62 velocity=0 time=53\n",
      "note_on channel=5 note=54 velocity=0 time=0\n",
      "note_on channel=5 note=57 velocity=0 time=1\n",
      "note_on channel=5 note=50 velocity=0 time=0\n",
      "note_on channel=5 note=50 velocity=96 time=2\n",
      "note_on channel=5 note=54 velocity=96 time=1\n",
      "note_on channel=5 note=57 velocity=96 time=1\n",
      "note_on channel=5 note=62 velocity=86 time=2\n",
      "note_on channel=5 note=57 velocity=0 time=6\n",
      "note_on channel=5 note=50 velocity=0 time=0\n",
      "note_on channel=5 note=54 velocity=0 time=1\n",
      "note_on channel=5 note=62 velocity=0 time=3\n",
      "note_on channel=5 note=50 velocity=116 time=44\n",
      "note_on channel=5 note=54 velocity=116 time=1\n",
      "note_on channel=5 note=57 velocity=116 time=3\n",
      "note_on channel=5 note=62 velocity=106 time=0\n",
      "note_on channel=5 note=54 velocity=0 time=54\n",
      "note_on channel=5 note=50 velocity=0 time=0\n",
      "note_on channel=5 note=62 velocity=0 time=1\n",
      "note_on channel=5 note=57 velocity=0 time=1\n",
      "note_on channel=5 note=50 velocity=116 time=2\n",
      "note_on channel=5 note=54 velocity=116 time=1\n",
      "note_on channel=5 note=57 velocity=116 time=3\n",
      "note_on channel=5 note=62 velocity=106 time=0\n",
      "note_on channel=5 note=62 velocity=0 time=50\n",
      "note_on channel=5 note=57 velocity=0 time=0\n",
      "note_on channel=5 note=50 velocity=0 time=2\n",
      "note_on channel=5 note=54 velocity=0 time=1\n",
      "note_on channel=5 note=50 velocity=103 time=3\n",
      "note_on channel=5 note=54 velocity=103 time=1\n",
      "note_on channel=5 note=57 velocity=103 time=1\n",
      "note_on channel=5 note=62 velocity=94 time=2\n",
      "note_on channel=5 note=62 velocity=0 time=53\n",
      "note_on channel=5 note=57 velocity=0 time=1\n",
      "note_on channel=5 note=50 velocity=0 time=0\n",
      "note_on channel=5 note=54 velocity=0 time=1\n",
      "note_on channel=5 note=50 velocity=96 time=1\n",
      "note_on channel=5 note=54 velocity=96 time=1\n",
      "note_on channel=5 note=57 velocity=96 time=1\n",
      "note_on channel=5 note=62 velocity=86 time=2\n",
      "note_on channel=5 note=50 velocity=0 time=6\n",
      "note_on channel=5 note=54 velocity=0 time=1\n",
      "note_on channel=5 note=57 velocity=0 time=1\n",
      "note_on channel=5 note=62 velocity=0 time=2\n",
      "note_on channel=5 note=50 velocity=116 time=44\n",
      "note_on channel=5 note=54 velocity=116 time=1\n",
      "note_on channel=5 note=62 velocity=106 time=3\n",
      "note_on channel=5 note=57 velocity=116 time=0\n",
      "note_on channel=5 note=50 velocity=0 time=54\n",
      "note_on channel=5 note=54 velocity=0 time=1\n",
      "note_on channel=5 note=62 velocity=0 time=1\n",
      "note_on channel=5 note=57 velocity=0 time=0\n",
      "note_on channel=5 note=52 velocity=116 time=2\n",
      "note_on channel=5 note=56 velocity=116 time=1\n",
      "note_on channel=5 note=59 velocity=116 time=3\n",
      "note_on channel=5 note=64 velocity=106 time=0\n",
      "note_on channel=5 note=64 velocity=0 time=50\n",
      "note_on channel=5 note=59 velocity=0 time=0\n",
      "note_on channel=5 note=52 velocity=0 time=2\n",
      "note_on channel=5 note=56 velocity=0 time=1\n",
      "note_on channel=5 note=52 velocity=103 time=3\n",
      "note_on channel=5 note=56 velocity=103 time=1\n",
      "note_on channel=5 note=59 velocity=103 time=1\n",
      "note_on channel=5 note=64 velocity=94 time=2\n",
      "note_on channel=5 note=64 velocity=0 time=53\n",
      "note_on channel=5 note=59 velocity=0 time=1\n",
      "note_on channel=5 note=52 velocity=0 time=0\n",
      "note_on channel=5 note=56 velocity=0 time=1\n",
      "note_on channel=5 note=52 velocity=96 time=1\n",
      "note_on channel=5 note=56 velocity=96 time=1\n",
      "note_on channel=5 note=59 velocity=96 time=1\n",
      "note_on channel=5 note=64 velocity=86 time=2\n",
      "note_on channel=5 note=52 velocity=0 time=6\n",
      "note_on channel=5 note=56 velocity=0 time=1\n",
      "note_on channel=5 note=59 velocity=0 time=1\n",
      "note_on channel=5 note=64 velocity=0 time=2\n",
      "note_on channel=5 note=52 velocity=116 time=44\n",
      "note_on channel=5 note=56 velocity=116 time=1\n",
      "note_on channel=5 note=64 velocity=106 time=3\n",
      "note_on channel=5 note=59 velocity=116 time=0\n",
      "note_on channel=5 note=52 velocity=0 time=54\n",
      "note_on channel=5 note=56 velocity=0 time=1\n",
      "note_on channel=5 note=64 velocity=0 time=1\n",
      "note_on channel=5 note=59 velocity=0 time=0\n",
      "note_on channel=5 note=49 velocity=116 time=2\n",
      "note_on channel=5 note=52 velocity=116 time=1\n",
      "note_on channel=5 note=61 velocity=106 time=3\n",
      "note_on channel=5 note=57 velocity=116 time=0\n",
      "note_on channel=5 note=57 velocity=0 time=50\n",
      "note_on channel=5 note=61 velocity=0 time=0\n",
      "note_on channel=5 note=49 velocity=0 time=2\n",
      "note_on channel=5 note=52 velocity=0 time=1\n",
      "note_on channel=5 note=49 velocity=103 time=3\n",
      "note_on channel=5 note=52 velocity=103 time=1\n",
      "note_on channel=5 note=57 velocity=103 time=1\n",
      "note_on channel=5 note=61 velocity=94 time=2\n",
      "note_on channel=5 note=61 velocity=0 time=53\n",
      "note_on channel=5 note=57 velocity=0 time=1\n",
      "note_on channel=5 note=49 velocity=0 time=0\n",
      "note_on channel=5 note=52 velocity=0 time=1\n",
      "note_on channel=5 note=49 velocity=96 time=1\n",
      "note_on channel=5 note=52 velocity=96 time=1\n",
      "note_on channel=5 note=57 velocity=96 time=1\n",
      "note_on channel=5 note=61 velocity=86 time=2\n",
      "note_on channel=5 note=49 velocity=0 time=6\n",
      "note_on channel=5 note=52 velocity=0 time=1\n",
      "note_on channel=5 note=57 velocity=0 time=1\n",
      "note_on channel=5 note=61 velocity=0 time=2\n",
      "note_on channel=5 note=49 velocity=116 time=44\n",
      "note_on channel=5 note=52 velocity=116 time=1\n",
      "note_on channel=5 note=61 velocity=106 time=3\n",
      "note_on channel=5 note=57 velocity=116 time=0\n",
      "note_on channel=5 note=49 velocity=0 time=54\n",
      "note_on channel=5 note=52 velocity=0 time=1\n",
      "note_on channel=5 note=61 velocity=0 time=1\n",
      "note_on channel=5 note=57 velocity=0 time=0\n",
      "note_on channel=5 note=49 velocity=116 time=2\n",
      "note_on channel=5 note=54 velocity=116 time=1\n",
      "note_on channel=5 note=61 velocity=106 time=3\n",
      "note_on channel=5 note=57 velocity=116 time=0\n",
      "note_on channel=5 note=54 velocity=0 time=49\n",
      "note_on channel=5 note=61 velocity=0 time=1\n",
      "note_on channel=5 note=49 velocity=0 time=2\n",
      "note_on channel=5 note=57 velocity=0 time=0\n",
      "note_on channel=5 note=49 velocity=103 time=4\n",
      "note_on channel=5 note=54 velocity=103 time=1\n",
      "note_on channel=5 note=57 velocity=103 time=1\n",
      "note_on channel=5 note=61 velocity=94 time=2\n",
      "note_on channel=5 note=61 velocity=0 time=53\n",
      "note_on channel=5 note=54 velocity=0 time=0\n",
      "note_on channel=5 note=57 velocity=0 time=1\n",
      "note_on channel=5 note=49 velocity=0 time=0\n",
      "note_on channel=5 note=49 velocity=96 time=2\n",
      "note_on channel=5 note=54 velocity=96 time=1\n",
      "note_on channel=5 note=57 velocity=96 time=1\n",
      "note_on channel=5 note=61 velocity=86 time=2\n",
      "note_on channel=5 note=57 velocity=0 time=6\n",
      "note_on channel=5 note=49 velocity=0 time=0\n",
      "note_on channel=5 note=54 velocity=0 time=1\n",
      "note_on channel=5 note=61 velocity=0 time=3\n",
      "note_on channel=5 note=49 velocity=116 time=44\n",
      "note_on channel=5 note=54 velocity=116 time=1\n",
      "note_on channel=5 note=57 velocity=116 time=3\n",
      "note_on channel=5 note=61 velocity=106 time=0\n",
      "note_on channel=5 note=54 velocity=0 time=54\n",
      "note_on channel=5 note=49 velocity=0 time=0\n",
      "note_on channel=5 note=61 velocity=0 time=1\n",
      "note_on channel=5 note=57 velocity=0 time=1\n",
      "note_on channel=5 note=49 velocity=116 time=2\n",
      "note_on channel=5 note=54 velocity=116 time=1\n",
      "note_on channel=5 note=57 velocity=116 time=3\n",
      "note_on channel=5 note=61 velocity=106 time=0\n",
      "note_on channel=5 note=61 velocity=0 time=50\n",
      "note_on channel=5 note=57 velocity=0 time=0\n",
      "note_on channel=5 note=49 velocity=0 time=2\n",
      "note_on channel=5 note=54 velocity=0 time=1\n",
      "note_on channel=5 note=49 velocity=103 time=3\n",
      "note_on channel=5 note=54 velocity=103 time=1\n",
      "note_on channel=5 note=57 velocity=103 time=1\n",
      "note_on channel=5 note=62 velocity=94 time=2\n",
      "note_on channel=5 note=62 velocity=0 time=53\n",
      "note_on channel=5 note=57 velocity=0 time=1\n",
      "note_on channel=5 note=49 velocity=0 time=0\n",
      "note_on channel=5 note=54 velocity=0 time=1\n",
      "note_on channel=5 note=49 velocity=96 time=1\n",
      "note_on channel=5 note=54 velocity=96 time=1\n",
      "note_on channel=5 note=57 velocity=96 time=1\n",
      "note_on channel=5 note=61 velocity=86 time=2\n",
      "note_on channel=5 note=49 velocity=0 time=6\n",
      "note_on channel=5 note=54 velocity=0 time=1\n",
      "note_on channel=5 note=57 velocity=0 time=1\n",
      "note_on channel=5 note=61 velocity=0 time=2\n",
      "note_on channel=5 note=49 velocity=116 time=44\n",
      "note_on channel=5 note=54 velocity=116 time=1\n",
      "note_on channel=5 note=61 velocity=106 time=3\n",
      "note_on channel=5 note=57 velocity=116 time=0\n",
      "note_on channel=5 note=49 velocity=0 time=54\n",
      "note_on channel=5 note=54 velocity=0 time=1\n",
      "note_on channel=5 note=61 velocity=0 time=1\n",
      "note_on channel=5 note=57 velocity=0 time=0\n",
      "note_on channel=5 note=49 velocity=116 time=2\n",
      "note_on channel=5 note=54 velocity=116 time=1\n",
      "note_on channel=5 note=56 velocity=116 time=3\n",
      "note_on channel=5 note=61 velocity=106 time=0\n",
      "note_on channel=5 note=61 velocity=0 time=50\n",
      "note_on channel=5 note=56 velocity=0 time=0\n",
      "note_on channel=5 note=49 velocity=0 time=2\n",
      "note_on channel=5 note=54 velocity=0 time=1\n",
      "note_on channel=5 note=49 velocity=103 time=3\n",
      "note_on channel=5 note=54 velocity=103 time=1\n",
      "note_on channel=5 note=56 velocity=103 time=1\n",
      "note_on channel=5 note=61 velocity=94 time=2\n",
      "note_on channel=5 note=61 velocity=0 time=53\n",
      "note_on channel=5 note=56 velocity=0 time=1\n",
      "note_on channel=5 note=49 velocity=0 time=0\n",
      "note_on channel=5 note=54 velocity=0 time=1\n",
      "note_on channel=5 note=49 velocity=96 time=1\n",
      "note_on channel=5 note=54 velocity=96 time=1\n",
      "note_on channel=5 note=56 velocity=96 time=1\n",
      "note_on channel=5 note=61 velocity=86 time=2\n",
      "note_on channel=5 note=49 velocity=0 time=6\n",
      "note_on channel=5 note=54 velocity=0 time=1\n",
      "note_on channel=5 note=56 velocity=0 time=1\n",
      "note_on channel=5 note=61 velocity=0 time=2\n",
      "note_on channel=5 note=49 velocity=116 time=44\n",
      "note_on channel=5 note=54 velocity=116 time=1\n",
      "note_on channel=5 note=56 velocity=116 time=3\n",
      "note_on channel=5 note=61 velocity=106 time=0\n",
      "note_on channel=5 note=49 velocity=0 time=54\n",
      "note_on channel=5 note=54 velocity=0 time=1\n",
      "note_on channel=5 note=56 velocity=0 time=1\n",
      "note_on channel=5 note=61 velocity=0 time=0\n",
      "note_on channel=5 note=49 velocity=116 time=2\n",
      "note_on channel=5 note=53 velocity=116 time=1\n",
      "note_on channel=5 note=61 velocity=106 time=3\n",
      "note_on channel=5 note=56 velocity=116 time=0\n",
      "note_on channel=5 note=56 velocity=0 time=50\n",
      "note_on channel=5 note=61 velocity=0 time=0\n",
      "note_on channel=5 note=49 velocity=0 time=2\n",
      "note_on channel=5 note=53 velocity=0 time=1\n",
      "note_on channel=5 note=49 velocity=103 time=3\n",
      "note_on channel=5 note=53 velocity=103 time=1\n",
      "note_on channel=5 note=56 velocity=103 time=1\n",
      "note_on channel=5 note=61 velocity=94 time=2\n",
      "note_on channel=5 note=61 velocity=0 time=53\n",
      "note_on channel=5 note=56 velocity=0 time=1\n",
      "note_on channel=5 note=49 velocity=0 time=0\n",
      "note_on channel=5 note=53 velocity=0 time=1\n",
      "note_on channel=5 note=49 velocity=96 time=1\n",
      "note_on channel=5 note=53 velocity=96 time=1\n",
      "note_on channel=5 note=56 velocity=96 time=1\n",
      "note_on channel=5 note=61 velocity=86 time=2\n",
      "note_on channel=5 note=49 velocity=0 time=6\n",
      "note_on channel=5 note=53 velocity=0 time=1\n",
      "note_on channel=5 note=56 velocity=0 time=1\n",
      "note_on channel=5 note=61 velocity=0 time=2\n",
      "note_on channel=5 note=49 velocity=116 time=44\n",
      "note_on channel=5 note=53 velocity=116 time=1\n",
      "note_on channel=5 note=61 velocity=106 time=3\n",
      "note_on channel=5 note=56 velocity=116 time=0\n",
      "note_on channel=5 note=49 velocity=0 time=54\n",
      "note_on channel=5 note=53 velocity=0 time=1\n",
      "note_on channel=5 note=61 velocity=0 time=1\n",
      "note_on channel=5 note=56 velocity=0 time=0\n",
      "note_on channel=5 note=45 velocity=116 time=1912\n",
      "note_on channel=5 note=49 velocity=116 time=6\n",
      "note_on channel=5 note=54 velocity=116 time=5\n",
      "note_on channel=5 note=57 velocity=116 time=5\n",
      "note_on channel=5 note=61 velocity=106 time=5\n",
      "note_on channel=5 note=61 velocity=0 time=400\n",
      "note_on channel=5 note=54 velocity=0 time=6\n",
      "note_on channel=5 note=57 velocity=0 time=5\n",
      "note_on channel=5 note=45 velocity=0 time=16\n",
      "note_on channel=5 note=49 velocity=0 time=6\n",
      "note_on channel=5 note=45 velocity=114 time=3386\n",
      "note_on channel=5 note=50 velocity=114 time=6\n",
      "note_on channel=5 note=54 velocity=114 time=5\n",
      "note_on channel=5 note=57 velocity=114 time=5\n",
      "note_on channel=5 note=62 velocity=109 time=5\n",
      "note_on channel=5 note=45 velocity=0 time=35\n",
      "note_on channel=5 note=50 velocity=0 time=6\n",
      "note_on channel=5 note=54 velocity=0 time=1\n",
      "note_on channel=5 note=57 velocity=0 time=5\n",
      "note_on channel=5 note=50 velocity=96 time=2\n",
      "note_on channel=5 note=62 velocity=0 time=1\n",
      "note_on channel=5 note=54 velocity=96 time=0\n",
      "note_on channel=5 note=57 velocity=96 time=1\n",
      "note_on channel=5 note=62 velocity=86 time=2\n",
      "note_on channel=5 note=62 velocity=0 time=53\n",
      "note_on channel=5 note=54 velocity=0 time=0\n",
      "note_on channel=5 note=57 velocity=0 time=1\n",
      "note_on channel=5 note=50 velocity=0 time=0\n",
      "note_on channel=5 note=50 velocity=89 time=2\n",
      "note_on channel=5 note=54 velocity=89 time=1\n",
      "note_on channel=5 note=57 velocity=89 time=1\n",
      "note_on channel=5 note=62 velocity=80 time=2\n",
      "note_on channel=5 note=57 velocity=0 time=6\n",
      "note_on channel=5 note=50 velocity=0 time=0\n",
      "note_on channel=5 note=54 velocity=0 time=1\n",
      "note_on channel=5 note=62 velocity=0 time=3\n",
      "note_on channel=5 note=50 velocity=108 time=44\n",
      "note_on channel=5 note=54 velocity=108 time=1\n",
      "note_on channel=5 note=62 velocity=99 time=3\n",
      "note_on channel=5 note=57 velocity=108 time=0\n",
      "note_on channel=5 note=54 velocity=0 time=54\n",
      "note_on channel=5 note=50 velocity=0 time=0\n",
      "note_on channel=5 note=62 velocity=0 time=1\n",
      "note_on channel=5 note=57 velocity=0 time=1\n",
      "note_on channel=5 note=50 velocity=108 time=2\n",
      "note_on channel=5 note=54 velocity=108 time=1\n",
      "note_on channel=5 note=57 velocity=108 time=3\n",
      "note_on channel=5 note=62 velocity=99 time=0\n",
      "note_on channel=5 note=62 velocity=0 time=50\n",
      "note_on channel=5 note=57 velocity=0 time=0\n",
      "note_on channel=5 note=50 velocity=0 time=2\n",
      "note_on channel=5 note=54 velocity=0 time=1\n",
      "note_on channel=5 note=50 velocity=96 time=3\n",
      "note_on channel=5 note=54 velocity=96 time=1\n",
      "note_on channel=5 note=57 velocity=96 time=1\n",
      "note_on channel=5 note=62 velocity=86 time=2\n",
      "note_on channel=5 note=62 velocity=0 time=53\n",
      "note_on channel=5 note=57 velocity=0 time=1\n",
      "note_on channel=5 note=50 velocity=0 time=0\n",
      "note_on channel=5 note=54 velocity=0 time=1\n",
      "note_on channel=5 note=50 velocity=89 time=1\n",
      "note_on channel=5 note=54 velocity=89 time=1\n",
      "note_on channel=5 note=57 velocity=89 time=1\n",
      "note_on channel=5 note=62 velocity=80 time=2\n",
      "note_on channel=5 note=50 velocity=0 time=6\n",
      "note_on channel=5 note=54 velocity=0 time=1\n",
      "note_on channel=5 note=57 velocity=0 time=1\n",
      "note_on channel=5 note=62 velocity=0 time=2\n",
      "note_on channel=5 note=50 velocity=108 time=44\n",
      "note_on channel=5 note=54 velocity=108 time=1\n",
      "note_on channel=5 note=57 velocity=108 time=3\n",
      "note_on channel=5 note=62 velocity=99 time=0\n",
      "note_on channel=5 note=50 velocity=0 time=54\n",
      "note_on channel=5 note=54 velocity=0 time=1\n",
      "note_on channel=5 note=57 velocity=0 time=1\n",
      "note_on channel=5 note=62 velocity=0 time=0\n",
      "note_on channel=5 note=52 velocity=108 time=2\n",
      "note_on channel=5 note=56 velocity=108 time=1\n",
      "note_on channel=5 note=59 velocity=108 time=3\n",
      "note_on channel=5 note=64 velocity=99 time=0\n",
      "note_on channel=5 note=64 velocity=0 time=50\n",
      "note_on channel=5 note=59 velocity=0 time=0\n",
      "note_on channel=5 note=52 velocity=0 time=2\n",
      "note_on channel=5 note=56 velocity=0 time=1\n",
      "note_on channel=5 note=52 velocity=96 time=3\n",
      "note_on channel=5 note=56 velocity=96 time=1\n",
      "note_on channel=5 note=59 velocity=96 time=1\n",
      "note_on channel=5 note=64 velocity=86 time=2\n",
      "note_on channel=5 note=64 velocity=0 time=53\n",
      "note_on channel=5 note=59 velocity=0 time=1\n",
      "note_on channel=5 note=52 velocity=0 time=0\n",
      "note_on channel=5 note=56 velocity=0 time=1\n",
      "note_on channel=5 note=52 velocity=89 time=1\n",
      "note_on channel=5 note=56 velocity=89 time=1\n",
      "note_on channel=5 note=59 velocity=89 time=1\n",
      "note_on channel=5 note=64 velocity=80 time=2\n",
      "note_on channel=5 note=52 velocity=0 time=6\n",
      "note_on channel=5 note=56 velocity=0 time=1\n",
      "note_on channel=5 note=59 velocity=0 time=1\n",
      "note_on channel=5 note=64 velocity=0 time=2\n",
      "note_on channel=5 note=49 velocity=108 time=44\n",
      "note_on channel=5 note=52 velocity=108 time=1\n",
      "note_on channel=5 note=61 velocity=99 time=3\n",
      "note_on channel=5 note=57 velocity=108 time=0\n",
      "note_on channel=5 note=49 velocity=0 time=54\n",
      "note_on channel=5 note=52 velocity=0 time=1\n",
      "note_on channel=5 note=61 velocity=0 time=1\n",
      "note_on channel=5 note=57 velocity=0 time=0\n",
      "note_on channel=5 note=49 velocity=108 time=2\n",
      "note_on channel=5 note=52 velocity=108 time=1\n",
      "note_on channel=5 note=57 velocity=108 time=3\n",
      "note_on channel=5 note=61 velocity=99 time=0\n",
      "note_on channel=5 note=61 velocity=0 time=50\n",
      "note_on channel=5 note=57 velocity=0 time=0\n",
      "note_on channel=5 note=49 velocity=0 time=2\n",
      "note_on channel=5 note=52 velocity=0 time=1\n",
      "note_on channel=5 note=49 velocity=96 time=3\n",
      "note_on channel=5 note=52 velocity=96 time=1\n",
      "note_on channel=5 note=57 velocity=96 time=1\n",
      "note_on channel=5 note=61 velocity=86 time=2\n",
      "note_on channel=5 note=61 velocity=0 time=53\n",
      "note_on channel=5 note=57 velocity=0 time=1\n",
      "note_on channel=5 note=49 velocity=0 time=0\n",
      "note_on channel=5 note=52 velocity=0 time=1\n",
      "note_on channel=5 note=49 velocity=89 time=1\n",
      "note_on channel=5 note=52 velocity=89 time=1\n",
      "note_on channel=5 note=57 velocity=89 time=1\n",
      "note_on channel=5 note=61 velocity=80 time=2\n",
      "note_on channel=5 note=49 velocity=0 time=6\n",
      "note_on channel=5 note=52 velocity=0 time=1\n",
      "note_on channel=5 note=57 velocity=0 time=1\n",
      "note_on channel=5 note=61 velocity=0 time=2\n",
      "note_on channel=5 note=49 velocity=108 time=44\n",
      "note_on channel=5 note=52 velocity=108 time=1\n",
      "note_on channel=5 note=61 velocity=99 time=3\n",
      "note_on channel=5 note=57 velocity=108 time=0\n",
      "note_on channel=5 note=45 velocity=114 time=48\n",
      "note_on channel=5 note=49 velocity=0 time=6\n",
      "note_on channel=5 note=49 velocity=114 time=0\n",
      "note_on channel=5 note=52 velocity=0 time=1\n",
      "note_on channel=5 note=57 velocity=0 time=1\n",
      "note_on channel=5 note=61 velocity=0 time=0\n",
      "note_on channel=5 note=54 velocity=114 time=3\n",
      "note_on channel=5 note=57 velocity=114 time=5\n",
      "note_on channel=5 note=61 velocity=109 time=5\n",
      "note_on channel=5 note=45 velocity=0 time=35\n",
      "note_on channel=5 note=49 velocity=0 time=6\n",
      "note_on channel=5 note=54 velocity=0 time=1\n",
      "note_on channel=5 note=57 velocity=0 time=5\n",
      "note_on channel=5 note=49 velocity=96 time=2\n",
      "note_on channel=5 note=61 velocity=0 time=1\n",
      "note_on channel=5 note=54 velocity=96 time=0\n",
      "note_on channel=5 note=57 velocity=96 time=1\n",
      "note_on channel=5 note=61 velocity=86 time=2\n",
      "note_on channel=5 note=61 velocity=0 time=53\n",
      "note_on channel=5 note=54 velocity=0 time=0\n",
      "note_on channel=5 note=57 velocity=0 time=1\n",
      "note_on channel=5 note=49 velocity=0 time=0\n",
      "note_on channel=5 note=49 velocity=89 time=2\n",
      "note_on channel=5 note=54 velocity=89 time=1\n",
      "note_on channel=5 note=57 velocity=89 time=1\n",
      "note_on channel=5 note=61 velocity=80 time=2\n",
      "note_on channel=5 note=57 velocity=0 time=6\n",
      "note_on channel=5 note=49 velocity=0 time=0\n",
      "note_on channel=5 note=54 velocity=0 time=1\n",
      "note_on channel=5 note=61 velocity=0 time=3\n",
      "note_on channel=5 note=49 velocity=108 time=44\n",
      "note_on channel=5 note=54 velocity=108 time=1\n",
      "note_on channel=5 note=57 velocity=108 time=3\n",
      "note_on channel=5 note=61 velocity=99 time=0\n",
      "note_on channel=5 note=54 velocity=0 time=54\n",
      "note_on channel=5 note=49 velocity=0 time=0\n",
      "note_on channel=5 note=61 velocity=0 time=1\n",
      "note_on channel=5 note=57 velocity=0 time=1\n",
      "note_on channel=5 note=49 velocity=108 time=2\n",
      "note_on channel=5 note=54 velocity=108 time=1\n",
      "note_on channel=5 note=57 velocity=108 time=3\n",
      "note_on channel=5 note=61 velocity=99 time=0\n",
      "note_on channel=5 note=61 velocity=0 time=50\n",
      "note_on channel=5 note=57 velocity=0 time=0\n",
      "note_on channel=5 note=49 velocity=0 time=2\n",
      "note_on channel=5 note=54 velocity=0 time=1\n",
      "note_on channel=5 note=49 velocity=96 time=3\n",
      "note_on channel=5 note=54 velocity=96 time=1\n",
      "note_on channel=5 note=57 velocity=96 time=1\n",
      "note_on channel=5 note=61 velocity=86 time=2\n",
      "note_on channel=5 note=61 velocity=0 time=53\n",
      "note_on channel=5 note=57 velocity=0 time=1\n",
      "note_on channel=5 note=49 velocity=0 time=0\n",
      "note_on channel=5 note=54 velocity=0 time=1\n",
      "note_on channel=5 note=49 velocity=89 time=1\n",
      "note_on channel=5 note=54 velocity=89 time=1\n",
      "note_on channel=5 note=57 velocity=89 time=1\n",
      "note_on channel=5 note=61 velocity=80 time=2\n",
      "note_on channel=5 note=49 velocity=0 time=6\n",
      "note_on channel=5 note=54 velocity=0 time=1\n",
      "note_on channel=5 note=57 velocity=0 time=1\n",
      "note_on channel=5 note=61 velocity=0 time=2\n",
      "note_on channel=5 note=49 velocity=108 time=44\n",
      "note_on channel=5 note=54 velocity=108 time=1\n",
      "note_on channel=5 note=61 velocity=99 time=3\n",
      "note_on channel=5 note=57 velocity=108 time=0\n",
      "note_on channel=5 note=49 velocity=0 time=54\n",
      "note_on channel=5 note=54 velocity=0 time=1\n",
      "note_on channel=5 note=61 velocity=0 time=1\n",
      "note_on channel=5 note=57 velocity=0 time=0\n",
      "note_on channel=5 note=52 velocity=108 time=0\n",
      "note_on channel=5 note=56 velocity=108 time=3\n",
      "note_on channel=5 note=59 velocity=108 time=3\n",
      "note_on channel=5 note=64 velocity=99 time=3\n",
      "note_on channel=5 note=52 velocity=0 time=170\n",
      "note_on channel=5 note=56 velocity=0 time=3\n",
      "note_on channel=5 note=59 velocity=0 time=3\n",
      "note_on channel=5 note=64 velocity=0 time=3\n",
      "note_on channel=5 note=47 velocity=127 time=284\n",
      "note_on channel=5 note=52 velocity=127 time=6\n",
      "note_on channel=5 note=56 velocity=127 time=5\n",
      "note_on channel=5 note=59 velocity=127 time=5\n",
      "note_on channel=5 note=64 velocity=127 time=5\n",
      "note_on channel=5 note=47 velocity=0 time=35\n",
      "note_on channel=5 note=52 velocity=0 time=6\n",
      "note_on channel=5 note=56 velocity=0 time=1\n",
      "note_on channel=5 note=59 velocity=0 time=5\n",
      "note_on channel=5 note=52 velocity=103 time=2\n",
      "note_on channel=5 note=64 velocity=0 time=1\n",
      "note_on channel=5 note=56 velocity=103 time=0\n",
      "note_on channel=5 note=59 velocity=103 time=1\n",
      "note_on channel=5 note=64 velocity=94 time=2\n",
      "note_on channel=5 note=64 velocity=0 time=53\n",
      "note_on channel=5 note=56 velocity=0 time=0\n",
      "note_on channel=5 note=59 velocity=0 time=1\n",
      "note_on channel=5 note=52 velocity=0 time=0\n",
      "note_on channel=5 note=52 velocity=96 time=2\n",
      "note_on channel=5 note=56 velocity=96 time=1\n",
      "note_on channel=5 note=59 velocity=96 time=1\n",
      "note_on channel=5 note=64 velocity=86 time=2\n",
      "note_on channel=5 note=59 velocity=0 time=6\n",
      "note_on channel=5 note=52 velocity=0 time=0\n",
      "note_on channel=5 note=56 velocity=0 time=1\n",
      "note_on channel=5 note=64 velocity=0 time=3\n",
      "note_on channel=5 note=52 velocity=116 time=44\n",
      "note_on channel=5 note=56 velocity=116 time=1\n",
      "note_on channel=5 note=59 velocity=116 time=3\n",
      "note_on channel=5 note=64 velocity=106 time=0\n",
      "note_on channel=5 note=56 velocity=0 time=54\n",
      "note_on channel=5 note=52 velocity=0 time=0\n",
      "note_on channel=5 note=64 velocity=0 time=1\n",
      "note_on channel=5 note=59 velocity=0 time=1\n",
      "note_on channel=5 note=52 velocity=116 time=2\n",
      "note_on channel=5 note=56 velocity=116 time=1\n",
      "note_on channel=5 note=64 velocity=106 time=3\n",
      "note_on channel=5 note=59 velocity=116 time=0\n",
      "note_on channel=5 note=59 velocity=0 time=50\n",
      "note_on channel=5 note=64 velocity=0 time=0\n",
      "note_on channel=5 note=52 velocity=0 time=2\n",
      "note_on channel=5 note=56 velocity=0 time=1\n",
      "note_on channel=5 note=52 velocity=103 time=3\n",
      "note_on channel=5 note=56 velocity=103 time=1\n",
      "note_on channel=5 note=59 velocity=103 time=1\n",
      "note_on channel=5 note=64 velocity=94 time=2\n",
      "note_on channel=5 note=64 velocity=0 time=53\n",
      "note_on channel=5 note=59 velocity=0 time=1\n",
      "note_on channel=5 note=52 velocity=0 time=0\n",
      "note_on channel=5 note=56 velocity=0 time=1\n",
      "note_on channel=5 note=52 velocity=96 time=1\n",
      "note_on channel=5 note=56 velocity=96 time=1\n",
      "note_on channel=5 note=59 velocity=96 time=1\n",
      "note_on channel=5 note=64 velocity=86 time=2\n",
      "note_on channel=5 note=52 velocity=0 time=6\n",
      "note_on channel=5 note=56 velocity=0 time=1\n",
      "note_on channel=5 note=59 velocity=0 time=1\n",
      "note_on channel=5 note=64 velocity=0 time=2\n",
      "note_on channel=5 note=52 velocity=116 time=44\n",
      "note_on channel=5 note=56 velocity=116 time=1\n",
      "note_on channel=5 note=64 velocity=106 time=3\n",
      "note_on channel=5 note=59 velocity=116 time=0\n",
      "note_on channel=5 note=52 velocity=0 time=54\n",
      "note_on channel=5 note=56 velocity=0 time=1\n",
      "note_on channel=5 note=64 velocity=0 time=1\n",
      "note_on channel=5 note=59 velocity=0 time=0\n",
      "note_on channel=5 note=49 velocity=116 time=2\n",
      "note_on channel=5 note=54 velocity=116 time=1\n",
      "note_on channel=5 note=61 velocity=106 time=3\n",
      "note_on channel=5 note=58 velocity=116 time=0\n",
      "note_on channel=5 note=58 velocity=0 time=50\n",
      "note_on channel=5 note=61 velocity=0 time=0\n",
      "note_on channel=5 note=49 velocity=0 time=2\n",
      "note_on channel=5 note=54 velocity=0 time=1\n",
      "note_on channel=5 note=49 velocity=103 time=3\n",
      "note_on channel=5 note=54 velocity=103 time=1\n",
      "note_on channel=5 note=58 velocity=103 time=1\n",
      "note_on channel=5 note=61 velocity=94 time=2\n",
      "note_on channel=5 note=61 velocity=0 time=53\n",
      "note_on channel=5 note=58 velocity=0 time=1\n",
      "note_on channel=5 note=49 velocity=0 time=0\n",
      "note_on channel=5 note=54 velocity=0 time=1\n",
      "note_on channel=5 note=49 velocity=96 time=1\n",
      "note_on channel=5 note=54 velocity=96 time=1\n",
      "note_on channel=5 note=58 velocity=96 time=1\n",
      "note_on channel=5 note=61 velocity=86 time=2\n",
      "note_on channel=5 note=49 velocity=0 time=6\n",
      "note_on channel=5 note=54 velocity=0 time=1\n",
      "note_on channel=5 note=58 velocity=0 time=1\n",
      "note_on channel=5 note=61 velocity=0 time=2\n",
      "note_on channel=5 note=51 velocity=116 time=44\n",
      "note_on channel=5 note=54 velocity=116 time=1\n",
      "note_on channel=5 note=63 velocity=106 time=3\n",
      "note_on channel=5 note=59 velocity=116 time=0\n",
      "note_on channel=5 note=51 velocity=0 time=54\n",
      "note_on channel=5 note=54 velocity=0 time=1\n",
      "note_on channel=5 note=63 velocity=0 time=1\n",
      "note_on channel=5 note=59 velocity=0 time=0\n",
      "note_on channel=5 note=51 velocity=116 time=2\n",
      "note_on channel=5 note=54 velocity=116 time=1\n",
      "note_on channel=5 note=63 velocity=106 time=3\n",
      "note_on channel=5 note=59 velocity=116 time=0\n",
      "note_on channel=5 note=59 velocity=0 time=50\n",
      "note_on channel=5 note=63 velocity=0 time=0\n",
      "note_on channel=5 note=51 velocity=0 time=2\n",
      "note_on channel=5 note=54 velocity=0 time=1\n",
      "note_on channel=5 note=51 velocity=103 time=3\n",
      "note_on channel=5 note=54 velocity=103 time=1\n",
      "note_on channel=5 note=59 velocity=103 time=1\n",
      "note_on channel=5 note=63 velocity=94 time=2\n",
      "note_on channel=5 note=63 velocity=0 time=53\n",
      "note_on channel=5 note=59 velocity=0 time=1\n",
      "note_on channel=5 note=51 velocity=0 time=0\n",
      "note_on channel=5 note=54 velocity=0 time=1\n",
      "note_on channel=5 note=51 velocity=96 time=1\n",
      "note_on channel=5 note=54 velocity=96 time=1\n",
      "note_on channel=5 note=59 velocity=96 time=1\n",
      "note_on channel=5 note=63 velocity=86 time=2\n",
      "note_on channel=5 note=51 velocity=0 time=6\n",
      "note_on channel=5 note=54 velocity=0 time=1\n",
      "note_on channel=5 note=59 velocity=0 time=1\n",
      "note_on channel=5 note=63 velocity=0 time=2\n",
      "note_on channel=5 note=51 velocity=116 time=44\n",
      "note_on channel=5 note=54 velocity=116 time=1\n",
      "note_on channel=5 note=63 velocity=106 time=3\n",
      "note_on channel=5 note=59 velocity=116 time=0\n",
      "note_on channel=5 note=47 velocity=127 time=48\n",
      "note_on channel=5 note=51 velocity=0 time=6\n",
      "note_on channel=5 note=52 velocity=127 time=0\n",
      "note_on channel=5 note=54 velocity=0 time=1\n",
      "note_on channel=5 note=59 velocity=0 time=1\n",
      "note_on channel=5 note=63 velocity=0 time=0\n",
      "note_on channel=5 note=56 velocity=127 time=3\n",
      "note_on channel=5 note=59 velocity=127 time=5\n",
      "note_on channel=5 note=64 velocity=122 time=5\n",
      "note_on channel=5 note=47 velocity=0 time=35\n",
      "note_on channel=5 note=52 velocity=0 time=6\n",
      "note_on channel=5 note=56 velocity=0 time=1\n",
      "note_on channel=5 note=59 velocity=0 time=5\n",
      "note_on channel=5 note=52 velocity=103 time=2\n",
      "note_on channel=5 note=64 velocity=0 time=1\n",
      "note_on channel=5 note=56 velocity=103 time=0\n",
      "note_on channel=5 note=59 velocity=103 time=1\n",
      "note_on channel=5 note=64 velocity=94 time=2\n",
      "note_on channel=5 note=64 velocity=0 time=53\n",
      "note_on channel=5 note=56 velocity=0 time=0\n",
      "note_on channel=5 note=59 velocity=0 time=1\n",
      "note_on channel=5 note=52 velocity=0 time=0\n",
      "note_on channel=5 note=52 velocity=96 time=2\n",
      "note_on channel=5 note=56 velocity=96 time=1\n",
      "note_on channel=5 note=59 velocity=96 time=1\n",
      "note_on channel=5 note=64 velocity=86 time=2\n",
      "note_on channel=5 note=59 velocity=0 time=6\n",
      "note_on channel=5 note=52 velocity=0 time=0\n",
      "note_on channel=5 note=56 velocity=0 time=1\n",
      "note_on channel=5 note=64 velocity=0 time=3\n",
      "note_on channel=5 note=52 velocity=116 time=44\n",
      "note_on channel=5 note=56 velocity=116 time=1\n",
      "note_on channel=5 note=64 velocity=106 time=3\n",
      "note_on channel=5 note=59 velocity=116 time=0\n",
      "note_on channel=5 note=56 velocity=0 time=54\n",
      "note_on channel=5 note=52 velocity=0 time=0\n",
      "note_on channel=5 note=64 velocity=0 time=1\n",
      "note_on channel=5 note=59 velocity=0 time=1\n",
      "note_on channel=5 note=52 velocity=116 time=2\n",
      "note_on channel=5 note=56 velocity=116 time=1\n",
      "note_on channel=5 note=64 velocity=106 time=3\n",
      "note_on channel=5 note=59 velocity=116 time=0\n",
      "note_on channel=5 note=59 velocity=0 time=50\n",
      "note_on channel=5 note=64 velocity=0 time=0\n",
      "note_on channel=5 note=52 velocity=0 time=2\n",
      "note_on channel=5 note=56 velocity=0 time=1\n",
      "note_on channel=5 note=52 velocity=103 time=3\n",
      "note_on channel=5 note=56 velocity=103 time=1\n",
      "note_on channel=5 note=59 velocity=103 time=1\n",
      "note_on channel=5 note=64 velocity=94 time=2\n",
      "note_on channel=5 note=64 velocity=0 time=53\n",
      "note_on channel=5 note=59 velocity=0 time=1\n",
      "note_on channel=5 note=52 velocity=0 time=0\n",
      "note_on channel=5 note=56 velocity=0 time=1\n",
      "note_on channel=5 note=52 velocity=96 time=1\n",
      "note_on channel=5 note=56 velocity=96 time=1\n",
      "note_on channel=5 note=59 velocity=96 time=1\n",
      "note_on channel=5 note=64 velocity=86 time=2\n",
      "note_on channel=5 note=52 velocity=0 time=6\n",
      "note_on channel=5 note=56 velocity=0 time=1\n",
      "note_on channel=5 note=59 velocity=0 time=1\n",
      "note_on channel=5 note=64 velocity=0 time=2\n",
      "note_on channel=5 note=52 velocity=116 time=44\n",
      "note_on channel=5 note=56 velocity=116 time=1\n",
      "note_on channel=5 note=59 velocity=116 time=3\n",
      "note_on channel=5 note=64 velocity=106 time=0\n",
      "note_on channel=5 note=52 velocity=0 time=54\n",
      "note_on channel=5 note=56 velocity=0 time=1\n",
      "note_on channel=5 note=59 velocity=0 time=1\n",
      "note_on channel=5 note=64 velocity=0 time=0\n",
      "note_on channel=5 note=49 velocity=116 time=2\n",
      "note_on channel=5 note=54 velocity=116 time=1\n",
      "note_on channel=5 note=58 velocity=116 time=3\n",
      "note_on channel=5 note=61 velocity=106 time=0\n",
      "note_on channel=5 note=61 velocity=0 time=50\n",
      "note_on channel=5 note=58 velocity=0 time=0\n",
      "note_on channel=5 note=49 velocity=0 time=2\n",
      "note_on channel=5 note=54 velocity=0 time=1\n",
      "note_on channel=5 note=49 velocity=103 time=3\n",
      "note_on channel=5 note=54 velocity=103 time=1\n",
      "note_on channel=5 note=58 velocity=103 time=1\n",
      "note_on channel=5 note=61 velocity=94 time=2\n",
      "note_on channel=5 note=61 velocity=0 time=53\n",
      "note_on channel=5 note=58 velocity=0 time=1\n",
      "note_on channel=5 note=49 velocity=0 time=0\n",
      "note_on channel=5 note=54 velocity=0 time=1\n",
      "note_on channel=5 note=49 velocity=96 time=1\n",
      "note_on channel=5 note=54 velocity=96 time=1\n",
      "note_on channel=5 note=58 velocity=96 time=1\n",
      "note_on channel=5 note=61 velocity=86 time=2\n",
      "note_on channel=5 note=49 velocity=0 time=6\n",
      "note_on channel=5 note=54 velocity=0 time=1\n",
      "note_on channel=5 note=58 velocity=0 time=1\n",
      "note_on channel=5 note=61 velocity=0 time=2\n",
      "note_on channel=5 note=51 velocity=116 time=44\n",
      "note_on channel=5 note=54 velocity=116 time=1\n",
      "note_on channel=5 note=63 velocity=106 time=3\n",
      "note_on channel=5 note=59 velocity=116 time=0\n",
      "note_on channel=5 note=51 velocity=0 time=54\n",
      "note_on channel=5 note=54 velocity=0 time=1\n",
      "note_on channel=5 note=63 velocity=0 time=1\n",
      "note_on channel=5 note=59 velocity=0 time=0\n",
      "note_on channel=5 note=51 velocity=116 time=2\n",
      "note_on channel=5 note=54 velocity=116 time=1\n",
      "note_on channel=5 note=63 velocity=106 time=3\n",
      "note_on channel=5 note=59 velocity=116 time=0\n",
      "note_on channel=5 note=59 velocity=0 time=50\n",
      "note_on channel=5 note=63 velocity=0 time=0\n",
      "note_on channel=5 note=51 velocity=0 time=2\n",
      "note_on channel=5 note=54 velocity=0 time=1\n",
      "note_on channel=5 note=51 velocity=103 time=3\n",
      "note_on channel=5 note=54 velocity=103 time=1\n",
      "note_on channel=5 note=59 velocity=103 time=1\n",
      "note_on channel=5 note=63 velocity=94 time=2\n",
      "note_on channel=5 note=63 velocity=0 time=53\n",
      "note_on channel=5 note=59 velocity=0 time=1\n",
      "note_on channel=5 note=51 velocity=0 time=0\n",
      "note_on channel=5 note=54 velocity=0 time=1\n",
      "note_on channel=5 note=51 velocity=96 time=1\n",
      "note_on channel=5 note=54 velocity=96 time=1\n",
      "note_on channel=5 note=59 velocity=96 time=1\n",
      "note_on channel=5 note=63 velocity=86 time=2\n",
      "note_on channel=5 note=51 velocity=0 time=6\n",
      "note_on channel=5 note=54 velocity=0 time=1\n",
      "note_on channel=5 note=59 velocity=0 time=1\n",
      "note_on channel=5 note=63 velocity=0 time=2\n",
      "note_on channel=5 note=51 velocity=116 time=44\n",
      "note_on channel=5 note=54 velocity=116 time=1\n",
      "note_on channel=5 note=59 velocity=116 time=3\n",
      "note_on channel=5 note=63 velocity=106 time=0\n",
      "note_on channel=5 note=47 velocity=127 time=48\n",
      "note_on channel=5 note=51 velocity=0 time=6\n",
      "note_on channel=5 note=52 velocity=127 time=0\n",
      "note_on channel=5 note=54 velocity=0 time=1\n",
      "note_on channel=5 note=63 velocity=0 time=1\n",
      "note_on channel=5 note=59 velocity=0 time=0\n",
      "note_on channel=5 note=56 velocity=127 time=3\n",
      "note_on channel=5 note=59 velocity=127 time=5\n",
      "note_on channel=5 note=64 velocity=122 time=5\n",
      "note_on channel=5 note=47 velocity=0 time=35\n",
      "note_on channel=5 note=52 velocity=0 time=6\n",
      "note_on channel=5 note=56 velocity=0 time=1\n",
      "note_on channel=5 note=59 velocity=0 time=5\n",
      "note_on channel=5 note=52 velocity=103 time=2\n",
      "note_on channel=5 note=64 velocity=0 time=1\n",
      "note_on channel=5 note=56 velocity=103 time=0\n",
      "note_on channel=5 note=59 velocity=103 time=1\n",
      "note_on channel=5 note=64 velocity=94 time=2\n",
      "note_on channel=5 note=64 velocity=0 time=53\n",
      "note_on channel=5 note=56 velocity=0 time=0\n",
      "note_on channel=5 note=59 velocity=0 time=1\n",
      "note_on channel=5 note=52 velocity=0 time=0\n",
      "note_on channel=5 note=52 velocity=96 time=2\n",
      "note_on channel=5 note=56 velocity=96 time=1\n",
      "note_on channel=5 note=59 velocity=96 time=1\n",
      "note_on channel=5 note=64 velocity=86 time=2\n",
      "note_on channel=5 note=59 velocity=0 time=6\n",
      "note_on channel=5 note=52 velocity=0 time=0\n",
      "note_on channel=5 note=56 velocity=0 time=1\n",
      "note_on channel=5 note=64 velocity=0 time=3\n",
      "note_on channel=5 note=52 velocity=116 time=44\n",
      "note_on channel=5 note=56 velocity=116 time=1\n",
      "note_on channel=5 note=59 velocity=116 time=3\n",
      "note_on channel=5 note=64 velocity=106 time=0\n",
      "note_on channel=5 note=56 velocity=0 time=54\n",
      "note_on channel=5 note=52 velocity=0 time=0\n",
      "note_on channel=5 note=64 velocity=0 time=1\n",
      "note_on channel=5 note=59 velocity=0 time=1\n",
      "note_on channel=5 note=52 velocity=116 time=2\n",
      "note_on channel=5 note=56 velocity=116 time=1\n",
      "note_on channel=5 note=59 velocity=116 time=3\n",
      "note_on channel=5 note=64 velocity=106 time=0\n",
      "note_on channel=5 note=64 velocity=0 time=50\n",
      "note_on channel=5 note=59 velocity=0 time=0\n",
      "note_on channel=5 note=52 velocity=0 time=2\n",
      "note_on channel=5 note=56 velocity=0 time=1\n",
      "note_on channel=5 note=52 velocity=103 time=3\n",
      "note_on channel=5 note=56 velocity=103 time=1\n",
      "note_on channel=5 note=59 velocity=103 time=1\n",
      "note_on channel=5 note=64 velocity=94 time=2\n",
      "note_on channel=5 note=64 velocity=0 time=53\n",
      "note_on channel=5 note=59 velocity=0 time=1\n",
      "note_on channel=5 note=52 velocity=0 time=0\n",
      "note_on channel=5 note=56 velocity=0 time=1\n",
      "note_on channel=5 note=52 velocity=96 time=1\n",
      "note_on channel=5 note=56 velocity=96 time=1\n",
      "note_on channel=5 note=59 velocity=96 time=1\n",
      "note_on channel=5 note=64 velocity=86 time=2\n",
      "note_on channel=5 note=52 velocity=0 time=6\n",
      "note_on channel=5 note=56 velocity=0 time=1\n",
      "note_on channel=5 note=59 velocity=0 time=1\n",
      "note_on channel=5 note=64 velocity=0 time=2\n",
      "note_on channel=5 note=52 velocity=116 time=44\n",
      "note_on channel=5 note=56 velocity=116 time=1\n",
      "note_on channel=5 note=64 velocity=106 time=3\n",
      "note_on channel=5 note=59 velocity=116 time=0\n",
      "note_on channel=5 note=52 velocity=0 time=54\n",
      "note_on channel=5 note=56 velocity=0 time=1\n",
      "note_on channel=5 note=64 velocity=0 time=1\n",
      "note_on channel=5 note=59 velocity=0 time=0\n",
      "note_on channel=5 note=49 velocity=116 time=2\n",
      "note_on channel=5 note=54 velocity=116 time=1\n",
      "note_on channel=5 note=58 velocity=116 time=3\n",
      "note_on channel=5 note=61 velocity=106 time=0\n",
      "note_on channel=5 note=61 velocity=0 time=50\n",
      "note_on channel=5 note=58 velocity=0 time=0\n",
      "note_on channel=5 note=49 velocity=0 time=2\n",
      "note_on channel=5 note=54 velocity=0 time=1\n",
      "note_on channel=5 note=49 velocity=103 time=3\n",
      "note_on channel=5 note=54 velocity=103 time=1\n",
      "note_on channel=5 note=58 velocity=103 time=1\n",
      "note_on channel=5 note=61 velocity=94 time=2\n",
      "note_on channel=5 note=61 velocity=0 time=53\n",
      "note_on channel=5 note=58 velocity=0 time=1\n",
      "note_on channel=5 note=49 velocity=0 time=0\n",
      "note_on channel=5 note=54 velocity=0 time=1\n",
      "note_on channel=5 note=49 velocity=96 time=1\n",
      "note_on channel=5 note=54 velocity=96 time=1\n",
      "note_on channel=5 note=58 velocity=96 time=1\n",
      "note_on channel=5 note=61 velocity=86 time=2\n",
      "note_on channel=5 note=49 velocity=0 time=6\n",
      "note_on channel=5 note=54 velocity=0 time=1\n",
      "note_on channel=5 note=58 velocity=0 time=1\n",
      "note_on channel=5 note=61 velocity=0 time=2\n",
      "note_on channel=5 note=51 velocity=116 time=44\n",
      "note_on channel=5 note=54 velocity=116 time=1\n",
      "note_on channel=5 note=63 velocity=106 time=3\n",
      "note_on channel=5 note=59 velocity=116 time=0\n",
      "note_on channel=5 note=51 velocity=0 time=54\n",
      "note_on channel=5 note=54 velocity=0 time=1\n",
      "note_on channel=5 note=63 velocity=0 time=1\n",
      "note_on channel=5 note=59 velocity=0 time=0\n",
      "note_on channel=5 note=51 velocity=116 time=2\n",
      "note_on channel=5 note=54 velocity=116 time=1\n",
      "note_on channel=5 note=63 velocity=106 time=3\n",
      "note_on channel=5 note=59 velocity=116 time=0\n",
      "note_on channel=5 note=59 velocity=0 time=50\n",
      "note_on channel=5 note=63 velocity=0 time=0\n",
      "note_on channel=5 note=51 velocity=0 time=2\n",
      "note_on channel=5 note=54 velocity=0 time=1\n",
      "note_on channel=5 note=51 velocity=103 time=3\n",
      "note_on channel=5 note=54 velocity=103 time=1\n",
      "note_on channel=5 note=59 velocity=103 time=1\n",
      "note_on channel=5 note=63 velocity=94 time=2\n",
      "note_on channel=5 note=63 velocity=0 time=53\n",
      "note_on channel=5 note=59 velocity=0 time=1\n",
      "note_on channel=5 note=51 velocity=0 time=0\n",
      "note_on channel=5 note=54 velocity=0 time=1\n",
      "note_on channel=5 note=51 velocity=96 time=1\n",
      "note_on channel=5 note=54 velocity=96 time=1\n",
      "note_on channel=5 note=59 velocity=96 time=1\n",
      "note_on channel=5 note=63 velocity=86 time=2\n",
      "note_on channel=5 note=51 velocity=0 time=6\n",
      "note_on channel=5 note=54 velocity=0 time=1\n",
      "note_on channel=5 note=59 velocity=0 time=1\n",
      "note_on channel=5 note=63 velocity=0 time=2\n",
      "note_on channel=5 note=51 velocity=116 time=44\n",
      "note_on channel=5 note=54 velocity=116 time=1\n",
      "note_on channel=5 note=63 velocity=106 time=3\n",
      "note_on channel=5 note=59 velocity=116 time=0\n",
      "note_on channel=5 note=47 velocity=127 time=48\n",
      "note_on channel=5 note=51 velocity=0 time=6\n",
      "note_on channel=5 note=51 velocity=127 time=0\n",
      "note_on channel=5 note=54 velocity=0 time=1\n",
      "note_on channel=5 note=59 velocity=0 time=1\n",
      "note_on channel=5 note=63 velocity=0 time=0\n",
      "note_on channel=5 note=56 velocity=127 time=3\n",
      "note_on channel=5 note=59 velocity=127 time=5\n",
      "note_on channel=5 note=63 velocity=122 time=5\n",
      "note_on channel=5 note=47 velocity=0 time=35\n",
      "note_on channel=5 note=51 velocity=0 time=6\n",
      "note_on channel=5 note=56 velocity=0 time=1\n",
      "note_on channel=5 note=59 velocity=0 time=5\n",
      "note_on channel=5 note=51 velocity=103 time=2\n",
      "note_on channel=5 note=63 velocity=0 time=1\n",
      "note_on channel=5 note=56 velocity=103 time=0\n",
      "note_on channel=5 note=59 velocity=103 time=1\n",
      "note_on channel=5 note=63 velocity=94 time=2\n",
      "note_on channel=5 note=63 velocity=0 time=53\n",
      "note_on channel=5 note=56 velocity=0 time=0\n",
      "note_on channel=5 note=59 velocity=0 time=1\n",
      "note_on channel=5 note=51 velocity=0 time=0\n",
      "note_on channel=5 note=51 velocity=96 time=2\n",
      "note_on channel=5 note=56 velocity=96 time=1\n",
      "note_on channel=5 note=59 velocity=96 time=1\n",
      "note_on channel=5 note=63 velocity=86 time=2\n",
      "note_on channel=5 note=59 velocity=0 time=6\n",
      "note_on channel=5 note=51 velocity=0 time=0\n",
      "note_on channel=5 note=56 velocity=0 time=1\n",
      "note_on channel=5 note=63 velocity=0 time=3\n",
      "note_on channel=5 note=51 velocity=116 time=44\n",
      "note_on channel=5 note=56 velocity=116 time=1\n",
      "note_on channel=5 note=59 velocity=116 time=3\n",
      "note_on channel=5 note=63 velocity=106 time=0\n",
      "note_on channel=5 note=56 velocity=0 time=54\n",
      "note_on channel=5 note=51 velocity=0 time=0\n",
      "note_on channel=5 note=63 velocity=0 time=1\n",
      "note_on channel=5 note=59 velocity=0 time=1\n",
      "note_on channel=5 note=51 velocity=116 time=2\n",
      "note_on channel=5 note=56 velocity=116 time=1\n",
      "note_on channel=5 note=59 velocity=116 time=3\n",
      "note_on channel=5 note=63 velocity=106 time=0\n",
      "note_on channel=5 note=63 velocity=0 time=50\n",
      "note_on channel=5 note=59 velocity=0 time=0\n",
      "note_on channel=5 note=51 velocity=0 time=2\n",
      "note_on channel=5 note=56 velocity=0 time=1\n",
      "note_on channel=5 note=51 velocity=103 time=3\n",
      "note_on channel=5 note=56 velocity=103 time=1\n",
      "note_on channel=5 note=59 velocity=103 time=1\n",
      "note_on channel=5 note=64 velocity=94 time=2\n",
      "note_on channel=5 note=64 velocity=0 time=53\n",
      "note_on channel=5 note=59 velocity=0 time=1\n",
      "note_on channel=5 note=51 velocity=0 time=0\n",
      "note_on channel=5 note=56 velocity=0 time=1\n",
      "note_on channel=5 note=51 velocity=96 time=1\n",
      "note_on channel=5 note=56 velocity=96 time=1\n",
      "note_on channel=5 note=59 velocity=96 time=1\n",
      "note_on channel=5 note=63 velocity=86 time=2\n",
      "note_on channel=5 note=51 velocity=0 time=6\n",
      "note_on channel=5 note=56 velocity=0 time=1\n",
      "note_on channel=5 note=59 velocity=0 time=1\n",
      "note_on channel=5 note=63 velocity=0 time=2\n",
      "note_on channel=5 note=51 velocity=116 time=44\n",
      "note_on channel=5 note=56 velocity=116 time=1\n",
      "note_on channel=5 note=63 velocity=106 time=3\n",
      "note_on channel=5 note=59 velocity=116 time=0\n",
      "note_on channel=5 note=51 velocity=0 time=54\n",
      "note_on channel=5 note=56 velocity=0 time=1\n",
      "note_on channel=5 note=63 velocity=0 time=1\n",
      "note_on channel=5 note=59 velocity=0 time=0\n",
      "note_on channel=5 note=54 velocity=116 time=0\n",
      "note_on channel=5 note=58 velocity=116 time=3\n",
      "note_on channel=5 note=61 velocity=116 time=3\n",
      "note_on channel=5 note=66 velocity=106 time=3\n",
      "note_on channel=5 note=54 velocity=0 time=170\n",
      "note_on channel=5 note=54 velocity=113 time=1\n",
      "note_on channel=5 note=58 velocity=0 time=2\n",
      "note_on channel=5 note=59 velocity=113 time=1\n",
      "note_on channel=5 note=61 velocity=0 time=2\n",
      "note_on channel=5 note=63 velocity=113 time=1\n",
      "note_on channel=5 note=66 velocity=0 time=2\n",
      "note_on channel=5 note=66 velocity=94 time=1\n",
      "note_on channel=5 note=54 velocity=0 time=290\n",
      "note_on channel=5 note=59 velocity=0 time=3\n",
      "note_on channel=5 note=52 velocity=116 time=0\n",
      "note_on channel=5 note=56 velocity=116 time=1\n",
      "note_on channel=5 note=63 velocity=0 time=2\n",
      "note_on channel=5 note=64 velocity=106 time=1\n",
      "note_on channel=5 note=59 velocity=116 time=0\n",
      "note_on channel=5 note=66 velocity=0 time=2\n",
      "note_on channel=5 note=56 velocity=0 time=47\n",
      "note_on channel=5 note=64 velocity=0 time=1\n",
      "note_on channel=5 note=52 velocity=0 time=2\n",
      "note_on channel=5 note=59 velocity=0 time=0\n",
      "note_on channel=5 note=52 velocity=103 time=4\n",
      "note_on channel=5 note=56 velocity=103 time=1\n",
      "note_on channel=5 note=59 velocity=103 time=1\n",
      "note_on channel=5 note=64 velocity=94 time=2\n",
      "note_on channel=5 note=64 velocity=0 time=53\n",
      "note_on channel=5 note=56 velocity=0 time=0\n",
      "note_on channel=5 note=59 velocity=0 time=1\n",
      "note_on channel=5 note=52 velocity=0 time=0\n",
      "note_on channel=5 note=52 velocity=96 time=2\n",
      "note_on channel=5 note=56 velocity=96 time=1\n",
      "note_on channel=5 note=59 velocity=96 time=1\n",
      "note_on channel=5 note=64 velocity=86 time=2\n",
      "note_on channel=5 note=59 velocity=0 time=6\n",
      "note_on channel=5 note=52 velocity=0 time=0\n",
      "note_on channel=5 note=56 velocity=0 time=1\n",
      "note_on channel=5 note=64 velocity=0 time=3\n",
      "note_on channel=5 note=52 velocity=116 time=44\n",
      "note_on channel=5 note=56 velocity=116 time=1\n",
      "note_on channel=5 note=59 velocity=116 time=3\n",
      "note_on channel=5 note=64 velocity=106 time=0\n",
      "note_on channel=5 note=56 velocity=0 time=54\n",
      "note_on channel=5 note=52 velocity=0 time=0\n",
      "note_on channel=5 note=64 velocity=0 time=1\n",
      "note_on channel=5 note=59 velocity=0 time=1\n",
      "note_on channel=5 note=52 velocity=116 time=2\n",
      "note_on channel=5 note=56 velocity=116 time=1\n",
      "note_on channel=5 note=59 velocity=116 time=3\n",
      "note_on channel=5 note=64 velocity=106 time=0\n",
      "note_on channel=5 note=64 velocity=0 time=50\n",
      "note_on channel=5 note=59 velocity=0 time=0\n",
      "note_on channel=5 note=52 velocity=0 time=2\n",
      "note_on channel=5 note=56 velocity=0 time=1\n",
      "note_on channel=5 note=52 velocity=103 time=3\n",
      "note_on channel=5 note=56 velocity=103 time=1\n",
      "note_on channel=5 note=59 velocity=103 time=1\n",
      "note_on channel=5 note=64 velocity=94 time=2\n",
      "note_on channel=5 note=64 velocity=0 time=53\n",
      "note_on channel=5 note=59 velocity=0 time=1\n",
      "note_on channel=5 note=52 velocity=0 time=0\n",
      "note_on channel=5 note=56 velocity=0 time=1\n",
      "note_on channel=5 note=52 velocity=96 time=1\n",
      "note_on channel=5 note=56 velocity=96 time=1\n",
      "note_on channel=5 note=59 velocity=96 time=1\n",
      "note_on channel=5 note=64 velocity=86 time=2\n",
      "note_on channel=5 note=52 velocity=0 time=6\n",
      "note_on channel=5 note=56 velocity=0 time=1\n",
      "note_on channel=5 note=59 velocity=0 time=1\n",
      "note_on channel=5 note=64 velocity=0 time=2\n",
      "note_on channel=5 note=52 velocity=116 time=44\n",
      "note_on channel=5 note=56 velocity=116 time=1\n",
      "note_on channel=5 note=64 velocity=106 time=3\n",
      "note_on channel=5 note=59 velocity=116 time=0\n",
      "note_on channel=5 note=52 velocity=0 time=54\n",
      "note_on channel=5 note=56 velocity=0 time=1\n",
      "note_on channel=5 note=64 velocity=0 time=1\n",
      "note_on channel=5 note=59 velocity=0 time=0\n",
      "note_on channel=5 note=54 velocity=116 time=2\n",
      "note_on channel=5 note=58 velocity=116 time=1\n",
      "note_on channel=5 note=61 velocity=116 time=3\n",
      "note_on channel=5 note=66 velocity=106 time=0\n",
      "note_on channel=5 note=66 velocity=0 time=50\n",
      "note_on channel=5 note=61 velocity=0 time=0\n",
      "note_on channel=5 note=54 velocity=0 time=2\n",
      "note_on channel=5 note=58 velocity=0 time=1\n",
      "note_on channel=5 note=54 velocity=103 time=3\n",
      "note_on channel=5 note=58 velocity=103 time=1\n",
      "note_on channel=5 note=61 velocity=103 time=1\n",
      "note_on channel=5 note=66 velocity=94 time=2\n",
      "note_on channel=5 note=66 velocity=0 time=53\n",
      "note_on channel=5 note=61 velocity=0 time=1\n",
      "note_on channel=5 note=54 velocity=0 time=0\n",
      "note_on channel=5 note=58 velocity=0 time=1\n",
      "note_on channel=5 note=54 velocity=96 time=1\n",
      "note_on channel=5 note=58 velocity=96 time=1\n",
      "note_on channel=5 note=61 velocity=96 time=1\n",
      "note_on channel=5 note=66 velocity=86 time=2\n",
      "note_on channel=5 note=54 velocity=0 time=6\n",
      "note_on channel=5 note=58 velocity=0 time=1\n",
      "note_on channel=5 note=61 velocity=0 time=1\n",
      "note_on channel=5 note=66 velocity=0 time=2\n",
      "note_on channel=5 note=54 velocity=116 time=44\n",
      "note_on channel=5 note=58 velocity=116 time=1\n",
      "note_on channel=5 note=66 velocity=106 time=3\n",
      "note_on channel=5 note=61 velocity=116 time=0\n",
      "note_on channel=5 note=54 velocity=0 time=54\n",
      "note_on channel=5 note=58 velocity=0 time=1\n",
      "note_on channel=5 note=66 velocity=0 time=1\n",
      "note_on channel=5 note=61 velocity=0 time=0\n",
      "note_on channel=5 note=51 velocity=116 time=2\n",
      "note_on channel=5 note=56 velocity=116 time=1\n",
      "note_on channel=5 note=63 velocity=106 time=3\n",
      "note_on channel=5 note=59 velocity=116 time=0\n",
      "note_on channel=5 note=59 velocity=0 time=50\n",
      "note_on channel=5 note=63 velocity=0 time=0\n",
      "note_on channel=5 note=51 velocity=0 time=2\n",
      "note_on channel=5 note=56 velocity=0 time=1\n",
      "note_on channel=5 note=51 velocity=103 time=3\n",
      "note_on channel=5 note=56 velocity=103 time=1\n",
      "note_on channel=5 note=59 velocity=103 time=1\n",
      "note_on channel=5 note=63 velocity=94 time=2\n",
      "note_on channel=5 note=63 velocity=0 time=53\n",
      "note_on channel=5 note=59 velocity=0 time=1\n",
      "note_on channel=5 note=51 velocity=0 time=0\n",
      "note_on channel=5 note=56 velocity=0 time=1\n",
      "note_on channel=5 note=51 velocity=96 time=1\n",
      "note_on channel=5 note=56 velocity=96 time=1\n",
      "note_on channel=5 note=59 velocity=96 time=1\n",
      "note_on channel=5 note=63 velocity=86 time=2\n",
      "note_on channel=5 note=51 velocity=0 time=6\n",
      "note_on channel=5 note=56 velocity=0 time=1\n",
      "note_on channel=5 note=59 velocity=0 time=1\n",
      "note_on channel=5 note=63 velocity=0 time=2\n",
      "note_on channel=5 note=51 velocity=116 time=44\n",
      "note_on channel=5 note=56 velocity=116 time=1\n",
      "note_on channel=5 note=63 velocity=106 time=3\n",
      "note_on channel=5 note=59 velocity=116 time=0\n",
      "note_on channel=5 note=51 velocity=0 time=54\n",
      "note_on channel=5 note=56 velocity=0 time=1\n",
      "note_on channel=5 note=63 velocity=0 time=1\n",
      "note_on channel=5 note=59 velocity=0 time=0\n",
      "note_on channel=5 note=52 velocity=116 time=2\n",
      "note_on channel=5 note=56 velocity=116 time=1\n",
      "note_on channel=5 note=64 velocity=106 time=3\n",
      "note_on channel=5 note=59 velocity=116 time=0\n",
      "note_on channel=5 note=56 velocity=0 time=49\n",
      "note_on channel=5 note=64 velocity=0 time=1\n",
      "note_on channel=5 note=52 velocity=0 time=2\n",
      "note_on channel=5 note=59 velocity=0 time=0\n",
      "note_on channel=5 note=52 velocity=103 time=4\n",
      "note_on channel=5 note=56 velocity=103 time=1\n",
      "note_on channel=5 note=59 velocity=103 time=1\n",
      "note_on channel=5 note=64 velocity=94 time=2\n",
      "note_on channel=5 note=64 velocity=0 time=53\n",
      "note_on channel=5 note=56 velocity=0 time=0\n",
      "note_on channel=5 note=59 velocity=0 time=1\n",
      "note_on channel=5 note=52 velocity=0 time=0\n",
      "note_on channel=5 note=52 velocity=96 time=2\n",
      "note_on channel=5 note=56 velocity=96 time=1\n",
      "note_on channel=5 note=59 velocity=96 time=1\n",
      "note_on channel=5 note=64 velocity=86 time=2\n",
      "note_on channel=5 note=59 velocity=0 time=6\n",
      "note_on channel=5 note=52 velocity=0 time=0\n",
      "note_on channel=5 note=56 velocity=0 time=1\n",
      "note_on channel=5 note=64 velocity=0 time=3\n",
      "note_on channel=5 note=52 velocity=116 time=44\n",
      "note_on channel=5 note=56 velocity=116 time=1\n",
      "note_on channel=5 note=59 velocity=116 time=3\n",
      "note_on channel=5 note=64 velocity=106 time=0\n",
      "note_on channel=5 note=56 velocity=0 time=54\n",
      "note_on channel=5 note=52 velocity=0 time=0\n",
      "note_on channel=5 note=64 velocity=0 time=1\n",
      "note_on channel=5 note=59 velocity=0 time=1\n",
      "note_on channel=5 note=52 velocity=116 time=2\n",
      "note_on channel=5 note=56 velocity=116 time=1\n",
      "note_on channel=5 note=59 velocity=116 time=3\n",
      "note_on channel=5 note=64 velocity=106 time=0\n",
      "note_on channel=5 note=64 velocity=0 time=50\n",
      "note_on channel=5 note=59 velocity=0 time=0\n",
      "note_on channel=5 note=52 velocity=0 time=2\n",
      "note_on channel=5 note=56 velocity=0 time=1\n",
      "note_on channel=5 note=52 velocity=103 time=3\n",
      "note_on channel=5 note=56 velocity=103 time=1\n",
      "note_on channel=5 note=59 velocity=103 time=1\n",
      "note_on channel=5 note=64 velocity=94 time=2\n",
      "note_on channel=5 note=64 velocity=0 time=53\n",
      "note_on channel=5 note=59 velocity=0 time=1\n",
      "note_on channel=5 note=52 velocity=0 time=0\n",
      "note_on channel=5 note=56 velocity=0 time=1\n",
      "note_on channel=5 note=52 velocity=96 time=1\n",
      "note_on channel=5 note=56 velocity=96 time=1\n",
      "note_on channel=5 note=59 velocity=96 time=1\n",
      "note_on channel=5 note=64 velocity=86 time=2\n",
      "note_on channel=5 note=52 velocity=0 time=6\n",
      "note_on channel=5 note=56 velocity=0 time=1\n",
      "note_on channel=5 note=59 velocity=0 time=1\n",
      "note_on channel=5 note=64 velocity=0 time=2\n",
      "note_on channel=5 note=52 velocity=116 time=44\n",
      "note_on channel=5 note=56 velocity=116 time=1\n",
      "note_on channel=5 note=64 velocity=106 time=3\n",
      "note_on channel=5 note=59 velocity=116 time=0\n",
      "note_on channel=5 note=52 velocity=0 time=54\n",
      "note_on channel=5 note=56 velocity=0 time=1\n",
      "note_on channel=5 note=64 velocity=0 time=1\n",
      "note_on channel=5 note=59 velocity=0 time=0\n",
      "note_on channel=5 note=54 velocity=116 time=2\n",
      "note_on channel=5 note=58 velocity=116 time=1\n",
      "note_on channel=5 note=66 velocity=106 time=3\n",
      "note_on channel=5 note=61 velocity=116 time=0\n",
      "note_on channel=5 note=61 velocity=0 time=50\n",
      "note_on channel=5 note=66 velocity=0 time=0\n",
      "note_on channel=5 note=54 velocity=0 time=2\n",
      "note_on channel=5 note=58 velocity=0 time=1\n",
      "note_on channel=5 note=54 velocity=103 time=3\n",
      "note_on channel=5 note=58 velocity=103 time=1\n",
      "note_on channel=5 note=61 velocity=103 time=1\n",
      "note_on channel=5 note=66 velocity=94 time=2\n",
      "note_on channel=5 note=66 velocity=0 time=53\n",
      "note_on channel=5 note=61 velocity=0 time=1\n",
      "note_on channel=5 note=54 velocity=0 time=0\n",
      "note_on channel=5 note=58 velocity=0 time=1\n",
      "note_on channel=5 note=54 velocity=96 time=1\n",
      "note_on channel=5 note=58 velocity=96 time=1\n",
      "note_on channel=5 note=61 velocity=96 time=1\n",
      "note_on channel=5 note=66 velocity=86 time=2\n",
      "note_on channel=5 note=54 velocity=0 time=6\n",
      "note_on channel=5 note=58 velocity=0 time=1\n",
      "note_on channel=5 note=61 velocity=0 time=1\n",
      "note_on channel=5 note=66 velocity=0 time=2\n",
      "note_on channel=5 note=54 velocity=116 time=44\n",
      "note_on channel=5 note=58 velocity=116 time=1\n",
      "note_on channel=5 note=61 velocity=116 time=3\n",
      "note_on channel=5 note=66 velocity=106 time=0\n",
      "note_on channel=5 note=54 velocity=0 time=54\n",
      "note_on channel=5 note=58 velocity=0 time=1\n",
      "note_on channel=5 note=61 velocity=0 time=1\n",
      "note_on channel=5 note=66 velocity=0 time=0\n",
      "note_on channel=5 note=51 velocity=116 time=2\n",
      "note_on channel=5 note=56 velocity=116 time=1\n",
      "note_on channel=5 note=63 velocity=106 time=3\n",
      "note_on channel=5 note=59 velocity=116 time=0\n",
      "note_on channel=5 note=59 velocity=0 time=50\n",
      "note_on channel=5 note=63 velocity=0 time=0\n",
      "note_on channel=5 note=51 velocity=0 time=2\n",
      "note_on channel=5 note=56 velocity=0 time=1\n",
      "note_on channel=5 note=51 velocity=103 time=3\n",
      "note_on channel=5 note=56 velocity=103 time=1\n",
      "note_on channel=5 note=59 velocity=103 time=1\n",
      "note_on channel=5 note=63 velocity=94 time=2\n",
      "note_on channel=5 note=63 velocity=0 time=53\n",
      "note_on channel=5 note=59 velocity=0 time=1\n",
      "note_on channel=5 note=51 velocity=0 time=0\n",
      "note_on channel=5 note=56 velocity=0 time=1\n",
      "note_on channel=5 note=51 velocity=96 time=1\n",
      "note_on channel=5 note=56 velocity=96 time=1\n",
      "note_on channel=5 note=59 velocity=96 time=1\n",
      "note_on channel=5 note=63 velocity=86 time=2\n",
      "note_on channel=5 note=51 velocity=0 time=6\n",
      "note_on channel=5 note=56 velocity=0 time=1\n",
      "note_on channel=5 note=59 velocity=0 time=1\n",
      "note_on channel=5 note=63 velocity=0 time=2\n",
      "note_on channel=5 note=51 velocity=116 time=44\n",
      "note_on channel=5 note=56 velocity=116 time=1\n",
      "note_on channel=5 note=63 velocity=106 time=3\n",
      "note_on channel=5 note=59 velocity=116 time=0\n",
      "note_on channel=5 note=51 velocity=0 time=54\n",
      "note_on channel=5 note=56 velocity=0 time=1\n",
      "note_on channel=5 note=63 velocity=0 time=1\n",
      "note_on channel=5 note=59 velocity=0 time=0\n",
      "note_on channel=5 note=52 velocity=116 time=2\n",
      "note_on channel=5 note=56 velocity=116 time=1\n",
      "note_on channel=5 note=64 velocity=106 time=3\n",
      "note_on channel=5 note=59 velocity=116 time=0\n",
      "note_on channel=5 note=56 velocity=0 time=49\n",
      "note_on channel=5 note=64 velocity=0 time=1\n",
      "note_on channel=5 note=52 velocity=0 time=2\n",
      "note_on channel=5 note=59 velocity=0 time=0\n",
      "note_on channel=5 note=52 velocity=103 time=4\n",
      "note_on channel=5 note=56 velocity=103 time=1\n",
      "note_on channel=5 note=59 velocity=103 time=1\n",
      "note_on channel=5 note=64 velocity=94 time=2\n",
      "note_on channel=5 note=64 velocity=0 time=53\n",
      "note_on channel=5 note=56 velocity=0 time=0\n",
      "note_on channel=5 note=59 velocity=0 time=1\n",
      "note_on channel=5 note=52 velocity=0 time=0\n",
      "note_on channel=5 note=52 velocity=96 time=2\n",
      "note_on channel=5 note=56 velocity=96 time=1\n",
      "note_on channel=5 note=59 velocity=96 time=1\n",
      "note_on channel=5 note=64 velocity=86 time=2\n",
      "note_on channel=5 note=59 velocity=0 time=6\n",
      "note_on channel=5 note=52 velocity=0 time=0\n",
      "note_on channel=5 note=56 velocity=0 time=1\n",
      "note_on channel=5 note=64 velocity=0 time=3\n",
      "note_on channel=5 note=52 velocity=116 time=44\n",
      "note_on channel=5 note=56 velocity=116 time=1\n",
      "note_on channel=5 note=59 velocity=116 time=3\n",
      "note_on channel=5 note=64 velocity=106 time=0\n",
      "note_on channel=5 note=56 velocity=0 time=54\n",
      "note_on channel=5 note=52 velocity=0 time=0\n",
      "note_on channel=5 note=64 velocity=0 time=1\n",
      "note_on channel=5 note=59 velocity=0 time=1\n",
      "note_on channel=5 note=52 velocity=116 time=2\n",
      "note_on channel=5 note=56 velocity=116 time=1\n",
      "note_on channel=5 note=59 velocity=116 time=3\n",
      "note_on channel=5 note=64 velocity=106 time=0\n",
      "note_on channel=5 note=64 velocity=0 time=50\n",
      "note_on channel=5 note=59 velocity=0 time=0\n",
      "note_on channel=5 note=52 velocity=0 time=2\n",
      "note_on channel=5 note=56 velocity=0 time=1\n",
      "note_on channel=5 note=52 velocity=103 time=3\n",
      "note_on channel=5 note=56 velocity=103 time=1\n",
      "note_on channel=5 note=59 velocity=103 time=1\n",
      "note_on channel=5 note=64 velocity=94 time=2\n",
      "note_on channel=5 note=64 velocity=0 time=53\n",
      "note_on channel=5 note=59 velocity=0 time=1\n",
      "note_on channel=5 note=52 velocity=0 time=0\n",
      "note_on channel=5 note=56 velocity=0 time=1\n",
      "note_on channel=5 note=52 velocity=96 time=1\n",
      "note_on channel=5 note=56 velocity=96 time=1\n",
      "note_on channel=5 note=59 velocity=96 time=1\n",
      "note_on channel=5 note=64 velocity=86 time=2\n",
      "note_on channel=5 note=52 velocity=0 time=6\n",
      "note_on channel=5 note=56 velocity=0 time=1\n",
      "note_on channel=5 note=59 velocity=0 time=1\n",
      "note_on channel=5 note=64 velocity=0 time=2\n",
      "note_on channel=5 note=52 velocity=116 time=44\n",
      "note_on channel=5 note=56 velocity=116 time=1\n",
      "note_on channel=5 note=64 velocity=106 time=3\n",
      "note_on channel=5 note=59 velocity=116 time=0\n",
      "note_on channel=5 note=52 velocity=0 time=54\n",
      "note_on channel=5 note=56 velocity=0 time=1\n",
      "note_on channel=5 note=64 velocity=0 time=1\n",
      "note_on channel=5 note=59 velocity=0 time=0\n",
      "note_on channel=5 note=54 velocity=116 time=2\n",
      "note_on channel=5 note=58 velocity=116 time=1\n",
      "note_on channel=5 note=61 velocity=116 time=3\n",
      "note_on channel=5 note=66 velocity=106 time=0\n",
      "note_on channel=5 note=66 velocity=0 time=50\n",
      "note_on channel=5 note=61 velocity=0 time=0\n",
      "note_on channel=5 note=54 velocity=0 time=2\n",
      "note_on channel=5 note=58 velocity=0 time=1\n",
      "note_on channel=5 note=54 velocity=103 time=3\n",
      "note_on channel=5 note=58 velocity=103 time=1\n",
      "note_on channel=5 note=61 velocity=103 time=1\n",
      "note_on channel=5 note=66 velocity=94 time=2\n",
      "note_on channel=5 note=66 velocity=0 time=53\n",
      "note_on channel=5 note=61 velocity=0 time=1\n",
      "note_on channel=5 note=54 velocity=0 time=0\n",
      "note_on channel=5 note=58 velocity=0 time=1\n",
      "note_on channel=5 note=54 velocity=96 time=1\n",
      "note_on channel=5 note=58 velocity=96 time=1\n",
      "note_on channel=5 note=61 velocity=96 time=1\n",
      "note_on channel=5 note=66 velocity=86 time=2\n",
      "note_on channel=5 note=54 velocity=0 time=6\n",
      "note_on channel=5 note=58 velocity=0 time=1\n",
      "note_on channel=5 note=61 velocity=0 time=1\n",
      "note_on channel=5 note=66 velocity=0 time=2\n",
      "note_on channel=5 note=54 velocity=116 time=44\n",
      "note_on channel=5 note=58 velocity=116 time=1\n",
      "note_on channel=5 note=66 velocity=106 time=3\n",
      "note_on channel=5 note=61 velocity=116 time=0\n",
      "note_on channel=5 note=54 velocity=0 time=54\n",
      "note_on channel=5 note=58 velocity=0 time=1\n",
      "note_on channel=5 note=66 velocity=0 time=1\n",
      "note_on channel=5 note=61 velocity=0 time=0\n",
      "note_on channel=5 note=51 velocity=116 time=2\n",
      "note_on channel=5 note=56 velocity=116 time=1\n",
      "note_on channel=5 note=63 velocity=106 time=3\n",
      "note_on channel=5 note=59 velocity=116 time=0\n",
      "note_on channel=5 note=59 velocity=0 time=50\n",
      "note_on channel=5 note=63 velocity=0 time=0\n",
      "note_on channel=5 note=51 velocity=0 time=2\n",
      "note_on channel=5 note=56 velocity=0 time=1\n",
      "note_on channel=5 note=51 velocity=103 time=3\n",
      "note_on channel=5 note=56 velocity=103 time=1\n",
      "note_on channel=5 note=59 velocity=103 time=1\n",
      "note_on channel=5 note=63 velocity=94 time=2\n",
      "note_on channel=5 note=63 velocity=0 time=53\n",
      "note_on channel=5 note=59 velocity=0 time=1\n",
      "note_on channel=5 note=51 velocity=0 time=0\n",
      "note_on channel=5 note=56 velocity=0 time=1\n",
      "note_on channel=5 note=51 velocity=96 time=1\n",
      "note_on channel=5 note=56 velocity=96 time=1\n",
      "note_on channel=5 note=59 velocity=96 time=1\n",
      "note_on channel=5 note=63 velocity=86 time=2\n",
      "note_on channel=5 note=51 velocity=0 time=6\n",
      "note_on channel=5 note=56 velocity=0 time=1\n",
      "note_on channel=5 note=59 velocity=0 time=1\n",
      "note_on channel=5 note=63 velocity=0 time=2\n",
      "note_on channel=5 note=51 velocity=116 time=44\n",
      "note_on channel=5 note=56 velocity=116 time=1\n",
      "note_on channel=5 note=63 velocity=106 time=3\n",
      "note_on channel=5 note=59 velocity=116 time=0\n",
      "note_on channel=5 note=51 velocity=0 time=54\n",
      "note_on channel=5 note=56 velocity=0 time=1\n",
      "note_on channel=5 note=63 velocity=0 time=1\n",
      "note_on channel=5 note=59 velocity=0 time=0\n",
      "note_on channel=5 note=51 velocity=116 time=2\n",
      "note_on channel=5 note=56 velocity=116 time=1\n",
      "note_on channel=5 note=63 velocity=106 time=3\n",
      "note_on channel=5 note=59 velocity=116 time=0\n",
      "note_on channel=5 note=56 velocity=0 time=49\n",
      "note_on channel=5 note=63 velocity=0 time=1\n",
      "note_on channel=5 note=51 velocity=0 time=2\n",
      "note_on channel=5 note=59 velocity=0 time=0\n",
      "note_on channel=5 note=51 velocity=103 time=4\n",
      "note_on channel=5 note=56 velocity=103 time=1\n",
      "note_on channel=5 note=59 velocity=103 time=1\n",
      "note_on channel=5 note=63 velocity=94 time=2\n",
      "note_on channel=5 note=63 velocity=0 time=53\n",
      "note_on channel=5 note=56 velocity=0 time=0\n",
      "note_on channel=5 note=59 velocity=0 time=1\n",
      "note_on channel=5 note=51 velocity=0 time=0\n",
      "note_on channel=5 note=51 velocity=96 time=2\n",
      "note_on channel=5 note=56 velocity=96 time=1\n",
      "note_on channel=5 note=59 velocity=96 time=1\n",
      "note_on channel=5 note=63 velocity=86 time=2\n",
      "note_on channel=5 note=59 velocity=0 time=6\n",
      "note_on channel=5 note=51 velocity=0 time=0\n",
      "note_on channel=5 note=56 velocity=0 time=1\n",
      "note_on channel=5 note=63 velocity=0 time=3\n",
      "note_on channel=5 note=51 velocity=116 time=44\n",
      "note_on channel=5 note=56 velocity=116 time=1\n",
      "note_on channel=5 note=59 velocity=116 time=3\n",
      "note_on channel=5 note=63 velocity=106 time=0\n",
      "note_on channel=5 note=56 velocity=0 time=54\n",
      "note_on channel=5 note=51 velocity=0 time=0\n",
      "note_on channel=5 note=63 velocity=0 time=1\n",
      "note_on channel=5 note=59 velocity=0 time=1\n",
      "note_on channel=5 note=51 velocity=116 time=2\n",
      "note_on channel=5 note=56 velocity=116 time=1\n",
      "note_on channel=5 note=59 velocity=116 time=3\n",
      "note_on channel=5 note=63 velocity=106 time=0\n",
      "note_on channel=5 note=63 velocity=0 time=50\n",
      "note_on channel=5 note=59 velocity=0 time=0\n",
      "note_on channel=5 note=51 velocity=0 time=2\n",
      "note_on channel=5 note=56 velocity=0 time=1\n",
      "note_on channel=5 note=51 velocity=103 time=3\n",
      "note_on channel=5 note=56 velocity=103 time=1\n",
      "note_on channel=5 note=59 velocity=103 time=1\n",
      "note_on channel=5 note=64 velocity=94 time=2\n",
      "note_on channel=5 note=64 velocity=0 time=53\n",
      "note_on channel=5 note=59 velocity=0 time=1\n",
      "note_on channel=5 note=51 velocity=0 time=0\n",
      "note_on channel=5 note=56 velocity=0 time=1\n",
      "note_on channel=5 note=51 velocity=96 time=1\n",
      "note_on channel=5 note=56 velocity=96 time=1\n",
      "note_on channel=5 note=59 velocity=96 time=1\n",
      "note_on channel=5 note=63 velocity=86 time=2\n",
      "note_on channel=5 note=51 velocity=0 time=6\n",
      "note_on channel=5 note=56 velocity=0 time=1\n",
      "note_on channel=5 note=59 velocity=0 time=1\n",
      "note_on channel=5 note=63 velocity=0 time=2\n",
      "note_on channel=5 note=51 velocity=116 time=44\n",
      "note_on channel=5 note=56 velocity=116 time=1\n",
      "note_on channel=5 note=63 velocity=106 time=3\n",
      "note_on channel=5 note=59 velocity=116 time=0\n",
      "note_on channel=5 note=51 velocity=0 time=54\n",
      "note_on channel=5 note=56 velocity=0 time=1\n",
      "note_on channel=5 note=63 velocity=0 time=1\n",
      "note_on channel=5 note=59 velocity=0 time=0\n",
      "note_on channel=5 note=54 velocity=116 time=2\n",
      "note_on channel=5 note=58 velocity=116 time=1\n",
      "note_on channel=5 note=66 velocity=106 time=3\n",
      "note_on channel=5 note=61 velocity=116 time=0\n",
      "note_on channel=5 note=61 velocity=0 time=50\n",
      "note_on channel=5 note=66 velocity=0 time=0\n",
      "note_on channel=5 note=54 velocity=0 time=2\n",
      "note_on channel=5 note=58 velocity=0 time=1\n",
      "note_on channel=5 note=54 velocity=103 time=3\n",
      "note_on channel=5 note=58 velocity=103 time=1\n",
      "note_on channel=5 note=61 velocity=103 time=1\n",
      "note_on channel=5 note=66 velocity=94 time=2\n",
      "note_on channel=5 note=66 velocity=0 time=53\n",
      "note_on channel=5 note=61 velocity=0 time=1\n",
      "note_on channel=5 note=54 velocity=0 time=0\n",
      "note_on channel=5 note=58 velocity=0 time=1\n",
      "note_on channel=5 note=54 velocity=96 time=1\n",
      "note_on channel=5 note=58 velocity=96 time=1\n",
      "note_on channel=5 note=61 velocity=96 time=1\n",
      "note_on channel=5 note=66 velocity=86 time=2\n",
      "note_on channel=5 note=54 velocity=0 time=6\n",
      "note_on channel=5 note=58 velocity=0 time=1\n",
      "note_on channel=5 note=61 velocity=0 time=1\n",
      "note_on channel=5 note=66 velocity=0 time=2\n",
      "note_on channel=5 note=54 velocity=116 time=44\n",
      "note_on channel=5 note=58 velocity=116 time=1\n",
      "note_on channel=5 note=66 velocity=106 time=3\n",
      "note_on channel=5 note=61 velocity=116 time=0\n",
      "note_on channel=5 note=54 velocity=0 time=54\n",
      "note_on channel=5 note=58 velocity=0 time=1\n",
      "note_on channel=5 note=66 velocity=0 time=1\n",
      "note_on channel=5 note=61 velocity=0 time=0\n",
      "note_on channel=5 note=51 velocity=116 time=2\n",
      "note_on channel=5 note=54 velocity=116 time=1\n",
      "note_on channel=5 note=63 velocity=106 time=3\n",
      "note_on channel=5 note=59 velocity=116 time=0\n",
      "note_on channel=5 note=59 velocity=0 time=50\n",
      "note_on channel=5 note=63 velocity=0 time=0\n",
      "note_on channel=5 note=51 velocity=0 time=2\n",
      "note_on channel=5 note=54 velocity=0 time=1\n",
      "note_on channel=5 note=51 velocity=103 time=3\n",
      "note_on channel=5 note=54 velocity=103 time=1\n",
      "note_on channel=5 note=59 velocity=103 time=1\n",
      "note_on channel=5 note=63 velocity=94 time=2\n",
      "note_on channel=5 note=63 velocity=0 time=53\n",
      "note_on channel=5 note=59 velocity=0 time=1\n",
      "note_on channel=5 note=51 velocity=0 time=0\n",
      "note_on channel=5 note=54 velocity=0 time=1\n",
      "note_on channel=5 note=51 velocity=96 time=1\n",
      "note_on channel=5 note=54 velocity=96 time=1\n",
      "note_on channel=5 note=59 velocity=96 time=1\n",
      "note_on channel=5 note=63 velocity=86 time=2\n",
      "note_on channel=5 note=51 velocity=0 time=6\n",
      "note_on channel=5 note=54 velocity=0 time=1\n",
      "note_on channel=5 note=59 velocity=0 time=1\n",
      "note_on channel=5 note=63 velocity=0 time=2\n",
      "note_on channel=5 note=51 velocity=116 time=44\n",
      "note_on channel=5 note=54 velocity=116 time=1\n",
      "note_on channel=5 note=63 velocity=106 time=3\n",
      "note_on channel=5 note=59 velocity=116 time=0\n",
      "note_on channel=5 note=51 velocity=0 time=54\n",
      "note_on channel=5 note=54 velocity=0 time=1\n",
      "note_on channel=5 note=63 velocity=0 time=1\n",
      "note_on channel=5 note=59 velocity=0 time=0\n",
      "note_on channel=5 note=52 velocity=116 time=2\n",
      "note_on channel=5 note=56 velocity=116 time=1\n",
      "note_on channel=5 note=64 velocity=106 time=3\n",
      "note_on channel=5 note=59 velocity=116 time=0\n",
      "note_on channel=5 note=56 velocity=0 time=49\n",
      "note_on channel=5 note=64 velocity=0 time=1\n",
      "note_on channel=5 note=52 velocity=0 time=2\n",
      "note_on channel=5 note=59 velocity=0 time=0\n",
      "note_on channel=5 note=52 velocity=103 time=4\n",
      "note_on channel=5 note=56 velocity=103 time=1\n",
      "note_on channel=5 note=59 velocity=103 time=1\n",
      "note_on channel=5 note=64 velocity=94 time=2\n",
      "note_on channel=5 note=64 velocity=0 time=53\n",
      "note_on channel=5 note=56 velocity=0 time=0\n",
      "note_on channel=5 note=59 velocity=0 time=1\n",
      "note_on channel=5 note=52 velocity=0 time=0\n",
      "note_on channel=5 note=52 velocity=96 time=2\n",
      "note_on channel=5 note=56 velocity=96 time=1\n",
      "note_on channel=5 note=59 velocity=96 time=1\n",
      "note_on channel=5 note=64 velocity=86 time=2\n",
      "note_on channel=5 note=59 velocity=0 time=6\n",
      "note_on channel=5 note=52 velocity=0 time=0\n",
      "note_on channel=5 note=56 velocity=0 time=1\n",
      "note_on channel=5 note=64 velocity=0 time=3\n",
      "note_on channel=5 note=52 velocity=116 time=44\n",
      "note_on channel=5 note=56 velocity=116 time=1\n",
      "note_on channel=5 note=59 velocity=116 time=3\n",
      "note_on channel=5 note=64 velocity=106 time=0\n",
      "note_on channel=5 note=56 velocity=0 time=54\n",
      "note_on channel=5 note=52 velocity=0 time=0\n",
      "note_on channel=5 note=64 velocity=0 time=1\n",
      "note_on channel=5 note=59 velocity=0 time=1\n",
      "note_on channel=5 note=52 velocity=116 time=2\n",
      "note_on channel=5 note=56 velocity=116 time=1\n",
      "note_on channel=5 note=59 velocity=116 time=3\n",
      "note_on channel=5 note=64 velocity=106 time=0\n",
      "note_on channel=5 note=64 velocity=0 time=50\n",
      "note_on channel=5 note=59 velocity=0 time=0\n",
      "note_on channel=5 note=52 velocity=0 time=2\n",
      "note_on channel=5 note=56 velocity=0 time=1\n",
      "note_on channel=5 note=52 velocity=103 time=3\n",
      "note_on channel=5 note=56 velocity=103 time=1\n",
      "note_on channel=5 note=59 velocity=103 time=1\n",
      "note_on channel=5 note=64 velocity=94 time=2\n",
      "note_on channel=5 note=64 velocity=0 time=53\n",
      "note_on channel=5 note=59 velocity=0 time=1\n",
      "note_on channel=5 note=52 velocity=0 time=0\n",
      "note_on channel=5 note=56 velocity=0 time=1\n",
      "note_on channel=5 note=52 velocity=96 time=1\n",
      "note_on channel=5 note=56 velocity=96 time=1\n",
      "note_on channel=5 note=59 velocity=96 time=1\n",
      "note_on channel=5 note=64 velocity=86 time=2\n",
      "note_on channel=5 note=52 velocity=0 time=6\n",
      "note_on channel=5 note=56 velocity=0 time=1\n",
      "note_on channel=5 note=59 velocity=0 time=1\n",
      "note_on channel=5 note=64 velocity=0 time=2\n",
      "note_on channel=5 note=52 velocity=116 time=44\n",
      "note_on channel=5 note=56 velocity=116 time=1\n",
      "note_on channel=5 note=64 velocity=106 time=3\n",
      "note_on channel=5 note=59 velocity=116 time=0\n",
      "note_on channel=5 note=52 velocity=0 time=54\n",
      "note_on channel=5 note=56 velocity=0 time=1\n",
      "note_on channel=5 note=64 velocity=0 time=1\n",
      "note_on channel=5 note=59 velocity=0 time=0\n",
      "note_on channel=5 note=54 velocity=116 time=2\n",
      "note_on channel=5 note=58 velocity=116 time=1\n",
      "note_on channel=5 note=61 velocity=116 time=3\n",
      "note_on channel=5 note=66 velocity=106 time=0\n",
      "note_on channel=5 note=66 velocity=0 time=50\n",
      "note_on channel=5 note=61 velocity=0 time=0\n",
      "note_on channel=5 note=54 velocity=0 time=2\n",
      "note_on channel=5 note=58 velocity=0 time=1\n",
      "note_on channel=5 note=54 velocity=103 time=3\n",
      "note_on channel=5 note=58 velocity=103 time=1\n",
      "note_on channel=5 note=61 velocity=103 time=1\n",
      "note_on channel=5 note=66 velocity=94 time=2\n",
      "note_on channel=5 note=66 velocity=0 time=53\n",
      "note_on channel=5 note=61 velocity=0 time=1\n",
      "note_on channel=5 note=54 velocity=0 time=0\n",
      "note_on channel=5 note=58 velocity=0 time=1\n",
      "note_on channel=5 note=54 velocity=96 time=1\n",
      "note_on channel=5 note=58 velocity=96 time=1\n",
      "note_on channel=5 note=61 velocity=96 time=1\n",
      "note_on channel=5 note=66 velocity=86 time=2\n",
      "note_on channel=5 note=54 velocity=0 time=6\n",
      "note_on channel=5 note=58 velocity=0 time=1\n",
      "note_on channel=5 note=61 velocity=0 time=1\n",
      "note_on channel=5 note=66 velocity=0 time=2\n",
      "note_on channel=5 note=54 velocity=116 time=44\n",
      "note_on channel=5 note=58 velocity=116 time=1\n",
      "note_on channel=5 note=66 velocity=106 time=3\n",
      "note_on channel=5 note=61 velocity=116 time=0\n",
      "note_on channel=5 note=54 velocity=0 time=54\n",
      "note_on channel=5 note=58 velocity=0 time=1\n",
      "note_on channel=5 note=66 velocity=0 time=1\n",
      "note_on channel=5 note=61 velocity=0 time=0\n",
      "note_on channel=5 note=51 velocity=116 time=2\n",
      "note_on channel=5 note=56 velocity=116 time=1\n",
      "note_on channel=5 note=63 velocity=106 time=3\n",
      "note_on channel=5 note=59 velocity=116 time=0\n",
      "note_on channel=5 note=59 velocity=0 time=50\n",
      "note_on channel=5 note=63 velocity=0 time=0\n",
      "note_on channel=5 note=51 velocity=0 time=2\n",
      "note_on channel=5 note=56 velocity=0 time=1\n",
      "note_on channel=5 note=51 velocity=103 time=3\n",
      "note_on channel=5 note=56 velocity=103 time=1\n",
      "note_on channel=5 note=59 velocity=103 time=1\n",
      "note_on channel=5 note=63 velocity=94 time=2\n",
      "note_on channel=5 note=63 velocity=0 time=53\n",
      "note_on channel=5 note=59 velocity=0 time=1\n",
      "note_on channel=5 note=51 velocity=0 time=0\n",
      "note_on channel=5 note=56 velocity=0 time=1\n",
      "note_on channel=5 note=51 velocity=96 time=1\n",
      "note_on channel=5 note=56 velocity=96 time=1\n",
      "note_on channel=5 note=59 velocity=96 time=1\n",
      "note_on channel=5 note=63 velocity=86 time=2\n",
      "note_on channel=5 note=51 velocity=0 time=6\n",
      "note_on channel=5 note=56 velocity=0 time=1\n",
      "note_on channel=5 note=59 velocity=0 time=1\n",
      "note_on channel=5 note=63 velocity=0 time=2\n",
      "note_on channel=5 note=51 velocity=116 time=44\n",
      "note_on channel=5 note=56 velocity=116 time=1\n",
      "note_on channel=5 note=63 velocity=106 time=3\n",
      "note_on channel=5 note=59 velocity=116 time=0\n",
      "note_on channel=5 note=51 velocity=0 time=54\n",
      "note_on channel=5 note=56 velocity=0 time=1\n",
      "note_on channel=5 note=63 velocity=0 time=1\n",
      "note_on channel=5 note=59 velocity=0 time=0\n",
      "note_on channel=5 note=52 velocity=116 time=2\n",
      "note_on channel=5 note=56 velocity=116 time=1\n",
      "note_on channel=5 note=64 velocity=106 time=3\n",
      "note_on channel=5 note=59 velocity=116 time=0\n",
      "note_on channel=5 note=56 velocity=0 time=49\n",
      "note_on channel=5 note=64 velocity=0 time=1\n",
      "note_on channel=5 note=52 velocity=0 time=2\n",
      "note_on channel=5 note=59 velocity=0 time=0\n",
      "note_on channel=5 note=52 velocity=103 time=4\n",
      "note_on channel=5 note=56 velocity=103 time=1\n",
      "note_on channel=5 note=59 velocity=103 time=1\n",
      "note_on channel=5 note=64 velocity=94 time=2\n",
      "note_on channel=5 note=64 velocity=0 time=53\n",
      "note_on channel=5 note=56 velocity=0 time=0\n",
      "note_on channel=5 note=59 velocity=0 time=1\n",
      "note_on channel=5 note=52 velocity=0 time=0\n",
      "note_on channel=5 note=52 velocity=96 time=2\n",
      "note_on channel=5 note=56 velocity=96 time=1\n",
      "note_on channel=5 note=59 velocity=96 time=1\n",
      "note_on channel=5 note=64 velocity=86 time=2\n",
      "note_on channel=5 note=59 velocity=0 time=6\n",
      "note_on channel=5 note=52 velocity=0 time=0\n",
      "note_on channel=5 note=56 velocity=0 time=1\n",
      "note_on channel=5 note=64 velocity=0 time=3\n",
      "note_on channel=5 note=52 velocity=116 time=44\n",
      "note_on channel=5 note=56 velocity=116 time=1\n",
      "note_on channel=5 note=59 velocity=116 time=3\n",
      "note_on channel=5 note=64 velocity=106 time=0\n",
      "note_on channel=5 note=56 velocity=0 time=54\n",
      "note_on channel=5 note=52 velocity=0 time=0\n",
      "note_on channel=5 note=64 velocity=0 time=1\n",
      "note_on channel=5 note=59 velocity=0 time=1\n",
      "note_on channel=5 note=52 velocity=116 time=2\n",
      "note_on channel=5 note=56 velocity=116 time=1\n",
      "note_on channel=5 note=59 velocity=116 time=3\n",
      "note_on channel=5 note=64 velocity=106 time=0\n",
      "note_on channel=5 note=64 velocity=0 time=50\n",
      "note_on channel=5 note=59 velocity=0 time=0\n",
      "note_on channel=5 note=52 velocity=0 time=2\n",
      "note_on channel=5 note=56 velocity=0 time=1\n",
      "note_on channel=5 note=52 velocity=103 time=3\n",
      "note_on channel=5 note=56 velocity=103 time=1\n",
      "note_on channel=5 note=59 velocity=103 time=1\n",
      "note_on channel=5 note=64 velocity=94 time=2\n",
      "note_on channel=5 note=64 velocity=0 time=53\n",
      "note_on channel=5 note=59 velocity=0 time=1\n",
      "note_on channel=5 note=52 velocity=0 time=0\n",
      "note_on channel=5 note=56 velocity=0 time=1\n",
      "note_on channel=5 note=52 velocity=96 time=1\n",
      "note_on channel=5 note=56 velocity=96 time=1\n",
      "note_on channel=5 note=59 velocity=96 time=1\n",
      "note_on channel=5 note=64 velocity=86 time=2\n",
      "note_on channel=5 note=52 velocity=0 time=6\n",
      "note_on channel=5 note=56 velocity=0 time=1\n",
      "note_on channel=5 note=59 velocity=0 time=1\n",
      "note_on channel=5 note=64 velocity=0 time=2\n",
      "note_on channel=5 note=52 velocity=116 time=44\n",
      "note_on channel=5 note=56 velocity=116 time=1\n",
      "note_on channel=5 note=64 velocity=106 time=3\n",
      "note_on channel=5 note=59 velocity=116 time=0\n",
      "note_on channel=5 note=52 velocity=0 time=54\n",
      "note_on channel=5 note=56 velocity=0 time=1\n",
      "note_on channel=5 note=64 velocity=0 time=1\n",
      "note_on channel=5 note=59 velocity=0 time=0\n",
      "note_on channel=5 note=54 velocity=116 time=2\n",
      "note_on channel=5 note=58 velocity=116 time=1\n",
      "note_on channel=5 note=66 velocity=106 time=3\n",
      "note_on channel=5 note=61 velocity=116 time=0\n",
      "note_on channel=5 note=61 velocity=0 time=50\n",
      "note_on channel=5 note=66 velocity=0 time=0\n",
      "note_on channel=5 note=54 velocity=0 time=2\n",
      "note_on channel=5 note=58 velocity=0 time=1\n",
      "note_on channel=5 note=54 velocity=103 time=3\n",
      "note_on channel=5 note=58 velocity=103 time=1\n",
      "note_on channel=5 note=61 velocity=103 time=1\n",
      "note_on channel=5 note=66 velocity=94 time=2\n",
      "note_on channel=5 note=66 velocity=0 time=53\n",
      "note_on channel=5 note=61 velocity=0 time=1\n",
      "note_on channel=5 note=54 velocity=0 time=0\n",
      "note_on channel=5 note=58 velocity=0 time=1\n",
      "note_on channel=5 note=54 velocity=96 time=1\n",
      "note_on channel=5 note=58 velocity=96 time=1\n",
      "note_on channel=5 note=61 velocity=96 time=1\n",
      "note_on channel=5 note=66 velocity=86 time=2\n",
      "note_on channel=5 note=54 velocity=0 time=6\n",
      "note_on channel=5 note=58 velocity=0 time=1\n",
      "note_on channel=5 note=61 velocity=0 time=1\n",
      "note_on channel=5 note=66 velocity=0 time=2\n",
      "note_on channel=5 note=54 velocity=116 time=44\n",
      "note_on channel=5 note=58 velocity=116 time=1\n",
      "note_on channel=5 note=61 velocity=116 time=3\n",
      "note_on channel=5 note=66 velocity=106 time=0\n",
      "note_on channel=5 note=54 velocity=0 time=54\n",
      "note_on channel=5 note=58 velocity=0 time=1\n",
      "note_on channel=5 note=61 velocity=0 time=1\n",
      "note_on channel=5 note=66 velocity=0 time=0\n",
      "note_on channel=5 note=51 velocity=116 time=2\n",
      "note_on channel=5 note=56 velocity=116 time=1\n",
      "note_on channel=5 note=63 velocity=106 time=3\n",
      "note_on channel=5 note=59 velocity=116 time=0\n",
      "note_on channel=5 note=59 velocity=0 time=50\n",
      "note_on channel=5 note=63 velocity=0 time=0\n",
      "note_on channel=5 note=51 velocity=0 time=2\n",
      "note_on channel=5 note=56 velocity=0 time=1\n",
      "note_on channel=5 note=51 velocity=103 time=3\n",
      "note_on channel=5 note=56 velocity=103 time=1\n",
      "note_on channel=5 note=59 velocity=103 time=1\n",
      "note_on channel=5 note=63 velocity=94 time=2\n",
      "note_on channel=5 note=63 velocity=0 time=53\n",
      "note_on channel=5 note=59 velocity=0 time=1\n",
      "note_on channel=5 note=51 velocity=0 time=0\n",
      "note_on channel=5 note=56 velocity=0 time=1\n",
      "note_on channel=5 note=51 velocity=96 time=1\n",
      "note_on channel=5 note=56 velocity=96 time=1\n",
      "note_on channel=5 note=59 velocity=96 time=1\n",
      "note_on channel=5 note=63 velocity=86 time=2\n",
      "note_on channel=5 note=51 velocity=0 time=6\n",
      "note_on channel=5 note=56 velocity=0 time=1\n",
      "note_on channel=5 note=59 velocity=0 time=1\n",
      "note_on channel=5 note=63 velocity=0 time=2\n",
      "note_on channel=5 note=51 velocity=116 time=44\n",
      "note_on channel=5 note=56 velocity=116 time=1\n",
      "note_on channel=5 note=63 velocity=106 time=3\n",
      "note_on channel=5 note=59 velocity=116 time=0\n",
      "note_on channel=5 note=51 velocity=0 time=54\n",
      "note_on channel=5 note=56 velocity=0 time=1\n",
      "note_on channel=5 note=63 velocity=0 time=1\n",
      "note_on channel=5 note=59 velocity=0 time=0\n",
      "note_on channel=5 note=52 velocity=116 time=2\n",
      "note_on channel=5 note=56 velocity=116 time=1\n",
      "note_on channel=5 note=64 velocity=106 time=3\n",
      "note_on channel=5 note=59 velocity=116 time=0\n",
      "note_on channel=5 note=56 velocity=0 time=49\n",
      "note_on channel=5 note=64 velocity=0 time=1\n",
      "note_on channel=5 note=52 velocity=0 time=2\n",
      "note_on channel=5 note=59 velocity=0 time=0\n",
      "note_on channel=5 note=52 velocity=103 time=4\n",
      "note_on channel=5 note=56 velocity=103 time=1\n",
      "note_on channel=5 note=59 velocity=103 time=1\n",
      "note_on channel=5 note=64 velocity=94 time=2\n",
      "note_on channel=5 note=64 velocity=0 time=53\n",
      "note_on channel=5 note=56 velocity=0 time=0\n",
      "note_on channel=5 note=59 velocity=0 time=1\n",
      "note_on channel=5 note=52 velocity=0 time=0\n",
      "note_on channel=5 note=52 velocity=96 time=2\n",
      "note_on channel=5 note=56 velocity=96 time=1\n",
      "note_on channel=5 note=59 velocity=96 time=1\n",
      "note_on channel=5 note=64 velocity=86 time=2\n",
      "note_on channel=5 note=59 velocity=0 time=6\n",
      "note_on channel=5 note=52 velocity=0 time=0\n",
      "note_on channel=5 note=56 velocity=0 time=1\n",
      "note_on channel=5 note=64 velocity=0 time=3\n",
      "note_on channel=5 note=52 velocity=116 time=44\n",
      "note_on channel=5 note=56 velocity=116 time=1\n",
      "note_on channel=5 note=59 velocity=116 time=3\n",
      "note_on channel=5 note=64 velocity=106 time=0\n",
      "note_on channel=5 note=56 velocity=0 time=54\n",
      "note_on channel=5 note=52 velocity=0 time=0\n",
      "note_on channel=5 note=64 velocity=0 time=1\n",
      "note_on channel=5 note=59 velocity=0 time=1\n",
      "note_on channel=5 note=52 velocity=116 time=2\n",
      "note_on channel=5 note=56 velocity=116 time=1\n",
      "note_on channel=5 note=59 velocity=116 time=3\n",
      "note_on channel=5 note=64 velocity=106 time=0\n",
      "note_on channel=5 note=64 velocity=0 time=50\n",
      "note_on channel=5 note=59 velocity=0 time=0\n",
      "note_on channel=5 note=52 velocity=0 time=2\n",
      "note_on channel=5 note=56 velocity=0 time=1\n",
      "note_on channel=5 note=52 velocity=103 time=3\n",
      "note_on channel=5 note=56 velocity=103 time=1\n",
      "note_on channel=5 note=59 velocity=103 time=1\n",
      "note_on channel=5 note=64 velocity=94 time=2\n",
      "note_on channel=5 note=64 velocity=0 time=53\n",
      "note_on channel=5 note=59 velocity=0 time=1\n",
      "note_on channel=5 note=52 velocity=0 time=0\n",
      "note_on channel=5 note=56 velocity=0 time=1\n",
      "note_on channel=5 note=52 velocity=96 time=1\n",
      "note_on channel=5 note=56 velocity=96 time=1\n",
      "note_on channel=5 note=59 velocity=96 time=1\n",
      "note_on channel=5 note=64 velocity=86 time=2\n",
      "note_on channel=5 note=52 velocity=0 time=6\n",
      "note_on channel=5 note=56 velocity=0 time=1\n",
      "note_on channel=5 note=59 velocity=0 time=1\n",
      "note_on channel=5 note=64 velocity=0 time=2\n",
      "note_on channel=5 note=52 velocity=116 time=44\n",
      "note_on channel=5 note=56 velocity=116 time=1\n",
      "note_on channel=5 note=64 velocity=106 time=3\n",
      "note_on channel=5 note=59 velocity=116 time=0\n",
      "note_on channel=5 note=52 velocity=0 time=54\n",
      "note_on channel=5 note=56 velocity=0 time=1\n",
      "note_on channel=5 note=64 velocity=0 time=1\n",
      "note_on channel=5 note=59 velocity=0 time=0\n",
      "note_on channel=5 note=54 velocity=116 time=2\n",
      "note_on channel=5 note=58 velocity=116 time=1\n",
      "note_on channel=5 note=61 velocity=116 time=3\n",
      "note_on channel=5 note=66 velocity=106 time=0\n",
      "note_on channel=5 note=66 velocity=0 time=50\n",
      "note_on channel=5 note=61 velocity=0 time=0\n",
      "note_on channel=5 note=54 velocity=0 time=2\n",
      "note_on channel=5 note=58 velocity=0 time=1\n",
      "note_on channel=5 note=54 velocity=103 time=3\n",
      "note_on channel=5 note=58 velocity=103 time=1\n",
      "note_on channel=5 note=61 velocity=103 time=1\n",
      "note_on channel=5 note=66 velocity=94 time=2\n",
      "note_on channel=5 note=66 velocity=0 time=53\n",
      "note_on channel=5 note=61 velocity=0 time=1\n",
      "note_on channel=5 note=54 velocity=0 time=0\n",
      "note_on channel=5 note=58 velocity=0 time=1\n",
      "note_on channel=5 note=54 velocity=96 time=1\n",
      "note_on channel=5 note=58 velocity=96 time=1\n",
      "note_on channel=5 note=61 velocity=96 time=1\n",
      "note_on channel=5 note=66 velocity=86 time=2\n",
      "note_on channel=5 note=54 velocity=0 time=6\n",
      "note_on channel=5 note=58 velocity=0 time=1\n",
      "note_on channel=5 note=61 velocity=0 time=1\n",
      "note_on channel=5 note=66 velocity=0 time=2\n",
      "note_on channel=5 note=54 velocity=116 time=44\n",
      "note_on channel=5 note=58 velocity=116 time=1\n",
      "note_on channel=5 note=66 velocity=106 time=3\n",
      "note_on channel=5 note=61 velocity=116 time=0\n",
      "note_on channel=5 note=54 velocity=0 time=54\n",
      "note_on channel=5 note=58 velocity=0 time=1\n",
      "note_on channel=5 note=66 velocity=0 time=1\n",
      "note_on channel=5 note=61 velocity=0 time=0\n",
      "note_on channel=5 note=51 velocity=116 time=2\n",
      "note_on channel=5 note=56 velocity=116 time=1\n",
      "note_on channel=5 note=63 velocity=106 time=3\n",
      "note_on channel=5 note=59 velocity=116 time=0\n",
      "note_on channel=5 note=59 velocity=0 time=50\n",
      "note_on channel=5 note=63 velocity=0 time=0\n",
      "note_on channel=5 note=51 velocity=0 time=2\n",
      "note_on channel=5 note=56 velocity=0 time=1\n",
      "note_on channel=5 note=51 velocity=103 time=3\n",
      "note_on channel=5 note=56 velocity=103 time=1\n",
      "note_on channel=5 note=59 velocity=103 time=1\n",
      "note_on channel=5 note=63 velocity=94 time=2\n",
      "note_on channel=5 note=63 velocity=0 time=53\n",
      "note_on channel=5 note=59 velocity=0 time=1\n",
      "note_on channel=5 note=51 velocity=0 time=0\n",
      "note_on channel=5 note=56 velocity=0 time=1\n",
      "note_on channel=5 note=51 velocity=96 time=1\n",
      "note_on channel=5 note=56 velocity=96 time=1\n",
      "note_on channel=5 note=59 velocity=96 time=1\n",
      "note_on channel=5 note=63 velocity=86 time=2\n",
      "note_on channel=5 note=51 velocity=0 time=6\n",
      "note_on channel=5 note=56 velocity=0 time=1\n",
      "note_on channel=5 note=59 velocity=0 time=1\n",
      "note_on channel=5 note=63 velocity=0 time=2\n",
      "note_on channel=5 note=51 velocity=116 time=44\n",
      "note_on channel=5 note=56 velocity=116 time=1\n",
      "note_on channel=5 note=63 velocity=106 time=3\n",
      "note_on channel=5 note=59 velocity=116 time=0\n",
      "note_on channel=5 note=51 velocity=0 time=54\n",
      "note_on channel=5 note=56 velocity=0 time=1\n",
      "note_on channel=5 note=63 velocity=0 time=1\n",
      "note_on channel=5 note=59 velocity=0 time=0\n",
      "note_on channel=5 note=51 velocity=101 time=1067\n",
      "note_on channel=5 note=56 velocity=101 time=10\n",
      "note_on channel=5 note=59 velocity=101 time=12\n",
      "note_on channel=5 note=63 velocity=93 time=3\n",
      "note_on channel=5 note=63 velocity=0 time=351\n",
      "note_on channel=5 note=51 velocity=0 time=0\n",
      "note_on channel=5 note=56 velocity=0 time=0\n",
      "note_on channel=5 note=59 velocity=0 time=0\n",
      "MetaMessage('end_of_track', time=0)\n",
      "Track 7\n",
      "MetaMessage('midi_port', port=0, time=0)\n",
      "MetaMessage('track_name', name='', time=0)\n",
      "program_change channel=6 program=54 time=0\n",
      "control_change channel=6 control=7 value=85 time=0\n",
      "control_change channel=6 control=10 value=64 time=0\n",
      "control_change channel=6 control=11 value=127 time=620\n",
      "control_change channel=6 control=91 value=80 time=2\n",
      "control_change channel=6 control=93 value=60 time=2\n",
      "control_change channel=6 control=94 value=0 time=2\n",
      "note_on channel=6 note=73 velocity=81 time=10055\n",
      "note_on channel=6 note=76 velocity=81 time=0\n",
      "note_on channel=6 note=76 velocity=0 time=121\n",
      "note_on channel=6 note=73 velocity=0 time=0\n",
      "note_on channel=6 note=71 velocity=77 time=6\n",
      "note_on channel=6 note=74 velocity=77 time=0\n",
      "note_on channel=6 note=74 velocity=0 time=56\n",
      "note_on channel=6 note=71 velocity=0 time=0\n",
      "note_on channel=6 note=69 velocity=80 time=0\n",
      "note_on channel=6 note=73 velocity=80 time=0\n",
      "note_on channel=6 note=73 velocity=0 time=60\n",
      "note_on channel=6 note=69 velocity=0 time=0\n",
      "note_on channel=6 note=68 velocity=77 time=2\n",
      "note_on channel=6 note=71 velocity=77 time=0\n",
      "note_on channel=6 note=66 velocity=69 time=55\n",
      "note_on channel=6 note=69 velocity=69 time=0\n",
      "note_on channel=6 note=71 velocity=0 time=8\n",
      "note_on channel=6 note=68 velocity=0 time=0\n",
      "note_on channel=6 note=66 velocity=0 time=51\n",
      "note_on channel=6 note=69 velocity=0 time=0\n",
      "note_on channel=6 note=64 velocity=81 time=0\n",
      "note_on channel=6 note=68 velocity=81 time=0\n",
      "note_on channel=6 note=68 velocity=0 time=150\n",
      "note_on channel=6 note=64 velocity=0 time=0\n",
      "note_on channel=6 note=66 velocity=81 time=30\n",
      "note_on channel=6 note=69 velocity=81 time=0\n",
      "note_on channel=6 note=69 velocity=0 time=121\n",
      "note_on channel=6 note=66 velocity=0 time=0\n",
      "note_on channel=6 note=76 velocity=81 time=299\n",
      "note_on channel=6 note=73 velocity=81 time=1\n",
      "note_on channel=6 note=76 velocity=0 time=119\n",
      "note_on channel=6 note=73 velocity=0 time=2\n",
      "note_on channel=6 note=74 velocity=77 time=0\n",
      "note_on channel=6 note=71 velocity=77 time=6\n",
      "note_on channel=6 note=73 velocity=77 time=52\n",
      "note_on channel=6 note=71 velocity=0 time=4\n",
      "note_on channel=6 note=69 velocity=80 time=0\n",
      "note_on channel=6 note=74 velocity=0 time=1\n",
      "note_on channel=6 note=71 velocity=77 time=55\n",
      "note_on channel=6 note=73 velocity=0 time=3\n",
      "note_on channel=6 note=69 velocity=0 time=1\n",
      "note_on channel=6 note=68 velocity=77 time=2\n",
      "note_on channel=6 note=69 velocity=69 time=52\n",
      "note_on channel=6 note=66 velocity=69 time=3\n",
      "note_on channel=6 note=71 velocity=0 time=7\n",
      "note_on channel=6 note=68 velocity=0 time=1\n",
      "note_on channel=6 note=66 velocity=0 time=51\n",
      "note_on channel=6 note=64 velocity=81 time=0\n",
      "note_on channel=6 note=68 velocity=81 time=0\n",
      "note_on channel=6 note=69 velocity=0 time=11\n",
      "note_on channel=6 note=68 velocity=0 time=139\n",
      "note_on channel=6 note=64 velocity=0 time=0\n",
      "note_on channel=6 note=66 velocity=81 time=30\n",
      "note_on channel=6 note=69 velocity=81 time=0\n",
      "note_on channel=6 note=69 velocity=0 time=121\n",
      "note_on channel=6 note=66 velocity=0 time=0\n",
      "note_on channel=6 note=66 velocity=77 time=61\n",
      "note_on channel=6 note=69 velocity=77 time=0\n",
      "note_on channel=6 note=69 velocity=0 time=53\n",
      "note_on channel=6 note=66 velocity=0 time=0\n",
      "note_on channel=6 note=61 velocity=80 time=6\n",
      "note_on channel=6 note=66 velocity=80 time=0\n",
      "note_on channel=6 note=66 velocity=0 time=44\n",
      "note_on channel=6 note=61 velocity=0 time=0\n",
      "note_on channel=6 note=61 velocity=100 time=15\n",
      "note_on channel=6 note=66 velocity=100 time=0\n",
      "note_on channel=6 note=66 velocity=0 time=58\n",
      "note_on channel=6 note=61 velocity=0 time=0\n",
      "note_on channel=6 note=69 velocity=82 time=602\n",
      "note_on channel=6 note=64 velocity=80 time=1\n",
      "note_on channel=6 note=73 velocity=89 time=1\n",
      "note_on channel=6 note=69 velocity=0 time=82\n",
      "note_on channel=6 note=71 velocity=67 time=13\n",
      "note_on channel=6 note=73 velocity=0 time=4\n",
      "note_on channel=6 note=71 velocity=0 time=14\n",
      "note_on channel=6 note=69 velocity=86 time=3\n",
      "note_on channel=6 note=64 velocity=0 time=63\n",
      "note_on channel=6 note=69 velocity=0 time=2\n",
      "note_on channel=6 note=61 velocity=102 time=117\n",
      "note_on channel=6 note=66 velocity=102 time=0\n",
      "note_on channel=6 note=66 velocity=0 time=148\n",
      "note_on channel=6 note=61 velocity=0 time=0\n",
      "note_on channel=6 note=69 velocity=89 time=31\n",
      "note_on channel=6 note=66 velocity=89 time=0\n",
      "note_on channel=6 note=66 velocity=0 time=184\n",
      "note_on channel=6 note=69 velocity=0 time=0\n",
      "note_on channel=6 note=69 velocity=99 time=1\n",
      "note_on channel=6 note=73 velocity=99 time=0\n",
      "note_on channel=6 note=68 velocity=89 time=116\n",
      "note_on channel=6 note=71 velocity=89 time=0\n",
      "note_on channel=6 note=73 velocity=0 time=1\n",
      "note_on channel=6 note=69 velocity=0 time=0\n",
      "note_on channel=6 note=68 velocity=0 time=179\n",
      "note_on channel=6 note=71 velocity=0 time=0\n",
      "note_on channel=6 note=69 velocity=89 time=1\n",
      "note_on channel=6 note=64 velocity=89 time=0\n",
      "note_on channel=6 note=64 velocity=0 time=134\n",
      "note_on channel=6 note=69 velocity=0 time=0\n",
      "note_on channel=6 note=69 velocity=63 time=640\n",
      "note_on channel=6 note=74 velocity=61 time=1\n",
      "note_on channel=6 note=69 velocity=0 time=162\n",
      "note_on channel=6 note=74 velocity=0 time=7\n",
      "note_on channel=6 note=69 velocity=57 time=15\n",
      "note_on channel=6 note=73 velocity=55 time=2\n",
      "note_on channel=6 note=73 velocity=0 time=176\n",
      "note_on channel=6 note=69 velocity=0 time=0\n",
      "note_on channel=6 note=69 velocity=63 time=603\n",
      "note_on channel=6 note=74 velocity=61 time=1\n",
      "note_on channel=6 note=69 velocity=0 time=162\n",
      "note_on channel=6 note=74 velocity=0 time=7\n",
      "note_on channel=6 note=69 velocity=57 time=15\n",
      "note_on channel=6 note=73 velocity=55 time=2\n",
      "note_on channel=6 note=73 velocity=0 time=176\n",
      "note_on channel=6 note=69 velocity=0 time=0\n",
      "note_on channel=6 note=71 velocity=63 time=596\n",
      "note_on channel=6 note=64 velocity=63 time=0\n",
      "pitchwheel channel=6 pitch=-361 time=57\n",
      "pitchwheel channel=6 pitch=-61 time=0\n",
      "pitchwheel channel=6 pitch=-761 time=1\n",
      "pitchwheel channel=6 pitch=-1281 time=0\n",
      "pitchwheel channel=6 pitch=-1821 time=1\n",
      "pitchwheel channel=6 pitch=-2401 time=1\n",
      "pitchwheel channel=6 pitch=-3601 time=1\n",
      "pitchwheel channel=6 pitch=-3001 time=0\n",
      "pitchwheel channel=6 pitch=-4241 time=2\n",
      "pitchwheel channel=6 pitch=-4901 time=0\n",
      "pitchwheel channel=6 pitch=-5541 time=1\n",
      "pitchwheel channel=6 pitch=-6741 time=1\n",
      "pitchwheel channel=6 pitch=-6161 time=0\n",
      "pitchwheel channel=6 pitch=-7321 time=2\n",
      "pitchwheel channel=6 pitch=-7841 time=0\n",
      "pitchwheel channel=6 pitch=-8141 time=1\n",
      "pitchwheel channel=6 pitch=-8192 time=1\n",
      "pitchwheel channel=6 pitch=-8081 time=43\n",
      "pitchwheel channel=6 pitch=-7801 time=1\n",
      "pitchwheel channel=6 pitch=-7461 time=1\n",
      "pitchwheel channel=6 pitch=-7081 time=1\n",
      "pitchwheel channel=6 pitch=-6261 time=1\n",
      "pitchwheel channel=6 pitch=-6701 time=0\n",
      "pitchwheel channel=6 pitch=-5821 time=1\n",
      "pitchwheel channel=6 pitch=-4861 time=1\n",
      "pitchwheel channel=6 pitch=-5381 time=0\n",
      "pitchwheel channel=6 pitch=-3841 time=2\n",
      "pitchwheel channel=6 pitch=-4361 time=0\n",
      "pitchwheel channel=6 pitch=-3241 time=1\n",
      "pitchwheel channel=6 pitch=-2701 time=1\n",
      "pitchwheel channel=6 pitch=-1481 time=1\n",
      "pitchwheel channel=6 pitch=-2121 time=0\n",
      "pitchwheel channel=6 pitch=-901 time=1\n",
      "pitchwheel channel=6 pitch=-361 time=1\n",
      "pitchwheel channel=6 pitch=0 time=1\n",
      "note_on channel=6 note=64 velocity=0 time=24\n",
      "note_on channel=6 note=71 velocity=0 time=0\n",
      "note_on channel=6 note=69 velocity=57 time=30\n",
      "note_on channel=6 note=73 velocity=57 time=0\n",
      "note_on channel=6 note=73 velocity=0 time=120\n",
      "note_on channel=6 note=69 velocity=0 time=0\n",
      "note_on channel=6 note=73 velocity=81 time=1261\n",
      "note_on channel=6 note=76 velocity=81 time=0\n",
      "note_on channel=6 note=76 velocity=0 time=121\n",
      "note_on channel=6 note=73 velocity=0 time=0\n",
      "note_on channel=6 note=71 velocity=77 time=6\n",
      "note_on channel=6 note=74 velocity=77 time=0\n",
      "note_on channel=6 note=74 velocity=0 time=56\n",
      "note_on channel=6 note=71 velocity=0 time=0\n",
      "note_on channel=6 note=69 velocity=80 time=0\n",
      "note_on channel=6 note=73 velocity=80 time=0\n",
      "note_on channel=6 note=73 velocity=0 time=60\n",
      "note_on channel=6 note=69 velocity=0 time=0\n",
      "note_on channel=6 note=68 velocity=77 time=2\n",
      "note_on channel=6 note=71 velocity=77 time=0\n",
      "note_on channel=6 note=66 velocity=69 time=55\n",
      "note_on channel=6 note=69 velocity=69 time=0\n",
      "note_on channel=6 note=71 velocity=0 time=8\n",
      "note_on channel=6 note=68 velocity=0 time=0\n",
      "note_on channel=6 note=66 velocity=0 time=51\n",
      "note_on channel=6 note=69 velocity=0 time=0\n",
      "note_on channel=6 note=64 velocity=81 time=0\n",
      "note_on channel=6 note=68 velocity=81 time=0\n",
      "note_on channel=6 note=68 velocity=0 time=150\n",
      "note_on channel=6 note=64 velocity=0 time=0\n",
      "note_on channel=6 note=66 velocity=81 time=30\n",
      "note_on channel=6 note=69 velocity=81 time=0\n",
      "note_on channel=6 note=69 velocity=0 time=121\n",
      "note_on channel=6 note=66 velocity=0 time=0\n",
      "note_on channel=6 note=76 velocity=81 time=299\n",
      "note_on channel=6 note=73 velocity=81 time=1\n",
      "note_on channel=6 note=76 velocity=0 time=119\n",
      "note_on channel=6 note=73 velocity=0 time=2\n",
      "note_on channel=6 note=74 velocity=77 time=0\n",
      "note_on channel=6 note=71 velocity=77 time=6\n",
      "note_on channel=6 note=73 velocity=77 time=52\n",
      "note_on channel=6 note=71 velocity=0 time=4\n",
      "note_on channel=6 note=69 velocity=80 time=0\n",
      "note_on channel=6 note=74 velocity=0 time=1\n",
      "note_on channel=6 note=71 velocity=77 time=55\n",
      "note_on channel=6 note=73 velocity=0 time=3\n",
      "note_on channel=6 note=69 velocity=0 time=1\n",
      "note_on channel=6 note=68 velocity=77 time=2\n",
      "note_on channel=6 note=69 velocity=69 time=52\n",
      "note_on channel=6 note=66 velocity=69 time=3\n",
      "note_on channel=6 note=71 velocity=0 time=7\n",
      "note_on channel=6 note=68 velocity=0 time=1\n",
      "note_on channel=6 note=66 velocity=0 time=51\n",
      "note_on channel=6 note=64 velocity=81 time=0\n",
      "note_on channel=6 note=68 velocity=81 time=0\n",
      "note_on channel=6 note=69 velocity=0 time=11\n",
      "note_on channel=6 note=68 velocity=0 time=139\n",
      "note_on channel=6 note=64 velocity=0 time=0\n",
      "note_on channel=6 note=66 velocity=81 time=30\n",
      "note_on channel=6 note=69 velocity=81 time=0\n",
      "note_on channel=6 note=69 velocity=0 time=121\n",
      "note_on channel=6 note=66 velocity=0 time=0\n",
      "note_on channel=6 note=66 velocity=77 time=61\n",
      "note_on channel=6 note=69 velocity=77 time=0\n",
      "note_on channel=6 note=69 velocity=0 time=53\n",
      "note_on channel=6 note=66 velocity=0 time=0\n",
      "note_on channel=6 note=61 velocity=80 time=6\n",
      "note_on channel=6 note=66 velocity=80 time=0\n",
      "note_on channel=6 note=66 velocity=0 time=44\n",
      "note_on channel=6 note=61 velocity=0 time=0\n",
      "note_on channel=6 note=61 velocity=100 time=15\n",
      "note_on channel=6 note=66 velocity=100 time=0\n",
      "note_on channel=6 note=66 velocity=0 time=58\n",
      "note_on channel=6 note=61 velocity=0 time=0\n",
      "note_on channel=6 note=69 velocity=65 time=602\n",
      "note_on channel=6 note=64 velocity=64 time=1\n",
      "note_on channel=6 note=73 velocity=71 time=1\n",
      "note_on channel=6 note=69 velocity=0 time=82\n",
      "note_on channel=6 note=71 velocity=53 time=13\n",
      "note_on channel=6 note=73 velocity=0 time=4\n",
      "note_on channel=6 note=71 velocity=0 time=14\n",
      "note_on channel=6 note=69 velocity=68 time=3\n",
      "note_on channel=6 note=64 velocity=0 time=63\n",
      "note_on channel=6 note=69 velocity=0 time=2\n",
      "note_on channel=6 note=61 velocity=81 time=117\n",
      "note_on channel=6 note=66 velocity=81 time=0\n",
      "note_on channel=6 note=66 velocity=0 time=148\n",
      "note_on channel=6 note=61 velocity=0 time=0\n",
      "note_on channel=6 note=69 velocity=71 time=31\n",
      "note_on channel=6 note=66 velocity=71 time=0\n",
      "note_on channel=6 note=66 velocity=0 time=184\n",
      "note_on channel=6 note=69 velocity=0 time=0\n",
      "note_on channel=6 note=69 velocity=79 time=1\n",
      "note_on channel=6 note=73 velocity=79 time=0\n",
      "note_on channel=6 note=61 velocity=71 time=116\n",
      "note_on channel=6 note=66 velocity=71 time=0\n",
      "note_on channel=6 note=68 velocity=71 time=0\n",
      "note_on channel=6 note=73 velocity=71 time=0\n",
      "note_on channel=6 note=73 velocity=0 time=1\n",
      "note_on channel=6 note=69 velocity=0 time=0\n",
      "note_on channel=6 note=68 velocity=0 time=179\n",
      "note_on channel=6 note=66 velocity=0 time=0\n",
      "note_on channel=6 note=73 velocity=0 time=0\n",
      "note_on channel=6 note=61 velocity=0 time=0\n",
      "note_on channel=6 note=61 velocity=71 time=1\n",
      "note_on channel=6 note=68 velocity=71 time=0\n",
      "note_on channel=6 note=73 velocity=71 time=0\n",
      "note_on channel=6 note=65 velocity=71 time=0\n",
      "note_on channel=6 note=65 velocity=0 time=179\n",
      "note_on channel=6 note=61 velocity=0 time=0\n",
      "note_on channel=6 note=68 velocity=0 time=0\n",
      "note_on channel=6 note=73 velocity=0 time=0\n",
      "note_on channel=6 note=59 velocity=77 time=1680\n",
      "note_on channel=6 note=64 velocity=77 time=0\n",
      "note_on channel=6 note=69 velocity=77 time=0\n",
      "note_on channel=6 note=61 velocity=69 time=62\n",
      "note_on channel=6 note=64 velocity=69 time=0\n",
      "note_on channel=6 note=68 velocity=69 time=0\n",
      "note_on channel=6 note=69 velocity=0 time=1\n",
      "note_on channel=6 note=59 velocity=0 time=0\n",
      "note_on channel=6 note=64 velocity=0 time=0\n",
      "note_on channel=6 note=61 velocity=0 time=89\n",
      "note_on channel=6 note=64 velocity=0 time=0\n",
      "note_on channel=6 note=68 velocity=0 time=0\n",
      "note_on channel=6 note=78 velocity=106 time=149\n",
      "note_on channel=6 note=78 velocity=0 time=19\n",
      "note_on channel=6 note=81 velocity=106 time=40\n",
      "note_on channel=6 note=81 velocity=0 time=60\n",
      "note_on channel=6 note=80 velocity=99 time=1\n",
      "note_on channel=6 note=80 velocity=0 time=13\n",
      "note_on channel=6 note=78 velocity=99 time=43\n",
      "note_on channel=6 note=78 velocity=0 time=51\n",
      "note_on channel=6 note=78 velocity=99 time=11\n",
      "note_on channel=6 note=78 velocity=0 time=110\n",
      "note_on channel=6 note=78 velocity=106 time=10\n",
      "note_on channel=6 note=78 velocity=0 time=104\n",
      "note_on channel=6 note=78 velocity=99 time=16\n",
      "note_on channel=6 note=78 velocity=0 time=34\n",
      "note_on channel=6 note=81 velocity=110 time=23\n",
      "note_on channel=6 note=81 velocity=0 time=62\n",
      "note_on channel=6 note=80 velocity=99 time=0\n",
      "note_on channel=6 note=80 velocity=0 time=20\n",
      "note_on channel=6 note=78 velocity=106 time=39\n",
      "note_on channel=6 note=78 velocity=0 time=24\n",
      "note_on channel=6 note=78 velocity=99 time=40\n",
      "note_on channel=6 note=78 velocity=0 time=194\n",
      "note_on channel=6 note=78 velocity=106 time=46\n",
      "note_on channel=6 note=78 velocity=0 time=15\n",
      "note_on channel=6 note=81 velocity=106 time=44\n",
      "note_on channel=6 note=80 velocity=91 time=58\n",
      "note_on channel=6 note=81 velocity=0 time=7\n",
      "note_on channel=6 note=80 velocity=0 time=51\n",
      "note_on channel=6 note=78 velocity=91 time=3\n",
      "note_on channel=6 note=78 velocity=0 time=11\n",
      "note_on channel=6 note=78 velocity=91 time=49\n",
      "note_on channel=6 note=78 velocity=0 time=94\n",
      "note_on channel=6 note=78 velocity=91 time=28\n",
      "note_on channel=6 note=78 velocity=0 time=45\n",
      "note_on channel=6 note=81 velocity=84 time=16\n",
      "note_on channel=6 note=81 velocity=0 time=26\n",
      "note_on channel=6 note=81 velocity=88 time=32\n",
      "note_on channel=6 note=81 velocity=0 time=238\n",
      "note_on channel=6 note=80 velocity=88 time=2\n",
      "note_on channel=6 note=80 velocity=0 time=300\n",
      "note_on channel=6 note=50 velocity=87 time=2044\n",
      "note_on channel=6 note=54 velocity=87 time=0\n",
      "note_on channel=6 note=54 velocity=0 time=44\n",
      "note_on channel=6 note=50 velocity=0 time=0\n",
      "note_on channel=6 note=54 velocity=87 time=15\n",
      "note_on channel=6 note=57 velocity=87 time=0\n",
      "note_on channel=6 note=54 velocity=0 time=177\n",
      "note_on channel=6 note=61 velocity=95 time=0\n",
      "note_on channel=6 note=64 velocity=95 time=0\n",
      "note_on channel=6 note=64 velocity=0 time=44\n",
      "note_on channel=6 note=61 velocity=0 time=0\n",
      "note_on channel=6 note=61 velocity=95 time=16\n",
      "note_on channel=6 note=64 velocity=95 time=0\n",
      "note_on channel=6 note=76 velocity=84 time=180\n",
      "note_on channel=6 note=81 velocity=84 time=0\n",
      "note_on channel=6 note=81 velocity=0 time=51\n",
      "note_on channel=6 note=76 velocity=0 time=0\n",
      "note_on channel=6 note=76 velocity=97 time=9\n",
      "note_on channel=6 note=80 velocity=97 time=0\n",
      "note_on channel=6 note=57 velocity=0 time=120\n",
      "note_on channel=6 note=76 velocity=84 time=2\n",
      "note_on channel=6 note=73 velocity=84 time=1\n",
      "note_on channel=6 note=76 velocity=0 time=1\n",
      "note_on channel=6 note=80 velocity=0 time=0\n",
      "note_on channel=6 note=61 velocity=0 time=206\n",
      "note_on channel=6 note=64 velocity=0 time=0\n",
      "note_on channel=6 note=73 velocity=0 time=20\n",
      "note_on channel=6 note=76 velocity=0 time=12\n",
      "note_on channel=6 note=71 velocity=80 time=901\n",
      "note_on channel=6 note=75 velocity=83 time=0\n",
      "note_on channel=6 note=78 velocity=74 time=0\n",
      "note_on channel=6 note=78 velocity=0 time=134\n",
      "note_on channel=6 note=75 velocity=0 time=0\n",
      "note_on channel=6 note=71 velocity=0 time=0\n",
      "note_on channel=6 note=78 velocity=72 time=44\n",
      "note_on channel=6 note=71 velocity=94 time=1\n",
      "note_on channel=6 note=75 velocity=73 time=2\n",
      "note_on channel=6 note=75 velocity=0 time=85\n",
      "note_on channel=6 note=78 velocity=0 time=1\n",
      "note_on channel=6 note=71 velocity=0 time=1\n",
      "note_on channel=6 note=78 velocity=77 time=30\n",
      "note_on channel=6 note=71 velocity=84 time=1\n",
      "note_on channel=6 note=75 velocity=64 time=1\n",
      "note_on channel=6 note=75 velocity=0 time=21\n",
      "note_on channel=6 note=71 velocity=0 time=3\n",
      "note_on channel=6 note=78 velocity=0 time=1\n",
      "note_on channel=6 note=71 velocity=89 time=31\n",
      "note_on channel=6 note=66 velocity=84 time=1\n",
      "note_on channel=6 note=66 velocity=0 time=40\n",
      "note_on channel=6 note=71 velocity=0 time=1\n",
      "note_on channel=6 note=71 velocity=74 time=16\n",
      "note_on channel=6 note=66 velocity=72 time=3\n",
      "note_on channel=6 note=66 velocity=0 time=29\n",
      "note_on channel=6 note=71 velocity=0 time=2\n",
      "note_on channel=6 note=73 velocity=80 time=27\n",
      "note_on channel=6 note=70 velocity=97 time=1\n",
      "note_on channel=6 note=66 velocity=80 time=1\n",
      "note_on channel=6 note=66 velocity=0 time=155\n",
      "note_on channel=6 note=70 velocity=0 time=2\n",
      "note_on channel=6 note=73 velocity=0 time=1\n",
      "note_on channel=6 note=71 velocity=89 time=19\n",
      "note_on channel=6 note=75 velocity=89 time=2\n",
      "note_on channel=6 note=66 velocity=80 time=0\n",
      "note_on channel=6 note=66 velocity=0 time=239\n",
      "note_on channel=6 note=71 velocity=0 time=2\n",
      "note_on channel=6 note=75 velocity=0 time=2\n",
      "note_on channel=6 note=78 velocity=80 time=59\n",
      "note_on channel=6 note=75 velocity=83 time=1\n",
      "note_on channel=6 note=71 velocity=67 time=0\n",
      "note_on channel=6 note=75 velocity=0 time=112\n",
      "note_on channel=6 note=78 velocity=0 time=2\n",
      "note_on channel=6 note=71 velocity=0 time=1\n",
      "note_on channel=6 note=71 velocity=89 time=63\n",
      "note_on channel=6 note=78 velocity=72 time=0\n",
      "note_on channel=6 note=75 velocity=89 time=1\n",
      "note_on channel=6 note=75 velocity=0 time=83\n",
      "note_on channel=6 note=78 velocity=0 time=0\n",
      "note_on channel=6 note=71 velocity=0 time=2\n",
      "note_on channel=6 note=78 velocity=80 time=34\n",
      "note_on channel=6 note=71 velocity=77 time=1\n",
      "note_on channel=6 note=75 velocity=61 time=2\n",
      "note_on channel=6 note=75 velocity=0 time=19\n",
      "note_on channel=6 note=71 velocity=0 time=2\n",
      "note_on channel=6 note=78 velocity=0 time=4\n",
      "note_on channel=6 note=71 velocity=89 time=31\n",
      "note_on channel=6 note=66 velocity=80 time=2\n",
      "note_on channel=6 note=66 velocity=0 time=40\n",
      "note_on channel=6 note=71 velocity=0 time=2\n",
      "note_on channel=6 note=71 velocity=94 time=15\n",
      "note_on channel=6 note=66 velocity=77 time=2\n",
      "note_on channel=6 note=66 velocity=0 time=36\n",
      "note_on channel=6 note=71 velocity=0 time=0\n",
      "note_on channel=6 note=73 velocity=80 time=23\n",
      "note_on channel=6 note=70 velocity=97 time=1\n",
      "note_on channel=6 note=66 velocity=77 time=1\n",
      "note_on channel=6 note=66 velocity=0 time=152\n",
      "note_on channel=6 note=70 velocity=0 time=3\n",
      "note_on channel=6 note=73 velocity=0 time=1\n",
      "note_on channel=6 note=71 velocity=99 time=19\n",
      "note_on channel=6 note=66 velocity=84 time=2\n",
      "note_on channel=6 note=75 velocity=103 time=0\n",
      "note_on channel=6 note=66 velocity=0 time=136\n",
      "note_on channel=6 note=71 velocity=0 time=4\n",
      "note_on channel=6 note=75 velocity=0 time=3\n",
      "note_on channel=6 note=78 velocity=89 time=160\n",
      "note_on channel=6 note=75 velocity=111 time=0\n",
      "note_on channel=6 note=71 velocity=94 time=1\n",
      "note_on channel=6 note=78 velocity=0 time=154\n",
      "note_on channel=6 note=71 velocity=0 time=2\n",
      "note_on channel=6 note=75 velocity=0 time=0\n",
      "note_on channel=6 note=78 velocity=80 time=20\n",
      "note_on channel=6 note=71 velocity=94 time=1\n",
      "note_on channel=6 note=75 velocity=89 time=0\n",
      "note_on channel=6 note=78 velocity=0 time=97\n",
      "note_on channel=6 note=75 velocity=0 time=3\n",
      "note_on channel=6 note=71 velocity=0 time=2\n",
      "note_on channel=6 note=78 velocity=67 time=16\n",
      "note_on channel=6 note=71 velocity=84 time=1\n",
      "note_on channel=6 note=75 velocity=78 time=1\n",
      "note_on channel=6 note=71 velocity=0 time=45\n",
      "note_on channel=6 note=75 velocity=0 time=4\n",
      "note_on channel=6 note=78 velocity=0 time=3\n",
      "note_on channel=6 note=71 velocity=89 time=7\n",
      "note_on channel=6 note=66 velocity=89 time=4\n",
      "note_on channel=6 note=66 velocity=0 time=37\n",
      "note_on channel=6 note=71 velocity=0 time=3\n",
      "note_on channel=6 note=71 velocity=77 time=13\n",
      "note_on channel=6 note=66 velocity=67 time=3\n",
      "note_on channel=6 note=66 velocity=0 time=32\n",
      "note_on channel=6 note=71 velocity=0 time=1\n",
      "note_on channel=6 note=73 velocity=89 time=27\n",
      "note_on channel=6 note=70 velocity=103 time=1\n",
      "note_on channel=6 note=66 velocity=84 time=5\n",
      "note_on channel=6 note=66 velocity=0 time=140\n",
      "note_on channel=6 note=73 velocity=0 time=0\n",
      "note_on channel=6 note=70 velocity=0 time=1\n",
      "note_on channel=6 note=71 velocity=89 time=32\n",
      "note_on channel=6 note=75 velocity=111 time=1\n",
      "note_on channel=6 note=66 velocity=94 time=0\n",
      "note_on channel=6 note=66 velocity=0 time=210\n",
      "note_on channel=6 note=71 velocity=0 time=4\n",
      "note_on channel=6 note=75 velocity=0 time=1\n",
      "note_on channel=6 note=75 velocity=103 time=207\n",
      "note_on channel=6 note=71 velocity=103 time=0\n",
      "note_on channel=6 note=75 velocity=0 time=238\n",
      "note_on channel=6 note=71 velocity=0 time=1\n",
      "note_on channel=6 note=76 velocity=103 time=2\n",
      "note_on channel=6 note=73 velocity=107 time=1\n",
      "note_on channel=6 note=75 velocity=83 time=52\n",
      "note_on channel=6 note=73 velocity=0 time=1\n",
      "note_on channel=6 note=71 velocity=94 time=4\n",
      "note_on channel=6 note=76 velocity=0 time=1\n",
      "note_on channel=6 note=75 velocity=0 time=13\n",
      "note_on channel=6 note=71 velocity=0 time=1\n",
      "note_on channel=6 note=73 velocity=103 time=47\n",
      "note_on channel=6 note=70 velocity=120 time=1\n",
      "note_on channel=6 note=70 velocity=0 time=117\n",
      "note_on channel=6 note=73 velocity=0 time=4\n",
      "note_on channel=6 note=71 velocity=107 time=52\n",
      "note_on channel=6 note=66 velocity=103 time=1\n",
      "note_on channel=6 note=66 velocity=0 time=190\n",
      "note_on channel=6 note=71 velocity=0 time=4\n",
      "note_on channel=6 note=78 velocity=50 time=111\n",
      "note_on channel=6 note=71 velocity=52 time=0\n",
      "note_on channel=6 note=66 velocity=55 time=2\n",
      "note_on channel=6 note=78 velocity=0 time=102\n",
      "note_on channel=6 note=66 velocity=0 time=4\n",
      "note_on channel=6 note=71 velocity=0 time=3\n",
      "note_on channel=6 note=78 velocity=80 time=6\n",
      "note_on channel=6 note=71 velocity=84 time=0\n",
      "note_on channel=6 note=66 velocity=89 time=2\n",
      "note_on channel=6 note=78 velocity=0 time=102\n",
      "note_on channel=6 note=66 velocity=0 time=4\n",
      "note_on channel=6 note=71 velocity=0 time=3\n",
      "note_on channel=6 note=76 velocity=99 time=11\n",
      "note_on channel=6 note=71 velocity=99 time=3\n",
      "note_on channel=6 note=66 velocity=99 time=0\n",
      "note_on channel=6 note=66 velocity=0 time=39\n",
      "note_on channel=6 note=76 velocity=0 time=4\n",
      "note_on channel=6 note=71 velocity=0 time=1\n",
      "note_on channel=6 note=75 velocity=97 time=12\n",
      "note_on channel=6 note=71 velocity=84 time=1\n",
      "note_on channel=6 note=66 velocity=84 time=0\n",
      "note_on channel=6 note=75 velocity=0 time=43\n",
      "note_on channel=6 note=66 velocity=0 time=6\n",
      "note_on channel=6 note=71 velocity=0 time=1\n",
      "note_on channel=6 note=73 velocity=84 time=8\n",
      "note_on channel=6 note=66 velocity=80 time=2\n",
      "note_on channel=6 note=73 velocity=0 time=42\n",
      "note_on channel=6 note=66 velocity=0 time=1\n",
      "note_on channel=6 note=71 velocity=99 time=16\n",
      "note_on channel=6 note=66 velocity=84 time=1\n",
      "note_on channel=6 note=66 velocity=0 time=36\n",
      "note_on channel=6 note=71 velocity=0 time=5\n",
      "note_on channel=6 note=70 velocity=83 time=20\n",
      "note_on channel=6 note=66 velocity=84 time=0\n",
      "note_on channel=6 note=61 velocity=84 time=2\n",
      "note_on channel=6 note=61 velocity=0 time=155\n",
      "note_on channel=6 note=70 velocity=0 time=9\n",
      "note_on channel=6 note=66 velocity=0 time=2\n",
      "note_on channel=6 note=66 velocity=84 time=14\n",
      "note_on channel=6 note=63 velocity=97 time=0\n",
      "note_on channel=6 note=71 velocity=99 time=1\n",
      "note_on channel=6 note=63 velocity=0 time=160\n",
      "note_on channel=6 note=71 velocity=0 time=3\n",
      "note_on channel=6 note=66 velocity=0 time=1\n",
      "note_on channel=6 note=71 velocity=52 time=133\n",
      "note_on channel=6 note=78 velocity=50 time=0\n",
      "note_on channel=6 note=66 velocity=55 time=2\n",
      "note_on channel=6 note=78 velocity=0 time=102\n",
      "note_on channel=6 note=66 velocity=0 time=4\n",
      "note_on channel=6 note=71 velocity=0 time=3\n",
      "note_on channel=6 note=78 velocity=89 time=9\n",
      "note_on channel=6 note=71 velocity=94 time=1\n",
      "note_on channel=6 note=66 velocity=94 time=1\n",
      "note_on channel=6 note=66 velocity=0 time=102\n",
      "note_on channel=6 note=78 velocity=0 time=1\n",
      "note_on channel=6 note=71 velocity=0 time=4\n",
      "note_on channel=6 note=76 velocity=94 time=13\n",
      "note_on channel=6 note=71 velocity=94 time=1\n",
      "note_on channel=6 note=66 velocity=94 time=0\n",
      "note_on channel=6 note=66 velocity=0 time=36\n",
      "note_on channel=6 note=71 velocity=0 time=8\n",
      "note_on channel=6 note=76 velocity=0 time=1\n",
      "note_on channel=6 note=75 velocity=97 time=9\n",
      "note_on channel=6 note=71 velocity=80 time=0\n",
      "note_on channel=6 note=66 velocity=80 time=2\n",
      "note_on channel=6 note=75 velocity=0 time=42\n",
      "note_on channel=6 note=66 velocity=0 time=2\n",
      "note_on channel=6 note=71 velocity=0 time=3\n",
      "note_on channel=6 note=73 velocity=80 time=12\n",
      "note_on channel=6 note=66 velocity=89 time=1\n",
      "note_on channel=6 note=66 velocity=0 time=44\n",
      "note_on channel=6 note=73 velocity=0 time=0\n",
      "note_on channel=6 note=66 velocity=80 time=15\n",
      "note_on channel=6 note=71 velocity=99 time=0\n",
      "note_on channel=6 note=66 velocity=0 time=37\n",
      "note_on channel=6 note=71 velocity=0 time=9\n",
      "note_on channel=6 note=61 velocity=94 time=17\n",
      "note_on channel=6 note=70 velocity=89 time=0\n",
      "note_on channel=6 note=66 velocity=77 time=1\n",
      "note_on channel=6 note=61 velocity=0 time=152\n",
      "note_on channel=6 note=66 velocity=0 time=10\n",
      "note_on channel=6 note=70 velocity=0 time=0\n",
      "note_on channel=6 note=71 velocity=99 time=15\n",
      "note_on channel=6 note=66 velocity=84 time=4\n",
      "note_on channel=6 note=63 velocity=97 time=0\n",
      "note_on channel=6 note=63 velocity=0 time=151\n",
      "note_on channel=6 note=66 velocity=0 time=2\n",
      "note_on channel=6 note=71 velocity=0 time=4\n",
      "note_on channel=6 note=71 velocity=89 time=19\n",
      "note_on channel=6 note=66 velocity=89 time=1\n",
      "note_on channel=6 note=63 velocity=83 time=1\n",
      "note_on channel=6 note=63 velocity=0 time=34\n",
      "note_on channel=6 note=71 velocity=0 time=4\n",
      "note_on channel=6 note=66 velocity=0 time=5\n",
      "note_on channel=6 note=63 velocity=97 time=10\n",
      "note_on channel=6 note=66 velocity=84 time=0\n",
      "note_on channel=6 note=70 velocity=97 time=1\n",
      "note_on channel=6 note=63 velocity=0 time=39\n",
      "note_on channel=6 note=70 velocity=0 time=2\n",
      "note_on channel=6 note=66 velocity=0 time=3\n",
      "note_on channel=6 note=68 velocity=89 time=13\n",
      "note_on channel=6 note=63 velocity=89 time=2\n",
      "note_on channel=6 note=78 velocity=50 time=6\n",
      "note_on channel=6 note=71 velocity=52 time=0\n",
      "note_on channel=6 note=66 velocity=55 time=2\n",
      "note_on channel=6 note=63 velocity=0 time=38\n",
      "note_on channel=6 note=68 velocity=0 time=1\n",
      "note_on channel=6 note=78 velocity=0 time=63\n",
      "note_on channel=6 note=66 velocity=0 time=4\n",
      "note_on channel=6 note=71 velocity=0 time=3\n",
      "note_on channel=6 note=78 velocity=84 time=13\n",
      "note_on channel=6 note=71 velocity=94 time=2\n",
      "note_on channel=6 note=66 velocity=94 time=1\n",
      "note_on channel=6 note=66 velocity=0 time=94\n",
      "note_on channel=6 note=78 velocity=0 time=1\n",
      "note_on channel=6 note=71 velocity=0 time=5\n",
      "note_on channel=6 note=76 velocity=94 time=12\n",
      "note_on channel=6 note=71 velocity=99 time=0\n",
      "note_on channel=6 note=66 velocity=94 time=2\n",
      "note_on channel=6 note=66 velocity=0 time=42\n",
      "note_on channel=6 note=76 velocity=0 time=4\n",
      "note_on channel=6 note=71 velocity=0 time=3\n",
      "note_on channel=6 note=75 velocity=89 time=8\n",
      "note_on channel=6 note=71 velocity=94 time=0\n",
      "note_on channel=6 note=66 velocity=84 time=1\n",
      "note_on channel=6 note=75 velocity=0 time=41\n",
      "note_on channel=6 note=66 velocity=0 time=1\n",
      "note_on channel=6 note=71 velocity=0 time=3\n",
      "note_on channel=6 note=66 velocity=74 time=14\n",
      "note_on channel=6 note=73 velocity=103 time=0\n",
      "note_on channel=6 note=66 velocity=0 time=46\n",
      "note_on channel=6 note=73 velocity=0 time=1\n",
      "note_on channel=6 note=71 velocity=99 time=12\n",
      "note_on channel=6 note=66 velocity=84 time=2\n",
      "note_on channel=6 note=66 velocity=0 time=37\n",
      "note_on channel=6 note=71 velocity=0 time=12\n",
      "note_on channel=6 note=73 velocity=94 time=10\n",
      "note_on channel=6 note=66 velocity=84 time=0\n",
      "note_on channel=6 note=70 velocity=97 time=1\n",
      "note_on channel=6 note=66 velocity=0 time=99\n",
      "note_on channel=6 note=73 velocity=0 time=4\n",
      "note_on channel=6 note=70 velocity=0 time=2\n",
      "note_on channel=6 note=71 velocity=89 time=13\n",
      "note_on channel=6 note=66 velocity=72 time=1\n",
      "note_on channel=6 note=75 velocity=111 time=1\n",
      "note_on channel=6 note=66 velocity=0 time=23\n",
      "note_on channel=6 note=71 velocity=0 time=1\n",
      "note_on channel=6 note=75 velocity=0 time=2\n",
      "note_on channel=6 note=71 velocity=103 time=34\n",
      "note_on channel=6 note=66 velocity=99 time=1\n",
      "note_on channel=6 note=75 velocity=111 time=1\n",
      "note_on channel=6 note=71 velocity=0 time=82\n",
      "note_on channel=6 note=73 velocity=84 time=13\n",
      "note_on channel=6 note=75 velocity=0 time=4\n",
      "note_on channel=6 note=73 velocity=0 time=14\n",
      "note_on channel=6 note=71 velocity=107 time=3\n",
      "note_on channel=6 note=66 velocity=0 time=63\n",
      "note_on channel=6 note=71 velocity=0 time=2\n",
      "note_on channel=6 note=63 velocity=97 time=120\n",
      "note_on channel=6 note=68 velocity=97 time=0\n",
      "note_on channel=6 note=71 velocity=94 time=1\n",
      "note_on channel=6 note=63 velocity=0 time=143\n",
      "note_on channel=6 note=68 velocity=0 time=3\n",
      "note_on channel=6 note=71 velocity=0 time=1\n",
      "note_on channel=6 note=71 velocity=94 time=29\n",
      "note_on channel=6 note=68 velocity=83 time=0\n",
      "note_on channel=6 note=63 velocity=89 time=1\n",
      "note_on channel=6 note=63 velocity=0 time=95\n",
      "note_on channel=6 note=71 velocity=0 time=2\n",
      "note_on channel=6 note=68 velocity=0 time=6\n",
      "note_on channel=6 note=71 velocity=99 time=77\n",
      "note_on channel=6 note=75 velocity=103 time=1\n",
      "note_on channel=6 note=66 velocity=94 time=1\n",
      "note_on channel=6 note=75 velocity=0 time=86\n",
      "note_on channel=6 note=66 velocity=0 time=1\n",
      "note_on channel=6 note=71 velocity=0 time=0\n",
      "note_on channel=6 note=73 velocity=103 time=30\n",
      "note_on channel=6 note=70 velocity=97 time=1\n",
      "note_on channel=6 note=66 velocity=99 time=1\n",
      "note_on channel=6 note=70 velocity=0 time=124\n",
      "note_on channel=6 note=73 velocity=0 time=1\n",
      "note_on channel=6 note=66 velocity=0 time=1\n",
      "note_on channel=6 note=71 velocity=99 time=50\n",
      "note_on channel=6 note=66 velocity=103 time=0\n",
      "note_on channel=6 note=63 velocity=97 time=1\n",
      "note_on channel=6 note=63 velocity=0 time=175\n",
      "note_on channel=6 note=66 velocity=0 time=6\n",
      "note_on channel=6 note=71 velocity=0 time=6\n",
      "note_on channel=6 note=78 velocity=80 time=232\n",
      "note_on channel=6 note=71 velocity=84 time=0\n",
      "note_on channel=6 note=66 velocity=89 time=2\n",
      "note_on channel=6 note=78 velocity=0 time=102\n",
      "note_on channel=6 note=66 velocity=0 time=4\n",
      "note_on channel=6 note=71 velocity=0 time=3\n",
      "note_on channel=6 note=76 velocity=99 time=11\n",
      "note_on channel=6 note=71 velocity=99 time=3\n",
      "note_on channel=6 note=66 velocity=99 time=0\n",
      "note_on channel=6 note=66 velocity=0 time=39\n",
      "note_on channel=6 note=76 velocity=0 time=4\n",
      "note_on channel=6 note=71 velocity=0 time=1\n",
      "note_on channel=6 note=75 velocity=97 time=12\n",
      "note_on channel=6 note=71 velocity=84 time=1\n",
      "note_on channel=6 note=66 velocity=84 time=0\n",
      "note_on channel=6 note=75 velocity=0 time=43\n",
      "note_on channel=6 note=66 velocity=0 time=6\n",
      "note_on channel=6 note=71 velocity=0 time=1\n",
      "note_on channel=6 note=73 velocity=84 time=8\n",
      "note_on channel=6 note=66 velocity=80 time=2\n",
      "note_on channel=6 note=73 velocity=0 time=42\n",
      "note_on channel=6 note=66 velocity=0 time=1\n",
      "note_on channel=6 note=71 velocity=99 time=16\n",
      "note_on channel=6 note=66 velocity=84 time=1\n",
      "note_on channel=6 note=66 velocity=0 time=36\n",
      "note_on channel=6 note=71 velocity=0 time=5\n",
      "note_on channel=6 note=70 velocity=83 time=20\n",
      "note_on channel=6 note=66 velocity=84 time=0\n",
      "note_on channel=6 note=61 velocity=84 time=2\n",
      "note_on channel=6 note=61 velocity=0 time=155\n",
      "note_on channel=6 note=70 velocity=0 time=9\n",
      "note_on channel=6 note=66 velocity=0 time=2\n",
      "note_on channel=6 note=66 velocity=84 time=14\n",
      "note_on channel=6 note=63 velocity=97 time=0\n",
      "note_on channel=6 note=71 velocity=99 time=1\n",
      "note_on channel=6 note=63 velocity=0 time=160\n",
      "note_on channel=6 note=71 velocity=0 time=3\n",
      "note_on channel=6 note=66 velocity=0 time=1\n",
      "note_on channel=6 note=71 velocity=52 time=133\n",
      "note_on channel=6 note=78 velocity=50 time=0\n",
      "note_on channel=6 note=66 velocity=55 time=2\n",
      "note_on channel=6 note=78 velocity=0 time=102\n",
      "note_on channel=6 note=66 velocity=0 time=4\n",
      "note_on channel=6 note=71 velocity=0 time=3\n",
      "note_on channel=6 note=78 velocity=89 time=9\n",
      "note_on channel=6 note=71 velocity=94 time=1\n",
      "note_on channel=6 note=66 velocity=94 time=1\n",
      "note_on channel=6 note=66 velocity=0 time=102\n",
      "note_on channel=6 note=78 velocity=0 time=1\n",
      "note_on channel=6 note=71 velocity=0 time=4\n",
      "note_on channel=6 note=76 velocity=94 time=13\n",
      "note_on channel=6 note=71 velocity=94 time=1\n",
      "note_on channel=6 note=66 velocity=94 time=0\n",
      "note_on channel=6 note=66 velocity=0 time=36\n",
      "note_on channel=6 note=71 velocity=0 time=8\n",
      "note_on channel=6 note=76 velocity=0 time=1\n",
      "note_on channel=6 note=75 velocity=97 time=9\n",
      "note_on channel=6 note=71 velocity=80 time=0\n",
      "note_on channel=6 note=66 velocity=80 time=2\n",
      "note_on channel=6 note=75 velocity=0 time=42\n",
      "note_on channel=6 note=66 velocity=0 time=2\n",
      "note_on channel=6 note=71 velocity=0 time=3\n",
      "note_on channel=6 note=73 velocity=80 time=12\n",
      "note_on channel=6 note=66 velocity=89 time=1\n",
      "note_on channel=6 note=66 velocity=0 time=44\n",
      "note_on channel=6 note=73 velocity=0 time=0\n",
      "note_on channel=6 note=66 velocity=80 time=15\n",
      "note_on channel=6 note=71 velocity=99 time=0\n",
      "note_on channel=6 note=66 velocity=0 time=37\n",
      "note_on channel=6 note=71 velocity=0 time=9\n",
      "note_on channel=6 note=61 velocity=94 time=17\n",
      "note_on channel=6 note=70 velocity=89 time=0\n",
      "note_on channel=6 note=66 velocity=77 time=1\n",
      "note_on channel=6 note=61 velocity=0 time=152\n",
      "note_on channel=6 note=66 velocity=0 time=10\n",
      "note_on channel=6 note=70 velocity=0 time=0\n",
      "note_on channel=6 note=71 velocity=99 time=15\n",
      "note_on channel=6 note=66 velocity=84 time=4\n",
      "note_on channel=6 note=63 velocity=97 time=0\n",
      "note_on channel=6 note=63 velocity=0 time=151\n",
      "note_on channel=6 note=66 velocity=0 time=2\n",
      "note_on channel=6 note=71 velocity=0 time=4\n",
      "note_on channel=6 note=71 velocity=89 time=19\n",
      "note_on channel=6 note=66 velocity=89 time=1\n",
      "note_on channel=6 note=63 velocity=83 time=1\n",
      "note_on channel=6 note=63 velocity=0 time=34\n",
      "note_on channel=6 note=71 velocity=0 time=4\n",
      "note_on channel=6 note=66 velocity=0 time=5\n",
      "note_on channel=6 note=63 velocity=97 time=10\n",
      "note_on channel=6 note=66 velocity=84 time=0\n",
      "note_on channel=6 note=70 velocity=97 time=1\n",
      "note_on channel=6 note=63 velocity=0 time=39\n",
      "note_on channel=6 note=70 velocity=0 time=2\n",
      "note_on channel=6 note=66 velocity=0 time=3\n",
      "note_on channel=6 note=68 velocity=89 time=13\n",
      "note_on channel=6 note=63 velocity=89 time=2\n",
      "note_on channel=6 note=78 velocity=50 time=6\n",
      "note_on channel=6 note=71 velocity=52 time=0\n",
      "note_on channel=6 note=66 velocity=55 time=2\n",
      "note_on channel=6 note=63 velocity=0 time=38\n",
      "note_on channel=6 note=68 velocity=0 time=1\n",
      "note_on channel=6 note=78 velocity=0 time=63\n",
      "note_on channel=6 note=66 velocity=0 time=4\n",
      "note_on channel=6 note=71 velocity=0 time=3\n",
      "note_on channel=6 note=78 velocity=84 time=13\n",
      "note_on channel=6 note=71 velocity=94 time=2\n",
      "note_on channel=6 note=66 velocity=94 time=1\n",
      "note_on channel=6 note=66 velocity=0 time=94\n",
      "note_on channel=6 note=78 velocity=0 time=1\n",
      "note_on channel=6 note=71 velocity=0 time=5\n",
      "note_on channel=6 note=76 velocity=94 time=12\n",
      "note_on channel=6 note=71 velocity=99 time=0\n",
      "note_on channel=6 note=66 velocity=94 time=2\n",
      "note_on channel=6 note=66 velocity=0 time=42\n",
      "note_on channel=6 note=76 velocity=0 time=4\n",
      "note_on channel=6 note=71 velocity=0 time=3\n",
      "note_on channel=6 note=75 velocity=89 time=8\n",
      "note_on channel=6 note=71 velocity=94 time=0\n",
      "note_on channel=6 note=66 velocity=84 time=1\n",
      "note_on channel=6 note=75 velocity=0 time=41\n",
      "note_on channel=6 note=66 velocity=0 time=1\n",
      "note_on channel=6 note=71 velocity=0 time=3\n",
      "note_on channel=6 note=66 velocity=74 time=14\n",
      "note_on channel=6 note=73 velocity=103 time=0\n",
      "note_on channel=6 note=66 velocity=0 time=46\n",
      "note_on channel=6 note=73 velocity=0 time=1\n",
      "note_on channel=6 note=71 velocity=99 time=12\n",
      "note_on channel=6 note=66 velocity=84 time=2\n",
      "note_on channel=6 note=66 velocity=0 time=37\n",
      "note_on channel=6 note=71 velocity=0 time=12\n",
      "note_on channel=6 note=73 velocity=94 time=10\n",
      "note_on channel=6 note=66 velocity=84 time=0\n",
      "note_on channel=6 note=70 velocity=97 time=1\n",
      "note_on channel=6 note=66 velocity=0 time=99\n",
      "note_on channel=6 note=73 velocity=0 time=4\n",
      "note_on channel=6 note=70 velocity=0 time=2\n",
      "note_on channel=6 note=71 velocity=89 time=13\n",
      "note_on channel=6 note=66 velocity=72 time=1\n",
      "note_on channel=6 note=75 velocity=111 time=1\n",
      "note_on channel=6 note=66 velocity=0 time=23\n",
      "note_on channel=6 note=71 velocity=0 time=1\n",
      "note_on channel=6 note=75 velocity=0 time=2\n",
      "note_on channel=6 note=71 velocity=103 time=34\n",
      "note_on channel=6 note=66 velocity=99 time=1\n",
      "note_on channel=6 note=75 velocity=111 time=1\n",
      "note_on channel=6 note=71 velocity=0 time=82\n",
      "note_on channel=6 note=73 velocity=84 time=13\n",
      "note_on channel=6 note=75 velocity=0 time=4\n",
      "note_on channel=6 note=73 velocity=0 time=14\n",
      "note_on channel=6 note=71 velocity=107 time=3\n",
      "note_on channel=6 note=66 velocity=0 time=63\n",
      "note_on channel=6 note=71 velocity=0 time=2\n",
      "note_on channel=6 note=63 velocity=97 time=120\n",
      "note_on channel=6 note=68 velocity=97 time=0\n",
      "note_on channel=6 note=71 velocity=94 time=1\n",
      "note_on channel=6 note=63 velocity=0 time=143\n",
      "note_on channel=6 note=68 velocity=0 time=3\n",
      "note_on channel=6 note=71 velocity=0 time=1\n",
      "note_on channel=6 note=71 velocity=94 time=29\n",
      "note_on channel=6 note=68 velocity=83 time=0\n",
      "note_on channel=6 note=63 velocity=89 time=1\n",
      "note_on channel=6 note=63 velocity=0 time=95\n",
      "note_on channel=6 note=71 velocity=0 time=2\n",
      "note_on channel=6 note=68 velocity=0 time=6\n",
      "note_on channel=6 note=71 velocity=99 time=77\n",
      "note_on channel=6 note=75 velocity=103 time=1\n",
      "note_on channel=6 note=66 velocity=94 time=1\n",
      "note_on channel=6 note=75 velocity=0 time=86\n",
      "note_on channel=6 note=66 velocity=0 time=1\n",
      "note_on channel=6 note=71 velocity=0 time=0\n",
      "note_on channel=6 note=73 velocity=103 time=30\n",
      "note_on channel=6 note=70 velocity=97 time=1\n",
      "note_on channel=6 note=66 velocity=99 time=1\n",
      "note_on channel=6 note=70 velocity=0 time=124\n",
      "note_on channel=6 note=73 velocity=0 time=1\n",
      "note_on channel=6 note=66 velocity=0 time=1\n",
      "note_on channel=6 note=71 velocity=99 time=50\n",
      "note_on channel=6 note=66 velocity=103 time=0\n",
      "note_on channel=6 note=63 velocity=97 time=1\n",
      "note_on channel=6 note=63 velocity=0 time=175\n",
      "note_on channel=6 note=66 velocity=0 time=6\n",
      "note_on channel=6 note=71 velocity=0 time=6\n",
      "MetaMessage('end_of_track', time=0)\n",
      "Track 8\n",
      "MetaMessage('midi_port', port=0, time=0)\n",
      "MetaMessage('track_name', name='', time=0)\n",
      "program_change channel=7 program=27 time=0\n",
      "control_change channel=7 control=7 value=54 time=0\n",
      "control_change channel=7 control=10 value=64 time=0\n",
      "control_change channel=7 control=11 value=127 time=640\n",
      "control_change channel=7 control=91 value=0 time=2\n",
      "control_change channel=7 control=93 value=0 time=2\n",
      "control_change channel=7 control=94 value=0 time=2\n",
      "note_on channel=7 note=57 velocity=121 time=2234\n",
      "note_on channel=7 note=61 velocity=121 time=2\n",
      "note_on channel=7 note=57 velocity=0 time=478\n",
      "note_on channel=7 note=61 velocity=0 time=2\n",
      "note_on channel=7 note=57 velocity=121 time=1438\n",
      "note_on channel=7 note=61 velocity=121 time=2\n",
      "note_on channel=7 note=57 velocity=0 time=478\n",
      "note_on channel=7 note=61 velocity=0 time=2\n",
      "note_on channel=7 note=57 velocity=87 time=20638\n",
      "note_on channel=7 note=62 velocity=87 time=2\n",
      "note_on channel=7 note=57 velocity=0 time=478\n",
      "note_on channel=7 note=62 velocity=0 time=2\n",
      "note_on channel=7 note=57 velocity=121 time=480\n",
      "note_on channel=7 note=62 velocity=121 time=0\n",
      "note_on channel=7 note=62 velocity=0 time=480\n",
      "note_on channel=7 note=57 velocity=0 time=0\n",
      "note_on channel=7 note=57 velocity=121 time=480\n",
      "note_on channel=7 note=62 velocity=121 time=0\n",
      "note_on channel=7 note=62 velocity=0 time=480\n",
      "note_on channel=7 note=57 velocity=0 time=0\n",
      "note_on channel=7 note=66 velocity=127 time=478\n",
      "note_on channel=7 note=66 velocity=0 time=122\n",
      "note_on channel=7 note=69 velocity=127 time=58\n",
      "note_on channel=7 note=73 velocity=127 time=180\n",
      "note_on channel=7 note=69 velocity=0 time=3\n",
      "note_on channel=7 note=73 velocity=0 time=102\n",
      "note_on channel=7 note=71 velocity=127 time=15\n",
      "note_on channel=7 note=71 velocity=0 time=270\n",
      "MetaMessage('end_of_track', time=0)\n",
      "Track 9\n",
      "MetaMessage('midi_port', port=0, time=0)\n",
      "MetaMessage('track_name', name='', time=0)\n",
      "program_change channel=8 program=74 time=0\n",
      "control_change channel=8 control=7 value=57 time=0\n",
      "control_change channel=8 control=10 value=90 time=0\n",
      "control_change channel=8 control=11 value=127 time=660\n",
      "control_change channel=8 control=91 value=127 time=2\n",
      "control_change channel=8 control=93 value=90 time=2\n",
      "control_change channel=8 control=94 value=0 time=2\n",
      "note_on channel=8 note=85 velocity=30 time=6051\n",
      "note_on channel=8 note=86 velocity=37 time=476\n",
      "note_on channel=8 note=85 velocity=0 time=1\n",
      "note_on channel=8 note=85 velocity=35 time=183\n",
      "note_on channel=8 note=86 velocity=0 time=1\n",
      "note_on channel=8 note=86 velocity=32 time=780\n",
      "note_on channel=8 note=85 velocity=0 time=2\n",
      "note_on channel=8 note=85 velocity=29 time=181\n",
      "note_on channel=8 note=86 velocity=0 time=4\n",
      "note_on channel=8 note=85 velocity=0 time=775\n",
      "note_on channel=8 note=86 velocity=35 time=1\n",
      "note_on channel=8 note=86 velocity=0 time=177\n",
      "note_on channel=8 note=85 velocity=35 time=2\n",
      "note_on channel=8 note=85 velocity=0 time=300\n",
      "note_on channel=8 note=85 velocity=29 time=0\n",
      "note_on channel=8 note=85 velocity=0 time=465\n",
      "note_on channel=8 note=83 velocity=24 time=8\n",
      "note_on channel=8 note=83 velocity=0 time=186\n",
      "note_on channel=8 note=81 velocity=18 time=1\n",
      "note_on channel=8 note=81 velocity=0 time=183\n",
      "note_on channel=8 note=85 velocity=63 time=3954\n",
      "note_on channel=8 note=86 velocity=76 time=476\n",
      "note_on channel=8 note=85 velocity=0 time=1\n",
      "note_on channel=8 note=85 velocity=72 time=183\n",
      "note_on channel=8 note=86 velocity=0 time=1\n",
      "note_on channel=8 note=86 velocity=67 time=780\n",
      "note_on channel=8 note=85 velocity=0 time=2\n",
      "note_on channel=8 note=85 velocity=61 time=181\n",
      "note_on channel=8 note=86 velocity=0 time=4\n",
      "note_on channel=8 note=85 velocity=0 time=775\n",
      "note_on channel=8 note=86 velocity=74 time=1\n",
      "note_on channel=8 note=86 velocity=0 time=177\n",
      "note_on channel=8 note=85 velocity=72 time=2\n",
      "note_on channel=8 note=85 velocity=0 time=300\n",
      "note_on channel=8 note=85 velocity=60 time=0\n",
      "note_on channel=8 note=85 velocity=0 time=465\n",
      "note_on channel=8 note=83 velocity=51 time=8\n",
      "note_on channel=8 note=83 velocity=0 time=186\n",
      "note_on channel=8 note=81 velocity=38 time=1\n",
      "note_on channel=8 note=81 velocity=0 time=183\n",
      "MetaMessage('end_of_track', time=0)\n",
      "Track 10\n",
      "MetaMessage('midi_port', port=0, time=0)\n",
      "MetaMessage('track_name', name='', time=0)\n",
      "program_change channel=9 program=0 time=0\n",
      "control_change channel=9 control=7 value=100 time=0\n",
      "control_change channel=9 control=11 value=127 time=680\n",
      "control_change channel=9 control=91 value=40 time=2\n",
      "control_change channel=9 control=93 value=0 time=2\n",
      "control_change channel=9 control=94 value=0 time=2\n",
      "control_change channel=9 control=99 value=29 time=2\n",
      "control_change channel=9 control=98 value=7 time=0\n",
      "control_change channel=9 control=6 value=0 time=0\n",
      "control_change channel=9 control=38 value=0 time=0\n",
      "control_change channel=9 control=99 value=29 time=4\n",
      "control_change channel=9 control=98 value=37 time=0\n",
      "control_change channel=9 control=6 value=127 time=0\n",
      "control_change channel=9 control=38 value=0 time=0\n",
      "control_change channel=9 control=99 value=24 time=4\n",
      "control_change channel=9 control=98 value=37 time=0\n",
      "control_change channel=9 control=6 value=58 time=0\n",
      "control_change channel=9 control=38 value=0 time=0\n",
      "control_change channel=9 control=99 value=26 time=3\n",
      "control_change channel=9 control=98 value=37 time=0\n",
      "control_change channel=9 control=6 value=127 time=0\n",
      "control_change channel=9 control=38 value=0 time=0\n",
      "note_on channel=9 note=46 velocity=75 time=5841\n",
      "note_on channel=9 note=46 velocity=0 time=15\n",
      "note_on channel=9 note=33 velocity=113 time=45\n",
      "note_on channel=9 note=35 velocity=110 time=0\n",
      "note_on channel=9 note=37 velocity=120 time=0\n",
      "note_on channel=9 note=44 velocity=36 time=0\n",
      "note_on channel=9 note=39 velocity=68 time=0\n",
      "note_on channel=9 note=39 velocity=0 time=1\n",
      "note_on channel=9 note=33 velocity=0 time=0\n",
      "note_on channel=9 note=37 velocity=0 time=0\n",
      "note_on channel=9 note=35 velocity=0 time=0\n",
      "note_on channel=9 note=44 velocity=0 time=14\n",
      "note_on channel=9 note=49 velocity=69 time=105\n",
      "note_on channel=9 note=35 velocity=110 time=0\n",
      "note_on channel=9 note=35 velocity=0 time=1\n",
      "note_on channel=9 note=49 velocity=0 time=0\n",
      "note_on channel=9 note=69 velocity=39 time=58\n",
      "note_on channel=9 note=69 velocity=0 time=1\n",
      "note_on channel=9 note=42 velocity=57 time=0\n",
      "note_on channel=9 note=42 velocity=0 time=1\n",
      "note_on channel=9 note=69 velocity=39 time=58\n",
      "note_on channel=9 note=69 velocity=0 time=1\n",
      "note_on channel=9 note=39 velocity=68 time=0\n",
      "note_on channel=9 note=42 velocity=57 time=0\n",
      "note_on channel=9 note=37 velocity=120 time=0\n",
      "note_on channel=9 note=37 velocity=0 time=1\n",
      "note_on channel=9 note=42 velocity=0 time=0\n",
      "note_on channel=9 note=39 velocity=0 time=0\n",
      "note_on channel=9 note=35 velocity=108 time=59\n",
      "note_on channel=9 note=42 velocity=73 time=0\n",
      "note_on channel=9 note=69 velocity=50 time=0\n",
      "note_on channel=9 note=69 velocity=0 time=1\n",
      "note_on channel=9 note=42 velocity=0 time=0\n",
      "note_on channel=9 note=35 velocity=0 time=0\n",
      "note_on channel=9 note=42 velocity=57 time=59\n",
      "note_on channel=9 note=69 velocity=39 time=0\n",
      "note_on channel=9 note=69 velocity=0 time=1\n",
      "note_on channel=9 note=42 velocity=0 time=0\n",
      "note_on channel=9 note=46 velocity=73 time=59\n",
      "note_on channel=9 note=46 velocity=0 time=1\n",
      "note_on channel=9 note=69 velocity=39 time=58\n",
      "note_on channel=9 note=69 velocity=0 time=1\n",
      "note_on channel=9 note=39 velocity=70 time=0\n",
      "note_on channel=9 note=37 velocity=120 time=0\n",
      "note_on channel=9 note=42 velocity=57 time=0\n",
      "note_on channel=9 note=42 velocity=0 time=1\n",
      "note_on channel=9 note=37 velocity=0 time=0\n",
      "note_on channel=9 note=39 velocity=0 time=0\n",
      "note_on channel=9 note=54 velocity=45 time=0\n",
      "note_on channel=9 note=54 velocity=0 time=1\n",
      "note_on channel=9 note=42 velocity=57 time=58\n",
      "note_on channel=9 note=42 velocity=0 time=1\n",
      "note_on channel=9 note=69 velocity=39 time=0\n",
      "note_on channel=9 note=69 velocity=0 time=1\n",
      "note_on channel=9 note=69 velocity=50 time=57\n",
      "note_on channel=9 note=69 velocity=0 time=1\n",
      "note_on channel=9 note=42 velocity=73 time=0\n",
      "note_on channel=9 note=35 velocity=110 time=0\n",
      "note_on channel=9 note=35 velocity=0 time=1\n",
      "note_on channel=9 note=42 velocity=0 time=0\n",
      "note_on channel=9 note=42 velocity=57 time=29\n",
      "note_on channel=9 note=42 velocity=0 time=1\n",
      "note_on channel=9 note=69 velocity=39 time=0\n",
      "note_on channel=9 note=69 velocity=0 time=1\n",
      "note_on channel=9 note=69 velocity=42 time=27\n",
      "note_on channel=9 note=69 velocity=0 time=1\n",
      "note_on channel=9 note=42 velocity=62 time=0\n",
      "note_on channel=9 note=42 velocity=0 time=1\n",
      "note_on channel=9 note=69 velocity=39 time=58\n",
      "note_on channel=9 note=69 velocity=0 time=1\n",
      "note_on channel=9 note=42 velocity=57 time=0\n",
      "note_on channel=9 note=37 velocity=120 time=0\n",
      "note_on channel=9 note=39 velocity=68 time=0\n",
      "note_on channel=9 note=39 velocity=0 time=1\n",
      "note_on channel=9 note=37 velocity=0 time=0\n",
      "note_on channel=9 note=42 velocity=0 time=0\n",
      "note_on channel=9 note=69 velocity=39 time=59\n",
      "note_on channel=9 note=42 velocity=57 time=0\n",
      "note_on channel=9 note=35 velocity=108 time=0\n",
      "note_on channel=9 note=35 velocity=0 time=1\n",
      "note_on channel=9 note=42 velocity=0 time=0\n",
      "note_on channel=9 note=69 velocity=0 time=0\n",
      "note_on channel=9 note=69 velocity=50 time=58\n",
      "note_on channel=9 note=69 velocity=0 time=1\n",
      "note_on channel=9 note=42 velocity=73 time=0\n",
      "note_on channel=9 note=42 velocity=0 time=1\n",
      "note_on channel=9 note=35 velocity=110 time=59\n",
      "note_on channel=9 note=46 velocity=73 time=0\n",
      "note_on channel=9 note=46 velocity=0 time=1\n",
      "note_on channel=9 note=35 velocity=0 time=0\n",
      "note_on channel=9 note=69 velocity=39 time=58\n",
      "note_on channel=9 note=69 velocity=0 time=1\n",
      "note_on channel=9 note=42 velocity=57 time=0\n",
      "note_on channel=9 note=39 velocity=70 time=0\n",
      "note_on channel=9 note=37 velocity=120 time=0\n",
      "note_on channel=9 note=37 velocity=0 time=1\n",
      "note_on channel=9 note=39 velocity=0 time=0\n",
      "note_on channel=9 note=42 velocity=0 time=0\n",
      "note_on channel=9 note=54 velocity=45 time=1\n",
      "note_on channel=9 note=54 velocity=0 time=1\n",
      "note_on channel=9 note=69 velocity=50 time=57\n",
      "note_on channel=9 note=42 velocity=73 time=0\n",
      "note_on channel=9 note=42 velocity=0 time=1\n",
      "note_on channel=9 note=69 velocity=0 time=0\n",
      "note_on channel=9 note=42 velocity=73 time=59\n",
      "note_on channel=9 note=69 velocity=50 time=0\n",
      "note_on channel=9 note=35 velocity=110 time=0\n",
      "note_on channel=9 note=35 velocity=0 time=1\n",
      "note_on channel=9 note=69 velocity=0 time=0\n",
      "note_on channel=9 note=42 velocity=0 time=0\n",
      "note_on channel=9 note=42 velocity=57 time=29\n",
      "note_on channel=9 note=42 velocity=0 time=1\n",
      "note_on channel=9 note=69 velocity=39 time=0\n",
      "note_on channel=9 note=69 velocity=0 time=1\n",
      "note_on channel=9 note=69 velocity=42 time=27\n",
      "note_on channel=9 note=69 velocity=0 time=1\n",
      "note_on channel=9 note=42 velocity=62 time=0\n",
      "note_on channel=9 note=42 velocity=0 time=1\n",
      "note_on channel=9 note=39 velocity=68 time=59\n",
      "note_on channel=9 note=37 velocity=120 time=0\n",
      "note_on channel=9 note=42 velocity=57 time=0\n",
      "note_on channel=9 note=42 velocity=0 time=1\n",
      "note_on channel=9 note=37 velocity=0 time=0\n",
      "note_on channel=9 note=39 velocity=0 time=0\n",
      "note_on channel=9 note=69 velocity=39 time=0\n",
      "note_on channel=9 note=69 velocity=0 time=1\n",
      "note_on channel=9 note=69 velocity=39 time=58\n",
      "note_on channel=9 note=35 velocity=108 time=0\n",
      "note_on channel=9 note=42 velocity=57 time=0\n",
      "note_on channel=9 note=42 velocity=0 time=1\n",
      "note_on channel=9 note=35 velocity=0 time=0\n",
      "note_on channel=9 note=69 velocity=0 time=0\n",
      "note_on channel=9 note=69 velocity=50 time=59\n",
      "note_on channel=9 note=42 velocity=73 time=0\n",
      "note_on channel=9 note=42 velocity=0 time=1\n",
      "note_on channel=9 note=69 velocity=0 time=0\n",
      "note_on channel=9 note=46 velocity=73 time=59\n",
      "note_on channel=9 note=46 velocity=0 time=1\n",
      "note_on channel=9 note=42 velocity=57 time=59\n",
      "note_on channel=9 note=69 velocity=39 time=0\n",
      "note_on channel=9 note=39 velocity=70 time=0\n",
      "note_on channel=9 note=37 velocity=120 time=0\n",
      "note_on channel=9 note=37 velocity=0 time=1\n",
      "note_on channel=9 note=42 velocity=0 time=0\n",
      "note_on channel=9 note=69 velocity=0 time=0\n",
      "note_on channel=9 note=39 velocity=0 time=0\n",
      "note_on channel=9 note=54 velocity=45 time=1\n",
      "note_on channel=9 note=54 velocity=0 time=1\n",
      "note_on channel=9 note=69 velocity=50 time=56\n",
      "note_on channel=9 note=69 velocity=0 time=1\n",
      "note_on channel=9 note=42 velocity=73 time=0\n",
      "note_on channel=9 note=42 velocity=0 time=1\n",
      "note_on channel=9 note=69 velocity=50 time=58\n",
      "note_on channel=9 note=69 velocity=0 time=1\n",
      "note_on channel=9 note=35 velocity=110 time=0\n",
      "note_on channel=9 note=42 velocity=73 time=0\n",
      "note_on channel=9 note=42 velocity=0 time=1\n",
      "note_on channel=9 note=35 velocity=0 time=0\n",
      "note_on channel=9 note=42 velocity=57 time=29\n",
      "note_on channel=9 note=42 velocity=0 time=1\n",
      "note_on channel=9 note=69 velocity=39 time=0\n",
      "note_on channel=9 note=69 velocity=0 time=1\n",
      "note_on channel=9 note=42 velocity=62 time=28\n",
      "note_on channel=9 note=42 velocity=0 time=1\n",
      "note_on channel=9 note=69 velocity=42 time=0\n",
      "note_on channel=9 note=69 velocity=0 time=1\n",
      "note_on channel=9 note=42 velocity=57 time=58\n",
      "note_on channel=9 note=37 velocity=120 time=0\n",
      "note_on channel=9 note=39 velocity=68 time=0\n",
      "note_on channel=9 note=39 velocity=0 time=1\n",
      "note_on channel=9 note=37 velocity=0 time=0\n",
      "note_on channel=9 note=42 velocity=0 time=0\n",
      "note_on channel=9 note=69 velocity=39 time=0\n",
      "note_on channel=9 note=69 velocity=0 time=1\n",
      "note_on channel=9 note=42 velocity=57 time=58\n",
      "note_on channel=9 note=69 velocity=39 time=0\n",
      "note_on channel=9 note=35 velocity=108 time=0\n",
      "note_on channel=9 note=35 velocity=0 time=1\n",
      "note_on channel=9 note=69 velocity=0 time=0\n",
      "note_on channel=9 note=42 velocity=0 time=0\n",
      "note_on channel=9 note=69 velocity=50 time=58\n",
      "note_on channel=9 note=69 velocity=0 time=1\n",
      "note_on channel=9 note=42 velocity=73 time=0\n",
      "note_on channel=9 note=42 velocity=0 time=1\n",
      "note_on channel=9 note=46 velocity=73 time=59\n",
      "note_on channel=9 note=35 velocity=84 time=0\n",
      "note_on channel=9 note=35 velocity=0 time=1\n",
      "note_on channel=9 note=46 velocity=0 time=0\n",
      "note_on channel=9 note=54 velocity=45 time=59\n",
      "note_on channel=9 note=39 velocity=70 time=0\n",
      "note_on channel=9 note=37 velocity=120 time=0\n",
      "note_on channel=9 note=42 velocity=57 time=0\n",
      "note_on channel=9 note=42 velocity=0 time=1\n",
      "note_on channel=9 note=54 velocity=0 time=0\n",
      "note_on channel=9 note=39 velocity=0 time=0\n",
      "note_on channel=9 note=37 velocity=0 time=0\n",
      "note_on channel=9 note=69 velocity=39 time=0\n",
      "note_on channel=9 note=69 velocity=0 time=1\n",
      "note_on channel=9 note=69 velocity=50 time=58\n",
      "note_on channel=9 note=42 velocity=73 time=0\n",
      "note_on channel=9 note=42 velocity=0 time=1\n",
      "note_on channel=9 note=69 velocity=0 time=0\n",
      "note_on channel=9 note=49 velocity=69 time=59\n",
      "note_on channel=9 note=35 velocity=110 time=0\n",
      "note_on channel=9 note=35 velocity=0 time=1\n",
      "note_on channel=9 note=49 velocity=0 time=0\n",
      "note_on channel=9 note=69 velocity=39 time=58\n",
      "note_on channel=9 note=69 velocity=0 time=1\n",
      "note_on channel=9 note=42 velocity=57 time=0\n",
      "note_on channel=9 note=42 velocity=0 time=1\n",
      "note_on channel=9 note=69 velocity=39 time=58\n",
      "note_on channel=9 note=69 velocity=0 time=1\n",
      "note_on channel=9 note=37 velocity=120 time=0\n",
      "note_on channel=9 note=39 velocity=68 time=0\n",
      "note_on channel=9 note=42 velocity=57 time=0\n",
      "note_on channel=9 note=42 velocity=0 time=1\n",
      "note_on channel=9 note=39 velocity=0 time=0\n",
      "note_on channel=9 note=37 velocity=0 time=0\n",
      "note_on channel=9 note=35 velocity=108 time=59\n",
      "note_on channel=9 note=42 velocity=73 time=0\n",
      "note_on channel=9 note=42 velocity=0 time=1\n",
      "note_on channel=9 note=35 velocity=0 time=0\n",
      "note_on channel=9 note=69 velocity=50 time=0\n",
      "note_on channel=9 note=69 velocity=0 time=1\n",
      "note_on channel=9 note=69 velocity=39 time=57\n",
      "note_on channel=9 note=69 velocity=0 time=1\n",
      "note_on channel=9 note=42 velocity=57 time=0\n",
      "note_on channel=9 note=42 velocity=0 time=1\n",
      "note_on channel=9 note=46 velocity=73 time=59\n",
      "note_on channel=9 note=46 velocity=0 time=1\n",
      "note_on channel=9 note=69 velocity=39 time=58\n",
      "note_on channel=9 note=69 velocity=0 time=1\n",
      "note_on channel=9 note=42 velocity=57 time=0\n",
      "note_on channel=9 note=39 velocity=70 time=0\n",
      "note_on channel=9 note=37 velocity=120 time=0\n",
      "note_on channel=9 note=37 velocity=0 time=1\n",
      "note_on channel=9 note=39 velocity=0 time=0\n",
      "note_on channel=9 note=42 velocity=0 time=0\n",
      "note_on channel=9 note=54 velocity=45 time=1\n",
      "note_on channel=9 note=54 velocity=0 time=1\n",
      "note_on channel=9 note=42 velocity=57 time=57\n",
      "note_on channel=9 note=42 velocity=0 time=1\n",
      "note_on channel=9 note=69 velocity=39 time=0\n",
      "note_on channel=9 note=69 velocity=0 time=1\n",
      "note_on channel=9 note=35 velocity=110 time=58\n",
      "note_on channel=9 note=42 velocity=73 time=0\n",
      "note_on channel=9 note=69 velocity=50 time=0\n",
      "note_on channel=9 note=69 velocity=0 time=1\n",
      "note_on channel=9 note=42 velocity=0 time=0\n",
      "note_on channel=9 note=35 velocity=0 time=0\n",
      "note_on channel=9 note=42 velocity=57 time=29\n",
      "note_on channel=9 note=42 velocity=0 time=1\n",
      "note_on channel=9 note=69 velocity=39 time=0\n",
      "note_on channel=9 note=69 velocity=0 time=1\n",
      "note_on channel=9 note=69 velocity=42 time=27\n",
      "note_on channel=9 note=69 velocity=0 time=1\n",
      "note_on channel=9 note=42 velocity=62 time=0\n",
      "note_on channel=9 note=42 velocity=0 time=1\n",
      "note_on channel=9 note=42 velocity=57 time=59\n",
      "note_on channel=9 note=69 velocity=39 time=0\n",
      "note_on channel=9 note=39 velocity=68 time=0\n",
      "note_on channel=9 note=37 velocity=120 time=0\n",
      "note_on channel=9 note=37 velocity=0 time=1\n",
      "note_on channel=9 note=42 velocity=0 time=0\n",
      "note_on channel=9 note=69 velocity=0 time=0\n",
      "note_on channel=9 note=39 velocity=0 time=0\n",
      "note_on channel=9 note=35 velocity=108 time=59\n",
      "note_on channel=9 note=42 velocity=57 time=0\n",
      "note_on channel=9 note=42 velocity=0 time=1\n",
      "note_on channel=9 note=35 velocity=0 time=0\n",
      "note_on channel=9 note=69 velocity=39 time=0\n",
      "note_on channel=9 note=69 velocity=0 time=1\n",
      "note_on channel=9 note=42 velocity=73 time=58\n",
      "note_on channel=9 note=69 velocity=50 time=0\n",
      "note_on channel=9 note=69 velocity=0 time=1\n",
      "note_on channel=9 note=42 velocity=0 time=0\n",
      "note_on channel=9 note=46 velocity=73 time=59\n",
      "note_on channel=9 note=35 velocity=110 time=0\n",
      "note_on channel=9 note=35 velocity=0 time=1\n",
      "note_on channel=9 note=46 velocity=0 time=0\n",
      "note_on channel=9 note=69 velocity=39 time=58\n",
      "note_on channel=9 note=69 velocity=0 time=1\n",
      "note_on channel=9 note=39 velocity=70 time=0\n",
      "note_on channel=9 note=42 velocity=57 time=0\n",
      "note_on channel=9 note=37 velocity=120 time=0\n",
      "note_on channel=9 note=37 velocity=0 time=1\n",
      "note_on channel=9 note=42 velocity=0 time=0\n",
      "note_on channel=9 note=39 velocity=0 time=0\n",
      "note_on channel=9 note=54 velocity=45 time=1\n",
      "note_on channel=9 note=54 velocity=0 time=1\n",
      "note_on channel=9 note=42 velocity=73 time=57\n",
      "note_on channel=9 note=69 velocity=50 time=0\n",
      "note_on channel=9 note=69 velocity=0 time=1\n",
      "note_on channel=9 note=42 velocity=0 time=0\n",
      "note_on channel=9 note=42 velocity=73 time=59\n",
      "note_on channel=9 note=69 velocity=50 time=0\n",
      "note_on channel=9 note=35 velocity=110 time=0\n",
      "note_on channel=9 note=35 velocity=0 time=1\n",
      "note_on channel=9 note=69 velocity=0 time=0\n",
      "note_on channel=9 note=42 velocity=0 time=0\n",
      "note_on channel=9 note=69 velocity=39 time=29\n",
      "note_on channel=9 note=42 velocity=57 time=0\n",
      "note_on channel=9 note=42 velocity=0 time=1\n",
      "note_on channel=9 note=69 velocity=0 time=0\n",
      "note_on channel=9 note=42 velocity=62 time=29\n",
      "note_on channel=9 note=69 velocity=42 time=0\n",
      "note_on channel=9 note=69 velocity=0 time=1\n",
      "note_on channel=9 note=42 velocity=0 time=0\n",
      "note_on channel=9 note=39 velocity=68 time=59\n",
      "note_on channel=9 note=37 velocity=120 time=0\n",
      "note_on channel=9 note=42 velocity=57 time=0\n",
      "note_on channel=9 note=42 velocity=0 time=1\n",
      "note_on channel=9 note=37 velocity=0 time=0\n",
      "note_on channel=9 note=39 velocity=0 time=0\n",
      "note_on channel=9 note=69 velocity=39 time=0\n",
      "note_on channel=9 note=69 velocity=0 time=1\n",
      "note_on channel=9 note=69 velocity=39 time=58\n",
      "note_on channel=9 note=42 velocity=57 time=0\n",
      "note_on channel=9 note=35 velocity=108 time=0\n",
      "note_on channel=9 note=35 velocity=0 time=1\n",
      "note_on channel=9 note=42 velocity=0 time=0\n",
      "note_on channel=9 note=69 velocity=0 time=0\n",
      "note_on channel=9 note=69 velocity=50 time=58\n",
      "note_on channel=9 note=69 velocity=0 time=1\n",
      "note_on channel=9 note=42 velocity=73 time=0\n",
      "note_on channel=9 note=42 velocity=0 time=1\n",
      "note_on channel=9 note=46 velocity=73 time=59\n",
      "note_on channel=9 note=46 velocity=0 time=1\n",
      "note_on channel=9 note=42 velocity=57 time=59\n",
      "note_on channel=9 note=39 velocity=70 time=0\n",
      "note_on channel=9 note=37 velocity=120 time=0\n",
      "note_on channel=9 note=69 velocity=39 time=0\n",
      "note_on channel=9 note=69 velocity=0 time=1\n",
      "note_on channel=9 note=42 velocity=0 time=0\n",
      "note_on channel=9 note=39 velocity=0 time=0\n",
      "note_on channel=9 note=37 velocity=0 time=0\n",
      "note_on channel=9 note=54 velocity=45 time=1\n",
      "note_on channel=9 note=54 velocity=0 time=1\n",
      "note_on channel=9 note=69 velocity=50 time=56\n",
      "note_on channel=9 note=69 velocity=0 time=1\n",
      "note_on channel=9 note=42 velocity=73 time=0\n",
      "note_on channel=9 note=42 velocity=0 time=1\n",
      "note_on channel=9 note=69 velocity=50 time=58\n",
      "note_on channel=9 note=69 velocity=0 time=1\n",
      "note_on channel=9 note=57 velocity=57 time=0\n",
      "note_on channel=9 note=35 velocity=110 time=0\n",
      "note_on channel=9 note=42 velocity=73 time=0\n",
      "note_on channel=9 note=42 velocity=0 time=1\n",
      "note_on channel=9 note=35 velocity=0 time=0\n",
      "note_on channel=9 note=57 velocity=0 time=0\n",
      "note_on channel=9 note=69 velocity=39 time=118\n",
      "note_on channel=9 note=69 velocity=0 time=1\n",
      "note_on channel=9 note=42 velocity=57 time=0\n",
      "note_on channel=9 note=42 velocity=0 time=1\n",
      "note_on channel=9 note=49 velocity=59 time=59\n",
      "note_on channel=9 note=35 velocity=108 time=0\n",
      "note_on channel=9 note=35 velocity=0 time=1\n",
      "note_on channel=9 note=49 velocity=0 time=0\n",
      "note_on channel=9 note=69 velocity=50 time=58\n",
      "note_on channel=9 note=69 velocity=0 time=1\n",
      "note_on channel=9 note=42 velocity=73 time=0\n",
      "note_on channel=9 note=42 velocity=0 time=1\n",
      "note_on channel=9 note=35 velocity=84 time=59\n",
      "note_on channel=9 note=46 velocity=73 time=0\n",
      "note_on channel=9 note=46 velocity=0 time=1\n",
      "note_on channel=9 note=35 velocity=0 time=0\n",
      "note_on channel=9 note=69 velocity=39 time=58\n",
      "note_on channel=9 note=69 velocity=0 time=1\n",
      "note_on channel=9 note=54 velocity=45 time=0\n",
      "note_on channel=9 note=39 velocity=70 time=0\n",
      "note_on channel=9 note=37 velocity=120 time=0\n",
      "note_on channel=9 note=42 velocity=57 time=0\n",
      "note_on channel=9 note=42 velocity=0 time=1\n",
      "note_on channel=9 note=54 velocity=0 time=0\n",
      "note_on channel=9 note=39 velocity=0 time=0\n",
      "note_on channel=9 note=37 velocity=0 time=0\n",
      "note_on channel=9 note=54 velocity=17 time=119\n",
      "note_on channel=9 note=49 velocity=69 time=0\n",
      "note_on channel=9 note=35 velocity=110 time=0\n",
      "note_on channel=9 note=35 velocity=0 time=1\n",
      "note_on channel=9 note=49 velocity=0 time=0\n",
      "note_on channel=9 note=54 velocity=0 time=0\n",
      "note_on channel=9 note=54 velocity=15 time=30\n",
      "note_on channel=9 note=54 velocity=0 time=1\n",
      "note_on channel=9 note=42 velocity=57 time=28\n",
      "note_on channel=9 note=42 velocity=0 time=1\n",
      "note_on channel=9 note=69 velocity=39 time=0\n",
      "note_on channel=9 note=69 velocity=0 time=1\n",
      "note_on channel=9 note=54 velocity=19 time=0\n",
      "note_on channel=9 note=54 velocity=0 time=1\n",
      "note_on channel=9 note=54 velocity=13 time=26\n",
      "note_on channel=9 note=54 velocity=0 time=1\n",
      "note_on channel=9 note=54 velocity=45 time=29\n",
      "note_on channel=9 note=54 velocity=0 time=1\n",
      "note_on channel=9 note=39 velocity=68 time=0\n",
      "note_on channel=9 note=69 velocity=39 time=0\n",
      "note_on channel=9 note=42 velocity=57 time=0\n",
      "note_on channel=9 note=37 velocity=120 time=0\n",
      "note_on channel=9 note=37 velocity=0 time=1\n",
      "note_on channel=9 note=39 velocity=0 time=0\n",
      "note_on channel=9 note=69 velocity=0 time=0\n",
      "note_on channel=9 note=42 velocity=0 time=0\n",
      "note_on channel=9 note=54 velocity=15 time=31\n",
      "note_on channel=9 note=54 velocity=0 time=1\n",
      "note_on channel=9 note=69 velocity=50 time=26\n",
      "note_on channel=9 note=69 velocity=0 time=1\n",
      "note_on channel=9 note=35 velocity=108 time=0\n",
      "note_on channel=9 note=42 velocity=73 time=0\n",
      "note_on channel=9 note=42 velocity=0 time=1\n",
      "note_on channel=9 note=35 velocity=0 time=0\n",
      "note_on channel=9 note=54 velocity=19 time=0\n",
      "note_on channel=9 note=54 velocity=0 time=1\n",
      "note_on channel=9 note=54 velocity=13 time=28\n",
      "note_on channel=9 note=54 velocity=0 time=1\n",
      "note_on channel=9 note=42 velocity=57 time=29\n",
      "note_on channel=9 note=69 velocity=39 time=0\n",
      "note_on channel=9 note=69 velocity=0 time=1\n",
      "note_on channel=9 note=42 velocity=0 time=0\n",
      "note_on channel=9 note=54 velocity=17 time=1\n",
      "note_on channel=9 note=54 velocity=0 time=1\n",
      "note_on channel=9 note=54 velocity=15 time=26\n",
      "note_on channel=9 note=54 velocity=0 time=1\n",
      "note_on channel=9 note=46 velocity=73 time=30\n",
      "note_on channel=9 note=46 velocity=0 time=1\n",
      "note_on channel=9 note=54 velocity=19 time=0\n",
      "note_on channel=9 note=54 velocity=0 time=1\n",
      "note_on channel=9 note=54 velocity=13 time=28\n",
      "note_on channel=9 note=54 velocity=0 time=1\n",
      "note_on channel=9 note=54 velocity=45 time=28\n",
      "note_on channel=9 note=54 velocity=0 time=1\n",
      "note_on channel=9 note=39 velocity=70 time=0\n",
      "note_on channel=9 note=42 velocity=57 time=0\n",
      "note_on channel=9 note=37 velocity=120 time=0\n",
      "note_on channel=9 note=37 velocity=0 time=1\n",
      "note_on channel=9 note=42 velocity=0 time=0\n",
      "note_on channel=9 note=39 velocity=0 time=0\n",
      "note_on channel=9 note=69 velocity=39 time=0\n",
      "note_on channel=9 note=69 velocity=0 time=1\n",
      "note_on channel=9 note=54 velocity=15 time=27\n",
      "note_on channel=9 note=54 velocity=0 time=1\n",
      "note_on channel=9 note=42 velocity=57 time=30\n",
      "note_on channel=9 note=42 velocity=0 time=1\n",
      "note_on channel=9 note=69 velocity=39 time=0\n",
      "note_on channel=9 note=69 velocity=0 time=1\n",
      "note_on channel=9 note=54 velocity=19 time=0\n",
      "note_on channel=9 note=54 velocity=0 time=1\n",
      "note_on channel=9 note=54 velocity=13 time=29\n",
      "note_on channel=9 note=54 velocity=0 time=1\n",
      "note_on channel=9 note=54 velocity=17 time=27\n",
      "note_on channel=9 note=35 velocity=110 time=0\n",
      "note_on channel=9 note=42 velocity=73 time=0\n",
      "note_on channel=9 note=42 velocity=0 time=1\n",
      "note_on channel=9 note=35 velocity=0 time=0\n",
      "note_on channel=9 note=54 velocity=0 time=0\n",
      "note_on channel=9 note=69 velocity=50 time=0\n",
      "note_on channel=9 note=69 velocity=0 time=1\n",
      "note_on channel=9 note=42 velocity=57 time=28\n",
      "note_on channel=9 note=69 velocity=39 time=0\n",
      "note_on channel=9 note=69 velocity=0 time=1\n",
      "note_on channel=9 note=42 velocity=0 time=0\n",
      "note_on channel=9 note=54 velocity=15 time=1\n",
      "note_on channel=9 note=54 velocity=0 time=1\n",
      "note_on channel=9 note=42 velocity=62 time=27\n",
      "note_on channel=9 note=54 velocity=19 time=0\n",
      "note_on channel=9 note=54 velocity=0 time=1\n",
      "note_on channel=9 note=42 velocity=0 time=0\n",
      "note_on channel=9 note=69 velocity=42 time=0\n",
      "note_on channel=9 note=69 velocity=0 time=1\n",
      "note_on channel=9 note=54 velocity=13 time=28\n",
      "note_on channel=9 note=54 velocity=0 time=1\n",
      "note_on channel=9 note=39 velocity=68 time=29\n",
      "note_on channel=9 note=37 velocity=120 time=0\n",
      "note_on channel=9 note=69 velocity=39 time=0\n",
      "note_on channel=9 note=42 velocity=57 time=0\n",
      "note_on channel=9 note=42 velocity=0 time=1\n",
      "note_on channel=9 note=39 velocity=0 time=0\n",
      "note_on channel=9 note=37 velocity=0 time=0\n",
      "note_on channel=9 note=69 velocity=0 time=0\n",
      "note_on channel=9 note=54 velocity=45 time=1\n",
      "note_on channel=9 note=54 velocity=0 time=1\n",
      "note_on channel=9 note=54 velocity=15 time=26\n",
      "note_on channel=9 note=54 velocity=0 time=1\n",
      "note_on channel=9 note=35 velocity=108 time=30\n",
      "note_on channel=9 note=69 velocity=39 time=0\n",
      "note_on channel=9 note=42 velocity=57 time=0\n",
      "note_on channel=9 note=42 velocity=0 time=1\n",
      "note_on channel=9 note=69 velocity=0 time=0\n",
      "note_on channel=9 note=35 velocity=0 time=0\n",
      "note_on channel=9 note=54 velocity=19 time=1\n",
      "note_on channel=9 note=54 velocity=0 time=1\n",
      "note_on channel=9 note=54 velocity=13 time=27\n",
      "note_on channel=9 note=54 velocity=0 time=1\n",
      "note_on channel=9 note=69 velocity=50 time=28\n",
      "note_on channel=9 note=69 velocity=0 time=1\n",
      "note_on channel=9 note=42 velocity=73 time=0\n",
      "note_on channel=9 note=42 velocity=0 time=1\n",
      "note_on channel=9 note=54 velocity=17 time=1\n",
      "note_on channel=9 note=54 velocity=0 time=1\n",
      "note_on channel=9 note=54 velocity=15 time=28\n",
      "note_on channel=9 note=54 velocity=0 time=1\n",
      "note_on channel=9 note=54 velocity=19 time=27\n",
      "note_on channel=9 note=54 velocity=0 time=1\n",
      "note_on channel=9 note=35 velocity=110 time=0\n",
      "note_on channel=9 note=46 velocity=73 time=0\n",
      "note_on channel=9 note=46 velocity=0 time=1\n",
      "note_on channel=9 note=35 velocity=0 time=0\n",
      "note_on channel=9 note=54 velocity=13 time=28\n",
      "note_on channel=9 note=54 velocity=0 time=1\n",
      "note_on channel=9 note=37 velocity=120 time=30\n",
      "note_on channel=9 note=54 velocity=45 time=0\n",
      "note_on channel=9 note=39 velocity=70 time=0\n",
      "note_on channel=9 note=42 velocity=57 time=0\n",
      "note_on channel=9 note=69 velocity=39 time=0\n",
      "note_on channel=9 note=69 velocity=0 time=1\n",
      "note_on channel=9 note=39 velocity=0 time=0\n",
      "note_on channel=9 note=37 velocity=0 time=0\n",
      "note_on channel=9 note=54 velocity=0 time=0\n",
      "note_on channel=9 note=42 velocity=0 time=0\n",
      "note_on channel=9 note=54 velocity=15 time=29\n",
      "note_on channel=9 note=54 velocity=0 time=1\n",
      "note_on channel=9 note=69 velocity=50 time=28\n",
      "note_on channel=9 note=69 velocity=0 time=1\n",
      "note_on channel=9 note=42 velocity=73 time=0\n",
      "note_on channel=9 note=54 velocity=19 time=0\n",
      "note_on channel=9 note=54 velocity=0 time=1\n",
      "note_on channel=9 note=42 velocity=0 time=0\n",
      "note_on channel=9 note=54 velocity=13 time=29\n",
      "note_on channel=9 note=54 velocity=0 time=1\n",
      "note_on channel=9 note=42 velocity=73 time=29\n",
      "note_on channel=9 note=54 velocity=17 time=0\n",
      "note_on channel=9 note=35 velocity=110 time=0\n",
      "note_on channel=9 note=35 velocity=0 time=1\n",
      "note_on channel=9 note=54 velocity=0 time=0\n",
      "note_on channel=9 note=42 velocity=0 time=0\n",
      "note_on channel=9 note=69 velocity=50 time=0\n",
      "note_on channel=9 note=69 velocity=0 time=1\n",
      "note_on channel=9 note=54 velocity=15 time=28\n",
      "note_on channel=9 note=69 velocity=39 time=0\n",
      "note_on channel=9 note=42 velocity=57 time=0\n",
      "note_on channel=9 note=42 velocity=0 time=1\n",
      "note_on channel=9 note=69 velocity=0 time=0\n",
      "note_on channel=9 note=54 velocity=0 time=0\n",
      "note_on channel=9 note=54 velocity=19 time=28\n",
      "note_on channel=9 note=54 velocity=0 time=1\n",
      "note_on channel=9 note=42 velocity=62 time=0\n",
      "note_on channel=9 note=42 velocity=0 time=1\n",
      "note_on channel=9 note=69 velocity=42 time=0\n",
      "note_on channel=9 note=69 velocity=0 time=1\n",
      "note_on channel=9 note=54 velocity=13 time=27\n",
      "note_on channel=9 note=54 velocity=0 time=1\n",
      "note_on channel=9 note=42 velocity=57 time=30\n",
      "note_on channel=9 note=69 velocity=39 time=0\n",
      "note_on channel=9 note=37 velocity=120 time=0\n",
      "note_on channel=9 note=39 velocity=68 time=0\n",
      "note_on channel=9 note=39 velocity=0 time=1\n",
      "note_on channel=9 note=42 velocity=0 time=0\n",
      "note_on channel=9 note=69 velocity=0 time=0\n",
      "note_on channel=9 note=37 velocity=0 time=0\n",
      "note_on channel=9 note=54 velocity=45 time=1\n",
      "note_on channel=9 note=54 velocity=0 time=1\n",
      "note_on channel=9 note=54 velocity=15 time=28\n",
      "note_on channel=9 note=54 velocity=0 time=1\n",
      "note_on channel=9 note=42 velocity=57 time=28\n",
      "note_on channel=9 note=35 velocity=108 time=0\n",
      "note_on channel=9 note=69 velocity=39 time=0\n",
      "note_on channel=9 note=69 velocity=0 time=1\n",
      "note_on channel=9 note=35 velocity=0 time=0\n",
      "note_on channel=9 note=42 velocity=0 time=0\n",
      "note_on channel=9 note=54 velocity=19 time=0\n",
      "note_on channel=9 note=54 velocity=0 time=1\n",
      "note_on channel=9 note=54 velocity=13 time=30\n",
      "note_on channel=9 note=54 velocity=0 time=1\n",
      "note_on channel=9 note=42 velocity=73 time=27\n",
      "note_on channel=9 note=42 velocity=0 time=1\n",
      "note_on channel=9 note=69 velocity=50 time=0\n",
      "note_on channel=9 note=54 velocity=17 time=0\n",
      "note_on channel=9 note=54 velocity=0 time=1\n",
      "note_on channel=9 note=69 velocity=0 time=0\n",
      "note_on channel=9 note=54 velocity=15 time=29\n",
      "note_on channel=9 note=54 velocity=0 time=1\n",
      "note_on channel=9 note=46 velocity=73 time=28\n",
      "note_on channel=9 note=46 velocity=0 time=1\n",
      "note_on channel=9 note=54 velocity=19 time=0\n",
      "note_on channel=9 note=54 velocity=0 time=1\n",
      "note_on channel=9 note=54 velocity=13 time=27\n",
      "note_on channel=9 note=54 velocity=0 time=1\n",
      "note_on channel=9 note=69 velocity=39 time=29\n",
      "note_on channel=9 note=69 velocity=0 time=1\n",
      "note_on channel=9 note=39 velocity=70 time=0\n",
      "note_on channel=9 note=42 velocity=57 time=0\n",
      "note_on channel=9 note=37 velocity=120 time=0\n",
      "note_on channel=9 note=37 velocity=0 time=1\n",
      "note_on channel=9 note=42 velocity=0 time=0\n",
      "note_on channel=9 note=39 velocity=0 time=0\n",
      "note_on channel=9 note=54 velocity=45 time=0\n",
      "note_on channel=9 note=54 velocity=0 time=1\n",
      "note_on channel=9 note=54 velocity=15 time=30\n",
      "note_on channel=9 note=54 velocity=0 time=1\n",
      "note_on channel=9 note=54 velocity=19 time=27\n",
      "note_on channel=9 note=69 velocity=50 time=0\n",
      "note_on channel=9 note=42 velocity=73 time=0\n",
      "note_on channel=9 note=42 velocity=0 time=1\n",
      "note_on channel=9 note=69 velocity=0 time=0\n",
      "note_on channel=9 note=54 velocity=0 time=0\n",
      "note_on channel=9 note=54 velocity=13 time=28\n",
      "note_on channel=9 note=54 velocity=0 time=1\n",
      "note_on channel=9 note=54 velocity=17 time=29\n",
      "note_on channel=9 note=54 velocity=0 time=1\n",
      "note_on channel=9 note=69 velocity=50 time=0\n",
      "note_on channel=9 note=42 velocity=73 time=0\n",
      "note_on channel=9 note=35 velocity=110 time=0\n",
      "note_on channel=9 note=35 velocity=0 time=1\n",
      "note_on channel=9 note=42 velocity=0 time=0\n",
      "note_on channel=9 note=69 velocity=0 time=0\n",
      "note_on channel=9 note=69 velocity=39 time=29\n",
      "note_on channel=9 note=42 velocity=57 time=0\n",
      "note_on channel=9 note=42 velocity=0 time=1\n",
      "note_on channel=9 note=69 velocity=0 time=0\n",
      "note_on channel=9 note=54 velocity=15 time=0\n",
      "note_on channel=9 note=54 velocity=0 time=1\n",
      "note_on channel=9 note=54 velocity=19 time=27\n",
      "note_on channel=9 note=69 velocity=42 time=0\n",
      "note_on channel=9 note=69 velocity=0 time=1\n",
      "note_on channel=9 note=54 velocity=0 time=0\n",
      "note_on channel=9 note=42 velocity=62 time=0\n",
      "note_on channel=9 note=42 velocity=0 time=1\n",
      "note_on channel=9 note=54 velocity=13 time=29\n",
      "note_on channel=9 note=54 velocity=0 time=1\n",
      "note_on channel=9 note=69 velocity=39 time=29\n",
      "note_on channel=9 note=37 velocity=120 time=0\n",
      "note_on channel=9 note=42 velocity=57 time=0\n",
      "note_on channel=9 note=39 velocity=68 time=0\n",
      "note_on channel=9 note=39 velocity=0 time=1\n",
      "note_on channel=9 note=69 velocity=0 time=0\n",
      "note_on channel=9 note=37 velocity=0 time=0\n",
      "note_on channel=9 note=42 velocity=0 time=0\n",
      "note_on channel=9 note=54 velocity=45 time=1\n",
      "note_on channel=9 note=54 velocity=0 time=1\n",
      "note_on channel=9 note=54 velocity=15 time=29\n",
      "note_on channel=9 note=54 velocity=0 time=1\n",
      "note_on channel=9 note=42 velocity=57 time=27\n",
      "note_on channel=9 note=54 velocity=19 time=0\n",
      "note_on channel=9 note=69 velocity=39 time=0\n",
      "note_on channel=9 note=35 velocity=108 time=0\n",
      "note_on channel=9 note=35 velocity=0 time=1\n",
      "note_on channel=9 note=42 velocity=0 time=0\n",
      "note_on channel=9 note=54 velocity=0 time=0\n",
      "note_on channel=9 note=69 velocity=0 time=0\n",
      "note_on channel=9 note=54 velocity=13 time=30\n",
      "note_on channel=9 note=54 velocity=0 time=1\n",
      "note_on channel=9 note=42 velocity=73 time=28\n",
      "note_on channel=9 note=42 velocity=0 time=1\n",
      "note_on channel=9 note=69 velocity=50 time=0\n",
      "note_on channel=9 note=54 velocity=17 time=0\n",
      "note_on channel=9 note=54 velocity=0 time=1\n",
      "note_on channel=9 note=69 velocity=0 time=0\n",
      "note_on channel=9 note=54 velocity=15 time=28\n",
      "note_on channel=9 note=54 velocity=0 time=1\n",
      "note_on channel=9 note=54 velocity=19 time=28\n",
      "note_on channel=9 note=54 velocity=0 time=1\n",
      "note_on channel=9 note=46 velocity=73 time=0\n",
      "note_on channel=9 note=35 velocity=84 time=0\n",
      "note_on channel=9 note=35 velocity=0 time=1\n",
      "note_on channel=9 note=46 velocity=0 time=0\n",
      "note_on channel=9 note=54 velocity=13 time=29\n",
      "note_on channel=9 note=54 velocity=0 time=1\n",
      "note_on channel=9 note=54 velocity=45 time=28\n",
      "note_on channel=9 note=69 velocity=39 time=0\n",
      "note_on channel=9 note=69 velocity=0 time=1\n",
      "note_on channel=9 note=54 velocity=0 time=0\n",
      "note_on channel=9 note=39 velocity=70 time=0\n",
      "note_on channel=9 note=37 velocity=120 time=0\n",
      "note_on channel=9 note=42 velocity=57 time=0\n",
      "note_on channel=9 note=42 velocity=0 time=1\n",
      "note_on channel=9 note=37 velocity=0 time=0\n",
      "note_on channel=9 note=39 velocity=0 time=0\n",
      "note_on channel=9 note=54 velocity=15 time=30\n",
      "note_on channel=9 note=54 velocity=0 time=1\n",
      "note_on channel=9 note=69 velocity=50 time=28\n",
      "note_on channel=9 note=42 velocity=73 time=0\n",
      "note_on channel=9 note=42 velocity=0 time=1\n",
      "note_on channel=9 note=69 velocity=0 time=0\n",
      "note_on channel=9 note=54 velocity=19 time=1\n",
      "note_on channel=9 note=54 velocity=0 time=1\n",
      "note_on channel=9 note=54 velocity=13 time=29\n",
      "note_on channel=9 note=54 velocity=0 time=1\n",
      "note_on channel=9 note=54 velocity=17 time=26\n",
      "note_on channel=9 note=54 velocity=0 time=1\n",
      "note_on channel=9 note=35 velocity=110 time=0\n",
      "note_on channel=9 note=49 velocity=54 time=0\n",
      "note_on channel=9 note=49 velocity=0 time=1\n",
      "note_on channel=9 note=35 velocity=0 time=0\n",
      "note_on channel=9 note=54 velocity=15 time=28\n",
      "note_on channel=9 note=54 velocity=0 time=1\n",
      "note_on channel=9 note=42 velocity=57 time=30\n",
      "note_on channel=9 note=42 velocity=0 time=1\n",
      "note_on channel=9 note=69 velocity=39 time=0\n",
      "note_on channel=9 note=54 velocity=19 time=0\n",
      "note_on channel=9 note=54 velocity=0 time=1\n",
      "note_on channel=9 note=69 velocity=0 time=0\n",
      "note_on channel=9 note=54 velocity=13 time=28\n",
      "note_on channel=9 note=54 velocity=0 time=1\n",
      "note_on channel=9 note=39 velocity=68 time=29\n",
      "note_on channel=9 note=42 velocity=57 time=0\n",
      "note_on channel=9 note=37 velocity=120 time=0\n",
      "note_on channel=9 note=69 velocity=39 time=0\n",
      "note_on channel=9 note=69 velocity=0 time=1\n",
      "note_on channel=9 note=39 velocity=0 time=0\n",
      "note_on channel=9 note=42 velocity=0 time=0\n",
      "note_on channel=9 note=37 velocity=0 time=0\n",
      "note_on channel=9 note=54 velocity=45 time=0\n",
      "note_on channel=9 note=54 velocity=0 time=1\n",
      "note_on channel=9 note=54 velocity=15 time=30\n",
      "note_on channel=9 note=54 velocity=0 time=1\n",
      "note_on channel=9 note=69 velocity=50 time=26\n",
      "note_on channel=9 note=69 velocity=0 time=1\n",
      "note_on channel=9 note=54 velocity=19 time=0\n",
      "note_on channel=9 note=35 velocity=108 time=0\n",
      "note_on channel=9 note=42 velocity=73 time=0\n",
      "note_on channel=9 note=42 velocity=0 time=1\n",
      "note_on channel=9 note=35 velocity=0 time=0\n",
      "note_on channel=9 note=54 velocity=0 time=0\n",
      "note_on channel=9 note=54 velocity=13 time=28\n",
      "note_on channel=9 note=54 velocity=0 time=1\n",
      "note_on channel=9 note=54 velocity=17 time=29\n",
      "note_on channel=9 note=69 velocity=39 time=0\n",
      "note_on channel=9 note=69 velocity=0 time=1\n",
      "note_on channel=9 note=54 velocity=0 time=0\n",
      "note_on channel=9 note=42 velocity=57 time=0\n",
      "note_on channel=9 note=42 velocity=0 time=1\n",
      "note_on channel=9 note=54 velocity=15 time=29\n",
      "note_on channel=9 note=54 velocity=0 time=1\n",
      "note_on channel=9 note=46 velocity=73 time=29\n",
      "note_on channel=9 note=46 velocity=0 time=1\n",
      "note_on channel=9 note=54 velocity=19 time=1\n",
      "note_on channel=9 note=54 velocity=0 time=1\n",
      "note_on channel=9 note=54 velocity=13 time=26\n",
      "note_on channel=9 note=54 velocity=0 time=1\n",
      "note_on channel=9 note=54 velocity=45 time=30\n",
      "note_on channel=9 note=39 velocity=70 time=0\n",
      "note_on channel=9 note=42 velocity=57 time=0\n",
      "note_on channel=9 note=37 velocity=120 time=0\n",
      "note_on channel=9 note=37 velocity=0 time=1\n",
      "note_on channel=9 note=54 velocity=0 time=0\n",
      "note_on channel=9 note=39 velocity=0 time=0\n",
      "note_on channel=9 note=42 velocity=0 time=0\n",
      "note_on channel=9 note=69 velocity=39 time=0\n",
      "note_on channel=9 note=69 velocity=0 time=1\n",
      "note_on channel=9 note=54 velocity=15 time=29\n",
      "note_on channel=9 note=54 velocity=0 time=1\n",
      "note_on channel=9 note=54 velocity=19 time=27\n",
      "note_on channel=9 note=69 velocity=39 time=0\n",
      "note_on channel=9 note=69 velocity=0 time=1\n",
      "note_on channel=9 note=54 velocity=0 time=0\n",
      "note_on channel=9 note=42 velocity=57 time=0\n",
      "note_on channel=9 note=42 velocity=0 time=1\n",
      "note_on channel=9 note=54 velocity=13 time=30\n",
      "note_on channel=9 note=54 velocity=0 time=1\n",
      "note_on channel=9 note=54 velocity=17 time=27\n",
      "note_on channel=9 note=54 velocity=0 time=1\n",
      "note_on channel=9 note=69 velocity=50 time=0\n",
      "note_on channel=9 note=42 velocity=73 time=0\n",
      "note_on channel=9 note=35 velocity=110 time=0\n",
      "note_on channel=9 note=35 velocity=0 time=1\n",
      "note_on channel=9 note=42 velocity=0 time=0\n",
      "note_on channel=9 note=69 velocity=0 time=0\n",
      "note_on channel=9 note=54 velocity=15 time=28\n",
      "note_on channel=9 note=69 velocity=39 time=0\n",
      "note_on channel=9 note=69 velocity=0 time=1\n",
      "note_on channel=9 note=54 velocity=0 time=0\n",
      "note_on channel=9 note=42 velocity=57 time=0\n",
      "note_on channel=9 note=42 velocity=0 time=1\n",
      "note_on channel=9 note=69 velocity=42 time=28\n",
      "note_on channel=9 note=69 velocity=0 time=1\n",
      "note_on channel=9 note=42 velocity=62 time=0\n",
      "note_on channel=9 note=42 velocity=0 time=1\n",
      "note_on channel=9 note=54 velocity=19 time=1\n",
      "note_on channel=9 note=54 velocity=0 time=1\n",
      "note_on channel=9 note=54 velocity=13 time=27\n",
      "note_on channel=9 note=54 velocity=0 time=1\n",
      "note_on channel=9 note=69 velocity=39 time=28\n",
      "note_on channel=9 note=69 velocity=0 time=1\n",
      "note_on channel=9 note=54 velocity=45 time=0\n",
      "note_on channel=9 note=37 velocity=120 time=0\n",
      "note_on channel=9 note=39 velocity=68 time=0\n",
      "note_on channel=9 note=42 velocity=57 time=0\n",
      "note_on channel=9 note=42 velocity=0 time=1\n",
      "note_on channel=9 note=54 velocity=0 time=0\n",
      "note_on channel=9 note=37 velocity=0 time=0\n",
      "note_on channel=9 note=39 velocity=0 time=0\n",
      "note_on channel=9 note=54 velocity=15 time=28\n",
      "note_on channel=9 note=54 velocity=0 time=1\n",
      "note_on channel=9 note=69 velocity=39 time=30\n",
      "note_on channel=9 note=35 velocity=108 time=0\n",
      "note_on channel=9 note=42 velocity=57 time=0\n",
      "note_on channel=9 note=42 velocity=0 time=1\n",
      "note_on channel=9 note=35 velocity=0 time=0\n",
      "note_on channel=9 note=69 velocity=0 time=0\n",
      "note_on channel=9 note=54 velocity=19 time=0\n",
      "note_on channel=9 note=54 velocity=0 time=1\n",
      "note_on channel=9 note=54 velocity=13 time=28\n",
      "note_on channel=9 note=54 velocity=0 time=1\n",
      "note_on channel=9 note=42 velocity=73 time=29\n",
      "note_on channel=9 note=69 velocity=50 time=0\n",
      "note_on channel=9 note=69 velocity=0 time=1\n",
      "note_on channel=9 note=42 velocity=0 time=0\n",
      "note_on channel=9 note=54 velocity=17 time=0\n",
      "note_on channel=9 note=54 velocity=0 time=1\n",
      "note_on channel=9 note=54 velocity=15 time=28\n",
      "note_on channel=9 note=54 velocity=0 time=1\n",
      "note_on channel=9 note=46 velocity=73 time=29\n",
      "note_on channel=9 note=54 velocity=19 time=0\n",
      "note_on channel=9 note=35 velocity=110 time=0\n",
      "note_on channel=9 note=35 velocity=0 time=1\n",
      "note_on channel=9 note=54 velocity=0 time=0\n",
      "note_on channel=9 note=46 velocity=0 time=0\n",
      "note_on channel=9 note=54 velocity=13 time=29\n",
      "note_on channel=9 note=54 velocity=0 time=1\n",
      "note_on channel=9 note=54 velocity=45 time=29\n",
      "note_on channel=9 note=39 velocity=70 time=0\n",
      "note_on channel=9 note=42 velocity=57 time=0\n",
      "note_on channel=9 note=37 velocity=120 time=0\n",
      "note_on channel=9 note=69 velocity=39 time=0\n",
      "note_on channel=9 note=69 velocity=0 time=1\n",
      "note_on channel=9 note=42 velocity=0 time=0\n",
      "note_on channel=9 note=54 velocity=0 time=0\n",
      "note_on channel=9 note=39 velocity=0 time=0\n",
      "note_on channel=9 note=37 velocity=0 time=0\n",
      "note_on channel=9 note=54 velocity=15 time=30\n",
      "note_on channel=9 note=54 velocity=0 time=1\n",
      "note_on channel=9 note=42 velocity=73 time=28\n",
      "note_on channel=9 note=42 velocity=0 time=1\n",
      "note_on channel=9 note=69 velocity=50 time=0\n",
      "note_on channel=9 note=69 velocity=0 time=1\n",
      "note_on channel=9 note=54 velocity=19 time=0\n",
      "note_on channel=9 note=54 velocity=0 time=1\n",
      "note_on channel=9 note=54 velocity=13 time=29\n",
      "note_on channel=9 note=54 velocity=0 time=1\n",
      "note_on channel=9 note=35 velocity=110 time=27\n",
      "note_on channel=9 note=49 velocity=52 time=0\n",
      "note_on channel=9 note=49 velocity=0 time=1\n",
      "note_on channel=9 note=35 velocity=0 time=0\n",
      "note_on channel=9 note=54 velocity=17 time=0\n",
      "note_on channel=9 note=54 velocity=0 time=1\n",
      "note_on channel=9 note=69 velocity=39 time=27\n",
      "note_on channel=9 note=69 velocity=0 time=1\n",
      "note_on channel=9 note=42 velocity=57 time=0\n",
      "note_on channel=9 note=42 velocity=0 time=1\n",
      "note_on channel=9 note=54 velocity=15 time=0\n",
      "note_on channel=9 note=54 velocity=0 time=1\n",
      "note_on channel=9 note=69 velocity=42 time=28\n",
      "note_on channel=9 note=42 velocity=62 time=0\n",
      "note_on channel=9 note=42 velocity=0 time=1\n",
      "note_on channel=9 note=69 velocity=0 time=0\n",
      "note_on channel=9 note=54 velocity=19 time=1\n",
      "note_on channel=9 note=54 velocity=0 time=1\n",
      "note_on channel=9 note=54 velocity=13 time=28\n",
      "note_on channel=9 note=54 velocity=0 time=1\n",
      "note_on channel=9 note=42 velocity=57 time=28\n",
      "note_on channel=9 note=37 velocity=120 time=0\n",
      "note_on channel=9 note=69 velocity=39 time=0\n",
      "note_on channel=9 note=39 velocity=68 time=0\n",
      "note_on channel=9 note=39 velocity=0 time=1\n",
      "note_on channel=9 note=42 velocity=0 time=0\n",
      "note_on channel=9 note=37 velocity=0 time=0\n",
      "note_on channel=9 note=69 velocity=0 time=0\n",
      "note_on channel=9 note=54 velocity=45 time=0\n",
      "note_on channel=9 note=54 velocity=0 time=1\n",
      "note_on channel=9 note=54 velocity=15 time=27\n",
      "note_on channel=9 note=54 velocity=0 time=1\n",
      "note_on channel=9 note=42 velocity=57 time=30\n",
      "note_on channel=9 note=35 velocity=108 time=0\n",
      "note_on channel=9 note=35 velocity=0 time=1\n",
      "note_on channel=9 note=42 velocity=0 time=0\n",
      "note_on channel=9 note=69 velocity=39 time=0\n",
      "note_on channel=9 note=54 velocity=19 time=0\n",
      "note_on channel=9 note=54 velocity=0 time=1\n",
      "note_on channel=9 note=69 velocity=0 time=0\n",
      "note_on channel=9 note=54 velocity=13 time=30\n",
      "note_on channel=9 note=54 velocity=0 time=1\n",
      "note_on channel=9 note=42 velocity=73 time=27\n",
      "note_on channel=9 note=69 velocity=50 time=0\n",
      "note_on channel=9 note=69 velocity=0 time=1\n",
      "note_on channel=9 note=42 velocity=0 time=0\n",
      "note_on channel=9 note=54 velocity=17 time=0\n",
      "note_on channel=9 note=54 velocity=0 time=1\n",
      "note_on channel=9 note=54 velocity=15 time=28\n",
      "note_on channel=9 note=54 velocity=0 time=1\n",
      "note_on channel=9 note=54 velocity=19 time=28\n",
      "note_on channel=9 note=54 velocity=0 time=1\n",
      "note_on channel=9 note=46 velocity=73 time=0\n",
      "note_on channel=9 note=46 velocity=0 time=1\n",
      "note_on channel=9 note=54 velocity=13 time=31\n",
      "note_on channel=9 note=54 velocity=0 time=1\n",
      "note_on channel=9 note=42 velocity=57 time=27\n",
      "note_on channel=9 note=39 velocity=70 time=0\n",
      "note_on channel=9 note=37 velocity=120 time=0\n",
      "note_on channel=9 note=37 velocity=0 time=1\n",
      "note_on channel=9 note=39 velocity=0 time=0\n",
      "note_on channel=9 note=42 velocity=0 time=0\n",
      "note_on channel=9 note=69 velocity=39 time=0\n",
      "note_on channel=9 note=54 velocity=45 time=0\n",
      "note_on channel=9 note=54 velocity=0 time=1\n",
      "note_on channel=9 note=69 velocity=0 time=0\n",
      "note_on channel=9 note=54 velocity=15 time=29\n",
      "note_on channel=9 note=54 velocity=0 time=1\n",
      "note_on channel=9 note=69 velocity=50 time=28\n",
      "note_on channel=9 note=42 velocity=73 time=0\n",
      "note_on channel=9 note=42 velocity=0 time=1\n",
      "note_on channel=9 note=69 velocity=0 time=0\n",
      "note_on channel=9 note=54 velocity=19 time=1\n",
      "note_on channel=9 note=54 velocity=0 time=1\n",
      "note_on channel=9 note=54 velocity=13 time=27\n",
      "note_on channel=9 note=54 velocity=0 time=1\n",
      "note_on channel=9 note=69 velocity=50 time=28\n",
      "note_on channel=9 note=69 velocity=0 time=1\n",
      "note_on channel=9 note=35 velocity=110 time=0\n",
      "note_on channel=9 note=42 velocity=73 time=0\n",
      "note_on channel=9 note=42 velocity=0 time=1\n",
      "note_on channel=9 note=35 velocity=0 time=0\n",
      "note_on channel=9 note=54 velocity=17 time=1\n",
      "note_on channel=9 note=54 velocity=0 time=1\n",
      "note_on channel=9 note=69 velocity=39 time=26\n",
      "note_on channel=9 note=69 velocity=0 time=1\n",
      "note_on channel=9 note=42 velocity=57 time=0\n",
      "note_on channel=9 note=54 velocity=15 time=0\n",
      "note_on channel=9 note=54 velocity=0 time=1\n",
      "note_on channel=9 note=42 velocity=0 time=0\n",
      "note_on channel=9 note=54 velocity=19 time=28\n",
      "note_on channel=9 note=54 velocity=0 time=1\n",
      "note_on channel=9 note=69 velocity=42 time=0\n",
      "note_on channel=9 note=42 velocity=62 time=0\n",
      "note_on channel=9 note=42 velocity=0 time=1\n",
      "note_on channel=9 note=69 velocity=0 time=0\n",
      "note_on channel=9 note=54 velocity=13 time=30\n",
      "note_on channel=9 note=54 velocity=0 time=1\n",
      "note_on channel=9 note=39 velocity=68 time=28\n",
      "note_on channel=9 note=42 velocity=57 time=0\n",
      "note_on channel=9 note=37 velocity=120 time=0\n",
      "note_on channel=9 note=37 velocity=0 time=1\n",
      "note_on channel=9 note=42 velocity=0 time=0\n",
      "note_on channel=9 note=39 velocity=0 time=0\n",
      "note_on channel=9 note=69 velocity=39 time=0\n",
      "note_on channel=9 note=69 velocity=0 time=1\n",
      "note_on channel=9 note=54 velocity=45 time=0\n",
      "note_on channel=9 note=54 velocity=0 time=1\n",
      "note_on channel=9 note=54 velocity=15 time=29\n",
      "note_on channel=9 note=54 velocity=0 time=1\n",
      "note_on channel=9 note=69 velocity=39 time=26\n",
      "note_on channel=9 note=69 velocity=0 time=1\n",
      "note_on channel=9 note=35 velocity=108 time=0\n",
      "note_on channel=9 note=42 velocity=57 time=0\n",
      "note_on channel=9 note=42 velocity=0 time=1\n",
      "note_on channel=9 note=35 velocity=0 time=0\n",
      "note_on channel=9 note=54 velocity=19 time=1\n",
      "note_on channel=9 note=54 velocity=0 time=1\n",
      "note_on channel=9 note=54 velocity=13 time=29\n",
      "note_on channel=9 note=54 velocity=0 time=1\n",
      "note_on channel=9 note=69 velocity=50 time=26\n",
      "note_on channel=9 note=69 velocity=0 time=1\n",
      "note_on channel=9 note=42 velocity=73 time=0\n",
      "note_on channel=9 note=54 velocity=20 time=0\n",
      "note_on channel=9 note=54 velocity=0 time=1\n",
      "note_on channel=9 note=42 velocity=0 time=0\n",
      "note_on channel=9 note=54 velocity=18 time=8\n",
      "note_on channel=9 note=54 velocity=0 time=1\n",
      "note_on channel=9 note=54 velocity=22 time=9\n",
      "note_on channel=9 note=54 velocity=0 time=1\n",
      "note_on channel=9 note=54 velocity=15 time=10\n",
      "note_on channel=9 note=54 velocity=0 time=1\n",
      "note_on channel=9 note=54 velocity=20 time=9\n",
      "note_on channel=9 note=54 velocity=0 time=1\n",
      "note_on channel=9 note=54 velocity=18 time=11\n",
      "note_on channel=9 note=54 velocity=0 time=1\n",
      "note_on channel=9 note=54 velocity=22 time=6\n",
      "note_on channel=9 note=54 velocity=0 time=1\n",
      "note_on channel=9 note=46 velocity=73 time=0\n",
      "note_on channel=9 note=35 velocity=84 time=0\n",
      "note_on channel=9 note=35 velocity=0 time=1\n",
      "note_on channel=9 note=46 velocity=0 time=0\n",
      "note_on channel=9 note=54 velocity=15 time=10\n",
      "note_on channel=9 note=54 velocity=0 time=1\n",
      "note_on channel=9 note=54 velocity=20 time=7\n",
      "note_on channel=9 note=54 velocity=0 time=1\n",
      "note_on channel=9 note=54 velocity=18 time=10\n",
      "note_on channel=9 note=54 velocity=0 time=1\n",
      "note_on channel=9 note=54 velocity=22 time=9\n",
      "note_on channel=9 note=54 velocity=0 time=1\n",
      "note_on channel=9 note=54 velocity=15 time=9\n",
      "note_on channel=9 note=54 velocity=0 time=1\n",
      "note_on channel=9 note=35 velocity=110 time=9\n",
      "note_on channel=9 note=42 velocity=57 time=0\n",
      "note_on channel=9 note=54 velocity=45 time=0\n",
      "note_on channel=9 note=39 velocity=70 time=0\n",
      "note_on channel=9 note=37 velocity=120 time=0\n",
      "note_on channel=9 note=37 velocity=0 time=1\n",
      "note_on channel=9 note=54 velocity=0 time=0\n",
      "note_on channel=9 note=35 velocity=0 time=0\n",
      "note_on channel=9 note=42 velocity=0 time=0\n",
      "note_on channel=9 note=39 velocity=0 time=0\n",
      "note_on channel=9 note=69 velocity=39 time=0\n",
      "note_on channel=9 note=69 velocity=0 time=1\n",
      "note_on channel=9 note=69 velocity=50 time=58\n",
      "note_on channel=9 note=42 velocity=73 time=0\n",
      "note_on channel=9 note=42 velocity=0 time=1\n",
      "note_on channel=9 note=69 velocity=0 time=0\n",
      "note_on channel=9 note=49 velocity=69 time=59\n",
      "note_on channel=9 note=35 velocity=110 time=0\n",
      "note_on channel=9 note=35 velocity=0 time=1\n",
      "note_on channel=9 note=49 velocity=0 time=0\n",
      "note_on channel=9 note=42 velocity=57 time=59\n",
      "note_on channel=9 note=42 velocity=0 time=1\n",
      "note_on channel=9 note=69 velocity=39 time=0\n",
      "note_on channel=9 note=69 velocity=0 time=1\n",
      "note_on channel=9 note=39 velocity=68 time=58\n",
      "note_on channel=9 note=69 velocity=39 time=0\n",
      "note_on channel=9 note=42 velocity=57 time=0\n",
      "note_on channel=9 note=37 velocity=120 time=0\n",
      "note_on channel=9 note=37 velocity=0 time=1\n",
      "note_on channel=9 note=39 velocity=0 time=0\n",
      "note_on channel=9 note=69 velocity=0 time=0\n",
      "note_on channel=9 note=42 velocity=0 time=0\n",
      "note_on channel=9 note=69 velocity=50 time=58\n",
      "note_on channel=9 note=69 velocity=0 time=1\n",
      "note_on channel=9 note=42 velocity=73 time=0\n",
      "note_on channel=9 note=35 velocity=108 time=0\n",
      "note_on channel=9 note=35 velocity=0 time=1\n",
      "note_on channel=9 note=42 velocity=0 time=0\n",
      "note_on channel=9 note=69 velocity=39 time=58\n",
      "note_on channel=9 note=69 velocity=0 time=1\n",
      "note_on channel=9 note=42 velocity=57 time=0\n",
      "note_on channel=9 note=42 velocity=0 time=1\n",
      "note_on channel=9 note=46 velocity=73 time=59\n",
      "note_on channel=9 note=46 velocity=0 time=1\n",
      "note_on channel=9 note=69 velocity=39 time=58\n",
      "note_on channel=9 note=69 velocity=0 time=1\n",
      "note_on channel=9 note=39 velocity=70 time=0\n",
      "note_on channel=9 note=37 velocity=120 time=0\n",
      "note_on channel=9 note=42 velocity=57 time=0\n",
      "note_on channel=9 note=42 velocity=0 time=1\n",
      "note_on channel=9 note=37 velocity=0 time=0\n",
      "note_on channel=9 note=39 velocity=0 time=0\n",
      "note_on channel=9 note=54 velocity=45 time=0\n",
      "note_on channel=9 note=54 velocity=0 time=1\n",
      "note_on channel=9 note=42 velocity=57 time=58\n",
      "note_on channel=9 note=42 velocity=0 time=1\n",
      "note_on channel=9 note=69 velocity=39 time=0\n",
      "note_on channel=9 note=69 velocity=0 time=1\n",
      "note_on channel=9 note=35 velocity=110 time=58\n",
      "note_on channel=9 note=42 velocity=73 time=0\n",
      "note_on channel=9 note=69 velocity=50 time=0\n",
      "note_on channel=9 note=69 velocity=0 time=1\n",
      "note_on channel=9 note=42 velocity=0 time=0\n",
      "note_on channel=9 note=35 velocity=0 time=0\n",
      "note_on channel=9 note=69 velocity=39 time=28\n",
      "note_on channel=9 note=69 velocity=0 time=1\n",
      "note_on channel=9 note=42 velocity=57 time=0\n",
      "note_on channel=9 note=42 velocity=0 time=1\n",
      "note_on channel=9 note=42 velocity=62 time=29\n",
      "note_on channel=9 note=69 velocity=42 time=0\n",
      "note_on channel=9 note=69 velocity=0 time=1\n",
      "note_on channel=9 note=42 velocity=0 time=0\n",
      "note_on channel=9 note=37 velocity=120 time=59\n",
      "note_on channel=9 note=42 velocity=57 time=0\n",
      "note_on channel=9 note=69 velocity=39 time=0\n",
      "note_on channel=9 note=39 velocity=68 time=0\n",
      "note_on channel=9 note=39 velocity=0 time=1\n",
      "note_on channel=9 note=37 velocity=0 time=0\n",
      "note_on channel=9 note=42 velocity=0 time=0\n",
      "note_on channel=9 note=69 velocity=0 time=0\n",
      "note_on channel=9 note=69 velocity=39 time=58\n",
      "note_on channel=9 note=69 velocity=0 time=1\n",
      "note_on channel=9 note=42 velocity=57 time=0\n",
      "note_on channel=9 note=35 velocity=108 time=0\n",
      "note_on channel=9 note=35 velocity=0 time=1\n",
      "note_on channel=9 note=42 velocity=0 time=0\n",
      "note_on channel=9 note=42 velocity=73 time=59\n",
      "note_on channel=9 note=42 velocity=0 time=1\n",
      "note_on channel=9 note=69 velocity=50 time=0\n",
      "note_on channel=9 note=69 velocity=0 time=1\n",
      "note_on channel=9 note=35 velocity=110 time=58\n",
      "note_on channel=9 note=46 velocity=73 time=0\n",
      "note_on channel=9 note=46 velocity=0 time=1\n",
      "note_on channel=9 note=35 velocity=0 time=0\n",
      "note_on channel=9 note=54 velocity=45 time=58\n",
      "note_on channel=9 note=54 velocity=0 time=1\n",
      "note_on channel=9 note=69 velocity=39 time=0\n",
      "note_on channel=9 note=39 velocity=70 time=0\n",
      "note_on channel=9 note=42 velocity=57 time=0\n",
      "note_on channel=9 note=37 velocity=120 time=0\n",
      "note_on channel=9 note=37 velocity=0 time=1\n",
      "note_on channel=9 note=69 velocity=0 time=0\n",
      "note_on channel=9 note=39 velocity=0 time=0\n",
      "note_on channel=9 note=42 velocity=0 time=0\n",
      "note_on channel=9 note=42 velocity=73 time=59\n",
      "note_on channel=9 note=42 velocity=0 time=1\n",
      "note_on channel=9 note=69 velocity=50 time=0\n",
      "note_on channel=9 note=69 velocity=0 time=1\n",
      "note_on channel=9 note=69 velocity=50 time=57\n",
      "note_on channel=9 note=69 velocity=0 time=1\n",
      "note_on channel=9 note=42 velocity=73 time=0\n",
      "note_on channel=9 note=35 velocity=110 time=0\n",
      "note_on channel=9 note=35 velocity=0 time=1\n",
      "note_on channel=9 note=42 velocity=0 time=0\n",
      "note_on channel=9 note=69 velocity=39 time=28\n",
      "note_on channel=9 note=69 velocity=0 time=1\n",
      "note_on channel=9 note=42 velocity=57 time=0\n",
      "note_on channel=9 note=42 velocity=0 time=1\n",
      "note_on channel=9 note=42 velocity=62 time=29\n",
      "note_on channel=9 note=69 velocity=42 time=0\n",
      "note_on channel=9 note=69 velocity=0 time=1\n",
      "note_on channel=9 note=42 velocity=0 time=0\n",
      "note_on channel=9 note=39 velocity=68 time=59\n",
      "note_on channel=9 note=37 velocity=120 time=0\n",
      "note_on channel=9 note=42 velocity=57 time=0\n",
      "note_on channel=9 note=42 velocity=0 time=1\n",
      "note_on channel=9 note=37 velocity=0 time=0\n",
      "note_on channel=9 note=39 velocity=0 time=0\n",
      "note_on channel=9 note=69 velocity=39 time=0\n",
      "note_on channel=9 note=69 velocity=0 time=1\n",
      "note_on channel=9 note=69 velocity=39 time=58\n",
      "note_on channel=9 note=35 velocity=108 time=0\n",
      "note_on channel=9 note=42 velocity=57 time=0\n",
      "note_on channel=9 note=42 velocity=0 time=1\n",
      "note_on channel=9 note=35 velocity=0 time=0\n",
      "note_on channel=9 note=69 velocity=0 time=0\n",
      "note_on channel=9 note=69 velocity=50 time=59\n",
      "note_on channel=9 note=42 velocity=73 time=0\n",
      "note_on channel=9 note=42 velocity=0 time=1\n",
      "note_on channel=9 note=69 velocity=0 time=0\n",
      "note_on channel=9 note=46 velocity=73 time=59\n",
      "note_on channel=9 note=46 velocity=0 time=1\n",
      "note_on channel=9 note=42 velocity=57 time=59\n",
      "note_on channel=9 note=37 velocity=120 time=0\n",
      "note_on channel=9 note=39 velocity=70 time=0\n",
      "note_on channel=9 note=39 velocity=0 time=1\n",
      "note_on channel=9 note=37 velocity=0 time=0\n",
      "note_on channel=9 note=42 velocity=0 time=0\n",
      "note_on channel=9 note=69 velocity=39 time=0\n",
      "note_on channel=9 note=54 velocity=45 time=0\n",
      "note_on channel=9 note=54 velocity=0 time=1\n",
      "note_on channel=9 note=69 velocity=0 time=0\n",
      "note_on channel=9 note=69 velocity=50 time=57\n",
      "note_on channel=9 note=69 velocity=0 time=1\n",
      "note_on channel=9 note=42 velocity=73 time=0\n",
      "note_on channel=9 note=42 velocity=0 time=1\n",
      "note_on channel=9 note=42 velocity=73 time=59\n",
      "note_on channel=9 note=35 velocity=110 time=0\n",
      "note_on channel=9 note=69 velocity=50 time=0\n",
      "note_on channel=9 note=69 velocity=0 time=1\n",
      "note_on channel=9 note=35 velocity=0 time=0\n",
      "note_on channel=9 note=42 velocity=0 time=0\n",
      "note_on channel=9 note=69 velocity=39 time=28\n",
      "note_on channel=9 note=69 velocity=0 time=1\n",
      "note_on channel=9 note=42 velocity=57 time=0\n",
      "note_on channel=9 note=42 velocity=0 time=1\n",
      "note_on channel=9 note=42 velocity=62 time=29\n",
      "note_on channel=9 note=42 velocity=0 time=1\n",
      "note_on channel=9 note=69 velocity=42 time=0\n",
      "note_on channel=9 note=69 velocity=0 time=1\n",
      "note_on channel=9 note=42 velocity=57 time=58\n",
      "note_on channel=9 note=37 velocity=120 time=0\n",
      "note_on channel=9 note=39 velocity=68 time=0\n",
      "note_on channel=9 note=39 velocity=0 time=1\n",
      "note_on channel=9 note=37 velocity=0 time=0\n",
      "note_on channel=9 note=42 velocity=0 time=0\n",
      "note_on channel=9 note=69 velocity=39 time=0\n",
      "note_on channel=9 note=69 velocity=0 time=1\n",
      "note_on channel=9 note=69 velocity=39 time=57\n",
      "note_on channel=9 note=69 velocity=0 time=1\n",
      "note_on channel=9 note=42 velocity=57 time=0\n",
      "note_on channel=9 note=35 velocity=108 time=0\n",
      "note_on channel=9 note=35 velocity=0 time=1\n",
      "note_on channel=9 note=42 velocity=0 time=0\n",
      "note_on channel=9 note=42 velocity=73 time=59\n",
      "note_on channel=9 note=42 velocity=0 time=1\n",
      "note_on channel=9 note=69 velocity=50 time=0\n",
      "note_on channel=9 note=69 velocity=0 time=1\n",
      "note_on channel=9 note=46 velocity=73 time=58\n",
      "note_on channel=9 note=35 velocity=84 time=0\n",
      "note_on channel=9 note=35 velocity=0 time=1\n",
      "note_on channel=9 note=46 velocity=0 time=0\n",
      "note_on channel=9 note=54 velocity=45 time=58\n",
      "note_on channel=9 note=69 velocity=39 time=0\n",
      "note_on channel=9 note=69 velocity=0 time=1\n",
      "note_on channel=9 note=54 velocity=0 time=0\n",
      "note_on channel=9 note=37 velocity=120 time=0\n",
      "note_on channel=9 note=39 velocity=70 time=0\n",
      "note_on channel=9 note=42 velocity=57 time=0\n",
      "note_on channel=9 note=42 velocity=0 time=1\n",
      "note_on channel=9 note=39 velocity=0 time=0\n",
      "note_on channel=9 note=37 velocity=0 time=0\n",
      "note_on channel=9 note=69 velocity=50 time=58\n",
      "note_on channel=9 note=69 velocity=0 time=1\n",
      "note_on channel=9 note=42 velocity=73 time=0\n",
      "note_on channel=9 note=42 velocity=0 time=1\n",
      "note_on channel=9 note=42 velocity=73 time=59\n",
      "note_on channel=9 note=35 velocity=110 time=0\n",
      "note_on channel=9 note=35 velocity=0 time=1\n",
      "note_on channel=9 note=42 velocity=0 time=0\n",
      "note_on channel=9 note=42 velocity=57 time=59\n",
      "note_on channel=9 note=42 velocity=0 time=1\n",
      "note_on channel=9 note=69 velocity=39 time=0\n",
      "note_on channel=9 note=69 velocity=0 time=1\n",
      "note_on channel=9 note=39 velocity=68 time=58\n",
      "note_on channel=9 note=37 velocity=120 time=0\n",
      "note_on channel=9 note=42 velocity=57 time=0\n",
      "note_on channel=9 note=42 velocity=0 time=1\n",
      "note_on channel=9 note=37 velocity=0 time=0\n",
      "note_on channel=9 note=39 velocity=0 time=0\n",
      "note_on channel=9 note=69 velocity=39 time=0\n",
      "note_on channel=9 note=69 velocity=0 time=1\n",
      "note_on channel=9 note=35 velocity=108 time=58\n",
      "note_on channel=9 note=42 velocity=73 time=0\n",
      "note_on channel=9 note=42 velocity=0 time=1\n",
      "note_on channel=9 note=35 velocity=0 time=0\n",
      "note_on channel=9 note=69 velocity=50 time=0\n",
      "note_on channel=9 note=69 velocity=0 time=1\n",
      "note_on channel=9 note=69 velocity=39 time=57\n",
      "note_on channel=9 note=69 velocity=0 time=1\n",
      "note_on channel=9 note=42 velocity=57 time=0\n",
      "note_on channel=9 note=42 velocity=0 time=1\n",
      "note_on channel=9 note=46 velocity=73 time=59\n",
      "note_on channel=9 note=46 velocity=0 time=1\n",
      "note_on channel=9 note=39 velocity=70 time=59\n",
      "note_on channel=9 note=42 velocity=57 time=0\n",
      "note_on channel=9 note=37 velocity=120 time=0\n",
      "note_on channel=9 note=37 velocity=0 time=1\n",
      "note_on channel=9 note=42 velocity=0 time=0\n",
      "note_on channel=9 note=39 velocity=0 time=0\n",
      "note_on channel=9 note=69 velocity=39 time=0\n",
      "note_on channel=9 note=69 velocity=0 time=1\n",
      "note_on channel=9 note=54 velocity=45 time=0\n",
      "note_on channel=9 note=54 velocity=0 time=1\n",
      "note_on channel=9 note=69 velocity=39 time=57\n",
      "note_on channel=9 note=42 velocity=57 time=0\n",
      "note_on channel=9 note=42 velocity=0 time=1\n",
      "note_on channel=9 note=69 velocity=0 time=0\n",
      "note_on channel=9 note=35 velocity=110 time=59\n",
      "note_on channel=9 note=42 velocity=73 time=0\n",
      "note_on channel=9 note=69 velocity=50 time=0\n",
      "note_on channel=9 note=69 velocity=0 time=1\n",
      "note_on channel=9 note=42 velocity=0 time=0\n",
      "note_on channel=9 note=35 velocity=0 time=0\n",
      "note_on channel=9 note=69 velocity=39 time=29\n",
      "note_on channel=9 note=42 velocity=57 time=0\n",
      "note_on channel=9 note=42 velocity=0 time=1\n",
      "note_on channel=9 note=69 velocity=0 time=0\n",
      "note_on channel=9 note=42 velocity=62 time=29\n",
      "note_on channel=9 note=69 velocity=42 time=0\n",
      "note_on channel=9 note=69 velocity=0 time=1\n",
      "note_on channel=9 note=42 velocity=0 time=0\n",
      "note_on channel=9 note=42 velocity=57 time=59\n",
      "note_on channel=9 note=69 velocity=39 time=0\n",
      "note_on channel=9 note=39 velocity=68 time=0\n",
      "note_on channel=9 note=37 velocity=120 time=0\n",
      "note_on channel=9 note=37 velocity=0 time=1\n",
      "note_on channel=9 note=42 velocity=0 time=0\n",
      "note_on channel=9 note=69 velocity=0 time=0\n",
      "note_on channel=9 note=39 velocity=0 time=0\n",
      "note_on channel=9 note=35 velocity=108 time=59\n",
      "note_on channel=9 note=42 velocity=57 time=0\n",
      "note_on channel=9 note=42 velocity=0 time=1\n",
      "note_on channel=9 note=35 velocity=0 time=0\n",
      "note_on channel=9 note=69 velocity=39 time=0\n",
      "note_on channel=9 note=69 velocity=0 time=1\n",
      "note_on channel=9 note=42 velocity=73 time=58\n",
      "note_on channel=9 note=42 velocity=0 time=1\n",
      "note_on channel=9 note=69 velocity=50 time=0\n",
      "note_on channel=9 note=69 velocity=0 time=1\n",
      "note_on channel=9 note=46 velocity=73 time=58\n",
      "note_on channel=9 note=35 velocity=110 time=0\n",
      "note_on channel=9 note=35 velocity=0 time=1\n",
      "note_on channel=9 note=46 velocity=0 time=0\n",
      "note_on channel=9 note=54 velocity=45 time=58\n",
      "note_on channel=9 note=69 velocity=39 time=0\n",
      "note_on channel=9 note=69 velocity=0 time=1\n",
      "note_on channel=9 note=54 velocity=0 time=0\n",
      "note_on channel=9 note=42 velocity=57 time=0\n",
      "note_on channel=9 note=39 velocity=70 time=0\n",
      "note_on channel=9 note=37 velocity=120 time=0\n",
      "note_on channel=9 note=37 velocity=0 time=1\n",
      "note_on channel=9 note=39 velocity=0 time=0\n",
      "note_on channel=9 note=42 velocity=0 time=0\n",
      "note_on channel=9 note=42 velocity=73 time=59\n",
      "note_on channel=9 note=42 velocity=0 time=1\n",
      "note_on channel=9 note=69 velocity=50 time=0\n",
      "note_on channel=9 note=69 velocity=0 time=1\n",
      "note_on channel=9 note=69 velocity=50 time=57\n",
      "note_on channel=9 note=69 velocity=0 time=1\n",
      "note_on channel=9 note=42 velocity=73 time=0\n",
      "note_on channel=9 note=35 velocity=110 time=0\n",
      "note_on channel=9 note=35 velocity=0 time=1\n",
      "note_on channel=9 note=42 velocity=0 time=0\n",
      "note_on channel=9 note=69 velocity=39 time=29\n",
      "note_on channel=9 note=42 velocity=57 time=0\n",
      "note_on channel=9 note=42 velocity=0 time=1\n",
      "note_on channel=9 note=69 velocity=0 time=0\n",
      "note_on channel=9 note=69 velocity=42 time=28\n",
      "note_on channel=9 note=69 velocity=0 time=1\n",
      "note_on channel=9 note=42 velocity=62 time=0\n",
      "note_on channel=9 note=42 velocity=0 time=1\n",
      "note_on channel=9 note=69 velocity=39 time=58\n",
      "note_on channel=9 note=69 velocity=0 time=1\n",
      "note_on channel=9 note=37 velocity=120 time=0\n",
      "note_on channel=9 note=39 velocity=68 time=0\n",
      "note_on channel=9 note=42 velocity=57 time=0\n",
      "note_on channel=9 note=42 velocity=0 time=1\n",
      "note_on channel=9 note=39 velocity=0 time=0\n",
      "note_on channel=9 note=37 velocity=0 time=0\n",
      "note_on channel=9 note=69 velocity=39 time=58\n",
      "note_on channel=9 note=69 velocity=0 time=1\n",
      "note_on channel=9 note=42 velocity=57 time=0\n",
      "note_on channel=9 note=35 velocity=108 time=0\n",
      "note_on channel=9 note=35 velocity=0 time=1\n",
      "note_on channel=9 note=42 velocity=0 time=0\n",
      "note_on channel=9 note=69 velocity=50 time=59\n",
      "note_on channel=9 note=42 velocity=73 time=0\n",
      "note_on channel=9 note=42 velocity=0 time=1\n",
      "note_on channel=9 note=69 velocity=0 time=0\n",
      "note_on channel=9 note=46 velocity=73 time=59\n",
      "note_on channel=9 note=46 velocity=0 time=1\n",
      "note_on channel=9 note=42 velocity=57 time=59\n",
      "note_on channel=9 note=39 velocity=70 time=0\n",
      "note_on channel=9 note=37 velocity=120 time=0\n",
      "note_on channel=9 note=69 velocity=39 time=0\n",
      "note_on channel=9 note=69 velocity=0 time=1\n",
      "note_on channel=9 note=42 velocity=0 time=0\n",
      "note_on channel=9 note=39 velocity=0 time=0\n",
      "note_on channel=9 note=37 velocity=0 time=0\n",
      "note_on channel=9 note=54 velocity=45 time=1\n",
      "note_on channel=9 note=54 velocity=0 time=1\n",
      "note_on channel=9 note=69 velocity=50 time=57\n",
      "note_on channel=9 note=42 velocity=73 time=0\n",
      "note_on channel=9 note=42 velocity=0 time=1\n",
      "note_on channel=9 note=69 velocity=0 time=0\n",
      "note_on channel=9 note=35 velocity=110 time=59\n",
      "note_on channel=9 note=57 velocity=57 time=0\n",
      "note_on channel=9 note=42 velocity=73 time=0\n",
      "note_on channel=9 note=42 velocity=0 time=1\n",
      "note_on channel=9 note=57 velocity=0 time=0\n",
      "note_on channel=9 note=35 velocity=0 time=0\n",
      "note_on channel=9 note=69 velocity=50 time=0\n",
      "note_on channel=9 note=69 velocity=0 time=1\n",
      "note_on channel=9 note=42 velocity=57 time=118\n",
      "note_on channel=9 note=69 velocity=39 time=0\n",
      "note_on channel=9 note=69 velocity=0 time=1\n",
      "note_on channel=9 note=42 velocity=0 time=0\n",
      "note_on channel=9 note=49 velocity=59 time=59\n",
      "note_on channel=9 note=35 velocity=108 time=0\n",
      "note_on channel=9 note=35 velocity=0 time=1\n",
      "note_on channel=9 note=49 velocity=0 time=0\n",
      "note_on channel=9 note=69 velocity=50 time=58\n",
      "note_on channel=9 note=69 velocity=0 time=1\n",
      "note_on channel=9 note=42 velocity=73 time=0\n",
      "note_on channel=9 note=42 velocity=0 time=1\n",
      "note_on channel=9 note=35 velocity=84 time=59\n",
      "note_on channel=9 note=46 velocity=73 time=0\n",
      "note_on channel=9 note=46 velocity=0 time=1\n",
      "note_on channel=9 note=35 velocity=0 time=0\n",
      "note_on channel=9 note=39 velocity=70 time=59\n",
      "note_on channel=9 note=37 velocity=120 time=0\n",
      "note_on channel=9 note=69 velocity=39 time=0\n",
      "note_on channel=9 note=42 velocity=57 time=0\n",
      "note_on channel=9 note=42 velocity=0 time=1\n",
      "note_on channel=9 note=39 velocity=0 time=0\n",
      "note_on channel=9 note=37 velocity=0 time=0\n",
      "note_on channel=9 note=69 velocity=0 time=0\n",
      "note_on channel=9 note=54 velocity=45 time=0\n",
      "note_on channel=9 note=54 velocity=0 time=1\n",
      "note_on channel=9 note=35 velocity=110 time=118\n",
      "note_on channel=9 note=49 velocity=69 time=0\n",
      "note_on channel=9 note=49 velocity=0 time=1\n",
      "note_on channel=9 note=35 velocity=0 time=0\n",
      "note_on channel=9 note=54 velocity=17 time=0\n",
      "note_on channel=9 note=54 velocity=0 time=1\n",
      "note_on channel=9 note=54 velocity=15 time=28\n",
      "note_on channel=9 note=54 velocity=0 time=1\n",
      "note_on channel=9 note=54 velocity=19 time=28\n",
      "note_on channel=9 note=54 velocity=0 time=1\n",
      "note_on channel=9 note=69 velocity=39 time=0\n",
      "note_on channel=9 note=42 velocity=57 time=0\n",
      "note_on channel=9 note=42 velocity=0 time=1\n",
      "note_on channel=9 note=69 velocity=0 time=0\n",
      "note_on channel=9 note=54 velocity=13 time=31\n",
      "note_on channel=9 note=54 velocity=0 time=1\n",
      "note_on channel=9 note=54 velocity=45 time=26\n",
      "note_on channel=9 note=54 velocity=0 time=1\n",
      "note_on channel=9 note=39 velocity=68 time=0\n",
      "note_on channel=9 note=69 velocity=39 time=0\n",
      "note_on channel=9 note=42 velocity=57 time=0\n",
      "note_on channel=9 note=37 velocity=120 time=0\n",
      "note_on channel=9 note=37 velocity=0 time=1\n",
      "note_on channel=9 note=39 velocity=0 time=0\n",
      "note_on channel=9 note=69 velocity=0 time=0\n",
      "note_on channel=9 note=42 velocity=0 time=0\n",
      "note_on channel=9 note=54 velocity=15 time=31\n",
      "note_on channel=9 note=54 velocity=0 time=1\n",
      "note_on channel=9 note=69 velocity=50 time=26\n",
      "note_on channel=9 note=69 velocity=0 time=1\n",
      "note_on channel=9 note=35 velocity=108 time=0\n",
      "note_on channel=9 note=42 velocity=73 time=0\n",
      "note_on channel=9 note=42 velocity=0 time=1\n",
      "note_on channel=9 note=35 velocity=0 time=0\n",
      "note_on channel=9 note=54 velocity=19 time=1\n",
      "note_on channel=9 note=54 velocity=0 time=1\n",
      "note_on channel=9 note=54 velocity=13 time=28\n",
      "note_on channel=9 note=54 velocity=0 time=1\n",
      "note_on channel=9 note=42 velocity=57 time=28\n",
      "note_on channel=9 note=42 velocity=0 time=1\n",
      "note_on channel=9 note=69 velocity=39 time=0\n",
      "note_on channel=9 note=54 velocity=17 time=0\n",
      "note_on channel=9 note=54 velocity=0 time=1\n",
      "note_on channel=9 note=69 velocity=0 time=0\n",
      "note_on channel=9 note=54 velocity=15 time=29\n",
      "note_on channel=9 note=54 velocity=0 time=1\n",
      "note_on channel=9 note=46 velocity=73 time=28\n",
      "note_on channel=9 note=46 velocity=0 time=1\n",
      "note_on channel=9 note=54 velocity=19 time=0\n",
      "note_on channel=9 note=54 velocity=0 time=1\n",
      "note_on channel=9 note=54 velocity=13 time=29\n",
      "note_on channel=9 note=54 velocity=0 time=1\n",
      "note_on channel=9 note=39 velocity=70 time=28\n",
      "note_on channel=9 note=37 velocity=120 time=0\n",
      "note_on channel=9 note=69 velocity=39 time=0\n",
      "note_on channel=9 note=42 velocity=57 time=0\n",
      "note_on channel=9 note=42 velocity=0 time=1\n",
      "note_on channel=9 note=39 velocity=0 time=0\n",
      "note_on channel=9 note=37 velocity=0 time=0\n",
      "note_on channel=9 note=69 velocity=0 time=0\n",
      "note_on channel=9 note=54 velocity=45 time=0\n",
      "note_on channel=9 note=54 velocity=0 time=1\n",
      "note_on channel=9 note=54 velocity=15 time=29\n",
      "note_on channel=9 note=54 velocity=0 time=1\n",
      "note_on channel=9 note=54 velocity=19 time=28\n",
      "note_on channel=9 note=69 velocity=39 time=0\n",
      "note_on channel=9 note=42 velocity=57 time=0\n",
      "note_on channel=9 note=42 velocity=0 time=1\n",
      "note_on channel=9 note=69 velocity=0 time=0\n",
      "note_on channel=9 note=54 velocity=0 time=0\n",
      "note_on channel=9 note=54 velocity=13 time=29\n",
      "note_on channel=9 note=54 velocity=0 time=1\n",
      "note_on channel=9 note=69 velocity=50 time=29\n",
      "note_on channel=9 note=35 velocity=110 time=0\n",
      "note_on channel=9 note=42 velocity=73 time=0\n",
      "note_on channel=9 note=42 velocity=0 time=1\n",
      "note_on channel=9 note=35 velocity=0 time=0\n",
      "note_on channel=9 note=69 velocity=0 time=0\n",
      "note_on channel=9 note=54 velocity=17 time=0\n",
      "note_on channel=9 note=54 velocity=0 time=1\n",
      "note_on channel=9 note=42 velocity=57 time=28\n",
      "note_on channel=9 note=42 velocity=0 time=1\n",
      "note_on channel=9 note=69 velocity=39 time=0\n",
      "note_on channel=9 note=69 velocity=0 time=1\n",
      "note_on channel=9 note=54 velocity=15 time=0\n",
      "note_on channel=9 note=54 velocity=0 time=1\n",
      "note_on channel=9 note=69 velocity=42 time=26\n",
      "note_on channel=9 note=69 velocity=0 time=1\n",
      "note_on channel=9 note=54 velocity=19 time=0\n",
      "note_on channel=9 note=42 velocity=62 time=0\n",
      "note_on channel=9 note=42 velocity=0 time=1\n",
      "note_on channel=9 note=54 velocity=0 time=0\n",
      "note_on channel=9 note=54 velocity=13 time=30\n",
      "note_on channel=9 note=54 velocity=0 time=1\n",
      "note_on channel=9 note=39 velocity=68 time=28\n",
      "note_on channel=9 note=37 velocity=120 time=0\n",
      "note_on channel=9 note=42 velocity=57 time=0\n",
      "note_on channel=9 note=42 velocity=0 time=1\n",
      "note_on channel=9 note=37 velocity=0 time=0\n",
      "note_on channel=9 note=39 velocity=0 time=0\n",
      "note_on channel=9 note=69 velocity=39 time=0\n",
      "note_on channel=9 note=54 velocity=45 time=0\n",
      "note_on channel=9 note=54 velocity=0 time=1\n",
      "note_on channel=9 note=69 velocity=0 time=0\n",
      "note_on channel=9 note=54 velocity=15 time=29\n",
      "note_on channel=9 note=54 velocity=0 time=1\n",
      "note_on channel=9 note=54 velocity=19 time=27\n",
      "note_on channel=9 note=54 velocity=0 time=1\n",
      "note_on channel=9 note=69 velocity=39 time=0\n",
      "note_on channel=9 note=35 velocity=108 time=0\n",
      "note_on channel=9 note=42 velocity=57 time=0\n",
      "note_on channel=9 note=42 velocity=0 time=1\n",
      "note_on channel=9 note=35 velocity=0 time=0\n",
      "note_on channel=9 note=69 velocity=0 time=0\n",
      "note_on channel=9 note=54 velocity=13 time=29\n",
      "note_on channel=9 note=54 velocity=0 time=1\n",
      "note_on channel=9 note=54 velocity=17 time=28\n",
      "note_on channel=9 note=69 velocity=50 time=0\n",
      "note_on channel=9 note=69 velocity=0 time=1\n",
      "note_on channel=9 note=54 velocity=0 time=0\n",
      "note_on channel=9 note=42 velocity=73 time=0\n",
      "note_on channel=9 note=42 velocity=0 time=1\n",
      "note_on channel=9 note=54 velocity=15 time=30\n",
      "note_on channel=9 note=54 velocity=0 time=1\n",
      "note_on channel=9 note=46 velocity=73 time=28\n",
      "note_on channel=9 note=35 velocity=110 time=0\n",
      "note_on channel=9 note=35 velocity=0 time=1\n",
      "note_on channel=9 note=46 velocity=0 time=0\n",
      "note_on channel=9 note=54 velocity=19 time=0\n",
      "note_on channel=9 note=54 velocity=0 time=1\n",
      "note_on channel=9 note=54 velocity=13 time=27\n",
      "note_on channel=9 note=54 velocity=0 time=1\n",
      "note_on channel=9 note=69 velocity=39 time=29\n",
      "note_on channel=9 note=69 velocity=0 time=1\n",
      "note_on channel=9 note=54 velocity=45 time=0\n",
      "note_on channel=9 note=39 velocity=70 time=0\n",
      "note_on channel=9 note=42 velocity=57 time=0\n",
      "note_on channel=9 note=37 velocity=120 time=0\n",
      "note_on channel=9 note=37 velocity=0 time=1\n",
      "note_on channel=9 note=54 velocity=0 time=0\n",
      "note_on channel=9 note=39 velocity=0 time=0\n",
      "note_on channel=9 note=42 velocity=0 time=0\n",
      "note_on channel=9 note=54 velocity=15 time=28\n",
      "note_on channel=9 note=54 velocity=0 time=1\n",
      "note_on channel=9 note=42 velocity=73 time=30\n",
      "note_on channel=9 note=69 velocity=50 time=0\n",
      "note_on channel=9 note=54 velocity=19 time=0\n",
      "note_on channel=9 note=54 velocity=0 time=1\n",
      "note_on channel=9 note=69 velocity=0 time=0\n",
      "note_on channel=9 note=42 velocity=0 time=0\n",
      "note_on channel=9 note=54 velocity=13 time=31\n",
      "note_on channel=9 note=54 velocity=0 time=1\n",
      "note_on channel=9 note=54 velocity=17 time=26\n",
      "note_on channel=9 note=54 velocity=0 time=1\n",
      "note_on channel=9 note=69 velocity=50 time=0\n",
      "note_on channel=9 note=49 velocity=54 time=0\n",
      "note_on channel=9 note=42 velocity=73 time=0\n",
      "note_on channel=9 note=35 velocity=110 time=0\n",
      "note_on channel=9 note=35 velocity=0 time=1\n",
      "note_on channel=9 note=69 velocity=0 time=0\n",
      "note_on channel=9 note=49 velocity=0 time=0\n",
      "note_on channel=9 note=42 velocity=0 time=0\n",
      "note_on channel=9 note=69 velocity=39 time=28\n",
      "note_on channel=9 note=69 velocity=0 time=1\n",
      "note_on channel=9 note=42 velocity=57 time=0\n",
      "note_on channel=9 note=42 velocity=0 time=1\n",
      "note_on channel=9 note=54 velocity=15 time=1\n",
      "note_on channel=9 note=54 velocity=0 time=1\n",
      "note_on channel=9 note=54 velocity=19 time=27\n",
      "note_on channel=9 note=42 velocity=62 time=0\n",
      "note_on channel=9 note=69 velocity=42 time=0\n",
      "note_on channel=9 note=69 velocity=0 time=1\n",
      "note_on channel=9 note=42 velocity=0 time=0\n",
      "note_on channel=9 note=54 velocity=0 time=0\n",
      "note_on channel=9 note=54 velocity=13 time=30\n",
      "note_on channel=9 note=54 velocity=0 time=1\n",
      "note_on channel=9 note=42 velocity=57 time=28\n",
      "note_on channel=9 note=39 velocity=68 time=0\n",
      "note_on channel=9 note=37 velocity=120 time=0\n",
      "note_on channel=9 note=37 velocity=0 time=1\n",
      "note_on channel=9 note=39 velocity=0 time=0\n",
      "note_on channel=9 note=42 velocity=0 time=0\n",
      "note_on channel=9 note=69 velocity=39 time=0\n",
      "note_on channel=9 note=54 velocity=45 time=0\n",
      "note_on channel=9 note=54 velocity=0 time=1\n",
      "note_on channel=9 note=69 velocity=0 time=0\n",
      "note_on channel=9 note=54 velocity=15 time=28\n",
      "note_on channel=9 note=54 velocity=0 time=1\n",
      "note_on channel=9 note=69 velocity=39 time=28\n",
      "note_on channel=9 note=69 velocity=0 time=1\n",
      "note_on channel=9 note=35 velocity=108 time=0\n",
      "note_on channel=9 note=42 velocity=57 time=0\n",
      "note_on channel=9 note=42 velocity=0 time=1\n",
      "note_on channel=9 note=35 velocity=0 time=0\n",
      "note_on channel=9 note=54 velocity=19 time=0\n",
      "note_on channel=9 note=54 velocity=0 time=1\n",
      "note_on channel=9 note=54 velocity=13 time=28\n",
      "note_on channel=9 note=54 velocity=0 time=1\n",
      "note_on channel=9 note=69 velocity=50 time=28\n",
      "note_on channel=9 note=69 velocity=0 time=1\n",
      "note_on channel=9 note=42 velocity=73 time=0\n",
      "note_on channel=9 note=42 velocity=0 time=1\n",
      "note_on channel=9 note=54 velocity=17 time=0\n",
      "note_on channel=9 note=54 velocity=0 time=1\n",
      "note_on channel=9 note=54 velocity=15 time=27\n",
      "note_on channel=9 note=54 velocity=0 time=1\n",
      "note_on channel=9 note=46 velocity=73 time=30\n",
      "note_on channel=9 note=46 velocity=0 time=1\n",
      "note_on channel=9 note=54 velocity=19 time=0\n",
      "note_on channel=9 note=54 velocity=0 time=1\n",
      "note_on channel=9 note=54 velocity=13 time=30\n",
      "note_on channel=9 note=54 velocity=0 time=1\n",
      "note_on channel=9 note=54 velocity=45 time=27\n",
      "note_on channel=9 note=39 velocity=70 time=0\n",
      "note_on channel=9 note=42 velocity=57 time=0\n",
      "note_on channel=9 note=37 velocity=120 time=0\n",
      "note_on channel=9 note=69 velocity=39 time=0\n",
      "note_on channel=9 note=69 velocity=0 time=1\n",
      "note_on channel=9 note=42 velocity=0 time=0\n",
      "note_on channel=9 note=54 velocity=0 time=0\n",
      "note_on channel=9 note=39 velocity=0 time=0\n",
      "note_on channel=9 note=37 velocity=0 time=0\n",
      "note_on channel=9 note=54 velocity=15 time=30\n",
      "note_on channel=9 note=54 velocity=0 time=1\n",
      "note_on channel=9 note=42 velocity=73 time=28\n",
      "note_on channel=9 note=42 velocity=0 time=1\n",
      "note_on channel=9 note=69 velocity=50 time=0\n",
      "note_on channel=9 note=54 velocity=19 time=0\n",
      "note_on channel=9 note=54 velocity=0 time=1\n",
      "note_on channel=9 note=69 velocity=0 time=0\n",
      "note_on channel=9 note=54 velocity=13 time=30\n",
      "note_on channel=9 note=54 velocity=0 time=1\n",
      "note_on channel=9 note=69 velocity=50 time=26\n",
      "note_on channel=9 note=69 velocity=0 time=1\n",
      "note_on channel=9 note=42 velocity=73 time=0\n",
      "note_on channel=9 note=54 velocity=17 time=0\n",
      "note_on channel=9 note=35 velocity=110 time=0\n",
      "note_on channel=9 note=35 velocity=0 time=1\n",
      "note_on channel=9 note=54 velocity=0 time=0\n",
      "note_on channel=9 note=42 velocity=0 time=0\n",
      "note_on channel=9 note=69 velocity=39 time=28\n",
      "note_on channel=9 note=69 velocity=0 time=1\n",
      "note_on channel=9 note=42 velocity=57 time=0\n",
      "note_on channel=9 note=54 velocity=15 time=0\n",
      "note_on channel=9 note=54 velocity=0 time=1\n",
      "note_on channel=9 note=42 velocity=0 time=0\n",
      "note_on channel=9 note=42 velocity=62 time=29\n",
      "note_on channel=9 note=54 velocity=19 time=0\n",
      "note_on channel=9 note=54 velocity=0 time=1\n",
      "note_on channel=9 note=42 velocity=0 time=0\n",
      "note_on channel=9 note=69 velocity=42 time=0\n",
      "note_on channel=9 note=69 velocity=0 time=1\n",
      "note_on channel=9 note=54 velocity=13 time=29\n",
      "note_on channel=9 note=54 velocity=0 time=1\n",
      "note_on channel=9 note=69 velocity=39 time=28\n",
      "note_on channel=9 note=37 velocity=120 time=0\n",
      "note_on channel=9 note=42 velocity=57 time=0\n",
      "note_on channel=9 note=39 velocity=68 time=0\n",
      "note_on channel=9 note=39 velocity=0 time=1\n",
      "note_on channel=9 note=69 velocity=0 time=0\n",
      "note_on channel=9 note=37 velocity=0 time=0\n",
      "note_on channel=9 note=42 velocity=0 time=0\n",
      "note_on channel=9 note=54 velocity=45 time=0\n",
      "note_on channel=9 note=54 velocity=0 time=1\n",
      "note_on channel=9 note=54 velocity=15 time=27\n",
      "note_on channel=9 note=54 velocity=0 time=1\n",
      "note_on channel=9 note=42 velocity=57 time=30\n",
      "note_on channel=9 note=35 velocity=108 time=0\n",
      "note_on channel=9 note=69 velocity=39 time=0\n",
      "note_on channel=9 note=69 velocity=0 time=1\n",
      "note_on channel=9 note=35 velocity=0 time=0\n",
      "note_on channel=9 note=42 velocity=0 time=0\n",
      "note_on channel=9 note=54 velocity=19 time=1\n",
      "note_on channel=9 note=54 velocity=0 time=1\n",
      "note_on channel=9 note=54 velocity=13 time=29\n",
      "note_on channel=9 note=54 velocity=0 time=1\n",
      "note_on channel=9 note=42 velocity=73 time=27\n",
      "note_on channel=9 note=69 velocity=50 time=0\n",
      "note_on channel=9 note=69 velocity=0 time=1\n",
      "note_on channel=9 note=42 velocity=0 time=0\n",
      "note_on channel=9 note=54 velocity=17 time=0\n",
      "note_on channel=9 note=54 velocity=0 time=1\n",
      "note_on channel=9 note=54 velocity=15 time=30\n",
      "note_on channel=9 note=54 velocity=0 time=1\n",
      "note_on channel=9 note=46 velocity=73 time=27\n",
      "note_on channel=9 note=35 velocity=84 time=0\n",
      "note_on channel=9 note=35 velocity=0 time=1\n",
      "note_on channel=9 note=46 velocity=0 time=0\n",
      "note_on channel=9 note=54 velocity=19 time=1\n",
      "note_on channel=9 note=54 velocity=0 time=1\n",
      "note_on channel=9 note=54 velocity=13 time=29\n",
      "note_on channel=9 note=54 velocity=0 time=1\n",
      "note_on channel=9 note=54 velocity=45 time=26\n",
      "note_on channel=9 note=54 velocity=0 time=1\n",
      "note_on channel=9 note=39 velocity=70 time=0\n",
      "note_on channel=9 note=42 velocity=57 time=0\n",
      "note_on channel=9 note=37 velocity=120 time=0\n",
      "note_on channel=9 note=37 velocity=0 time=1\n",
      "note_on channel=9 note=42 velocity=0 time=0\n",
      "note_on channel=9 note=39 velocity=0 time=0\n",
      "note_on channel=9 note=69 velocity=39 time=0\n",
      "note_on channel=9 note=69 velocity=0 time=1\n",
      "note_on channel=9 note=54 velocity=15 time=30\n",
      "note_on channel=9 note=54 velocity=0 time=1\n",
      "note_on channel=9 note=54 velocity=19 time=26\n",
      "note_on channel=9 note=54 velocity=0 time=1\n",
      "note_on channel=9 note=42 velocity=73 time=0\n",
      "note_on channel=9 note=42 velocity=0 time=1\n",
      "note_on channel=9 note=69 velocity=50 time=0\n",
      "note_on channel=9 note=69 velocity=0 time=1\n",
      "note_on channel=9 note=54 velocity=13 time=30\n",
      "note_on channel=9 note=54 velocity=0 time=1\n",
      "note_on channel=9 note=49 velocity=54 time=27\n",
      "note_on channel=9 note=35 velocity=110 time=0\n",
      "note_on channel=9 note=35 velocity=0 time=1\n",
      "note_on channel=9 note=49 velocity=0 time=0\n",
      "note_on channel=9 note=54 velocity=17 time=1\n",
      "note_on channel=9 note=54 velocity=0 time=1\n",
      "note_on channel=9 note=54 velocity=15 time=28\n",
      "note_on channel=9 note=54 velocity=0 time=1\n",
      "note_on channel=9 note=69 velocity=39 time=27\n",
      "note_on channel=9 note=69 velocity=0 time=1\n",
      "note_on channel=9 note=54 velocity=19 time=0\n",
      "note_on channel=9 note=42 velocity=57 time=0\n",
      "note_on channel=9 note=42 velocity=0 time=1\n",
      "note_on channel=9 note=54 velocity=0 time=0\n",
      "note_on channel=9 note=54 velocity=13 time=31\n",
      "note_on channel=9 note=54 velocity=0 time=1\n",
      "note_on channel=9 note=54 velocity=45 time=26\n",
      "note_on channel=9 note=69 velocity=39 time=0\n",
      "note_on channel=9 note=69 velocity=0 time=1\n",
      "note_on channel=9 note=54 velocity=0 time=0\n",
      "note_on channel=9 note=39 velocity=68 time=0\n",
      "note_on channel=9 note=42 velocity=57 time=0\n",
      "note_on channel=9 note=37 velocity=120 time=0\n",
      "note_on channel=9 note=37 velocity=0 time=1\n",
      "note_on channel=9 note=42 velocity=0 time=0\n",
      "note_on channel=9 note=39 velocity=0 time=0\n",
      "note_on channel=9 note=54 velocity=15 time=28\n",
      "note_on channel=9 note=54 velocity=0 time=1\n",
      "note_on channel=9 note=54 velocity=19 time=30\n",
      "note_on channel=9 note=42 velocity=73 time=0\n",
      "note_on channel=9 note=35 velocity=108 time=0\n",
      "note_on channel=9 note=35 velocity=0 time=1\n",
      "note_on channel=9 note=42 velocity=0 time=0\n",
      "note_on channel=9 note=54 velocity=0 time=0\n",
      "note_on channel=9 note=69 velocity=50 time=0\n",
      "note_on channel=9 note=69 velocity=0 time=1\n",
      "note_on channel=9 note=54 velocity=13 time=28\n",
      "note_on channel=9 note=54 velocity=0 time=1\n",
      "note_on channel=9 note=42 velocity=57 time=29\n",
      "note_on channel=9 note=42 velocity=0 time=1\n",
      "note_on channel=9 note=69 velocity=39 time=0\n",
      "note_on channel=9 note=69 velocity=0 time=1\n",
      "note_on channel=9 note=54 velocity=17 time=0\n",
      "note_on channel=9 note=54 velocity=0 time=1\n",
      "note_on channel=9 note=54 velocity=15 time=28\n",
      "note_on channel=9 note=54 velocity=0 time=1\n",
      "note_on channel=9 note=46 velocity=73 time=28\n",
      "note_on channel=9 note=46 velocity=0 time=1\n",
      "note_on channel=9 note=54 velocity=19 time=0\n",
      "note_on channel=9 note=54 velocity=0 time=1\n",
      "note_on channel=9 note=54 velocity=13 time=29\n",
      "note_on channel=9 note=54 velocity=0 time=1\n",
      "note_on channel=9 note=54 velocity=45 time=27\n",
      "note_on channel=9 note=69 velocity=39 time=0\n",
      "note_on channel=9 note=69 velocity=0 time=1\n",
      "note_on channel=9 note=54 velocity=0 time=0\n",
      "note_on channel=9 note=39 velocity=70 time=0\n",
      "note_on channel=9 note=37 velocity=120 time=0\n",
      "note_on channel=9 note=42 velocity=57 time=0\n",
      "note_on channel=9 note=42 velocity=0 time=1\n",
      "note_on channel=9 note=37 velocity=0 time=0\n",
      "note_on channel=9 note=39 velocity=0 time=0\n",
      "note_on channel=9 note=54 velocity=15 time=29\n",
      "note_on channel=9 note=54 velocity=0 time=1\n",
      "note_on channel=9 note=42 velocity=57 time=29\n",
      "note_on channel=9 note=42 velocity=0 time=1\n",
      "note_on channel=9 note=69 velocity=39 time=0\n",
      "note_on channel=9 note=69 velocity=0 time=1\n",
      "note_on channel=9 note=54 velocity=19 time=0\n",
      "note_on channel=9 note=54 velocity=0 time=1\n",
      "note_on channel=9 note=54 velocity=13 time=26\n",
      "note_on channel=9 note=54 velocity=0 time=1\n",
      "note_on channel=9 note=42 velocity=73 time=30\n",
      "note_on channel=9 note=69 velocity=50 time=0\n",
      "note_on channel=9 note=35 velocity=110 time=0\n",
      "note_on channel=9 note=35 velocity=0 time=1\n",
      "note_on channel=9 note=69 velocity=0 time=0\n",
      "note_on channel=9 note=42 velocity=0 time=0\n",
      "note_on channel=9 note=54 velocity=17 time=1\n",
      "note_on channel=9 note=54 velocity=0 time=1\n",
      "note_on channel=9 note=54 velocity=15 time=26\n",
      "note_on channel=9 note=54 velocity=0 time=1\n",
      "note_on channel=9 note=42 velocity=57 time=0\n",
      "note_on channel=9 note=69 velocity=39 time=0\n",
      "note_on channel=9 note=69 velocity=0 time=1\n",
      "note_on channel=9 note=42 velocity=0 time=0\n",
      "note_on channel=9 note=42 velocity=62 time=29\n",
      "note_on channel=9 note=69 velocity=42 time=0\n",
      "note_on channel=9 note=69 velocity=0 time=1\n",
      "note_on channel=9 note=42 velocity=0 time=0\n",
      "note_on channel=9 note=54 velocity=19 time=1\n",
      "note_on channel=9 note=54 velocity=0 time=1\n",
      "note_on channel=9 note=54 velocity=13 time=26\n",
      "note_on channel=9 note=54 velocity=0 time=1\n",
      "note_on channel=9 note=69 velocity=39 time=30\n",
      "note_on channel=9 note=54 velocity=45 time=0\n",
      "note_on channel=9 note=37 velocity=120 time=0\n",
      "note_on channel=9 note=39 velocity=68 time=0\n",
      "note_on channel=9 note=42 velocity=57 time=0\n",
      "note_on channel=9 note=42 velocity=0 time=1\n",
      "note_on channel=9 note=37 velocity=0 time=0\n",
      "note_on channel=9 note=69 velocity=0 time=0\n",
      "note_on channel=9 note=54 velocity=0 time=0\n",
      "note_on channel=9 note=39 velocity=0 time=0\n",
      "note_on channel=9 note=54 velocity=15 time=29\n",
      "note_on channel=9 note=54 velocity=0 time=1\n",
      "note_on channel=9 note=54 velocity=19 time=28\n",
      "note_on channel=9 note=54 velocity=0 time=1\n",
      "note_on channel=9 note=69 velocity=39 time=0\n",
      "note_on channel=9 note=42 velocity=57 time=0\n",
      "note_on channel=9 note=35 velocity=108 time=0\n",
      "note_on channel=9 note=35 velocity=0 time=1\n",
      "note_on channel=9 note=42 velocity=0 time=0\n",
      "note_on channel=9 note=69 velocity=0 time=0\n",
      "note_on channel=9 note=54 velocity=13 time=30\n",
      "note_on channel=9 note=54 velocity=0 time=1\n",
      "note_on channel=9 note=69 velocity=50 time=27\n",
      "note_on channel=9 note=69 velocity=0 time=1\n",
      "note_on channel=9 note=42 velocity=73 time=0\n",
      "note_on channel=9 note=42 velocity=0 time=1\n",
      "note_on channel=9 note=54 velocity=17 time=1\n",
      "note_on channel=9 note=54 velocity=0 time=1\n",
      "note_on channel=9 note=54 velocity=15 time=26\n",
      "note_on channel=9 note=54 velocity=0 time=1\n",
      "note_on channel=9 note=46 velocity=73 time=30\n",
      "note_on channel=9 note=54 velocity=19 time=0\n",
      "note_on channel=9 note=35 velocity=110 time=0\n",
      "note_on channel=9 note=35 velocity=0 time=1\n",
      "note_on channel=9 note=54 velocity=0 time=0\n",
      "note_on channel=9 note=46 velocity=0 time=0\n",
      "note_on channel=9 note=54 velocity=13 time=28\n",
      "note_on channel=9 note=54 velocity=0 time=1\n",
      "note_on channel=9 note=69 velocity=39 time=29\n",
      "note_on channel=9 note=69 velocity=0 time=1\n",
      "note_on channel=9 note=39 velocity=70 time=0\n",
      "note_on channel=9 note=42 velocity=57 time=0\n",
      "note_on channel=9 note=37 velocity=120 time=0\n",
      "note_on channel=9 note=37 velocity=0 time=1\n",
      "note_on channel=9 note=42 velocity=0 time=0\n",
      "note_on channel=9 note=39 velocity=0 time=0\n",
      "note_on channel=9 note=54 velocity=45 time=0\n",
      "note_on channel=9 note=54 velocity=0 time=1\n",
      "note_on channel=9 note=54 velocity=15 time=28\n",
      "note_on channel=9 note=54 velocity=0 time=1\n",
      "note_on channel=9 note=42 velocity=73 time=29\n",
      "note_on channel=9 note=42 velocity=0 time=1\n",
      "note_on channel=9 note=69 velocity=50 time=0\n",
      "note_on channel=9 note=54 velocity=19 time=0\n",
      "note_on channel=9 note=54 velocity=0 time=1\n",
      "note_on channel=9 note=69 velocity=0 time=0\n",
      "note_on channel=9 note=54 velocity=13 time=27\n",
      "note_on channel=9 note=54 velocity=0 time=1\n",
      "note_on channel=9 note=54 velocity=17 time=29\n",
      "note_on channel=9 note=54 velocity=0 time=1\n",
      "note_on channel=9 note=35 velocity=110 time=0\n",
      "note_on channel=9 note=49 velocity=52 time=0\n",
      "note_on channel=9 note=49 velocity=0 time=1\n",
      "note_on channel=9 note=35 velocity=0 time=0\n",
      "note_on channel=9 note=42 velocity=57 time=29\n",
      "note_on channel=9 note=42 velocity=0 time=1\n",
      "note_on channel=9 note=69 velocity=39 time=0\n",
      "note_on channel=9 note=54 velocity=15 time=0\n",
      "note_on channel=9 note=54 velocity=0 time=1\n",
      "note_on channel=9 note=69 velocity=0 time=0\n",
      "note_on channel=9 note=42 velocity=62 time=28\n",
      "note_on channel=9 note=42 velocity=0 time=1\n",
      "note_on channel=9 note=69 velocity=42 time=0\n",
      "note_on channel=9 note=54 velocity=19 time=0\n",
      "note_on channel=9 note=54 velocity=0 time=1\n",
      "note_on channel=9 note=69 velocity=0 time=0\n",
      "note_on channel=9 note=54 velocity=13 time=29\n",
      "note_on channel=9 note=54 velocity=0 time=1\n",
      "note_on channel=9 note=54 velocity=45 time=27\n",
      "note_on channel=9 note=69 velocity=39 time=0\n",
      "note_on channel=9 note=69 velocity=0 time=1\n",
      "note_on channel=9 note=54 velocity=0 time=0\n",
      "note_on channel=9 note=42 velocity=57 time=0\n",
      "note_on channel=9 note=37 velocity=120 time=0\n",
      "note_on channel=9 note=39 velocity=68 time=0\n",
      "note_on channel=9 note=39 velocity=0 time=1\n",
      "note_on channel=9 note=37 velocity=0 time=0\n",
      "note_on channel=9 note=42 velocity=0 time=0\n",
      "note_on channel=9 note=54 velocity=15 time=30\n",
      "note_on channel=9 note=54 velocity=0 time=1\n",
      "note_on channel=9 note=42 velocity=57 time=28\n",
      "note_on channel=9 note=35 velocity=108 time=0\n",
      "note_on channel=9 note=35 velocity=0 time=1\n",
      "note_on channel=9 note=42 velocity=0 time=0\n",
      "note_on channel=9 note=69 velocity=39 time=0\n",
      "note_on channel=9 note=69 velocity=0 time=1\n",
      "note_on channel=9 note=54 velocity=19 time=0\n",
      "note_on channel=9 note=54 velocity=0 time=1\n",
      "note_on channel=9 note=54 velocity=13 time=27\n",
      "note_on channel=9 note=54 velocity=0 time=1\n",
      "note_on channel=9 note=42 velocity=73 time=29\n",
      "note_on channel=9 note=42 velocity=0 time=1\n",
      "note_on channel=9 note=69 velocity=50 time=0\n",
      "note_on channel=9 note=54 velocity=17 time=0\n",
      "note_on channel=9 note=54 velocity=0 time=1\n",
      "note_on channel=9 note=69 velocity=0 time=0\n",
      "note_on channel=9 note=54 velocity=15 time=30\n",
      "note_on channel=9 note=54 velocity=0 time=1\n",
      "note_on channel=9 note=46 velocity=73 time=27\n",
      "note_on channel=9 note=46 velocity=0 time=1\n",
      "note_on channel=9 note=54 velocity=19 time=1\n",
      "note_on channel=9 note=54 velocity=0 time=1\n",
      "note_on channel=9 note=54 velocity=13 time=26\n",
      "note_on channel=9 note=54 velocity=0 time=1\n",
      "note_on channel=9 note=42 velocity=57 time=30\n",
      "note_on channel=9 note=39 velocity=70 time=0\n",
      "note_on channel=9 note=37 velocity=120 time=0\n",
      "note_on channel=9 note=37 velocity=0 time=1\n",
      "note_on channel=9 note=39 velocity=0 time=0\n",
      "note_on channel=9 note=42 velocity=0 time=0\n",
      "note_on channel=9 note=69 velocity=39 time=0\n",
      "note_on channel=9 note=54 velocity=45 time=0\n",
      "note_on channel=9 note=54 velocity=0 time=1\n",
      "note_on channel=9 note=69 velocity=0 time=0\n",
      "note_on channel=9 note=54 velocity=15 time=30\n",
      "note_on channel=9 note=54 velocity=0 time=1\n",
      "note_on channel=9 note=69 velocity=50 time=27\n",
      "note_on channel=9 note=42 velocity=73 time=0\n",
      "note_on channel=9 note=42 velocity=0 time=1\n",
      "note_on channel=9 note=69 velocity=0 time=0\n",
      "note_on channel=9 note=54 velocity=19 time=1\n",
      "note_on channel=9 note=54 velocity=0 time=1\n",
      "note_on channel=9 note=54 velocity=13 time=26\n",
      "note_on channel=9 note=54 velocity=0 time=1\n",
      "note_on channel=9 note=49 velocity=52 time=30\n",
      "note_on channel=9 note=69 velocity=50 time=0\n",
      "note_on channel=9 note=42 velocity=73 time=0\n",
      "note_on channel=9 note=35 velocity=110 time=0\n",
      "note_on channel=9 note=35 velocity=0 time=1\n",
      "note_on channel=9 note=49 velocity=0 time=0\n",
      "note_on channel=9 note=69 velocity=0 time=0\n",
      "note_on channel=9 note=42 velocity=0 time=0\n",
      "note_on channel=9 note=54 velocity=20 time=0\n",
      "note_on channel=9 note=54 velocity=0 time=1\n",
      "note_on channel=9 note=54 velocity=18 time=10\n",
      "note_on channel=9 note=54 velocity=0 time=1\n",
      "note_on channel=9 note=54 velocity=22 time=6\n",
      "note_on channel=9 note=54 velocity=0 time=1\n",
      "note_on channel=9 note=42 velocity=57 time=10\n",
      "note_on channel=9 note=69 velocity=39 time=0\n",
      "note_on channel=9 note=69 velocity=0 time=1\n",
      "note_on channel=9 note=42 velocity=0 time=0\n",
      "note_on channel=9 note=54 velocity=15 time=0\n",
      "note_on channel=9 note=54 velocity=0 time=1\n",
      "note_on channel=9 note=54 velocity=20 time=7\n",
      "note_on channel=9 note=54 velocity=0 time=1\n",
      "note_on channel=9 note=54 velocity=18 time=12\n",
      "note_on channel=9 note=54 velocity=0 time=1\n",
      "note_on channel=9 note=69 velocity=42 time=6\n",
      "note_on channel=9 note=69 velocity=0 time=1\n",
      "note_on channel=9 note=42 velocity=62 time=0\n",
      "note_on channel=9 note=42 velocity=0 time=1\n",
      "note_on channel=9 note=54 velocity=22 time=0\n",
      "note_on channel=9 note=54 velocity=0 time=1\n",
      "note_on channel=9 note=54 velocity=15 time=8\n",
      "note_on channel=9 note=54 velocity=0 time=1\n",
      "note_on channel=9 note=54 velocity=20 time=11\n",
      "note_on channel=9 note=54 velocity=0 time=1\n",
      "note_on channel=9 note=54 velocity=18 time=9\n",
      "note_on channel=9 note=54 velocity=0 time=1\n",
      "note_on channel=9 note=54 velocity=22 time=7\n",
      "note_on channel=9 note=54 velocity=0 time=1\n",
      "note_on channel=9 note=54 velocity=15 time=9\n",
      "note_on channel=9 note=54 velocity=0 time=1\n",
      "note_on channel=9 note=37 velocity=120 time=9\n",
      "note_on channel=9 note=42 velocity=57 time=0\n",
      "note_on channel=9 note=39 velocity=68 time=0\n",
      "note_on channel=9 note=69 velocity=39 time=0\n",
      "note_on channel=9 note=69 velocity=0 time=1\n",
      "note_on channel=9 note=37 velocity=0 time=0\n",
      "note_on channel=9 note=42 velocity=0 time=0\n",
      "note_on channel=9 note=39 velocity=0 time=0\n",
      "note_on channel=9 note=54 velocity=20 time=1\n",
      "note_on channel=9 note=54 velocity=0 time=1\n",
      "note_on channel=9 note=54 velocity=18 time=8\n",
      "note_on channel=9 note=54 velocity=0 time=1\n",
      "note_on channel=9 note=54 velocity=22 time=9\n",
      "note_on channel=9 note=54 velocity=0 time=1\n",
      "note_on channel=9 note=54 velocity=15 time=10\n",
      "note_on channel=9 note=54 velocity=0 time=1\n",
      "note_on channel=9 note=54 velocity=20 time=6\n",
      "note_on channel=9 note=54 velocity=0 time=1\n",
      "note_on channel=9 note=54 velocity=18 time=9\n",
      "note_on channel=9 note=54 velocity=0 time=1\n",
      "note_on channel=9 note=69 velocity=39 time=10\n",
      "note_on channel=9 note=42 velocity=57 time=0\n",
      "note_on channel=9 note=35 velocity=108 time=0\n",
      "note_on channel=9 note=35 velocity=0 time=1\n",
      "note_on channel=9 note=42 velocity=0 time=0\n",
      "note_on channel=9 note=69 velocity=0 time=0\n",
      "note_on channel=9 note=54 velocity=22 time=1\n",
      "note_on channel=9 note=54 velocity=0 time=1\n",
      "note_on channel=9 note=54 velocity=15 time=8\n",
      "note_on channel=9 note=54 velocity=0 time=1\n",
      "note_on channel=9 note=54 velocity=20 time=8\n",
      "note_on channel=9 note=54 velocity=0 time=1\n",
      "note_on channel=9 note=54 velocity=18 time=10\n",
      "note_on channel=9 note=54 velocity=0 time=1\n",
      "note_on channel=9 note=54 velocity=22 time=10\n",
      "note_on channel=9 note=54 velocity=0 time=1\n",
      "note_on channel=9 note=54 velocity=15 time=9\n",
      "note_on channel=9 note=54 velocity=0 time=1\n",
      "note_on channel=9 note=42 velocity=73 time=7\n",
      "note_on channel=9 note=69 velocity=50 time=0\n",
      "note_on channel=9 note=69 velocity=0 time=1\n",
      "note_on channel=9 note=42 velocity=0 time=0\n",
      "note_on channel=9 note=54 velocity=20 time=1\n",
      "note_on channel=9 note=54 velocity=0 time=1\n",
      "note_on channel=9 note=54 velocity=18 time=6\n",
      "note_on channel=9 note=54 velocity=0 time=1\n",
      "note_on channel=9 note=54 velocity=22 time=9\n",
      "note_on channel=9 note=54 velocity=0 time=1\n",
      "note_on channel=9 note=54 velocity=15 time=12\n",
      "note_on channel=9 note=54 velocity=0 time=1\n",
      "note_on channel=9 note=54 velocity=20 time=7\n",
      "note_on channel=9 note=54 velocity=0 time=1\n",
      "note_on channel=9 note=54 velocity=18 time=11\n",
      "note_on channel=9 note=54 velocity=0 time=1\n",
      "note_on channel=9 note=54 velocity=22 time=6\n",
      "note_on channel=9 note=54 velocity=0 time=1\n",
      "note_on channel=9 note=35 velocity=84 time=0\n",
      "note_on channel=9 note=46 velocity=73 time=0\n",
      "note_on channel=9 note=46 velocity=0 time=1\n",
      "note_on channel=9 note=35 velocity=0 time=0\n",
      "note_on channel=9 note=54 velocity=15 time=9\n",
      "note_on channel=9 note=54 velocity=0 time=1\n",
      "note_on channel=9 note=54 velocity=20 time=11\n",
      "note_on channel=9 note=54 velocity=0 time=1\n",
      "note_on channel=9 note=54 velocity=18 time=6\n",
      "note_on channel=9 note=54 velocity=0 time=1\n",
      "note_on channel=9 note=54 velocity=22 time=12\n",
      "note_on channel=9 note=54 velocity=0 time=1\n",
      "note_on channel=9 note=54 velocity=15 time=8\n",
      "note_on channel=9 note=54 velocity=0 time=1\n",
      "note_on channel=9 note=42 velocity=57 time=8\n",
      "note_on channel=9 note=37 velocity=127 time=0\n",
      "note_on channel=9 note=35 velocity=110 time=0\n",
      "note_on channel=9 note=39 velocity=70 time=0\n",
      "note_on channel=9 note=39 velocity=0 time=1\n",
      "note_on channel=9 note=42 velocity=0 time=0\n",
      "note_on channel=9 note=37 velocity=0 time=0\n",
      "note_on channel=9 note=35 velocity=0 time=0\n",
      "note_on channel=9 note=69 velocity=39 time=0\n",
      "note_on channel=9 note=54 velocity=45 time=0\n",
      "note_on channel=9 note=54 velocity=0 time=1\n",
      "note_on channel=9 note=69 velocity=0 time=0\n",
      "note_on channel=9 note=42 velocity=73 time=58\n",
      "note_on channel=9 note=69 velocity=50 time=0\n",
      "note_on channel=9 note=69 velocity=0 time=1\n",
      "note_on channel=9 note=42 velocity=0 time=0\n",
      "note_on channel=9 note=56 velocity=77 time=59\n",
      "note_on channel=9 note=49 velocity=69 time=0\n",
      "note_on channel=9 note=35 velocity=110 time=0\n",
      "note_on channel=9 note=35 velocity=0 time=1\n",
      "note_on channel=9 note=49 velocity=0 time=0\n",
      "note_on channel=9 note=56 velocity=0 time=14\n",
      "note_on channel=9 note=69 velocity=39 time=45\n",
      "note_on channel=9 note=42 velocity=57 time=0\n",
      "note_on channel=9 note=42 velocity=0 time=1\n",
      "note_on channel=9 note=69 velocity=0 time=0\n",
      "note_on channel=9 note=69 velocity=39 time=58\n",
      "note_on channel=9 note=69 velocity=0 time=1\n",
      "note_on channel=9 note=39 velocity=68 time=0\n",
      "note_on channel=9 note=37 velocity=120 time=0\n",
      "note_on channel=9 note=56 velocity=75 time=0\n",
      "note_on channel=9 note=42 velocity=57 time=0\n",
      "note_on channel=9 note=42 velocity=0 time=1\n",
      "note_on channel=9 note=39 velocity=0 time=0\n",
      "note_on channel=9 note=37 velocity=0 time=0\n",
      "note_on channel=9 note=56 velocity=0 time=14\n",
      "note_on channel=9 note=69 velocity=50 time=44\n",
      "note_on channel=9 note=69 velocity=0 time=1\n",
      "note_on channel=9 note=42 velocity=73 time=0\n",
      "note_on channel=9 note=35 velocity=108 time=0\n",
      "note_on channel=9 note=35 velocity=0 time=1\n",
      "note_on channel=9 note=42 velocity=0 time=0\n",
      "note_on channel=9 note=69 velocity=39 time=58\n",
      "note_on channel=9 note=69 velocity=0 time=1\n",
      "note_on channel=9 note=56 velocity=77 time=0\n",
      "note_on channel=9 note=42 velocity=57 time=0\n",
      "note_on channel=9 note=42 velocity=0 time=1\n",
      "note_on channel=9 note=56 velocity=0 time=14\n",
      "note_on channel=9 note=28 velocity=60 time=45\n",
      "note_on channel=9 note=46 velocity=73 time=0\n",
      "note_on channel=9 note=30 velocity=60 time=0\n",
      "note_on channel=9 note=46 velocity=0 time=1\n",
      "note_on channel=9 note=30 velocity=0 time=14\n",
      "note_on channel=9 note=28 velocity=0 time=0\n",
      "note_on channel=9 note=28 velocity=60 time=45\n",
      "note_on channel=9 note=29 velocity=60 time=0\n",
      "note_on channel=9 note=56 velocity=74 time=0\n",
      "note_on channel=9 note=39 velocity=70 time=0\n",
      "note_on channel=9 note=37 velocity=120 time=0\n",
      "note_on channel=9 note=69 velocity=39 time=0\n",
      "note_on channel=9 note=42 velocity=57 time=0\n",
      "note_on channel=9 note=42 velocity=0 time=1\n",
      "note_on channel=9 note=37 velocity=0 time=0\n",
      "note_on channel=9 note=39 velocity=0 time=0\n",
      "note_on channel=9 note=69 velocity=0 time=0\n",
      "note_on channel=9 note=28 velocity=0 time=14\n",
      "note_on channel=9 note=56 velocity=0 time=0\n",
      "note_on channel=9 note=29 velocity=0 time=0\n",
      "note_on channel=9 note=69 velocity=39 time=44\n",
      "note_on channel=9 note=69 velocity=0 time=1\n",
      "note_on channel=9 note=42 velocity=57 time=0\n",
      "note_on channel=9 note=42 velocity=0 time=1\n",
      "note_on channel=9 note=35 velocity=110 time=59\n",
      "note_on channel=9 note=56 velocity=77 time=0\n",
      "note_on channel=9 note=42 velocity=73 time=0\n",
      "note_on channel=9 note=42 velocity=0 time=1\n",
      "note_on channel=9 note=35 velocity=0 time=0\n",
      "note_on channel=9 note=69 velocity=50 time=0\n",
      "note_on channel=9 note=69 velocity=0 time=1\n",
      "note_on channel=9 note=56 velocity=0 time=13\n",
      "note_on channel=9 note=42 velocity=57 time=15\n",
      "note_on channel=9 note=42 velocity=0 time=1\n",
      "note_on channel=9 note=69 velocity=39 time=0\n",
      "note_on channel=9 note=69 velocity=0 time=1\n",
      "note_on channel=9 note=69 velocity=42 time=27\n",
      "note_on channel=9 note=69 velocity=0 time=1\n",
      "note_on channel=9 note=42 velocity=62 time=0\n",
      "note_on channel=9 note=42 velocity=0 time=1\n",
      "note_on channel=9 note=69 velocity=39 time=58\n",
      "note_on channel=9 note=69 velocity=0 time=1\n",
      "note_on channel=9 note=42 velocity=57 time=0\n",
      "note_on channel=9 note=39 velocity=68 time=0\n",
      "note_on channel=9 note=37 velocity=120 time=0\n",
      "note_on channel=9 note=56 velocity=75 time=0\n",
      "note_on channel=9 note=37 velocity=0 time=1\n",
      "note_on channel=9 note=42 velocity=0 time=0\n",
      "note_on channel=9 note=39 velocity=0 time=0\n",
      "note_on channel=9 note=56 velocity=0 time=14\n",
      "note_on channel=9 note=28 velocity=60 time=45\n",
      "note_on channel=9 note=42 velocity=57 time=0\n",
      "note_on channel=9 note=35 velocity=108 time=0\n",
      "note_on channel=9 note=29 velocity=60 time=0\n",
      "note_on channel=9 note=35 velocity=0 time=1\n",
      "note_on channel=9 note=42 velocity=0 time=0\n",
      "note_on channel=9 note=69 velocity=39 time=0\n",
      "note_on channel=9 note=69 velocity=0 time=1\n",
      "note_on channel=9 note=28 velocity=0 time=13\n",
      "note_on channel=9 note=29 velocity=0 time=0\n",
      "note_on channel=9 note=28 velocity=60 time=45\n",
      "note_on channel=9 note=42 velocity=73 time=0\n",
      "note_on channel=9 note=56 velocity=77 time=0\n",
      "note_on channel=9 note=69 velocity=50 time=0\n",
      "note_on channel=9 note=29 velocity=60 time=0\n",
      "note_on channel=9 note=69 velocity=0 time=1\n",
      "note_on channel=9 note=42 velocity=0 time=0\n",
      "note_on channel=9 note=28 velocity=0 time=14\n",
      "note_on channel=9 note=56 velocity=0 time=0\n",
      "note_on channel=9 note=29 velocity=0 time=0\n",
      "note_on channel=9 note=28 velocity=60 time=45\n",
      "note_on channel=9 note=46 velocity=73 time=0\n",
      "note_on channel=9 note=35 velocity=110 time=0\n",
      "note_on channel=9 note=30 velocity=60 time=0\n",
      "note_on channel=9 note=35 velocity=0 time=1\n",
      "note_on channel=9 note=46 velocity=0 time=0\n",
      "note_on channel=9 note=28 velocity=0 time=14\n",
      "note_on channel=9 note=30 velocity=0 time=0\n",
      "note_on channel=9 note=28 velocity=60 time=45\n",
      "note_on channel=9 note=39 velocity=70 time=0\n",
      "note_on channel=9 note=56 velocity=74 time=0\n",
      "note_on channel=9 note=69 velocity=39 time=0\n",
      "note_on channel=9 note=42 velocity=57 time=0\n",
      "note_on channel=9 note=37 velocity=120 time=0\n",
      "note_on channel=9 note=29 velocity=60 time=0\n",
      "note_on channel=9 note=37 velocity=0 time=1\n",
      "note_on channel=9 note=69 velocity=0 time=0\n",
      "note_on channel=9 note=39 velocity=0 time=0\n",
      "note_on channel=9 note=42 velocity=0 time=0\n",
      "note_on channel=9 note=28 velocity=0 time=14\n",
      "note_on channel=9 note=29 velocity=0 time=0\n",
      "note_on channel=9 note=56 velocity=0 time=0\n",
      "note_on channel=9 note=42 velocity=73 time=45\n",
      "note_on channel=9 note=42 velocity=0 time=1\n",
      "note_on channel=9 note=69 velocity=50 time=0\n",
      "note_on channel=9 note=69 velocity=0 time=1\n",
      "note_on channel=9 note=69 velocity=50 time=57\n",
      "note_on channel=9 note=69 velocity=0 time=1\n",
      "note_on channel=9 note=56 velocity=77 time=0\n",
      "note_on channel=9 note=35 velocity=110 time=0\n",
      "note_on channel=9 note=42 velocity=73 time=0\n",
      "note_on channel=9 note=42 velocity=0 time=1\n",
      "note_on channel=9 note=35 velocity=0 time=0\n",
      "note_on channel=9 note=56 velocity=0 time=14\n",
      "note_on channel=9 note=42 velocity=57 time=15\n",
      "note_on channel=9 note=42 velocity=0 time=1\n",
      "note_on channel=9 note=69 velocity=39 time=0\n",
      "note_on channel=9 note=69 velocity=0 time=1\n",
      "note_on channel=9 note=42 velocity=62 time=28\n",
      "note_on channel=9 note=69 velocity=42 time=0\n",
      "note_on channel=9 note=69 velocity=0 time=1\n",
      "note_on channel=9 note=42 velocity=0 time=0\n",
      "note_on channel=9 note=69 velocity=39 time=58\n",
      "note_on channel=9 note=69 velocity=0 time=1\n",
      "note_on channel=9 note=56 velocity=75 time=0\n",
      "note_on channel=9 note=37 velocity=120 time=0\n",
      "note_on channel=9 note=42 velocity=57 time=0\n",
      "note_on channel=9 note=39 velocity=68 time=0\n",
      "note_on channel=9 note=39 velocity=0 time=1\n",
      "note_on channel=9 note=42 velocity=0 time=0\n",
      "note_on channel=9 note=37 velocity=0 time=0\n",
      "note_on channel=9 note=56 velocity=0 time=14\n",
      "note_on channel=9 note=69 velocity=39 time=44\n",
      "note_on channel=9 note=69 velocity=0 time=1\n",
      "note_on channel=9 note=42 velocity=57 time=0\n",
      "note_on channel=9 note=35 velocity=108 time=0\n",
      "note_on channel=9 note=35 velocity=0 time=1\n",
      "note_on channel=9 note=42 velocity=0 time=0\n",
      "note_on channel=9 note=69 velocity=50 time=58\n",
      "note_on channel=9 note=69 velocity=0 time=1\n",
      "note_on channel=9 note=42 velocity=73 time=0\n",
      "note_on channel=9 note=56 velocity=77 time=0\n",
      "note_on channel=9 note=42 velocity=0 time=1\n",
      "note_on channel=9 note=56 velocity=0 time=14\n",
      "note_on channel=9 note=28 velocity=60 time=45\n",
      "note_on channel=9 note=46 velocity=73 time=0\n",
      "note_on channel=9 note=30 velocity=60 time=0\n",
      "note_on channel=9 note=46 velocity=0 time=1\n",
      "note_on channel=9 note=30 velocity=0 time=14\n",
      "note_on channel=9 note=28 velocity=0 time=0\n",
      "note_on channel=9 note=69 velocity=39 time=44\n",
      "note_on channel=9 note=69 velocity=0 time=1\n",
      "note_on channel=9 note=28 velocity=60 time=0\n",
      "note_on channel=9 note=39 velocity=70 time=0\n",
      "note_on channel=9 note=56 velocity=74 time=0\n",
      "note_on channel=9 note=42 velocity=57 time=0\n",
      "note_on channel=9 note=37 velocity=120 time=0\n",
      "note_on channel=9 note=29 velocity=60 time=0\n",
      "note_on channel=9 note=37 velocity=0 time=1\n",
      "note_on channel=9 note=42 velocity=0 time=0\n",
      "note_on channel=9 note=39 velocity=0 time=0\n",
      "note_on channel=9 note=28 velocity=0 time=14\n",
      "note_on channel=9 note=29 velocity=0 time=0\n",
      "note_on channel=9 note=56 velocity=0 time=0\n",
      "note_on channel=9 note=28 velocity=45 time=45\n",
      "note_on channel=9 note=30 velocity=45 time=0\n",
      "note_on channel=9 note=42 velocity=73 time=0\n",
      "note_on channel=9 note=42 velocity=0 time=1\n",
      "note_on channel=9 note=69 velocity=50 time=0\n",
      "note_on channel=9 note=69 velocity=0 time=1\n",
      "note_on channel=9 note=30 velocity=0 time=13\n",
      "note_on channel=9 note=28 velocity=0 time=0\n",
      "note_on channel=9 note=35 velocity=110 time=45\n",
      "note_on channel=9 note=56 velocity=77 time=0\n",
      "note_on channel=9 note=42 velocity=73 time=0\n",
      "note_on channel=9 note=69 velocity=50 time=0\n",
      "note_on channel=9 note=69 velocity=0 time=1\n",
      "note_on channel=9 note=42 velocity=0 time=0\n",
      "note_on channel=9 note=35 velocity=0 time=0\n",
      "note_on channel=9 note=56 velocity=0 time=14\n",
      "note_on channel=9 note=69 velocity=39 time=15\n",
      "note_on channel=9 note=42 velocity=57 time=0\n",
      "note_on channel=9 note=42 velocity=0 time=1\n",
      "note_on channel=9 note=69 velocity=0 time=0\n",
      "note_on channel=9 note=42 velocity=62 time=29\n",
      "note_on channel=9 note=69 velocity=42 time=0\n",
      "note_on channel=9 note=69 velocity=0 time=1\n",
      "note_on channel=9 note=42 velocity=0 time=0\n",
      "note_on channel=9 note=56 velocity=75 time=59\n",
      "note_on channel=9 note=37 velocity=120 time=0\n",
      "note_on channel=9 note=42 velocity=57 time=0\n",
      "note_on channel=9 note=39 velocity=68 time=0\n",
      "note_on channel=9 note=39 velocity=0 time=1\n",
      "note_on channel=9 note=42 velocity=0 time=0\n",
      "note_on channel=9 note=37 velocity=0 time=0\n",
      "note_on channel=9 note=69 velocity=39 time=0\n",
      "note_on channel=9 note=69 velocity=0 time=1\n",
      "note_on channel=9 note=56 velocity=0 time=13\n",
      "note_on channel=9 note=35 velocity=108 time=45\n",
      "note_on channel=9 note=42 velocity=57 time=0\n",
      "note_on channel=9 note=42 velocity=0 time=1\n",
      "note_on channel=9 note=35 velocity=0 time=0\n",
      "note_on channel=9 note=69 velocity=39 time=0\n",
      "note_on channel=9 note=69 velocity=0 time=1\n",
      "note_on channel=9 note=28 velocity=60 time=58\n",
      "note_on channel=9 note=69 velocity=50 time=0\n",
      "note_on channel=9 note=42 velocity=73 time=0\n",
      "note_on channel=9 note=56 velocity=77 time=0\n",
      "note_on channel=9 note=29 velocity=60 time=0\n",
      "note_on channel=9 note=42 velocity=0 time=1\n",
      "note_on channel=9 note=69 velocity=0 time=0\n",
      "note_on channel=9 note=28 velocity=0 time=14\n",
      "note_on channel=9 note=56 velocity=0 time=0\n",
      "note_on channel=9 note=29 velocity=0 time=0\n",
      "note_on channel=9 note=28 velocity=60 time=45\n",
      "note_on channel=9 note=35 velocity=84 time=0\n",
      "note_on channel=9 note=46 velocity=73 time=0\n",
      "note_on channel=9 note=30 velocity=60 time=0\n",
      "note_on channel=9 note=46 velocity=0 time=1\n",
      "note_on channel=9 note=35 velocity=0 time=0\n",
      "note_on channel=9 note=28 velocity=0 time=14\n",
      "note_on channel=9 note=30 velocity=0 time=0\n",
      "note_on channel=9 note=28 velocity=45 time=45\n",
      "note_on channel=9 note=39 velocity=70 time=0\n",
      "note_on channel=9 note=42 velocity=57 time=0\n",
      "note_on channel=9 note=37 velocity=120 time=0\n",
      "note_on channel=9 note=56 velocity=74 time=0\n",
      "note_on channel=9 note=29 velocity=45 time=0\n",
      "note_on channel=9 note=37 velocity=0 time=1\n",
      "note_on channel=9 note=42 velocity=0 time=0\n",
      "note_on channel=9 note=39 velocity=0 time=0\n",
      "note_on channel=9 note=69 velocity=39 time=0\n",
      "note_on channel=9 note=69 velocity=0 time=1\n",
      "note_on channel=9 note=29 velocity=0 time=13\n",
      "note_on channel=9 note=56 velocity=0 time=0\n",
      "note_on channel=9 note=28 velocity=0 time=0\n",
      "note_on channel=9 note=69 velocity=50 time=44\n",
      "note_on channel=9 note=69 velocity=0 time=1\n",
      "note_on channel=9 note=42 velocity=73 time=0\n",
      "note_on channel=9 note=42 velocity=0 time=1\n",
      "note_on channel=9 note=56 velocity=77 time=59\n",
      "note_on channel=9 note=49 velocity=69 time=0\n",
      "note_on channel=9 note=35 velocity=110 time=0\n",
      "note_on channel=9 note=35 velocity=0 time=1\n",
      "note_on channel=9 note=49 velocity=0 time=0\n",
      "note_on channel=9 note=56 velocity=0 time=14\n",
      "note_on channel=9 note=42 velocity=57 time=45\n",
      "note_on channel=9 note=42 velocity=0 time=1\n",
      "note_on channel=9 note=69 velocity=39 time=0\n",
      "note_on channel=9 note=69 velocity=0 time=1\n",
      "note_on channel=9 note=56 velocity=75 time=58\n",
      "note_on channel=9 note=42 velocity=57 time=0\n",
      "note_on channel=9 note=37 velocity=120 time=0\n",
      "note_on channel=9 note=39 velocity=68 time=0\n",
      "note_on channel=9 note=39 velocity=0 time=1\n",
      "note_on channel=9 note=37 velocity=0 time=0\n",
      "note_on channel=9 note=42 velocity=0 time=0\n",
      "note_on channel=9 note=69 velocity=39 time=0\n",
      "note_on channel=9 note=69 velocity=0 time=1\n",
      "note_on channel=9 note=56 velocity=0 time=13\n",
      "note_on channel=9 note=69 velocity=50 time=44\n",
      "note_on channel=9 note=69 velocity=0 time=1\n",
      "note_on channel=9 note=35 velocity=108 time=0\n",
      "note_on channel=9 note=42 velocity=73 time=0\n",
      "note_on channel=9 note=42 velocity=0 time=1\n",
      "note_on channel=9 note=35 velocity=0 time=0\n",
      "note_on channel=9 note=56 velocity=77 time=59\n",
      "note_on channel=9 note=42 velocity=57 time=0\n",
      "note_on channel=9 note=42 velocity=0 time=1\n",
      "note_on channel=9 note=69 velocity=39 time=0\n",
      "note_on channel=9 note=69 velocity=0 time=1\n",
      "note_on channel=9 note=56 velocity=0 time=13\n",
      "note_on channel=9 note=28 velocity=60 time=45\n",
      "note_on channel=9 note=46 velocity=73 time=0\n",
      "note_on channel=9 note=30 velocity=60 time=0\n",
      "note_on channel=9 note=46 velocity=0 time=1\n",
      "note_on channel=9 note=30 velocity=0 time=14\n",
      "note_on channel=9 note=28 velocity=0 time=0\n",
      "note_on channel=9 note=69 velocity=39 time=44\n",
      "note_on channel=9 note=69 velocity=0 time=1\n",
      "note_on channel=9 note=28 velocity=60 time=0\n",
      "note_on channel=9 note=42 velocity=57 time=0\n",
      "note_on channel=9 note=56 velocity=74 time=0\n",
      "note_on channel=9 note=39 velocity=70 time=0\n",
      "note_on channel=9 note=37 velocity=120 time=0\n",
      "note_on channel=9 note=29 velocity=60 time=0\n",
      "note_on channel=9 note=37 velocity=0 time=1\n",
      "note_on channel=9 note=39 velocity=0 time=0\n",
      "note_on channel=9 note=42 velocity=0 time=0\n",
      "note_on channel=9 note=28 velocity=0 time=14\n",
      "note_on channel=9 note=29 velocity=0 time=0\n",
      "note_on channel=9 note=56 velocity=0 time=0\n",
      "note_on channel=9 note=42 velocity=57 time=45\n",
      "note_on channel=9 note=42 velocity=0 time=1\n",
      "note_on channel=9 note=69 velocity=39 time=0\n",
      "note_on channel=9 note=69 velocity=0 time=1\n",
      "note_on channel=9 note=69 velocity=50 time=57\n",
      "note_on channel=9 note=69 velocity=0 time=1\n",
      "note_on channel=9 note=35 velocity=110 time=0\n",
      "note_on channel=9 note=42 velocity=73 time=0\n",
      "note_on channel=9 note=56 velocity=77 time=0\n",
      "note_on channel=9 note=42 velocity=0 time=1\n",
      "note_on channel=9 note=35 velocity=0 time=0\n",
      "note_on channel=9 note=56 velocity=0 time=14\n",
      "note_on channel=9 note=42 velocity=57 time=15\n",
      "note_on channel=9 note=69 velocity=39 time=0\n",
      "note_on channel=9 note=69 velocity=0 time=1\n",
      "note_on channel=9 note=42 velocity=0 time=0\n",
      "note_on channel=9 note=42 velocity=62 time=29\n",
      "note_on channel=9 note=69 velocity=42 time=0\n",
      "note_on channel=9 note=69 velocity=0 time=1\n",
      "note_on channel=9 note=42 velocity=0 time=0\n",
      "note_on channel=9 note=69 velocity=39 time=58\n",
      "note_on channel=9 note=69 velocity=0 time=1\n",
      "note_on channel=9 note=56 velocity=75 time=0\n",
      "note_on channel=9 note=39 velocity=68 time=0\n",
      "note_on channel=9 note=37 velocity=120 time=0\n",
      "note_on channel=9 note=42 velocity=57 time=0\n",
      "note_on channel=9 note=42 velocity=0 time=1\n",
      "note_on channel=9 note=37 velocity=0 time=0\n",
      "note_on channel=9 note=39 velocity=0 time=0\n",
      "note_on channel=9 note=56 velocity=0 time=14\n",
      "note_on channel=9 note=28 velocity=60 time=45\n",
      "note_on channel=9 note=42 velocity=57 time=0\n",
      "note_on channel=9 note=29 velocity=60 time=0\n",
      "note_on channel=9 note=69 velocity=39 time=0\n",
      "note_on channel=9 note=35 velocity=108 time=0\n",
      "note_on channel=9 note=35 velocity=0 time=1\n",
      "note_on channel=9 note=42 velocity=0 time=0\n",
      "note_on channel=9 note=69 velocity=0 time=0\n",
      "note_on channel=9 note=29 velocity=0 time=14\n",
      "note_on channel=9 note=28 velocity=0 time=0\n",
      "note_on channel=9 note=69 velocity=50 time=44\n",
      "note_on channel=9 note=69 velocity=0 time=1\n",
      "note_on channel=9 note=28 velocity=60 time=0\n",
      "note_on channel=9 note=29 velocity=60 time=0\n",
      "note_on channel=9 note=56 velocity=77 time=0\n",
      "note_on channel=9 note=42 velocity=73 time=0\n",
      "note_on channel=9 note=42 velocity=0 time=1\n",
      "note_on channel=9 note=28 velocity=0 time=14\n",
      "note_on channel=9 note=29 velocity=0 time=0\n",
      "note_on channel=9 note=56 velocity=0 time=0\n",
      "note_on channel=9 note=28 velocity=60 time=45\n",
      "note_on channel=9 note=35 velocity=110 time=0\n",
      "note_on channel=9 note=30 velocity=60 time=0\n",
      "note_on channel=9 note=46 velocity=73 time=0\n",
      "note_on channel=9 note=46 velocity=0 time=1\n",
      "note_on channel=9 note=35 velocity=0 time=0\n",
      "note_on channel=9 note=30 velocity=0 time=14\n",
      "note_on channel=9 note=28 velocity=0 time=0\n",
      "note_on channel=9 note=28 velocity=60 time=45\n",
      "note_on channel=9 note=42 velocity=57 time=0\n",
      "note_on channel=9 note=37 velocity=120 time=0\n",
      "note_on channel=9 note=69 velocity=39 time=0\n",
      "note_on channel=9 note=29 velocity=60 time=0\n",
      "note_on channel=9 note=56 velocity=74 time=0\n",
      "note_on channel=9 note=39 velocity=70 time=0\n",
      "note_on channel=9 note=39 velocity=0 time=1\n",
      "note_on channel=9 note=42 velocity=0 time=0\n",
      "note_on channel=9 note=37 velocity=0 time=0\n",
      "note_on channel=9 note=69 velocity=0 time=0\n",
      "note_on channel=9 note=28 velocity=0 time=14\n",
      "note_on channel=9 note=29 velocity=0 time=0\n",
      "note_on channel=9 note=56 velocity=0 time=0\n",
      "note_on channel=9 note=69 velocity=50 time=44\n",
      "note_on channel=9 note=69 velocity=0 time=1\n",
      "note_on channel=9 note=42 velocity=73 time=0\n",
      "note_on channel=9 note=42 velocity=0 time=1\n",
      "note_on channel=9 note=42 velocity=73 time=59\n",
      "note_on channel=9 note=35 velocity=110 time=0\n",
      "note_on channel=9 note=69 velocity=50 time=0\n",
      "note_on channel=9 note=56 velocity=77 time=0\n",
      "note_on channel=9 note=69 velocity=0 time=1\n",
      "note_on channel=9 note=42 velocity=0 time=0\n",
      "note_on channel=9 note=35 velocity=0 time=0\n",
      "note_on channel=9 note=56 velocity=0 time=14\n",
      "note_on channel=9 note=69 velocity=39 time=14\n",
      "note_on channel=9 note=69 velocity=0 time=1\n",
      "note_on channel=9 note=42 velocity=57 time=0\n",
      "note_on channel=9 note=42 velocity=0 time=1\n",
      "note_on channel=9 note=69 velocity=42 time=28\n",
      "note_on channel=9 note=69 velocity=0 time=1\n",
      "note_on channel=9 note=42 velocity=62 time=0\n",
      "note_on channel=9 note=42 velocity=0 time=1\n",
      "note_on channel=9 note=69 velocity=39 time=58\n",
      "note_on channel=9 note=69 velocity=0 time=1\n",
      "note_on channel=9 note=39 velocity=68 time=0\n",
      "note_on channel=9 note=56 velocity=75 time=0\n",
      "note_on channel=9 note=37 velocity=120 time=0\n",
      "note_on channel=9 note=42 velocity=57 time=0\n",
      "note_on channel=9 note=42 velocity=0 time=1\n",
      "note_on channel=9 note=37 velocity=0 time=0\n",
      "note_on channel=9 note=39 velocity=0 time=0\n",
      "note_on channel=9 note=56 velocity=0 time=14\n",
      "note_on channel=9 note=69 velocity=39 time=44\n",
      "note_on channel=9 note=69 velocity=0 time=1\n",
      "note_on channel=9 note=42 velocity=57 time=0\n",
      "note_on channel=9 note=35 velocity=108 time=0\n",
      "note_on channel=9 note=35 velocity=0 time=1\n",
      "note_on channel=9 note=42 velocity=0 time=0\n",
      "note_on channel=9 note=69 velocity=50 time=58\n",
      "note_on channel=9 note=69 velocity=0 time=1\n",
      "note_on channel=9 note=42 velocity=73 time=0\n",
      "note_on channel=9 note=56 velocity=77 time=0\n",
      "note_on channel=9 note=42 velocity=0 time=1\n",
      "note_on channel=9 note=56 velocity=0 time=14\n",
      "note_on channel=9 note=28 velocity=60 time=45\n",
      "note_on channel=9 note=30 velocity=60 time=0\n",
      "note_on channel=9 note=46 velocity=73 time=0\n",
      "note_on channel=9 note=46 velocity=0 time=1\n",
      "note_on channel=9 note=30 velocity=0 time=14\n",
      "note_on channel=9 note=28 velocity=0 time=0\n",
      "note_on channel=9 note=28 velocity=60 time=45\n",
      "note_on channel=9 note=42 velocity=57 time=0\n",
      "note_on channel=9 note=69 velocity=39 time=0\n",
      "note_on channel=9 note=37 velocity=120 time=0\n",
      "note_on channel=9 note=56 velocity=74 time=0\n",
      "note_on channel=9 note=39 velocity=70 time=0\n",
      "note_on channel=9 note=29 velocity=60 time=0\n",
      "note_on channel=9 note=39 velocity=0 time=1\n",
      "note_on channel=9 note=69 velocity=0 time=0\n",
      "note_on channel=9 note=42 velocity=0 time=0\n",
      "note_on channel=9 note=37 velocity=0 time=0\n",
      "note_on channel=9 note=28 velocity=0 time=14\n",
      "note_on channel=9 note=56 velocity=0 time=0\n",
      "note_on channel=9 note=29 velocity=0 time=0\n",
      "note_on channel=9 note=28 velocity=45 time=45\n",
      "note_on channel=9 note=30 velocity=45 time=0\n",
      "note_on channel=9 note=42 velocity=73 time=0\n",
      "note_on channel=9 note=42 velocity=0 time=1\n",
      "note_on channel=9 note=69 velocity=50 time=0\n",
      "note_on channel=9 note=69 velocity=0 time=1\n",
      "note_on channel=9 note=30 velocity=0 time=13\n",
      "note_on channel=9 note=28 velocity=0 time=0\n",
      "note_on channel=9 note=35 velocity=110 time=45\n",
      "note_on channel=9 note=56 velocity=77 time=0\n",
      "note_on channel=9 note=49 velocity=69 time=0\n",
      "note_on channel=9 note=49 velocity=0 time=1\n",
      "note_on channel=9 note=35 velocity=0 time=0\n",
      "note_on channel=9 note=56 velocity=0 time=14\n",
      "note_on channel=9 note=42 velocity=57 time=15\n",
      "note_on channel=9 note=69 velocity=39 time=0\n",
      "note_on channel=9 note=69 velocity=0 time=1\n",
      "note_on channel=9 note=42 velocity=0 time=0\n",
      "note_on channel=9 note=42 velocity=62 time=29\n",
      "note_on channel=9 note=69 velocity=42 time=0\n",
      "note_on channel=9 note=69 velocity=0 time=1\n",
      "note_on channel=9 note=42 velocity=0 time=0\n",
      "note_on channel=9 note=69 velocity=39 time=59\n",
      "note_on channel=9 note=42 velocity=57 time=0\n",
      "note_on channel=9 note=56 velocity=75 time=0\n",
      "note_on channel=9 note=42 velocity=0 time=1\n",
      "note_on channel=9 note=69 velocity=0 time=0\n",
      "note_on channel=9 note=56 velocity=0 time=14\n",
      "note_on channel=9 note=69 velocity=39 time=45\n",
      "note_on channel=9 note=42 velocity=57 time=0\n",
      "note_on channel=9 note=35 velocity=108 time=0\n",
      "note_on channel=9 note=35 velocity=0 time=1\n",
      "note_on channel=9 note=42 velocity=0 time=0\n",
      "note_on channel=9 note=69 velocity=0 time=0\n",
      "note_on channel=9 note=42 velocity=73 time=59\n",
      "note_on channel=9 note=56 velocity=77 time=0\n",
      "note_on channel=9 note=42 velocity=0 time=1\n",
      "note_on channel=9 note=69 velocity=50 time=0\n",
      "note_on channel=9 note=69 velocity=0 time=1\n",
      "note_on channel=9 note=56 velocity=0 time=13\n",
      "note_on channel=9 note=46 velocity=73 time=45\n",
      "note_on channel=9 note=35 velocity=84 time=0\n",
      "note_on channel=9 note=35 velocity=0 time=1\n",
      "note_on channel=9 note=46 velocity=0 time=0\n",
      "note_on channel=9 note=33 velocity=113 time=59\n",
      "note_on channel=9 note=37 velocity=120 time=0\n",
      "note_on channel=9 note=42 velocity=57 time=0\n",
      "note_on channel=9 note=56 velocity=74 time=0\n",
      "note_on channel=9 note=39 velocity=70 time=0\n",
      "note_on channel=9 note=39 velocity=0 time=1\n",
      "note_on channel=9 note=42 velocity=0 time=0\n",
      "note_on channel=9 note=69 velocity=39 time=0\n",
      "note_on channel=9 note=69 velocity=0 time=1\n",
      "note_on channel=9 note=56 velocity=0 time=13\n",
      "note_on channel=9 note=37 velocity=0 time=0\n",
      "note_on channel=9 note=33 velocity=0 time=0\n",
      "note_on channel=9 note=42 velocity=73 time=45\n",
      "note_on channel=9 note=42 velocity=0 time=1\n",
      "note_on channel=9 note=69 velocity=50 time=0\n",
      "note_on channel=9 note=69 velocity=0 time=1\n",
      "note_on channel=9 note=35 velocity=110 time=58\n",
      "note_on channel=9 note=49 velocity=72 time=0\n",
      "note_on channel=9 note=49 velocity=0 time=1\n",
      "note_on channel=9 note=35 velocity=0 time=0\n",
      "note_on channel=9 note=35 velocity=110 time=1919\n",
      "note_on channel=9 note=49 velocity=69 time=0\n",
      "note_on channel=9 note=49 velocity=0 time=15\n",
      "note_on channel=9 note=35 velocity=0 time=0\n",
      "note_on channel=9 note=81 velocity=106 time=105\n",
      "note_on channel=9 note=54 velocity=87 time=2\n",
      "note_on channel=9 note=81 velocity=0 time=13\n",
      "note_on channel=9 note=54 velocity=0 time=2\n",
      "note_on channel=9 note=54 velocity=83 time=225\n",
      "note_on channel=9 note=54 velocity=0 time=15\n",
      "note_on channel=9 note=54 velocity=87 time=223\n",
      "note_on channel=9 note=54 velocity=0 time=15\n",
      "note_on channel=9 note=54 velocity=83 time=227\n",
      "note_on channel=9 note=54 velocity=0 time=15\n",
      "note_on channel=9 note=35 velocity=110 time=583\n",
      "note_on channel=9 note=49 velocity=69 time=0\n",
      "note_on channel=9 note=49 velocity=0 time=15\n",
      "note_on channel=9 note=35 velocity=0 time=0\n",
      "note_on channel=9 note=35 velocity=110 time=345\n",
      "note_on channel=9 note=33 velocity=113 time=0\n",
      "note_on channel=9 note=37 velocity=120 time=0\n",
      "note_on channel=9 note=39 velocity=68 time=0\n",
      "note_on channel=9 note=39 velocity=0 time=1\n",
      "note_on channel=9 note=35 velocity=0 time=0\n",
      "note_on channel=9 note=33 velocity=0 time=0\n",
      "note_on channel=9 note=37 velocity=0 time=0\n",
      "note_on channel=9 note=49 velocity=69 time=119\n",
      "note_on channel=9 note=35 velocity=110 time=0\n",
      "note_on channel=9 note=35 velocity=0 time=1\n",
      "note_on channel=9 note=49 velocity=0 time=0\n",
      "note_on channel=9 note=69 velocity=39 time=59\n",
      "note_on channel=9 note=42 velocity=57 time=0\n",
      "note_on channel=9 note=42 velocity=0 time=1\n",
      "note_on channel=9 note=69 velocity=0 time=0\n",
      "note_on channel=9 note=39 velocity=68 time=59\n",
      "note_on channel=9 note=69 velocity=39 time=0\n",
      "note_on channel=9 note=42 velocity=57 time=0\n",
      "note_on channel=9 note=37 velocity=120 time=0\n",
      "note_on channel=9 note=37 velocity=0 time=1\n",
      "note_on channel=9 note=39 velocity=0 time=0\n",
      "note_on channel=9 note=69 velocity=0 time=0\n",
      "note_on channel=9 note=42 velocity=0 time=0\n",
      "note_on channel=9 note=35 velocity=108 time=59\n",
      "note_on channel=9 note=42 velocity=73 time=0\n",
      "note_on channel=9 note=69 velocity=50 time=0\n",
      "note_on channel=9 note=69 velocity=0 time=1\n",
      "note_on channel=9 note=42 velocity=0 time=0\n",
      "note_on channel=9 note=35 velocity=0 time=0\n",
      "note_on channel=9 note=69 velocity=39 time=58\n",
      "note_on channel=9 note=69 velocity=0 time=1\n",
      "note_on channel=9 note=42 velocity=57 time=0\n",
      "note_on channel=9 note=42 velocity=0 time=1\n",
      "note_on channel=9 note=46 velocity=73 time=59\n",
      "note_on channel=9 note=46 velocity=0 time=1\n",
      "note_on channel=9 note=39 velocity=70 time=59\n",
      "note_on channel=9 note=69 velocity=39 time=0\n",
      "note_on channel=9 note=37 velocity=120 time=0\n",
      "note_on channel=9 note=42 velocity=57 time=0\n",
      "note_on channel=9 note=42 velocity=0 time=1\n",
      "note_on channel=9 note=39 velocity=0 time=0\n",
      "note_on channel=9 note=69 velocity=0 time=0\n",
      "note_on channel=9 note=37 velocity=0 time=0\n",
      "note_on channel=9 note=54 velocity=45 time=1\n",
      "note_on channel=9 note=54 velocity=0 time=1\n",
      "note_on channel=9 note=69 velocity=39 time=56\n",
      "note_on channel=9 note=69 velocity=0 time=1\n",
      "note_on channel=9 note=42 velocity=57 time=0\n",
      "note_on channel=9 note=42 velocity=0 time=1\n",
      "note_on channel=9 note=35 velocity=110 time=59\n",
      "note_on channel=9 note=42 velocity=73 time=0\n",
      "note_on channel=9 note=42 velocity=0 time=1\n",
      "note_on channel=9 note=35 velocity=0 time=0\n",
      "note_on channel=9 note=69 velocity=50 time=0\n",
      "note_on channel=9 note=69 velocity=0 time=1\n",
      "note_on channel=9 note=42 velocity=57 time=28\n",
      "note_on channel=9 note=42 velocity=0 time=1\n",
      "note_on channel=9 note=69 velocity=39 time=0\n",
      "note_on channel=9 note=69 velocity=0 time=1\n",
      "note_on channel=9 note=69 velocity=42 time=27\n",
      "note_on channel=9 note=69 velocity=0 time=1\n",
      "note_on channel=9 note=42 velocity=62 time=0\n",
      "note_on channel=9 note=42 velocity=0 time=1\n",
      "note_on channel=9 note=69 velocity=39 time=58\n",
      "note_on channel=9 note=69 velocity=0 time=1\n",
      "note_on channel=9 note=42 velocity=57 time=0\n",
      "note_on channel=9 note=37 velocity=120 time=0\n",
      "note_on channel=9 note=39 velocity=68 time=0\n",
      "note_on channel=9 note=39 velocity=0 time=1\n",
      "note_on channel=9 note=37 velocity=0 time=0\n",
      "note_on channel=9 note=42 velocity=0 time=0\n",
      "note_on channel=9 note=35 velocity=108 time=59\n",
      "note_on channel=9 note=42 velocity=57 time=0\n",
      "note_on channel=9 note=42 velocity=0 time=1\n",
      "note_on channel=9 note=35 velocity=0 time=0\n",
      "note_on channel=9 note=69 velocity=39 time=0\n",
      "note_on channel=9 note=69 velocity=0 time=1\n",
      "note_on channel=9 note=69 velocity=50 time=58\n",
      "note_on channel=9 note=42 velocity=73 time=0\n",
      "note_on channel=9 note=42 velocity=0 time=1\n",
      "note_on channel=9 note=69 velocity=0 time=0\n",
      "note_on channel=9 note=35 velocity=110 time=59\n",
      "note_on channel=9 note=46 velocity=73 time=0\n",
      "note_on channel=9 note=46 velocity=0 time=1\n",
      "note_on channel=9 note=35 velocity=0 time=0\n",
      "note_on channel=9 note=69 velocity=39 time=58\n",
      "note_on channel=9 note=69 velocity=0 time=1\n",
      "note_on channel=9 note=54 velocity=45 time=0\n",
      "note_on channel=9 note=39 velocity=70 time=0\n",
      "note_on channel=9 note=42 velocity=57 time=0\n",
      "note_on channel=9 note=37 velocity=120 time=0\n",
      "note_on channel=9 note=37 velocity=0 time=1\n",
      "note_on channel=9 note=54 velocity=0 time=0\n",
      "note_on channel=9 note=39 velocity=0 time=0\n",
      "note_on channel=9 note=42 velocity=0 time=0\n",
      "note_on channel=9 note=69 velocity=50 time=58\n",
      "note_on channel=9 note=69 velocity=0 time=1\n",
      "note_on channel=9 note=42 velocity=73 time=0\n",
      "note_on channel=9 note=42 velocity=0 time=1\n",
      "note_on channel=9 note=49 velocity=50 time=59\n",
      "note_on channel=9 note=35 velocity=110 time=0\n",
      "note_on channel=9 note=35 velocity=0 time=1\n",
      "note_on channel=9 note=49 velocity=0 time=0\n",
      "note_on channel=9 note=69 velocity=50 time=0\n",
      "note_on channel=9 note=69 velocity=0 time=1\n",
      "note_on channel=9 note=69 velocity=39 time=28\n",
      "note_on channel=9 note=42 velocity=57 time=0\n",
      "note_on channel=9 note=42 velocity=0 time=1\n",
      "note_on channel=9 note=69 velocity=0 time=0\n",
      "note_on channel=9 note=42 velocity=62 time=29\n",
      "note_on channel=9 note=69 velocity=42 time=0\n",
      "note_on channel=9 note=69 velocity=0 time=1\n",
      "note_on channel=9 note=42 velocity=0 time=0\n",
      "note_on channel=9 note=39 velocity=68 time=59\n",
      "note_on channel=9 note=37 velocity=120 time=0\n",
      "note_on channel=9 note=42 velocity=57 time=0\n",
      "note_on channel=9 note=42 velocity=0 time=1\n",
      "note_on channel=9 note=37 velocity=0 time=0\n",
      "note_on channel=9 note=39 velocity=0 time=0\n",
      "note_on channel=9 note=69 velocity=39 time=0\n",
      "note_on channel=9 note=69 velocity=0 time=1\n",
      "note_on channel=9 note=69 velocity=39 time=58\n",
      "note_on channel=9 note=35 velocity=108 time=0\n",
      "note_on channel=9 note=42 velocity=57 time=0\n",
      "note_on channel=9 note=42 velocity=0 time=1\n",
      "note_on channel=9 note=35 velocity=0 time=0\n",
      "note_on channel=9 note=69 velocity=0 time=0\n",
      "note_on channel=9 note=69 velocity=50 time=59\n",
      "note_on channel=9 note=42 velocity=73 time=0\n",
      "note_on channel=9 note=42 velocity=0 time=1\n",
      "note_on channel=9 note=69 velocity=0 time=0\n",
      "note_on channel=9 note=46 velocity=73 time=59\n",
      "note_on channel=9 note=46 velocity=0 time=1\n",
      "note_on channel=9 note=54 velocity=45 time=58\n",
      "note_on channel=9 note=54 velocity=0 time=1\n",
      "note_on channel=9 note=42 velocity=57 time=0\n",
      "note_on channel=9 note=39 velocity=70 time=0\n",
      "note_on channel=9 note=37 velocity=120 time=0\n",
      "note_on channel=9 note=37 velocity=0 time=1\n",
      "note_on channel=9 note=39 velocity=0 time=0\n",
      "note_on channel=9 note=42 velocity=0 time=0\n",
      "note_on channel=9 note=69 velocity=39 time=0\n",
      "note_on channel=9 note=69 velocity=0 time=1\n",
      "note_on channel=9 note=42 velocity=73 time=58\n",
      "note_on channel=9 note=42 velocity=0 time=1\n",
      "note_on channel=9 note=69 velocity=50 time=0\n",
      "note_on channel=9 note=69 velocity=0 time=1\n",
      "note_on channel=9 note=69 velocity=50 time=57\n",
      "note_on channel=9 note=69 velocity=0 time=1\n",
      "note_on channel=9 note=35 velocity=110 time=0\n",
      "note_on channel=9 note=42 velocity=73 time=0\n",
      "note_on channel=9 note=42 velocity=0 time=1\n",
      "note_on channel=9 note=35 velocity=0 time=0\n",
      "note_on channel=9 note=69 velocity=39 time=29\n",
      "note_on channel=9 note=42 velocity=57 time=0\n",
      "note_on channel=9 note=42 velocity=0 time=1\n",
      "note_on channel=9 note=69 velocity=0 time=0\n",
      "note_on channel=9 note=42 velocity=62 time=29\n",
      "note_on channel=9 note=42 velocity=0 time=1\n",
      "note_on channel=9 note=69 velocity=42 time=0\n",
      "note_on channel=9 note=69 velocity=0 time=1\n",
      "note_on channel=9 note=42 velocity=57 time=58\n",
      "note_on channel=9 note=37 velocity=120 time=0\n",
      "note_on channel=9 note=39 velocity=68 time=0\n",
      "note_on channel=9 note=39 velocity=0 time=1\n",
      "note_on channel=9 note=37 velocity=0 time=0\n",
      "note_on channel=9 note=42 velocity=0 time=0\n",
      "note_on channel=9 note=69 velocity=39 time=0\n",
      "note_on channel=9 note=69 velocity=0 time=1\n",
      "note_on channel=9 note=69 velocity=39 time=57\n",
      "note_on channel=9 note=69 velocity=0 time=1\n",
      "note_on channel=9 note=42 velocity=57 time=0\n",
      "note_on channel=9 note=35 velocity=108 time=0\n",
      "note_on channel=9 note=35 velocity=0 time=1\n",
      "note_on channel=9 note=42 velocity=0 time=0\n",
      "note_on channel=9 note=69 velocity=50 time=59\n",
      "note_on channel=9 note=42 velocity=73 time=0\n",
      "note_on channel=9 note=42 velocity=0 time=1\n",
      "note_on channel=9 note=69 velocity=0 time=0\n",
      "note_on channel=9 note=46 velocity=73 time=59\n",
      "note_on channel=9 note=35 velocity=84 time=0\n",
      "note_on channel=9 note=35 velocity=0 time=1\n",
      "note_on channel=9 note=46 velocity=0 time=0\n",
      "note_on channel=9 note=69 velocity=39 time=58\n",
      "note_on channel=9 note=69 velocity=0 time=1\n",
      "note_on channel=9 note=37 velocity=120 time=0\n",
      "note_on channel=9 note=42 velocity=57 time=0\n",
      "note_on channel=9 note=39 velocity=70 time=0\n",
      "note_on channel=9 note=39 velocity=0 time=1\n",
      "note_on channel=9 note=42 velocity=0 time=0\n",
      "note_on channel=9 note=37 velocity=0 time=0\n",
      "note_on channel=9 note=54 velocity=45 time=0\n",
      "note_on channel=9 note=54 velocity=0 time=1\n",
      "note_on channel=9 note=69 velocity=50 time=57\n",
      "note_on channel=9 note=69 velocity=0 time=1\n",
      "note_on channel=9 note=42 velocity=73 time=0\n",
      "note_on channel=9 note=42 velocity=0 time=1\n",
      "note_on channel=9 note=49 velocity=50 time=59\n",
      "note_on channel=9 note=35 velocity=110 time=0\n",
      "note_on channel=9 note=35 velocity=0 time=1\n",
      "note_on channel=9 note=49 velocity=0 time=0\n",
      "note_on channel=9 note=69 velocity=39 time=59\n",
      "note_on channel=9 note=42 velocity=57 time=0\n",
      "note_on channel=9 note=42 velocity=0 time=1\n",
      "note_on channel=9 note=69 velocity=0 time=0\n",
      "note_on channel=9 note=39 velocity=68 time=59\n",
      "note_on channel=9 note=37 velocity=120 time=0\n",
      "note_on channel=9 note=69 velocity=39 time=0\n",
      "note_on channel=9 note=42 velocity=57 time=0\n",
      "note_on channel=9 note=42 velocity=0 time=1\n",
      "note_on channel=9 note=39 velocity=0 time=0\n",
      "note_on channel=9 note=37 velocity=0 time=0\n",
      "note_on channel=9 note=69 velocity=0 time=0\n",
      "note_on channel=9 note=35 velocity=108 time=59\n",
      "note_on channel=9 note=42 velocity=73 time=0\n",
      "note_on channel=9 note=42 velocity=0 time=1\n",
      "note_on channel=9 note=35 velocity=0 time=0\n",
      "note_on channel=9 note=69 velocity=50 time=0\n",
      "note_on channel=9 note=69 velocity=0 time=1\n",
      "note_on channel=9 note=42 velocity=57 time=58\n",
      "note_on channel=9 note=69 velocity=39 time=0\n",
      "note_on channel=9 note=69 velocity=0 time=1\n",
      "note_on channel=9 note=42 velocity=0 time=0\n",
      "note_on channel=9 note=46 velocity=73 time=59\n",
      "note_on channel=9 note=46 velocity=0 time=1\n",
      "note_on channel=9 note=39 velocity=70 time=59\n",
      "note_on channel=9 note=42 velocity=57 time=0\n",
      "note_on channel=9 note=37 velocity=120 time=0\n",
      "note_on channel=9 note=37 velocity=0 time=1\n",
      "note_on channel=9 note=42 velocity=0 time=0\n",
      "note_on channel=9 note=39 velocity=0 time=0\n",
      "note_on channel=9 note=69 velocity=39 time=0\n",
      "note_on channel=9 note=54 velocity=45 time=0\n",
      "note_on channel=9 note=54 velocity=0 time=1\n",
      "note_on channel=9 note=69 velocity=0 time=0\n",
      "note_on channel=9 note=69 velocity=39 time=58\n",
      "note_on channel=9 note=42 velocity=57 time=0\n",
      "note_on channel=9 note=42 velocity=0 time=1\n",
      "note_on channel=9 note=69 velocity=0 time=0\n",
      "note_on channel=9 note=49 velocity=50 time=59\n",
      "note_on channel=9 note=35 velocity=110 time=0\n",
      "note_on channel=9 note=42 velocity=73 time=0\n",
      "note_on channel=9 note=42 velocity=0 time=1\n",
      "note_on channel=9 note=35 velocity=0 time=0\n",
      "note_on channel=9 note=49 velocity=0 time=0\n",
      "note_on channel=9 note=69 velocity=50 time=0\n",
      "note_on channel=9 note=69 velocity=0 time=1\n",
      "note_on channel=9 note=69 velocity=39 time=27\n",
      "note_on channel=9 note=69 velocity=0 time=1\n",
      "note_on channel=9 note=42 velocity=57 time=0\n",
      "note_on channel=9 note=42 velocity=0 time=1\n",
      "note_on channel=9 note=42 velocity=62 time=29\n",
      "note_on channel=9 note=69 velocity=42 time=0\n",
      "note_on channel=9 note=69 velocity=0 time=1\n",
      "note_on channel=9 note=42 velocity=0 time=0\n",
      "note_on channel=9 note=42 velocity=57 time=59\n",
      "note_on channel=9 note=37 velocity=120 time=0\n",
      "note_on channel=9 note=39 velocity=68 time=0\n",
      "note_on channel=9 note=39 velocity=0 time=1\n",
      "note_on channel=9 note=37 velocity=0 time=0\n",
      "note_on channel=9 note=42 velocity=0 time=0\n",
      "note_on channel=9 note=69 velocity=39 time=0\n",
      "note_on channel=9 note=69 velocity=0 time=1\n",
      "note_on channel=9 note=69 velocity=39 time=57\n",
      "note_on channel=9 note=69 velocity=0 time=1\n",
      "note_on channel=9 note=42 velocity=57 time=0\n",
      "note_on channel=9 note=35 velocity=108 time=0\n",
      "note_on channel=9 note=35 velocity=0 time=1\n",
      "note_on channel=9 note=42 velocity=0 time=0\n",
      "note_on channel=9 note=69 velocity=50 time=58\n",
      "note_on channel=9 note=69 velocity=0 time=1\n",
      "note_on channel=9 note=42 velocity=73 time=0\n",
      "note_on channel=9 note=42 velocity=0 time=1\n",
      "note_on channel=9 note=46 velocity=73 time=59\n",
      "note_on channel=9 note=35 velocity=110 time=0\n",
      "note_on channel=9 note=35 velocity=0 time=1\n",
      "note_on channel=9 note=46 velocity=0 time=0\n",
      "note_on channel=9 note=69 velocity=39 time=58\n",
      "note_on channel=9 note=69 velocity=0 time=1\n",
      "note_on channel=9 note=39 velocity=70 time=0\n",
      "note_on channel=9 note=42 velocity=57 time=0\n",
      "note_on channel=9 note=37 velocity=120 time=0\n",
      "note_on channel=9 note=37 velocity=0 time=1\n",
      "note_on channel=9 note=42 velocity=0 time=0\n",
      "note_on channel=9 note=39 velocity=0 time=0\n",
      "note_on channel=9 note=54 velocity=45 time=1\n",
      "note_on channel=9 note=54 velocity=0 time=1\n",
      "note_on channel=9 note=42 velocity=73 time=57\n",
      "note_on channel=9 note=42 velocity=0 time=1\n",
      "note_on channel=9 note=69 velocity=50 time=0\n",
      "note_on channel=9 note=69 velocity=0 time=1\n",
      "note_on channel=9 note=49 velocity=50 time=58\n",
      "note_on channel=9 note=42 velocity=73 time=0\n",
      "note_on channel=9 note=35 velocity=110 time=0\n",
      "note_on channel=9 note=35 velocity=0 time=1\n",
      "note_on channel=9 note=42 velocity=0 time=0\n",
      "note_on channel=9 note=49 velocity=0 time=0\n",
      "note_on channel=9 note=69 velocity=50 time=0\n",
      "note_on channel=9 note=69 velocity=0 time=1\n",
      "note_on channel=9 note=69 velocity=39 time=28\n",
      "note_on channel=9 note=42 velocity=57 time=0\n",
      "note_on channel=9 note=42 velocity=0 time=1\n",
      "note_on channel=9 note=69 velocity=0 time=0\n",
      "note_on channel=9 note=42 velocity=62 time=29\n",
      "note_on channel=9 note=69 velocity=42 time=0\n",
      "note_on channel=9 note=69 velocity=0 time=1\n",
      "note_on channel=9 note=42 velocity=0 time=0\n",
      "note_on channel=9 note=69 velocity=39 time=58\n",
      "note_on channel=9 note=69 velocity=0 time=1\n",
      "note_on channel=9 note=37 velocity=120 time=0\n",
      "note_on channel=9 note=39 velocity=68 time=0\n",
      "note_on channel=9 note=42 velocity=57 time=0\n",
      "note_on channel=9 note=42 velocity=0 time=1\n",
      "note_on channel=9 note=39 velocity=0 time=0\n",
      "note_on channel=9 note=37 velocity=0 time=0\n",
      "note_on channel=9 note=69 velocity=39 time=59\n",
      "note_on channel=9 note=42 velocity=57 time=0\n",
      "note_on channel=9 note=35 velocity=108 time=0\n",
      "note_on channel=9 note=35 velocity=0 time=1\n",
      "note_on channel=9 note=42 velocity=0 time=0\n",
      "note_on channel=9 note=69 velocity=0 time=0\n",
      "note_on channel=9 note=42 velocity=73 time=59\n",
      "note_on channel=9 note=42 velocity=0 time=1\n",
      "note_on channel=9 note=69 velocity=50 time=0\n",
      "note_on channel=9 note=69 velocity=0 time=1\n",
      "note_on channel=9 note=46 velocity=73 time=58\n",
      "note_on channel=9 note=46 velocity=0 time=1\n",
      "note_on channel=9 note=42 velocity=57 time=59\n",
      "note_on channel=9 note=54 velocity=45 time=0\n",
      "note_on channel=9 note=37 velocity=120 time=0\n",
      "note_on channel=9 note=39 velocity=70 time=0\n",
      "note_on channel=9 note=39 velocity=0 time=1\n",
      "note_on channel=9 note=42 velocity=0 time=0\n",
      "note_on channel=9 note=54 velocity=0 time=0\n",
      "note_on channel=9 note=37 velocity=0 time=0\n",
      "note_on channel=9 note=69 velocity=39 time=0\n",
      "note_on channel=9 note=69 velocity=0 time=1\n",
      "note_on channel=9 note=69 velocity=50 time=58\n",
      "note_on channel=9 note=42 velocity=73 time=0\n",
      "note_on channel=9 note=42 velocity=0 time=1\n",
      "note_on channel=9 note=69 velocity=0 time=0\n",
      "note_on channel=9 note=69 velocity=50 time=58\n",
      "note_on channel=9 note=69 velocity=0 time=1\n",
      "note_on channel=9 note=57 velocity=57 time=0\n",
      "note_on channel=9 note=35 velocity=110 time=0\n",
      "note_on channel=9 note=42 velocity=73 time=0\n",
      "note_on channel=9 note=42 velocity=0 time=1\n",
      "note_on channel=9 note=35 velocity=0 time=0\n",
      "note_on channel=9 note=57 velocity=0 time=0\n",
      "note_on channel=9 note=42 velocity=57 time=119\n",
      "note_on channel=9 note=42 velocity=0 time=1\n",
      "note_on channel=9 note=69 velocity=39 time=0\n",
      "note_on channel=9 note=69 velocity=0 time=1\n",
      "note_on channel=9 note=49 velocity=59 time=58\n",
      "note_on channel=9 note=35 velocity=108 time=0\n",
      "note_on channel=9 note=35 velocity=0 time=1\n",
      "note_on channel=9 note=49 velocity=0 time=0\n",
      "note_on channel=9 note=69 velocity=50 time=58\n",
      "note_on channel=9 note=69 velocity=0 time=1\n",
      "note_on channel=9 note=42 velocity=73 time=0\n",
      "note_on channel=9 note=42 velocity=0 time=1\n",
      "note_on channel=9 note=35 velocity=84 time=59\n",
      "note_on channel=9 note=46 velocity=73 time=0\n",
      "note_on channel=9 note=46 velocity=0 time=1\n",
      "note_on channel=9 note=35 velocity=0 time=0\n",
      "note_on channel=9 note=39 velocity=70 time=59\n",
      "note_on channel=9 note=37 velocity=120 time=0\n",
      "note_on channel=9 note=69 velocity=39 time=0\n",
      "note_on channel=9 note=42 velocity=57 time=0\n",
      "note_on channel=9 note=42 velocity=0 time=1\n",
      "note_on channel=9 note=39 velocity=0 time=0\n",
      "note_on channel=9 note=37 velocity=0 time=0\n",
      "note_on channel=9 note=69 velocity=0 time=0\n",
      "note_on channel=9 note=54 velocity=45 time=0\n",
      "note_on channel=9 note=54 velocity=0 time=1\n",
      "note_on channel=9 note=54 velocity=17 time=118\n",
      "note_on channel=9 note=49 velocity=69 time=0\n",
      "note_on channel=9 note=35 velocity=110 time=0\n",
      "note_on channel=9 note=35 velocity=0 time=1\n",
      "note_on channel=9 note=49 velocity=0 time=0\n",
      "note_on channel=9 note=54 velocity=0 time=0\n",
      "note_on channel=9 note=54 velocity=15 time=29\n",
      "note_on channel=9 note=54 velocity=0 time=1\n",
      "note_on channel=9 note=69 velocity=39 time=28\n",
      "note_on channel=9 note=69 velocity=0 time=1\n",
      "note_on channel=9 note=42 velocity=57 time=0\n",
      "note_on channel=9 note=42 velocity=0 time=1\n",
      "note_on channel=9 note=54 velocity=19 time=1\n",
      "note_on channel=9 note=54 velocity=0 time=1\n",
      "note_on channel=9 note=54 velocity=13 time=28\n",
      "note_on channel=9 note=54 velocity=0 time=1\n",
      "note_on channel=9 note=54 velocity=45 time=27\n",
      "note_on channel=9 note=54 velocity=0 time=1\n",
      "note_on channel=9 note=39 velocity=68 time=0\n",
      "note_on channel=9 note=37 velocity=120 time=0\n",
      "note_on channel=9 note=42 velocity=57 time=0\n",
      "note_on channel=9 note=42 velocity=0 time=1\n",
      "note_on channel=9 note=37 velocity=0 time=0\n",
      "note_on channel=9 note=39 velocity=0 time=0\n",
      "note_on channel=9 note=69 velocity=39 time=0\n",
      "note_on channel=9 note=69 velocity=0 time=1\n",
      "note_on channel=9 note=54 velocity=15 time=29\n",
      "note_on channel=9 note=54 velocity=0 time=1\n",
      "note_on channel=9 note=54 velocity=19 time=27\n",
      "note_on channel=9 note=54 velocity=0 time=1\n",
      "note_on channel=9 note=35 velocity=108 time=0\n",
      "note_on channel=9 note=42 velocity=73 time=0\n",
      "note_on channel=9 note=42 velocity=0 time=1\n",
      "note_on channel=9 note=35 velocity=0 time=0\n",
      "note_on channel=9 note=69 velocity=50 time=0\n",
      "note_on channel=9 note=69 velocity=0 time=1\n",
      "note_on channel=9 note=54 velocity=13 time=28\n",
      "note_on channel=9 note=54 velocity=0 time=1\n",
      "note_on channel=9 note=54 velocity=17 time=28\n",
      "note_on channel=9 note=54 velocity=0 time=1\n",
      "note_on channel=9 note=69 velocity=39 time=0\n",
      "note_on channel=9 note=42 velocity=57 time=0\n",
      "note_on channel=9 note=42 velocity=0 time=1\n",
      "note_on channel=9 note=69 velocity=0 time=0\n",
      "note_on channel=9 note=54 velocity=15 time=28\n",
      "note_on channel=9 note=54 velocity=0 time=1\n",
      "note_on channel=9 note=46 velocity=73 time=30\n",
      "note_on channel=9 note=46 velocity=0 time=1\n",
      "note_on channel=9 note=54 velocity=19 time=0\n",
      "note_on channel=9 note=54 velocity=0 time=1\n",
      "note_on channel=9 note=54 velocity=13 time=29\n",
      "note_on channel=9 note=54 velocity=0 time=1\n",
      "note_on channel=9 note=54 velocity=45 time=27\n",
      "note_on channel=9 note=54 velocity=0 time=1\n",
      "note_on channel=9 note=39 velocity=70 time=0\n",
      "note_on channel=9 note=42 velocity=57 time=0\n",
      "note_on channel=9 note=37 velocity=120 time=0\n",
      "note_on channel=9 note=37 velocity=0 time=1\n",
      "note_on channel=9 note=42 velocity=0 time=0\n",
      "note_on channel=9 note=39 velocity=0 time=0\n",
      "note_on channel=9 note=69 velocity=39 time=0\n",
      "note_on channel=9 note=69 velocity=0 time=1\n",
      "note_on channel=9 note=54 velocity=15 time=30\n",
      "note_on channel=9 note=54 velocity=0 time=1\n",
      "note_on channel=9 note=54 velocity=19 time=26\n",
      "note_on channel=9 note=69 velocity=39 time=0\n",
      "note_on channel=9 note=69 velocity=0 time=1\n",
      "note_on channel=9 note=54 velocity=0 time=0\n",
      "note_on channel=9 note=42 velocity=57 time=0\n",
      "note_on channel=9 note=42 velocity=0 time=1\n",
      "note_on channel=9 note=54 velocity=13 time=29\n",
      "note_on channel=9 note=54 velocity=0 time=1\n",
      "note_on channel=9 note=69 velocity=50 time=28\n",
      "note_on channel=9 note=69 velocity=0 time=1\n",
      "note_on channel=9 note=35 velocity=110 time=0\n",
      "note_on channel=9 note=54 velocity=17 time=0\n",
      "note_on channel=9 note=42 velocity=73 time=0\n",
      "note_on channel=9 note=42 velocity=0 time=1\n",
      "note_on channel=9 note=54 velocity=0 time=0\n",
      "note_on channel=9 note=35 velocity=0 time=0\n",
      "note_on channel=9 note=42 velocity=57 time=29\n",
      "note_on channel=9 note=69 velocity=39 time=0\n",
      "note_on channel=9 note=69 velocity=0 time=1\n",
      "note_on channel=9 note=42 velocity=0 time=0\n",
      "note_on channel=9 note=54 velocity=15 time=1\n",
      "note_on channel=9 note=54 velocity=0 time=1\n",
      "note_on channel=9 note=69 velocity=42 time=26\n",
      "note_on channel=9 note=69 velocity=0 time=1\n",
      "note_on channel=9 note=42 velocity=62 time=0\n",
      "note_on channel=9 note=42 velocity=0 time=1\n",
      "note_on channel=9 note=54 velocity=19 time=0\n",
      "note_on channel=9 note=54 velocity=0 time=1\n",
      "note_on channel=9 note=54 velocity=13 time=30\n",
      "note_on channel=9 note=54 velocity=0 time=1\n",
      "note_on channel=9 note=54 velocity=45 time=26\n",
      "note_on channel=9 note=54 velocity=0 time=1\n",
      "note_on channel=9 note=39 velocity=68 time=0\n",
      "note_on channel=9 note=42 velocity=57 time=0\n",
      "note_on channel=9 note=37 velocity=120 time=0\n",
      "note_on channel=9 note=37 velocity=0 time=1\n",
      "note_on channel=9 note=42 velocity=0 time=0\n",
      "note_on channel=9 note=39 velocity=0 time=0\n",
      "note_on channel=9 note=69 velocity=39 time=0\n",
      "note_on channel=9 note=69 velocity=0 time=1\n",
      "note_on channel=9 note=54 velocity=15 time=29\n",
      "note_on channel=9 note=54 velocity=0 time=1\n",
      "note_on channel=9 note=54 velocity=19 time=27\n",
      "note_on channel=9 note=54 velocity=0 time=1\n",
      "note_on channel=9 note=69 velocity=39 time=0\n",
      "note_on channel=9 note=35 velocity=108 time=0\n",
      "note_on channel=9 note=42 velocity=57 time=0\n",
      "note_on channel=9 note=42 velocity=0 time=1\n",
      "note_on channel=9 note=35 velocity=0 time=0\n",
      "note_on channel=9 note=69 velocity=0 time=0\n",
      "note_on channel=9 note=54 velocity=13 time=29\n",
      "note_on channel=9 note=54 velocity=0 time=1\n",
      "note_on channel=9 note=69 velocity=50 time=28\n",
      "note_on channel=9 note=69 velocity=0 time=1\n",
      "note_on channel=9 note=42 velocity=73 time=0\n",
      "note_on channel=9 note=42 velocity=0 time=1\n",
      "note_on channel=9 note=54 velocity=17 time=1\n",
      "note_on channel=9 note=54 velocity=0 time=1\n",
      "note_on channel=9 note=54 velocity=15 time=29\n",
      "note_on channel=9 note=54 velocity=0 time=1\n",
      "note_on channel=9 note=46 velocity=73 time=27\n",
      "note_on channel=9 note=35 velocity=110 time=0\n",
      "note_on channel=9 note=35 velocity=0 time=1\n",
      "note_on channel=9 note=46 velocity=0 time=0\n",
      "note_on channel=9 note=54 velocity=19 time=1\n",
      "note_on channel=9 note=54 velocity=0 time=1\n",
      "note_on channel=9 note=54 velocity=13 time=27\n",
      "note_on channel=9 note=54 velocity=0 time=1\n",
      "note_on channel=9 note=69 velocity=39 time=28\n",
      "note_on channel=9 note=69 velocity=0 time=1\n",
      "note_on channel=9 note=37 velocity=120 time=0\n",
      "note_on channel=9 note=39 velocity=70 time=0\n",
      "note_on channel=9 note=42 velocity=57 time=0\n",
      "note_on channel=9 note=42 velocity=0 time=1\n",
      "note_on channel=9 note=39 velocity=0 time=0\n",
      "note_on channel=9 note=37 velocity=0 time=0\n",
      "note_on channel=9 note=54 velocity=45 time=0\n",
      "note_on channel=9 note=54 velocity=0 time=1\n",
      "note_on channel=9 note=54 velocity=15 time=28\n",
      "note_on channel=9 note=54 velocity=0 time=1\n",
      "note_on channel=9 note=42 velocity=73 time=29\n",
      "note_on channel=9 note=54 velocity=19 time=0\n",
      "note_on channel=9 note=54 velocity=0 time=1\n",
      "note_on channel=9 note=42 velocity=0 time=0\n",
      "note_on channel=9 note=69 velocity=50 time=0\n",
      "note_on channel=9 note=69 velocity=0 time=1\n",
      "note_on channel=9 note=54 velocity=13 time=29\n",
      "note_on channel=9 note=54 velocity=0 time=1\n",
      "note_on channel=9 note=54 velocity=17 time=27\n",
      "note_on channel=9 note=54 velocity=0 time=1\n",
      "note_on channel=9 note=69 velocity=50 time=0\n",
      "note_on channel=9 note=49 velocity=50 time=0\n",
      "note_on channel=9 note=42 velocity=73 time=0\n",
      "note_on channel=9 note=35 velocity=110 time=0\n",
      "note_on channel=9 note=35 velocity=0 time=1\n",
      "note_on channel=9 note=69 velocity=0 time=0\n",
      "note_on channel=9 note=49 velocity=0 time=0\n",
      "note_on channel=9 note=42 velocity=0 time=0\n",
      "note_on channel=9 note=54 velocity=15 time=28\n",
      "note_on channel=9 note=69 velocity=39 time=0\n",
      "note_on channel=9 note=69 velocity=0 time=1\n",
      "note_on channel=9 note=54 velocity=0 time=0\n",
      "note_on channel=9 note=42 velocity=57 time=0\n",
      "note_on channel=9 note=42 velocity=0 time=1\n",
      "note_on channel=9 note=54 velocity=19 time=28\n",
      "note_on channel=9 note=69 velocity=42 time=0\n",
      "note_on channel=9 note=69 velocity=0 time=1\n",
      "note_on channel=9 note=54 velocity=0 time=0\n",
      "note_on channel=9 note=42 velocity=62 time=0\n",
      "note_on channel=9 note=42 velocity=0 time=1\n",
      "note_on channel=9 note=54 velocity=13 time=29\n",
      "note_on channel=9 note=54 velocity=0 time=1\n",
      "note_on channel=9 note=42 velocity=57 time=29\n",
      "note_on channel=9 note=39 velocity=68 time=0\n",
      "note_on channel=9 note=37 velocity=120 time=0\n",
      "note_on channel=9 note=37 velocity=0 time=1\n",
      "note_on channel=9 note=39 velocity=0 time=0\n",
      "note_on channel=9 note=42 velocity=0 time=0\n",
      "note_on channel=9 note=69 velocity=39 time=0\n",
      "note_on channel=9 note=69 velocity=0 time=1\n",
      "note_on channel=9 note=54 velocity=45 time=0\n",
      "note_on channel=9 note=54 velocity=0 time=1\n",
      "note_on channel=9 note=54 velocity=15 time=26\n",
      "note_on channel=9 note=54 velocity=0 time=1\n",
      "note_on channel=9 note=69 velocity=39 time=29\n",
      "note_on channel=9 note=69 velocity=0 time=1\n",
      "note_on channel=9 note=35 velocity=108 time=0\n",
      "note_on channel=9 note=42 velocity=57 time=0\n",
      "note_on channel=9 note=42 velocity=0 time=1\n",
      "note_on channel=9 note=35 velocity=0 time=0\n",
      "note_on channel=9 note=54 velocity=19 time=0\n",
      "note_on channel=9 note=54 velocity=0 time=1\n",
      "note_on channel=9 note=54 velocity=13 time=27\n",
      "note_on channel=9 note=54 velocity=0 time=1\n",
      "note_on channel=9 note=54 velocity=17 time=29\n",
      "note_on channel=9 note=69 velocity=50 time=0\n",
      "note_on channel=9 note=69 velocity=0 time=1\n",
      "note_on channel=9 note=54 velocity=0 time=0\n",
      "note_on channel=9 note=42 velocity=73 time=0\n",
      "note_on channel=9 note=42 velocity=0 time=1\n",
      "note_on channel=9 note=54 velocity=15 time=30\n",
      "note_on channel=9 note=54 velocity=0 time=1\n",
      "note_on channel=9 note=46 velocity=73 time=28\n",
      "note_on channel=9 note=46 velocity=0 time=1\n",
      "note_on channel=9 note=54 velocity=19 time=0\n",
      "note_on channel=9 note=54 velocity=0 time=1\n",
      "note_on channel=9 note=54 velocity=13 time=27\n",
      "note_on channel=9 note=54 velocity=0 time=1\n",
      "note_on channel=9 note=69 velocity=39 time=30\n",
      "note_on channel=9 note=39 velocity=70 time=0\n",
      "note_on channel=9 note=42 velocity=57 time=0\n",
      "note_on channel=9 note=37 velocity=120 time=0\n",
      "note_on channel=9 note=37 velocity=0 time=1\n",
      "note_on channel=9 note=69 velocity=0 time=0\n",
      "note_on channel=9 note=39 velocity=0 time=0\n",
      "note_on channel=9 note=42 velocity=0 time=0\n",
      "note_on channel=9 note=54 velocity=45 time=0\n",
      "note_on channel=9 note=54 velocity=0 time=1\n",
      "note_on channel=9 note=54 velocity=15 time=29\n",
      "note_on channel=9 note=54 velocity=0 time=1\n",
      "note_on channel=9 note=54 velocity=19 time=28\n",
      "note_on channel=9 note=42 velocity=73 time=0\n",
      "note_on channel=9 note=42 velocity=0 time=1\n",
      "note_on channel=9 note=54 velocity=0 time=0\n",
      "note_on channel=9 note=69 velocity=50 time=0\n",
      "note_on channel=9 note=69 velocity=0 time=1\n",
      "note_on channel=9 note=54 velocity=13 time=29\n",
      "note_on channel=9 note=54 velocity=0 time=1\n",
      "note_on channel=9 note=69 velocity=50 time=27\n",
      "note_on channel=9 note=69 velocity=0 time=1\n",
      "note_on channel=9 note=42 velocity=73 time=0\n",
      "note_on channel=9 note=35 velocity=110 time=0\n",
      "note_on channel=9 note=35 velocity=0 time=1\n",
      "note_on channel=9 note=42 velocity=0 time=0\n",
      "note_on channel=9 note=54 velocity=17 time=1\n",
      "note_on channel=9 note=54 velocity=0 time=1\n",
      "note_on channel=9 note=69 velocity=39 time=26\n",
      "note_on channel=9 note=69 velocity=0 time=1\n",
      "note_on channel=9 note=42 velocity=57 time=0\n",
      "note_on channel=9 note=54 velocity=15 time=0\n",
      "note_on channel=9 note=54 velocity=0 time=1\n",
      "note_on channel=9 note=42 velocity=0 time=0\n",
      "note_on channel=9 note=69 velocity=42 time=28\n",
      "note_on channel=9 note=69 velocity=0 time=1\n",
      "note_on channel=9 note=42 velocity=62 time=0\n",
      "note_on channel=9 note=42 velocity=0 time=1\n",
      "note_on channel=9 note=54 velocity=19 time=1\n",
      "note_on channel=9 note=54 velocity=0 time=1\n",
      "note_on channel=9 note=54 velocity=13 time=26\n",
      "note_on channel=9 note=54 velocity=0 time=1\n",
      "note_on channel=9 note=69 velocity=39 time=30\n",
      "note_on channel=9 note=37 velocity=120 time=0\n",
      "note_on channel=9 note=54 velocity=45 time=0\n",
      "note_on channel=9 note=39 velocity=68 time=0\n",
      "note_on channel=9 note=42 velocity=57 time=0\n",
      "note_on channel=9 note=42 velocity=0 time=1\n",
      "note_on channel=9 note=54 velocity=0 time=0\n",
      "note_on channel=9 note=69 velocity=0 time=0\n",
      "note_on channel=9 note=37 velocity=0 time=0\n",
      "note_on channel=9 note=39 velocity=0 time=0\n",
      "note_on channel=9 note=54 velocity=15 time=31\n",
      "note_on channel=9 note=54 velocity=0 time=1\n",
      "note_on channel=9 note=42 velocity=57 time=27\n",
      "note_on channel=9 note=35 velocity=108 time=0\n",
      "note_on channel=9 note=69 velocity=39 time=0\n",
      "note_on channel=9 note=69 velocity=0 time=1\n",
      "note_on channel=9 note=35 velocity=0 time=0\n",
      "note_on channel=9 note=42 velocity=0 time=0\n",
      "note_on channel=9 note=54 velocity=19 time=1\n",
      "note_on channel=9 note=54 velocity=0 time=1\n",
      "note_on channel=9 note=54 velocity=13 time=28\n",
      "note_on channel=9 note=54 velocity=0 time=1\n",
      "note_on channel=9 note=42 velocity=73 time=28\n",
      "note_on channel=9 note=69 velocity=50 time=0\n",
      "note_on channel=9 note=69 velocity=0 time=1\n",
      "note_on channel=9 note=42 velocity=0 time=0\n",
      "note_on channel=9 note=54 velocity=17 time=1\n",
      "note_on channel=9 note=54 velocity=0 time=1\n",
      "note_on channel=9 note=54 velocity=15 time=26\n",
      "note_on channel=9 note=54 velocity=0 time=1\n",
      "note_on channel=9 note=54 velocity=19 time=29\n",
      "note_on channel=9 note=54 velocity=0 time=1\n",
      "note_on channel=9 note=46 velocity=73 time=0\n",
      "note_on channel=9 note=35 velocity=84 time=0\n",
      "note_on channel=9 note=35 velocity=0 time=1\n",
      "note_on channel=9 note=46 velocity=0 time=0\n",
      "note_on channel=9 note=54 velocity=13 time=31\n",
      "note_on channel=9 note=54 velocity=0 time=1\n",
      "note_on channel=9 note=54 velocity=45 time=26\n",
      "note_on channel=9 note=69 velocity=39 time=0\n",
      "note_on channel=9 note=69 velocity=0 time=1\n",
      "note_on channel=9 note=54 velocity=0 time=0\n",
      "note_on channel=9 note=39 velocity=70 time=0\n",
      "note_on channel=9 note=37 velocity=120 time=0\n",
      "note_on channel=9 note=42 velocity=57 time=0\n",
      "note_on channel=9 note=42 velocity=0 time=1\n",
      "note_on channel=9 note=37 velocity=0 time=0\n",
      "note_on channel=9 note=39 velocity=0 time=0\n",
      "note_on channel=9 note=54 velocity=15 time=30\n",
      "note_on channel=9 note=54 velocity=0 time=1\n",
      "note_on channel=9 note=54 velocity=19 time=27\n",
      "note_on channel=9 note=54 velocity=0 time=1\n",
      "note_on channel=9 note=42 velocity=73 time=0\n",
      "note_on channel=9 note=42 velocity=0 time=1\n",
      "note_on channel=9 note=69 velocity=50 time=0\n",
      "note_on channel=9 note=69 velocity=0 time=1\n",
      "note_on channel=9 note=54 velocity=13 time=30\n",
      "note_on channel=9 note=54 velocity=0 time=1\n",
      "note_on channel=9 note=49 velocity=54 time=27\n",
      "note_on channel=9 note=35 velocity=110 time=0\n",
      "note_on channel=9 note=35 velocity=0 time=1\n",
      "note_on channel=9 note=49 velocity=0 time=0\n",
      "note_on channel=9 note=54 velocity=17 time=0\n",
      "note_on channel=9 note=54 velocity=0 time=1\n",
      "note_on channel=9 note=54 velocity=15 time=30\n",
      "note_on channel=9 note=54 velocity=0 time=1\n",
      "note_on channel=9 note=69 velocity=39 time=27\n",
      "note_on channel=9 note=54 velocity=19 time=0\n",
      "note_on channel=9 note=42 velocity=57 time=0\n",
      "note_on channel=9 note=42 velocity=0 time=1\n",
      "note_on channel=9 note=54 velocity=0 time=0\n",
      "note_on channel=9 note=69 velocity=0 time=0\n",
      "note_on channel=9 note=54 velocity=13 time=29\n",
      "note_on channel=9 note=54 velocity=0 time=1\n",
      "note_on channel=9 note=54 velocity=45 time=28\n",
      "note_on channel=9 note=54 velocity=0 time=1\n",
      "note_on channel=9 note=39 velocity=68 time=0\n",
      "note_on channel=9 note=37 velocity=120 time=0\n",
      "note_on channel=9 note=42 velocity=57 time=0\n",
      "note_on channel=9 note=42 velocity=0 time=1\n",
      "note_on channel=9 note=37 velocity=0 time=0\n",
      "note_on channel=9 note=39 velocity=0 time=0\n",
      "note_on channel=9 note=69 velocity=39 time=0\n",
      "note_on channel=9 note=69 velocity=0 time=1\n",
      "note_on channel=9 note=54 velocity=15 time=28\n",
      "note_on channel=9 note=54 velocity=0 time=1\n",
      "note_on channel=9 note=35 velocity=108 time=29\n",
      "note_on channel=9 note=69 velocity=50 time=0\n",
      "note_on channel=9 note=42 velocity=73 time=0\n",
      "note_on channel=9 note=42 velocity=0 time=1\n",
      "note_on channel=9 note=69 velocity=0 time=0\n",
      "note_on channel=9 note=35 velocity=0 time=0\n",
      "note_on channel=9 note=54 velocity=19 time=0\n",
      "note_on channel=9 note=54 velocity=0 time=1\n",
      "note_on channel=9 note=54 velocity=13 time=28\n",
      "note_on channel=9 note=54 velocity=0 time=1\n",
      "note_on channel=9 note=54 velocity=17 time=28\n",
      "note_on channel=9 note=54 velocity=0 time=1\n",
      "note_on channel=9 note=42 velocity=57 time=0\n",
      "note_on channel=9 note=42 velocity=0 time=1\n",
      "note_on channel=9 note=69 velocity=39 time=0\n",
      "note_on channel=9 note=69 velocity=0 time=1\n",
      "note_on channel=9 note=54 velocity=15 time=28\n",
      "note_on channel=9 note=54 velocity=0 time=1\n",
      "note_on channel=9 note=46 velocity=73 time=29\n",
      "note_on channel=9 note=46 velocity=0 time=1\n",
      "note_on channel=9 note=54 velocity=19 time=1\n",
      "note_on channel=9 note=54 velocity=0 time=1\n",
      "note_on channel=9 note=54 velocity=13 time=26\n",
      "note_on channel=9 note=54 velocity=0 time=1\n",
      "note_on channel=9 note=54 velocity=45 time=29\n",
      "note_on channel=9 note=54 velocity=0 time=1\n",
      "note_on channel=9 note=39 velocity=70 time=0\n",
      "note_on channel=9 note=42 velocity=57 time=0\n",
      "note_on channel=9 note=37 velocity=120 time=0\n",
      "note_on channel=9 note=37 velocity=0 time=1\n",
      "note_on channel=9 note=42 velocity=0 time=0\n",
      "note_on channel=9 note=39 velocity=0 time=0\n",
      "note_on channel=9 note=69 velocity=39 time=0\n",
      "note_on channel=9 note=69 velocity=0 time=1\n",
      "note_on channel=9 note=54 velocity=15 time=28\n",
      "note_on channel=9 note=54 velocity=0 time=1\n",
      "note_on channel=9 note=69 velocity=39 time=28\n",
      "note_on channel=9 note=69 velocity=0 time=1\n",
      "note_on channel=9 note=42 velocity=57 time=0\n",
      "note_on channel=9 note=42 velocity=0 time=1\n",
      "note_on channel=9 note=54 velocity=19 time=0\n",
      "note_on channel=9 note=54 velocity=0 time=1\n",
      "note_on channel=9 note=54 velocity=13 time=30\n",
      "note_on channel=9 note=54 velocity=0 time=1\n",
      "note_on channel=9 note=54 velocity=17 time=27\n",
      "note_on channel=9 note=35 velocity=110 time=0\n",
      "note_on channel=9 note=42 velocity=73 time=0\n",
      "note_on channel=9 note=42 velocity=0 time=1\n",
      "note_on channel=9 note=35 velocity=0 time=0\n",
      "note_on channel=9 note=54 velocity=0 time=0\n",
      "note_on channel=9 note=69 velocity=50 time=0\n",
      "note_on channel=9 note=69 velocity=0 time=1\n",
      "note_on channel=9 note=42 velocity=57 time=28\n",
      "note_on channel=9 note=69 velocity=39 time=0\n",
      "note_on channel=9 note=69 velocity=0 time=1\n",
      "note_on channel=9 note=42 velocity=0 time=0\n",
      "note_on channel=9 note=54 velocity=15 time=0\n",
      "note_on channel=9 note=54 velocity=0 time=1\n",
      "note_on channel=9 note=42 velocity=62 time=28\n",
      "note_on channel=9 note=42 velocity=0 time=1\n",
      "note_on channel=9 note=69 velocity=42 time=0\n",
      "note_on channel=9 note=54 velocity=19 time=0\n",
      "note_on channel=9 note=54 velocity=0 time=1\n",
      "note_on channel=9 note=69 velocity=0 time=0\n",
      "note_on channel=9 note=54 velocity=13 time=27\n",
      "note_on channel=9 note=54 velocity=0 time=1\n",
      "note_on channel=9 note=69 velocity=39 time=30\n",
      "note_on channel=9 note=39 velocity=68 time=0\n",
      "note_on channel=9 note=37 velocity=120 time=0\n",
      "note_on channel=9 note=42 velocity=57 time=0\n",
      "note_on channel=9 note=42 velocity=0 time=1\n",
      "note_on channel=9 note=69 velocity=0 time=0\n",
      "note_on channel=9 note=39 velocity=0 time=0\n",
      "note_on channel=9 note=37 velocity=0 time=0\n",
      "note_on channel=9 note=54 velocity=45 time=0\n",
      "note_on channel=9 note=54 velocity=0 time=1\n",
      "note_on channel=9 note=54 velocity=15 time=27\n",
      "note_on channel=9 note=54 velocity=0 time=1\n",
      "note_on channel=9 note=42 velocity=57 time=30\n",
      "note_on channel=9 note=35 velocity=108 time=0\n",
      "note_on channel=9 note=54 velocity=19 time=0\n",
      "note_on channel=9 note=54 velocity=0 time=1\n",
      "note_on channel=9 note=35 velocity=0 time=0\n",
      "note_on channel=9 note=42 velocity=0 time=0\n",
      "note_on channel=9 note=69 velocity=39 time=0\n",
      "note_on channel=9 note=69 velocity=0 time=1\n",
      "note_on channel=9 note=54 velocity=13 time=29\n",
      "note_on channel=9 note=54 velocity=0 time=1\n",
      "note_on channel=9 note=42 velocity=73 time=28\n",
      "note_on channel=9 note=69 velocity=50 time=0\n",
      "note_on channel=9 note=54 velocity=17 time=0\n",
      "note_on channel=9 note=54 velocity=0 time=1\n",
      "note_on channel=9 note=69 velocity=0 time=0\n",
      "note_on channel=9 note=42 velocity=0 time=0\n",
      "note_on channel=9 note=54 velocity=15 time=30\n",
      "note_on channel=9 note=54 velocity=0 time=1\n",
      "note_on channel=9 note=46 velocity=73 time=28\n",
      "note_on channel=9 note=35 velocity=110 time=0\n",
      "note_on channel=9 note=35 velocity=0 time=1\n",
      "note_on channel=9 note=46 velocity=0 time=0\n",
      "note_on channel=9 note=54 velocity=19 time=0\n",
      "note_on channel=9 note=54 velocity=0 time=1\n",
      "note_on channel=9 note=54 velocity=13 time=30\n",
      "note_on channel=9 note=54 velocity=0 time=1\n",
      "note_on channel=9 note=54 velocity=45 time=26\n",
      "note_on channel=9 note=69 velocity=39 time=0\n",
      "note_on channel=9 note=69 velocity=0 time=1\n",
      "note_on channel=9 note=54 velocity=0 time=0\n",
      "note_on channel=9 note=39 velocity=70 time=0\n",
      "note_on channel=9 note=37 velocity=120 time=0\n",
      "note_on channel=9 note=42 velocity=57 time=0\n",
      "note_on channel=9 note=42 velocity=0 time=1\n",
      "note_on channel=9 note=37 velocity=0 time=0\n",
      "note_on channel=9 note=39 velocity=0 time=0\n",
      "note_on channel=9 note=54 velocity=15 time=28\n",
      "note_on channel=9 note=54 velocity=0 time=1\n",
      "note_on channel=9 note=54 velocity=19 time=29\n",
      "note_on channel=9 note=54 velocity=0 time=1\n",
      "note_on channel=9 note=42 velocity=73 time=0\n",
      "note_on channel=9 note=69 velocity=50 time=0\n",
      "note_on channel=9 note=69 velocity=0 time=1\n",
      "note_on channel=9 note=42 velocity=0 time=0\n",
      "note_on channel=9 note=54 velocity=13 time=28\n",
      "note_on channel=9 note=54 velocity=0 time=1\n",
      "note_on channel=9 note=35 velocity=110 time=30\n",
      "note_on channel=9 note=49 velocity=52 time=0\n",
      "note_on channel=9 note=49 velocity=0 time=1\n",
      "note_on channel=9 note=35 velocity=0 time=0\n",
      "note_on channel=9 note=54 velocity=17 time=1\n",
      "note_on channel=9 note=54 velocity=0 time=1\n",
      "note_on channel=9 note=69 velocity=39 time=26\n",
      "note_on channel=9 note=69 velocity=0 time=1\n",
      "note_on channel=9 note=42 velocity=57 time=0\n",
      "note_on channel=9 note=42 velocity=0 time=1\n",
      "note_on channel=9 note=54 velocity=15 time=1\n",
      "note_on channel=9 note=54 velocity=0 time=1\n",
      "note_on channel=9 note=42 velocity=62 time=27\n",
      "note_on channel=9 note=42 velocity=0 time=1\n",
      "note_on channel=9 note=69 velocity=42 time=0\n",
      "note_on channel=9 note=54 velocity=19 time=0\n",
      "note_on channel=9 note=54 velocity=0 time=1\n",
      "note_on channel=9 note=69 velocity=0 time=0\n",
      "note_on channel=9 note=54 velocity=13 time=28\n",
      "note_on channel=9 note=54 velocity=0 time=1\n",
      "note_on channel=9 note=69 velocity=39 time=28\n",
      "note_on channel=9 note=69 velocity=0 time=1\n",
      "note_on channel=9 note=37 velocity=120 time=0\n",
      "note_on channel=9 note=42 velocity=57 time=0\n",
      "note_on channel=9 note=39 velocity=68 time=0\n",
      "note_on channel=9 note=39 velocity=0 time=1\n",
      "note_on channel=9 note=42 velocity=0 time=0\n",
      "note_on channel=9 note=37 velocity=0 time=0\n",
      "note_on channel=9 note=54 velocity=45 time=1\n",
      "note_on channel=9 note=54 velocity=0 time=1\n",
      "note_on channel=9 note=54 velocity=15 time=26\n",
      "note_on channel=9 note=54 velocity=0 time=1\n",
      "note_on channel=9 note=42 velocity=57 time=30\n",
      "note_on channel=9 note=69 velocity=39 time=0\n",
      "note_on channel=9 note=35 velocity=108 time=0\n",
      "note_on channel=9 note=35 velocity=0 time=1\n",
      "note_on channel=9 note=69 velocity=0 time=0\n",
      "note_on channel=9 note=42 velocity=0 time=0\n",
      "note_on channel=9 note=54 velocity=19 time=1\n",
      "note_on channel=9 note=54 velocity=0 time=1\n",
      "note_on channel=9 note=54 velocity=13 time=28\n",
      "note_on channel=9 note=54 velocity=0 time=1\n",
      "note_on channel=9 note=42 velocity=73 time=28\n",
      "note_on channel=9 note=69 velocity=50 time=0\n",
      "note_on channel=9 note=69 velocity=0 time=1\n",
      "note_on channel=9 note=42 velocity=0 time=0\n",
      "note_on channel=9 note=54 velocity=17 time=1\n",
      "note_on channel=9 note=54 velocity=0 time=1\n",
      "note_on channel=9 note=54 velocity=15 time=28\n",
      "note_on channel=9 note=54 velocity=0 time=1\n",
      "note_on channel=9 note=46 velocity=73 time=28\n",
      "note_on channel=9 note=54 velocity=19 time=0\n",
      "note_on channel=9 note=54 velocity=0 time=1\n",
      "note_on channel=9 note=46 velocity=0 time=0\n",
      "note_on channel=9 note=54 velocity=13 time=31\n",
      "note_on channel=9 note=54 velocity=0 time=1\n",
      "note_on channel=9 note=69 velocity=39 time=26\n",
      "note_on channel=9 note=69 velocity=0 time=1\n",
      "note_on channel=9 note=42 velocity=57 time=0\n",
      "note_on channel=9 note=37 velocity=120 time=0\n",
      "note_on channel=9 note=39 velocity=70 time=0\n",
      "note_on channel=9 note=39 velocity=0 time=1\n",
      "note_on channel=9 note=37 velocity=0 time=0\n",
      "note_on channel=9 note=42 velocity=0 time=0\n",
      "note_on channel=9 note=54 velocity=45 time=1\n",
      "note_on channel=9 note=54 velocity=0 time=1\n",
      "note_on channel=9 note=54 velocity=15 time=27\n",
      "note_on channel=9 note=54 velocity=0 time=1\n",
      "note_on channel=9 note=54 velocity=19 time=28\n",
      "note_on channel=9 note=69 velocity=50 time=0\n",
      "note_on channel=9 note=69 velocity=0 time=1\n",
      "note_on channel=9 note=54 velocity=0 time=0\n",
      "note_on channel=9 note=42 velocity=73 time=0\n",
      "note_on channel=9 note=42 velocity=0 time=1\n",
      "note_on channel=9 note=54 velocity=13 time=31\n",
      "note_on channel=9 note=54 velocity=0 time=1\n",
      "note_on channel=9 note=49 velocity=52 time=27\n",
      "note_on channel=9 note=35 velocity=110 time=0\n",
      "note_on channel=9 note=42 velocity=73 time=0\n",
      "note_on channel=9 note=42 velocity=0 time=1\n",
      "note_on channel=9 note=35 velocity=0 time=0\n",
      "note_on channel=9 note=49 velocity=0 time=0\n",
      "note_on channel=9 note=69 velocity=50 time=0\n",
      "note_on channel=9 note=69 velocity=0 time=1\n",
      "note_on channel=9 note=54 velocity=17 time=0\n",
      "note_on channel=9 note=54 velocity=0 time=1\n",
      "note_on channel=9 note=54 velocity=15 time=27\n",
      "note_on channel=9 note=42 velocity=57 time=0\n",
      "note_on channel=9 note=42 velocity=0 time=1\n",
      "note_on channel=9 note=54 velocity=0 time=0\n",
      "note_on channel=9 note=69 velocity=39 time=0\n",
      "note_on channel=9 note=69 velocity=0 time=1\n",
      "note_on channel=9 note=54 velocity=19 time=27\n",
      "note_on channel=9 note=54 velocity=0 time=1\n",
      "note_on channel=9 note=69 velocity=42 time=0\n",
      "note_on channel=9 note=42 velocity=62 time=0\n",
      "note_on channel=9 note=42 velocity=0 time=1\n",
      "note_on channel=9 note=69 velocity=0 time=0\n",
      "note_on channel=9 note=54 velocity=13 time=30\n",
      "note_on channel=9 note=54 velocity=0 time=1\n",
      "note_on channel=9 note=54 velocity=45 time=27\n",
      "note_on channel=9 note=69 velocity=39 time=0\n",
      "note_on channel=9 note=69 velocity=0 time=1\n",
      "note_on channel=9 note=54 velocity=0 time=0\n",
      "note_on channel=9 note=37 velocity=120 time=0\n",
      "note_on channel=9 note=39 velocity=68 time=0\n",
      "note_on channel=9 note=42 velocity=57 time=0\n",
      "note_on channel=9 note=42 velocity=0 time=1\n",
      "note_on channel=9 note=39 velocity=0 time=0\n",
      "note_on channel=9 note=37 velocity=0 time=0\n",
      "note_on channel=9 note=54 velocity=15 time=28\n",
      "note_on channel=9 note=54 velocity=0 time=1\n",
      "note_on channel=9 note=54 velocity=19 time=29\n",
      "note_on channel=9 note=54 velocity=0 time=1\n",
      "note_on channel=9 note=69 velocity=39 time=0\n",
      "note_on channel=9 note=35 velocity=108 time=0\n",
      "note_on channel=9 note=42 velocity=57 time=0\n",
      "note_on channel=9 note=42 velocity=0 time=1\n",
      "note_on channel=9 note=35 velocity=0 time=0\n",
      "note_on channel=9 note=69 velocity=0 time=0\n",
      "note_on channel=9 note=54 velocity=13 time=30\n",
      "note_on channel=9 note=54 velocity=0 time=1\n",
      "note_on channel=9 note=54 velocity=17 time=27\n",
      "note_on channel=9 note=54 velocity=0 time=1\n",
      "note_on channel=9 note=69 velocity=50 time=0\n",
      "note_on channel=9 note=42 velocity=73 time=0\n",
      "note_on channel=9 note=42 velocity=0 time=1\n",
      "note_on channel=9 note=69 velocity=0 time=0\n",
      "note_on channel=9 note=54 velocity=15 time=30\n",
      "note_on channel=9 note=54 velocity=0 time=1\n",
      "note_on channel=9 note=35 velocity=84 time=28\n",
      "note_on channel=9 note=46 velocity=73 time=0\n",
      "note_on channel=9 note=54 velocity=19 time=0\n",
      "note_on channel=9 note=54 velocity=0 time=1\n",
      "note_on channel=9 note=46 velocity=0 time=0\n",
      "note_on channel=9 note=35 velocity=0 time=0\n",
      "note_on channel=9 note=54 velocity=13 time=28\n",
      "note_on channel=9 note=54 velocity=0 time=1\n",
      "note_on channel=9 note=69 velocity=39 time=30\n",
      "note_on channel=9 note=42 velocity=57 time=0\n",
      "note_on channel=9 note=35 velocity=110 time=0\n",
      "note_on channel=9 note=39 velocity=70 time=0\n",
      "note_on channel=9 note=37 velocity=120 time=0\n",
      "note_on channel=9 note=37 velocity=0 time=1\n",
      "note_on channel=9 note=35 velocity=0 time=0\n",
      "note_on channel=9 note=69 velocity=0 time=0\n",
      "note_on channel=9 note=42 velocity=0 time=0\n",
      "note_on channel=9 note=39 velocity=0 time=0\n",
      "note_on channel=9 note=54 velocity=45 time=0\n",
      "note_on channel=9 note=54 velocity=0 time=1\n",
      "note_on channel=9 note=54 velocity=15 time=30\n",
      "note_on channel=9 note=54 velocity=0 time=1\n",
      "note_on channel=9 note=42 velocity=73 time=27\n",
      "note_on channel=9 note=69 velocity=50 time=0\n",
      "note_on channel=9 note=54 velocity=19 time=0\n",
      "note_on channel=9 note=54 velocity=0 time=1\n",
      "note_on channel=9 note=69 velocity=0 time=0\n",
      "note_on channel=9 note=42 velocity=0 time=0\n",
      "note_on channel=9 note=54 velocity=13 time=30\n",
      "note_on channel=9 note=54 velocity=0 time=1\n",
      "note_on channel=9 note=35 velocity=110 time=28\n",
      "note_on channel=9 note=49 velocity=69 time=0\n",
      "note_on channel=9 note=49 velocity=0 time=1\n",
      "note_on channel=9 note=35 velocity=0 time=0\n",
      "note_on channel=9 note=54 velocity=17 time=1\n",
      "note_on channel=9 note=54 velocity=0 time=1\n",
      "note_on channel=9 note=54 velocity=15 time=29\n",
      "note_on channel=9 note=54 velocity=0 time=1\n",
      "note_on channel=9 note=42 velocity=57 time=27\n",
      "note_on channel=9 note=54 velocity=19 time=0\n",
      "note_on channel=9 note=54 velocity=0 time=1\n",
      "note_on channel=9 note=42 velocity=0 time=0\n",
      "note_on channel=9 note=69 velocity=39 time=0\n",
      "note_on channel=9 note=69 velocity=0 time=1\n",
      "note_on channel=9 note=54 velocity=13 time=30\n",
      "note_on channel=9 note=54 velocity=0 time=1\n",
      "note_on channel=9 note=37 velocity=120 time=27\n",
      "note_on channel=9 note=39 velocity=68 time=0\n",
      "note_on channel=9 note=42 velocity=57 time=0\n",
      "note_on channel=9 note=42 velocity=0 time=1\n",
      "note_on channel=9 note=39 velocity=0 time=0\n",
      "note_on channel=9 note=37 velocity=0 time=0\n",
      "note_on channel=9 note=69 velocity=39 time=0\n",
      "note_on channel=9 note=69 velocity=0 time=1\n",
      "note_on channel=9 note=54 velocity=45 time=0\n",
      "note_on channel=9 note=54 velocity=0 time=1\n",
      "note_on channel=9 note=54 velocity=15 time=27\n",
      "note_on channel=9 note=54 velocity=0 time=1\n",
      "note_on channel=9 note=54 velocity=19 time=29\n",
      "note_on channel=9 note=35 velocity=108 time=0\n",
      "note_on channel=9 note=42 velocity=73 time=0\n",
      "note_on channel=9 note=42 velocity=0 time=1\n",
      "note_on channel=9 note=35 velocity=0 time=0\n",
      "note_on channel=9 note=54 velocity=0 time=0\n",
      "note_on channel=9 note=69 velocity=50 time=0\n",
      "note_on channel=9 note=69 velocity=0 time=1\n",
      "note_on channel=9 note=54 velocity=13 time=28\n",
      "note_on channel=9 note=54 velocity=0 time=1\n",
      "note_on channel=9 note=42 velocity=57 time=29\n",
      "note_on channel=9 note=42 velocity=0 time=1\n",
      "note_on channel=9 note=69 velocity=39 time=0\n",
      "note_on channel=9 note=69 velocity=0 time=1\n",
      "note_on channel=9 note=54 velocity=17 time=0\n",
      "note_on channel=9 note=54 velocity=0 time=1\n",
      "note_on channel=9 note=54 velocity=15 time=29\n",
      "note_on channel=9 note=54 velocity=0 time=1\n",
      "note_on channel=9 note=46 velocity=73 time=27\n",
      "note_on channel=9 note=46 velocity=0 time=1\n",
      "note_on channel=9 note=54 velocity=19 time=0\n",
      "note_on channel=9 note=54 velocity=0 time=1\n",
      "note_on channel=9 note=54 velocity=13 time=29\n",
      "note_on channel=9 note=54 velocity=0 time=1\n",
      "note_on channel=9 note=54 velocity=45 time=27\n",
      "note_on channel=9 note=54 velocity=0 time=1\n",
      "note_on channel=9 note=39 velocity=70 time=0\n",
      "note_on channel=9 note=69 velocity=39 time=0\n",
      "note_on channel=9 note=37 velocity=120 time=0\n",
      "note_on channel=9 note=42 velocity=57 time=0\n",
      "note_on channel=9 note=42 velocity=0 time=1\n",
      "note_on channel=9 note=39 velocity=0 time=0\n",
      "note_on channel=9 note=69 velocity=0 time=0\n",
      "note_on channel=9 note=37 velocity=0 time=0\n",
      "note_on channel=9 note=54 velocity=15 time=28\n",
      "note_on channel=9 note=54 velocity=0 time=1\n",
      "note_on channel=9 note=54 velocity=19 time=29\n",
      "note_on channel=9 note=69 velocity=39 time=0\n",
      "note_on channel=9 note=69 velocity=0 time=1\n",
      "note_on channel=9 note=54 velocity=0 time=0\n",
      "note_on channel=9 note=42 velocity=57 time=0\n",
      "note_on channel=9 note=42 velocity=0 time=1\n",
      "note_on channel=9 note=54 velocity=13 time=31\n",
      "note_on channel=9 note=54 velocity=0 time=1\n",
      "note_on channel=9 note=69 velocity=50 time=26\n",
      "note_on channel=9 note=69 velocity=0 time=1\n",
      "note_on channel=9 note=35 velocity=110 time=0\n",
      "note_on channel=9 note=54 velocity=17 time=0\n",
      "note_on channel=9 note=42 velocity=73 time=0\n",
      "note_on channel=9 note=42 velocity=0 time=1\n",
      "note_on channel=9 note=54 velocity=0 time=0\n",
      "note_on channel=9 note=35 velocity=0 time=0\n",
      "note_on channel=9 note=42 velocity=57 time=29\n",
      "note_on channel=9 note=42 velocity=0 time=1\n",
      "note_on channel=9 note=69 velocity=39 time=0\n",
      "note_on channel=9 note=54 velocity=15 time=0\n",
      "note_on channel=9 note=54 velocity=0 time=1\n",
      "note_on channel=9 note=69 velocity=0 time=0\n",
      "note_on channel=9 note=69 velocity=42 time=27\n",
      "note_on channel=9 note=69 velocity=0 time=1\n",
      "note_on channel=9 note=42 velocity=62 time=0\n",
      "note_on channel=9 note=42 velocity=0 time=1\n",
      "note_on channel=9 note=54 velocity=19 time=1\n",
      "note_on channel=9 note=54 velocity=0 time=1\n",
      "note_on channel=9 note=54 velocity=13 time=29\n",
      "note_on channel=9 note=54 velocity=0 time=1\n",
      "note_on channel=9 note=54 velocity=45 time=26\n",
      "note_on channel=9 note=54 velocity=0 time=1\n",
      "note_on channel=9 note=39 velocity=68 time=0\n",
      "note_on channel=9 note=42 velocity=57 time=0\n",
      "note_on channel=9 note=37 velocity=120 time=0\n",
      "note_on channel=9 note=37 velocity=0 time=1\n",
      "note_on channel=9 note=42 velocity=0 time=0\n",
      "note_on channel=9 note=39 velocity=0 time=0\n",
      "note_on channel=9 note=69 velocity=39 time=0\n",
      "note_on channel=9 note=69 velocity=0 time=1\n",
      "note_on channel=9 note=54 velocity=15 time=30\n",
      "note_on channel=9 note=54 velocity=0 time=1\n",
      "note_on channel=9 note=54 velocity=19 time=26\n",
      "note_on channel=9 note=69 velocity=39 time=0\n",
      "note_on channel=9 note=69 velocity=0 time=1\n",
      "note_on channel=9 note=54 velocity=0 time=0\n",
      "note_on channel=9 note=35 velocity=108 time=0\n",
      "note_on channel=9 note=42 velocity=57 time=0\n",
      "note_on channel=9 note=42 velocity=0 time=1\n",
      "note_on channel=9 note=35 velocity=0 time=0\n",
      "note_on channel=9 note=54 velocity=13 time=29\n",
      "note_on channel=9 note=54 velocity=0 time=1\n",
      "note_on channel=9 note=69 velocity=50 time=28\n",
      "note_on channel=9 note=69 velocity=0 time=1\n",
      "note_on channel=9 note=42 velocity=73 time=0\n",
      "note_on channel=9 note=42 velocity=0 time=1\n",
      "note_on channel=9 note=54 velocity=17 time=0\n",
      "note_on channel=9 note=54 velocity=0 time=1\n",
      "note_on channel=9 note=54 velocity=15 time=29\n",
      "note_on channel=9 note=54 velocity=0 time=1\n",
      "note_on channel=9 note=54 velocity=19 time=28\n",
      "note_on channel=9 note=35 velocity=110 time=0\n",
      "note_on channel=9 note=46 velocity=73 time=0\n",
      "note_on channel=9 note=46 velocity=0 time=1\n",
      "note_on channel=9 note=35 velocity=0 time=0\n",
      "note_on channel=9 note=54 velocity=0 time=0\n",
      "note_on channel=9 note=54 velocity=13 time=28\n",
      "note_on channel=9 note=54 velocity=0 time=1\n",
      "note_on channel=9 note=54 velocity=45 time=29\n",
      "note_on channel=9 note=69 velocity=39 time=0\n",
      "note_on channel=9 note=69 velocity=0 time=1\n",
      "note_on channel=9 note=54 velocity=0 time=0\n",
      "note_on channel=9 note=37 velocity=120 time=0\n",
      "note_on channel=9 note=42 velocity=57 time=0\n",
      "note_on channel=9 note=39 velocity=70 time=0\n",
      "note_on channel=9 note=39 velocity=0 time=1\n",
      "note_on channel=9 note=42 velocity=0 time=0\n",
      "note_on channel=9 note=37 velocity=0 time=0\n",
      "note_on channel=9 note=54 velocity=15 time=31\n",
      "note_on channel=9 note=54 velocity=0 time=1\n",
      "note_on channel=9 note=42 velocity=73 time=27\n",
      "note_on channel=9 note=69 velocity=50 time=0\n",
      "note_on channel=9 note=54 velocity=19 time=0\n",
      "note_on channel=9 note=54 velocity=0 time=1\n",
      "note_on channel=9 note=69 velocity=0 time=0\n",
      "note_on channel=9 note=42 velocity=0 time=0\n",
      "note_on channel=9 note=54 velocity=13 time=30\n",
      "note_on channel=9 note=54 velocity=0 time=1\n",
      "note_on channel=9 note=69 velocity=50 time=27\n",
      "note_on channel=9 note=69 velocity=0 time=1\n",
      "note_on channel=9 note=49 velocity=69 time=0\n",
      "note_on channel=9 note=35 velocity=110 time=0\n",
      "note_on channel=9 note=42 velocity=73 time=0\n",
      "note_on channel=9 note=42 velocity=0 time=1\n",
      "note_on channel=9 note=35 velocity=0 time=0\n",
      "note_on channel=9 note=49 velocity=0 time=0\n",
      "note_on channel=9 note=54 velocity=17 time=0\n",
      "note_on channel=9 note=54 velocity=0 time=1\n",
      "note_on channel=9 note=69 velocity=39 time=27\n",
      "note_on channel=9 note=69 velocity=0 time=1\n",
      "note_on channel=9 note=54 velocity=15 time=0\n",
      "note_on channel=9 note=42 velocity=57 time=0\n",
      "note_on channel=9 note=42 velocity=0 time=1\n",
      "note_on channel=9 note=54 velocity=0 time=0\n",
      "note_on channel=9 note=54 velocity=19 time=29\n",
      "note_on channel=9 note=42 velocity=62 time=0\n",
      "note_on channel=9 note=69 velocity=42 time=0\n",
      "note_on channel=9 note=69 velocity=0 time=1\n",
      "note_on channel=9 note=42 velocity=0 time=0\n",
      "note_on channel=9 note=54 velocity=0 time=0\n",
      "note_on channel=9 note=54 velocity=13 time=30\n",
      "note_on channel=9 note=54 velocity=0 time=1\n",
      "note_on channel=9 note=42 velocity=57 time=28\n",
      "note_on channel=9 note=39 velocity=68 time=0\n",
      "note_on channel=9 note=37 velocity=120 time=0\n",
      "note_on channel=9 note=37 velocity=0 time=1\n",
      "note_on channel=9 note=39 velocity=0 time=0\n",
      "note_on channel=9 note=42 velocity=0 time=0\n",
      "note_on channel=9 note=69 velocity=39 time=0\n",
      "note_on channel=9 note=54 velocity=45 time=0\n",
      "note_on channel=9 note=54 velocity=0 time=1\n",
      "note_on channel=9 note=69 velocity=0 time=0\n",
      "note_on channel=9 note=54 velocity=15 time=28\n",
      "note_on channel=9 note=54 velocity=0 time=1\n",
      "note_on channel=9 note=42 velocity=57 time=29\n",
      "note_on channel=9 note=35 velocity=108 time=0\n",
      "note_on channel=9 note=69 velocity=39 time=0\n",
      "note_on channel=9 note=69 velocity=0 time=1\n",
      "note_on channel=9 note=35 velocity=0 time=0\n",
      "note_on channel=9 note=42 velocity=0 time=0\n",
      "note_on channel=9 note=54 velocity=19 time=1\n",
      "note_on channel=9 note=54 velocity=0 time=1\n",
      "note_on channel=9 note=54 velocity=13 time=28\n",
      "note_on channel=9 note=54 velocity=0 time=1\n",
      "note_on channel=9 note=54 velocity=17 time=28\n",
      "note_on channel=9 note=42 velocity=73 time=0\n",
      "note_on channel=9 note=42 velocity=0 time=1\n",
      "note_on channel=9 note=54 velocity=0 time=0\n",
      "note_on channel=9 note=69 velocity=50 time=0\n",
      "note_on channel=9 note=69 velocity=0 time=1\n",
      "note_on channel=9 note=54 velocity=15 time=29\n",
      "note_on channel=9 note=54 velocity=0 time=1\n",
      "note_on channel=9 note=46 velocity=73 time=28\n",
      "note_on channel=9 note=54 velocity=19 time=0\n",
      "note_on channel=9 note=54 velocity=0 time=1\n",
      "note_on channel=9 note=46 velocity=0 time=0\n",
      "note_on channel=9 note=54 velocity=13 time=30\n",
      "note_on channel=9 note=54 velocity=0 time=1\n",
      "note_on channel=9 note=69 velocity=39 time=28\n",
      "note_on channel=9 note=39 velocity=70 time=0\n",
      "note_on channel=9 note=42 velocity=57 time=0\n",
      "note_on channel=9 note=37 velocity=120 time=0\n",
      "note_on channel=9 note=37 velocity=0 time=1\n",
      "note_on channel=9 note=69 velocity=0 time=0\n",
      "note_on channel=9 note=39 velocity=0 time=0\n",
      "note_on channel=9 note=42 velocity=0 time=0\n",
      "note_on channel=9 note=54 velocity=45 time=0\n",
      "note_on channel=9 note=54 velocity=0 time=1\n",
      "note_on channel=9 note=54 velocity=15 time=28\n",
      "note_on channel=9 note=54 velocity=0 time=1\n",
      "note_on channel=9 note=69 velocity=50 time=28\n",
      "note_on channel=9 note=69 velocity=0 time=1\n",
      "note_on channel=9 note=42 velocity=73 time=0\n",
      "note_on channel=9 note=42 velocity=0 time=1\n",
      "note_on channel=9 note=54 velocity=19 time=0\n",
      "note_on channel=9 note=54 velocity=0 time=1\n",
      "note_on channel=9 note=54 velocity=13 time=30\n",
      "note_on channel=9 note=54 velocity=0 time=1\n",
      "note_on channel=9 note=42 velocity=73 time=27\n",
      "note_on channel=9 note=35 velocity=110 time=0\n",
      "note_on channel=9 note=54 velocity=17 time=0\n",
      "note_on channel=9 note=54 velocity=0 time=1\n",
      "note_on channel=9 note=35 velocity=0 time=0\n",
      "note_on channel=9 note=42 velocity=0 time=0\n",
      "note_on channel=9 note=69 velocity=50 time=0\n",
      "note_on channel=9 note=69 velocity=0 time=1\n",
      "note_on channel=9 note=54 velocity=15 time=27\n",
      "note_on channel=9 note=69 velocity=39 time=0\n",
      "note_on channel=9 note=69 velocity=0 time=1\n",
      "note_on channel=9 note=54 velocity=0 time=0\n",
      "note_on channel=9 note=42 velocity=57 time=0\n",
      "note_on channel=9 note=42 velocity=0 time=1\n",
      "note_on channel=9 note=42 velocity=62 time=29\n",
      "note_on channel=9 note=42 velocity=0 time=1\n",
      "note_on channel=9 note=69 velocity=42 time=0\n",
      "note_on channel=9 note=69 velocity=0 time=1\n",
      "note_on channel=9 note=54 velocity=19 time=0\n",
      "note_on channel=9 note=54 velocity=0 time=1\n",
      "note_on channel=9 note=54 velocity=13 time=28\n",
      "note_on channel=9 note=54 velocity=0 time=1\n",
      "note_on channel=9 note=42 velocity=57 time=28\n",
      "note_on channel=9 note=37 velocity=120 time=0\n",
      "note_on channel=9 note=39 velocity=68 time=0\n",
      "note_on channel=9 note=39 velocity=0 time=1\n",
      "note_on channel=9 note=37 velocity=0 time=0\n",
      "note_on channel=9 note=42 velocity=0 time=0\n",
      "note_on channel=9 note=69 velocity=39 time=0\n",
      "note_on channel=9 note=69 velocity=0 time=1\n",
      "note_on channel=9 note=54 velocity=45 time=0\n",
      "note_on channel=9 note=54 velocity=0 time=1\n",
      "note_on channel=9 note=54 velocity=15 time=28\n",
      "note_on channel=9 note=54 velocity=0 time=1\n",
      "note_on channel=9 note=54 velocity=19 time=27\n",
      "note_on channel=9 note=54 velocity=0 time=1\n",
      "note_on channel=9 note=42 velocity=57 time=0\n",
      "note_on channel=9 note=69 velocity=39 time=0\n",
      "note_on channel=9 note=35 velocity=108 time=0\n",
      "note_on channel=9 note=35 velocity=0 time=1\n",
      "note_on channel=9 note=69 velocity=0 time=0\n",
      "note_on channel=9 note=42 velocity=0 time=0\n",
      "note_on channel=9 note=54 velocity=13 time=29\n",
      "note_on channel=9 note=54 velocity=0 time=1\n",
      "note_on channel=9 note=69 velocity=50 time=28\n",
      "note_on channel=9 note=69 velocity=0 time=1\n",
      "note_on channel=9 note=42 velocity=73 time=0\n",
      "note_on channel=9 note=42 velocity=0 time=1\n",
      "note_on channel=9 note=54 velocity=17 time=0\n",
      "note_on channel=9 note=54 velocity=0 time=1\n",
      "note_on channel=9 note=54 velocity=15 time=27\n",
      "note_on channel=9 note=54 velocity=0 time=1\n",
      "note_on channel=9 note=46 velocity=73 time=30\n",
      "note_on channel=9 note=35 velocity=84 time=0\n",
      "note_on channel=9 note=35 velocity=0 time=1\n",
      "note_on channel=9 note=46 velocity=0 time=0\n",
      "note_on channel=9 note=54 velocity=19 time=1\n",
      "note_on channel=9 note=54 velocity=0 time=1\n",
      "note_on channel=9 note=54 velocity=13 time=29\n",
      "note_on channel=9 note=54 velocity=0 time=1\n",
      "note_on channel=9 note=69 velocity=39 time=26\n",
      "note_on channel=9 note=69 velocity=0 time=1\n",
      "note_on channel=9 note=54 velocity=45 time=0\n",
      "note_on channel=9 note=39 velocity=70 time=0\n",
      "note_on channel=9 note=37 velocity=120 time=0\n",
      "note_on channel=9 note=42 velocity=57 time=0\n",
      "note_on channel=9 note=42 velocity=0 time=1\n",
      "note_on channel=9 note=54 velocity=0 time=0\n",
      "note_on channel=9 note=39 velocity=0 time=0\n",
      "note_on channel=9 note=37 velocity=0 time=0\n",
      "note_on channel=9 note=54 velocity=15 time=30\n",
      "note_on channel=9 note=54 velocity=0 time=1\n",
      "note_on channel=9 note=54 velocity=19 time=27\n",
      "note_on channel=9 note=54 velocity=0 time=1\n",
      "note_on channel=9 note=42 velocity=73 time=0\n",
      "note_on channel=9 note=42 velocity=0 time=1\n",
      "note_on channel=9 note=69 velocity=50 time=0\n",
      "note_on channel=9 note=69 velocity=0 time=1\n",
      "note_on channel=9 note=54 velocity=13 time=29\n",
      "note_on channel=9 note=54 velocity=0 time=1\n",
      "note_on channel=9 note=54 velocity=17 time=27\n",
      "note_on channel=9 note=54 velocity=0 time=1\n",
      "note_on channel=9 note=35 velocity=110 time=0\n",
      "note_on channel=9 note=49 velocity=52 time=0\n",
      "note_on channel=9 note=49 velocity=0 time=1\n",
      "note_on channel=9 note=35 velocity=0 time=0\n",
      "note_on channel=9 note=69 velocity=39 time=28\n",
      "note_on channel=9 note=69 velocity=0 time=1\n",
      "note_on channel=9 note=42 velocity=57 time=0\n",
      "note_on channel=9 note=42 velocity=0 time=1\n",
      "note_on channel=9 note=54 velocity=15 time=1\n",
      "note_on channel=9 note=54 velocity=0 time=1\n",
      "note_on channel=9 note=54 velocity=19 time=26\n",
      "note_on channel=9 note=54 velocity=0 time=1\n",
      "note_on channel=9 note=69 velocity=42 time=0\n",
      "note_on channel=9 note=42 velocity=62 time=0\n",
      "note_on channel=9 note=42 velocity=0 time=1\n",
      "note_on channel=9 note=69 velocity=0 time=0\n",
      "note_on channel=9 note=54 velocity=13 time=30\n",
      "note_on channel=9 note=54 velocity=0 time=1\n",
      "note_on channel=9 note=42 velocity=57 time=28\n",
      "note_on channel=9 note=54 velocity=45 time=0\n",
      "note_on channel=9 note=69 velocity=39 time=0\n",
      "note_on channel=9 note=37 velocity=120 time=0\n",
      "note_on channel=9 note=39 velocity=68 time=0\n",
      "note_on channel=9 note=39 velocity=0 time=1\n",
      "note_on channel=9 note=69 velocity=0 time=0\n",
      "note_on channel=9 note=42 velocity=0 time=0\n",
      "note_on channel=9 note=54 velocity=0 time=0\n",
      "note_on channel=9 note=37 velocity=0 time=0\n",
      "note_on channel=9 note=54 velocity=15 time=30\n",
      "note_on channel=9 note=54 velocity=0 time=1\n",
      "note_on channel=9 note=42 velocity=57 time=28\n",
      "note_on channel=9 note=54 velocity=19 time=0\n",
      "note_on channel=9 note=35 velocity=108 time=0\n",
      "note_on channel=9 note=35 velocity=0 time=1\n",
      "note_on channel=9 note=54 velocity=0 time=0\n",
      "note_on channel=9 note=42 velocity=0 time=0\n",
      "note_on channel=9 note=69 velocity=39 time=0\n",
      "note_on channel=9 note=69 velocity=0 time=1\n",
      "note_on channel=9 note=54 velocity=13 time=27\n",
      "note_on channel=9 note=54 velocity=0 time=1\n",
      "note_on channel=9 note=69 velocity=50 time=29\n",
      "note_on channel=9 note=69 velocity=0 time=1\n",
      "note_on channel=9 note=42 velocity=73 time=0\n",
      "note_on channel=9 note=42 velocity=0 time=1\n",
      "note_on channel=9 note=54 velocity=17 time=1\n",
      "note_on channel=9 note=54 velocity=0 time=1\n",
      "note_on channel=9 note=54 velocity=15 time=26\n",
      "note_on channel=9 note=54 velocity=0 time=1\n",
      "note_on channel=9 note=46 velocity=73 time=30\n",
      "note_on channel=9 note=54 velocity=19 time=0\n",
      "note_on channel=9 note=54 velocity=0 time=1\n",
      "note_on channel=9 note=46 velocity=0 time=0\n",
      "note_on channel=9 note=54 velocity=13 time=31\n",
      "note_on channel=9 note=54 velocity=0 time=1\n",
      "note_on channel=9 note=42 velocity=57 time=27\n",
      "note_on channel=9 note=39 velocity=70 time=0\n",
      "note_on channel=9 note=37 velocity=120 time=0\n",
      "note_on channel=9 note=54 velocity=45 time=0\n",
      "note_on channel=9 note=54 velocity=0 time=1\n",
      "note_on channel=9 note=42 velocity=0 time=0\n",
      "note_on channel=9 note=39 velocity=0 time=0\n",
      "note_on channel=9 note=37 velocity=0 time=0\n",
      "note_on channel=9 note=69 velocity=39 time=0\n",
      "note_on channel=9 note=69 velocity=0 time=1\n",
      "note_on channel=9 note=54 velocity=15 time=27\n",
      "note_on channel=9 note=54 velocity=0 time=1\n",
      "note_on channel=9 note=42 velocity=73 time=30\n",
      "note_on channel=9 note=69 velocity=50 time=0\n",
      "note_on channel=9 note=69 velocity=0 time=1\n",
      "note_on channel=9 note=42 velocity=0 time=0\n",
      "note_on channel=9 note=54 velocity=19 time=1\n",
      "note_on channel=9 note=54 velocity=0 time=1\n",
      "note_on channel=9 note=54 velocity=13 time=26\n",
      "note_on channel=9 note=54 velocity=0 time=1\n",
      "note_on channel=9 note=69 velocity=50 time=29\n",
      "note_on channel=9 note=69 velocity=0 time=1\n",
      "note_on channel=9 note=42 velocity=73 time=0\n",
      "note_on channel=9 note=35 velocity=110 time=0\n",
      "note_on channel=9 note=35 velocity=0 time=1\n",
      "note_on channel=9 note=42 velocity=0 time=0\n",
      "note_on channel=9 note=54 velocity=17 time=0\n",
      "note_on channel=9 note=54 velocity=0 time=1\n",
      "note_on channel=9 note=42 velocity=57 time=28\n",
      "note_on channel=9 note=69 velocity=39 time=0\n",
      "note_on channel=9 note=69 velocity=0 time=1\n",
      "note_on channel=9 note=42 velocity=0 time=0\n",
      "note_on channel=9 note=54 velocity=15 time=0\n",
      "note_on channel=9 note=54 velocity=0 time=1\n",
      "note_on channel=9 note=54 velocity=19 time=27\n",
      "note_on channel=9 note=54 velocity=0 time=1\n",
      "note_on channel=9 note=42 velocity=62 time=0\n",
      "note_on channel=9 note=42 velocity=0 time=1\n",
      "note_on channel=9 note=69 velocity=42 time=0\n",
      "note_on channel=9 note=69 velocity=0 time=1\n",
      "note_on channel=9 note=54 velocity=13 time=30\n",
      "note_on channel=9 note=54 velocity=0 time=1\n",
      "note_on channel=9 note=39 velocity=68 time=27\n",
      "note_on channel=9 note=54 velocity=45 time=0\n",
      "note_on channel=9 note=37 velocity=120 time=0\n",
      "note_on channel=9 note=42 velocity=57 time=0\n",
      "note_on channel=9 note=42 velocity=0 time=1\n",
      "note_on channel=9 note=39 velocity=0 time=0\n",
      "note_on channel=9 note=54 velocity=0 time=0\n",
      "note_on channel=9 note=37 velocity=0 time=0\n",
      "note_on channel=9 note=69 velocity=39 time=0\n",
      "note_on channel=9 note=69 velocity=0 time=1\n",
      "note_on channel=9 note=54 velocity=15 time=27\n",
      "note_on channel=9 note=54 velocity=0 time=1\n",
      "note_on channel=9 note=54 velocity=19 time=29\n",
      "note_on channel=9 note=54 velocity=0 time=1\n",
      "note_on channel=9 note=35 velocity=108 time=0\n",
      "note_on channel=9 note=42 velocity=57 time=0\n",
      "note_on channel=9 note=69 velocity=39 time=0\n",
      "note_on channel=9 note=69 velocity=0 time=1\n",
      "note_on channel=9 note=42 velocity=0 time=0\n",
      "note_on channel=9 note=35 velocity=0 time=0\n",
      "note_on channel=9 note=54 velocity=13 time=30\n",
      "note_on channel=9 note=54 velocity=0 time=1\n",
      "note_on channel=9 note=54 velocity=20 time=27\n",
      "note_on channel=9 note=54 velocity=0 time=1\n",
      "note_on channel=9 note=69 velocity=50 time=0\n",
      "note_on channel=9 note=42 velocity=73 time=0\n",
      "note_on channel=9 note=42 velocity=0 time=1\n",
      "note_on channel=9 note=69 velocity=0 time=0\n",
      "note_on channel=9 note=54 velocity=18 time=9\n",
      "note_on channel=9 note=54 velocity=0 time=1\n",
      "note_on channel=9 note=54 velocity=22 time=9\n",
      "note_on channel=9 note=54 velocity=0 time=1\n",
      "note_on channel=9 note=54 velocity=15 time=9\n",
      "note_on channel=9 note=54 velocity=0 time=1\n",
      "note_on channel=9 note=54 velocity=20 time=10\n",
      "note_on channel=9 note=54 velocity=0 time=1\n",
      "note_on channel=9 note=54 velocity=18 time=7\n",
      "note_on channel=9 note=54 velocity=0 time=1\n",
      "note_on channel=9 note=54 velocity=22 time=10\n",
      "note_on channel=9 note=35 velocity=84 time=0\n",
      "note_on channel=9 note=46 velocity=73 time=0\n",
      "note_on channel=9 note=46 velocity=0 time=1\n",
      "note_on channel=9 note=35 velocity=0 time=0\n",
      "note_on channel=9 note=54 velocity=0 time=0\n",
      "note_on channel=9 note=54 velocity=15 time=11\n",
      "note_on channel=9 note=54 velocity=0 time=1\n",
      "note_on channel=9 note=54 velocity=20 time=7\n",
      "note_on channel=9 note=54 velocity=0 time=1\n",
      "note_on channel=9 note=54 velocity=18 time=10\n",
      "note_on channel=9 note=54 velocity=0 time=1\n",
      "note_on channel=9 note=54 velocity=22 time=10\n",
      "note_on channel=9 note=54 velocity=0 time=1\n",
      "note_on channel=9 note=54 velocity=15 time=7\n",
      "note_on channel=9 note=54 velocity=0 time=1\n",
      "note_on channel=9 note=39 velocity=70 time=9\n",
      "note_on channel=9 note=35 velocity=110 time=0\n",
      "note_on channel=9 note=42 velocity=57 time=0\n",
      "note_on channel=9 note=37 velocity=120 time=0\n",
      "note_on channel=9 note=37 velocity=0 time=1\n",
      "note_on channel=9 note=39 velocity=0 time=0\n",
      "note_on channel=9 note=35 velocity=0 time=0\n",
      "note_on channel=9 note=42 velocity=0 time=0\n",
      "note_on channel=9 note=69 velocity=39 time=0\n",
      "note_on channel=9 note=69 velocity=0 time=1\n",
      "note_on channel=9 note=54 velocity=20 time=0\n",
      "note_on channel=9 note=54 velocity=0 time=1\n",
      "note_on channel=9 note=54 velocity=18 time=7\n",
      "note_on channel=9 note=54 velocity=0 time=1\n",
      "note_on channel=9 note=54 velocity=22 time=10\n",
      "note_on channel=9 note=54 velocity=0 time=1\n",
      "note_on channel=9 note=54 velocity=15 time=7\n",
      "note_on channel=9 note=54 velocity=0 time=1\n",
      "note_on channel=9 note=54 velocity=20 time=10\n",
      "note_on channel=9 note=54 velocity=0 time=1\n",
      "note_on channel=9 note=54 velocity=18 time=10\n",
      "note_on channel=9 note=54 velocity=0 time=1\n",
      "note_on channel=9 note=42 velocity=73 time=8\n",
      "note_on channel=9 note=42 velocity=0 time=1\n",
      "note_on channel=9 note=69 velocity=50 time=0\n",
      "note_on channel=9 note=54 velocity=22 time=0\n",
      "note_on channel=9 note=54 velocity=0 time=1\n",
      "note_on channel=9 note=69 velocity=0 time=0\n",
      "note_on channel=9 note=54 velocity=15 time=7\n",
      "note_on channel=9 note=54 velocity=0 time=1\n",
      "note_on channel=9 note=54 velocity=20 time=12\n",
      "note_on channel=9 note=54 velocity=0 time=1\n",
      "note_on channel=9 note=54 velocity=18 time=8\n",
      "note_on channel=9 note=54 velocity=0 time=1\n",
      "note_on channel=9 note=54 velocity=22 time=8\n",
      "note_on channel=9 note=54 velocity=0 time=1\n",
      "note_on channel=9 note=54 velocity=15 time=11\n",
      "note_on channel=9 note=54 velocity=0 time=1\n",
      "note_on channel=9 note=54 velocity=20 time=6\n",
      "note_on channel=9 note=54 velocity=0 time=1\n",
      "note_on channel=9 note=49 velocity=69 time=0\n",
      "note_on channel=9 note=35 velocity=110 time=0\n",
      "note_on channel=9 note=35 velocity=0 time=1\n",
      "note_on channel=9 note=54 velocity=18 time=10\n",
      "note_on channel=9 note=54 velocity=0 time=1\n",
      "note_on channel=9 note=49 velocity=0 time=3\n",
      "note_on channel=9 note=54 velocity=21 time=7\n",
      "note_on channel=9 note=54 velocity=0 time=1\n",
      "note_on channel=9 note=54 velocity=14 time=6\n",
      "note_on channel=9 note=54 velocity=0 time=1\n",
      "note_on channel=9 note=54 velocity=19 time=10\n",
      "note_on channel=9 note=54 velocity=0 time=1\n",
      "note_on channel=9 note=54 velocity=17 time=9\n",
      "note_on channel=9 note=54 velocity=0 time=1\n",
      "note_on channel=9 note=54 velocity=20 time=11\n",
      "note_on channel=9 note=54 velocity=0 time=1\n",
      "note_on channel=9 note=54 velocity=14 time=9\n",
      "note_on channel=9 note=54 velocity=0 time=1\n",
      "note_on channel=9 note=54 velocity=18 time=9\n",
      "note_on channel=9 note=54 velocity=0 time=1\n",
      "note_on channel=9 note=54 velocity=16 time=7\n",
      "note_on channel=9 note=54 velocity=0 time=1\n",
      "note_on channel=9 note=54 velocity=20 time=8\n",
      "note_on channel=9 note=54 velocity=0 time=1\n",
      "note_on channel=9 note=54 velocity=13 time=10\n",
      "note_on channel=9 note=54 velocity=0 time=1\n",
      "note_on channel=9 note=51 velocity=50 time=9\n",
      "note_on channel=9 note=51 velocity=0 time=1\n",
      "note_on channel=9 note=69 velocity=35 time=0\n",
      "note_on channel=9 note=69 velocity=0 time=1\n",
      "note_on channel=9 note=54 velocity=18 time=0\n",
      "note_on channel=9 note=54 velocity=0 time=1\n",
      "note_on channel=9 note=54 velocity=16 time=7\n",
      "note_on channel=9 note=54 velocity=0 time=1\n",
      "note_on channel=9 note=54 velocity=19 time=11\n",
      "note_on channel=9 note=54 velocity=0 time=1\n",
      "note_on channel=9 note=54 velocity=13 time=6\n",
      "note_on channel=9 note=54 velocity=0 time=1\n",
      "note_on channel=9 note=54 velocity=17 time=11\n",
      "note_on channel=9 note=54 velocity=0 time=1\n",
      "note_on channel=9 note=54 velocity=15 time=10\n",
      "note_on channel=9 note=54 velocity=0 time=1\n",
      "note_on channel=9 note=54 velocity=18 time=6\n",
      "note_on channel=9 note=54 velocity=0 time=1\n",
      "note_on channel=9 note=54 velocity=12 time=12\n",
      "note_on channel=9 note=54 velocity=0 time=1\n",
      "note_on channel=9 note=54 velocity=16 time=8\n",
      "note_on channel=9 note=54 velocity=0 time=1\n",
      "note_on channel=9 note=54 velocity=14 time=8\n",
      "note_on channel=9 note=54 velocity=0 time=1\n",
      "note_on channel=9 note=54 velocity=18 time=8\n",
      "note_on channel=9 note=54 velocity=0 time=1\n",
      "note_on channel=9 note=54 velocity=12 time=9\n",
      "note_on channel=9 note=54 velocity=0 time=1\n",
      "note_on channel=9 note=51 velocity=67 time=10\n",
      "note_on channel=9 note=54 velocity=16 time=0\n",
      "note_on channel=9 note=54 velocity=0 time=1\n",
      "note_on channel=9 note=51 velocity=0 time=0\n",
      "note_on channel=9 note=69 velocity=45 time=0\n",
      "note_on channel=9 note=69 velocity=0 time=1\n",
      "note_on channel=9 note=54 velocity=14 time=7\n",
      "note_on channel=9 note=54 velocity=0 time=1\n",
      "note_on channel=9 note=54 velocity=17 time=9\n",
      "note_on channel=9 note=54 velocity=0 time=1\n",
      "note_on channel=9 note=54 velocity=11 time=10\n",
      "note_on channel=9 note=54 velocity=0 time=1\n",
      "note_on channel=9 note=54 velocity=15 time=11\n",
      "note_on channel=9 note=54 velocity=0 time=1\n",
      "note_on channel=9 note=54 velocity=13 time=7\n",
      "note_on channel=9 note=54 velocity=0 time=1\n",
      "note_on channel=9 note=54 velocity=16 time=8\n",
      "note_on channel=9 note=54 velocity=0 time=1\n",
      "note_on channel=9 note=54 velocity=11 time=10\n",
      "note_on channel=9 note=54 velocity=0 time=1\n",
      "note_on channel=9 note=54 velocity=14 time=11\n",
      "note_on channel=9 note=54 velocity=0 time=1\n",
      "note_on channel=9 note=54 velocity=13 time=8\n",
      "note_on channel=9 note=54 velocity=0 time=1\n",
      "note_on channel=9 note=54 velocity=15 time=7\n",
      "note_on channel=9 note=54 velocity=0 time=1\n",
      "note_on channel=9 note=54 velocity=10 time=12\n",
      "note_on channel=9 note=54 velocity=0 time=1\n",
      "note_on channel=9 note=54 velocity=31 time=7\n",
      "note_on channel=9 note=51 velocity=50 time=0\n",
      "note_on channel=9 note=51 velocity=0 time=1\n",
      "note_on channel=9 note=54 velocity=0 time=0\n",
      "note_on channel=9 note=69 velocity=35 time=0\n",
      "note_on channel=9 note=69 velocity=0 time=1\n",
      "note_on channel=9 note=51 velocity=67 time=118\n",
      "note_on channel=9 note=69 velocity=45 time=0\n",
      "note_on channel=9 note=69 velocity=0 time=1\n",
      "note_on channel=9 note=51 velocity=0 time=0\n",
      "note_on channel=9 note=51 velocity=50 time=119\n",
      "note_on channel=9 note=51 velocity=0 time=1\n",
      "note_on channel=9 note=69 velocity=35 time=0\n",
      "note_on channel=9 note=69 velocity=0 time=1\n",
      "note_on channel=9 note=69 velocity=45 time=117\n",
      "note_on channel=9 note=69 velocity=0 time=1\n",
      "note_on channel=9 note=51 velocity=67 time=0\n",
      "note_on channel=9 note=51 velocity=0 time=1\n",
      "note_on channel=9 note=51 velocity=50 time=119\n",
      "note_on channel=9 note=51 velocity=0 time=1\n",
      "note_on channel=9 note=69 velocity=35 time=0\n",
      "note_on channel=9 note=69 velocity=0 time=1\n",
      "note_on channel=9 note=51 velocity=46 time=118\n",
      "note_on channel=9 note=51 velocity=0 time=1\n",
      "note_on channel=9 note=69 velocity=35 time=118\n",
      "note_on channel=9 note=69 velocity=0 time=1\n",
      "note_on channel=9 note=51 velocity=42 time=0\n",
      "note_on channel=9 note=51 velocity=0 time=1\n",
      "MetaMessage('end_of_track', time=0)\n",
      "Track 11\n",
      "MetaMessage('midi_port', port=0, time=0)\n",
      "MetaMessage('track_name', name='', time=0)\n",
      "program_change channel=10 program=119 time=0\n",
      "control_change channel=10 control=7 value=78 time=0\n",
      "control_change channel=10 control=10 value=64 time=0\n",
      "control_change channel=10 control=11 value=127 time=572\n",
      "control_change channel=10 control=91 value=40 time=2\n",
      "control_change channel=10 control=93 value=0 time=2\n",
      "control_change channel=10 control=94 value=0 time=2\n",
      "note_on channel=10 note=72 velocity=127 time=21262\n",
      "note_on channel=10 note=72 velocity=0 time=240\n",
      "note_on channel=10 note=72 velocity=127 time=4680\n",
      "note_on channel=10 note=72 velocity=0 time=120\n",
      "note_on channel=10 note=72 velocity=127 time=840\n",
      "note_on channel=10 note=72 velocity=0 time=120\n",
      "note_on channel=10 note=72 velocity=90 time=1680\n",
      "note_on channel=10 note=72 velocity=0 time=240\n",
      "note_on channel=10 note=72 velocity=50 time=11280\n",
      "note_on channel=10 note=72 velocity=0 time=240\n",
      "MetaMessage('end_of_track', time=0)\n",
      "Track 12\n",
      "MetaMessage('midi_port', port=0, time=0)\n",
      "MetaMessage('track_name', name='', time=0)\n",
      "program_change channel=11 program=89 time=0\n",
      "control_change channel=11 control=7 value=73 time=0\n",
      "control_change channel=11 control=10 value=55 time=0\n",
      "control_change channel=11 control=11 value=127 time=718\n",
      "control_change channel=11 control=91 value=100 time=2\n",
      "control_change channel=11 control=93 value=0 time=2\n",
      "control_change channel=11 control=94 value=0 time=2\n",
      "control_change channel=11 control=72 value=49 time=2\n",
      "control_change channel=11 control=73 value=56 time=2\n",
      "note_on channel=11 note=62 velocity=79 time=25186\n",
      "note_on channel=11 note=57 velocity=72 time=0\n",
      "note_on channel=11 note=66 velocity=75 time=1\n",
      "note_on channel=11 note=57 velocity=0 time=450\n",
      "note_on channel=11 note=62 velocity=0 time=3\n",
      "note_on channel=11 note=66 velocity=0 time=3\n",
      "note_on channel=11 note=64 velocity=74 time=22\n",
      "note_on channel=11 note=68 velocity=69 time=2\n",
      "note_on channel=11 note=59 velocity=51 time=0\n",
      "note_on channel=11 note=64 velocity=0 time=154\n",
      "note_on channel=11 note=59 velocity=0 time=1\n",
      "note_on channel=11 note=68 velocity=0 time=0\n",
      "note_on channel=11 note=69 velocity=69 time=20\n",
      "note_on channel=11 note=61 velocity=75 time=3\n",
      "note_on channel=11 note=57 velocity=67 time=1\n",
      "note_on channel=11 note=66 velocity=56 time=0\n",
      "note_on channel=11 note=57 velocity=0 time=273\n",
      "note_on channel=11 note=66 velocity=0 time=1\n",
      "note_on channel=11 note=61 velocity=0 time=0\n",
      "note_on channel=11 note=69 velocity=0 time=2\n",
      "note_on channel=11 note=62 velocity=74 time=21\n",
      "note_on channel=11 note=66 velocity=72 time=2\n",
      "note_on channel=11 note=57 velocity=76 time=1\n",
      "note_on channel=11 note=57 velocity=0 time=442\n",
      "note_on channel=11 note=62 velocity=0 time=6\n",
      "note_on channel=11 note=66 velocity=0 time=2\n",
      "note_on channel=11 note=64 velocity=74 time=24\n",
      "note_on channel=11 note=59 velocity=49 time=3\n",
      "note_on channel=11 note=68 velocity=69 time=0\n",
      "note_on channel=11 note=68 velocity=0 time=152\n",
      "note_on channel=11 note=64 velocity=0 time=0\n",
      "note_on channel=11 note=59 velocity=0 time=3\n",
      "note_on channel=11 note=69 velocity=69 time=23\n",
      "note_on channel=11 note=61 velocity=91 time=2\n",
      "note_on channel=11 note=57 velocity=74 time=1\n",
      "note_on channel=11 note=66 velocity=69 time=0\n",
      "note_on channel=11 note=69 velocity=0 time=264\n",
      "note_on channel=11 note=66 velocity=0 time=6\n",
      "note_on channel=11 note=57 velocity=0 time=2\n",
      "note_on channel=11 note=61 velocity=0 time=1\n",
      "note_on channel=11 note=62 velocity=76 time=26\n",
      "note_on channel=11 note=66 velocity=69 time=2\n",
      "note_on channel=11 note=57 velocity=69 time=1\n",
      "note_on channel=11 note=57 velocity=0 time=450\n",
      "note_on channel=11 note=62 velocity=0 time=5\n",
      "note_on channel=11 note=66 velocity=0 time=4\n",
      "note_on channel=11 note=64 velocity=82 time=16\n",
      "note_on channel=11 note=68 velocity=72 time=1\n",
      "note_on channel=11 note=59 velocity=69 time=0\n",
      "note_on channel=11 note=59 velocity=0 time=241\n",
      "note_on channel=11 note=68 velocity=0 time=9\n",
      "note_on channel=11 note=69 velocity=69 time=12\n",
      "note_on channel=11 note=61 velocity=80 time=5\n",
      "note_on channel=11 note=64 velocity=0 time=188\n",
      "note_on channel=11 note=61 velocity=0 time=2\n",
      "note_on channel=11 note=69 velocity=0 time=31\n",
      "note_on channel=11 note=66 velocity=49 time=7\n",
      "note_on channel=11 note=61 velocity=76 time=0\n",
      "note_on channel=11 note=57 velocity=86 time=2\n",
      "note_on channel=11 note=57 velocity=0 time=334\n",
      "note_on channel=11 note=61 velocity=0 time=7\n",
      "note_on channel=11 note=66 velocity=0 time=1\n",
      "MetaMessage('end_of_track', time=0)\n",
      "Track 13\n",
      "MetaMessage('midi_port', port=0, time=0)\n",
      "MetaMessage('track_name', name='', time=0)\n",
      "program_change channel=12 program=49 time=0\n",
      "control_change channel=12 control=7 value=34 time=0\n",
      "control_change channel=12 control=10 value=70 time=0\n",
      "control_change channel=12 control=11 value=127 time=740\n",
      "control_change channel=12 control=91 value=60 time=2\n",
      "control_change channel=12 control=93 value=0 time=2\n",
      "control_change channel=12 control=94 value=0 time=2\n",
      "note_on channel=12 note=50 velocity=126 time=9814\n",
      "note_on channel=12 note=62 velocity=126 time=0\n",
      "note_on channel=12 note=66 velocity=127 time=0\n",
      "note_on channel=12 note=69 velocity=125 time=0\n",
      "note_on channel=12 note=69 velocity=0 time=480\n",
      "note_on channel=12 note=50 velocity=0 time=0\n",
      "note_on channel=12 note=62 velocity=0 time=0\n",
      "note_on channel=12 note=66 velocity=0 time=0\n",
      "note_on channel=12 note=52 velocity=127 time=0\n",
      "note_on channel=12 note=71 velocity=127 time=0\n",
      "note_on channel=12 note=68 velocity=127 time=0\n",
      "note_on channel=12 note=64 velocity=127 time=0\n",
      "note_on channel=12 note=64 velocity=0 time=180\n",
      "note_on channel=12 note=52 velocity=0 time=0\n",
      "note_on channel=12 note=71 velocity=0 time=0\n",
      "note_on channel=12 note=68 velocity=0 time=0\n",
      "note_on channel=12 note=54 velocity=125 time=0\n",
      "note_on channel=12 note=66 velocity=125 time=0\n",
      "note_on channel=12 note=73 velocity=127 time=0\n",
      "note_on channel=12 note=69 velocity=127 time=0\n",
      "note_on channel=12 note=69 velocity=0 time=300\n",
      "note_on channel=12 note=54 velocity=0 time=0\n",
      "note_on channel=12 note=66 velocity=0 time=0\n",
      "note_on channel=12 note=73 velocity=0 time=0\n",
      "note_on channel=12 note=66 velocity=127 time=0\n",
      "note_on channel=12 note=69 velocity=125 time=0\n",
      "note_on channel=12 note=50 velocity=126 time=0\n",
      "note_on channel=12 note=62 velocity=126 time=0\n",
      "note_on channel=12 note=62 velocity=0 time=480\n",
      "note_on channel=12 note=66 velocity=0 time=0\n",
      "note_on channel=12 note=69 velocity=0 time=0\n",
      "note_on channel=12 note=50 velocity=0 time=0\n",
      "note_on channel=12 note=52 velocity=127 time=0\n",
      "note_on channel=12 note=71 velocity=127 time=0\n",
      "note_on channel=12 note=64 velocity=127 time=0\n",
      "note_on channel=12 note=68 velocity=127 time=0\n",
      "note_on channel=12 note=68 velocity=0 time=180\n",
      "note_on channel=12 note=52 velocity=0 time=0\n",
      "note_on channel=12 note=71 velocity=0 time=0\n",
      "note_on channel=12 note=64 velocity=0 time=0\n",
      "note_on channel=12 note=54 velocity=125 time=0\n",
      "note_on channel=12 note=66 velocity=125 time=0\n",
      "note_on channel=12 note=73 velocity=127 time=0\n",
      "note_on channel=12 note=69 velocity=127 time=0\n",
      "note_on channel=12 note=69 velocity=0 time=300\n",
      "note_on channel=12 note=54 velocity=0 time=0\n",
      "note_on channel=12 note=66 velocity=0 time=0\n",
      "note_on channel=12 note=73 velocity=0 time=0\n",
      "note_on channel=12 note=62 velocity=126 time=0\n",
      "note_on channel=12 note=66 velocity=127 time=0\n",
      "note_on channel=12 note=69 velocity=125 time=0\n",
      "note_on channel=12 note=50 velocity=126 time=0\n",
      "note_on channel=12 note=50 velocity=0 time=480\n",
      "note_on channel=12 note=62 velocity=0 time=0\n",
      "note_on channel=12 note=66 velocity=0 time=0\n",
      "note_on channel=12 note=69 velocity=0 time=0\n",
      "note_on channel=12 note=71 velocity=127 time=0\n",
      "note_on channel=12 note=52 velocity=127 time=0\n",
      "note_on channel=12 note=64 velocity=127 time=0\n",
      "note_on channel=12 note=68 velocity=127 time=0\n",
      "note_on channel=12 note=68 velocity=0 time=180\n",
      "note_on channel=12 note=71 velocity=0 time=0\n",
      "note_on channel=12 note=52 velocity=0 time=0\n",
      "note_on channel=12 note=64 velocity=0 time=0\n",
      "note_on channel=12 note=64 velocity=125 time=0\n",
      "note_on channel=12 note=73 velocity=127 time=0\n",
      "note_on channel=12 note=57 velocity=125 time=0\n",
      "note_on channel=12 note=69 velocity=127 time=0\n",
      "note_on channel=12 note=69 velocity=0 time=300\n",
      "note_on channel=12 note=64 velocity=0 time=0\n",
      "note_on channel=12 note=73 velocity=0 time=0\n",
      "note_on channel=12 note=57 velocity=0 time=0\n",
      "note_on channel=12 note=54 velocity=127 time=0\n",
      "note_on channel=12 note=73 velocity=127 time=0\n",
      "note_on channel=12 note=69 velocity=127 time=0\n",
      "note_on channel=12 note=66 velocity=127 time=0\n",
      "note_on channel=12 note=66 velocity=0 time=480\n",
      "note_on channel=12 note=54 velocity=0 time=0\n",
      "note_on channel=12 note=73 velocity=0 time=0\n",
      "note_on channel=12 note=69 velocity=0 time=0\n",
      "note_on channel=12 note=52 velocity=127 time=0\n",
      "note_on channel=12 note=64 velocity=127 time=0\n",
      "note_on channel=12 note=71 velocity=126 time=0\n",
      "note_on channel=12 note=68 velocity=127 time=0\n",
      "note_on channel=12 note=68 velocity=0 time=180\n",
      "note_on channel=12 note=71 velocity=0 time=0\n",
      "note_on channel=12 note=69 velocity=127 time=0\n",
      "note_on channel=12 note=73 velocity=127 time=0\n",
      "note_on channel=12 note=73 velocity=0 time=300\n",
      "note_on channel=12 note=52 velocity=0 time=0\n",
      "note_on channel=12 note=64 velocity=0 time=0\n",
      "note_on channel=12 note=69 velocity=0 time=0\n",
      "note_on channel=12 note=50 velocity=126 time=3840\n",
      "note_on channel=12 note=62 velocity=126 time=0\n",
      "note_on channel=12 note=66 velocity=127 time=0\n",
      "note_on channel=12 note=69 velocity=125 time=0\n",
      "note_on channel=12 note=69 velocity=0 time=480\n",
      "note_on channel=12 note=50 velocity=0 time=0\n",
      "note_on channel=12 note=62 velocity=0 time=0\n",
      "note_on channel=12 note=66 velocity=0 time=0\n",
      "note_on channel=12 note=52 velocity=127 time=0\n",
      "note_on channel=12 note=71 velocity=127 time=0\n",
      "note_on channel=12 note=68 velocity=127 time=0\n",
      "note_on channel=12 note=64 velocity=127 time=0\n",
      "note_on channel=12 note=64 velocity=0 time=180\n",
      "note_on channel=12 note=52 velocity=0 time=0\n",
      "note_on channel=12 note=71 velocity=0 time=0\n",
      "note_on channel=12 note=68 velocity=0 time=0\n",
      "note_on channel=12 note=54 velocity=125 time=0\n",
      "note_on channel=12 note=66 velocity=125 time=0\n",
      "note_on channel=12 note=73 velocity=127 time=0\n",
      "note_on channel=12 note=69 velocity=127 time=0\n",
      "note_on channel=12 note=69 velocity=0 time=300\n",
      "note_on channel=12 note=54 velocity=0 time=0\n",
      "note_on channel=12 note=66 velocity=0 time=0\n",
      "note_on channel=12 note=73 velocity=0 time=0\n",
      "note_on channel=12 note=66 velocity=127 time=0\n",
      "note_on channel=12 note=69 velocity=125 time=0\n",
      "note_on channel=12 note=50 velocity=126 time=0\n",
      "note_on channel=12 note=62 velocity=126 time=0\n",
      "note_on channel=12 note=62 velocity=0 time=480\n",
      "note_on channel=12 note=66 velocity=0 time=0\n",
      "note_on channel=12 note=69 velocity=0 time=0\n",
      "note_on channel=12 note=50 velocity=0 time=0\n",
      "note_on channel=12 note=52 velocity=127 time=0\n",
      "note_on channel=12 note=71 velocity=127 time=0\n",
      "note_on channel=12 note=64 velocity=127 time=0\n",
      "note_on channel=12 note=68 velocity=127 time=0\n",
      "note_on channel=12 note=68 velocity=0 time=180\n",
      "note_on channel=12 note=52 velocity=0 time=0\n",
      "note_on channel=12 note=71 velocity=0 time=0\n",
      "note_on channel=12 note=64 velocity=0 time=0\n",
      "note_on channel=12 note=54 velocity=125 time=0\n",
      "note_on channel=12 note=66 velocity=125 time=0\n",
      "note_on channel=12 note=73 velocity=127 time=0\n",
      "note_on channel=12 note=69 velocity=127 time=0\n",
      "note_on channel=12 note=69 velocity=0 time=300\n",
      "note_on channel=12 note=54 velocity=0 time=0\n",
      "note_on channel=12 note=66 velocity=0 time=0\n",
      "note_on channel=12 note=73 velocity=0 time=0\n",
      "note_on channel=12 note=62 velocity=126 time=0\n",
      "note_on channel=12 note=66 velocity=127 time=0\n",
      "note_on channel=12 note=69 velocity=125 time=0\n",
      "note_on channel=12 note=50 velocity=126 time=0\n",
      "note_on channel=12 note=50 velocity=0 time=480\n",
      "note_on channel=12 note=62 velocity=0 time=0\n",
      "note_on channel=12 note=66 velocity=0 time=0\n",
      "note_on channel=12 note=69 velocity=0 time=0\n",
      "note_on channel=12 note=71 velocity=127 time=0\n",
      "note_on channel=12 note=52 velocity=127 time=0\n",
      "note_on channel=12 note=64 velocity=127 time=0\n",
      "note_on channel=12 note=68 velocity=127 time=0\n",
      "note_on channel=12 note=68 velocity=0 time=180\n",
      "note_on channel=12 note=71 velocity=0 time=0\n",
      "note_on channel=12 note=52 velocity=0 time=0\n",
      "note_on channel=12 note=64 velocity=0 time=0\n",
      "note_on channel=12 note=64 velocity=125 time=0\n",
      "note_on channel=12 note=73 velocity=127 time=0\n",
      "note_on channel=12 note=57 velocity=125 time=0\n",
      "note_on channel=12 note=69 velocity=127 time=0\n",
      "note_on channel=12 note=69 velocity=0 time=300\n",
      "note_on channel=12 note=64 velocity=0 time=0\n",
      "note_on channel=12 note=73 velocity=0 time=0\n",
      "note_on channel=12 note=57 velocity=0 time=0\n",
      "note_on channel=12 note=54 velocity=127 time=0\n",
      "note_on channel=12 note=73 velocity=127 time=0\n",
      "note_on channel=12 note=69 velocity=127 time=0\n",
      "note_on channel=12 note=66 velocity=127 time=0\n",
      "note_on channel=12 note=69 velocity=0 time=480\n",
      "note_on channel=12 note=54 velocity=0 time=0\n",
      "note_on channel=12 note=73 velocity=0 time=0\n",
      "note_on channel=12 note=49 velocity=127 time=0\n",
      "note_on channel=12 note=68 velocity=127 time=0\n",
      "note_on channel=12 note=61 velocity=127 time=0\n",
      "note_on channel=12 note=66 velocity=0 time=150\n",
      "note_on channel=12 note=65 velocity=127 time=15\n",
      "note_on channel=12 note=65 velocity=0 time=315\n",
      "note_on channel=12 note=61 velocity=0 time=0\n",
      "note_on channel=12 note=68 velocity=0 time=0\n",
      "note_on channel=12 note=49 velocity=0 time=0\n",
      "note_on channel=12 note=54 velocity=118 time=0\n",
      "note_on channel=12 note=66 velocity=118 time=0\n",
      "note_on channel=12 note=81 velocity=110 time=0\n",
      "note_on channel=12 note=78 velocity=110 time=0\n",
      "note_on channel=12 note=73 velocity=110 time=0\n",
      "note_on channel=12 note=73 velocity=0 time=480\n",
      "note_on channel=12 note=81 velocity=0 time=0\n",
      "note_on channel=12 note=54 velocity=0 time=0\n",
      "note_on channel=12 note=66 velocity=0 time=0\n",
      "note_on channel=12 note=78 velocity=0 time=0\n",
      "note_on channel=12 note=52 velocity=118 time=0\n",
      "note_on channel=12 note=64 velocity=118 time=0\n",
      "note_on channel=12 note=76 velocity=110 time=0\n",
      "note_on channel=12 note=73 velocity=110 time=0\n",
      "note_on channel=12 note=81 velocity=110 time=0\n",
      "note_on channel=12 note=81 velocity=0 time=480\n",
      "note_on channel=12 note=76 velocity=0 time=0\n",
      "note_on channel=12 note=52 velocity=0 time=0\n",
      "note_on channel=12 note=64 velocity=0 time=0\n",
      "note_on channel=12 note=73 velocity=0 time=0\n",
      "note_on channel=12 note=50 velocity=118 time=0\n",
      "note_on channel=12 note=62 velocity=118 time=0\n",
      "note_on channel=12 note=81 velocity=110 time=0\n",
      "note_on channel=12 note=78 velocity=110 time=0\n",
      "note_on channel=12 note=74 velocity=110 time=0\n",
      "note_on channel=12 note=74 velocity=0 time=480\n",
      "note_on channel=12 note=81 velocity=0 time=0\n",
      "note_on channel=12 note=50 velocity=0 time=0\n",
      "note_on channel=12 note=62 velocity=0 time=0\n",
      "note_on channel=12 note=78 velocity=0 time=0\n",
      "note_on channel=12 note=54 velocity=118 time=0\n",
      "note_on channel=12 note=59 velocity=118 time=0\n",
      "note_on channel=12 note=78 velocity=110 time=0\n",
      "note_on channel=12 note=74 velocity=110 time=0\n",
      "note_on channel=12 note=71 velocity=110 time=0\n",
      "note_on channel=12 note=71 velocity=0 time=240\n",
      "note_on channel=12 note=78 velocity=0 time=0\n",
      "note_on channel=12 note=54 velocity=0 time=0\n",
      "note_on channel=12 note=59 velocity=0 time=0\n",
      "note_on channel=12 note=74 velocity=0 time=0\n",
      "note_on channel=12 note=49 velocity=118 time=0\n",
      "note_on channel=12 note=61 velocity=118 time=0\n",
      "note_on channel=12 note=73 velocity=110 time=0\n",
      "note_on channel=12 note=76 velocity=110 time=0\n",
      "note_on channel=12 note=80 velocity=110 time=0\n",
      "note_on channel=12 note=80 velocity=0 time=240\n",
      "note_on channel=12 note=73 velocity=0 time=0\n",
      "note_on channel=12 note=49 velocity=0 time=0\n",
      "note_on channel=12 note=61 velocity=0 time=0\n",
      "note_on channel=12 note=76 velocity=0 time=0\n",
      "note_on channel=12 note=54 velocity=118 time=0\n",
      "note_on channel=12 note=81 velocity=110 time=0\n",
      "note_on channel=12 note=78 velocity=110 time=0\n",
      "note_on channel=12 note=73 velocity=110 time=0\n",
      "note_on channel=12 note=66 velocity=118 time=0\n",
      "note_on channel=12 note=66 velocity=0 time=480\n",
      "note_on channel=12 note=78 velocity=0 time=0\n",
      "note_on channel=12 note=54 velocity=0 time=0\n",
      "note_on channel=12 note=81 velocity=0 time=0\n",
      "note_on channel=12 note=73 velocity=0 time=0\n",
      "note_on channel=12 note=52 velocity=118 time=0\n",
      "note_on channel=12 note=76 velocity=110 time=0\n",
      "note_on channel=12 note=81 velocity=110 time=0\n",
      "note_on channel=12 note=73 velocity=110 time=0\n",
      "note_on channel=12 note=64 velocity=118 time=0\n",
      "note_on channel=12 note=64 velocity=0 time=480\n",
      "note_on channel=12 note=81 velocity=0 time=0\n",
      "note_on channel=12 note=52 velocity=0 time=0\n",
      "note_on channel=12 note=76 velocity=0 time=0\n",
      "note_on channel=12 note=73 velocity=0 time=0\n",
      "note_on channel=12 note=50 velocity=118 time=0\n",
      "note_on channel=12 note=81 velocity=110 time=0\n",
      "note_on channel=12 note=78 velocity=110 time=0\n",
      "note_on channel=12 note=62 velocity=118 time=0\n",
      "note_on channel=12 note=74 velocity=110 time=0\n",
      "note_on channel=12 note=74 velocity=0 time=480\n",
      "note_on channel=12 note=78 velocity=0 time=0\n",
      "note_on channel=12 note=50 velocity=0 time=0\n",
      "note_on channel=12 note=81 velocity=0 time=0\n",
      "note_on channel=12 note=62 velocity=0 time=0\n",
      "note_on channel=12 note=69 velocity=110 time=0\n",
      "note_on channel=12 note=52 velocity=118 time=0\n",
      "note_on channel=12 note=81 velocity=110 time=0\n",
      "note_on channel=12 note=64 velocity=118 time=0\n",
      "note_on channel=12 note=76 velocity=110 time=0\n",
      "note_on channel=12 note=83 velocity=110 time=0\n",
      "note_on channel=12 note=81 velocity=0 time=240\n",
      "note_on channel=12 note=69 velocity=0 time=0\n",
      "note_on channel=12 note=68 velocity=110 time=0\n",
      "note_on channel=12 note=80 velocity=110 time=0\n",
      "note_on channel=12 note=80 velocity=0 time=240\n",
      "note_on channel=12 note=83 velocity=0 time=0\n",
      "note_on channel=12 note=76 velocity=0 time=0\n",
      "note_on channel=12 note=52 velocity=0 time=0\n",
      "note_on channel=12 note=68 velocity=0 time=0\n",
      "note_on channel=12 note=64 velocity=0 time=0\n",
      "note_on channel=12 note=50 velocity=110 time=0\n",
      "note_on channel=12 note=66 velocity=110 time=0\n",
      "note_on channel=12 note=62 velocity=110 time=0\n",
      "note_on channel=12 note=57 velocity=110 time=0\n",
      "note_on channel=12 note=57 velocity=0 time=480\n",
      "note_on channel=12 note=50 velocity=0 time=0\n",
      "note_on channel=12 note=66 velocity=0 time=0\n",
      "note_on channel=12 note=52 velocity=110 time=0\n",
      "note_on channel=12 note=68 velocity=110 time=0\n",
      "note_on channel=12 note=64 velocity=110 time=0\n",
      "note_on channel=12 note=59 velocity=110 time=0\n",
      "note_on channel=12 note=62 velocity=0 time=2\n",
      "note_on channel=12 note=64 velocity=0 time=178\n",
      "note_on channel=12 note=52 velocity=0 time=0\n",
      "note_on channel=12 note=68 velocity=0 time=0\n",
      "note_on channel=12 note=59 velocity=0 time=0\n",
      "note_on channel=12 note=54 velocity=110 time=4\n",
      "note_on channel=12 note=66 velocity=110 time=0\n",
      "note_on channel=12 note=61 velocity=110 time=0\n",
      "note_on channel=12 note=69 velocity=110 time=3\n",
      "note_on channel=12 note=69 velocity=0 time=293\n",
      "note_on channel=12 note=54 velocity=0 time=0\n",
      "note_on channel=12 note=66 velocity=0 time=0\n",
      "note_on channel=12 note=61 velocity=0 time=0\n",
      "note_on channel=12 note=50 velocity=110 time=0\n",
      "note_on channel=12 note=66 velocity=110 time=0\n",
      "note_on channel=12 note=62 velocity=110 time=0\n",
      "note_on channel=12 note=57 velocity=110 time=0\n",
      "note_on channel=12 note=57 velocity=0 time=480\n",
      "note_on channel=12 note=50 velocity=0 time=0\n",
      "note_on channel=12 note=66 velocity=0 time=0\n",
      "note_on channel=12 note=52 velocity=110 time=0\n",
      "note_on channel=12 note=68 velocity=110 time=0\n",
      "note_on channel=12 note=64 velocity=110 time=0\n",
      "note_on channel=12 note=59 velocity=110 time=0\n",
      "note_on channel=12 note=62 velocity=0 time=2\n",
      "note_on channel=12 note=64 velocity=0 time=178\n",
      "note_on channel=12 note=52 velocity=0 time=0\n",
      "note_on channel=12 note=68 velocity=0 time=0\n",
      "note_on channel=12 note=59 velocity=0 time=0\n",
      "note_on channel=12 note=54 velocity=110 time=4\n",
      "note_on channel=12 note=66 velocity=110 time=0\n",
      "note_on channel=12 note=61 velocity=110 time=0\n",
      "note_on channel=12 note=69 velocity=110 time=3\n",
      "note_on channel=12 note=69 velocity=0 time=293\n",
      "note_on channel=12 note=54 velocity=0 time=0\n",
      "note_on channel=12 note=66 velocity=0 time=0\n",
      "note_on channel=12 note=61 velocity=0 time=0\n",
      "note_on channel=12 note=50 velocity=110 time=0\n",
      "note_on channel=12 note=66 velocity=110 time=0\n",
      "note_on channel=12 note=62 velocity=110 time=0\n",
      "note_on channel=12 note=57 velocity=110 time=0\n",
      "note_on channel=12 note=88 velocity=118 time=1\n",
      "note_on channel=12 note=88 velocity=0 time=173\n",
      "note_on channel=12 note=86 velocity=118 time=4\n",
      "note_on channel=12 note=86 velocity=0 time=179\n",
      "note_on channel=12 note=83 velocity=108 time=5\n",
      "note_on channel=12 note=57 velocity=0 time=118\n",
      "note_on channel=12 note=66 velocity=0 time=0\n",
      "note_on channel=12 note=50 velocity=0 time=0\n",
      "note_on channel=12 note=52 velocity=110 time=0\n",
      "note_on channel=12 note=68 velocity=110 time=0\n",
      "note_on channel=12 note=64 velocity=110 time=0\n",
      "note_on channel=12 note=59 velocity=110 time=0\n",
      "note_on channel=12 note=90 velocity=118 time=0\n",
      "note_on channel=12 note=62 velocity=0 time=2\n",
      "note_on channel=12 note=59 velocity=0 time=178\n",
      "note_on channel=12 note=52 velocity=0 time=0\n",
      "note_on channel=12 note=68 velocity=0 time=0\n",
      "note_on channel=12 note=64 velocity=0 time=0\n",
      "note_on channel=12 note=90 velocity=0 time=0\n",
      "note_on channel=12 note=57 velocity=110 time=4\n",
      "note_on channel=12 note=64 velocity=110 time=0\n",
      "note_on channel=12 note=61 velocity=110 time=0\n",
      "note_on channel=12 note=69 velocity=110 time=3\n",
      "note_on channel=12 note=83 velocity=0 time=53\n",
      "note_on channel=12 note=97 velocity=96 time=0\n",
      "note_on channel=12 note=85 velocity=96 time=0\n",
      "note_on channel=12 note=61 velocity=0 time=240\n",
      "note_on channel=12 note=69 velocity=0 time=0\n",
      "note_on channel=12 note=57 velocity=0 time=0\n",
      "note_on channel=12 note=64 velocity=0 time=0\n",
      "note_on channel=12 note=66 velocity=110 time=0\n",
      "note_on channel=12 note=69 velocity=110 time=0\n",
      "note_on channel=12 note=61 velocity=110 time=0\n",
      "note_on channel=12 note=61 velocity=0 time=480\n",
      "note_on channel=12 note=66 velocity=0 time=0\n",
      "note_on channel=12 note=97 velocity=0 time=0\n",
      "note_on channel=12 note=85 velocity=0 time=0\n",
      "note_on channel=12 note=69 velocity=0 time=0\n",
      "note_on channel=12 note=52 velocity=126 time=480\n",
      "note_on channel=12 note=64 velocity=126 time=0\n",
      "note_on channel=12 note=68 velocity=127 time=0\n",
      "note_on channel=12 note=71 velocity=125 time=0\n",
      "note_on channel=12 note=71 velocity=0 time=480\n",
      "note_on channel=12 note=52 velocity=0 time=0\n",
      "note_on channel=12 note=64 velocity=0 time=0\n",
      "note_on channel=12 note=68 velocity=0 time=0\n",
      "note_on channel=12 note=54 velocity=127 time=0\n",
      "note_on channel=12 note=73 velocity=127 time=0\n",
      "note_on channel=12 note=70 velocity=127 time=0\n",
      "note_on channel=12 note=66 velocity=127 time=0\n",
      "note_on channel=12 note=66 velocity=0 time=180\n",
      "note_on channel=12 note=54 velocity=0 time=0\n",
      "note_on channel=12 note=73 velocity=0 time=0\n",
      "note_on channel=12 note=70 velocity=0 time=0\n",
      "note_on channel=12 note=56 velocity=125 time=0\n",
      "note_on channel=12 note=68 velocity=125 time=0\n",
      "note_on channel=12 note=75 velocity=127 time=0\n",
      "note_on channel=12 note=71 velocity=127 time=0\n",
      "note_on channel=12 note=71 velocity=0 time=300\n",
      "note_on channel=12 note=56 velocity=0 time=0\n",
      "note_on channel=12 note=68 velocity=0 time=0\n",
      "note_on channel=12 note=75 velocity=0 time=0\n",
      "note_on channel=12 note=68 velocity=127 time=0\n",
      "note_on channel=12 note=71 velocity=125 time=0\n",
      "note_on channel=12 note=52 velocity=126 time=0\n",
      "note_on channel=12 note=64 velocity=126 time=0\n",
      "note_on channel=12 note=64 velocity=0 time=480\n",
      "note_on channel=12 note=68 velocity=0 time=0\n",
      "note_on channel=12 note=71 velocity=0 time=0\n",
      "note_on channel=12 note=52 velocity=0 time=0\n",
      "note_on channel=12 note=54 velocity=127 time=0\n",
      "note_on channel=12 note=73 velocity=127 time=0\n",
      "note_on channel=12 note=66 velocity=127 time=0\n",
      "note_on channel=12 note=70 velocity=127 time=0\n",
      "note_on channel=12 note=70 velocity=0 time=180\n",
      "note_on channel=12 note=54 velocity=0 time=0\n",
      "note_on channel=12 note=73 velocity=0 time=0\n",
      "note_on channel=12 note=66 velocity=0 time=0\n",
      "note_on channel=12 note=56 velocity=125 time=0\n",
      "note_on channel=12 note=68 velocity=125 time=0\n",
      "note_on channel=12 note=75 velocity=127 time=0\n",
      "note_on channel=12 note=71 velocity=127 time=0\n",
      "note_on channel=12 note=71 velocity=0 time=300\n",
      "note_on channel=12 note=56 velocity=0 time=0\n",
      "note_on channel=12 note=68 velocity=0 time=0\n",
      "note_on channel=12 note=75 velocity=0 time=0\n",
      "note_on channel=12 note=64 velocity=126 time=0\n",
      "note_on channel=12 note=68 velocity=127 time=0\n",
      "note_on channel=12 note=71 velocity=125 time=0\n",
      "note_on channel=12 note=52 velocity=126 time=0\n",
      "note_on channel=12 note=52 velocity=0 time=480\n",
      "note_on channel=12 note=64 velocity=0 time=0\n",
      "note_on channel=12 note=68 velocity=0 time=0\n",
      "note_on channel=12 note=71 velocity=0 time=0\n",
      "note_on channel=12 note=73 velocity=127 time=0\n",
      "note_on channel=12 note=54 velocity=127 time=0\n",
      "note_on channel=12 note=66 velocity=127 time=0\n",
      "note_on channel=12 note=70 velocity=127 time=0\n",
      "note_on channel=12 note=70 velocity=0 time=180\n",
      "note_on channel=12 note=73 velocity=0 time=0\n",
      "note_on channel=12 note=54 velocity=0 time=0\n",
      "note_on channel=12 note=66 velocity=0 time=0\n",
      "note_on channel=12 note=66 velocity=125 time=0\n",
      "note_on channel=12 note=75 velocity=127 time=0\n",
      "note_on channel=12 note=59 velocity=125 time=0\n",
      "note_on channel=12 note=71 velocity=127 time=0\n",
      "note_on channel=12 note=71 velocity=0 time=300\n",
      "note_on channel=12 note=66 velocity=0 time=0\n",
      "note_on channel=12 note=75 velocity=0 time=0\n",
      "note_on channel=12 note=59 velocity=0 time=0\n",
      "note_on channel=12 note=56 velocity=127 time=0\n",
      "note_on channel=12 note=75 velocity=127 time=0\n",
      "note_on channel=12 note=71 velocity=127 time=0\n",
      "note_on channel=12 note=68 velocity=127 time=0\n",
      "note_on channel=12 note=68 velocity=0 time=480\n",
      "note_on channel=12 note=56 velocity=0 time=0\n",
      "note_on channel=12 note=75 velocity=0 time=0\n",
      "note_on channel=12 note=71 velocity=0 time=0\n",
      "note_on channel=12 note=54 velocity=127 time=0\n",
      "note_on channel=12 note=66 velocity=127 time=0\n",
      "note_on channel=12 note=73 velocity=126 time=0\n",
      "note_on channel=12 note=70 velocity=127 time=0\n",
      "note_on channel=12 note=70 velocity=0 time=180\n",
      "note_on channel=12 note=73 velocity=0 time=0\n",
      "note_on channel=12 note=71 velocity=127 time=0\n",
      "note_on channel=12 note=75 velocity=127 time=0\n",
      "note_on channel=12 note=75 velocity=0 time=300\n",
      "note_on channel=12 note=54 velocity=0 time=0\n",
      "note_on channel=12 note=66 velocity=0 time=0\n",
      "note_on channel=12 note=71 velocity=0 time=0\n",
      "note_on channel=12 note=52 velocity=126 time=0\n",
      "note_on channel=12 note=64 velocity=126 time=0\n",
      "note_on channel=12 note=68 velocity=127 time=0\n",
      "note_on channel=12 note=71 velocity=125 time=0\n",
      "note_on channel=12 note=71 velocity=0 time=480\n",
      "note_on channel=12 note=52 velocity=0 time=0\n",
      "note_on channel=12 note=64 velocity=0 time=0\n",
      "note_on channel=12 note=68 velocity=0 time=0\n",
      "note_on channel=12 note=54 velocity=127 time=0\n",
      "note_on channel=12 note=73 velocity=127 time=0\n",
      "note_on channel=12 note=70 velocity=127 time=0\n",
      "note_on channel=12 note=66 velocity=127 time=0\n",
      "note_on channel=12 note=66 velocity=0 time=180\n",
      "note_on channel=12 note=54 velocity=0 time=0\n",
      "note_on channel=12 note=73 velocity=0 time=0\n",
      "note_on channel=12 note=70 velocity=0 time=0\n",
      "note_on channel=12 note=56 velocity=125 time=0\n",
      "note_on channel=12 note=68 velocity=125 time=0\n",
      "note_on channel=12 note=75 velocity=127 time=0\n",
      "note_on channel=12 note=71 velocity=127 time=0\n",
      "note_on channel=12 note=71 velocity=0 time=300\n",
      "note_on channel=12 note=56 velocity=0 time=0\n",
      "note_on channel=12 note=68 velocity=0 time=0\n",
      "note_on channel=12 note=75 velocity=0 time=0\n",
      "note_on channel=12 note=68 velocity=127 time=0\n",
      "note_on channel=12 note=71 velocity=125 time=0\n",
      "note_on channel=12 note=52 velocity=126 time=0\n",
      "note_on channel=12 note=64 velocity=126 time=0\n",
      "note_on channel=12 note=64 velocity=0 time=480\n",
      "note_on channel=12 note=68 velocity=0 time=0\n",
      "note_on channel=12 note=71 velocity=0 time=0\n",
      "note_on channel=12 note=52 velocity=0 time=0\n",
      "note_on channel=12 note=54 velocity=127 time=0\n",
      "note_on channel=12 note=73 velocity=127 time=0\n",
      "note_on channel=12 note=66 velocity=127 time=0\n",
      "note_on channel=12 note=70 velocity=127 time=0\n",
      "note_on channel=12 note=70 velocity=0 time=180\n",
      "note_on channel=12 note=54 velocity=0 time=0\n",
      "note_on channel=12 note=73 velocity=0 time=0\n",
      "note_on channel=12 note=66 velocity=0 time=0\n",
      "note_on channel=12 note=56 velocity=125 time=0\n",
      "note_on channel=12 note=68 velocity=125 time=0\n",
      "note_on channel=12 note=75 velocity=127 time=0\n",
      "note_on channel=12 note=71 velocity=127 time=0\n",
      "note_on channel=12 note=71 velocity=0 time=300\n",
      "note_on channel=12 note=56 velocity=0 time=0\n",
      "note_on channel=12 note=68 velocity=0 time=0\n",
      "note_on channel=12 note=75 velocity=0 time=0\n",
      "note_on channel=12 note=64 velocity=126 time=0\n",
      "note_on channel=12 note=68 velocity=127 time=0\n",
      "note_on channel=12 note=71 velocity=125 time=0\n",
      "note_on channel=12 note=52 velocity=126 time=0\n",
      "note_on channel=12 note=52 velocity=0 time=480\n",
      "note_on channel=12 note=64 velocity=0 time=0\n",
      "note_on channel=12 note=68 velocity=0 time=0\n",
      "note_on channel=12 note=71 velocity=0 time=0\n",
      "note_on channel=12 note=73 velocity=127 time=0\n",
      "note_on channel=12 note=54 velocity=127 time=0\n",
      "note_on channel=12 note=66 velocity=127 time=0\n",
      "note_on channel=12 note=70 velocity=127 time=0\n",
      "note_on channel=12 note=70 velocity=0 time=180\n",
      "note_on channel=12 note=73 velocity=0 time=0\n",
      "note_on channel=12 note=54 velocity=0 time=0\n",
      "note_on channel=12 note=66 velocity=0 time=0\n",
      "note_on channel=12 note=66 velocity=125 time=0\n",
      "note_on channel=12 note=75 velocity=127 time=0\n",
      "note_on channel=12 note=59 velocity=125 time=0\n",
      "note_on channel=12 note=71 velocity=127 time=0\n",
      "note_on channel=12 note=71 velocity=0 time=300\n",
      "note_on channel=12 note=66 velocity=0 time=0\n",
      "note_on channel=12 note=75 velocity=0 time=0\n",
      "note_on channel=12 note=59 velocity=0 time=0\n",
      "note_on channel=12 note=56 velocity=127 time=0\n",
      "note_on channel=12 note=75 velocity=127 time=0\n",
      "note_on channel=12 note=71 velocity=127 time=0\n",
      "note_on channel=12 note=68 velocity=127 time=0\n",
      "note_on channel=12 note=68 velocity=0 time=480\n",
      "note_on channel=12 note=56 velocity=0 time=0\n",
      "note_on channel=12 note=75 velocity=0 time=0\n",
      "note_on channel=12 note=71 velocity=0 time=0\n",
      "note_on channel=12 note=54 velocity=127 time=0\n",
      "note_on channel=12 note=66 velocity=127 time=0\n",
      "note_on channel=12 note=73 velocity=126 time=0\n",
      "note_on channel=12 note=70 velocity=127 time=0\n",
      "note_on channel=12 note=70 velocity=0 time=180\n",
      "note_on channel=12 note=73 velocity=0 time=0\n",
      "note_on channel=12 note=71 velocity=127 time=0\n",
      "note_on channel=12 note=75 velocity=127 time=0\n",
      "note_on channel=12 note=75 velocity=0 time=300\n",
      "note_on channel=12 note=54 velocity=0 time=0\n",
      "note_on channel=12 note=66 velocity=0 time=0\n",
      "note_on channel=12 note=71 velocity=0 time=0\n",
      "note_on channel=12 note=52 velocity=126 time=0\n",
      "note_on channel=12 note=64 velocity=126 time=0\n",
      "note_on channel=12 note=68 velocity=127 time=0\n",
      "note_on channel=12 note=71 velocity=125 time=0\n",
      "note_on channel=12 note=71 velocity=0 time=480\n",
      "note_on channel=12 note=52 velocity=0 time=0\n",
      "note_on channel=12 note=64 velocity=0 time=0\n",
      "note_on channel=12 note=68 velocity=0 time=0\n",
      "note_on channel=12 note=54 velocity=127 time=0\n",
      "note_on channel=12 note=73 velocity=127 time=0\n",
      "note_on channel=12 note=70 velocity=127 time=0\n",
      "note_on channel=12 note=66 velocity=127 time=0\n",
      "note_on channel=12 note=66 velocity=0 time=180\n",
      "note_on channel=12 note=54 velocity=0 time=0\n",
      "note_on channel=12 note=73 velocity=0 time=0\n",
      "note_on channel=12 note=70 velocity=0 time=0\n",
      "note_on channel=12 note=56 velocity=125 time=0\n",
      "note_on channel=12 note=68 velocity=125 time=0\n",
      "note_on channel=12 note=75 velocity=127 time=0\n",
      "note_on channel=12 note=71 velocity=127 time=0\n",
      "note_on channel=12 note=71 velocity=0 time=300\n",
      "note_on channel=12 note=56 velocity=0 time=0\n",
      "note_on channel=12 note=68 velocity=0 time=0\n",
      "note_on channel=12 note=75 velocity=0 time=0\n",
      "note_on channel=12 note=68 velocity=127 time=0\n",
      "note_on channel=12 note=71 velocity=125 time=0\n",
      "note_on channel=12 note=52 velocity=126 time=0\n",
      "note_on channel=12 note=64 velocity=126 time=0\n",
      "note_on channel=12 note=64 velocity=0 time=480\n",
      "note_on channel=12 note=68 velocity=0 time=0\n",
      "note_on channel=12 note=71 velocity=0 time=0\n",
      "note_on channel=12 note=52 velocity=0 time=0\n",
      "note_on channel=12 note=54 velocity=127 time=0\n",
      "note_on channel=12 note=73 velocity=127 time=0\n",
      "note_on channel=12 note=66 velocity=127 time=0\n",
      "note_on channel=12 note=70 velocity=127 time=0\n",
      "note_on channel=12 note=70 velocity=0 time=180\n",
      "note_on channel=12 note=54 velocity=0 time=0\n",
      "note_on channel=12 note=73 velocity=0 time=0\n",
      "note_on channel=12 note=66 velocity=0 time=0\n",
      "note_on channel=12 note=56 velocity=125 time=0\n",
      "note_on channel=12 note=68 velocity=125 time=0\n",
      "note_on channel=12 note=75 velocity=127 time=0\n",
      "note_on channel=12 note=71 velocity=127 time=0\n",
      "note_on channel=12 note=71 velocity=0 time=300\n",
      "note_on channel=12 note=56 velocity=0 time=0\n",
      "note_on channel=12 note=68 velocity=0 time=0\n",
      "note_on channel=12 note=75 velocity=0 time=0\n",
      "note_on channel=12 note=64 velocity=126 time=0\n",
      "note_on channel=12 note=68 velocity=127 time=0\n",
      "note_on channel=12 note=71 velocity=125 time=0\n",
      "note_on channel=12 note=52 velocity=126 time=0\n",
      "note_on channel=12 note=52 velocity=0 time=480\n",
      "note_on channel=12 note=64 velocity=0 time=0\n",
      "note_on channel=12 note=68 velocity=0 time=0\n",
      "note_on channel=12 note=71 velocity=0 time=0\n",
      "note_on channel=12 note=73 velocity=127 time=0\n",
      "note_on channel=12 note=54 velocity=127 time=0\n",
      "note_on channel=12 note=66 velocity=127 time=0\n",
      "note_on channel=12 note=70 velocity=127 time=0\n",
      "note_on channel=12 note=70 velocity=0 time=180\n",
      "note_on channel=12 note=73 velocity=0 time=0\n",
      "note_on channel=12 note=54 velocity=0 time=0\n",
      "note_on channel=12 note=66 velocity=0 time=0\n",
      "note_on channel=12 note=66 velocity=125 time=0\n",
      "note_on channel=12 note=75 velocity=127 time=0\n",
      "note_on channel=12 note=59 velocity=125 time=0\n",
      "note_on channel=12 note=71 velocity=127 time=0\n",
      "note_on channel=12 note=71 velocity=0 time=300\n",
      "note_on channel=12 note=66 velocity=0 time=0\n",
      "note_on channel=12 note=75 velocity=0 time=0\n",
      "note_on channel=12 note=59 velocity=0 time=0\n",
      "note_on channel=12 note=56 velocity=127 time=0\n",
      "note_on channel=12 note=75 velocity=127 time=0\n",
      "note_on channel=12 note=71 velocity=127 time=0\n",
      "note_on channel=12 note=68 velocity=127 time=0\n",
      "note_on channel=12 note=68 velocity=0 time=480\n",
      "note_on channel=12 note=56 velocity=0 time=0\n",
      "note_on channel=12 note=75 velocity=0 time=0\n",
      "note_on channel=12 note=71 velocity=0 time=0\n",
      "note_on channel=12 note=54 velocity=127 time=0\n",
      "note_on channel=12 note=66 velocity=127 time=0\n",
      "note_on channel=12 note=73 velocity=126 time=0\n",
      "note_on channel=12 note=70 velocity=127 time=0\n",
      "note_on channel=12 note=70 velocity=0 time=180\n",
      "note_on channel=12 note=73 velocity=0 time=0\n",
      "note_on channel=12 note=71 velocity=127 time=0\n",
      "note_on channel=12 note=75 velocity=127 time=0\n",
      "note_on channel=12 note=75 velocity=0 time=300\n",
      "note_on channel=12 note=54 velocity=0 time=0\n",
      "note_on channel=12 note=66 velocity=0 time=0\n",
      "note_on channel=12 note=71 velocity=0 time=0\n",
      "note_on channel=12 note=75 velocity=127 time=0\n",
      "note_on channel=12 note=71 velocity=127 time=0\n",
      "note_on channel=12 note=68 velocity=127 time=0\n",
      "control_change channel=12 control=11 value=127 time=59\n",
      "control_change channel=12 control=11 value=124 time=3\n",
      "control_change channel=12 control=11 value=118 time=3\n",
      "control_change channel=12 control=11 value=117 time=3\n",
      "control_change channel=12 control=11 value=113 time=3\n",
      "control_change channel=12 control=11 value=100 time=13\n",
      "control_change channel=12 control=11 value=99 time=3\n",
      "control_change channel=12 control=11 value=98 time=3\n",
      "control_change channel=12 control=11 value=94 time=4\n",
      "control_change channel=12 control=11 value=93 time=3\n",
      "control_change channel=12 control=11 value=91 time=3\n",
      "control_change channel=12 control=11 value=86 time=6\n",
      "control_change channel=12 control=11 value=85 time=7\n",
      "control_change channel=12 control=11 value=84 time=3\n",
      "control_change channel=12 control=11 value=73 time=22\n",
      "control_change channel=12 control=11 value=69 time=6\n",
      "control_change channel=12 control=11 value=67 time=6\n",
      "control_change channel=12 control=11 value=64 time=4\n",
      "control_change channel=12 control=11 value=61 time=12\n",
      "control_change channel=12 control=11 value=58 time=3\n",
      "control_change channel=12 control=11 value=56 time=4\n",
      "control_change channel=12 control=11 value=54 time=3\n",
      "control_change channel=12 control=11 value=52 time=3\n",
      "control_change channel=12 control=11 value=51 time=3\n",
      "control_change channel=12 control=11 value=49 time=3\n",
      "control_change channel=12 control=11 value=36 time=10\n",
      "control_change channel=12 control=11 value=33 time=6\n",
      "control_change channel=12 control=11 value=27 time=3\n",
      "control_change channel=12 control=11 value=24 time=3\n",
      "control_change channel=12 control=11 value=23 time=3\n",
      "control_change channel=12 control=11 value=17 time=4\n",
      "control_change channel=12 control=11 value=15 time=3\n",
      "control_change channel=12 control=11 value=13 time=3\n",
      "control_change channel=12 control=11 value=6 time=6\n",
      "control_change channel=12 control=11 value=5 time=3\n",
      "control_change channel=12 control=11 value=2 time=4\n",
      "control_change channel=12 control=11 value=0 time=3\n",
      "note_on channel=12 note=68 velocity=0 time=34\n",
      "note_on channel=12 note=71 velocity=0 time=0\n",
      "note_on channel=12 note=75 velocity=0 time=0\n",
      "MetaMessage('end_of_track', time=0)\n",
      "Track 14\n",
      "MetaMessage('midi_port', port=0, time=0)\n",
      "MetaMessage('track_name', name='', time=0)\n",
      "control_change channel=13 control=0 value=3 time=0\n",
      "control_change channel=13 control=32 value=1 time=0\n",
      "program_change channel=13 program=127 time=0\n",
      "control_change channel=13 control=7 value=61 time=0\n",
      "control_change channel=13 control=10 value=64 time=0\n",
      "control_change channel=13 control=11 value=127 time=760\n",
      "control_change channel=13 control=91 value=100 time=2\n",
      "control_change channel=13 control=93 value=0 time=2\n",
      "control_change channel=13 control=94 value=0 time=2\n",
      "note_on channel=13 note=57 velocity=127 time=25154\n",
      "note_on channel=13 note=57 velocity=0 time=960\n",
      "MetaMessage('end_of_track', time=0)\n",
      "Track 15\n",
      "MetaMessage('midi_port', port=0, time=0)\n",
      "MetaMessage('track_name', name='', time=0)\n",
      "program_change channel=14 program=27 time=0\n",
      "control_change channel=14 control=7 value=64 time=0\n",
      "control_change channel=14 control=10 value=70 time=0\n",
      "control_change channel=14 control=11 value=127 time=780\n",
      "control_change channel=14 control=91 value=80 time=2\n",
      "control_change channel=14 control=93 value=45 time=2\n",
      "control_change channel=14 control=94 value=0 time=2\n",
      "note_on channel=14 note=50 velocity=109 time=9749\n",
      "note_on channel=14 note=54 velocity=113 time=8\n",
      "note_on channel=14 note=57 velocity=113 time=7\n",
      "note_on channel=14 note=62 velocity=127 time=7\n",
      "note_on channel=14 note=62 velocity=0 time=483\n",
      "note_on channel=14 note=50 velocity=0 time=0\n",
      "note_on channel=14 note=54 velocity=0 time=0\n",
      "note_on channel=14 note=57 velocity=0 time=0\n",
      "note_on channel=14 note=50 velocity=101 time=455\n",
      "note_on channel=14 note=54 velocity=105 time=8\n",
      "note_on channel=14 note=57 velocity=105 time=7\n",
      "note_on channel=14 note=62 velocity=118 time=7\n",
      "control_change channel=14 control=11 value=0 time=18\n",
      "control_change channel=14 control=11 value=127 time=15\n",
      "control_change channel=14 control=11 value=0 time=15\n",
      "control_change channel=14 control=11 value=127 time=15\n",
      "control_change channel=14 control=11 value=0 time=15\n",
      "control_change channel=14 control=11 value=127 time=15\n",
      "control_change channel=14 control=11 value=0 time=15\n",
      "control_change channel=14 control=11 value=127 time=15\n",
      "control_change channel=14 control=11 value=0 time=15\n",
      "control_change channel=14 control=11 value=127 time=15\n",
      "control_change channel=14 control=11 value=0 time=15\n",
      "control_change channel=14 control=11 value=127 time=15\n",
      "control_change channel=14 control=11 value=0 time=15\n",
      "control_change channel=14 control=11 value=127 time=15\n",
      "control_change channel=14 control=11 value=0 time=15\n",
      "control_change channel=14 control=11 value=127 time=15\n",
      "control_change channel=14 control=11 value=0 time=15\n",
      "control_change channel=14 control=11 value=127 time=15\n",
      "control_change channel=14 control=11 value=0 time=15\n",
      "control_change channel=14 control=11 value=127 time=15\n",
      "control_change channel=14 control=11 value=0 time=15\n",
      "control_change channel=14 control=11 value=127 time=15\n",
      "control_change channel=14 control=11 value=0 time=15\n",
      "control_change channel=14 control=11 value=127 time=15\n",
      "control_change channel=14 control=11 value=0 time=15\n",
      "control_change channel=14 control=11 value=127 time=15\n",
      "control_change channel=14 control=11 value=0 time=15\n",
      "control_change channel=14 control=11 value=127 time=15\n",
      "control_change channel=14 control=11 value=0 time=15\n",
      "control_change channel=14 control=11 value=127 time=15\n",
      "control_change channel=14 control=11 value=0 time=15\n",
      "note_on channel=14 note=62 velocity=0 time=15\n",
      "note_on channel=14 note=50 velocity=0 time=0\n",
      "note_on channel=14 note=54 velocity=0 time=0\n",
      "note_on channel=14 note=57 velocity=0 time=0\n",
      "control_change channel=14 control=11 value=127 time=0\n",
      "note_on channel=14 note=50 velocity=101 time=455\n",
      "note_on channel=14 note=54 velocity=105 time=8\n",
      "note_on channel=14 note=57 velocity=105 time=7\n",
      "note_on channel=14 note=62 velocity=118 time=7\n",
      "control_change channel=14 control=11 value=0 time=18\n",
      "control_change channel=14 control=11 value=127 time=15\n",
      "control_change channel=14 control=11 value=0 time=15\n",
      "control_change channel=14 control=11 value=127 time=15\n",
      "control_change channel=14 control=11 value=0 time=15\n",
      "control_change channel=14 control=11 value=127 time=15\n",
      "control_change channel=14 control=11 value=0 time=15\n",
      "control_change channel=14 control=11 value=127 time=15\n",
      "control_change channel=14 control=11 value=0 time=15\n",
      "control_change channel=14 control=11 value=127 time=15\n",
      "control_change channel=14 control=11 value=0 time=15\n",
      "control_change channel=14 control=11 value=127 time=15\n",
      "control_change channel=14 control=11 value=0 time=15\n",
      "control_change channel=14 control=11 value=127 time=15\n",
      "control_change channel=14 control=11 value=0 time=15\n",
      "control_change channel=14 control=11 value=127 time=15\n",
      "control_change channel=14 control=11 value=0 time=15\n",
      "control_change channel=14 control=11 value=127 time=15\n",
      "control_change channel=14 control=11 value=0 time=15\n",
      "control_change channel=14 control=11 value=127 time=15\n",
      "control_change channel=14 control=11 value=0 time=15\n",
      "control_change channel=14 control=11 value=127 time=15\n",
      "control_change channel=14 control=11 value=0 time=15\n",
      "control_change channel=14 control=11 value=127 time=15\n",
      "control_change channel=14 control=11 value=0 time=15\n",
      "control_change channel=14 control=11 value=127 time=15\n",
      "control_change channel=14 control=11 value=0 time=15\n",
      "control_change channel=14 control=11 value=127 time=15\n",
      "control_change channel=14 control=11 value=0 time=15\n",
      "control_change channel=14 control=11 value=127 time=15\n",
      "control_change channel=14 control=11 value=0 time=15\n",
      "note_on channel=14 note=62 velocity=0 time=15\n",
      "note_on channel=14 note=50 velocity=0 time=0\n",
      "note_on channel=14 note=54 velocity=0 time=0\n",
      "note_on channel=14 note=57 velocity=0 time=0\n",
      "control_change channel=14 control=11 value=127 time=0\n",
      "note_on channel=14 note=50 velocity=109 time=5255\n",
      "note_on channel=14 note=54 velocity=113 time=8\n",
      "note_on channel=14 note=57 velocity=113 time=7\n",
      "note_on channel=14 note=62 velocity=127 time=7\n",
      "note_on channel=14 note=62 velocity=0 time=483\n",
      "note_on channel=14 note=50 velocity=0 time=0\n",
      "note_on channel=14 note=54 velocity=0 time=0\n",
      "note_on channel=14 note=57 velocity=0 time=0\n",
      "note_on channel=14 note=50 velocity=101 time=455\n",
      "note_on channel=14 note=54 velocity=105 time=8\n",
      "note_on channel=14 note=57 velocity=105 time=7\n",
      "note_on channel=14 note=62 velocity=118 time=7\n",
      "control_change channel=14 control=11 value=0 time=18\n",
      "control_change channel=14 control=11 value=127 time=15\n",
      "control_change channel=14 control=11 value=0 time=15\n",
      "control_change channel=14 control=11 value=127 time=15\n",
      "control_change channel=14 control=11 value=0 time=15\n",
      "control_change channel=14 control=11 value=127 time=15\n",
      "control_change channel=14 control=11 value=0 time=15\n",
      "control_change channel=14 control=11 value=127 time=15\n",
      "control_change channel=14 control=11 value=0 time=15\n",
      "control_change channel=14 control=11 value=127 time=15\n",
      "control_change channel=14 control=11 value=0 time=15\n",
      "control_change channel=14 control=11 value=127 time=15\n",
      "control_change channel=14 control=11 value=0 time=15\n",
      "control_change channel=14 control=11 value=127 time=15\n",
      "control_change channel=14 control=11 value=0 time=15\n",
      "control_change channel=14 control=11 value=127 time=15\n",
      "control_change channel=14 control=11 value=0 time=15\n",
      "control_change channel=14 control=11 value=127 time=15\n",
      "control_change channel=14 control=11 value=0 time=15\n",
      "control_change channel=14 control=11 value=127 time=15\n",
      "control_change channel=14 control=11 value=0 time=15\n",
      "control_change channel=14 control=11 value=127 time=15\n",
      "control_change channel=14 control=11 value=0 time=15\n",
      "control_change channel=14 control=11 value=127 time=15\n",
      "control_change channel=14 control=11 value=0 time=15\n",
      "control_change channel=14 control=11 value=127 time=15\n",
      "control_change channel=14 control=11 value=0 time=15\n",
      "control_change channel=14 control=11 value=127 time=15\n",
      "control_change channel=14 control=11 value=0 time=15\n",
      "control_change channel=14 control=11 value=127 time=15\n",
      "control_change channel=14 control=11 value=0 time=15\n",
      "note_on channel=14 note=62 velocity=0 time=15\n",
      "note_on channel=14 note=50 velocity=0 time=0\n",
      "note_on channel=14 note=54 velocity=0 time=0\n",
      "note_on channel=14 note=57 velocity=0 time=0\n",
      "control_change channel=14 control=11 value=127 time=0\n",
      "note_on channel=14 note=50 velocity=101 time=455\n",
      "note_on channel=14 note=54 velocity=105 time=8\n",
      "note_on channel=14 note=57 velocity=105 time=7\n",
      "note_on channel=14 note=62 velocity=118 time=7\n",
      "control_change channel=14 control=11 value=0 time=18\n",
      "control_change channel=14 control=11 value=127 time=15\n",
      "control_change channel=14 control=11 value=0 time=15\n",
      "control_change channel=14 control=11 value=127 time=15\n",
      "control_change channel=14 control=11 value=0 time=15\n",
      "control_change channel=14 control=11 value=127 time=15\n",
      "control_change channel=14 control=11 value=0 time=15\n",
      "control_change channel=14 control=11 value=127 time=15\n",
      "control_change channel=14 control=11 value=0 time=15\n",
      "control_change channel=14 control=11 value=127 time=15\n",
      "control_change channel=14 control=11 value=0 time=15\n",
      "control_change channel=14 control=11 value=127 time=15\n",
      "control_change channel=14 control=11 value=0 time=15\n",
      "control_change channel=14 control=11 value=127 time=15\n",
      "control_change channel=14 control=11 value=0 time=15\n",
      "control_change channel=14 control=11 value=127 time=15\n",
      "control_change channel=14 control=11 value=0 time=15\n",
      "control_change channel=14 control=11 value=127 time=15\n",
      "control_change channel=14 control=11 value=0 time=15\n",
      "control_change channel=14 control=11 value=127 time=15\n",
      "control_change channel=14 control=11 value=0 time=15\n",
      "control_change channel=14 control=11 value=127 time=15\n",
      "control_change channel=14 control=11 value=0 time=15\n",
      "control_change channel=14 control=11 value=127 time=15\n",
      "control_change channel=14 control=11 value=0 time=15\n",
      "control_change channel=14 control=11 value=127 time=15\n",
      "control_change channel=14 control=11 value=0 time=15\n",
      "control_change channel=14 control=11 value=127 time=15\n",
      "control_change channel=14 control=11 value=0 time=15\n",
      "control_change channel=14 control=11 value=127 time=15\n",
      "control_change channel=14 control=11 value=0 time=15\n",
      "note_on channel=14 note=62 velocity=0 time=15\n",
      "note_on channel=14 note=50 velocity=0 time=0\n",
      "note_on channel=14 note=54 velocity=0 time=0\n",
      "note_on channel=14 note=57 velocity=0 time=0\n",
      "control_change channel=14 control=11 value=127 time=0\n",
      "note_on channel=14 note=49 velocity=109 time=1415\n",
      "note_on channel=14 note=54 velocity=113 time=8\n",
      "note_on channel=14 note=57 velocity=113 time=7\n",
      "note_on channel=14 note=61 velocity=113 time=7\n",
      "note_on channel=14 note=66 velocity=123 time=5\n",
      "control_change channel=14 control=11 value=0 time=13\n",
      "control_change channel=14 control=11 value=127 time=15\n",
      "control_change channel=14 control=11 value=0 time=15\n",
      "control_change channel=14 control=11 value=127 time=15\n",
      "control_change channel=14 control=11 value=0 time=15\n",
      "control_change channel=14 control=11 value=127 time=15\n",
      "control_change channel=14 control=11 value=0 time=15\n",
      "control_change channel=14 control=11 value=127 time=15\n",
      "control_change channel=14 control=11 value=0 time=15\n",
      "control_change channel=14 control=11 value=127 time=15\n",
      "control_change channel=14 control=11 value=0 time=15\n",
      "control_change channel=14 control=11 value=127 time=15\n",
      "control_change channel=14 control=11 value=0 time=15\n",
      "control_change channel=14 control=11 value=127 time=15\n",
      "control_change channel=14 control=11 value=0 time=15\n",
      "control_change channel=14 control=11 value=127 time=15\n",
      "control_change channel=14 control=11 value=0 time=15\n",
      "control_change channel=14 control=11 value=127 time=15\n",
      "control_change channel=14 control=11 value=0 time=15\n",
      "control_change channel=14 control=11 value=127 time=15\n",
      "control_change channel=14 control=11 value=0 time=15\n",
      "control_change channel=14 control=11 value=127 time=15\n",
      "control_change channel=14 control=11 value=0 time=15\n",
      "control_change channel=14 control=11 value=127 time=15\n",
      "control_change channel=14 control=11 value=0 time=15\n",
      "control_change channel=14 control=11 value=127 time=15\n",
      "control_change channel=14 control=11 value=0 time=15\n",
      "control_change channel=14 control=11 value=127 time=15\n",
      "control_change channel=14 control=11 value=0 time=15\n",
      "control_change channel=14 control=11 value=127 time=15\n",
      "control_change channel=14 control=11 value=0 time=15\n",
      "note_on channel=14 note=66 velocity=0 time=15\n",
      "note_on channel=14 note=57 velocity=0 time=0\n",
      "note_on channel=14 note=49 velocity=0 time=0\n",
      "note_on channel=14 note=54 velocity=0 time=0\n",
      "note_on channel=14 note=61 velocity=0 time=0\n",
      "control_change channel=14 control=11 value=127 time=0\n",
      "note_on channel=14 note=49 velocity=109 time=1415\n",
      "note_on channel=14 note=54 velocity=113 time=8\n",
      "note_on channel=14 note=57 velocity=113 time=7\n",
      "note_on channel=14 note=61 velocity=113 time=7\n",
      "note_on channel=14 note=66 velocity=123 time=5\n",
      "control_change channel=14 control=11 value=0 time=13\n",
      "control_change channel=14 control=11 value=127 time=15\n",
      "control_change channel=14 control=11 value=0 time=15\n",
      "control_change channel=14 control=11 value=127 time=15\n",
      "control_change channel=14 control=11 value=0 time=15\n",
      "control_change channel=14 control=11 value=127 time=15\n",
      "control_change channel=14 control=11 value=0 time=15\n",
      "control_change channel=14 control=11 value=127 time=15\n",
      "control_change channel=14 control=11 value=0 time=15\n",
      "control_change channel=14 control=11 value=127 time=15\n",
      "control_change channel=14 control=11 value=0 time=15\n",
      "control_change channel=14 control=11 value=127 time=15\n",
      "control_change channel=14 control=11 value=0 time=15\n",
      "control_change channel=14 control=11 value=127 time=15\n",
      "control_change channel=14 control=11 value=0 time=15\n",
      "control_change channel=14 control=11 value=127 time=15\n",
      "control_change channel=14 control=11 value=0 time=15\n",
      "control_change channel=14 control=11 value=127 time=15\n",
      "control_change channel=14 control=11 value=0 time=15\n",
      "control_change channel=14 control=11 value=127 time=15\n",
      "control_change channel=14 control=11 value=0 time=15\n",
      "control_change channel=14 control=11 value=127 time=15\n",
      "control_change channel=14 control=11 value=0 time=15\n",
      "control_change channel=14 control=11 value=127 time=15\n",
      "control_change channel=14 control=11 value=0 time=15\n",
      "control_change channel=14 control=11 value=127 time=15\n",
      "control_change channel=14 control=11 value=0 time=15\n",
      "control_change channel=14 control=11 value=127 time=15\n",
      "control_change channel=14 control=11 value=0 time=15\n",
      "control_change channel=14 control=11 value=127 time=15\n",
      "control_change channel=14 control=11 value=0 time=15\n",
      "note_on channel=14 note=66 velocity=0 time=15\n",
      "note_on channel=14 note=57 velocity=0 time=0\n",
      "note_on channel=14 note=49 velocity=0 time=0\n",
      "note_on channel=14 note=54 velocity=0 time=0\n",
      "note_on channel=14 note=61 velocity=0 time=0\n",
      "control_change channel=14 control=11 value=127 time=0\n",
      "note_on channel=14 note=52 velocity=106 time=5255\n",
      "note_on channel=14 note=56 velocity=106 time=8\n",
      "note_on channel=14 note=59 velocity=106 time=7\n",
      "note_on channel=14 note=64 velocity=106 time=7\n",
      "note_on channel=14 note=64 velocity=0 time=483\n",
      "note_on channel=14 note=52 velocity=0 time=0\n",
      "note_on channel=14 note=56 velocity=0 time=0\n",
      "note_on channel=14 note=59 velocity=0 time=0\n",
      "note_on channel=14 note=52 velocity=106 time=455\n",
      "note_on channel=14 note=56 velocity=106 time=8\n",
      "note_on channel=14 note=59 velocity=106 time=7\n",
      "note_on channel=14 note=64 velocity=106 time=7\n",
      "note_on channel=14 note=64 velocity=0 time=483\n",
      "note_on channel=14 note=52 velocity=0 time=0\n",
      "note_on channel=14 note=56 velocity=0 time=0\n",
      "note_on channel=14 note=59 velocity=0 time=0\n",
      "note_on channel=14 note=52 velocity=106 time=455\n",
      "note_on channel=14 note=56 velocity=106 time=8\n",
      "note_on channel=14 note=59 velocity=106 time=7\n",
      "note_on channel=14 note=64 velocity=106 time=7\n",
      "note_on channel=14 note=64 velocity=0 time=483\n",
      "note_on channel=14 note=52 velocity=0 time=0\n",
      "note_on channel=14 note=56 velocity=0 time=0\n",
      "note_on channel=14 note=59 velocity=0 time=0\n",
      "note_on channel=14 note=52 velocity=106 time=1415\n",
      "note_on channel=14 note=56 velocity=106 time=8\n",
      "note_on channel=14 note=59 velocity=106 time=7\n",
      "note_on channel=14 note=64 velocity=106 time=7\n",
      "note_on channel=14 note=64 velocity=0 time=483\n",
      "note_on channel=14 note=52 velocity=0 time=0\n",
      "note_on channel=14 note=56 velocity=0 time=0\n",
      "note_on channel=14 note=59 velocity=0 time=0\n",
      "note_on channel=14 note=52 velocity=106 time=455\n",
      "note_on channel=14 note=56 velocity=106 time=8\n",
      "note_on channel=14 note=59 velocity=106 time=7\n",
      "note_on channel=14 note=64 velocity=106 time=7\n",
      "note_on channel=14 note=64 velocity=0 time=483\n",
      "note_on channel=14 note=52 velocity=0 time=0\n",
      "note_on channel=14 note=56 velocity=0 time=0\n",
      "note_on channel=14 note=59 velocity=0 time=0\n",
      "note_on channel=14 note=52 velocity=106 time=455\n",
      "note_on channel=14 note=56 velocity=106 time=8\n",
      "note_on channel=14 note=59 velocity=106 time=7\n",
      "note_on channel=14 note=64 velocity=106 time=7\n",
      "note_on channel=14 note=64 velocity=0 time=483\n",
      "note_on channel=14 note=52 velocity=0 time=0\n",
      "note_on channel=14 note=56 velocity=0 time=0\n",
      "note_on channel=14 note=59 velocity=0 time=0\n",
      "note_on channel=14 note=52 velocity=106 time=1415\n",
      "note_on channel=14 note=56 velocity=106 time=8\n",
      "note_on channel=14 note=59 velocity=106 time=7\n",
      "note_on channel=14 note=64 velocity=106 time=7\n",
      "note_on channel=14 note=64 velocity=0 time=483\n",
      "note_on channel=14 note=52 velocity=0 time=0\n",
      "note_on channel=14 note=56 velocity=0 time=0\n",
      "note_on channel=14 note=59 velocity=0 time=0\n",
      "note_on channel=14 note=52 velocity=106 time=455\n",
      "note_on channel=14 note=56 velocity=106 time=8\n",
      "note_on channel=14 note=59 velocity=106 time=7\n",
      "note_on channel=14 note=64 velocity=106 time=7\n",
      "note_on channel=14 note=64 velocity=0 time=483\n",
      "note_on channel=14 note=52 velocity=0 time=0\n",
      "note_on channel=14 note=56 velocity=0 time=0\n",
      "note_on channel=14 note=59 velocity=0 time=0\n",
      "note_on channel=14 note=52 velocity=106 time=455\n",
      "note_on channel=14 note=56 velocity=106 time=8\n",
      "note_on channel=14 note=59 velocity=106 time=7\n",
      "note_on channel=14 note=64 velocity=106 time=7\n",
      "note_on channel=14 note=64 velocity=0 time=483\n",
      "note_on channel=14 note=52 velocity=0 time=0\n",
      "note_on channel=14 note=56 velocity=0 time=0\n",
      "note_on channel=14 note=59 velocity=0 time=0\n",
      "MetaMessage('end_of_track', time=0)\n",
      "Track 16\n",
      "MetaMessage('midi_port', port=0, time=0)\n",
      "MetaMessage('track_name', name='', time=0)\n",
      "control_change channel=15 control=0 value=5 time=0\n",
      "control_change channel=15 control=32 value=2 time=0\n",
      "program_change channel=15 program=124 time=0\n",
      "control_change channel=15 control=7 value=32 time=0\n",
      "control_change channel=15 control=10 value=20 time=0\n",
      "control_change channel=15 control=11 value=127 time=800\n",
      "control_change channel=15 control=91 value=100 time=2\n",
      "control_change channel=15 control=93 value=0 time=2\n",
      "control_change channel=15 control=94 value=0 time=2\n",
      "note_on channel=15 note=97 velocity=127 time=26914\n",
      "control_change channel=15 control=11 value=125 time=600\n",
      "control_change channel=15 control=11 value=124 time=6\n",
      "control_change channel=15 control=11 value=122 time=6\n",
      "control_change channel=15 control=11 value=121 time=3\n",
      "control_change channel=15 control=11 value=119 time=7\n",
      "control_change channel=15 control=11 value=118 time=3\n",
      "control_change channel=15 control=11 value=117 time=3\n",
      "control_change channel=15 control=11 value=116 time=3\n",
      "control_change channel=15 control=11 value=111 time=13\n",
      "control_change channel=15 control=11 value=110 time=3\n",
      "control_change channel=15 control=11 value=109 time=6\n",
      "control_change channel=15 control=11 value=108 time=3\n",
      "control_change channel=15 control=11 value=107 time=4\n",
      "control_change channel=15 control=11 value=106 time=3\n",
      "control_change channel=15 control=11 value=105 time=3\n",
      "control_change channel=15 control=11 value=104 time=3\n",
      "control_change channel=15 control=11 value=102 time=6\n",
      "control_change channel=15 control=11 value=101 time=7\n",
      "control_change channel=15 control=11 value=99 time=6\n",
      "control_change channel=15 control=11 value=95 time=19\n",
      "control_change channel=15 control=11 value=94 time=9\n",
      "control_change channel=15 control=11 value=93 time=4\n",
      "control_change channel=15 control=11 value=92 time=6\n",
      "control_change channel=15 control=11 value=90 time=6\n",
      "control_change channel=15 control=11 value=89 time=3\n",
      "control_change channel=15 control=11 value=88 time=10\n",
      "control_change channel=15 control=11 value=86 time=3\n",
      "control_change channel=15 control=11 value=85 time=9\n",
      "control_change channel=15 control=11 value=84 time=4\n",
      "control_change channel=15 control=11 value=79 time=19\n",
      "control_change channel=15 control=11 value=78 time=6\n",
      "control_change channel=15 control=11 value=77 time=6\n",
      "control_change channel=15 control=11 value=76 time=3\n",
      "control_change channel=15 control=11 value=74 time=7\n",
      "control_change channel=15 control=11 value=73 time=3\n",
      "control_change channel=15 control=11 value=70 time=9\n",
      "control_change channel=15 control=11 value=67 time=16\n",
      "control_change channel=15 control=11 value=65 time=10\n",
      "control_change channel=15 control=11 value=64 time=6\n",
      "control_change channel=15 control=11 value=61 time=9\n",
      "control_change channel=15 control=11 value=59 time=10\n",
      "control_change channel=15 control=11 value=58 time=3\n",
      "control_change channel=15 control=11 value=53 time=19\n",
      "control_change channel=15 control=11 value=51 time=9\n",
      "control_change channel=15 control=11 value=50 time=4\n",
      "control_change channel=15 control=11 value=49 time=3\n",
      "control_change channel=15 control=11 value=47 time=9\n",
      "control_change channel=15 control=11 value=46 time=3\n",
      "control_change channel=15 control=11 value=45 time=3\n",
      "control_change channel=15 control=11 value=44 time=4\n",
      "control_change channel=15 control=11 value=43 time=3\n",
      "control_change channel=15 control=11 value=41 time=6\n",
      "control_change channel=15 control=11 value=40 time=6\n",
      "control_change channel=15 control=11 value=34 time=26\n",
      "control_change channel=15 control=11 value=32 time=3\n",
      "control_change channel=15 control=11 value=31 time=3\n",
      "control_change channel=15 control=11 value=29 time=6\n",
      "control_change channel=15 control=11 value=28 time=7\n",
      "control_change channel=15 control=11 value=26 time=3\n",
      "control_change channel=15 control=11 value=25 time=6\n",
      "control_change channel=15 control=11 value=23 time=3\n",
      "control_change channel=15 control=11 value=22 time=3\n",
      "control_change channel=15 control=11 value=16 time=19\n",
      "control_change channel=15 control=11 value=15 time=10\n",
      "control_change channel=15 control=11 value=13 time=3\n",
      "control_change channel=15 control=11 value=11 time=6\n",
      "control_change channel=15 control=11 value=10 time=3\n",
      "control_change channel=15 control=11 value=9 time=7\n",
      "control_change channel=15 control=11 value=8 time=3\n",
      "control_change channel=15 control=11 value=7 time=3\n",
      "control_change channel=15 control=11 value=2 time=16\n",
      "control_change channel=15 control=11 value=1 time=3\n",
      "control_change channel=15 control=11 value=0 time=3\n",
      "note_on channel=15 note=97 velocity=0 time=7\n",
      "MetaMessage('end_of_track', time=0)\n"
     ]
    }
   ],
   "source": [
    "for i, track in enumerate(sample1_mido.tracks):\n",
    "    print(f\"Track {i}\")\n",
    "    for msg in track:\n",
    "        print(msg)"
   ]
  },
  {
   "cell_type": "code",
   "execution_count": 34,
   "metadata": {},
   "outputs": [
    {
     "name": "stdout",
     "output_type": "stream",
     "text": [
      "(13337, 19)\n",
      "type\n",
      "note_on           11950\n",
      "pitchwheel          832\n",
      "control_change      458\n",
      "midi_port            18\n",
      "track_name           17\n",
      "end_of_track         17\n",
      "program_change       16\n",
      "marker               11\n",
      "text                  6\n",
      "set_tempo             5\n",
      "sysex                 4\n",
      "copyright             1\n",
      "time_signature        1\n",
      "key_signature         1\n",
      "Name: count, dtype: int64\n",
      "note\n",
      "54.0     913\n",
      "69.0     552\n",
      "42.0     458\n",
      "57.0     352\n",
      "61.0     295\n",
      "59.0     273\n",
      "56.0     249\n",
      "66.0     246\n",
      "64.0     229\n",
      "52.0     223\n",
      "49.0     214\n",
      "35.0     174\n",
      "62.0     142\n",
      "71.0     137\n",
      "37.0     129\n",
      "63.0     122\n",
      "39.0     122\n",
      "50.0     111\n",
      "28.0     104\n",
      "73.0     103\n",
      "30.0     102\n",
      "51.0      81\n",
      "68.0      71\n",
      "46.0      63\n",
      "78.0      54\n",
      "38.0      53\n",
      "75.0      53\n",
      "58.0      46\n",
      "76.0      31\n",
      "70.0      28\n",
      "32.0      26\n",
      "83.0      19\n",
      "33.0      18\n",
      "81.0      16\n",
      "45.0      15\n",
      "85.0      15\n",
      "74.0      15\n",
      "93.0      13\n",
      "29.0      12\n",
      "80.0      10\n",
      "90.0      10\n",
      "97.0      10\n",
      "82.0       8\n",
      "86.0       7\n",
      "92.0       6\n",
      "72.0       5\n",
      "40.0       5\n",
      "95.0       5\n",
      "53.0       4\n",
      "47.0       4\n",
      "98.0       4\n",
      "87.0       4\n",
      "100.0      4\n",
      "65.0       3\n",
      "44.0       3\n",
      "88.0       3\n",
      "102.0      1\n",
      "Name: count, dtype: int64\n",
      "control\n",
      "11.0     319\n",
      "7.0       16\n",
      "91.0      16\n",
      "93.0      16\n",
      "94.0      16\n",
      "10.0      15\n",
      "6.0       13\n",
      "38.0      13\n",
      "101.0      9\n",
      "100.0      9\n",
      "99.0       4\n",
      "98.0       4\n",
      "0.0        3\n",
      "32.0       3\n",
      "72.0       1\n",
      "73.0       1\n",
      "Name: count, dtype: int64\n",
      "channel\n",
      "9.0     4202\n",
      "5.0     3569\n",
      "1.0     1234\n",
      "3.0      856\n",
      "6.0      854\n",
      "4.0      815\n",
      "12.0     692\n",
      "0.0      347\n",
      "14.0     339\n",
      "15.0      84\n",
      "2.0       83\n",
      "11.0      71\n",
      "8.0       47\n",
      "7.0       35\n",
      "10.0      17\n",
      "13.0      11\n",
      "Name: count, dtype: int64\n"
     ]
    }
   ],
   "source": [
    "messages = []\n",
    "for i, track in enumerate(sample1_mido.tracks):\n",
    "    for msg in track:\n",
    "        messages.append(msg.dict())\n",
    "messages = pd.DataFrame(messages)\n",
    "print(messages.shape)\n",
    "print(messages.type.value_counts())\n",
    "print(messages[messages.velocity > 0].note.value_counts())\n",
    "print(messages.control.value_counts())\n",
    "print(messages.channel.value_counts())\n"
   ]
  },
  {
   "cell_type": "code",
   "execution_count": 35,
   "metadata": {},
   "outputs": [
    {
     "data": {
      "text/html": [
       "<div>\n",
       "<style scoped>\n",
       "    .dataframe tbody tr th:only-of-type {\n",
       "        vertical-align: middle;\n",
       "    }\n",
       "\n",
       "    .dataframe tbody tr th {\n",
       "        vertical-align: top;\n",
       "    }\n",
       "\n",
       "    .dataframe thead th {\n",
       "        text-align: right;\n",
       "    }\n",
       "</style>\n",
       "<table border=\"1\" class=\"dataframe\">\n",
       "  <thead>\n",
       "    <tr style=\"text-align: right;\">\n",
       "      <th></th>\n",
       "      <th>type</th>\n",
       "      <th>name</th>\n",
       "      <th>time</th>\n",
       "      <th>text</th>\n",
       "      <th>port</th>\n",
       "      <th>data</th>\n",
       "      <th>numerator</th>\n",
       "      <th>denominator</th>\n",
       "      <th>clocks_per_click</th>\n",
       "      <th>notated_32nd_notes_per_beat</th>\n",
       "      <th>key</th>\n",
       "      <th>tempo</th>\n",
       "      <th>program</th>\n",
       "      <th>channel</th>\n",
       "      <th>control</th>\n",
       "      <th>value</th>\n",
       "      <th>note</th>\n",
       "      <th>velocity</th>\n",
       "      <th>pitch</th>\n",
       "    </tr>\n",
       "  </thead>\n",
       "  <tbody>\n",
       "    <tr>\n",
       "      <th>42</th>\n",
       "      <td>note_on</td>\n",
       "      <td>NaN</td>\n",
       "      <td>10174</td>\n",
       "      <td>NaN</td>\n",
       "      <td>NaN</td>\n",
       "      <td>NaN</td>\n",
       "      <td>NaN</td>\n",
       "      <td>NaN</td>\n",
       "      <td>NaN</td>\n",
       "      <td>NaN</td>\n",
       "      <td>NaN</td>\n",
       "      <td>NaN</td>\n",
       "      <td>NaN</td>\n",
       "      <td>0.0</td>\n",
       "      <td>NaN</td>\n",
       "      <td>NaN</td>\n",
       "      <td>100.0</td>\n",
       "      <td>69.0</td>\n",
       "      <td>NaN</td>\n",
       "    </tr>\n",
       "    <tr>\n",
       "      <th>43</th>\n",
       "      <td>note_on</td>\n",
       "      <td>NaN</td>\n",
       "      <td>120</td>\n",
       "      <td>NaN</td>\n",
       "      <td>NaN</td>\n",
       "      <td>NaN</td>\n",
       "      <td>NaN</td>\n",
       "      <td>NaN</td>\n",
       "      <td>NaN</td>\n",
       "      <td>NaN</td>\n",
       "      <td>NaN</td>\n",
       "      <td>NaN</td>\n",
       "      <td>NaN</td>\n",
       "      <td>0.0</td>\n",
       "      <td>NaN</td>\n",
       "      <td>NaN</td>\n",
       "      <td>100.0</td>\n",
       "      <td>0.0</td>\n",
       "      <td>NaN</td>\n",
       "    </tr>\n",
       "    <tr>\n",
       "      <th>44</th>\n",
       "      <td>note_on</td>\n",
       "      <td>NaN</td>\n",
       "      <td>0</td>\n",
       "      <td>NaN</td>\n",
       "      <td>NaN</td>\n",
       "      <td>NaN</td>\n",
       "      <td>NaN</td>\n",
       "      <td>NaN</td>\n",
       "      <td>NaN</td>\n",
       "      <td>NaN</td>\n",
       "      <td>NaN</td>\n",
       "      <td>NaN</td>\n",
       "      <td>NaN</td>\n",
       "      <td>0.0</td>\n",
       "      <td>NaN</td>\n",
       "      <td>NaN</td>\n",
       "      <td>98.0</td>\n",
       "      <td>69.0</td>\n",
       "      <td>NaN</td>\n",
       "    </tr>\n",
       "    <tr>\n",
       "      <th>45</th>\n",
       "      <td>note_on</td>\n",
       "      <td>NaN</td>\n",
       "      <td>60</td>\n",
       "      <td>NaN</td>\n",
       "      <td>NaN</td>\n",
       "      <td>NaN</td>\n",
       "      <td>NaN</td>\n",
       "      <td>NaN</td>\n",
       "      <td>NaN</td>\n",
       "      <td>NaN</td>\n",
       "      <td>NaN</td>\n",
       "      <td>NaN</td>\n",
       "      <td>NaN</td>\n",
       "      <td>0.0</td>\n",
       "      <td>NaN</td>\n",
       "      <td>NaN</td>\n",
       "      <td>98.0</td>\n",
       "      <td>0.0</td>\n",
       "      <td>NaN</td>\n",
       "    </tr>\n",
       "    <tr>\n",
       "      <th>46</th>\n",
       "      <td>note_on</td>\n",
       "      <td>NaN</td>\n",
       "      <td>0</td>\n",
       "      <td>NaN</td>\n",
       "      <td>NaN</td>\n",
       "      <td>NaN</td>\n",
       "      <td>NaN</td>\n",
       "      <td>NaN</td>\n",
       "      <td>NaN</td>\n",
       "      <td>NaN</td>\n",
       "      <td>NaN</td>\n",
       "      <td>NaN</td>\n",
       "      <td>NaN</td>\n",
       "      <td>0.0</td>\n",
       "      <td>NaN</td>\n",
       "      <td>NaN</td>\n",
       "      <td>97.0</td>\n",
       "      <td>69.0</td>\n",
       "      <td>NaN</td>\n",
       "    </tr>\n",
       "    <tr>\n",
       "      <th>47</th>\n",
       "      <td>note_on</td>\n",
       "      <td>NaN</td>\n",
       "      <td>60</td>\n",
       "      <td>NaN</td>\n",
       "      <td>NaN</td>\n",
       "      <td>NaN</td>\n",
       "      <td>NaN</td>\n",
       "      <td>NaN</td>\n",
       "      <td>NaN</td>\n",
       "      <td>NaN</td>\n",
       "      <td>NaN</td>\n",
       "      <td>NaN</td>\n",
       "      <td>NaN</td>\n",
       "      <td>0.0</td>\n",
       "      <td>NaN</td>\n",
       "      <td>NaN</td>\n",
       "      <td>97.0</td>\n",
       "      <td>0.0</td>\n",
       "      <td>NaN</td>\n",
       "    </tr>\n",
       "    <tr>\n",
       "      <th>48</th>\n",
       "      <td>note_on</td>\n",
       "      <td>NaN</td>\n",
       "      <td>0</td>\n",
       "      <td>NaN</td>\n",
       "      <td>NaN</td>\n",
       "      <td>NaN</td>\n",
       "      <td>NaN</td>\n",
       "      <td>NaN</td>\n",
       "      <td>NaN</td>\n",
       "      <td>NaN</td>\n",
       "      <td>NaN</td>\n",
       "      <td>NaN</td>\n",
       "      <td>NaN</td>\n",
       "      <td>0.0</td>\n",
       "      <td>NaN</td>\n",
       "      <td>NaN</td>\n",
       "      <td>95.0</td>\n",
       "      <td>69.0</td>\n",
       "      <td>NaN</td>\n",
       "    </tr>\n",
       "    <tr>\n",
       "      <th>49</th>\n",
       "      <td>note_on</td>\n",
       "      <td>NaN</td>\n",
       "      <td>60</td>\n",
       "      <td>NaN</td>\n",
       "      <td>NaN</td>\n",
       "      <td>NaN</td>\n",
       "      <td>NaN</td>\n",
       "      <td>NaN</td>\n",
       "      <td>NaN</td>\n",
       "      <td>NaN</td>\n",
       "      <td>NaN</td>\n",
       "      <td>NaN</td>\n",
       "      <td>NaN</td>\n",
       "      <td>0.0</td>\n",
       "      <td>NaN</td>\n",
       "      <td>NaN</td>\n",
       "      <td>95.0</td>\n",
       "      <td>0.0</td>\n",
       "      <td>NaN</td>\n",
       "    </tr>\n",
       "    <tr>\n",
       "      <th>50</th>\n",
       "      <td>note_on</td>\n",
       "      <td>NaN</td>\n",
       "      <td>0</td>\n",
       "      <td>NaN</td>\n",
       "      <td>NaN</td>\n",
       "      <td>NaN</td>\n",
       "      <td>NaN</td>\n",
       "      <td>NaN</td>\n",
       "      <td>NaN</td>\n",
       "      <td>NaN</td>\n",
       "      <td>NaN</td>\n",
       "      <td>NaN</td>\n",
       "      <td>NaN</td>\n",
       "      <td>0.0</td>\n",
       "      <td>NaN</td>\n",
       "      <td>NaN</td>\n",
       "      <td>93.0</td>\n",
       "      <td>69.0</td>\n",
       "      <td>NaN</td>\n",
       "    </tr>\n",
       "    <tr>\n",
       "      <th>51</th>\n",
       "      <td>note_on</td>\n",
       "      <td>NaN</td>\n",
       "      <td>60</td>\n",
       "      <td>NaN</td>\n",
       "      <td>NaN</td>\n",
       "      <td>NaN</td>\n",
       "      <td>NaN</td>\n",
       "      <td>NaN</td>\n",
       "      <td>NaN</td>\n",
       "      <td>NaN</td>\n",
       "      <td>NaN</td>\n",
       "      <td>NaN</td>\n",
       "      <td>NaN</td>\n",
       "      <td>0.0</td>\n",
       "      <td>NaN</td>\n",
       "      <td>NaN</td>\n",
       "      <td>93.0</td>\n",
       "      <td>0.0</td>\n",
       "      <td>NaN</td>\n",
       "    </tr>\n",
       "  </tbody>\n",
       "</table>\n",
       "</div>"
      ],
      "text/plain": [
       "       type name   time text  port data  numerator  denominator  \\\n",
       "42  note_on  NaN  10174  NaN   NaN  NaN        NaN          NaN   \n",
       "43  note_on  NaN    120  NaN   NaN  NaN        NaN          NaN   \n",
       "44  note_on  NaN      0  NaN   NaN  NaN        NaN          NaN   \n",
       "45  note_on  NaN     60  NaN   NaN  NaN        NaN          NaN   \n",
       "46  note_on  NaN      0  NaN   NaN  NaN        NaN          NaN   \n",
       "47  note_on  NaN     60  NaN   NaN  NaN        NaN          NaN   \n",
       "48  note_on  NaN      0  NaN   NaN  NaN        NaN          NaN   \n",
       "49  note_on  NaN     60  NaN   NaN  NaN        NaN          NaN   \n",
       "50  note_on  NaN      0  NaN   NaN  NaN        NaN          NaN   \n",
       "51  note_on  NaN     60  NaN   NaN  NaN        NaN          NaN   \n",
       "\n",
       "    clocks_per_click  notated_32nd_notes_per_beat  key  tempo  program  \\\n",
       "42               NaN                          NaN  NaN    NaN      NaN   \n",
       "43               NaN                          NaN  NaN    NaN      NaN   \n",
       "44               NaN                          NaN  NaN    NaN      NaN   \n",
       "45               NaN                          NaN  NaN    NaN      NaN   \n",
       "46               NaN                          NaN  NaN    NaN      NaN   \n",
       "47               NaN                          NaN  NaN    NaN      NaN   \n",
       "48               NaN                          NaN  NaN    NaN      NaN   \n",
       "49               NaN                          NaN  NaN    NaN      NaN   \n",
       "50               NaN                          NaN  NaN    NaN      NaN   \n",
       "51               NaN                          NaN  NaN    NaN      NaN   \n",
       "\n",
       "    channel  control  value   note  velocity  pitch  \n",
       "42      0.0      NaN    NaN  100.0      69.0    NaN  \n",
       "43      0.0      NaN    NaN  100.0       0.0    NaN  \n",
       "44      0.0      NaN    NaN   98.0      69.0    NaN  \n",
       "45      0.0      NaN    NaN   98.0       0.0    NaN  \n",
       "46      0.0      NaN    NaN   97.0      69.0    NaN  \n",
       "47      0.0      NaN    NaN   97.0       0.0    NaN  \n",
       "48      0.0      NaN    NaN   95.0      69.0    NaN  \n",
       "49      0.0      NaN    NaN   95.0       0.0    NaN  \n",
       "50      0.0      NaN    NaN   93.0      69.0    NaN  \n",
       "51      0.0      NaN    NaN   93.0       0.0    NaN  "
      ]
     },
     "execution_count": 35,
     "metadata": {},
     "output_type": "execute_result"
    }
   ],
   "source": [
    "messages[messages[\"type\"]==\"note_on\"].head(10)"
   ]
  },
  {
   "cell_type": "code",
   "execution_count": 36,
   "metadata": {},
   "outputs": [
    {
     "name": "stdout",
     "output_type": "stream",
     "text": [
      "Tempo=213.23063063085988, total number of notes:3885, pitch range: 74\n"
     ]
    }
   ],
   "source": [
    "tempo = sample1_pm.estimate_tempo()\n",
    "total_notes = sum(len(i.notes) for i in sample1_pm.instruments if not i.is_drum)\n",
    "pitch_range = max(note.pitch for i in sample1_pm.instruments for note in i.notes) - \\\n",
    "                min(note.pitch for i in sample1_pm.instruments for note in i.notes)\n",
    "print(f\"Tempo={tempo}, total number of notes:{total_notes}, pitch range: {pitch_range}\")"
   ]
  },
  {
   "cell_type": "code",
   "execution_count": 37,
   "metadata": {},
   "outputs": [
    {
     "name": "stdout",
     "output_type": "stream",
     "text": [
      "[Instrument(program=1, is_drum=False, name=\"\"), Instrument(program=33, is_drum=False, name=\"\"), Instrument(program=18, is_drum=False, name=\"\"), Instrument(program=68, is_drum=False, name=\"\"), Instrument(program=25, is_drum=False, name=\"\"), Instrument(program=25, is_drum=False, name=\"\"), Instrument(program=54, is_drum=False, name=\"\"), Instrument(program=27, is_drum=False, name=\"\"), Instrument(program=74, is_drum=False, name=\"\"), Instrument(program=0, is_drum=True, name=\"\"), Instrument(program=119, is_drum=False, name=\"\"), Instrument(program=89, is_drum=False, name=\"\"), Instrument(program=49, is_drum=False, name=\"\"), Instrument(program=127, is_drum=False, name=\"\"), Instrument(program=27, is_drum=False, name=\"\"), Instrument(program=124, is_drum=False, name=\"\")]\n"
     ]
    }
   ],
   "source": [
    "print(sample1_pm.instruments)"
   ]
  },
  {
   "cell_type": "code",
   "execution_count": 38,
   "metadata": {},
   "outputs": [
    {
     "data": {
      "image/png": "iVBORw0KGgoAAAANSUhEUgAAAz8AAAFkCAYAAAAOg4VeAAAAOnRFWHRTb2Z0d2FyZQBNYXRwbG90bGliIHZlcnNpb24zLjEwLjAsIGh0dHBzOi8vbWF0cGxvdGxpYi5vcmcvlHJYcgAAAAlwSFlzAAAPYQAAD2EBqD+naQAAzxRJREFUeJztvQmUdVdZp38DhBkCYcgACUQGAZlkCoGADJEwiKAoYtOCiIAIKkYF038RcdkGsVtZ2oiNS0EXswpBENAQZggBApE5MicQQsKUhCEkkPqv55inen87557p3qq6Vff3rFVffXXvOfu8593vnt/97v02NjY2ZiGEEEIIIYSwx7nCTgsQQgghhBBCCNtBBj8hhBBCCCGEtSCDnxBCCCGEEMJakMFPCCGEEEIIYS3I4CeEEEIIIYSwFmTwE0IIIYQQQlgLMvgJIYQQQgghrAUZ/IQQQgghhBDWggx+QgghhBBCCGtBBj8hhBBCCCGEtWBHBz/Pf/7zZze96U1nV73qVWdHHnnk7H3ve99OihNCCCGEEELYw+zY4OeVr3zl7Ljjjps961nPmn3wgx+c3eEOd5gde+yxs3PPPXenRAohhBBCCCHsYfbb2NjY2IkHs9Jz17vedfZ//s//af6+9NJLZ4cddtjs137t12a/+7u/23kv15599tmza13rWrP99ttvmyQOIYQQQgghrBoMZy688MLZoYceOrvCFbrXdq402wEuvvji2WmnnTY7/vjjNz9D0GOOOWZ2yimnXO76733ve82PfOlLX5rd5ja32TZ5QwghhBBCCKvNWWedNbvxjW+8eoOfr371q7Mf/OAHs4MOOmifz/n7k5/85OWuP+GEE2bPfvazW1/w2te+9pbKGkIIIYQQQlhdLrjggsaDDK+wPnZk8DMWVojYH1S/IAOfDH5CCCGEEEII+w3YDrMjg5/rX//6syte8Yqzr3zlK/t8zt8HH3zw5a6/ylWu0vyEEEIIIYQQwq6K9nblK195duc733l28skn7xPEgL+POuqonRAphBBCCCGEsMfZMbc33Nge+9jHzu5yl7vM7na3u82e97znzb797W/PHve4x+2USCGEEEIIIYQ9zI4Nfn7u535udt55581+//d/f3bOOefM7njHO87e9KY3XS4IQgghhBBCCCHs6nN+FoGABwcccMDs/PPPT8CDEEIIIYQQ1pgLRowNdmTPTwghhBBCCCFsNxn8hBBCCCGEENaCDH5CCCGEEEIIa0EGPyGEEEIIIYS1IIOfEEIIIYQQwlqQwU8IIYQQQghhLcjgJ4QQQgghhLAWZPATQgghhBBCWAsy+AkhhBBCCCGsBRn8hBBCCCGEENaCDH5CCCGEEEIIa0EGPyGEEEIIIYS1IIOfEEIIIYQQwlqQwU8IIYQQQghhLcjgJ4QQQgghhLAWZPATQgghhBBCWAsy+AkhhBBCCCGsBRn8hBBCCCGEENaCDH5CCCGEEEIIa0EGPyGEEEIIIYS1IIOfEEIIIYQQwlqQwU8IIYQQQghhLcjgJ4QQQgghhLAWZPATQgghhBBCWAsy+AkhhBBCCCGsBRn8hBBCCCGEENaCDH5CCCGEEEIIa0EGPyGEEEIIIYS1IIOfEEIIIYQQwlqQwU8IIYQQQghhLcjgJ4QQQgghhLAWZPATQgghhBBCWAsy+AkhhBBCCCGsBRn8hBBCCCGEENaCDH5CCCGEEEIIa0EGPyGEEEIIIYS1IIOfEEIIIYQQwlqw9MHPCSecMLvrXe86u9a1rjW74Q1vOHv4wx8+O+OMM/a55qKLLpo95SlPmV3vetebXfOa15w94hGPmH3lK19ZtighhBBCCCGEsHWDn7e//e3NwOa9733v7KSTTppdcsklswc84AGzb3/725vX/OZv/ubsda973ewf//Efm+vPPvvs2U//9E8vW5QQQgghhBBC2GS/jY2NjdkWct555zUrQAxy7n3ve8/OP//82Q1ucIPZy172stnP/MzPNNd88pOfnN361reenXLKKbO73/3uvWlecMEFswMOOKBJ69rXvvZWih9CCCGEEEJYYcaMDbZ8zw9CwIEHHtj8Pu2005rVoGOOOWbzmlvd6lazww8/vBn8hBBCCCGEEMJWcKXZFnLppZfOnva0p83uec97zm5729s2n51zzjmzK1/5yrPrXOc6+1x70EEHNd+18b3vfa/5KUd3IYQQQgghhDCGLV35Ye/PRz/60dkrXvGKhYMosJTlz2GHHbY0GUMIIYQQQgjrwZYNfp761KfOXv/618/e+ta3zm584xtvfn7wwQfPLr744tk3v/nNfa4n2hvftXH88cc37nP+nHXWWVsldgghhBBCCGGPsvTBD/ETGPi85jWvmb3lLW+ZHXHEEft8f+c733m2//77z04++eTNzwiFfeaZZ86OOuqo1jSvcpWrNJuXyp8QQgghhBBC2NE9P7i6Ecntta99bXPWj/t4cFe72tWu1vx+/OMfPzvuuOOaIAgMZH7t136tGfgMifQWQgghhBBCCCsR6nq//fZr/fxFL3rR7Bd/8Rc3Dzn9rd/6rdnLX/7yJpDBscceO/urv/qruW5vNQl1HUIIIYQQQhg7Ntjyc362ggx+QgghhBBCCCt3zk8IIYQQQgghrAIZ/IQQQgghhBDWggx+QgghhBBCCGtBBj8hhBBCCCGEtSCDnxBCCCGEEMJakMFPCCGEEEIIYS3I4CeEEEIIIYSwFmTwE0IIIYQQQlgLMvgJIYQQQgghrAUZ/IQQQgghhBDWgivttAAhhH3Z2NiYXXrppZt/X+EKV5jtt99+o9Pwp+1+v+PzrrSVxevKa8ek0SXLmHeaJ8s6s4r20ibHdtvLbkKddemm1Et57Rj9mD/rotdlU9dBZX5In27rMuJnZTpD8rZLFtIdUtZWTS9luS8/k+ilXS9D01kVvawCGfyEsGJcdNFFs7PPPrupjK561avODj300EkV0rnnntukdcMb3nB29atffZ/vvve9780uvPDC2fWvf/3ONLjuy1/+8uxqV7va7KCDDrrc91/72tdm1772tWdXucpVOtM577zzZt/97ndnN7jBDWbXuMY1ZlO4+OKLG1nQSZss6wp6+dKXvtQ0bFe+8pVnN7rRjWZXvOIVR6dDXn77299ubOKa17zmPt9dcskls/PPP7/XXrgO28UeyKPabr/xjW80tog9dfH1r3999q1vfatVlr0IZdGy2qcX8gEoR2PLAflDvTC1Tll3qMO+8pWvNLq/3vWu19joBRdcsNlx/MEPftBa39aQB5Rb8o97+P83v/nNptxQ586rb0uwl3POOad5FuUEWbAj6oGDDz64SYfvptQFY1EW5KaOL2VRL0PqfvSC3FyLTtUL9Rr/p+7n3Ya0WaVe+EEGdEo626UXnkV9WOqFn+9///vN8/k9pI6z/cS20AvlmLpUvWA36KWrTCsLOrzhDW/Y1PXIQlrcy/fIeaUrrcewIG5vIawYVEI0JPx89atfnZwOlSOVJunVUOHRaA/tLJFWPdMEpEEF3gcNmA3bVJCFjsc8WdYV9K+9kN9TdUOnmjyikW17hp3uPllIg056mxx0iMjHPrArB+/rwHe+852mjPSB/sxrysFY0D2D3JSfaVCXUgdRFujYU1bQJ+WOutpBTR/knddi43RESZe0htZx1s3KQhrKQkcf2bYrn9ULNqxe0AeyINPQslzqhbZCvVCfjNULsnCtecRn1E/IUa6UbyV1+4ksvIv2wjuN0Qs6adPLvPq2S5bvfOc7m7LwHbJtl15WgfUY4oWwi9h///2bWUUqqL4Z8i6uda1rNWnxU8PszpAVGK677nWv28yUtc0qkcaQGTRmtriOmaqpIMuBBx7Y6CSz1vvqBXtx5WeqbshLbK5tFY+8G2IvXIe9MLvYJgd2NGRmkWfRgVvEXnYT6GtIx8MVB5iyIobuDzjggJSfiVCXUgehe1yFKCvoU1dCbLatvm2rm7FtrjUvSBc7IM159W1b3YwsXEu9qCyUQ9LZrnxWL9inernOda7T6IO/GXQMKctlm8V78E6kS3rqpQ/1giy8v3nkagty6D621dRtFrLgKYEsY/VCWujFQU6pl3n1bZtelOWqV71qI4urPaSzXXpZBfbb2IVTQMwKYszMeJB5IewlqPRdTaGSomKasoeDhoe0uL+u1PjcRrIrbWXh/vpan9GXRp8sQ+mSZZ3RDWIr7WVMXiNLmxymQdpdNrAse9lN8L68d5d+S73AlHJAGpShKTYSLl8HWY+W+u2zWfPR/C4/cy/GkLztkgUZtnNv1zL1YrnfCr2o7+3a27JdehlS7/fpZWMP7LEcMzbI4CesNBRWCrkF28a7LOx9hbXsHDqjZOVBGkN9f5WF690guAxZlId0t8oPGbnLAVU54zgUZbfKGKM7KTdctqU9JI/mbZw3f0BdWuFznfm2XfaizktZSvm2U5a9bC+kq01YPnfj4LjUOaDzdRj47SW0wXnlc+jgsy73bZMI1mlD28+pdUWXLGOo68P6nRbVi8+AvnftkmUo0cvwen+7BlVjxgZxewsrC4UH/1T8UtkUyDI2fqn4qFLAh26ep0B/4QtfaArzYYcd1mzyw88W/3k2QFJYhoAPMb7DuJ3gaoDPLLKwbD10YzaynHnmmU1loCy8Ez68vA+uAlsBlQH7BIDl7pve9KajKyM6omedddbmvh02TY+VF723LdGTNnrh88MPP7zRB89B52zOZLm+vNZNwbWt4EeNbrke2UiHPKICJo9wHxj6nkAekc/IjQ7JI9wNhuC+lVIW5MMOh8rCe33xi19sfiuLeiENZNmKRgVZeS5g30ccccTozhMyE4jBPUSUNV22hoLeccdo60SSNuUJvfAM9cIzxj5nFSBvzWugHKxDsIe9Rtlm1XZIx5I9Gn0BJ8o2CzuoXUWpi2gD+zp4tllj6q2uNqtNlqEgC/Wf9VZd56KXQw45pLOeqdvP2sWQOhe99rVLyrJIXVG3WUPcHdsgL2mjaCfIpyl6KdusNlno61CvlO1oV5tF/vQFt5kHz7GfgMzYui6Iq0QGP2GlofNDRUVHkU6Q0V/oQA/teFMxUME4Q0yhdIPx0AaB+5SFgkzHm3RIV5/ioelwD5U3Ubl4H2Ths6FpTAFZ3SDt3o6xKLud2SmVI41/27P5zIaLBs484nl1PjsbVoNcvCMVLvljOkM7CrUs/KbiLu1lTBraKrI4YNMOx8rC/aW9WCa2Cp6jvVDWpjoI0OjyA1MG9vN84tUL35NHyEv+o5fdOmBgthT5ndXnvcLuQztsK5/YLRNefeWpbLPa9oLRFg0pk2X7ORXrfVevp+LkRFv5NGDDGFna3p9nDOlkq5che4i6ZLHNWoZe2vb38gz00pfXygJtsvCMIfZycdFmTUVZaKew33pAtypk8BNWGipKwjDSYacDS2XF3/MahTaoKJl1dq8Babl5kI7d0ALN9Twbmfi/oWbHyMLzWcnQ79aQmwygFqlw+kBWO1NTN8Uru8vrUxoOnuuyegmfMQPH5+jTjfE8s36OadTQwDuj6gZR7iWPbCx1l+t7TyvsUpahm/7LdLAXZDGv0d8YWfjesK8O6tTL1JDhQ+A52svU/SHcU65wTZGX98Te6tlmBgjMYupyah7x91bqZSuhDmCGV1e/vvDxYTXB3imvbXaIPQ9ZrS3brLYZf9qgISswZfs5lbrNmgoy2H62PcPyPFSWNpfQIYEiSr0sMijkOYamX4Ze2mThGeilz/21bLPaZEEvQwY/V7+sf7WoXpDFfsIiEV63kuz5Cbvm8D+x48hyPp2rvorB68t0yr+HVJZ0trS7nZZlCjyjPkhxyh6OUv4pfrysAnBP3QDyOQPKcmA2Ty+8h+4Tpb7dD+O1ZTrmkQOsIe9Zp9EmyzyQhZUTVjvKe0wbtxgatb4OzLrbC7OeDHTrVVE+N2JRm17K37uFUuew2zcfrytdB9bO26/YV+7rNkeG7Bkc8rwhacx7p7HptJXPZejF7+u0t+qdlq2XtnR2s142LvPQ4MwlXBS341yl7PkJe4a2wQQF0grBiDZdtBXioYXaikBXlDotZUGGrZZlEYZsjh2SxqKyGg7W/FO/Rp4r9TfvWcpRz9vM073X6rbRp4dF86jckFx3YGt76SP28l96qu0F/dahWXf7QGEZOg/LxbI8ZvN3aZOetwPcz4rqkCAW9YQJabhpvZ4kGpLOvGiCunNTxnRv5f+4P5XPsewxm19vqKeDy09faO3ynUq9uOIwRS/IrhfAVL20RT3VPd56BtSLYaG3Qy/Yy5A6oUsvpbzL0sv355zthw2VngJc35Un6nTIGgxpLDNMeQY/YddCQWhzidkK9F+dV4i3U5bdDJVwfbgqFS2V9ZildvTd5j7X92wbqa2GBqzLFpRlXc6xmQr6oeyVeIjibnVvC7sL9ujoujoW7PQzn/lM07mjPrjlLW85qcwTrMZDhnEpGrsfzANP21zOmJnn+5vc5CZNneqBpbjnlc/hflazeX7ZDlI++ZyN9kOhA/3Zz352s4ONXqa4eaIXDwfGE4B9kWNwkNC2SkDarDDzXg4o0Aur+Te+8Y33uZa8QV+ljXi4KnodCrpXL3Tyb3GLW0xyh/egaUAuVl7GcNFFFzXtU9s+ZA+bbYPAOOU96ANvi3n9Jp6BnocMfkgLt+AMfsJa46x6XWicJV7UXaeele86jMwZ262SZVHXoVXCmfzSNaR2Vxua94aUNd2+2bU2e9kK967SXtrSUpbaxpbh9lTKMvV9VgnzrLYXV9ZC2GrKWfCxOFB38DN1l4EBPcC9FGPlsK4scSbf1R9DHfOstueUIYzLtJFvDK5meXbNqunFtNWLRybwrLa9rluhl3lBHYaAPOplrAygy1qfzmtqXVJHzxvUWq8j6xAviGWvimfwE3YtbUu57B1htsXvp0RMoiCeffbZTaH0tGoKdZcPadvAaFmyMDNnRTQ0vPeqYueVMK5Ufsxq8W5j34nVG2aM7AQz69fn49u24sPMHrNk5mFfCNo2eA/shUaBe1n673un8qTucoaZkKd+zyzmFFnQC7Iwy7sbQz7XoAPtBd3qopPBT9gO6JzrBjYW6n1m/nV1neoZQL2/SOAQ6jZXjkqoP1nJYHUAWXlHfrPaUa846HbEYKkcAFAWx0b+JB1XVBbRS3nExFS91CvLQP2NvlnF0B0Q3SBzW5Ak9VK+B9eNjXTmM5y8muqlQL1v/k1ZOdp///03oxKW9Sz2gl7m6XpMECQjoJKHQ93elnnuWQY/YdcyrzPLYAGoFFkmndKBpEPMrA+zDRR2fVnn0fZdKQtpTJWFzf3IYjq7efBTDhaAxoUKdWyYb/KepXfDo1Lp9m5wbMkjZrDMI9Igj6a8D4MWGlEqZ/KIxnCsvZSy0GBNXeJnwO25UVt1DtB2o70YSWuMi00IU6HsUFanrCoA9QDRsxal73yWIfWlqxN1Z5Z6s+60zmtjSIeBYHk9g6WxLmvodBX0ghwev1DrBR2Urti84zy9OEAuvyfvx7o4LksvtKeLHJ2x//77tx5LwYCFd1zGcQKkjc52KhR2Bj9h19LWqWOQ4tk9U0NHky6zYRRMOp+k07eRcitloXHy/t2+R8RlcPVCI0qFOnaGi3So3G10hzS+bXmEPpVl6KbQebK4GmH48rH2UuplajhycPCFTocE4VhlnG2uy9FuLwdh90BZbusgD2EZEw/LSqMtMqL7VIc+o97UP1W+VdOLlHoZE+SibSV/N+sF2uzFPtEizzBABJN9urLtxARdQl2HPYU+y+By+pTVlnKWzJ8xleGyZRHPeNnN1HrRH37Me5V5BJ7Ds4gsuhksYi/ge4zN72XJYkeNepIZuqFnWa0q+oXX9rLb9zOF3WN/rOqu4in1Q3F/hR1X9wWyYs3EwpDJp3rv6V5gnl7wtmBVKXq5wuX0Uk46Tk2bvju2xzlJ9OGXVa4S6jqsLXSAlxGidxkzy6skyyqxSnrZi7I4C7nIhtlVwn13W93Ah7Adew12AicKykk97X9MoBlgcsXJCOus3Vp+lqkXJq/2kl6ucNkB0+WK5xRPgnoCt5yg28lylcFPCCHsQXARm7pXYR2gAWZTLy6uIXSxFyag2FxO4BA6sJ6RNfTcoTrUsccVsGp00EEHzfaKXshnBi2slk/Ri0ElWDVaxt6dneTiiy+eff7zn28Gde5hVT9joA1Sv4L9oaOd9ErI4CeEEPYYrgBNCXO6Dji7S8cnhCFBD/bCYJ9gKNi++xL5PXZ1ggkDz5DZihXZ7YbOPe9jFEnqzSnRJEu9bMdZctullx9cdtArOuk6s2ce6JWzmMow2AyaifI2ZSvAstj9JTqEEMLlWCRU6l6HBpmIeHuh8xbCEKgLiCDJ4IcZfFd+xlLuhVkkotiqwLuwSmM4awaFUyKqsoLsIHkv7EW/0mWR5wxIxN9T9II+2dtTntXGoHun26YEPAghhD1IecBu2BdWxAifTeM+NcpfCLuJ+hDlMmDIUPuvD3TeCwcptx1qPva91kEv+xW2Mua9uvRbprsMEvAgrAXGiWcGYac3pHpStjNqYfVYNXvZall2c8O7DGhwPYmcconbj42wJ6gn2EFYF4xYumgae628RC9bp5dlprNsMvgJuxY6kGwyZPZ2pzeklrLElWZ1IY9Ygl+F8M8cpMsBb6sgy16Ejbaf/exnG1/zG93oRs1sIH75gNsFZXUv7OUIIYQwjtT8YSUpvTG7ZlRYbaFzY2jKqbMvbUvWY0EW5FhUljHyls9oO2StS4b6neelUf4eK0v52SrMjLHasir2sixZ+mjLZz9f1F6Wlc5W2Atpcj6LIWhZBWKfDzATOeUcpVWnLIuL2LbsNf2EEAJk8BNWlosuuqjptMzz3aRhJvrIN77xjaaDs8gsOgMXVgXYAEo6Y0EWopcoC/+fspl0jG8rEVTYZMlz0BV/06mzM00I0q5NhVz35S9/efNaOofogQ4jK2n8/1rXulazwbWLCy+8sHlvfG2ZUUcWZtmZVWeVhfQ4bHMVwF7QHVGPyCPknQJ2ec455zSrfLzjFIh4oyzINWUz6VA4UI58IT8pT+QJeYTbl65gvEfXqiWdYuyF39iL5ZP8x14YzPEOvEsXDEB4Z2wCm8HukEU7RDbkXBTs77DDDts8m4K0tWXec6+u+lCPWRanQp5sZf0VQgg7STYnhJWFzhQdoS7ozNDpp8FfJKwv99KZJa2pIAudWdLZ6hDDdCB5Dm487GVAT+iATi6/cakqQ0u2QSeW67iHa+0Qky6dUzq6nufQBfdxD51gZFE2ToPmGc62rwIMFtEZOqLzPhXeUz1NjRmDLOiMdBaRpQ/kI2QpzyE/zWvtBRvg/7xTXzper81p79rLkPLDfdpWLYtR2JYRh4eJAKJbHXrooc3gh0EZ7m/8GGZ1r4HeyItFQ3hvpT2GEMKeH/w85znPaWb0nva0p+1TsT7lKU9pGiNm/x7xiEc0jV8INuB0imjAu1YudMnAhpjNXqQzw72LzJYqCzPfpLPVHStmrnkOv+nkMfOODvjhc373baRHZq5jlp1rSYP353506qpSH9zHPay6IYuykQbPWJU9UOYR78h7LxJqE335jsuwl60K++lp2uaJhxqaZ64E8f++TanI7PWmQXrqYWj54T5ty3S03WXaSxlxyfMk2n72ErwPeTHVnrSXEELYy2xpqOv3v//9s0c+8pFNo3bf+9539rznPa/5/MlPfvLsX//1X2cvfvGLmwbzqU99atMIvvvd7x6UbkJd72301WdG+cY3vnGvK45RnBaJnMX9uPBw/9SDt5YlyxB4DgNEI1b5bOTW579vTwPX8c7Ate5X0m2O70mfn650kINnt8liuqsSVavMI/J5ahSaZdvLIrL0PYN6kmcw0DI/+ds88ro+my3tBXndX0L+ay9D9FHai7K4SrkV9mIkRs/w2MuYR+TBlPqH+11NZoC6CmU2hBB2TahrKtBHP/rRs7/5m7+Z/dEf/dHm5wj1t3/7t7OXvexls/vd737NZy960Ytmt771rWfvfe97Z3e/+923SqSwi3AfwpDZ6GXMmtNRWHTGeTsPlaRzU68uje3YIW8ZJc/O6Fja7iv/XqUO5zrZiwMTV35KeafkdW0vMnaVs35229/LBLlXZfC9TBzAlgyd9OC+OrCBf5eD4nD580r2oi2FsG5s2eAHt7aHPOQhs2OOOWafwc9pp53WzEzxudzqVreaHX744bNTTjklg5/QwMoPe2h2+jyWEHYz7PVhD80yAgjsZqauzq16HfnFL35xn0EMg9Ob3vSmnQNI2t8vfOEL++wJdAUOGDwRHCLsC4NCArtMCYgTQliDwc8rXvGK2Qc/+MHG7a0GVyZ9vkuobPmuDVwWyg2cQzZhh90NDTQ2ksFPCNNh4MMey724uX8Me7EeIagKQUVK2Hd3k5vcpPM+Bj0ERSgHP9iHfw/Z/7Wuqz59AXhCCLuDpbeIZ5111uw3fuM3ZieddNLSDu874YQTZs9+9rOXklbYHbA/YS92WELYTljxoR7ea6se4b+CnnBQa8mQs4sMQe9Kj26B/k0gigx+9gXdEJkxBxKHsDdYesCDE088cfZTP/VT+1Seboilgv23f/u3xuWN5eNy9YfZKiLC/eZv/uaglR/Ob0jAg73JMg7qC2HdsRwZiCBlaW/hnq6x+5tcxejCiafYzP/zRPj85z/fhE5nYi56CWH12NGAB/e///1nH/nIR/b57HGPe1yzr+cZz3hGM2hhdurkk09uQlzDGWecMTvzzDNnRx11VGua9WbdZTYcfWehDImA1HemS18EpFWSpYwktqgsNBhdY+t5smTQs360bcKuKUMWh372cjmKvfy/95tyX1Z2xkF7SHsVvYWwN7jSVrhZ3Pa2t93nM0/99vPHP/7xs+OOO6454ZzR2a/92q81A5/tDnbAKLFr/xCNBG4FXQMvKkXOKOqaScONoO8UeJbUGa12gSxdy+7I0ne45RBZiNTXd1ghe7S6zoBBH/ijd8nCu3DYYAgexNllLwy4Yy9BqKMMvd0GAwPsZa8OfsL2wV4fZpTboh2GEHYfO7IL9s///M+bWRRWfnBnO/bYY2d/9Vd/te1yMHPYdZI1jWafe4BnSHR12obMzvXJAn2yAGl0yTJk5moZsqiXrgPztmsWzdnhVegErZIsq4QrhV2d2e2UZVXyaJVkWUV7Kd2hp9SXIQyBNpVJ0LiPhrA32NJDTreKZRxy6kGa3/3ud+deQyXXdxI8laKHCM6D2SJWxLrc3vpkgb6T4JGB2dAuWbjfk9TngSx9UW1Io2sWDBnIpz5ZOI18qxsTBnKrcsAheYws6x59q60MsPrZZS/k33bZS9s5SjsBsvDe23V+1G7Bwzi7JnroqHbVuyGMiZpIfUCbF3sKYTVZiUNOdwNXv/rVm59FoIHlPJpFoDJdhiyks6gsgDtbl0vbUFkwwlWA2eGpB3hulSzh8qzKWTTum1uFwQ+yMPDJ4OfyMBAOYTtYtG0OIawWO9+67xDLmr1ZpXT2oiyLYKQrow1GltVlFXRiHuGqudMhbUt7WXawl73AKthLWB/2qr0ZJKnPRXTdwuXrVtsX+ElXyLD7WNvBT1gPqLyo3FehgkIWKtSs/KwudAKwl1VY9UEWVgoTzj+EsJWuQl17fGmvCHC0bu0Wbthd7v/0KdDLKvQtwnh2voXfRdAZadsiNWYT5LwzFjyfYV1l2SoMh7uoHOpqrG5qWWCndRK2z15gaqdhWbKE1Ud76ZqBp94ZUqea1irUv8vA9mWR93EVlbK4F3SyTPrOfUJfu3Br+ML0lUdYR73sFTL4GQGzAGyyLaEyJYz3mAFHW0hf/NeH+rAbIGFRWSjYi8riJn5mSWpZCGW+k7NFzJp/6UtfauRYBoQRx/d7yl6mZcsSlg+rcuTRsvaqnXfeec0G6Sl5rix9wUnC3oFgNRz+3bUnru+YAuGYAQ4R3wsuk6xMMBFA2zYV2rovf/nLzXER2T93ebvq2tO0yITfbtdL197nnJe1u8ngZwS4w9QDDtxjxnRuqISJHFOHgB57fsAyZJkXMWkZslApLCP4wiKgYzoUdBiW0YGkEaYRmNI5XrYsYfmQR3Q+F+lklVAm8JWfMvihnkCWDJbXBya0vva1r3VeM3Twg+0xgbUXBj9MrtHGLDr4of69wQ1ukMFPAW3RosGN9qpednrfZ9haMvgZAQ1JHZFq7DI6nWcapXrAMbaRWpYspLGoLIbyXkSWrcBDMZfV2DHomdpQLFuWsHw8FHNZBxn2hcnvgvKzTFnC6sNh4HTO5zFmNZ76eBX2rS0DViUWLQdGZc1MfQhhrc/5mULb3hY6+P6MieLUls6i+2x2syxbwTL9vBfd8xOf89WnzCNYJJ+WZS/uc4jN7G2sh/v2Xqzrnh9YpBzsNZ2EEC5PzvnZIpbh97qsjsxek2Ur4N2WNfu5qH/vMmUJW0PsJewU1sXLqtf30grHKumEvXgMpFjRXWQgxh5QVrMWeTfcdBnQrYIsIew2Yu0hhBBCCD2wb4hAJovAiu5ZZ53VDKR2WhYGT8jiwc4hrAsZ/IQQQggh9MAgoetMnKGrLQQ9WnTHwbJkIdBGX0jnEPYa8asIIYQQQlgw/PEQcC8j5PaibnjIsmhEMg/qTCCesG5k8BNCCCGE0EMd1XSRAceijIn+Nw/2Ci1DlhB2Gxn8hJWGzZgs7zNLxuyUy/zG4edvZuL43s2b+lLTyBC2m3MivIe/+d7w3mwq5142j5IO13gWk6eKsxmU65GDv7mez8p0kYVnk74b1ZW9lsV022Thh8+UZVnwfjwbfZW6GxP+Vf2iG3SEDtxwS5jeofK2ycLfpKduuUa9mPfokrC3Pqd02eAe/u7Le9Io80jXETecK0uZ932ylG4s/M336oo0umQhfWddh8iCHJ4RNk8vy4Dn8Gx+Snvh4MyhgRiQ2zPAyo3Z/NCJHCqvspDX6KHNXkq9qCvyxPPHLJ9G4Ct13nduF/cuO+Q4uuEdyn0flqt5oHfK6144u2crsX7R1tAXtotusRf0aF1hkAnyF/voK0dDIu1hU7ZZbfX4ELtHVuwdkL9tZWaILLaHi8gSwiqAPVOObWeplxex3wx+wsqCkXPQ49e//vXG0Dnkjs2ZQAN2oxvdqDm1+8Y3vvHmCdVsAuV0cxs93Au+8IUvbN5zyCGHNAcJ0rDQINBpZwaNEIk3uclNmuvoSH3xi1/cDHvM2RtcT7o0IKTLZ2W6hx566OwrX/lK89vOoRtSkYXGlWefeeaZzXuRLn/zbnbqkINOIffd9KY3XaouqTSQ90tf+lLTkKK7s88+e3bUUUeNGvyQH2eccUbToHIODY08HeJb3vKWg2WhQUYP6Bi9IAuyoVN0y0wk+UHHFb2Qt3RQefYRRxyxT1rnnHPO5gGIyMQ1VoykU+c9+cHnzuDyHNKwQ0z+lXnUJgsdUGzhh37ohzY7KuiV5/Mc9MFnpGvHuZaF5yALOrTzfeGFFzb2bKQ39IK922njgEvk4DpkwRZLWZbZkSGPyB9kRi+UMf4+8sgjR0WhI+ToJz/5ySY9ZLUs3Pa2tx2cBvmrLDwbWcgj8hwdYDfYN+XGwRF6/cxnPjP7xCc+0aRhXWGnlDxCFnR35zvfufP55NWyDr4tOffccxuZAXv71Kc+1ehpHtjsPe95z86zgMJ/HYqKvZRljboO3WIvhMD1EGHbCcoW9kH9sqg7mm0WdcXhhx8+qVwaFIF7kX+qWxr2hSy8N+1bBjtht/KDH/ygqa9tD2nPFymrGfyMOAdnkTM7yhm9KWcNtMkyJVT1orJ4f3kwKga4Vecn8Cxn3nm2s7vK4owvP8jg9YY29e+2e/x/+QyvMU3f12v4oUFtS9fvfX4ti9eYh+qRz/heWepDZ+fN6NGR0wbKszDQA9fQCbSj6rO5x//TYaQj7YqW9lXalp1J85bncD0dfdLgNzPWpOP1yO/1lpdytUW929FTrlK36sX0vKfWg/ou86i8p8te6jxSB+ZDnUemW9qC71mnWV5T5n1p16Rl2rUsriiVdjnkHefZC/pV35aT2l7qGWbS5Z7aXjx/qLQX0/XE+NJesBFnoLmGtPrspVwR8/mu3JT2Yt632QvPc7XNVTXSKGfB+b5Pf32bwa0j+jaw12d8IacrP85quvLXBvoYK4s2I9ZFfeeN1fe14armUFnm0SdLuarXJoMro6bTVed31RV99e5Q6vZkKmW9sNOyhLAKWNcvo6+ZQ04HzHTrusTM/BQ/Wxpc0gEqW2YRx45YkYUZHBtLVyzGGsGisiAHM9bMdJMWz7/ZzW7WpLMVgx861nQI6BTTCbfTxA/vb8cb+Fv3Iht5Zt/43gYSvZGeHTE6FPxgS3zuSo8uKM6w60qhmxyfYYfzZOE5XMOqzlhZ0Ct2PU+fyHXSSSfN3ve+9zWdRMoCs8h2apCfCuIBD3jA5goSzyhXMJCX2XPSwb4PPPDA5jtlQXZmx0n7J37iJzY78LwP9oMM5Ad6OeWUU5rZfWTnHuzDAbGyHHPMMZ2yoBfdF9GTriN8j851XSn1gjzkm7Lw287jPH2Th37G88w3O+KuAnpPKYurQ8jCc109ZJWBdLUX3ZJI1zyZJws6QD983ycL8qI7ZbFMkA75NM9euP+d73zn7O1vf3tzD3mNvdhhpOxyzb3vfe/ZrW51q+Ye8pVnu8qELMye/9u//VujY56HHDybNHhn0kXGhz/84Zuuf3yPvfCO6uXUU0+dfeQjH2mu4R5WTLUXV1jucY97zG5961vPlYX/O7i3fFof+Zkz8NYN5JcNJ7I4+GHWvwvL8jx4T+rDrshbrp5Z13IP7+CAlL+Zpe/qpLp67Cr3PFnIJwd9zJRa3wP5xipYKUsb2CE20gUreZT3LllY/ezSCzIgT5csyEH9Yrn2rB1X8HhXVvgPO+yw5hpdLcG62XKGbegiq+4tn7wz9csi591YR/LO5PkY984S6hJXBbG/Ka6OpSy8d1ebEsKqU29HoMzWZTWHnC4RlG1DQmU2ZfBj421FS4M/BSoyZaEyW4YsY/Z8CA0JS/J27Gl4tsItBDDwsrGvn0PjRwNrx4f3qTsHtb7b/PfpSNFpQK90ZkmnptZ3myw01OaRncGxstgxmweF/+Mf//jsDW94Q5M++v/sZz/b2Cfy47pBB+Eud7nL5oDDTm/5fDpfdIipKOgM0VF0gEejjbsFaT/4wQ/enFWt84MKiXd+05ve1OiQzhmykAby8Hw6HT/6oz/aKUvdiWpr7NFVqRf+X+/XoKPQp28GZ5Rrnkle1xGT6nvaZOE5uNZYntvsZYgd4oLpasoQWdqiO9V6abOXT3/604298C7kNX+bR7jmcM0P//APbw5+rBvK96JT+e53v7vRH3ZB+acuIQ1dfGhwHvrQh27u78E+yzLggPWNb3xj8y50WJHF/Uv8DbjxOfhpk6Wt012XTwY1fQObZeDAxQ53G+idTr6476ncQL8MdzZlcaCNq6AuYEC+oXfKdle9T15jm12QTt/gh7zu0gt53ue+wv3YiJMPrgDq0sYzKAPaDtfU5bFNzrp8dk0gDKWuI6emR6eurU7ZCVlCWAWcyCj/XoQMfnqg4tBdZ+pGU2ddnK2ammlbIcuUWS4MkA6UM9B1h3OZDNnUSaNFZ185pujXWWhdOaakgSzolk7BIrL0QZp0DB/4wAc2dsD703GtV37KjnObHMh43/vetxnwuPJTbtR15ae0kbYNs+z3OfbYYzdXfvjbVYWhsiyiiyl5RGdpkU6BAzhXpqbaC2XJlYqpsvRBmje/+c1nD3rQgzblvsUtbrFpL678lFGf2uRAxh/7sR9rOtb1yg/6dA9O2ZFtS4eBDbaLLNzDynG5CmUnvSuNVQL5sPuusMMOBuv7tkoW6gXd6soZUL7TbrswP7voC/mMLDy7q60a0h5SRrBfMCBMufLjO5XP3UnK51M+XEGz88akQdtEx7x0XEFzgo+8QQ/kL4P7rvedJ4srqNT5riA7ieLkXbkiVrcDi4LsPJuBeqkX65AhuHpHGtRFek4wwUtdNtQOlIVBNCiL6aEX3r3UC20n95R6MfANsszzVhgiC2m46qcs2HfXim+bXngffisLclGvDpXl0ksv3cwjZdEWluVxhXyuwPLuejq0QV5g77r/Ilt9rRP7Q4jb24j9MTu956eWZaf3/Gg6FK6t2vMzVB73HkyVo/RxnzpAXZYsQ55Dpergc96+iXLPTxvcQ8XqMnKbrdd7ftpkqaPalenoLtcny3axrDwq9wjsBnspI8l17cvq2lhduh2UHTMo5e+KVNi1/2iMLKvE0P0ii0x8TZEFHVO+y9lSB5m7ec9Pve/VgdB26HcsrJLiFgzUf6yO4iLJqvxQbwl0+J73vKdZieMd6fvQ+SZ/7373uw9+51oWAiDgwUF5NfAK6eOGqmuoQVeY0Fpm/U0dwKok7ow8U73c8Y53HBx6m3xHJwQ1oS+InfMO2DyBfIb21ZAFF3Bk4R5WEPECcWWWwTV1kYFxGAwZdAW9lHsTWWVlsED+cB/yMXAfmkfIgr55J2RBLwTiIEAMK6RD9YIXB4GJ+I1ekAUdHX300YM9fS655JLmHZWFd0YvvLPBfhbFgByAPbPCO6/eQafYO+9DfYC91PUuE3PYUNzeFkQf4xI3Kfv9kFnfOh0349aDh7GyuJl4mbLYiPTdvwxZ6o2pbQyVR9zU6ndUTMjV5xpUNuR26O3k2YH3vbZalnIj9DxIq28fApMEruTwTIMO+Gw+7zu3AjnYNwCkYTrqirQY2HTNYrbJYoAH9cI1fXpBFmeh6o6xep8X0nXZeVTaQpu9+HlXORgqC7+76geDUHTBc7pmIN2DYsQ087lcseDzPntBfhp80nPWFNso7YV0u1YDuNcZR2VxprvM+z69LIM66MQ8nB1eFVnMM/5f1xPYC3ndNbjRlbHLXgz/D+5ZrN1S+zpaDoZtf0ijvqevDbD86YZdy+FqQF87W8tS56kz+0aJs3yW76onhANOO8vlUQZcp3u06ZcBSLTvcj+uZclQ3fxQp9LZ7pPFYwhqWXQ11V3aNtA6yzSG5CHvYid2nizuayzrE9/JH9oa951yXdnXatOLnxsgxT1hdIy79NImi/WJbdQUvXi/8hupsksWyqd7w5xEsgyb39SpBprh8zIwjnphdcg2yfex7iQdBwx+d0mPLLVe3C+3aDTEklKP6n1evVSX67ayPEa2DH5GYkhVM2OKn7Yjczs6bftUhkCFoywYJrJMWQmiMrcgMEMwxY1tiiw0WOWm2rbr0c2Yg+WcSbBSQA5mspjlGlowDHVtpC5ksBM6Zm8TslBpWYGwZMvsEbM5XYMobIwZF3F2s4T36gsy8Y53vKNJh04v+4BwLyrdiYaA/K9+9aub5zDzw74dZn7Gul2+613vmn3+859v8pI0sDP0o98+uubzLr2Qr//8z//cyMIsWBmlzfDS6OQOd7jDYLnoZDvTybPRD3nE7N/QlYcy1LWuOM56j9lzQoeU8qDtMgPKrB+ydJ0zQzliFrWcEa/tBRvum1ElgAazhZR/7aXcpzIEZtz+6Z/+qXl38lV7GVu/vf/9729mHLkPWZiZJv/dII+uKUfbceZNHTSgBn1Tv0ypw8eCDrr24iALekEWPSTa6hf2bnUNmCkHd7vb3TplKQNK8Dzqh6khne3kkrdT9rJSt3zuc59rBtrIbqcVe6EMGuK+a5KG+sTQ8tZ39cDxQx/60OxVr3pVkz7pMRNeBuvg/8yuE7CDNKh773SnO+0zUUSaL3rRi5r6z7aNcuMePOQnvcc//vGbHXTKkOcS+W7UOc997nP3kcV3piNMWsyU3+te92qeUcviik85wVCu3CpvX0AKYA/qP/zDPzTXIT+y2LH1bCpWu+5zn/s011vX2tHmObzrS17ykqbOM/AEOrJT7MrHL/3SL23O6nM/Lt+21aRLXv/pn/5pc7+ylHohLcLb4/KtLOhPXSMLNlMOEP281Etb0BBsANm8jzL4whe+sLkHWTzKoNQLKxUEBAI+RxYHrDyHMoxe6JMgo3tFtRf0gs2iF/eJcT+uzbrg8UN5/d//+39vynLOOedsPlO33dvd7naNC/s8WdDLMus50rKd5R1sO9vQfQ/IT2y3vnZMe5DBz0iM+gWly8pYSlehqadGe/gfLHIIX+l3uQxZhnYavafstNWMbQjRqVGh0AmVna46Q3Hm2dlCXQzGhhw16pCz3frz9sliKGBtq60z27eky/VUtJx1gg7I17EdWTtKpFFW2FPCpioL99vI0Kkkj6jw0FWffskDZXHFUrm8f+ysVJlHHpbZd9jkPHvxnB86D7V76RC4f4os5Uz+PHsZ0mAxCES/NLbk0VA3i1qfpKHM5O0Ue2EQiAsEdm6Dj714jtIQe6npKndddThloMuXXDfC7aBPlnK23Bn0Gr7vi8I2pBNhXbsIulJalqfqETl4Jzf4GzTGFUMj/Q2RpQyBXUPH+vTTT2/aOAa82LqdZMoL/zdoCGC39QQIz8G2GbxQH+q+ZSRJ269yFbgOfuDKWy2LE210bnm2e6XmydLWvtZ5P6QNpmONLOiBCQ+C3pSTOHScPUcPjHhZTrRyPYNYJj2c2LPMI5OBM0q96I1Q6gWUhcETsqgXZTE4xjxZ2vpBfXqpvSBso5CF79ALA/RyYhZbLetZo5iV9TXvzyTmhz/84c39fNi6KzseIm1/cp5eSBtZ+H3++ec3sgDpMJDgfUr7aJNlav9wHq48ztPpPIx+WtPnSVSSwc9IMDwroqkbnZ0RsnKdOntZyjLV35l7MGgNfOogivtKWYbe42brebIP3fxYFh439SGHB5KO0Q0Fi0rA0MWkSYU2tmNdyuKSMbL0uccgM7PmXXrpq4S4jwhrHgDL+3RFZpoHHeH73//+TXpUkG44HAuzW7wT+UkaNDQMypyN80DZLigzzpB5j5190kNfYytn7ivtxTwak9fai24JyjJ2OyX5VMviDGQXzv512cuQRgW/csqwM3xTolLyHOwFWbgfXU6pU25zm9tsbpZHFuzQzcXUGU5MjMXjArBDO5h95YLv+9xdF5l8GsOQjefK4gx02/e3v/3tOzsKQyKNlWVtahvmyowD2anpYP9OeJX55WfUXX31VinLvDxlleEXfuEXNmfLsSfdotAHv/sOfOYdH/awhzUdUNs3D7pGbg8D7guIwMDmMY95zObKtx4PyEY55DfybgeszqKXNlmoD9F9ORBrA30TlIUVIl0uGYyWeoE+vTDImCeLAWZY1d4OGGQhCyB/ecwIsqCX+uDuGuRlNQaPBvfOekyE7Sf1bZ/HTpcs17jGNRr9lwPUvU4CHoykTV1TXM0WTWMvyDLU9MbIU3Y66/uGplN3XMv7tkOWIR1nO/1daZQrk+X1Y9+h9Luu0xqaRi1L/S7zvuuSpU6j/P+UvF7EXsrfy7C7rbCXrnRMo1w92kl7qWWZYi9t6TLjbvQkOhGsftBZ6tJL+XseY2WZwhhZuv4esirZl2/zbH5K+1PXtVPTaBv8L1KOaln8vrTvtnZiSCAIAwZ5T1u575rQHCPLVtvmsmRZV730Bbvp0kuZzjL0st8WBt7ZDnLOzwg8pV7KTG/bxNpmFOWG5/o6/VCHdKC3WpZ5m1LHykI6pb94HZnJDZA0sLrTOdOq/2nXs0u4XzcEnqGrBvfy3PJdy7CUJchRugfyXmVkN+RRTtJV1jZZ3NcxVRa+p/OlLG5gttJBFj7ri7BGIWdWjHs9+8JNkoa1pBJwloy/qRB0qeBz38U03EOjGwc/6ImOopUlM04eWsk9/Dacpu/M326SVBZDgM+D57AMTz65IV69qG/S61vF41m60CBLnUelu5TuFEPzaJ69uCpYy1Ue1FrLUtthlyy6huoK54y96fKMvghr5Bt5z72GYC3tBVmYiXQFmL+xFw/y9SBRo7OVASu0FW3IUMrlBnFXavgp30e9WFaUhZnIPlc9XJA8mLgMnuKKL5/xTqarXZKuG3fRCS6ZXRhdayq6L/JTBh3BbspIUegb18N5kAfodsqemBLzbNE0yt+1C7Pf1aHP29IpO3TWsTVlwAwjVPJ/dWFZmAfXYyv8Rv+l26zlsa8ceW3fwAZ7N1iHB5QamZM85xqe07WaiC3j6uThwK4mW/Ysu13tBCALP32ydOURsrgHFto2vZNu3x7UUhbKoGW8tKW+1Vz0UerFwAWWoyF5VO4NLl27ymcPCWCCDLguWqeWkzK2E+QXq45deqHcuzdYWdxnM0Yv7FdTFtOwTAzVy/mVLNhG2bcbohdk8CD0EvsIJdrlkL4gurX9bhsEgv28Iaz94McT66Ge7cQ/dEgEHzJAd4o6HTJ26GFlXbKwHD/EtaJLFox5qCtLGb2llkX/e2EvSbmx1koBQ3WDH6ERMf4xMeJ5FyopD7FDdiphGzCeS/p2vkm3bZ+CAQzMUw/zLCPzuEFT/+k29wsbNSt6KhtwE7ZnMegS0RZcQN0AeerhiO4V4R34zANB58HGdEJz0qGicuX9tBHcy9gzwYZl9/mgw1NPPXX20Y9+dPMwSd6H98fusFGe60G+/CALemJjKLqh0sEnm4NRnT3nN+9DvqITZCFPGKSQFs9HFl3w5oHe2NRJ+lxHPpV5RHro3QNX50FnnffShcVAAOgX2yg7zLwfuqrhPbEH7uN9HDjoZ4yueGfTRZdtHXVk4XnkCe+DLNoLstDIoD/dMdr0wzOQBZnQgbLYeSEPeAblq6sBwe/9Ix/5SGMH2CX2wru5kRhZcIXSBYPnfPCDH2x+fEfeh2eSV575wDPRo5unKVs//uM/vjn4oYwQeAPb8twoBrk0kFyvLLrH8TdpcI5Vl2sK5Qh7piOELNgK74YuPWyX+gf3OQ/1pHxio+SVNkSekE4XlKNF3IeQA/1TZrFJ3ZoITFC2Dex1ILjIvJUd8oayyDutGoYurgc/1GNjBo7YsuetiANlO5Xo0jofV03A/vqC0ZD/2A02aDtpnU/55HvkXXRgyN4MQlMjEy5w2CLtJelSxg3u0qUX6qjXvOY1jV1ju2xeR3Y+x94pL4ar7uJjH/tYU/4oA8hCWnZux8iCXbq/i2fX7uikS7nvqoOw77e97W2NLLjAUaZ4rzGrDOT7iSee2NSb6JX7f+RHfmS0SzeyvPWtb21kIQ3qzzIN6qY+F0xs/rWvfW1TV3pQr4NT6hjsjPzDla/LpqgX3vzmNzfPQy/kEz9j7JD+3ute97qmjqYOpe5EL2MPn//Upz41+/d///fN/WL8lHXUEL1gLx/4wAcuNxChnaj7wtiRZxQOgbbdPhZ2U7vujtmDuPaDnzY3DT6z8R6aRjk7XBbmsRuny02W5YrNmDSWLUutlzoUc1u6yFCeLeKqwthNyj7LGWdXnJwFc4Wq1l1NmYb3IA/3GKZ73mxCLQsFz1kI8NAtvnM2v8ufXt2Vspj+kPDfQAVA55PCTkXLbxow0kLn9QZfZ2YdSPK9QRX4vxsny3CfVHL1bC7pcx/Xco8z++DBoVTAzq4bgrZvs7EDXToJNO5Uig5+0AnvNuTMEPNB+/D//qjvPj3zXWljhuk2r0s7nCeTz7cuURZnBEt7maef8j7D7JdRn3ynPpBXe2FvAnmEjrUXdF2XaT43ChWNqEFAPGzR4AzOSvK5s+u1vfA8Z0NJ0xlKGkRt2LSRZcg7acOgbXsIpoewWl7Vtwc6qltAL130hZ3vwzzkOeinLP8lvDtlaZ490fFYVJatwnesz2wa2oZKGT67xFlrV/Ed/IxpV2wXdSEqV36G1rtDsNyQPjZqO2i44fJoiXm4us+7UkZ4Xwc/hikeMmhQFg8kLg8mJg3ruSGyOCil/NT11ZAZ91qWKbZscBfKEvXYlEBE4CGgpSyla9kQu+UaZLFOtV63v9bWfrahVwZ6naoX84gf2s+pern44oubdlhZ+HusXiyjek+Iq6slY/dtluW3LSjJmIApa7/nxwYbanewcoawC91Kylj9QkXVtzS9irJYKbTJgtGVlR0Fv5wN4NnkjScnc48bdfvO+KihknOkj+x2dkiT55bReXQPqN8PeQzDzfd2rpz140c5SQebaiuUdl7sQNWykIab3ofIQp7q5qEsugGhry43JmYpmcFz87aDHzdSOjPmpmT+ZkWGmVXfsWxIndHXfcTIQ3zH7KIdBJ7JbLuueUam41rk4Ac9aK/KwsxqVzACnkOoZezGABzluS6mxwxd12QAeev5GQ7ErCiVRXvhPcuzHso8Qg5dQpCtHOiWee9G57bN1DzLjoayaC+uVjg44v7yfIUyr7EXfpOGrnTOgiMfz2HWssteyHd+yGPsxAGHekEWZnSd/cQ2sBfcsHxHB4Dki257oCsXsriHxo4vs+us/vBcy77vw/WlLG6ORhYGW10r5uQRKwDoVPdLnq3rqINlww9bPo0cp14YbJfh9tugHE0J/iDYmyGqdSWB0hXUFb7//M//nJsOdQKrRQyCVg3dJOuVH2QeGiDFzqQupSXluS4OnnWDBe2vK23lwwZ1g7POJ188vX7MZGPbc7B3VoaRCbvRpi1H2GWfXihr//Ef/9HYtcFhnOiwPrQe72rPWVVFHmWxDrTNIs2hslgH1q5QQLpde+cAndB2GLwAeVwFHWNnyIIe9KqhPPQFQeiTxShqMqS/hQzIoptu7aama3lfm0U9i8eD0VTVyxg7RBZWHMkjZFcvYwNGnXPOOc3KvLIYAlv63DXBs43qyQTPfCtxYm2o21vZfkM9wKM9oI4cMjZY+8FP3+sPzZRF09guWZaZzrw0l6WPKXK0pb+MNHZClq7O7Ng0Fi3mQ2d9hsjSxjL0MjadeenFXvaWvcxLd1k210fXc8bUm8uQZasY+o5T01iV+mUIy8jH7a4Pd1KWZfQHxubZMvpJ0Us7y2o/p6TL2IABWwIebFNDsqzGaK/IMvReRvBuXnXj25CgDlslz3akMyQNZovKVQIG+uUs1NCKglkcAwh4eNjQzYXC7Kj7oZx9NFzoUFyNdNbS1YN6tqwPV5ncB8RMbS3LOtoLein3SWAvY3Xi6pDujMz6GTBgzHsw6+eeNmd1y4PsnNXvWv11ho+0XJnlvnJlbIhM2JgrdO5tc7OsdugMsm5x5cZlyg4zldZJbrb1GmUtg41wj2Htuwa0nt/kO7maV7pV1s8xMER5rlWbLOrWFfMpoenHstPlTlc4V5vrtIakjT6pd51Nrld0XT2inDjDTnkx4Ikr4dznSiw25Up//RwP5gTdQG0HsVX25OjayvW1yxDvjE3wOffUsljHdq2uuFLlnsayjLoSi7ys/s+zI1fs3E+pXlwRVhb3HCML78uqqwdt8pza5V/9WQbb9OL5TpQn5NMLQo8I9aIsBkIpZQGebXAXvuM5rAwZoIHVCfXvanmfXsqDq9WLQU90K+cdeD9XP2q9cE/txWPAqVIvpItekMX2ljTcT2yeeN81r3nNy+nFVdEyQIN6URb7A3xmKPF6hQy9uyetD/TM3mXz3tV5depebkA2D+9dRh2y9oOfsHNQEMtThqlIFnE52CvQ+Lh5GL1waN6UTbhs6sRtiYqVDeTunRkDlfd73/veJl84HZzKmY3XY311aRip6HT14f9jZcFedOFgaRt3AWxmynkvewkaehpq/c3ZLDtFJ4SBxv2CwRNnShjYYAx0yAwgQAAFN1bbYBkkoc/1FRcxXSCxGdzGxp7hRIPqwJ3AG5QFXT1Jk9/aoS66pVw83z1wwLUOkMQOmK5Dnt3SF5yGDo7uMpRt3aKMmFfLAjzHs3v0x2+Txc/4f5uL0l7DQQk2Yod3ykCqjN4F1HO17qhzCGZAp5ggIJQX3a5w7cVGuE/3UfIJN6LSPYd8Z2M515pXBpDBbigvPIf0LMfYrgGIhLYTO2JwxT3IQqdTWXg2Mna5j6K7D33oQ80BqUaCNZgRslG/Ymdsou+yIzr46IV6nrKGLAYXIcgH5Y6gCLqPUrcYAAGoz8toqeX+QAP58I6U5/LsM/RCQAcDn+CiqjssOiBd2lKeiyzoh/epXVmNaGd9hf5f//rXN25t6JOAPQ5ikQUXP9LhGV16QZfvfve7G/2QLnLyXAcIPJffBiYgTQIgEIwBXZB/7qWzHuL56MWgQrwj7WJ5lhX58M53vrPJB96bPEEP2JB6OfPMM5vnGqwG+0e20q22DNBEGqRLcAbslzy43e1ud7l6ClupJ+DmgU7/6Z/+aXMyB3nRrQMeyrJBMZCNfFhWfbbevYaCeZuO3cRmFA83XZbhXo084abkennOuP/uM7Ej6/4Q77OCbEuH+/TftCB47xhZfH4ZuneMLKbtc7iOwuhMjLKUs1T6Vdey+EyvqTfMtsldbvR0w6ub8UzLELxeU0a+88Tv8gyRMm/a0jXAgTozIECfLM7kdKWrLZWylJvk/btuzEnH+7im3Cvm+SWGFy4DNHhonP7I5pN6qoNcGDnN8Lyell6WB/PNdypPjjcstO+kzZSbX6mcka8MtuCMpjZa7knSBt20ynuW+zi0TfOotJ9S31PzaIwdlnmyLDssZwKVxWeaRr1vwo2iZR6V6bqXyBWRcpP+PHvhOeVp61xH46pduCHVPQbaCp9pT7W9+D5lXhsyX3uhHkQ+w65an5Ub2E23zGdl8m/znnf03XxfN97ztwcLGnCDa8sjA1zxMQ3+ZvBi3Vrus/R+7yvrN+5l0KdMysxzDRHuzL42ME8Wy4fPNM+G7vlEd/WKRYntUVnu6vbTd+raeG10ybLtaWsnlMW6rewku5KmjfO9eW949bJNqNsJQ0drP2WbVOMA1TbPlUnLDZ+VE3il/Qn6KO9TD3U6tX3UE2Dl8QKuNnbJMo8yHXAV03TL0MLzUC/8DJXF68oVz7IO9Xvz0HTm5YfP5Dcd8q48qnVZ1g/+3z0qplXqZ4xeyveo9eI1JdqjbSKUg5/a/tpWd7X9Wi/+XKmQpdRHm72U5UF9u2JU2nAp/1C0M+v5Ut+lrrX/Zawwbz573ff8CJVlGb4ZUDYjYzfdGwKYxpzPmN2hc+imWjfQlh0PGwnuM6481/ObUbQRS2j07ATwdy0LBsCol/S4zhDN/J+Gtk2WMs1SFp5pmE9lMcqWEYeM1EHjxXelmThbYUPLhj5mdbjXWVA3zYEbNGu9YNgO6FzarxtKGzSXPJ3JRWZmMNChEZ081Vo9ozPkdOaC7/ib5xhi2CVgZpAsXIY9dTCJbnVFc/UEWUhXWZiNQt9uCvdUa8OKGnoZ+YHPmGExoo+ykDe8k7N15mO9eZBrnOXlHjY7+o48h9kjQvQyC4menVXBVigzhMFk5ofZIN7BcNmGZLUC4rOHPvShzf95DjNM6Ip3I5/RHbNkukvxGbNlykK6yHLve9+7mcFxdpzPSItZunve856NnSKrZ5mcfvrpzXekwd/ISweIa2wsCZCAfMhF2roLIQOykNeGOHdzNGkYeckADQaBKPPIQZTlnx8bJezBEO7aITN7uvU58+x5SNg+eijtBVnQg3mPHFxHOjbCpMtzbPiQxfJu44ws5Ec5i2kgjBLKhKHMuZY8cgCLbJRXQiizQmjDTv64MoL+0SU2BIbYRj4bX2yBPMNetGV0SVnivT0vRzcV5OedyGtlIV3SYJWRlSM7/YTs5VmsTnECvIE4LIu8XykL6fIZdZP6RXd2WOyM8Szu4//Ih/0bHIG/kZN8wC5c9aHMMotrPUu6hBHnt4EhkNmQytbboF4NfKCtkDZlgtladWWdjAw8n9lqfnOPZ7NgQ6UszqiTbwbr0CUSnaDXIR0I6pOXvvSlc/3s0fHd7373zdDobYMldIW96DZTgxzITohkZDWgSmm75Auf/f3f//1mfc5KhfUs9SRl7Mgjj5zd9a53bT5DB9QN/N+w+dZrPFMXYOS1jGMn2KXuavzUZ7/oTkS51h2LfC7PqLK8686oq24J7+lgrRyImQ7pok/kLgd3dZnmPY1o2CaLncmuoAikTf3hoB/KSSfzBdubN5Ovm6phiOfJwm8D+aAX9E/egs8pbcNyoTvgPL14dIVtqJvi7V/wnYOENlnME4Me+RzsQfcurlX/Bsjo0wsgi/2CNr04iaMsDvTt/9V68fm+n3065HVFzPzgubVe1OfVLtOLsjjYsk2Zpxfyl3q/POagHjCRPuVyyCAIuakjHPgiUxlUweA1YJ+jS9855HQCzlCW2AmwMTNShQc7OoNdYmhfKWePjUZEJttQGcEJAzPkqpG5ytUWMt5ZRfdxKIuN+hBZ9BHVzcJncC9GxzMMZQxcZ2fQNDy40RlOz9ZRFip+0tD4rbzKCHGlLBZ6On51BV+GJzUsrp3DcmBazjpRAJyVoGNk42NkF0Pk6h9rh8YZEF1gysg6DuycLaSAuf/EWXCjwZWz56br7CPp2rGmkkEnpGOlZQVTNhJ0luq8RVe6eZAfdAp9R/6mA3SPe9xj85wfKlMrdGffqSDIW/VJ59YoRaSLLAyQWMbmbxtrOxJWylSGNHz6duNCAXZElMXKyMEnHW46jZxJgO7IK33maZBJB1m4lo6ubj/OnvOeyIeu6BQZYhMZldc8Ut9OXDhbzudlGGZDOtsZ96wj88iJDO3QfSOkiTzlTJWHiiIvdlfai3ZoeHHgdylLaYf6PiOLgx8H7obDdZWAPKzDN5NH2Iz1BvbiQbXYBX7XuFdqL+gfHfMb/er77eQD78RzyENnEdEveUbnRJ94O6+urHMtjTvyuArBPepbH3Bk0V6M4Ecjib0go2UEORyskKb+66TNc8o9YbULn6tolAnrD88Nw555J3RGWp5jhoyWYesxrqMsWqfwPe/sKoaz2T7TqGKlPNzH50R74xm8I3mEnThI5nrrS1eAuKeWBdnJKwa16NMJF/NtyOCHNDjjad6qDc9HRidpkAP9l4Ml6k0Gl3Zwa5SnXDEqV3wB++H9TzvttObdcAPCjciom9ga5YPPbc+QHbccV5K5jzy2XJon5G1Z1tCx+0nmyYut9blfqgPr+Ta3s77zV8o0YOrBtnU6dd7zd9t5dF1p1Onwf+yyz4251gs6GBrpa54sPrcsX23v2ZeOeet9Rt8ck4aUz/bQ0qHpYK+0g+V+pCHUsvjcWi+1fFP00meL8/TS9nzqEer6IfTZ4Vgy+LkMMrWupOzcuGHXjoMhcvmuDk9bh33mO5cI7aA4cOBal/fovNnA0umoD+1SDjtPDsQspHbUSlnKsK7K4oZZr3XU7uZO/WLteNCwlAeYAg2F8tFQ+f9SlvKA2LJDUstS/k06teuELkcu2zK7US5LU3m6cdQOgc92iZZ7zE83/ztzauhi73GgScfBDll5IrwDFNNVFg8+dRVqniyGZrUD0yZLOYvvKkG58oMMhjg2z6wQuJ40kaU8wJPr6SCQP65KMWj1nclj0mEmV1nINwYmdga4Dtk4lMyBK+k6sHXV4+ijj96UhXQpV+Xhsz6H6/HvZbVBP2xn63iG+xuwY/LDxtVBC/daFnhXdOAGdjuzZR5xHbK4z0L3CPLINM0jGyI76A7grQdqO0Q+ByneY+ea69vsBVkMqVrKUtqhgzoHdF7r9z67hLyvZ714Zzo5yIcN3Ote99p8R/KI78qDdfUTR/e8jweQCmkgP9cgk7PE/O1gDhm5hj1Irpjq4qQsyMnKn7LwNzooZSFd/tbvn/SoJ7gO2fSft762fiuDAcwD3WF/3mN62DOyoxvKk7anvmvXJuzZARm2jDylvZbXkj9te56wfw4xNU94Z2d1PTTZNsPZUVfuy/Tx59c7gPrI+qQvLHIJdcXP/uzPzv0efbFSqE34ziXuraonFUs83FbZeb+2je8/93M/1zwTvbBKY7hbB9msEvqepPdjP/Zjm6ua5KN1CXCPExLq2omyZbjV8L56Fgw94LzGFX9AJ2NDOQuDUmf/u8Lh98nCwNZ8QU9T5CENJxqcwBg7+EEGJgjcn2J5dYDhSljfvi9X811ZYOJiykDMFRq9cJCnb7BTQxpMuiALeuEdxspCGUAvlAvrK4/bAF2J+wYu371sos++LZMoU2TxDMES3m/qIL6UTw8idD3UjbeNuL1dhrNBJW1KtVPT9fmUkWmdZtsz6uXFnZSlnFFo8xNt02XXzFHfbMG8NNrSHHPNlHu2QxYb/Ta7bEu3dhko9+R4fTkLXafd9SzdRco0ut5xqCwuddc+9t5TPqf8rtRBuWdm3eylvGYV7MV06hn27bCXtuf4/656r7azLt2Wuiw/q3VVXlPLUOu0lqXUhdeV19flYKgspRxD2oG+Qz8dxNd6qZlnj6U8pjPvOic15tkLOMFUyl8+o69Mz8vrKRiIgM4nk0dD9t3U8L64QSJTucI2RRZXWXUBHQsd549//OObnU5cjKfIw6otK3gMDvAEoP82NpgPA4wTTzyxGSAwQUZHn0GQA2+9CpzQ6tILP+iFSQe8K5wEGZNHeDWQR6TB+yDP2HO4cOl9//vf38hy1FFHNSvHY/WCPl772tdubkPg/ekjO/HLQA/5kLNLL+edd17jAYIsTDThFo8sYwLoGPGznsh2tXhq+XJCQPdaz0Qq09txtzde/BnPeMbsjW98Y2OIN7/5zWcvetGLGl9tX+JZz3rW7G/+5m+aF2Hm7wUveEFTqHaKMZXevOvaOmhjnj+FVZKlL422xr7cB+Ts+ph0hzxnyjXbdc88vZSzpR5o10XZUTTka3kgph3Scja8K589iZxZ1NJXWD/yroq5lMXwvMwEGd2ImTqerXtgmxxt6SMDLi3ObrkK1yXLOtgLeijd3Fwh6qLMI91YnR0EV2/KmbU+e9HtT3vRj9yV7yGy6MJaz8yCtjtEJ0OZ0jFty6O+51um1bfhZ8vNwnUHfitlKYMGtOH+iHlpcW85C1uW6zHofuuglryubYU0u6LncS9puDeBNNTtWHl4JydU2uzWQC2u3roPVL3rEu9qqe50yEiZYObbQCJ8hoxlUBA/0x3WlUz30xh+3tDFBgYpZeFvXcUNEGJAB10T+T8z+9bruolrp74P31lvW1frVulqtANSB4+1XkiX5yAvqwjW2cjHIFGPEa4xmE6tF22Azq8ryHrC6AZMmqbBe86TxUAmyO4KrC6+1GOk7Z4aPSC4x0536bLunhkD2hgGXTu2zCtL6TqvXlxd8Xm1XnSrdmLJ+r7UC3niPkJDvasX3TprvVxYyKL8XKOni3rBPdSw6chS7oUr24zSHtxnbPk0OiVym28GzCm3X5ieZUa0YWXnO2Stg+W0HZC8bYMfMoHBDMv3DH4YkeN/W84UPPe5z539xV/8RbOJEXeBZz7zmbNjjz22mV2Yurwbdh8YOrMvNny4LvWFiF0HqCTcBIhemDwYUy7cKE3lR4VOGm5AZDZnCFQs7GNg5sgQmboqsP9myMnR5CvPJw1myKgHyGNnQw3LOhQqTsKa0vkggAIVMi4+Y90M9ho0IOSRDRkzf2PCiGMv5Cd5a4AFZi/Jv9L9rAsaIRpJ3KDYh4W98H/KODY31N2BNJjNY78LM6J0CnCvcnZ1t9YP6IEyTV65sZ4Z1dq9eTvATpjdbYtuKnS63P81D/YSkQ5wLfXUlLqOfEYv1AXk9diQ5vDRj360CdKAfbAiwCx+376aGsP6OmGE3dazx5QVQjq7YsCMvYNZfuhQ8vwHPOABTRplGHo67rjn0QGlPuQ7961SN7qPEpvA/p/61KdubvAmEIb70QhDTx2K3pCXziD1KrIY/Y80qcNve9vbzh7ykIc0stDJfstb3rKPLJRT7nUFhXLMsx108R32SjoO1E866aTGxQpdk+dcx33uIeSeD3zgA5v7smh70Bv6OuaYYzYHKsjOMQrkN0FBuIbVLt3+uZ+/3ZdlsIvHPvaxzf95b2Rjz6Duznzu/kbdyJQF2QwQg1vnT/zETzSyuOeaPOFegru4SkL+kAfcQ1hu3Xtpf/iMa3WDZ/+jgWSwY96bfNU+kIWVL13ESZcBFTI9+MEP3tQL70TADt7njne8Y3MNspEO9oie6Ss7sGGVB708+tGPbupc8gVdst/O/aC0wciLfMrywQ9+cNN1nmuwCa77qZ/6qc2BPN/z3uiFd8K+WaRwKwSyWQeQDnZJHug6bhlnXOAASFd67NGgTe71RgbsnDwtA2+4mkW5Rka+o8zzI9hRvUVjWwc/f/Inf9IYFis9YkQYQCHPe97zZr/3e783e9jDHtZ89g//8A/Ni7Gc+ahHPWrZIoUVxRko3VzCbJ8ZcPXSNUPbhjqlQTCyWVcY8Ta4lnuUpQzlOyYdn8v9ugUYmnlMOmAAA0MelyHZ1xlXE+pZtKEYNr0MnmKghin2YoCYqfbiiiGNoyG2u9yndgPqxdlVg4PslCzI0eXWVgeemXeNM/P1AZxjZNFWdG2cAnLQEaMjRXpTdetqObTJgpwGMjHCXRlwx7rJVTMDoVgHGkDJAyfpSHONRwqUQUIMtexqDM/1YFPT80BPZTFcPenzw+fKYv3Jbzuj/G2QCWfi3a/kaoBpIIv5xaCJz1ydLSOsKYudfIOc0CH2wFW+Uz++t6tDrhpzjXpxPyzPZSKFdJBFDwcD3eix4MpZLYuraHSgXdXW1tGFkW65X7v06ADScbDEj3ox9L6rEcrjAavah6uGBtwhLdIsD6I1RLsrO6VeHEQhT3kEBZN/2EubXnyWeeuhpxddJksZcIc03V9mHqkX5FQvHl0B/F+vA1cX/X+Ntm897vEE9k/K9CxXYGAXA4aVq1JlhEnSHTM5tvTBz7/8y780qzhslnz729/ejDB/9Vd/dfaEJzyh+Z7RMSNbZgCE0RqhKk855ZQMftYIZ3OAwpYB0H9BZcQEgsvldRz9PpjB05WhDIc5xgXETeRuMmcGzM3IQysYnucMHTOEyEUa5cbkMdBIUE9QCTLDpUvVuuNMno3KWL3SYBrIgYkq0imDaAyBBtPDCJn5JU03o49Z3WPFCTlYcTKghj70Y/zOVw1kpxyhD11/xh7yuyyoZyk/XQONIeWKCUtXgKes1gB2Z0CMMpDPWFhtcXXbumosBuJwBbVtdZu0qYMMHKIrsC6LdNjcZwGWB8qSB23yDDv8Rnsto9WhA1YUfD6yMOvOKjcdWKNvorcyiIkDal1Y+amDlLDXxoGTgUW819DrPLsMylS7IhIuHXkNTe+gQz0YbERZDLNcev/YxpE2OkIPyEPa3Mc9pEm9pm65Fq+DcnafNNGNkVmpcwzgwj2+mxND/N9jSgRZWVngM8PKG7VW1zjen36t7bHBR8q2mffRxYx2z3vVQ5ssPKdcFbee0PXM4DysjHnkBzbi+yEP92Mb5TuhA1aWHYiTjsFkzKOrXRYKX7dJI0qWeUR7wLXoxQNiy4AXXO9zjVRX1x2uIOrhUwYeMZCUdRHvTRnjfcpz8kjXIA6myQpSWYfa19mxgAcq5bjjjmsGQCzF/sZv/Mbsr//6r5vlSpaMcYtjybyMAPXIRz6yEfyVr3zl5dKkQil9+ZgRxNCWGfAgbD9tpreM/UbrrJchxXlIWn3pLCONMWl1pbfuNhN7WX1WyXbHNPlde37GXD9GlmWkMSWtIbKMtdFFu1fuA1o0jciy2rIsK51VkWW/nkAoi6TfdS9jAwZjOxLwgBEcgQ3++I//uPmbESt+eQ5+pnDCCSfMnv3sZ8+2CpcpwRkGwxYO3YDqJjRHq2W42yEjUmZGXGZ1s3sti4c3TpHFTZBDwr8ih5uWlcUZBgahHhDWJYunbOvCwuytsySeM1PKosxts5Fc43In8qgXl5nLQ7F4FjK6GVC3AvWpf6k+5s7UuEnRpWbP8vC5Lj/r1+wMUimL5y/5nshRnjLvDJjv1CaLQSCUhXQp0LUbB/eWcfzVoefPtG1651m6G+hCwCxLPaPuZIMHndbPKDfr6qaAPZSrS7wHcqsr3fc8t4nKyZUpvsdH2RPWyw2YVGD838NimUEqN8iXG2R1LSr1rfuA4W3rPLLsl/biJlXz3uV59aF7mBtLudazgQyHbdqebaMdlrLoh245WpYsuuWUOItY56WbxNvsRReY0l6YgatXIpUbmer6pcwj3S2ceS3lMTyqYfHLDbV854GUut94jo736zrhZmjdUtxTaPhq84iyQ1rmQRvqpI5qJuZlVxvhBt76LBKe6wbrUgf1Rt9SFnQ2ry0ZIkt57aLUafA+7Aso8bDZrpXr2lbYq1GfB8d7t4Xptjzrsinom3y3ri1n28vT460rPGSS+5iQHRNApQ3qNu2Tdm9KiGnuZe+DLpLINdYDQFk8pJw06jZjCB7MS/nEjlk9GLrPsnTh5p08sJt6pO14jnlwr0EKsBH/X67ODJEFfVoPoRf3nnqO4BjdlGeqoQ9sqD7SY4he+EEW9MJKlit5Q8pyrRftxVWmobJ89zK3QYM2ACtgpD9UFuF9PCcOuN/6vGxnpkxy4Jqnvl15K9MZk+bSBz8UMJYhS9ik9M///M/N/12GRTnlyg9/s7mrjeOPP75ZSapXfpYFGY8RAxUhS6v6qI4Z/GB8Rp9wadtNjX3wPGTg3fjtoAlZMEZkYTl66OCHe2xEqKyMcjKkkqDCpLIrZfFMFgopFTp53CULnSoPakUWTt+28nbjWymLmzBr33H3vdiQsmLIc5GFysJN1hau8rBDz9lBjtLNzkMDPS1d32KXUJGZxtOBjvtU0AfyUehIx9j8pSyk6Xsiiwfp8Vkpi2dQkCbPJz3PCjCijbJwT9khAHRRN0BWOm46rRtxO1w+m8Mk73a3u11u8EMj58CoPHNIrKg91BJ9Yg/lBmm+x3bcbKksyMC7sIETPZIG37N51whC+jEjB0v3VJhsAMVeXO4vZXHwxfsjt5uP0Tf5aGfXKDplB56KlGv0nyZ97dZzVIw8xn12ksjXcoBqZY+MvJcRqHQlMO/dMGuDZ4fWcoF9u9mY+rG0Q2TR75pGkh/ztOxc87eHFAtyl3svtS2j/7R1+rB1A2YgP5uPmcyqO2HohuvKkLMl5Ak68/BagjOw2bp0WbAjga5Io5zMQA6e7Rk75BH2Y0fGwQ32Q32JCwvP5Fknn3xykzb38DdykA5uFcjL+7cFY0AnuhdpTzXaaVcbYSerdnFDVty87XSUnfa2CSDy53a3u93mZEANeUf+ToletwywdTZQlwM38hsXsaGddt6bfCWfhPfxvdtwn0tZP6Jv8p2yRJrYLjZKvpPntsfum6Ac0UfBFghUsKj7NXaMLnjm3e9+90lBLag/SYN3oDz8+I//+KTBD7JQd5IeaWD3U2Q59dRTm0AItHWcoTQmyAy24eZ5gg+gF9zbHLwM6bAaHIl27fTTT2822VM+cafm91D3Z/Kc55LXlD/uI7y0E0hjQ13zPvSVcFXDhqifhrpuUgc4+Yl+ae+oXz3nbqgM6IX6gYAfBNfA3glKMCag0De/+c2mfPCbQ4TJE86CQy+4V46BOoByTFqkQx7ZPvVNLvRB0BjyHjsg3TEBDrZ88INLGw1VCZFBaJSAChpjpXJysIMRkPlPfvKTW9N0RnErKQtgvdmz3IjZNytkOs5K1jNbfN4W3tdr9W91v0edTinLvBnJNlnqRrFLFu+vZXGWUrlcCbHj2PZO5W9l79qM2peGv92QrVz6rpbvXuqg7bNSFjcB19fNS6P8u5RFvdSytL3PPFnm2UYJlRIdPGU31DCdcg+mpKFvG6CW6bkZVHsgHQZfboz0IMr6Hcr3MJqLPuquMBlW1QOE60Ntyx9tuf6szNs2PbTpt+2z8pwQ86grn9t+q6PSBmvZ571fbbtlOSoH/PPkb5OlfKc+e+EZtb0Y3hVboX4dcnghHZlyc7qbb/kxXG7bTHddv7px2b/p+HuQonWJsrTp0rqp/q7UJ39bv5UHoPpZWce10fbctncqAwjUAxc3QLvKIOZd+fzynWrqd+2SxbytZeEaddsXBrpc9Z8H5d101GV9Bo8rw/MwlPm8+tLZaOo187Bc1cSOzG875Oa7q/p13vss/1/+LIO6TpuaRinXMtKZmgaowylplHVXXW6Xkc4UFpVFatsZk05dxy8iS12fLapbWVS/fXXolHSXltay9/ywx4dNdbipsY+HWQeCHbzwhS9sQvEZEe45z3nOPqGuGbUODXW97ENO7awBlTfpusHKzr+N+7znuaRqB1aXqNJVgecwK1XOhAvP54eKvZSFd/VUemf9jDoyb5l2iCw8xxWltrMMjN6iLKSFLG7adMkWWZCDGaVSFl2+/L/LueiRxsrOcNlo6+JTv0vt9qbrFbMspOU5EZ7voNubbg71uQUO2rwO+Zl1UU+mq7uR5x/YudE1x0ED93IP6SoLciBPLYv6bJMFPCFe9wTTrweMhKxkZtDzHFhVoCNLh5JZdT4jxGk5a2PkHp/NjNEb3vCG5tlcT0eCmUbDWVM2KY8EIdFGynzS7Y0yjjy6YTGzb8hiZEFvbBZFFt3edHHSLU53CCg7OUYscmNteUhb6fZSur1Z6ZZ55BkTpEkeuRGfvFcndri9p3Q1c3DJfdgu8utiSN6XG35Lt7c2e0EW3se6xog7zGaNkYX/I0vtJokd1x1OJqTYb6mbBflM/nMfM+vA8QSE0RXLv7KQpxxfQPp858ow1yA7s5Vc+9//+3/fHOiWeaS7CeFemewyehSzldgv78LqtrOOTI450CrPVtEFr83tDdtEH8xQu0IHbi42jzw3gmvaVlK0ny63N1cUgXfgp16hJW3qXTf3mg7P5b1KN8Gu83eQF1udN2jhM22AmWhmSGtZ0IFeAJTvrgASlGHCys+De1nNZ9Mxz3QyppQd/TCLTNmeB+WZFQkjZtE+lmd3kDZ5+E//9E+bq5+0W9qTHg30OfgBJ4EsO6XbG3lQRosiff5mBYI8QT+LrvxQLmjnsE9Xi8d21ng/yqfupObbFFnMFwNUTJGldO9yM/8QdO9y4shz2gxOobtuH64cuWqDXshX7h86OW5dZCQ0XamxKd27xugGveiaqBvWGFlsH/RY0JsC+YbKUuqFsuOZTNyvS/kQWS66LJIaZcLySrs2RS96FNgGkUfWNX3n8vWl62StwTnq+nBHDzmlQnzNa17TuKr94R/+YdOBIrS1Ax94+tOf3hSkJz7xic3LHH300bM3velNO3bGj2EqwbMuqJTLEbCd/XnY+IAdHCNjlY1bWwcfyMy6QqFw8Fxjt9eHWA6VhU5avfeoS5Y2X1FkwcUJWdAVDSx5SKFtKxhtlUDp51r7rpcyd4FBO3DzHg8Ws6NRP7cuBOY1BZ607Jw6uzg0WpAHkHGfslABefAcFXwtS51uaXdUFjbopV5q+c1TBhyGsMQlgQ6PUWtoZChX9bPKtJGPVVmX37F7ziUwn6AOtV3nkwfTcp+ysMcP+6Aja0WE+4czzg54SmiY2+C9kK3tZGj+rt0v6nSNUKcfs2FB7Rh6uFx9Txvo1NDhlFVd6ujgtLlOteU9tq8spEH5QT/uc6nzep4sNgJt9tImC3JjLw6WyS8ib9IJ5hmUZQaqJfqei+fv2LBh69gP/2fQ5ACjHKjXeeQqE3WJocpxeeRMClwn3eOICwn4brU7XRlRqwS7Qy4nH9rcNpeNewQZUFIuSzyMkfyqO564bi/7nB/3TlGWKde1LNi6EaO6IA3ydt51nqdT5isD4BLsgvzAztpw0FSuYLa5TfIuDJY9z4ZBppMvlF/qfuyv7KQZIXAqdZ035nrKsOXYz+dt+p6XDt+pz6402tKZIksXpI9bl5MrQ2XxGuvBsm4q76/Tansf6lnvdbtEVxp1Wn5vH6t0T66fNRTzqNTLvDTa9GK7U/fXpurFLSVT9HLVy9pN9OKe1PpZY6Ac18+o06r11oXXUV/qWdBmi2Pk3JLYoRwexc88EJyBET+rhuEb68GFIQeH0taR5/4xs0B2oOvn9vmZ17R1hpRlaDp28rzeWQ4aoDEhWw0OsAjojwKgLB78NXbw7Gwj6JpVhmIcgitq3uPgbKybpjPRQ2GQw2qK7nJ0+Nyngy8sA9t5AwrhnTmszQ4rnSU3x9Ixo4NZL4O3QQea2VtnsTyYjcqYGXjS75NlHm2D2bHwDti6eeRm0LEhoR3olfUEaY8JwVzLUu5xGTO7NlYndF60F36YpGIQyDswe89gt28fJTIzoHZih9/YC/+nE8CPkwldcJ32gq3RcUUW7AVbotM8ZW+CeVvuJd0OyDfKHYOBctUCdCd04F/m8Va4cisLq6zzZCF/+so0abCSMq+uJo15A1DhGezt0OV9nqx95ZC64xGPeETzTMoOkxDIhT166jx7HJaNB0AOrSecGCmvZ1KBgX15cCwr9AzO2lZPXP2rJ3WcoHJPJLrjs3rA2SUL74Ms1H3onboHWdwfS3l2Qzl6ZgKC/zPZwSS2ExHuZSxxP1WNwVcceIvBD3gen6MXnqOXS4mr9YZsLsuQdRDXOFFD20N9V6dD++jElWVPTwTSQJZyb7Nun+47Rj5snnqSlVHqTMqZablXls/pB6AP0mib4FAvZfhm9UIaehqhF/REftT9uC69kG/c515L7Ia/qVdrvXzjG9/YnKQq9eK+VORxtdgVdz0suId3dBUGHRnGXHvhevLEugRdlq7R9XlTei84icb17pWmPrEv4aqm6KEzlN17cMIWgaLLUauMPTegbcmt7DAtQ5ah6bTJ4mBmqixuNKMSH9Npm3oeRJfsnh8wdjm/rAQoOOWZQ0Ph2lIWK7qxsozZQEraBAKwwaey8KccrPR1Qml0HvSgB23+XaZT70XoAjkYjImd2nLP2NQzWpYxc1/nkbY7No/K1dn6jKoxlLJQNqec9+IKylDovDigmGcvfYN+3pkN4eWMW5u99OU1jSidk9pexsgyj3KmezuhQW5btYB5PurL8Ftvgw7avJWPoT7zvE95Fl8bfXlEXnYNoLymLx1s5fGPf/ym/PWqzCL1Sxd0yOpOexe6HJXX00HDLZj35D3IFwYgbZ4edjp5br1KSAeVjj5p8x3p0QEv3YBL6DzWEzyki8sp7SXtB20e3gJex8olK8IMiBgAUKfT+WUlH9nLwzD5vMQDNmtZ6PTWUS19Tz0N6BOgF1YI3QNWohsj9XbboJA00L11CqvKXFumg42QBjJ49pxpM6hED6xqcw+TMPzN9brrcd9HPvKRZmKP+/k/+qRONS0GIshiQC69DNoGP1xrwJZ68INHAauu5DODVPKZ/KgHP+7ZbNMLtsL78BzPZCIIgVE2S8hL3XvLLRrqhXcifeoVZEFnvDv38BkDHuoL0mX7CnLqIWReI6cDE6MrCnrArRJbQXfoHNvQbY50KEPAcxz8YIdlfAGeO6Z/mcFPRVvD0Fa5lCFnh1zflrZ+n27OHCOLxmk6GK7htbdDlvL/baeFD5HFE3+7aAum0CVLudeIz12dauvAz5NPXdTfzQvq0CVLGULdmYm2cKPl367CdMlqI2hobL4vdc47lO5dut+U7ob85u/SHbF2jUMPRvzTLcvGV9xI7N6l2ha510h5/N/VqrLSd/aqzqfybzfXm6YnZ/MOyuxhnUPtxX1Qbfs8xthLbf/qpcte1IW4KlO/f9uekzKdeq9IW5l3Flj/bihD+fO5s77g/rlSl65eWD4MTlCuaKBP7cVQtnUY7dpe2mzXvV4Orkp7ca8M8pkuz/V0+77N/GPwXT2GoNR/udJchtvvS6881bx0ETSP5sm+qCy2WdgqM6Zts6TqD/12hf5FFvdXgYdk1uWsb59KOSvsSk4tu3u92mRwT5jhj+3AzfN06NrzYtkoy1FdD6B7OqemUZ4/aARTOoR2eEuPAkOR6x5NB7IOwKJbKuky668u3L9Rljfeic6pMioL3xnVUFlsv5BFrw1n7m0j+ZzONu/P/91rih2UeuDaeuDm3r36uATe0zqDQYMDJG3WyR9lceXEMs//kYO6iYGeB5+qFw829TgB4H0YyNnekAa2Sr7pmeG+I+tXno2ebNv420kUo22iS48s4Lu6nVAWKOs89aIs6qUM5++EmG0Q6bs/Bll4/zLQDHZKHemKuXqxvDmI5PryndCL6Xzvsv4JekFu+5TYgPalXkpZfIaraNzrapoDsboe4H7rm7pOIJ3y0Gdls0314Ff12qZvsH+zYwEPtoNlBzyYgtGsyJSpUWJQPcZIRTP2PagknH3R5YsZ1UVkYbSNAY4NH0jBLCNJYczMiPTN6BlKt8sHdN6M0jzQpz7mFBrkGOJaUWLY7bJjQkEbs1IGdAKZhQIbRSot3GO68olKjcAh5bJvfT0VHkvu2CF+9bxruYkZPb72ta9tdMH7EEKT2b62mUKuJXwkDQQNVLnaQsX4ile8YnNzPaGxcatrczGkUUAWKqgyAAbpE1bUcNDogAbN0Ni8H+WIPR9dqxl0kt761rduDhJoVNApunCmm9/6pw8Bu6UDUdptfXJ3H/UyPdjZ6ZKD+zzvyL1VZWeq3H/XlY4zdDYWbYMuyjV5T/roDfmwF9+TZ//7v/97E3SG97jtbW/b7Nlq06V1BXmIrZSrv+jzJS95yaarC/bCymDb6ha2y0wieV7WXaRPMA/ktLNOmbAB1M0OtxxnPKkLdZthZnCZgx/qFGZRy4371CfW/fwwSz5k9Ra7paNOfU+9We4RQl9te9tKWZwVLmXRzcRBMqt8ba7O6Fs3FvbY1rYG1JXUAcjBqk2XLMwkk0c+k3weq3fylf085DPljn1nQ2dvkcE65aSTTmr2jpEvbXtCSJP3MShHG9iVNgfYdu12Tn36d3/3d5vlhnrTyUd0QFnmnEPCQfMc2jgnsjxri7ri1a9+dZOW7mbkp51J6mmuedKTnrS5L8XN8eWAjLbl5S9/+WadjyxOYFm2Wam43/3utzmbb31DncL3npvn9+495XPsHntAnw4UlKWe7OHZHGeCDrmGto/PKBMEVMEeqVNwd+VZduCdLON73vnEE09s7rPM055gr9TLuDzxGXvF6aM4+DWQiXlCWSUdz82jjkHX2DVtDDrlN6vYrjp7LqHBBvh/PcHgpAN6wda5T/soZXGlCB3z7Fe+8pWb+xvRCz98Zwh32vEHP/jBrXrxKI5/+Zd/adIyCA31PXqhDrrzne/c1CO//Mu/vDl49bpy3zk6II/Mx7POOquxIfSCzaFT2na2rDjpRBoGQzA4kANTB9Q8ywlmQ/eXZwM5QVvq0kk109KmzA8HaF6vCyKyOrgqJ7qBfPAIkx0JeLAuDFm1GEI9+zeUMkKY4TwXHccuQ5YxLggaeRm6u36Hthn1LkjPM04o9IahHotRtWTKoJL7nUk3Qlfthz/v2WWEtzYffdOxYmmbxaUCMDJSX8jZsuKuPycN9WjkrjasuG0Myk4GekAedEBFxv/toPF+8w53rPXimRFcq38xDYSd6653bMODPMHViCk4YzvlvtI9sE5jiA9zPVPWNvipA6a0lTVszrzm/131m/ZSl0+DS/C5M4td9uLKTw33aS+esWWHx4F4ma7Pm1df2CHwnceEYeX52m+pTzoa6nqMr7l1HvKU9cEQN0brt1IWygAD0D5ZrG/RbXkmXX2N4cr7cFbejsgiARrczzJGj2BYbzqCdCrLA3JL+7Zj34dBhhxktJ19xQDUVVQ6kE6cuMJSnrHl2VQl1HvYs+eL8X/Pg6PTyMC+nHyzs1hD2qTh+yKLgwAPlixl0U5K5g00GSTTMa731ypLLQ/fMxC1bjbQBWWEgRg6Lb0ZXIkoJwzQC/I6oMUu6PB77h1/u8dQWcrofcK1rmx6QCvvglwM6q1PoNx7WU4YtE0eoAdXpqiLyn7OPFlKvSgLAxfSYkBXytKlF89Ssy5CL+iCwTJ6wX7KwCG1B4d57Z6dSwu9eA6a0UeVY6heStomRY2u2YYDqCluq212mD0/24CV2qIzjG0RwYbgTC4Y9nPqqk8py5Rwmp76LH2dCUFmZtfqjnLJ2E3pvINRiNBHXUkNAVmMzCVT9iDoW+39VBzlie5dFQiz7l3nOdloOdNZ7rkQZiCZkUa/NKjujWqDfCDNeoaeSpp9QchCBVZuZKwxGlOb2xGzW8hJOrooOTMzNJ9oEHgnZ6VIUz9f5R6zdwq438M/kbnN9W4Ihm2WofWCwUvm7a8aYrvYlo2Xz543+CFvrDdqm2bWnXLMe/C763BmbAnZ60YN/T3wgQ/cjOiIvcyr37TdNndS8gTbswNjhwN0yynrBmca5zWy2Nzb3va2pqOB3HQ8dNno27hvOS6DMJTBa+z4DMHOJNeTbinvkHaAe1nxKoMIGHSldCdqw9Vrvn/oQx/aOlBEN+hkiCcCZd1Z2K66pQvemRUB3RrHBq0hD7iXlRbySFdLKMujdVMXvAczy3au2+oSvv/Zn/3ZzXJqZ5F77Q8MeQ6BQ5CXdJwQ0o4oewxM+8JJUz5/5md+Zh9ZHIiVRwNMgXJMOzo0zDHv/rCHPWyzbqacIQ/5aRnvK2c8h9U57NvVAPcM8a7o1bDSQ2Qp3Xn5wVY8hHze/rw+eDZt6tA2gnKBLK5otOllSGRCoqWyKmP7aeRR8lm99K2YUkcoC6BbBkPoBX1YJ60LcXubyJSOzjLTmJdtu0mWMaY3VKZl6KVLru1IZ5EiWbqaDX12fW35/Rh9zktnWfm81+xl6PsssxztVXvpkgnoHHDkgucJEe2O33Q8ulyhlm1zQ9LbKlmm2MlYWZbRdixadpf5Tn22P/YZY9JYVjpT+gR95WmILPMmNcfaVFs6Y/UyVpYhaU8t73tRL6vCjp7zsy4syzholMsN2/OoXY7KJVZmSfhuSNQor/Udys3rbiDvW+VAFg9BJQ03cpZ4Fo/L8LqIDC3syOgKQp/rW+muxcyMeyR8V96x9CFtAzl1vfIArbpTp2tNuUG+3kCLXnThMKxs/RyXnt1AWOvBZeAuG0PWrhPYkdHZ+TIMJ89kFtSZxa5n6MJgyGsP3uP90DHPd4Zf3c/Dw+i6nuVmTDfElxse3UDaFipedx5XUPrcz0p3rXJPDe+CS4Hhc7vwnCzg3npT8BRXuLbV23I/kT7gYxo8wW5LF5i273kH3Rp4Jm4VBq8YYi+6cjFzrVsdrhqkTd67n8BzZrrqK77rWgXgWaTN7LCRrdCfrqWGM7cOwkYJ6c1gh3dERvdksYemrSwZOIBZ0SH7IN07ULpeWsbNx7IOIv2y3ud7997NkwX5h7ikdcnSVe/qGobODCnddQyDqxPc5/W+q+eFdNW75FG5n4Q6yvqV9PjcA6T7VtO67JP3YR8lNs1MebkiYlAd95640qhNle5w5JfyYccenqr+3EdDJ8y9EPWeVeQ0bwzQYBnxrDfw4Es+81Bw9wW5X0JbMQ31AcqKHt0vVOK+lHoVtUyjrJsNtlHWjW6st4033+rDLUkPnVAekdvzZFyxte3QJZTnUF/ZFqtfoIxoD9RZbnRHBttVr1cW62ffS1nMe55n3aeOKfN1m1W2E1yH+5l1mrZgAAnkMkiQe/34zXMs97pJuvdZvfBjeS1Dcrtf1gNefU/SwY1NvaDXMphFm142NjY2jzux/CmLfRDsy3rSlXXbzNrDo9QLk0xlOHTtzzJln3HM8S9loB3zpXTdHbv1I4OfHQZ/1qHuZhisFRwd6/KkasNT9g1cHJS4PI4PbLlsXp5B0gWNiCfT46JSd9qQk3CQdqpYth3jOmZse+7p6uTzHp6EDbiD2GkyxCKuN1R2Xf6gRjXjGhpGXaFKKGjozlPjdSsoBzhUQDwLvbDZu23ww4ZMT2UuAwOMCdlIXpXRdWqdICdBDqw80RFhTj3jgXegE9CVJ26YdD8B/z/99NOb96PzSCNE/tq4l+GLa+h4dg1+yCs2PuuWhG70hUYfyEojiF7aZKbSNfJbn28/NuFeLAMmAO+HXrCXvkONS3vhmbjg1R0IN50OYZ7LXXnqvRHOpky80GB63kgb2AvuJjaolD+CVBgxCp3Vtl5jVCU2WLt/gzqAtLAh3oM8xf74rs32pSzHbXA/h7bSQaQcOJjhb2yd1Rw+e8c73tHUj7iMPOQhD9ncmOtv7n3961+/uXFdkIu6kTzBRWloEBjq6HI/jlHzDO1bDobL6EzqnEAEHuJZyoL9837Uo0MPRsWthZ9ali4sc+jsAx/4wNzrsAM2oDv4oTyR10ZyZL8HZd6JiXlgU2zKt+NC3Wj9StAL9IP+DYHbBvUBZ0V1uYkh1wtf+MLZu971rmZDdxni3wEAz/LMK8oDOtfesWvsl+tsPxkUU67KSUjsBFsicIgdRzakl3tmSJc0uFdXRNKmjGA71v3U16RBHpKGg03f0/11vBtlyoO/0QefYSeUBeps92KW9QvfGziny22T51A3I4eBTswLZKUckxbtHXzoQx9qvjfQiR3nT37yk015pCxQp1Am0XcZKZD60ghkhFimTaEt1v2Va974xjc2fQ+eoTuq5xZ5RpLXIwsQ4MDBI/cpi26eDO7sxxjMBNfztjbLsozMr3vd65o8wxaQybO00Ifhrnk295AP/Oa9zWPsC5s/+eSTm++wAb7nh7QMZOJkJ2WDyZqyj8J7cg0Ba5CFv9EL95Ie/S/udxKG708//fTmN++oXvibPUAEFVIv2DLPcdIU28VmqFvrOhE7MWgWadA+lkEyPC6FdHk/nstz5rXpbaBj3oV0bBu1RdvHoWTws8swoxf1VuxaSl01Wac8c6fT2OnnLSt/6+vLv9u+W2RFdF7aW5kfu8letuo5XeluRT70rQYskm7fPr56QNW2Ob78e1FZFy1vtSzbzZhnzpN9qovcsm1PWbYrT9vkn+dGN7QM9j3PFaExMg1Nu9TbGJtsu3YZ/Zc2ebqe33XdMuxiyLPmybyscrbMumKjo+0fev88vW5nnTqP7PnZQVy2XqbbW1+DMs/tjfS3yu1Nd42ho/tSL0Pc3lyhKN1ldHtzg+Qqu73VkAeLuL2Zl21uby7L8/0QtzfkNXTwVru9MVOk24fnoJRub57wvtVub84cDrUXw4Buldsbeu5yextCn9sbOilPEW9zeyvPBWrD9+1zeyvtZd67DHV7c7WpdHsjXzwnQ1cTBj6sJtV1EDqZ52rmOULMMg51NavP4EEmZ1ydrS7Tb3N7c1VyntvbkE3JPMcT02tZhrq9laen15AG9Vvp9lYed8C7Gqa5awWV+0u3N0+lB+sr9L8MtzcOSqRNYsWtDErQ5vamm+dUtzejUhrUp3Z7032Mzy0btdubEd94tp4epdubrrc81zTUB59xvW5vhiYuB0eeFdfm9tZWN+tSWts3ZdXoh6WrmRHnlMmodsrL97V7lxFnde/i89rtrXTv8pygeW5v2qTuXaXbG7LMc+/iuW1ub9oS9t3l9uaqhm5d1lfWRbXbG+2qetHzo3Z7s/+B7AZrKfVC3WF51x1wqNvbfpfpBZ13ub25rWCe2xvvwn2sABnEwzqgdnvTvX1Rtzffn7T4nrpgyNggg58QVoyt3AS8jHSWsal5Wens1o2ZQ5k3Y7zs9HejvZTXLbrBf+zm5WWtcO60LH3yrHLAgz5ZpqTVlW7fqkrbcxftXo15Zp8sJVPSXGYQh1XVy7Lrjt2olynlvo2pASEWSTsBD0LYxdSb6cfu83D/CzNbVAbM2DAbPyaMpSuEzm4NCXXdBf7irjg6qzYWZnnYt6J7h/7iexlm+qaegzAUbI18ZpaUGUF0y2z7kBCs4iorM56cY+HsHP74Y8PVA3brCoib4ttAZuyybdXRw1/bVt9I09DKQ8sFecHM4tBDOLtwdaBc4UVPQyfzXIlYhizOGpd7lZCDst4FK4OUa1deukKjz4M84tkexsh+gilHP7Ci4/4mVyH6ziQZAjbofgl+0Ht5wGwbrmigl/J6V8RcEejCFS+vM7QxeJ7VkABHriK0tR+urJDvXfskDTrRVQcN0Qvyat/I734N9VKutA2VpdSLZ4LRPpF+lyeCsnS1q6wwad/IZhAMVzuH6KV8z63Ui3W215Gn9iHUC+WC/3fZzdUHtM2sArJHCvl4/3I/qrLw+ZB+Qq0fV85dgQUP2tbTYuxxFvPI4CeEFYMKoTxsrM/dqK3jSAXHRko2T9OAGtp3KFRAVPxUamy8pXNCh4LOyZTBD50TKjlgs+uUwQ+VOZuw0Q+VPJs+9/rgx2iFWzn4MXoQAwU2GdPQECxjzOCHPMFeaLTYqI79kMcMuqcMfuhI4QoCuPzMs10G+MjZ1iDSWSEoQtthraRnh31ouSAv0NUyBhykQ1AAz3kCOkBDBz8eAruswQ91BfIIg9a+wQ8dIA/CZAPzlMEPeUNwAM/9Ik+mDH6QhXcA0mGT+VQX0bouxRY9WZ6OHpNBXZ1Z9ObACxv0ejpzDPQoE33vaCAEBz/YuS5c5Dv5b6CWLnDxa7MR5KG88hzcnMrAGDXUPZSRvmAnfXrB1VD79noDE6AX2oW++tzoecpCu+KgywkT8h39lGcPdskyD+pCbErXVwZa2Lh2jgzY6xC9dLl+ko/KQjmgzTbSKnqhfus788lDdpWFttbAIQygrLf43XX20w0HtM2U+fe85z3NO3FGF3ohTzw7ybO2hvQTeN9SP8hNHpI/uqYbmInPnYRdhidEBj8TwDBL/1r3DEzB/Qr17KRRR4ama3jOeftHup6PAfIcrkWWeo+NfqyLvKO+mm36cpZD+a0AkcXQl6KP9Jhnk25dKffpxefrOy2l7+wyKPVS6riUzdWbUm/ux6n16J4H91q5F0UffiNd9e31YaDh3hhD1tL4I4thyF2BGbJHzHwHZUE+Z3xrecoyYd65j8A8MOoQ/9d2+T/P0d/eSDj+dg+ZuitPlfddhtiLe8B8N2d5laUcrFrGy7S0a97ddPTNtjy478mOvemUewXa9gjpB10OmvUXr68lvXKfWjkbOsZesAlnYLEXPvNUdvSivUBfuavtBWhgtRcbVZ/Jj3ssSvgcGdrqC/cUWbY9PLCkzkf3lJV7/up6UbuwDq3r8XJ/Go14eb/vtdWyeJJ7uTm6PBzU/WXot0yvtjf3J3iNg1X+5jmkUx6lAORhaU/8ds8G15Yz1pYNdGGUM57ZVt8oC5Cv2JyR60od+lye4wSTB4vWdazyutdGHdYHGteU9m0+28mn/uLvvgmBuuNoWGpAJ9ZzfXR1QF11LNPuuq6L8j270imv55nurTQ0c59eallqvbhK06efIZNJroK419I6zXSH6sX3HJJHXm87oL305TXvO08v6ti9h11pXXnARJX79EirrOtNt44q2IX1vPpx/zjPqA+Er99xUbLnZwJukrUAEGJ66sysm4LpJNSVOct9Q42IBoIRdNkBwFDaQhKWYHTMmhm2mY1qdaOBLGwWHrP6UL8jz+AdMWD0VRZ4ZMbQmXlGZk5Q5jpmLtBNGS6Y+wz/OATSRS/1gA699G1i5tnIhl7KDabLcKcQ9OLgBr2UjbgdJVY7kAM3L+0MXdadWTdVcj86Iz3DUDNDRohM0jeAQZd9e3YKemMW1ecSIhMdMMvjBuAh+jAUMWBjhBrFLnn3Mty6kPdu0EcPvD/3E17XAQuz+shJHcDsGO/INYRY5V7e3QET+uB9sCs60q4GOJsLDhaZeas7n6TPTKygFwYHyGaABsOfMntWrkSQluFxkd2wtOiPWT83JKMj9GF5sDOBvfMM7kcvnn9Cmaw79lyPayDPpBz5PfdQDtrqHmRFFvLB2Tvq1o997GNN/iJjV3nzXBMaQHRJ+FQ7mh/96EebtAxvzWdDVivQt/UWev7EJz7R5C35zXekw6ysYWX5vKxDeRb5ffvb3761bjbP+K2de9aGoIuyo8A1vKcz8NxLHV0PinUfBPKQmUvLm+d96Mpa6tVwsm2y1LO/XMP7OuvNvdpJnyyUBULRlitihAZ3pc+BQdm2ImfpwmhwB8sOM7ZvectbNvMYvSAfIXfLskCZ9NwwwNbLMNaEoqZt5XtkdQWQOoiQzITdrWfBDQqiLIbc5b2t90kPG1T+t73tbU14YeA5T3jCE5p0Sb+MAOhkg4O2MmDQPHiG5c6JJHEioK8Tp7uzgSDKIC1OfA2ZWTcwUtt+OWXRjW6ILPOo37NPFvVoviNLW8CXKXqxfejSzzy9CGljl6TPNU68lC7IQ/VSvmcbyOnExbL0YnCZsXrZv5Blnl4o19a1hvF30k9ZHID2Ub+v5xmRN35WugT2DTqz52eLMRpJvSowFYy0PKxpClYE9eznkGhTFDALlysHddqLjpFN107cPPn9PzgrXUY/cjZwzKCQDnBduVNAhkSRc+bUikm/32XB+zkodOXCVTjhe74rz55BV3Vjw3e6MugrbGeWzgmdAQ9H62p8eR73o2PyzU6DuqRiMQLYkNVJ38dOLx0TVxWQt+1sqXJm1rND7MC4coJdOADhXXXdcJXDWWPu1RfcFRobNRt/cNCBXuuBJbKXs3dlHWCERAdr9WolaXqtdsTf+jeXdlbKrS2U+vX6csWqrRzV0Q19r/Iz/o+OdSkgL7UX3gV7cR9KVx5zr2db8QwGJM5e8h3p8F252tYHA0HtBRnJWzskuj3QMUY2IyCVrjseJkhne8hKsZ3BUj+1fu34lIPlNsxvaOsAmLfzfO957hRZ2urVsm1RFg8wLW2c/GJQAq761AcI1ivw7oMB0mNQZznl3cgP8r+0nfqdkUm3QwdCDPyAfCZN9hgwAC+jnZb4PNNGbgZQpGUH0A6Z7SEDqjPOOKP5P7q2Lq0DSZRRVdVz3+Ddw35No6++bcMJH993qneJdSe48u2P5aLPpaqUxfJby0I+DtGLsphnU/RS6rfNi8T0h8hS6qO8h//TLnVNHJeydOmlb3JwK/Tifsbye9NfVC/X7nHPrWUp7a5miH7mHUuw6CpQBj8TwKj0mxyzxDcPCljb+RNjMhc56DDUDWBfxQaGGvX/9T1jZZn3DGcm6g6BMyulTsEl53KG0kp2jDsgKyZ1o+ly8jzQo64QVuouGU/xSZ8Hs7V0OHkOM9i1PfE3h0+Wh40CFWS9OoF8DA7cmFtW3DyDg/KGNN7cy48d2NLlg1l9Ok1UWM749E0A2FES3gNZPOm8LdQl72HnzMF3OZvEb2QxBDP64B5DqOpGw/vymZ1FQ5Db2HCdnSZdDsiTetKgDtVNZ77sLCq/h8PVHabSP5/nYevoT1t2ZUtXPWfo6kYDXfl52wyeq726PZbPZKWorh/QGXpykCvoiDwq3aHm4cDcdMqZUQ8h1OWi7HR1Udoo78whlobztbHkN9/ptlTbS+mu1AfX8c5lw9qmX1dOS9ezmjL0f52GnaquMmN45DKv2q4fIkt5gKBp8Js9XWUHvVzVxFbq/STW0fPAdu5///tvykxdRtms93x11bk8A7lYsQb05Ioe6VDehqx2ICerOeWEhZ1KdfHjP/7jTXnwOdho7Vo4BfdpsFkekJv2ZyyUKferIRcrX2M9DpSFFV9X43znMWAneB+Qn9hFuadpDAxqPZgbnbOSN7ZfgSwenk5eUb+U7ZyTTH2b4pmAw9OEug3b17tjDNTZ5BHPxN7R7RS94AWALIA8rMKOlcUDpXVVJY1yL6MT433ynXfeec2KOtdRpstV6zGyfPjDH27Souxj/30Hqg9Fjxf0PWXvcUkGPxPw1PNlQSW96MZVI4+MxZH8lE23Y+iaQUEGNxWWUACX4WI2JQ3dmeqO2pAIO2Poq6TRy5TGs4YKvuzgTAEbwaVsUaiUxwRfmGczNJ59enVSoczHvsFa14bQknpmzT0JbdSdvvJv98OQXp899JUJ9NJWD5Qnww+BOoDNrIugC+ui8L50cmrozC0LbHtIEA5sp6uerVdE2uir64fKgt1MkcXO9Dw8x2MMyHuPe9xjtgjI2yaXg+axE4FdG9757p73vOc+z14WrCrhHgxM0FAGpnTycTtl8Kc73pR2DFk+9KEPbU46MsibOuBgJY33weamyIL3AelYdqe0JXTgcZnWW4KBWFlW9I7oq0fpmJNH1PXkz5DgEfNkYYXTScwpesF7Qb0wSOhq17pkwa2dFVj0QjplG2vEtz75vva1rzUDOt5FvYydEED/rKoij5OBQ9vUPigPeCWQZgY/24R+lBiRPr3LqDCXVelOXRJnpmBZ7zKPeWnrirPI4Y1bgT7k9YqXKx1bLSc25iFkzkgPCSpgyEk33muvYCjKPtl12dINDx14OKMD5bEzONxLpVXLUgYhGAL3uxfCFY5luJ0uivsfbCTK99Hlrq2M6cblXiDd5+bpZZ6edC+DeWWp7dnu2dINy/DJ5YpYX97oo+393GcgCu4tDzocSr2fRFnG2ssYhqY55Lq2a9zHU65E1FH8yIsxkYymyrKMe3QTLA8intKOeLCwK0bUC7W9jE1zqv54Fzps/Kbj6KoZvy3blA86zsD7YqN854qt9sogw/dxf7C4T8K9Dbo5OnGiqy4dRssUHeyyrVR3urKWz0dmyx82xYqE9saKlO/tfjfh3UpXSA9URVY607RDDHxom3Tx9ZBT7QHKjequ9GonTlgwYFGW8p3Ui/utbGvcc8Vz3a/LfaVrI9e4IsRv0q69I3gfXYLJI+TgPmSx7TQUue7D6lFvCN2EHWTTJjJYMBiQuisHYNZppe2pF/JNvZDWGL3oeYE8Dr64j7/d41m6drva+/0iWI8Td+5vYyCHzSMfshhARL3YrzCf3auIHtULsiCvEykMEi3jyMOq0pB+hN4Euo/yHPsnpf2r067AEjUZ/IyAQk8lRMGbMlOwamAoVORUslsZSnceFCIaBgqDQQ5WRS/MgNQzh1Z+Wz34ofPIrJSV0t3vfvdBgx/sk8YJG6WiKkOYUhkNcXmgwndfk5sGCW1pB52Z2TErCIIsbhRHRlxb1OdQaPje/e53b3a2jz322JUZ/DCrWa9cAg0Kepy3UkzjYqQcG0xdyIbCM9gXYfS4ctN2n73QoXEPF/ljOHI6f0NWHJHV8LKGPCXggvsDWLGZ6gpiqFbqW0Ip09iuQn5PgXL1vve9bx8XXjo85aw1HQ47zbsB6in35WG3U2fPcUGyU2bHayegI/Xyl7+86cQSWIVVDjpb1HkOfnjfU045pSk/lHds1KAvdrxxObrPfe7TXE+ZIohD2UHjHanL6AxTXii/tDfWETwffd7tbnfbLMeEFjagCnWn+7JwIyNtyp/Pt4PIvZS/+93vfk0atAXvfOc7N2VxRt72jFUiB3bguW7US0cdddRmxMu3v/3tTaAeQE7abvLRCTv3eemK6cAA2z766KM3bYcAGU4MuTrGdW7W5xrrQSOvUT/d61732pz1p0w5WKCt4p2MGujgyOiFXENQF+RkMEce8Sye8453vKPpkJMPuumiD3RmGGm+Q1+kT1h42rEjjzxyc9Lq1FNP3RxwIEe5yoZ96wqpbtALz0bH6gW7IBCHeqEu51quM7iD+x7NI2wIOyQNB9Cs9lEPA7K7AoxeeP6FF164GcCBPEMftlPqhfJAXpM+OqO+4r3QC3+7z9MgP5Rbnkmbgl7ucpe7NM/inV74whduTmZxHauuQ7xo0LerWayIYQNOqKELyoQu6roLDyWDn5EsY/P/KrGT7+LGuFXUZ5urxXblfamXoTMZpWzlb+8fKne9Ib6UZZFBn/tYxsjSBhWdGzJXia5NmF3vuyx7KvNq7D3l31PyqLS3Ug5nFadQyjLmncZsIgfdgbbannx2uZesTf+7jbrO8f/OLA+JVDWvXlVf25lHHq+gnZShwusZeDeHOwvt5w6GkJeBgJ+Xs9P1j8/TThzQuDJU6qMsF17rd6WNu5qsLHRmy3q4DKtfplfq33TKWXf1UKZhuj7fqGOlnlwlckVGmetoZOXnylOmTyfecOPulyxl8fpSZ15rOsjiKon7YUpZSrnL/5d2oXtdGfq8lMU6sNat9aKyGPyEz023fJbv2KYXr1GWcm9lqbvy/cv09muRBb3o+VHbZ/m3gafK7/x/6W5rEB+DuBi0qgyI0FUmSxtFrnIieGqb1eRDQl0Pw2VLl6GXddDSTuKy4dCwhMvGiF1WrotuNl0Wzl7VetkutzcqC2fgXUIesvJjOGfup3LXXsGgAEPc3mzQjZDm7K6btae4MXneCxjO2+cM1SfvxYyjDSWzVcsMPrGovaDjWje6ErStGHKf0fkMFcrvsXrhekOPDi1L2kvtJlm6vQ0JLGJkOl0ruK8MXWyAhin6LN3e3Ly+iNsb6bJCVobEpv2Ysql3LOhI2xXKY6kb/r9K7r9d6DapW5EuUnbg2MDNb2fR54E+dJOsdcKqiaH7PeV9K6EcEJqdd2IVgBlz6r5yAGfnHox46SDDz5l91sWYMsbsdDn4MVhN6fbmaq8DMNLD80AXNtKgrbZzage2dD+zM1u6vSGLNlXLwjPKvKkj/JWdct2UuBc71s3WADq6vTnwLd3edJtyPzGf6fWhR4F1jefetbm9oSvkY/VGWbAPdcD7uDplW6OLm/IYDAgdkr9GcEUv1oW8s+2n7nO6OOr6xTN5L1Y722QpB3qle6c6US/uwzHoD89HL9Z1fXrR5QzZqMdcyWEFzyNL0JsBf/r0cvWrX30zIJB1Fvf7HfpVL55XZtnXRR550IttIbLh9kZZKm3b4wa6oiGWbm/l3nR1qku+euUzVqqGjA0y+BlAqaLtbpjq7Fmk4V80nZ2QZah5msai5rzIbPV2y9L1fVtHe6oMQ9MYag/rlEdDVsyGyDJkRanrmr5nrIu9cF6Q7peA6wpuSstgTH241c3uVrVTQ2yODg5uu3RaCJrRFrxhSDoMVHEvojOD69nYd5pq62VZofNXhlA3auLYNmsZsi+jzR6Tztj6aGwaqybLMtLbjXoZqpu+NqivjaEc1UdIMABiYD1E1iF1Rs752QKYnWJEuxMzzYxuGdE6IzEFRt+Oyqf6VDuDjyxTNjKL53IwA9B10GjphtD2nXoxxHEZdneMLLyTszimXW6kcxbaGeg2WXgfZGGVRn/csec30Vmg0PIuzkYrizPGvDNy6Ibg7J+bI13Jq/OG2RpXcNwgTyVh+GzuQ15XKLim7TBB/J7r85GYERozCYEcdCqGnFwNyIV+uVbfcGShE1vbBjpp8yVWj8jOe2sv6NzZOk+W7sKT48tQ18BnpE1a6AM7cUN4V6CJ8tA87JDZwzLiIvfNO0uJ5+EPzf2Uo7ZOnbPF5Wnfvq+H4aKLenUGuyWf6saNslauKnKvq4RtM/zkUbnPBdDxkGhmgq06Azmk/rVM8E7sj3CWVF0gp3U51zBL6qxhOZM4pr6dEnq17aBiqWVx1nUIfaG0F4X8QO7yVPcS9zN07dFyjwjXehBzjSG3+yJ3DWmvwE3TdZ5SdgnlzIz3He94x8vJUMrWZ3+u0mCv3MeehSmRrtAdq1CWMQboY/dautLJSoKH1HZFwJtXjtABoYupE3yfMbJYx3C/qxFueh8ji3tE8YpwlQtbHyOLKzbUbR7wTF2NLGM9O7Ar9sO6koRux+qF8mF/SL1gh2NkcI9u2Tajl6HlZuOylXZkQT/uLVMvXSvutp9GKrUe1XaRg/JtH632SBjrceTZeIv0hSWDn4HQiA89MG+ZYJieSG9EjSlg3FSEbhibKgsVj53kqbLQCWHzn0vPQwZtbbJQqdsImy/8Xc7U9YFu2aRIhUPlZceaylE3BioD3tvzIGoo7MxQkkdlSGFkL2eZ+6ACJMY+dmaDqWuUlRrvjBy4gbhMj2x2cO0MtzXwniWAXNgCm8g9YJT3xUaopPSDbhv8cF99CK4Rb4ZCZ/O9731vM3gY0gAqO9e62VdZ6oNeu4KRsFGT63lv7YX35HNAZwwGuxoeZGFTJ2XIgaODQtJmAzLPZ3YYu0Wn5Yn2NWV0K2yFjaq8Yxked96+CV1HeJd5gwkHjXZSsSPshbTJX+zFg2NLkBubLkEG8hl56FSSNvrm+Q76Spw5r8svehsz+ME26Zzy7CH2gn1iG7pL2cAiL7KTDmXMGUI3KaMb9GnHamgnD72MGZwINoP+20AG6kjrIGQZ0pnRnWYrBz/ozE3j8wY/bOL2/21Qb5FH5IfnudW4gX3qKpaBa8rzjNraLcrDy172suY8tdvf/vb7dMiQoWwvh8hCh5gN9KRD+G/qg7HvgH4ICGAZw46nBJr51Kc+1WygxzYJENNVF9XQzrORHjezk046qamf2KiOTsbIwjvoimRZw5b5bGjnlzykzuE9KBdOqBAue4wstKU8l3qJAAWUK9p0A0+Mcb33/CPeD3unHzJWL+Qt72XbrF6Gossz5Z26y8lW2o8xkwbnX7ZSwoCQ4BrYiXpxq0ebbqhraT89X9By97a3va15P9pazxxqm+wcWy5I04FaBj/bxJCNm1uF+wEWcWUwJOLCBlMcYDgV9IgsQzoLbYei2rEytKqzQlAf7tiH+7f0a3XTZTkDxHM8w6VtZojrjdblTMwUWfTBriuI8v2drS7DKvu3GxDb8kbfYHHA6LXamBsI5zVK5QZcGWtTbsLtOhenxFmoekUHWerDSLsOKuQ7N1s6gPMwUd+jb+aPa5CHe/T3L/VH/nm4pmVOXc5zGyg3froq0XUq9phyVB+aS3qGcO+a6aztxefV9qIOu+ylTmfsIMG9B+pmCNhXveJWHsjr3gBDNJMPrgpp33w+ZBChT/7Y9sFVvTaw66my0ImrJyjqaxY53sC8n/e+7jvpQtvtqjvmHdw6FG29TK/tnXW9cT9Kef8UHTkZ4aHJU2U3jXqvwxh4vquSYydubVuUxWADY2frrWPKOmXeanaXLD63brfGyqLt2Qa1HSY9FMN8T9k33aaXKWfXmA7vVAYGGJvGFS7bu0ZbaztGul37LMsjGkosSwbtgKk6ruWsjyCZSvb8jNjc2Tajvh3PpmGlEWxbNhyK7mBTz2NQFk9QdiCwiCyuVsyTxc2ldQdX3ARIQ28ngUpozEGkdADLaCSgK4a61n2pdB+apxfDUSrLmDC/vouzoa5CuZFUWawsHWz5PeXCTl9tJ1zjrJD3qCs7TDyf1Qt+22DWeziYdakHP2PPveIddR0bUp7clFr6B+vSVduGG2O77IXZYAeovKd55HkdfbKYx8yE2mlm9cvzJdSHkW+6GjR0ob048KwPmZxX2Wsvuuu1ub05m+l7lYNzQ+q2dWjaOtCkr21pL4ZGp7zUHZp5eYQ+xoSM1y3Ehq8P7ZvrLcfqQtu1Lkf3lgvreZk321nDfcyQ1+59fZSzpW1pTpWFldUu11/dAae0ZdZHurRNPWhQ29WmtmKPkjosuzhtbShyMGtOGWKVYxFZrId1Yyo3+Y/VDzPq6Jl8YiZ+SuAQ+kiGN6YsjFlJs64gn/F+oPz4PkNlsdzVZc2JhjGyqIvSDdzByxjbJQ3kcMVk6rlz5cqi2wkW1cvYMw/VC88t2+Yxq78bhV7KLQm6kHfpxX6T5zDp9qbt6gmzjEAu6oyyMa8vPGZskMFP2NVQ0KiYbeyxizE+s0KFSoGlOFCQaQSnRDUjDd186Fj3uVEtCyoElvIXOfjTfTRUWmPcI3YTvCNua3ZOcHvQ3XGsveBS4uoeS/tj9W5HyYaPBmtKR2mRckMHfOrstG4kdB6nuPbsFdAlh2MazWkonOEx5lyKobJgl22uwoKd4uK1E2e77XbGblR3Aq/8vr6m728nRXx22emrA5p0PUdZynva0mqTxfS4xp+259WTH13vVH5vYJh5crel0ybHvPfvSgPKfWFDKPNCvdTPmfdOY/VSPqdNhnnvNC8/t0ovG5fJXq8WdeVTH2NXixLwIKwNFAyM3NnzqXuymLXQ17ZuFMbgyciwSKdyLLomLBqyvHS12asY/hWmHMCpvdDhp1Kf55o5hHIPwnaGm8deFglaIrp7rjPocuw+Jpiyh2OoLF0Nf+0KGYZDO2MgEHTMwN+V+LZZf1YGOIhT1yjqG1cjGYi4h47vrb/bytP73//+ZmKNZ7DPRfddB9y2Nbo0sh+rloe9TexFKldNOMhYO6TjWA6aeYZHG7CnxbqC/Sm8V+kqzGRZWzAFdEU9U78TqwVONrpn0r2u9Woo1xpUoE2/9aSDoZZrWOmh3i9lIV3uJxQz9w3ZU0i+sbqKPEx6qWf0qyxuzKcstk0MoZe24BvcYzhy8smDYzngsy7TBlRq28ONXuoJEPKzTZYLLrjgcgEE0AvvQHRMPm87wLuWBZ2gA/a7MrniZKCHkU7pV5AfW3XocQY/YdcztQNbYsSsRaESGeN2t+zO7KJpbOeAbadYRj7rirIoNBBbuTm9i2U0KjsVAXPVGBO5aqtZ9mpS+H/o7grUlW7Cd+9DDZ1XNn/TYaZzzwDBCIR0GD2rjI5hua+0hM4vgVA+8pGPbLqo0ubh7UCHk++t0/yuzU0Oud/4xjduThRiJzxXe8FzgA3vQjvGpnfqJwYldo4JOEBgHnXgc9q8Bejkz3OrJeCFh2MSJIJOM+/RNvihIz9v8OOZeGW91raaT17Ve3NIm9Xr0047rbmPDfp9cA+DJQYSDB59f/Ia91f/j3cAg6O2QaGytA1+yAfd/Rlooh/spB78OHBrq8d5fpmXYES6mm9dFq2tlMUIq9gdNsngq2sFhoESOmEFnCAf6LEc/PBOdZTYISwSnbiPDH7CrmZZrjZL2UC3DW4/ui6UJ1V7ENuYg3e51wM4PUjMQ/em+vHvBrbaXtxn4GFuXXuhttNe/G2gBge6Q1cA9C3nvdzPpK/5osFYVhn38XXt53HfyphVNF1My31V5EfXmRfaVtd+niGyeOBiORPLO5Zh46kTprgP7zTuQTBiX9v+x0UwKInu0UZgnbf6iR7pCKJrV33Qqys/fGagma5gK0R7M+IrNkK6ZXQyJ9zc/9f2zsjNjLxueEastFNteRb3w9QBFxigMBgyIALvX+8l4n0Mcd0mC+9qEAV0Q3ropm57kMk9Hm3wTvVkVluUUsNK1/r1gE5WtgzB32fz6J38qKPVcX85CKWctunFYzPanqNe3LfoYKV+f/TSFUq+TS/1PsuNy2RpC17i/mbc/3lG21EKJby7BxF7OK8YtGPKys9WTqxlz08IuwiKKzM1bjqmcmW2icrGk6+H4Hk1zEAxq2QQABrmse47Yd/8YcaN2UT0uNN7YQxSYYQ7GjHcTWiQ2lxj5sH9vBN1Lo0bs5qeFTXvnJa9gOG6dfNpA12ODS1LuoSUJTS6UH7vda97dQ5+yDtm++fBvewl6loNp+wzc1/OxLLh33PAgI7M0UcfvevylbqRlQAjMbLKssyVVScBgE6/Hbp50RmdQfeaMlqVAyjx87a9HaRhRMFyksuBTNl5NZpZW9Cb8hiIeqBUBxfieuoydOiGdTvMDpSV10iayoVesCncpdqCm5SBetSTaZRtGHUMbZTHCtSddzfAl/j+pSyUYfc3lmnwnYF+hgS8KXVj5M8yoIqyuEer1otHNLTJUuvFc8kccJey8R02MU8vDo669LJxWd1mGOpaL06SmL9d+P4eg1JOOtR5PYahQZEke35C2MPoJ20Fy+8pnRTvbdsMG6Zjw7Eqe6fa7GVqOmUa62IvfTqbuqG3DNEPQ9xC+uxqaD3g6nHZcRkryyrn1VaVPTuQ5d9djD3Ms2s/56Ig9xhXXQY5DJbKjrEeBkP2q+mZ0GaTdRjweelZrtpWxfh76MC2Pr6ilIOfRffrLUOWWi+U0XnnKfbpxRX57dZLG4uEfN9KMvgJYZdhGEvd1JhdGxOiE6jwDM7A/1kRKIM1hOmgS8+OWhV7MeS29oKtjAlUgH1hH9xvg+xZEHsdZ0bnMabjU4IfvYcZw5C9gthWX0eirwy7SlwO2FjxLQc/y9hHuROgG+ybwdtYGw/7Qn0xNeon9zDoW1T/ixypUcqCfa+KLQyVpetoE+qbZXg9HXjggWsb9TFubyHsUhj8jB30dIWn3G0uLmGavUBfXneFvd1LDG3+ut59kSa0dEEZc88ymu29mJ+rEOp60bwZksayrvG6LpZh3310PWOsnXaFv95OllGmu+qH3aqXrSRubyGsAW7sXeQAMf3J28Juhr2Fm8GHzOrjBsX+CRtMXV32UkMJ6IM9BV1QvvrcfGhsx7qKlSutHsCKzkmH36XrFvmg2xLyuEqDT76TF3zO4JbPTM/DjV0tco9C3wbm0I77Q9Slh3WX7nClC6FR3cA84jd7yNiDx+qpAUOc6Tf0dZm3/GgPRljk2ez3dG+Jh1HyTGf0ywAZ3FMH7hh64DCy8O7I694OMGgK3xnW2gPBx0Y9xU7RrQcQIyvPG+uNYGAQ3ok0+L0TK5mUY/foWrbrQ0x5T6OZocOyzuW9rXcMTgS8G5+PdSWr9QJbFUltN5DeTgi7FBoLGqVFQmt7xoJRi8LehYaPCGNDOgLYFpthbYhxJdqKc2l2GjpbhO7tgs3/Xe9ukAs7xUNhI7kdO/KGDgmy0CnmNx0eZ4TpPDGTebe73a0p70aJM4+4DjkpwwREoBNFmnRIyXP3nZCPuszkrJ/x0AE1+AW6JKSwgxEHP+od+NzzVtz7QB6RvwRmYDBLXhjlizQc/JC2q7V8b4eVvCRd7O1jH/tYYxt0YpHNKF2e20L7YJAD0jf4gnBfXydaWXg+AVyYLHDCgA33yIw9fuELX2jCVfO+fMbAZczKD2lyHoyTDfxNcJWxgx90xr3ogvctB53biQMWgpSgOwJAkJdEllMW6mIHIAaYsM4lv6x30C91Mt+RnwaSGAN2ol4uvPDCJq363KN1Ir2dEHYpbkpchPjFrw/k9dABbh35aK92lOedz1Jf0we6Ghsivky3jJpl+PkyKhg/ZWhyO0+GSfazMqIYnR1nj+1Ajo2eFNrLkANOV33KjnVZp5YHIJf5bRh8fnuwaZ1OnYZ/ew2fk4argl5Xhi72M21D2ceW6zJKnf/3ftP2ufMOau3DNLyfZ0ytd2wbu8KHbzW1zt2/VL5XqafSturvfBcjBC5DL+vO0vf8MOr+gz/4g9lLXvKSZsRLONVf/MVfnP3e7/3ePv6Lz3rWs2Z/8zd/04xi73nPe85e8IIXNCcXDyF7fkL4r5klz0BYxO3NcwdSIe5tPKdniJsL12IXUods3St4SnoX5ax+G54jUofc7aM8IFIXGWRh0OIsb/kMOj20d8ij21F55o9uU3xmNDdD3tpx1cVqJ2bC9wLoVJ1jE561U3a01bkDWu3CwBj8ZnWEe6137fg6uNBFyUEWaA8OYA2jrW0Y9RNZWFHgdxnymGtq10wHS3172pTFQDum44BHd0AG2soxpl0y4iDPccDgOTZjJxW0e/MChtR5y8ZomLyTdqNexJU67UQ9Azqw3imjM2o3u1UvW8mYscHSBz9//Md/PPuzP/uz2d///d/PfuRHfmT2gQ98YPa4xz1u9j//5/+c/fqv/3pzzZ/8yZ/MTjjhhOYaziR45jOf2Zxe/PGPf3zQUl4GPyGEEHYrNrtl81uvHvTdO++aeWkOlaO8dzd2jOp32Y3vsBvxYNlF7EYXz0UC+Swj/7fbhsaU2bCiAQ84uO1hD3vY7CEPecimX/PLX/7y2fve977NTH7e857XrARxHfzDP/xD49t54oknzh71qEctW6QQQghhpWAfhXt3gIk/T5iftwrr6lDfrDqNP+kNmUzkWrw0SlmQg4nJ3YiHeS4r3HIYPvih80mwhUU68OxHYVVj6l5WD2Q2sMfU/KdcUNZYRdvqlVIDk2Qyf/tYuiP3Pe5xj9nJJ588+8///M/m7//4j/+Yvetd75o96EEPav7+3Oc+11S0xxxzzD4V7ZFHHjk75ZRTWtNkKZBCVf6EEEIIuxU6aGzw9scN7n0HdJauMV0dtzqyV9e1n/70pxvvC3/YvL5bwS2IKGgEFBjrihimg66x4UWdiRj8lAPxqUEpCPSxyGG39DOxI4JGbDX2ccP2sfSVn9/93d9tMvFWt7pVM+KmQODy9uhHP7r5noEPsNJTwt9+V4OL3LOf/exlixrCyuNmZxuURc/1CXsb7ERfc3A/Qmxmfkd5kY7WUOoQt8CqTBlqlu+I1NYVgclwwF2uRXzPTx0li44gtsE7lx1U0kSOcg8BM+a7Efe4GPZ7rwbqWEXQ9TIiQhoIYhE5iDS3aL2HHNjRIrIMhfKeA8Z3+eDnVa961eylL33p7GUve1mz5+f000+fPe1pT2sCHzz2sY+dlObxxx8/O+644zb/ZnBFuMAQ1gE3Q7sJMm4coYty8z0d7DSq82GQcOaZZ275c9igfPOb33yfskuYYFyEhNWfD37wg42r+LxOG+FyqQMIOdwG9cTnP//5xlWHlZ+y888ghx9mxZ0R5zlMPCJbORDbrRHheD9m0W90oxs1f6eu3D4YJBC6e9EB53Wve92F0kAOy8ci+U/Z1G1uqyePGDR2BVUJy2fpNdzv/M7vNKs/7t253e1u1yyhs3rD4EejJJ75IYccsnkff9/xjndsTdM4+iGsI+XKz5Ljk4Q9SOxlfASkrcYIXmLkr/oaBixGZGrDSGPzZDa6FDPWvFvp9uPhm0afUg5gpnwv7DdQxzsZmbAsf1M3/5cr/lODCCzLa6BMpyuN8qDXNrC5vvcxImGXLNpumyzK2RfBro8+OZaJejHaX9ilgx9m0upRO5W6BssmSgZA7AtysMNKzqmnnjp78pOfvGxxQtj1lLOwqRxDH6z2tJ0VES4Pnf7t8CLwHJe+meY73elOnYMQZ8WRex7MVrdNGBqiuA6jzSpRV3q7iVU4rFnXRGA1bcqMvgeLGvmMfJ9S99eyTJ1EZh8OtjP1fVyRpq+HDLzPIodyY8uUlzYbZw9buaK6Ww4rZyU4bB9LryUe+tCHNnt8Dj/88Mbt7UMf+lAT+vqXfumXmu8pwLjB/dEf/VFzro+hrnGLe/jDH75scULY1XhuQwhTZywzYJ4PHTkigm0HffnAak1fhLUhsm7X+6wi2P6is/6LwgqbA46p7kx08kmDAQcD56l7sFjpc8P+IgNcBi6ktUgaburHzqcOfhgMOhDzzKt68MP7Th0s7gTolXei3O4WmfcCSx/8/OVf/mUzmPnVX/3VJlIGg5onPelJs9///d/fvObpT396Y6BPfOITm4g3Rx999OxNb3rToLCcIex13JgMhr1NpRjmga2Ukb087DL0s0rlartkcXa8KxIWHXZm+VdJP20DBA4LbYtqR51p2PDthsGXgwRkNIoXMvk5s/3lQaF16HL+z7Wu/HhwrQMqDwFlUFK7troyqGtlGTKaTnYJMpFen564Bjm5nmd6yC7p94VdLw9JdcDioageuDukvkIX9Bu5Xjcx0kAW6zz06rsvE+TnWTyTldI2dzu+xxaRZYhOgeuRvy3NvcKllw1YrW8MY77T77v0Q063gxxyGvYyNGr69lNBMCmQzmzoO9dEf3pmPbfLXz3sTns544wzOvc6ec7PTndQusDe2U+M7ddQZ+JZshNun+W+FAYKTAIDnWL2ORvVzyiDdHzrs3HKNICwza7gEFSADj4dfYJk1F043pmAD+4z83vynb3V5fWlTEP3/PA+DqJYkepbseA+wo7z22vp8BO8g/RwOx3iqsg9Z599drNtguu5lwjBDIA9z4n/8/2yI1zigsiz0XtbQBLe7Utf+lLTJ0UWgogMeT59We4hD/bqJOcll1zSHHFjfYO9k+db8a47eshpCGFxrBj2YmUYls+iJ6uH9aJvULBb9oohZ1vHeSflLw+pLf9fdshLd+a2ia3yPic12jr0bfeWz65Xk7i+HPwMmVQr03EAVL7TEMp3Na0poch9tgM7/1ZG99Ytux407S67UpYx71Smu1fr7v0ue8cy8MYqkJWfEFaMetYv57SELrAV3VCwE2dFQ+hyH+pq+rGhoa47OwXys/qh7ZfoYrbT8jPbrVseZdI9KnxmHY+sXfuUeE/eUbc3XM08Q1EPgRK9Ber0dI8t8510xkTG417SUBbspG+PlfKD1/Lu5B0M9WzgHt5XFzdlQce+A//vc8ObAvLzbM8yalv54XuezzsO1annUm2FzKvCpZdeuo97JjbXZp/bPTbI4CesLGNMs5yZWgTSWUYay5IljGOozmMvIexdFilLKUfLow7vvtPpbKWNrYpc66yDC+L2FvYKzDA5yzQPZ5M83X7KuR3M6JT7JOpT0IdSHkI6T5a+CqJveT3Mh5lAZxTnwYywec1snb73YyB/ykMhmUnvs9M2ymhQ2Jx+/SV9K3+8S4LFhPD/oCyyT2ZMHU45Y+9N6t7lwj4cVxIXyU/SoUO70x1swbawMWQzvPy6cdFFFzX7v8hb9vLsJjL4CStN6TYwj9Ln23MsxqLrgdAR7YqGNI/SH5pKsU2Wvs6sbg1hPAxmmPWZhxGQysEPm1nHQhplhB4GLX12Os92Hfxwf5ssfW4lRM7J4CeE2T7tAEEFxkxIUM7oxKbuXS4MWqifFh38ENiinHDaaTxzyBDg6zr4Offcc5sgDxn8hLBEysFEV8VYnmg/pfHiOWVDWW44HQPPd7Vnnix9g59VmdnajejDPg/9wl3tYYA7pdHiOQycXHHse26fPzRgf7UsQ0Kdp7MW1gXKCyGF+U2ZMOxzjd+NmcAindS9y8cQ2YtAvqzi4IJB3TrvsbzSZSt6uzG6aAY/YaUp3cjmYWMIdECnHMRGx7N0f5oaXtpNj/V5D2NIAzwd8q1rEFLO1gH5c4Mb3GD0c1gZxOVBmDGeMvhhlcrVnnmy9NnDuja8Yf2gbiW8NeWPcnGzm92sdcaZupczBscwdcIrdEPduGibRj+A1YVVquuQhbDatCm7sfO/DGizCKs+JFT5qrH7JA5rw5DQvZ4/sGh0tPIsA0OCjm0Ia1nmhScNW0fffinzqFzlm3IivGloL7Xb5NA0oFwp3OnT6UNYdYzwZdSwNqh34wq6s1jXLhrG2XpyVerGso0fEylvL3LFIuy4OtktfZ4MfsKuh0auDKM4hbqxnFp4qQydBcks4mpCNBhPPZ+yWgPkMYeJln9PATmUYV1nD0MYCnUqByTa0coAZ7VhZXvR/T6s8hHFqz4Idqdg4M0+F2yRA2dXQaad5pJLLmn22NGPQie7oe+TwU/Y9dSdximVEfcso/NZd4JTMa4etSvilDyikl90g6fncSxj0B3COkC5w/0p7A4IBOPZOIsMNgiawOBnFWDFH1dl+gtTXKb3Ij+4TCcMeq5//etn8BPCVrOszuIy0knHdfVZJXtZZjoh7FWc+deFipXbVdr7ES4PecVeXAYIi0wqerioK/WrgDa4qDvfXuKKRbncLTrJ4CeEEEIIKwmBaD7/+c83HWpWSXOw+erjGTgEO1jENZFQyqweEVhgVTrVeHcccsghzf9XRaadZv/999/UyW5Y9YEMfkIIIYSwkhg4BrLis3swEMwieVYGH1qVgQZy7MboZlvJfrtQJ7tL2hBCCCGsDewXOeKII5r/0xHOAGh3dIbZm7XoPlpWjXbLSkLYXWTwE0JYCCPtyZQZumWkEXYHsZfx77eX37UPZpRxnxqrr3XT0ypQ5gMDl6l5UEZvXaVVn7B3yOAnhLDwuRv45dNJmboxlcaOTc2EsCWK2tQQ1GH1YRMzm6Hp1CwSMQ97IcoQNreKp78vAuWA6Em8F9GuDO1MePV0BC8P0cAuvPDC5v/UHYkItzNQjxPemt/szZriCsW97PWhjsD+VynYQdg7ZPATQlgIovGwuRX3lEUGP9/85jebjjENXgY/e9te6NiTx9jL1JUfOlmkRQdrrw1+GNRxbgYdSCYW+Bs99a2ArCNOnHzxi19s/kZnGfzsDAzSaQv4zZECU/eBMPD52te+1kyOZPATtoIMfkIIC8EMPp3PRfy76djRGY5P/3rYC3m96IntDpD34p4Az4BCR3QkXfkJ7aAnO8k5+HRnoS3AXhepx5fRpoTQRQY/IYSFoLPBYW+LdGS5l8PRmMVNg7e3oVOzDHvh0EPsZbdFGRoTTpdOYDnwycRAuy3gDqgLZXS0c2CvHvw5tVySn+QlngTJy7BV7L1WI4TQdArdNEpjssjG0650+M7VmkU7s3F12znMY36bj1Pd0frshc8WXfXZ6/biyk8YxqKHaYbl2e0yXFAZOO3FSY2wOmRYHcIe3gSM/zV7BrqiR3XBZmv2Z7Afp831hj0XHEIXdj/kI/aySH66UZ8f9qnUsKcr9hJCCGEnyeAnhD0Kgx4iIDFAmQodWNLgp20AxeCIyDxh90M+ks+L5GdpL22DZewFuwwhhBB2iqwrhrDHMFQobgNE3MEdhE4nIalxTxt6/oL3kIbXE4WH9HFtoKNLB3fZ7kekz4CNVQLS5qfNfQpZeD6+4XGRWFzf2AZ5jb7JWz8bai/eQxrAvQx0yCM3QXPNsiOzIT92yg+2TvoJBx1CCGEe6TGEsAch9CvRjw444ICmE4qrkeeGDN1L4HksBCJw/wbubwyK2NRKx5a0CS27FfKzeoD8bWFr6fDiokWH9+CDD87gZ0HQNbZBXpKnDJ4JNctg4qCDDho8WMbVEntxDxjhqMkjPuM3AyDydCvk51lslL7hDW+49PRDCCHsHdJjCGEPQseTDuiigwLS8YRtOq71JvatDE3dF6hhkUAOYWvthbTK4An1c5adb9pC7CGEEEIfGfyEsAepT9dmtccZ+aHg/lTO0nvIIp1avnNQtFXy67LXFepYl6qwGNe61rX2OS+H/C1X/IaAvWEv5fX8rWvkVq7OseKDHWQFMIQQQh9pKULYQxiUoN73MDYUrCGsy3T4zf4a2arDJeeF+a0DLri3JExHndb7qsaGmtVeyv1B2xWu2fC6GQSHEEIYQqK9hbDHYH9PW5jhMbjfZ5XgndhzxN6OqaG7Q7u9sF9nEbg/IaxDCCHsBjL4CWEPwaCAYAGLdmbZnM7m9VUb/LAJn0AHbWGUw/RgAeT3ooNl0gkhhBBWnbi9hbDHwF1p0b04y9j8vmx4J9yztirAwrpCPi+qU/Jm1ewlhBBCaCOtVQh7CIMSLNoRZf/EmD1C2wHvRBhjI4qF5YC9LDr4SbCBEEIIu4W0ViHsIZc3fhi0LLLy4+b1rQhJPFWeeYEcwuJ6XXSl0JDWy1hxXLa9CHL5WUJi7w5wbV1kb1/tGjukPotthLAeZPATwh7b70PY30Vm4Tngkj1DpLMKfO9732vey0M4w/IPw11klY/8Yc/PqtgL+5cIisHqoB3g6173us2eJOQkrHcZtTCsJuTXV7/61Un3Un+dd955+wyeDjnkkM58x144vDmryiHsfTL4CWGPQENPkIJFQ0DTmaUDuUqdWaK8IU8GP8u1FyK0EY56kcGPkQFXxV7o+GIvvJNRD7EbysZ3v/vdZhCdwc/qQ359+ctfnjyB86lPfWpz8OvKHy6e88Berne962XwE8IakMFPCHsAGnka/EXcwugc0JHl9yqdmcIqFqsT23FmzLpAHmMvHlY7FeyFAcYq2Qvvw0CsXPnB5YkBzyoG8gjtUN45yHjqhIl1mTCwoR6ZB/aSYCohrAdpBULYA9DJw9WHBn6Rzh0rAXQYVmUW304QgQ7SMVm+veAOtoi9sJLCSgvprAoM6LCXumPLrD+2nZn93QH5NbUeIp9vfvObX25lp68OSR0TwnqQwU8Iewg6dssIc70qwQ5KecJq2gv37wZ7yYrP7rPNDFRDCFvB6B7FO97xjtlDH/rQ2aGHHto0dieeeOLlZlx+//d/f3Nz4THHHNP43pZwSOGjH/3oxg+b2Z3HP/7xK3egYgi7CTp7zL4vOkjALWTRPUNh9cFOqHsX7VxSx6/SKmEIIYTQxxWmuMXc4Q53mD3/+c9v/f65z33u7C/+4i9mf/3Xfz079dRTm87Uscce2/iXCwOfj33sY7OTTjpp9vrXv74ZUD3xiU8cK0oIa49hfZmIwD1syuCnDA2MawhuQ6syix+WS5nXi9qLYbITfjyEEMJuYr+NBQLp0+C95jWvmT384Q9v/iYpVoR+67d+a/bbv/3bzWf4lR900EGzF7/4xbNHPepRs0984hOz29zmNrP3v//9s7vc5S7NNW9605tmD37wg2df/OIXm/uHhGc94IADmrQT/SmsM2zqZd8FZZEZ+CmdUMot0brYu0GHeJU2r4flQh6T19gJE1NTBz/YHLaHrWTwE0IIYacZMzZYqiP95z73udk555zTuLoJghx55JGzU045pfmb37hbOPABrqcRZqWo65yP8ieE8F+dWdxIKez1oX5jz9T4xje+sc8Kbdh7EJmNfCYU9CL2ggcA6TAICiGEEHYTSx38MPABVnpK+Nvv+F1H4sF1gpCWXlNzwgknNIMofw477LBlih3CroUZd1zVKEOLzL5z/5BoSGF3g42Q14vaC3uFYi8hhBB2I7ui5Tr++OObmW1/zjrrrJ0WKYSVgP0517/+9ZvJg0U6sywRk04Of9zbMOjRXhYZuFzrWtdq0uk6NyWEEEJYRZYa+/Pggw9ufn/lK19por0Jf9/xjnfcvObcc89tdd3x/hr9ykMI+0IHdtGywaCJQVTY+yzLXlj1CVuD23CzjyqEEHbBys8RRxzRDGBOPvnkzc/Yn8NenqOOOqr5m9/4m5922mmb17zlLW9p/M/ZGxRCCCGsK0wGXnzxxTstRggh7FlGr/xwHs+nP/3pfYIcnH766Y0bxeGHHz572tOeNvujP/qj2S1ucYtmMPTMZz6zieBmRLhb3/rWswc+8IGzJzzhCU04bCIGPfWpT20iwQ2J9BZCCCHs5aAUDIDi7RBCCCsy+PnABz4wu+9977v593HHHdf8fuxjH9uEs37605/eRALi3B5WeI4++ugmlDUhdOWlL31pM+C5//3v37hhPOIRj2jOBgohhBDWGdrERQ+fDSGEsEXn/OwUOecnhBDCXsQDZBNJL4QQtmZssNSAByGEEEKYDoEOEuwghBC2jkwthRBCCCGEENaCDH5CCCGEEEIIa0EGPyGEEEIIIYS1IIOfEEIIIYQQwlqQwU8IIYQQQghhLcjgJ4QQQgghhLAWZPATQgghhBBCWAsy+AkhhBBCCCGsBRn8hBBCCCGEENaCDH5CCCGEEEIIa0EGPyGEEEIIIYS1IIOfEEIIIYQQwlqQwU8IIYQQQghhLcjgJ4QQQgghhLAWZPATQgghhBBCWAsy+AkhhBBCCCGsBRn8hBBCCCGEENaCDH5CCCGEEEIIa0EGPyGEEEIIIYS1IIOfEEIIIYQQwlqQwU8IIYQQQghhLcjgJ4QQQgghhLAWZPATQgghhBBCWAsy+AkhhBBCCCGsBRn8hBBCCCGEENaCDH5CCCGEEEIIa0EGPyGEEEIIIYS1IIOfEEIIIYQQwlqQwU8IIYQQQghhLcjgJ4QQQgghhLAWZPATQgghhBBCWAsy+AkhhBBCCCGsBRn8hBBCCCGEENaCDH5CCCGEEEIIa0EGPyGEEEIIIYS1IIOfEEIIIYQQwlowevDzjne8Y/bQhz50duihh87222+/2Yknnrj53SWXXDJ7xjOeMbvd7W43u8Y1rtFc85jHPGZ29tln75PG17/+9dmjH/3o2bWvfe3Zda5zndnjH//42be+9a3lvFEIIYQQQgghLGPw8+1vf3t2hzvcYfb85z//ct995zvfmX3wgx+cPfOZz2x+v/rVr56dccYZs5/8yZ/c5zoGPh/72MdmJ5100uz1r399M6B64hOfOFaUEEIIIYQQQhjMfhsbGxuTb95vv9lrXvOa2cMf/vC517z//e+f3e1ud5t94QtfmB1++OGzT3ziE7Pb3OY2zed3uctdmmve9KY3zR784AfPvvjFLzarRX1ccMEFswMOOGB2/vnnN6tHIYQQQgghhPXkghFjgy3f84MQDJJwb4NTTjml+b8DHzjmmGNmV7jCFWannnpqaxrf+973mpcqf0IIIYQQQghhDFs6+LnooouaPUA///M/vzkKO+ecc2Y3vOEN97nuSle60uzAAw9svmvjhBNOaEZz/hx22GFbKXYIIYQQQghhD7Jlgx+CHzzykY+c4VX3ghe8YKG0jj/++GYFyZ+zzjpraXKGEEIIIYQQ1oMrbeXAh30+b3nLW/bxvTv44INn55577j7Xf//7328iwPFdG1e5ylWanxBCCCGEEEJYmZUfBz6f+tSnZm9+85tn17ve9fb5/qijjpp985vfnJ122mmbnzFAuvTSS2dHHnnkssUJIYQQQgghhGkrP5zH8+lPf3rz78997nOz008/vdmzc8ghh8x+5md+pglzTQjrH/zgB5v7ePj+yle+8uzWt7717IEPfODsCU94wuyv//qvm8HSU5/61NmjHvWoQZHeQgghhBBCCGFbQl2/7W1vm933vve93OePfexjZ3/wB38wO+KII1rve+tb3zq7z33u0/wfFzcGPK973euaKG+PeMQjZn/xF38xu+Y1rzlIhoS6DiGEEEIIIYwdGyx0zs9OkcFPCCGEEEIIYeXO+QkhhBBCCCGEVSCDnxBCCCGEEMJakMFPCCGEEEIIYS3I4CeEEEIIIYSwFmTwE0IIIYQQQlgLMvgJIYQQQgghrAUZ/IQQQgghhBDWggx+QgghhBBCCGtBBj8hhBBCCCGEtSCDnxBCCCGEEMJacKXZLmRjY6P5fcEFF+y0KCGEEEIIIYQdxDGBY4Q9N/j52te+1vw+7LDDdlqUEEIIIYQQwgpw4YUXzg444IC9N/g58MADm99nnnlm7wuGxUbRDDDPOuus2bWvfe2dFmdPE11vD9Hz9hA9bx/R9fYQPW8P0fP2cMEe1DMrPgx8Dj300N5rd+Xg5wpX+K+tSgx89kqmrTLoOHreHqLr7SF63h6i5+0jut4eouftIXreHq69x/Q8dEEkAQ9CCCGEEEIIa0EGPyGEEEIIIYS1YFcOfq5ylavMnvWsZzW/w9YRPW8f0fX2ED1vD9Hz9hFdbw/R8/YQPW8PV1lzPe+3MSQmXAghhBBCCCHscnblyk8IIYQQQgghjCWDnxBCCCGEEMJakMFPCCGEEEIIYS3I4CeEEEIIIYSwFuzKwc/zn//82U1vetPZVa961dmRRx45e9/73rfTIq0sJ5xwwuyud73r7FrXutbshje84ezhD3/47Iwzztjnmvvc5z6z/fbbb5+fX/mVX9nnmjPPPHP2kIc8ZHb1q1+9Sed3fud3Zt///vf3ueZtb3vb7E53ulMTPeTmN7/57MUvfvFsXfiDP/iDy+nwVre61eb3F1100ewpT3nK7HrXu97smte85uwRj3jE7Ctf+co+aUTHw6Ds17rmB/1C7Hka73jHO2YPfehDm9Ox0dmJJ564z/fExvn93//92SGHHDK72tWuNjvmmGNmn/rUp/a55utf//rs0Y9+dHNo3nWuc53Z4x//+Nm3vvWtfa758Ic/PLvXve7V1N+cMP7c5z73crL84z/+Y1N+uOZ2t7vd7A1veMNsHfR8ySWXzJ7xjGc073yNa1yjueYxj3nM7Oyzz+4tA895znP2uSZ67rbnX/zFX7ycDh/4wAfuc03seTm6bquv+fnTP/3TzWti08vpz21nX+P5u7kvvrHLeMUrXrFx5StfeePv/u7vNj72sY9tPOEJT9i4znWus/GVr3xlp0VbSY499tiNF73oRRsf/ehHN04//fSNBz/4wRuHH374xre+9a3Na37sx36s0eOXv/zlzZ/zzz9/8/vvf//7G7e97W03jjnmmI0PfehDG294wxs2rn/9628cf/zxm9d89rOf3bj61a++cdxxx218/OMf3/jLv/zLjSte8Yobb3rTmzbWgWc961kbP/IjP7KPDs8777zN73/lV35l47DDDts4+eSTNz7wgQ9s3P3ud9+4xz3usfl9dDycc889dx89n3TSSUSs3HjrW9/afB97ngZ6+P/+v/9v49WvfnWjz9e85jX7fP+c5zxn44ADDtg48cQTN/7jP/5j4yd/8ic3jjjiiI3vfve7m9c88IEP3LjDHe6w8d73vnfjne9858bNb37zjZ//+Z/f/J58OOiggzYe/ehHN3XSy1/+8o2rXe1qG//3//7fzWve/e53N7p+7nOf2+j+937v9zb233//jY985CMbe13P3/zmNxu7fOUrX7nxyU9+cuOUU07ZuNvd7rZx5zvfeZ80bnKTm2z84R/+4T42Xtbp0XO/PT/2sY9t7LXU4de//vV9rok9L0fXpY75of+23377bXzmM5/ZvCY2vZz+3Hb1NV6xy/viu27wQ0PwlKc8ZfPvH/zgBxuHHnroxgknnLCjcu2mjiOV09vf/vbNz+gs/sZv/MbceygcV7jCFTbOOeeczc9e8IIXbFz72tfe+N73vtf8/fSnP73p/Jf83M/9XFNY12XwQyPZBh0aKuB//Md/3PzsE5/4RJMPdG4gOp4Otnuzm91s49JLL23+jj0vTt2BQbcHH3zwxp/+6Z/uY9dXucpVmk4I0Ehy3/vf//7Na974xjc2nZwvfelLzd9/9Vd/tXHd6153U8/wjGc8Y+OHf/iHN/9+5CMfufGQhzxkH3mOPPLIjSc96Ukbe422jmLN+973vua6L3zhC/t0FP/8z/987j3R877MG/w87GEPm3tP7HnrbBq93+9+99vns9j04v257exr3G2X98V3ldvbxRdfPDvttNMadwu5whWu0Px9yimn7Khsu4Xzzz+/+X3ggQfu8/lLX/rS2fWvf/3ZbW9729nxxx8/+853vrP5Hbpl+figgw7a/OzYY4+dXXDBBbOPfexjm9eU+eI165QvuACx7P9DP/RDjasES8uAzeLOUuqHZfnDDz98Uz/R8fQ64SUvecnsl37plxo3CYk9L5fPfe5zs3POOWcfnRxwwAGNq0Npw7gG3eUud9m8huupo0899dTNa+5973vPrnzlK++jV1w3vvGNb2xeE93vW2dj2+i2BJcgXFt+9Ed/tHEfKt1Woudh4NqD288P//APz5785CfPvva1r21+F3veGnDB+td//dfGhbAmNr1Yf267+hoX74G++JVmu4ivfvWrsx/84Af7ZBrw9yc/+ckdk2u3cOmll86e9rSnze55z3s2nUL5b//tv81ucpObNB13fGrxOadCefWrX918T6enTed+13UNBeq73/1us0dgL0MnEJ9YGtEvf/nLs2c/+9mNb/JHP/rRRjdU2HXnBf306c/vuq5ZFx23gW/5N7/5zcZ/X2LPy0e9tOmk1BkdyZIrXelKTcNcXnPEEUdcLg2/u+51rztX96axTuC/j/3+/M//fLPvRH7913+98cdHt+95z3uaAT71zp/92Z8130fP/bC/56d/+qcbPX3mM5+Z/Y//8T9mD3rQg5rO2xWveMXY8xbx93//982eFXRfEptevD+3XX2Nb3zjG7u+L76rBj9hMdgER2f8Xe961z6fP/GJT9z8PzMCbGi+//3v3zQIN7vZzXZA0t0Hjabc/va3bwZDdMBf9apXrV1HeTv527/920b3DHQk9hz2AszgPvKRj2wCTbzgBS/Y57vjjjtun/qGDs+TnvSkZkM0G5RDP4961KP2qSfQI/UDq0HUF2Fr+Lu/+7vGM4JN8iWx6eX058IwdpXbG24szMjUkSv4++CDD94xuXYDT33qU2evf/3rZ29961tnN77xjTuvpeMOn/70p5vf6LZN537XdQ2zlevY+Wfm5Za3vGWjQ3TDMjErFPPsNjoezxe+8IXZm9/85tkv//Ivd14Xe14c9dJV9/L73HPP3ed73FaImLUMO1+nOt6BDzZ+0kkn7bPqM8/G0fXnP//55u/oeTy4K9PHKOuJ2PNyeec739mswvfV2RCbHt+f266+xvX3QF98Vw1+mAm4853vPDv55JP3Wfrj76OOOmpHZVtVmDWkoLzmNa+ZveUtb7ncsnEbp59+evObGXNAtx/5yEf2aQhskG9zm9tsXlPmi9esa74QDpWVBnSIze6///776IcGgD1B6ic6Hs+LXvSixi2FkJ1dxJ4Xh3qDRq3UCS4Q7H0obZhGF19woc6hjnYAyjWExaVzX+oVd1HcVrxmnXXvwIc9hAzu2QPRBzaOz71uWtHzeL74xS82e37KeiL2vPyVetrDO9zhDr3XxqbH9+e2q69x5b3QF9/YZRBejwhDL37xi5toLE984hOb8Hpl5Irw/3jyk5/chKd929vetk8Iye985zvN95/+9Keb8JKERPzc5z638drXvnbjh37ohzbufe97Xy404gMe8IAmvCLhDm9wgxu0hkb8nd/5nSa6yPOf//w9Hxq45Ld+67caHaNDwm0SRpLwkURjMfwkISnf8pa3NLo+6qijmh+JjsdBZBn0SbSfktjzdC688MIm9Ck/NA1/9md/1vzfKGOEuqauRacf/vCHm4hNbaGuf/RHf3Tj1FNP3XjXu961cYtb3GKf0MBEIyJc7S/8wi804Vqpz9FzHa72Sle60sb/+l//q9E9kRT3UrjaLj1ffPHFTQjxG9/4xo1tlnW2kZje8573NFGx+J5QwS95yUsa+33MYx6z+YzouVvPfPfbv/3bTQQs6ok3v/nNG3e6050ae73ooos204g9L6fuMFQ1uiGyWE1sejn9ue3sa7xil/fFd93gB4g5TuYSY5xwe8TgD+1QEbX9ECsezjzzzKZjeOCBBzaGzDkGGHx5Lgp8/vOf33jQgx7UxNWnU09n/5JLLtnnGs5ZueMd79jkCx1On7EOEAbykEMOad79Rje6UfM3HXGhg/irv/qrTahOKpWf+qmfaiqtkuh4OP/2b//W2PEZZ5yxz+ex5+nwvm11BSGBDXf9zGc+s+mAoNv73//+l9P/1772taZzeM1rXrMJnfq4xz2u6RiVcEbQ0Ucf3aRBWWFQVfOqV71q45a3vGWje0Ku/uu//uvGOuiZjvi8OttzrE477bQmfC+doKte9aobt771rTf++I//eJ9OO0TP8/VMZ5HOH50+OseEWeackrrjFnteTt0BDFKobxnE1MSml9Of2+6+xl/u4r74fvyz06tPIYQQQgghhLDV7Ko9PyGEEEIIIYQwlQx+QgghhBBCCGtBBj8hhBBCCCGEtSCDnxBCCCGEEMJakMFPCCGEEEIIYS3I4CeEEEIIIYSwFmTwE0IIIYQQQlgLMvgJIYQQQgghrAUZ/IQQQgghhBDWggx+QgghhBBCCGtBBj8hhBBCCCGEtSCDnxBCCCGEEMJsHfj/AUe8Ko5KT3ZnAAAAAElFTkSuQmCC",
      "text/plain": [
       "<Figure size 1000x400 with 1 Axes>"
      ]
     },
     "metadata": {},
     "output_type": "display_data"
    }
   ],
   "source": [
    "piano_roll = sample1_pm.get_piano_roll()\n",
    "\n",
    "plt.figure(figsize=(10, 4))\n",
    "plt.imshow(piano_roll, aspect='auto', cmap='binary')\n",
    "plt.show()"
   ]
  },
  {
   "cell_type": "markdown",
   "metadata": {},
   "source": [
    "Let's see what the data looks like for a different song - Super Mario 64"
   ]
  },
  {
   "cell_type": "code",
   "execution_count": 39,
   "metadata": {},
   "outputs": [
    {
     "name": "stdout",
     "output_type": "stream",
     "text": [
      "There are 14 tracks\n",
      "Track 1: \n",
      "Track 2: SAW WAVE\n",
      "Track 3: SYNBRASS 1\n",
      "Track 4: SYNBRASS 1\n",
      "Track 5: CHURCH ORG\n",
      "Track 6: SYN STR 1\n",
      "Track 7: POLYSYNTH\n",
      "Track 8: PICK BASS\n",
      "Track 9: OVERDRIVE\n",
      "Track 10: BOWEDGLASS\n",
      "Track 11: DRUMS\n",
      "Track 12: DISTORTION\n",
      "Track 13: +EXPLOSION\n",
      "Track 14: GS/RESET\n"
     ]
    }
   ],
   "source": [
    "midi_path = os.path.join(midi_folder, bitmidi[6])\n",
    "mario_pm = pretty_midi.PrettyMIDI(midi_path)\n",
    "mario_mido = mido.MidiFile(midi_path)\n",
    "print(f\"There are {len(mario_mido.tracks)} tracks\")\n",
    "for i, track in enumerate(mario_mido.tracks):\n",
    "    print(f\"Track {i + 1}: {track.name}\")"
   ]
  },
  {
   "cell_type": "code",
   "execution_count": 40,
   "metadata": {},
   "outputs": [
    {
     "name": "stdout",
     "output_type": "stream",
     "text": [
      "Track 0\n",
      "MetaMessage('time_signature', numerator=4, denominator=4, clocks_per_click=24, notated_32nd_notes_per_beat=8, time=0)\n",
      "MetaMessage('set_tempo', tempo=508470, time=0)\n",
      "MetaMessage('end_of_track', time=248832)\n",
      "Track 1\n",
      "MetaMessage('track_name', name='SAW WAVE', time=0)\n",
      "program_change channel=0 program=81 time=1536\n",
      "control_change channel=0 control=7 value=127 time=0\n",
      "control_change channel=0 control=91 value=127 time=608\n",
      "control_change channel=0 control=93 value=30 time=6\n",
      "control_change channel=0 control=7 value=127 time=684\n",
      "program_change channel=0 program=81 time=70\n",
      "note_on channel=0 note=66 velocity=127 time=63706\n",
      "note_off channel=0 note=66 velocity=0 time=78\n",
      "note_on channel=0 note=66 velocity=127 time=136\n",
      "note_off channel=0 note=66 velocity=0 time=286\n",
      "note_on channel=0 note=68 velocity=127 time=0\n",
      "note_off channel=0 note=68 velocity=0 time=288\n",
      "note_on channel=0 note=69 velocity=127 time=6\n",
      "note_off channel=0 note=69 velocity=0 time=176\n",
      "note_on channel=0 note=66 velocity=127 time=10\n",
      "pitchwheel channel=0 pitch=234 time=66\n",
      "pitchwheel channel=0 pitch=1287 time=16\n",
      "pitchwheel channel=0 pitch=2223 time=16\n",
      "pitchwheel channel=0 pitch=3276 time=16\n",
      "pitchwheel channel=0 pitch=4095 time=14\n",
      "pitchwheel channel=0 pitch=5031 time=16\n",
      "pitchwheel channel=0 pitch=5967 time=16\n",
      "pitchwheel channel=0 pitch=7020 time=12\n",
      "pitchwheel channel=0 pitch=7839 time=16\n",
      "pitchwheel channel=0 pitch=8191 time=16\n",
      "pitchwheel channel=0 pitch=7137 time=74\n",
      "pitchwheel channel=0 pitch=4563 time=16\n",
      "note_off channel=0 note=66 velocity=0 time=4\n",
      "pitchwheel channel=0 pitch=1053 time=12\n",
      "pitchwheel channel=0 pitch=0 time=10\n",
      "note_on channel=0 note=66 velocity=127 time=38\n",
      "note_off channel=0 note=66 velocity=0 time=576\n",
      "note_on channel=0 note=66 velocity=127 time=1178\n",
      "note_off channel=0 note=66 velocity=0 time=64\n",
      "note_on channel=0 note=66 velocity=127 time=138\n",
      "note_on channel=0 note=68 velocity=127 time=300\n",
      "note_off channel=0 note=66 velocity=0 time=12\n",
      "note_off channel=0 note=68 velocity=0 time=270\n",
      "note_on channel=0 note=67 velocity=127 time=10\n",
      "pitchwheel channel=0 pitch=468 time=16\n",
      "pitchwheel channel=0 pitch=1638 time=16\n",
      "pitchwheel channel=0 pitch=2223 time=8\n",
      "pitchwheel channel=0 pitch=2574 time=20\n",
      "pitchwheel channel=0 pitch=3159 time=26\n",
      "pitchwheel channel=0 pitch=3978 time=18\n",
      "pitchwheel channel=0 pitch=5382 time=14\n",
      "pitchwheel channel=0 pitch=6435 time=18\n",
      "pitchwheel channel=0 pitch=7020 time=14\n",
      "pitchwheel channel=0 pitch=7605 time=22\n",
      "pitchwheel channel=0 pitch=8073 time=10\n",
      "pitchwheel channel=0 pitch=8191 time=16\n",
      "pitchwheel channel=0 pitch=7488 time=224\n",
      "pitchwheel channel=0 pitch=6318 time=12\n",
      "pitchwheel channel=0 pitch=4446 time=20\n",
      "pitchwheel channel=0 pitch=2691 time=10\n",
      "pitchwheel channel=0 pitch=1638 time=18\n",
      "pitchwheel channel=0 pitch=1053 time=26\n",
      "pitchwheel channel=0 pitch=468 time=20\n",
      "pitchwheel channel=0 pitch=0 time=12\n",
      "note_on channel=0 note=66 velocity=127 time=36\n",
      "note_off channel=0 note=67 velocity=0 time=32\n",
      "note_off channel=0 note=66 velocity=0 time=870\n",
      "note_on channel=0 note=66 velocity=127 time=790\n",
      "note_off channel=0 note=66 velocity=0 time=68\n",
      "note_on channel=0 note=66 velocity=127 time=152\n",
      "note_off channel=0 note=66 velocity=0 time=218\n",
      "note_on channel=0 note=68 velocity=127 time=30\n",
      "note_on channel=0 note=69 velocity=127 time=272\n",
      "note_off channel=0 note=68 velocity=0 time=18\n",
      "note_on channel=0 note=68 velocity=127 time=170\n",
      "note_off channel=0 note=69 velocity=0 time=16\n",
      "pitchwheel channel=0 pitch=1053 time=336\n",
      "pitchwheel channel=0 pitch=2808 time=10\n",
      "pitchwheel channel=0 pitch=4212 time=16\n",
      "note_off channel=0 note=68 velocity=0 time=6\n",
      "pitchwheel channel=0 pitch=5382 time=10\n",
      "note_on channel=0 note=64 velocity=127 time=6\n",
      "pitchwheel channel=0 pitch=6201 time=12\n",
      "pitchwheel channel=0 pitch=6669 time=10\n",
      "pitchwheel channel=0 pitch=7020 time=20\n",
      "pitchwheel channel=0 pitch=7371 time=26\n",
      "pitchwheel channel=0 pitch=6786 time=104\n",
      "pitchwheel channel=0 pitch=6669 time=16\n",
      "pitchwheel channel=0 pitch=6318 time=46\n",
      "pitchwheel channel=0 pitch=5967 time=16\n",
      "pitchwheel channel=0 pitch=5148 time=16\n",
      "pitchwheel channel=0 pitch=3978 time=16\n",
      "pitchwheel channel=0 pitch=2691 time=16\n",
      "pitchwheel channel=0 pitch=1638 time=12\n",
      "pitchwheel channel=0 pitch=1053 time=16\n",
      "pitchwheel channel=0 pitch=0 time=14\n",
      "note_on channel=0 note=61 velocity=127 time=50\n",
      "note_off channel=0 note=64 velocity=0 time=30\n",
      "note_off channel=0 note=61 velocity=0 time=706\n",
      "note_on channel=0 note=69 velocity=127 time=650\n",
      "note_off channel=0 note=69 velocity=0 time=102\n",
      "note_on channel=0 note=68 velocity=127 time=102\n",
      "note_off channel=0 note=68 velocity=0 time=256\n",
      "note_on channel=0 note=66 velocity=127 time=16\n",
      "note_off channel=0 note=66 velocity=0 time=264\n",
      "note_on channel=0 note=64 velocity=127 time=28\n",
      "note_off channel=0 note=64 velocity=0 time=406\n",
      "note_on channel=0 note=64 velocity=127 time=42\n",
      "note_off channel=0 note=64 velocity=0 time=1078\n",
      "note_on channel=0 note=66 velocity=127 time=724\n",
      "note_off channel=0 note=66 velocity=0 time=82\n",
      "note_on channel=0 note=66 velocity=127 time=148\n",
      "note_off channel=0 note=66 velocity=0 time=234\n",
      "note_on channel=0 note=68 velocity=127 time=10\n",
      "note_on channel=0 note=69 velocity=127 time=304\n",
      "note_off channel=0 note=68 velocity=0 time=8\n",
      "note_on channel=0 note=68 velocity=127 time=218\n",
      "note_off channel=0 note=69 velocity=0 time=10\n",
      "note_on channel=0 note=66 velocity=127 time=246\n",
      "note_off channel=0 note=68 velocity=0 time=22\n",
      "note_off channel=0 note=66 velocity=0 time=260\n",
      "note_on channel=0 note=64 velocity=127 time=10\n",
      "note_off channel=0 note=64 velocity=0 time=146\n",
      "note_on channel=0 note=64 velocity=127 time=68\n",
      "note_off channel=0 note=64 velocity=0 time=700\n",
      "note_on channel=0 note=69 velocity=127 time=654\n",
      "note_off channel=0 note=69 velocity=0 time=144\n",
      "note_on channel=0 note=69 velocity=127 time=70\n",
      "note_on channel=0 note=71 velocity=127 time=266\n",
      "note_off channel=0 note=69 velocity=0 time=28\n",
      "note_off channel=0 note=71 velocity=0 time=218\n",
      "note_on channel=0 note=73 velocity=127 time=10\n",
      "note_on channel=0 note=71 velocity=127 time=202\n",
      "note_off channel=0 note=73 velocity=0 time=22\n",
      "note_off channel=0 note=71 velocity=0 time=274\n",
      "note_on channel=0 note=69 velocity=127 time=20\n",
      "note_on channel=0 note=66 velocity=127 time=108\n",
      "note_off channel=0 note=69 velocity=0 time=16\n",
      "note_off channel=0 note=66 velocity=0 time=312\n",
      "note_on channel=0 note=66 velocity=127 time=1346\n",
      "note_off channel=0 note=66 velocity=0 time=80\n",
      "note_on channel=0 note=66 velocity=127 time=118\n",
      "note_off channel=0 note=66 velocity=0 time=272\n",
      "note_on channel=0 note=68 velocity=127 time=0\n",
      "note_on channel=0 note=69 velocity=127 time=282\n",
      "note_off channel=0 note=68 velocity=0 time=22\n",
      "note_on channel=0 note=68 velocity=127 time=212\n",
      "note_off channel=0 note=69 velocity=0 time=26\n",
      "note_on channel=0 note=66 velocity=127 time=242\n",
      "note_off channel=0 note=68 velocity=0 time=24\n",
      "note_off channel=0 note=66 velocity=0 time=272\n",
      "note_on channel=0 note=64 velocity=127 time=28\n",
      "note_off channel=0 note=64 velocity=0 time=122\n",
      "note_on channel=0 note=64 velocity=127 time=76\n",
      "note_on channel=0 note=66 velocity=127 time=362\n",
      "note_off channel=0 note=64 velocity=0 time=28\n",
      "note_on channel=0 note=68 velocity=127 time=174\n",
      "note_off channel=0 note=66 velocity=0 time=10\n",
      "note_off channel=0 note=68 velocity=0 time=1986\n",
      "note_on channel=0 note=66 velocity=127 time=94\n",
      "note_off channel=0 note=66 velocity=0 time=86\n",
      "note_on channel=0 note=66 velocity=127 time=106\n",
      "note_off channel=0 note=66 velocity=0 time=140\n",
      "note_on channel=0 note=69 velocity=127 time=52\n",
      "note_off channel=0 note=69 velocity=0 time=376\n",
      "note_on channel=0 note=68 velocity=127 time=8\n",
      "note_off channel=0 note=68 velocity=0 time=304\n",
      "note_on channel=0 note=68 velocity=127 time=114\n",
      "note_off channel=0 note=68 velocity=0 time=358\n",
      "note_on channel=0 note=66 velocity=127 time=16\n",
      "note_off channel=0 note=66 velocity=0 time=1176\n",
      "note_on channel=0 note=68 velocity=127 time=3596\n",
      "note_off channel=0 note=68 velocity=0 time=76\n",
      "note_on channel=0 note=68 velocity=127 time=90\n",
      "note_off channel=0 note=68 velocity=0 time=374\n",
      "note_on channel=0 note=69 velocity=127 time=24\n",
      "note_on channel=0 note=68 velocity=127 time=358\n",
      "note_off channel=0 note=69 velocity=0 time=16\n",
      "note_off channel=0 note=68 velocity=0 time=400\n",
      "note_on channel=0 note=66 velocity=127 time=6\n",
      "note_off channel=0 note=66 velocity=0 time=1180\n",
      "note_on channel=0 note=66 velocity=127 time=5146\n",
      "note_off channel=0 note=66 velocity=0 time=78\n",
      "note_on channel=0 note=66 velocity=127 time=136\n",
      "note_off channel=0 note=66 velocity=0 time=286\n",
      "note_on channel=0 note=68 velocity=127 time=0\n",
      "note_off channel=0 note=68 velocity=0 time=288\n",
      "note_on channel=0 note=69 velocity=127 time=6\n",
      "note_off channel=0 note=69 velocity=0 time=176\n",
      "note_on channel=0 note=66 velocity=127 time=10\n",
      "pitchwheel channel=0 pitch=234 time=66\n",
      "pitchwheel channel=0 pitch=1287 time=16\n",
      "pitchwheel channel=0 pitch=2223 time=16\n",
      "pitchwheel channel=0 pitch=3276 time=16\n",
      "pitchwheel channel=0 pitch=4095 time=14\n",
      "pitchwheel channel=0 pitch=5031 time=16\n",
      "pitchwheel channel=0 pitch=5967 time=16\n",
      "pitchwheel channel=0 pitch=7020 time=12\n",
      "pitchwheel channel=0 pitch=7839 time=16\n",
      "pitchwheel channel=0 pitch=8191 time=16\n",
      "pitchwheel channel=0 pitch=7137 time=74\n",
      "pitchwheel channel=0 pitch=4563 time=16\n",
      "note_off channel=0 note=66 velocity=0 time=4\n",
      "pitchwheel channel=0 pitch=1053 time=12\n",
      "pitchwheel channel=0 pitch=0 time=10\n",
      "note_on channel=0 note=66 velocity=127 time=38\n",
      "note_off channel=0 note=66 velocity=0 time=576\n",
      "note_on channel=0 note=66 velocity=127 time=1178\n",
      "note_off channel=0 note=66 velocity=0 time=64\n",
      "note_on channel=0 note=66 velocity=127 time=138\n",
      "note_on channel=0 note=68 velocity=127 time=300\n",
      "note_off channel=0 note=66 velocity=0 time=12\n",
      "note_off channel=0 note=68 velocity=0 time=270\n",
      "note_on channel=0 note=67 velocity=127 time=10\n",
      "pitchwheel channel=0 pitch=468 time=16\n",
      "pitchwheel channel=0 pitch=1638 time=16\n",
      "pitchwheel channel=0 pitch=2223 time=8\n",
      "pitchwheel channel=0 pitch=2574 time=20\n",
      "pitchwheel channel=0 pitch=3159 time=26\n",
      "pitchwheel channel=0 pitch=3978 time=18\n",
      "pitchwheel channel=0 pitch=5382 time=14\n",
      "pitchwheel channel=0 pitch=6435 time=18\n",
      "pitchwheel channel=0 pitch=7020 time=14\n",
      "pitchwheel channel=0 pitch=7605 time=22\n",
      "pitchwheel channel=0 pitch=8073 time=10\n",
      "pitchwheel channel=0 pitch=8191 time=16\n",
      "pitchwheel channel=0 pitch=7488 time=224\n",
      "pitchwheel channel=0 pitch=6318 time=12\n",
      "pitchwheel channel=0 pitch=4446 time=20\n",
      "pitchwheel channel=0 pitch=2691 time=10\n",
      "pitchwheel channel=0 pitch=1638 time=18\n",
      "pitchwheel channel=0 pitch=1053 time=26\n",
      "pitchwheel channel=0 pitch=468 time=20\n",
      "pitchwheel channel=0 pitch=0 time=12\n",
      "note_on channel=0 note=66 velocity=127 time=36\n",
      "note_off channel=0 note=67 velocity=0 time=32\n",
      "note_off channel=0 note=66 velocity=0 time=870\n",
      "note_on channel=0 note=66 velocity=127 time=790\n",
      "note_off channel=0 note=66 velocity=0 time=68\n",
      "note_on channel=0 note=66 velocity=127 time=152\n",
      "note_off channel=0 note=66 velocity=0 time=218\n",
      "note_on channel=0 note=68 velocity=127 time=30\n",
      "note_on channel=0 note=69 velocity=127 time=272\n",
      "note_off channel=0 note=68 velocity=0 time=18\n",
      "note_on channel=0 note=68 velocity=127 time=170\n",
      "note_off channel=0 note=69 velocity=0 time=16\n",
      "pitchwheel channel=0 pitch=1053 time=336\n",
      "pitchwheel channel=0 pitch=2808 time=10\n",
      "pitchwheel channel=0 pitch=4212 time=16\n",
      "note_off channel=0 note=68 velocity=0 time=6\n",
      "pitchwheel channel=0 pitch=5382 time=10\n",
      "note_on channel=0 note=64 velocity=127 time=6\n",
      "pitchwheel channel=0 pitch=6201 time=12\n",
      "pitchwheel channel=0 pitch=6669 time=10\n",
      "pitchwheel channel=0 pitch=7020 time=20\n",
      "pitchwheel channel=0 pitch=7371 time=26\n",
      "pitchwheel channel=0 pitch=6786 time=104\n",
      "pitchwheel channel=0 pitch=6669 time=16\n",
      "pitchwheel channel=0 pitch=6318 time=46\n",
      "pitchwheel channel=0 pitch=5967 time=16\n",
      "pitchwheel channel=0 pitch=5148 time=16\n",
      "pitchwheel channel=0 pitch=3978 time=16\n",
      "pitchwheel channel=0 pitch=2691 time=16\n",
      "pitchwheel channel=0 pitch=1638 time=12\n",
      "pitchwheel channel=0 pitch=1053 time=16\n",
      "pitchwheel channel=0 pitch=0 time=14\n",
      "note_on channel=0 note=61 velocity=127 time=50\n",
      "note_off channel=0 note=64 velocity=0 time=30\n",
      "note_off channel=0 note=61 velocity=0 time=706\n",
      "note_on channel=0 note=69 velocity=127 time=650\n",
      "note_off channel=0 note=69 velocity=0 time=102\n",
      "note_on channel=0 note=68 velocity=127 time=102\n",
      "note_off channel=0 note=68 velocity=0 time=256\n",
      "note_on channel=0 note=66 velocity=127 time=16\n",
      "note_off channel=0 note=66 velocity=0 time=264\n",
      "note_on channel=0 note=64 velocity=127 time=28\n",
      "note_off channel=0 note=64 velocity=0 time=406\n",
      "note_on channel=0 note=64 velocity=127 time=42\n",
      "note_off channel=0 note=64 velocity=0 time=1078\n",
      "note_on channel=0 note=66 velocity=127 time=724\n",
      "note_off channel=0 note=66 velocity=0 time=82\n",
      "note_on channel=0 note=66 velocity=127 time=148\n",
      "note_off channel=0 note=66 velocity=0 time=234\n",
      "note_on channel=0 note=68 velocity=127 time=10\n",
      "note_on channel=0 note=69 velocity=127 time=304\n",
      "note_off channel=0 note=68 velocity=0 time=8\n",
      "note_on channel=0 note=68 velocity=127 time=218\n",
      "note_off channel=0 note=69 velocity=0 time=10\n",
      "note_on channel=0 note=66 velocity=127 time=246\n",
      "note_off channel=0 note=68 velocity=0 time=22\n",
      "note_off channel=0 note=66 velocity=0 time=260\n",
      "note_on channel=0 note=64 velocity=127 time=10\n",
      "note_off channel=0 note=64 velocity=0 time=146\n",
      "note_on channel=0 note=64 velocity=127 time=68\n",
      "note_off channel=0 note=64 velocity=0 time=700\n",
      "note_on channel=0 note=69 velocity=127 time=654\n",
      "note_off channel=0 note=69 velocity=0 time=144\n",
      "note_on channel=0 note=69 velocity=127 time=70\n",
      "note_on channel=0 note=71 velocity=127 time=266\n",
      "note_off channel=0 note=69 velocity=0 time=28\n",
      "note_off channel=0 note=71 velocity=0 time=218\n",
      "note_on channel=0 note=73 velocity=127 time=10\n",
      "note_on channel=0 note=71 velocity=127 time=202\n",
      "note_off channel=0 note=73 velocity=0 time=22\n",
      "note_off channel=0 note=71 velocity=0 time=274\n",
      "note_on channel=0 note=69 velocity=127 time=20\n",
      "note_on channel=0 note=66 velocity=127 time=108\n",
      "note_off channel=0 note=69 velocity=0 time=16\n",
      "note_off channel=0 note=66 velocity=0 time=312\n",
      "note_on channel=0 note=66 velocity=127 time=1346\n",
      "note_off channel=0 note=66 velocity=0 time=80\n",
      "note_on channel=0 note=66 velocity=127 time=118\n",
      "note_off channel=0 note=66 velocity=0 time=272\n",
      "note_on channel=0 note=68 velocity=127 time=0\n",
      "note_on channel=0 note=69 velocity=127 time=282\n",
      "note_off channel=0 note=68 velocity=0 time=22\n",
      "note_on channel=0 note=68 velocity=127 time=212\n",
      "note_off channel=0 note=69 velocity=0 time=26\n",
      "note_on channel=0 note=66 velocity=127 time=242\n",
      "note_off channel=0 note=68 velocity=0 time=24\n",
      "note_off channel=0 note=66 velocity=0 time=272\n",
      "note_on channel=0 note=64 velocity=127 time=28\n",
      "note_off channel=0 note=64 velocity=0 time=122\n",
      "note_on channel=0 note=64 velocity=127 time=76\n",
      "note_on channel=0 note=66 velocity=127 time=362\n",
      "note_off channel=0 note=64 velocity=0 time=28\n",
      "note_on channel=0 note=68 velocity=127 time=174\n",
      "note_off channel=0 note=66 velocity=0 time=10\n",
      "note_off channel=0 note=68 velocity=0 time=1986\n",
      "note_on channel=0 note=66 velocity=127 time=94\n",
      "note_off channel=0 note=66 velocity=0 time=86\n",
      "note_on channel=0 note=66 velocity=127 time=106\n",
      "note_off channel=0 note=66 velocity=0 time=140\n",
      "note_on channel=0 note=69 velocity=127 time=52\n",
      "note_off channel=0 note=69 velocity=0 time=376\n",
      "note_on channel=0 note=68 velocity=127 time=8\n",
      "note_off channel=0 note=68 velocity=0 time=304\n",
      "note_on channel=0 note=68 velocity=127 time=102\n",
      "note_off channel=0 note=68 velocity=0 time=370\n",
      "note_on channel=0 note=66 velocity=127 time=0\n",
      "note_off channel=0 note=66 velocity=0 time=1182\n",
      "note_on channel=0 note=68 velocity=127 time=3578\n",
      "note_off channel=0 note=68 velocity=0 time=96\n",
      "note_on channel=0 note=68 velocity=127 time=104\n",
      "note_off channel=0 note=68 velocity=0 time=362\n",
      "note_on channel=0 note=69 velocity=127 time=4\n",
      "note_on channel=0 note=68 velocity=127 time=390\n",
      "note_off channel=0 note=69 velocity=0 time=22\n",
      "note_off channel=0 note=68 velocity=0 time=382\n",
      "note_on channel=0 note=66 velocity=127 time=0\n",
      "note_off channel=0 note=66 velocity=0 time=1196\n",
      "note_on channel=0 note=68 velocity=127 time=3622\n",
      "note_off channel=0 note=68 velocity=0 time=74\n",
      "note_on channel=0 note=68 velocity=127 time=116\n",
      "note_on channel=0 note=69 velocity=127 time=358\n",
      "note_off channel=0 note=68 velocity=0 time=16\n",
      "note_on channel=0 note=68 velocity=127 time=342\n",
      "note_off channel=0 note=69 velocity=0 time=20\n",
      "note_off channel=0 note=68 velocity=0 time=368\n",
      "note_on channel=0 note=66 velocity=127 time=18\n",
      "note_on channel=0 note=68 velocity=127 time=400\n",
      "note_off channel=0 note=66 velocity=0 time=46\n",
      "note_off channel=0 note=68 velocity=0 time=322\n",
      "note_on channel=0 note=69 velocity=127 time=0\n",
      "note_on channel=0 note=68 velocity=127 time=390\n",
      "note_off channel=0 note=69 velocity=0 time=46\n",
      "note_on channel=0 note=66 velocity=127 time=354\n",
      "note_off channel=0 note=68 velocity=0 time=4\n",
      "note_off channel=0 note=66 velocity=0 time=768\n",
      "note_on channel=0 note=74 velocity=127 time=20\n",
      "note_off channel=0 note=74 velocity=0 time=354\n",
      "note_on channel=0 note=73 velocity=127 time=36\n",
      "note_off channel=0 note=73 velocity=0 time=2822\n",
      "note_on channel=0 note=69 velocity=125 time=42852\n",
      "note_off channel=0 note=69 velocity=0 time=384\n",
      "note_on channel=0 note=68 velocity=125 time=0\n",
      "note_off channel=0 note=68 velocity=0 time=1920\n",
      "note_on channel=0 note=66 velocity=111 time=0\n",
      "note_off channel=0 note=66 velocity=0 time=96\n",
      "note_on channel=0 note=66 velocity=108 time=96\n",
      "note_off channel=0 note=66 velocity=0 time=192\n",
      "note_on channel=0 note=69 velocity=120 time=0\n",
      "note_off channel=0 note=69 velocity=0 time=384\n",
      "note_on channel=0 note=68 velocity=118 time=0\n",
      "note_off channel=0 note=68 velocity=0 time=192\n",
      "note_on channel=0 note=68 velocity=127 time=214\n",
      "note_off channel=0 note=68 velocity=0 time=370\n",
      "note_on channel=0 note=66 velocity=127 time=0\n",
      "note_off channel=0 note=66 velocity=0 time=1182\n",
      "note_on channel=0 note=68 velocity=127 time=3578\n",
      "note_off channel=0 note=68 velocity=0 time=96\n",
      "note_on channel=0 note=68 velocity=127 time=104\n",
      "note_off channel=0 note=68 velocity=0 time=362\n",
      "note_on channel=0 note=69 velocity=127 time=4\n",
      "note_on channel=0 note=68 velocity=127 time=390\n",
      "note_off channel=0 note=69 velocity=0 time=22\n",
      "note_off channel=0 note=68 velocity=0 time=382\n",
      "note_on channel=0 note=66 velocity=127 time=0\n",
      "note_off channel=0 note=66 velocity=0 time=1196\n",
      "note_on channel=0 note=68 velocity=127 time=3622\n",
      "note_off channel=0 note=68 velocity=0 time=74\n",
      "note_on channel=0 note=68 velocity=127 time=116\n",
      "note_on channel=0 note=69 velocity=127 time=358\n",
      "note_off channel=0 note=68 velocity=0 time=16\n",
      "note_on channel=0 note=68 velocity=127 time=342\n",
      "note_off channel=0 note=69 velocity=0 time=20\n",
      "note_off channel=0 note=68 velocity=0 time=368\n",
      "note_on channel=0 note=66 velocity=127 time=18\n",
      "note_on channel=0 note=68 velocity=127 time=400\n",
      "note_off channel=0 note=66 velocity=0 time=46\n",
      "note_off channel=0 note=68 velocity=0 time=322\n",
      "note_on channel=0 note=69 velocity=127 time=0\n",
      "note_on channel=0 note=68 velocity=127 time=390\n",
      "note_off channel=0 note=69 velocity=0 time=46\n",
      "note_on channel=0 note=66 velocity=127 time=354\n",
      "note_off channel=0 note=68 velocity=0 time=4\n",
      "note_off channel=0 note=66 velocity=0 time=768\n",
      "note_on channel=0 note=74 velocity=127 time=20\n",
      "note_off channel=0 note=74 velocity=0 time=354\n",
      "note_on channel=0 note=73 velocity=127 time=36\n",
      "note_on channel=0 note=73 velocity=127 time=48\n",
      "note_off channel=0 note=73 velocity=1 time=48\n",
      "note_off channel=0 note=73 velocity=0 time=1442\n",
      "note_on channel=0 note=73 velocity=127 time=168\n",
      "note_off channel=0 note=73 velocity=0 time=204\n",
      "note_on channel=0 note=73 velocity=127 time=84\n",
      "note_off channel=0 note=73 velocity=0 time=130\n",
      "note_on channel=0 note=73 velocity=127 time=158\n",
      "note_off channel=0 note=73 velocity=0 time=358\n",
      "note_on channel=0 note=71 velocity=127 time=26\n",
      "note_off channel=0 note=71 velocity=0 time=322\n",
      "note_on channel=0 note=71 velocity=127 time=110\n",
      "note_off channel=0 note=71 velocity=0 time=294\n",
      "note_on channel=0 note=69 velocity=127 time=74\n",
      "note_off channel=0 note=69 velocity=0 time=1212\n",
      "note_on channel=0 note=73 velocity=127 time=502\n",
      "note_off channel=0 note=73 velocity=0 time=86\n",
      "note_on channel=0 note=73 velocity=127 time=104\n",
      "note_off channel=0 note=73 velocity=0 time=296\n",
      "note_on channel=0 note=71 velocity=127 time=10\n",
      "note_on channel=0 note=69 velocity=127 time=270\n",
      "note_off channel=0 note=71 velocity=0 time=12\n",
      "note_off channel=0 note=69 velocity=0 time=180\n",
      "note_on channel=0 note=73 velocity=127 time=8\n",
      "note_off channel=0 note=73 velocity=0 time=388\n",
      "note_on channel=0 note=71 velocity=127 time=16\n",
      "note_off channel=0 note=71 velocity=0 time=710\n",
      "note_on channel=0 note=68 velocity=127 time=970\n",
      "note_off channel=0 note=68 velocity=0 time=108\n",
      "note_on channel=0 note=68 velocity=127 time=88\n",
      "note_on channel=0 note=69 velocity=127 time=402\n",
      "note_off channel=0 note=68 velocity=0 time=16\n",
      "note_on channel=0 note=68 velocity=127 time=368\n",
      "note_off channel=0 note=69 velocity=0 time=16\n",
      "note_off channel=0 note=68 velocity=0 time=384\n",
      "note_on channel=0 note=66 velocity=127 time=0\n",
      "note_off channel=0 note=66 velocity=0 time=1610\n",
      "note_on channel=0 note=69 velocity=127 time=68\n",
      "note_off channel=0 note=69 velocity=0 time=136\n",
      "note_on channel=0 note=69 velocity=127 time=94\n",
      "note_off channel=0 note=69 velocity=0 time=220\n",
      "note_on channel=0 note=69 velocity=127 time=54\n",
      "note_off channel=0 note=69 velocity=0 time=176\n",
      "note_on channel=0 note=69 velocity=127 time=104\n",
      "note_off channel=0 note=69 velocity=0 time=124\n",
      "note_on channel=0 note=69 velocity=127 time=106\n",
      "note_on channel=0 note=71 velocity=127 time=362\n",
      "note_off channel=0 note=69 velocity=0 time=18\n",
      "note_off channel=0 note=71 velocity=0 time=1140\n",
      "note_on channel=0 note=69 velocity=127 time=550\n",
      "note_on channel=0 note=71 velocity=127 time=218\n",
      "note_off channel=0 note=69 velocity=0 time=12\n",
      "note_off channel=0 note=71 velocity=0 time=346\n",
      "note_on channel=0 note=68 velocity=127 time=22\n",
      "note_off channel=0 note=68 velocity=0 time=346\n",
      "note_on channel=0 note=71 velocity=127 time=38\n",
      "note_on channel=0 note=69 velocity=127 time=382\n",
      "note_off channel=0 note=71 velocity=0 time=38\n",
      "note_on channel=0 note=68 velocity=127 time=322\n",
      "note_off channel=0 note=69 velocity=0 time=360\n",
      "note_on channel=0 note=69 velocity=127 time=22\n",
      "note_off channel=0 note=68 velocity=0 time=22\n",
      "note_on channel=0 note=68 velocity=127 time=352\n",
      "note_off channel=0 note=69 velocity=0 time=38\n",
      "note_off channel=0 note=68 velocity=0 time=358\n",
      "note_on channel=0 note=66 velocity=127 time=20\n",
      "note_off channel=0 note=66 velocity=0 time=800\n",
      "note_on channel=0 note=69 velocity=127 time=48\n",
      "note_off channel=0 note=69 velocity=0 time=316\n",
      "note_on channel=0 note=68 velocity=127 time=0\n",
      "note_off channel=0 note=68 velocity=0 time=1144\n",
      "note_on channel=0 note=73 velocity=127 time=560\n",
      "note_off channel=0 note=73 velocity=0 time=204\n",
      "note_on channel=0 note=73 velocity=127 time=84\n",
      "note_off channel=0 note=73 velocity=0 time=130\n",
      "note_on channel=0 note=73 velocity=127 time=158\n",
      "note_off channel=0 note=73 velocity=0 time=358\n",
      "note_on channel=0 note=71 velocity=127 time=26\n",
      "note_off channel=0 note=71 velocity=0 time=322\n",
      "note_on channel=0 note=71 velocity=127 time=110\n",
      "note_off channel=0 note=71 velocity=0 time=294\n",
      "note_on channel=0 note=69 velocity=127 time=74\n",
      "note_off channel=0 note=69 velocity=0 time=1212\n",
      "note_on channel=0 note=73 velocity=127 time=502\n",
      "note_off channel=0 note=73 velocity=0 time=86\n",
      "note_on channel=0 note=73 velocity=127 time=104\n",
      "note_off channel=0 note=73 velocity=0 time=296\n",
      "note_on channel=0 note=71 velocity=127 time=10\n",
      "note_on channel=0 note=69 velocity=127 time=270\n",
      "note_off channel=0 note=71 velocity=0 time=12\n",
      "note_off channel=0 note=69 velocity=0 time=180\n",
      "note_on channel=0 note=73 velocity=127 time=8\n",
      "note_off channel=0 note=73 velocity=0 time=388\n",
      "note_on channel=0 note=71 velocity=127 time=16\n",
      "note_off channel=0 note=71 velocity=0 time=710\n",
      "note_on channel=0 note=68 velocity=127 time=970\n",
      "note_off channel=0 note=68 velocity=0 time=108\n",
      "note_on channel=0 note=68 velocity=127 time=88\n",
      "note_on channel=0 note=69 velocity=127 time=402\n",
      "note_off channel=0 note=68 velocity=0 time=16\n",
      "note_on channel=0 note=68 velocity=127 time=368\n",
      "note_off channel=0 note=69 velocity=0 time=16\n",
      "note_off channel=0 note=68 velocity=0 time=384\n",
      "note_on channel=0 note=66 velocity=127 time=0\n",
      "note_off channel=0 note=66 velocity=0 time=1610\n",
      "note_on channel=0 note=69 velocity=127 time=68\n",
      "note_off channel=0 note=69 velocity=0 time=136\n",
      "note_on channel=0 note=69 velocity=127 time=94\n",
      "note_off channel=0 note=69 velocity=0 time=220\n",
      "note_on channel=0 note=69 velocity=127 time=54\n",
      "note_off channel=0 note=69 velocity=0 time=176\n",
      "note_on channel=0 note=69 velocity=127 time=104\n",
      "note_off channel=0 note=69 velocity=0 time=124\n",
      "note_on channel=0 note=69 velocity=127 time=106\n",
      "note_on channel=0 note=71 velocity=127 time=362\n",
      "note_off channel=0 note=69 velocity=0 time=18\n",
      "note_off channel=0 note=71 velocity=0 time=1140\n",
      "note_on channel=0 note=69 velocity=127 time=550\n",
      "note_on channel=0 note=71 velocity=127 time=218\n",
      "note_off channel=0 note=69 velocity=0 time=12\n",
      "note_off channel=0 note=71 velocity=0 time=346\n",
      "note_on channel=0 note=68 velocity=127 time=22\n",
      "note_off channel=0 note=68 velocity=0 time=346\n",
      "note_on channel=0 note=71 velocity=127 time=38\n",
      "note_on channel=0 note=69 velocity=127 time=382\n",
      "note_off channel=0 note=71 velocity=0 time=38\n",
      "note_on channel=0 note=68 velocity=127 time=322\n",
      "note_off channel=0 note=69 velocity=0 time=360\n",
      "note_on channel=0 note=69 velocity=127 time=22\n",
      "note_off channel=0 note=68 velocity=0 time=22\n",
      "note_on channel=0 note=68 velocity=127 time=352\n",
      "note_off channel=0 note=69 velocity=0 time=38\n",
      "note_off channel=0 note=68 velocity=0 time=358\n",
      "note_on channel=0 note=66 velocity=127 time=20\n",
      "note_off channel=0 note=66 velocity=0 time=800\n",
      "note_on channel=0 note=69 velocity=127 time=48\n",
      "note_off channel=0 note=69 velocity=0 time=316\n",
      "note_on channel=0 note=68 velocity=127 time=0\n",
      "note_off channel=0 note=68 velocity=0 time=1144\n",
      "note_on channel=0 note=73 velocity=127 time=560\n",
      "note_off channel=0 note=73 velocity=0 time=204\n",
      "note_on channel=0 note=73 velocity=127 time=84\n",
      "note_off channel=0 note=73 velocity=0 time=130\n",
      "note_on channel=0 note=73 velocity=127 time=158\n",
      "note_off channel=0 note=73 velocity=0 time=358\n",
      "note_on channel=0 note=71 velocity=127 time=26\n",
      "note_off channel=0 note=71 velocity=0 time=322\n",
      "MetaMessage('end_of_track', time=1598)\n",
      "Track 2\n",
      "MetaMessage('track_name', name='SYNBRASS 1', time=0)\n",
      "program_change channel=1 program=62 time=1536\n",
      "control_change channel=1 control=7 value=127 time=0\n",
      "control_change channel=1 control=93 value=127 time=428\n",
      "control_change channel=1 control=91 value=127 time=364\n",
      "control_change channel=1 control=7 value=127 time=500\n",
      "program_change channel=1 program=62 time=84\n",
      "note_on channel=1 note=73 velocity=127 time=8416\n",
      "note_off channel=1 note=73 velocity=0 time=48\n",
      "note_on channel=1 note=71 velocity=127 time=48\n",
      "note_off channel=1 note=71 velocity=0 time=48\n",
      "note_on channel=1 note=73 velocity=127 time=48\n",
      "note_off channel=1 note=73 velocity=0 time=288\n",
      "note_on channel=1 note=66 velocity=127 time=96\n",
      "note_off channel=1 note=66 velocity=0 time=384\n",
      "note_on channel=1 note=74 velocity=127 time=576\n",
      "note_off channel=1 note=74 velocity=0 time=48\n",
      "note_on channel=1 note=73 velocity=127 time=48\n",
      "note_off channel=1 note=73 velocity=0 time=48\n",
      "note_on channel=1 note=74 velocity=127 time=48\n",
      "note_off channel=1 note=74 velocity=0 time=48\n",
      "note_on channel=1 note=73 velocity=127 time=144\n",
      "note_off channel=1 note=73 velocity=0 time=48\n",
      "note_on channel=1 note=71 velocity=127 time=144\n",
      "note_off channel=1 note=71 velocity=0 time=576\n",
      "note_on channel=1 note=74 velocity=127 time=384\n",
      "note_off channel=1 note=74 velocity=0 time=48\n",
      "note_on channel=1 note=73 velocity=127 time=48\n",
      "note_off channel=1 note=73 velocity=0 time=48\n",
      "note_on channel=1 note=74 velocity=127 time=48\n",
      "note_off channel=1 note=74 velocity=0 time=384\n",
      "note_on channel=1 note=66 velocity=127 time=0\n",
      "note_off channel=1 note=66 velocity=0 time=384\n",
      "note_on channel=1 note=71 velocity=127 time=576\n",
      "note_off channel=1 note=71 velocity=0 time=48\n",
      "note_on channel=1 note=69 velocity=127 time=48\n",
      "note_off channel=1 note=69 velocity=0 time=48\n",
      "note_on channel=1 note=71 velocity=127 time=48\n",
      "note_off channel=1 note=71 velocity=0 time=48\n",
      "note_on channel=1 note=69 velocity=127 time=144\n",
      "note_off channel=1 note=69 velocity=0 time=48\n",
      "note_on channel=1 note=68 velocity=127 time=144\n",
      "note_off channel=1 note=68 velocity=0 time=48\n",
      "note_on channel=1 note=71 velocity=127 time=146\n",
      "note_off channel=1 note=71 velocity=0 time=48\n",
      "note_on channel=1 note=69 velocity=127 time=142\n",
      "note_off channel=1 note=69 velocity=0 time=480\n",
      "note_on channel=1 note=73 velocity=127 time=96\n",
      "note_off channel=1 note=73 velocity=0 time=48\n",
      "note_on channel=1 note=71 velocity=127 time=48\n",
      "note_off channel=1 note=71 velocity=0 time=48\n",
      "note_on channel=1 note=73 velocity=127 time=48\n",
      "note_off channel=1 note=73 velocity=0 time=288\n",
      "note_on channel=1 note=66 velocity=127 time=96\n",
      "note_off channel=1 note=66 velocity=0 time=480\n",
      "note_on channel=1 note=74 velocity=127 time=480\n",
      "note_off channel=1 note=74 velocity=0 time=48\n",
      "note_on channel=1 note=73 velocity=127 time=48\n",
      "note_off channel=1 note=73 velocity=0 time=48\n",
      "note_on channel=1 note=74 velocity=127 time=48\n",
      "note_off channel=1 note=74 velocity=0 time=48\n",
      "note_on channel=1 note=73 velocity=127 time=144\n",
      "note_off channel=1 note=73 velocity=0 time=48\n",
      "note_on channel=1 note=71 velocity=127 time=144\n",
      "note_off channel=1 note=71 velocity=0 time=576\n",
      "note_on channel=1 note=74 velocity=127 time=384\n",
      "note_off channel=1 note=74 velocity=0 time=48\n",
      "note_on channel=1 note=73 velocity=127 time=48\n",
      "note_off channel=1 note=73 velocity=0 time=48\n",
      "note_on channel=1 note=74 velocity=127 time=48\n",
      "note_off channel=1 note=74 velocity=0 time=288\n",
      "note_on channel=1 note=66 velocity=127 time=96\n",
      "note_off channel=1 note=66 velocity=0 time=384\n",
      "note_on channel=1 note=71 velocity=127 time=576\n",
      "note_off channel=1 note=71 velocity=0 time=48\n",
      "note_on channel=1 note=69 velocity=127 time=48\n",
      "note_off channel=1 note=69 velocity=0 time=48\n",
      "note_on channel=1 note=71 velocity=127 time=48\n",
      "note_off channel=1 note=71 velocity=0 time=48\n",
      "note_on channel=1 note=69 velocity=127 time=144\n",
      "note_off channel=1 note=69 velocity=0 time=48\n",
      "note_on channel=1 note=68 velocity=127 time=144\n",
      "note_off channel=1 note=68 velocity=0 time=48\n",
      "note_on channel=1 note=71 velocity=127 time=144\n",
      "note_off channel=1 note=71 velocity=0 time=48\n",
      "note_on channel=1 note=69 velocity=127 time=144\n",
      "note_off channel=1 note=69 velocity=0 time=576\n",
      "note_on channel=1 note=73 velocity=127 time=0\n",
      "note_off channel=1 note=73 velocity=0 time=48\n",
      "note_on channel=1 note=71 velocity=127 time=48\n",
      "note_off channel=1 note=71 velocity=0 time=48\n",
      "note_on channel=1 note=73 velocity=127 time=48\n",
      "note_off channel=1 note=73 velocity=0 time=384\n",
      "note_on channel=1 note=66 velocity=127 time=0\n",
      "note_off channel=1 note=66 velocity=0 time=480\n",
      "note_on channel=1 note=74 velocity=127 time=480\n",
      "note_off channel=1 note=74 velocity=0 time=48\n",
      "note_on channel=1 note=73 velocity=127 time=48\n",
      "note_off channel=1 note=73 velocity=0 time=48\n",
      "note_on channel=1 note=74 velocity=127 time=48\n",
      "note_off channel=1 note=74 velocity=0 time=48\n",
      "note_on channel=1 note=73 velocity=127 time=144\n",
      "note_off channel=1 note=73 velocity=0 time=48\n",
      "note_on channel=1 note=71 velocity=127 time=144\n",
      "note_off channel=1 note=71 velocity=0 time=576\n",
      "note_on channel=1 note=74 velocity=127 time=384\n",
      "note_off channel=1 note=74 velocity=0 time=48\n",
      "note_on channel=1 note=73 velocity=127 time=48\n",
      "note_off channel=1 note=73 velocity=0 time=48\n",
      "note_on channel=1 note=74 velocity=127 time=48\n",
      "note_off channel=1 note=74 velocity=0 time=384\n",
      "note_on channel=1 note=66 velocity=127 time=0\n",
      "note_off channel=1 note=66 velocity=0 time=384\n",
      "note_on channel=1 note=71 velocity=127 time=576\n",
      "note_off channel=1 note=71 velocity=0 time=48\n",
      "note_on channel=1 note=69 velocity=127 time=48\n",
      "note_off channel=1 note=69 velocity=0 time=48\n",
      "note_on channel=1 note=71 velocity=127 time=48\n",
      "note_off channel=1 note=71 velocity=0 time=48\n",
      "note_on channel=1 note=69 velocity=127 time=144\n",
      "note_off channel=1 note=69 velocity=0 time=48\n",
      "note_on channel=1 note=68 velocity=127 time=144\n",
      "note_off channel=1 note=68 velocity=0 time=48\n",
      "note_on channel=1 note=71 velocity=127 time=144\n",
      "note_off channel=1 note=71 velocity=0 time=48\n",
      "note_on channel=1 note=69 velocity=127 time=144\n",
      "note_off channel=1 note=69 velocity=0 time=576\n",
      "note_on channel=1 note=73 velocity=127 time=0\n",
      "note_off channel=1 note=73 velocity=0 time=48\n",
      "note_on channel=1 note=71 velocity=127 time=48\n",
      "note_off channel=1 note=71 velocity=0 time=48\n",
      "note_on channel=1 note=73 velocity=127 time=48\n",
      "note_off channel=1 note=73 velocity=0 time=384\n",
      "note_on channel=1 note=66 velocity=127 time=0\n",
      "note_off channel=1 note=66 velocity=0 time=480\n",
      "note_on channel=1 note=74 velocity=127 time=480\n",
      "note_off channel=1 note=74 velocity=0 time=48\n",
      "note_on channel=1 note=73 velocity=127 time=48\n",
      "note_off channel=1 note=73 velocity=0 time=48\n",
      "note_on channel=1 note=74 velocity=127 time=48\n",
      "note_off channel=1 note=74 velocity=0 time=48\n",
      "note_on channel=1 note=73 velocity=127 time=144\n",
      "note_off channel=1 note=73 velocity=0 time=48\n",
      "note_on channel=1 note=71 velocity=127 time=144\n",
      "note_off channel=1 note=71 velocity=0 time=576\n",
      "note_on channel=1 note=74 velocity=127 time=384\n",
      "note_off channel=1 note=74 velocity=0 time=48\n",
      "note_on channel=1 note=73 velocity=127 time=48\n",
      "note_off channel=1 note=73 velocity=0 time=48\n",
      "note_on channel=1 note=74 velocity=127 time=48\n",
      "note_off channel=1 note=74 velocity=0 time=384\n",
      "note_on channel=1 note=66 velocity=127 time=0\n",
      "note_off channel=1 note=66 velocity=0 time=384\n",
      "note_on channel=1 note=71 velocity=127 time=576\n",
      "note_off channel=1 note=71 velocity=0 time=48\n",
      "note_on channel=1 note=69 velocity=127 time=48\n",
      "note_off channel=1 note=69 velocity=0 time=48\n",
      "note_on channel=1 note=71 velocity=127 time=48\n",
      "note_off channel=1 note=71 velocity=0 time=48\n",
      "note_on channel=1 note=69 velocity=127 time=144\n",
      "note_off channel=1 note=69 velocity=0 time=48\n",
      "note_on channel=1 note=68 velocity=127 time=144\n",
      "note_off channel=1 note=68 velocity=0 time=48\n",
      "note_on channel=1 note=71 velocity=127 time=144\n",
      "note_off channel=1 note=71 velocity=0 time=48\n",
      "note_on channel=1 note=69 velocity=127 time=144\n",
      "note_off channel=1 note=69 velocity=0 time=576\n",
      "note_on channel=1 note=68 velocity=127 time=0\n",
      "note_on channel=1 note=69 velocity=127 time=96\n",
      "note_off channel=1 note=69 velocity=0 time=48\n",
      "note_off channel=1 note=68 velocity=0 time=48\n",
      "note_on channel=1 note=71 velocity=127 time=0\n",
      "note_off channel=1 note=71 velocity=0 time=576\n",
      "note_on channel=1 note=69 velocity=127 time=0\n",
      "note_off channel=1 note=69 velocity=0 time=96\n",
      "note_on channel=1 note=71 velocity=127 time=0\n",
      "note_off channel=1 note=71 velocity=0 time=96\n",
      "note_on channel=1 note=73 velocity=127 time=0\n",
      "note_on channel=1 note=71 velocity=127 time=192\n",
      "note_off channel=1 note=73 velocity=0 time=96\n",
      "note_off channel=1 note=71 velocity=0 time=96\n",
      "note_on channel=1 note=69 velocity=127 time=0\n",
      "note_off channel=1 note=69 velocity=0 time=192\n",
      "note_on channel=1 note=68 velocity=127 time=0\n",
      "note_off channel=1 note=68 velocity=0 time=192\n",
      "note_on channel=1 note=66 velocity=127 time=0\n",
      "note_off channel=1 note=66 velocity=0 time=384\n",
      "note_on channel=1 note=74 velocity=127 time=0\n",
      "note_off channel=1 note=74 velocity=0 time=384\n",
      "note_on channel=1 note=73 velocity=127 time=16\n",
      "note_off channel=1 note=73 velocity=0 time=672\n",
      "note_on channel=1 note=73 velocity=127 time=64\n",
      "note_on channel=1 note=74 velocity=127 time=264\n",
      "note_off channel=1 note=73 velocity=0 time=20\n",
      "note_on channel=1 note=73 velocity=127 time=276\n",
      "note_off channel=1 note=74 velocity=0 time=6\n",
      "note_off channel=1 note=73 velocity=0 time=108\n",
      "note_on channel=1 note=71 velocity=127 time=4\n",
      "note_off channel=1 note=71 velocity=0 time=92\n",
      "note_on channel=1 note=73 velocity=127 time=10\n",
      "note_off channel=1 note=73 velocity=0 time=1148\n",
      "note_on channel=1 note=73 velocity=127 time=968\n",
      "note_off channel=1 note=73 velocity=0 time=64\n",
      "note_on channel=1 note=71 velocity=127 time=32\n",
      "note_off channel=1 note=71 velocity=0 time=48\n",
      "note_on channel=1 note=73 velocity=127 time=48\n",
      "note_off channel=1 note=73 velocity=0 time=288\n",
      "note_on channel=1 note=66 velocity=127 time=96\n",
      "note_off channel=1 note=66 velocity=0 time=384\n",
      "note_on channel=1 note=74 velocity=127 time=576\n",
      "note_off channel=1 note=74 velocity=0 time=48\n",
      "note_on channel=1 note=73 velocity=127 time=48\n",
      "note_off channel=1 note=73 velocity=0 time=48\n",
      "note_on channel=1 note=74 velocity=127 time=48\n",
      "note_off channel=1 note=74 velocity=0 time=48\n",
      "note_on channel=1 note=73 velocity=127 time=144\n",
      "note_off channel=1 note=73 velocity=0 time=48\n",
      "note_on channel=1 note=71 velocity=127 time=144\n",
      "note_off channel=1 note=71 velocity=0 time=576\n",
      "note_on channel=1 note=74 velocity=127 time=384\n",
      "note_off channel=1 note=74 velocity=0 time=48\n",
      "note_on channel=1 note=73 velocity=127 time=48\n",
      "note_off channel=1 note=73 velocity=0 time=48\n",
      "note_on channel=1 note=74 velocity=127 time=48\n",
      "note_off channel=1 note=74 velocity=0 time=384\n",
      "note_on channel=1 note=66 velocity=127 time=0\n",
      "note_off channel=1 note=66 velocity=0 time=384\n",
      "note_on channel=1 note=71 velocity=127 time=576\n",
      "note_off channel=1 note=71 velocity=0 time=48\n",
      "note_on channel=1 note=69 velocity=127 time=48\n",
      "note_off channel=1 note=69 velocity=0 time=48\n",
      "note_on channel=1 note=71 velocity=127 time=48\n",
      "note_off channel=1 note=71 velocity=0 time=48\n",
      "note_on channel=1 note=69 velocity=127 time=144\n",
      "note_off channel=1 note=69 velocity=0 time=48\n",
      "note_on channel=1 note=68 velocity=127 time=144\n",
      "note_off channel=1 note=68 velocity=0 time=48\n",
      "note_on channel=1 note=71 velocity=127 time=144\n",
      "note_off channel=1 note=71 velocity=0 time=48\n",
      "note_on channel=1 note=69 velocity=127 time=144\n",
      "note_off channel=1 note=69 velocity=0 time=576\n",
      "note_on channel=1 note=73 velocity=127 time=0\n",
      "note_off channel=1 note=73 velocity=0 time=48\n",
      "note_on channel=1 note=71 velocity=127 time=48\n",
      "note_off channel=1 note=71 velocity=0 time=48\n",
      "note_on channel=1 note=73 velocity=127 time=48\n",
      "note_off channel=1 note=73 velocity=0 time=384\n",
      "note_on channel=1 note=66 velocity=127 time=0\n",
      "note_off channel=1 note=66 velocity=0 time=480\n",
      "note_on channel=1 note=74 velocity=127 time=480\n",
      "note_off channel=1 note=74 velocity=0 time=48\n",
      "note_on channel=1 note=73 velocity=127 time=48\n",
      "note_off channel=1 note=73 velocity=0 time=48\n",
      "note_on channel=1 note=74 velocity=127 time=48\n",
      "note_off channel=1 note=74 velocity=0 time=48\n",
      "note_on channel=1 note=73 velocity=127 time=144\n",
      "note_off channel=1 note=73 velocity=0 time=48\n",
      "note_on channel=1 note=71 velocity=127 time=144\n",
      "note_off channel=1 note=71 velocity=0 time=576\n",
      "note_on channel=1 note=74 velocity=127 time=384\n",
      "note_off channel=1 note=74 velocity=0 time=48\n",
      "note_on channel=1 note=73 velocity=127 time=48\n",
      "note_off channel=1 note=73 velocity=0 time=48\n",
      "note_on channel=1 note=74 velocity=127 time=48\n",
      "note_off channel=1 note=74 velocity=0 time=384\n",
      "note_on channel=1 note=66 velocity=127 time=0\n",
      "note_off channel=1 note=66 velocity=0 time=384\n",
      "note_on channel=1 note=71 velocity=127 time=576\n",
      "note_off channel=1 note=71 velocity=0 time=48\n",
      "note_on channel=1 note=69 velocity=127 time=48\n",
      "note_off channel=1 note=69 velocity=0 time=48\n",
      "note_on channel=1 note=71 velocity=127 time=48\n",
      "note_off channel=1 note=71 velocity=0 time=48\n",
      "note_on channel=1 note=69 velocity=127 time=144\n",
      "note_off channel=1 note=69 velocity=0 time=48\n",
      "note_on channel=1 note=68 velocity=127 time=144\n",
      "note_off channel=1 note=68 velocity=0 time=48\n",
      "note_on channel=1 note=71 velocity=127 time=144\n",
      "note_off channel=1 note=71 velocity=0 time=48\n",
      "note_on channel=1 note=69 velocity=127 time=144\n",
      "note_off channel=1 note=69 velocity=0 time=480\n",
      "note_on channel=1 note=68 velocity=127 time=96\n",
      "note_off channel=1 note=68 velocity=0 time=48\n",
      "note_on channel=1 note=69 velocity=127 time=48\n",
      "note_off channel=1 note=69 velocity=0 time=48\n",
      "note_on channel=1 note=71 velocity=127 time=48\n",
      "note_off channel=1 note=71 velocity=0 time=576\n",
      "note_on channel=1 note=69 velocity=127 time=0\n",
      "note_off channel=1 note=69 velocity=0 time=96\n",
      "note_on channel=1 note=71 velocity=127 time=0\n",
      "note_off channel=1 note=71 velocity=0 time=96\n",
      "note_on channel=1 note=73 velocity=127 time=0\n",
      "note_off channel=1 note=73 velocity=0 time=192\n",
      "note_on channel=1 note=71 velocity=127 time=0\n",
      "note_off channel=1 note=71 velocity=0 time=192\n",
      "note_on channel=1 note=69 velocity=127 time=0\n",
      "note_off channel=1 note=69 velocity=0 time=192\n",
      "note_on channel=1 note=68 velocity=127 time=0\n",
      "note_off channel=1 note=68 velocity=0 time=192\n",
      "note_on channel=1 note=66 velocity=127 time=0\n",
      "note_off channel=1 note=66 velocity=0 time=384\n",
      "note_on channel=1 note=74 velocity=127 time=0\n",
      "note_off channel=1 note=74 velocity=0 time=384\n",
      "note_on channel=1 note=73 velocity=127 time=0\n",
      "note_off channel=1 note=73 velocity=0 time=1056\n",
      "note_on channel=1 note=73 velocity=127 time=96\n",
      "note_off channel=1 note=73 velocity=0 time=96\n",
      "note_on channel=1 note=74 velocity=127 time=0\n",
      "note_off channel=1 note=74 velocity=0 time=96\n",
      "note_on channel=1 note=73 velocity=127 time=0\n",
      "note_off channel=1 note=73 velocity=0 time=96\n",
      "note_on channel=1 note=71 velocity=127 time=0\n",
      "note_on channel=1 note=73 velocity=127 time=96\n",
      "note_off channel=1 note=71 velocity=0 time=96\n",
      "note_off channel=1 note=73 velocity=0 time=1152\n",
      "note_on channel=1 note=69 velocity=119 time=24072\n",
      "note_off channel=1 note=69 velocity=0 time=398\n",
      "note_on channel=1 note=71 velocity=118 time=10\n",
      "note_on channel=1 note=69 velocity=116 time=358\n",
      "note_off channel=1 note=71 velocity=0 time=18\n",
      "note_on channel=1 note=68 velocity=117 time=280\n",
      "note_off channel=1 note=69 velocity=0 time=12\n",
      "note_on channel=1 note=66 velocity=111 time=74\n",
      "note_off channel=1 note=68 velocity=0 time=22\n",
      "note_off channel=1 note=66 velocity=0 time=1124\n",
      "note_on channel=1 note=68 velocity=127 time=1760\n",
      "note_on channel=1 note=64 velocity=127 time=0\n",
      "note_on channel=1 note=59 velocity=127 time=0\n",
      "note_off channel=1 note=68 velocity=0 time=48\n",
      "note_off channel=1 note=64 velocity=0 time=38\n",
      "note_off channel=1 note=59 velocity=0 time=6\n",
      "note_on channel=1 note=68 velocity=127 time=100\n",
      "note_on channel=1 note=64 velocity=127 time=0\n",
      "note_on channel=1 note=59 velocity=127 time=0\n",
      "note_off channel=1 note=68 velocity=0 time=256\n",
      "note_off channel=1 note=59 velocity=0 time=2\n",
      "note_off channel=1 note=64 velocity=0 time=26\n",
      "note_on channel=1 note=68 velocity=127 time=100\n",
      "note_on channel=1 note=64 velocity=127 time=0\n",
      "note_on channel=1 note=59 velocity=127 time=0\n",
      "note_off channel=1 note=68 velocity=0 time=134\n",
      "note_off channel=1 note=59 velocity=0 time=6\n",
      "note_off channel=1 note=64 velocity=0 time=10\n",
      "note_on channel=1 note=59 velocity=127 time=42\n",
      "note_on channel=1 note=64 velocity=127 time=0\n",
      "note_on channel=1 note=68 velocity=127 time=0\n",
      "note_off channel=1 note=68 velocity=0 time=200\n",
      "note_off channel=1 note=64 velocity=0 time=4\n",
      "note_off channel=1 note=59 velocity=0 time=4\n",
      "note_on channel=1 note=59 velocity=127 time=176\n",
      "note_on channel=1 note=64 velocity=127 time=0\n",
      "note_on channel=1 note=68 velocity=127 time=0\n",
      "note_off channel=1 note=59 velocity=0 time=512\n",
      "note_off channel=1 note=64 velocity=0 time=16\n",
      "note_off channel=1 note=68 velocity=0 time=2\n",
      "note_on channel=1 note=73 velocity=127 time=1774\n",
      "note_off channel=1 note=73 velocity=0 time=64\n",
      "note_on channel=1 note=71 velocity=127 time=32\n",
      "note_off channel=1 note=71 velocity=0 time=48\n",
      "note_on channel=1 note=73 velocity=127 time=48\n",
      "note_off channel=1 note=73 velocity=0 time=288\n",
      "note_on channel=1 note=66 velocity=127 time=96\n",
      "note_off channel=1 note=66 velocity=0 time=384\n",
      "note_on channel=1 note=74 velocity=127 time=576\n",
      "note_off channel=1 note=74 velocity=0 time=48\n",
      "note_on channel=1 note=73 velocity=127 time=48\n",
      "note_off channel=1 note=73 velocity=0 time=48\n",
      "note_on channel=1 note=74 velocity=127 time=48\n",
      "note_off channel=1 note=74 velocity=0 time=48\n",
      "note_on channel=1 note=73 velocity=127 time=144\n",
      "note_off channel=1 note=73 velocity=0 time=48\n",
      "note_on channel=1 note=71 velocity=127 time=144\n",
      "note_off channel=1 note=71 velocity=0 time=576\n",
      "note_on channel=1 note=74 velocity=127 time=384\n",
      "note_off channel=1 note=74 velocity=0 time=48\n",
      "note_on channel=1 note=73 velocity=127 time=48\n",
      "note_off channel=1 note=73 velocity=0 time=48\n",
      "note_on channel=1 note=74 velocity=127 time=48\n",
      "note_off channel=1 note=74 velocity=0 time=384\n",
      "note_on channel=1 note=66 velocity=127 time=0\n",
      "note_off channel=1 note=66 velocity=0 time=384\n",
      "note_on channel=1 note=71 velocity=127 time=576\n",
      "note_off channel=1 note=71 velocity=0 time=48\n",
      "note_on channel=1 note=69 velocity=127 time=48\n",
      "note_off channel=1 note=69 velocity=0 time=48\n",
      "note_on channel=1 note=71 velocity=127 time=48\n",
      "note_off channel=1 note=71 velocity=0 time=48\n",
      "note_on channel=1 note=69 velocity=127 time=144\n",
      "note_off channel=1 note=69 velocity=0 time=48\n",
      "note_on channel=1 note=68 velocity=127 time=144\n",
      "note_off channel=1 note=68 velocity=0 time=48\n",
      "note_on channel=1 note=71 velocity=127 time=144\n",
      "note_off channel=1 note=71 velocity=0 time=48\n",
      "note_on channel=1 note=69 velocity=127 time=144\n",
      "note_off channel=1 note=69 velocity=0 time=576\n",
      "note_on channel=1 note=73 velocity=127 time=0\n",
      "note_off channel=1 note=73 velocity=0 time=48\n",
      "note_on channel=1 note=71 velocity=127 time=48\n",
      "note_off channel=1 note=71 velocity=0 time=48\n",
      "note_on channel=1 note=73 velocity=127 time=48\n",
      "note_off channel=1 note=73 velocity=0 time=384\n",
      "note_on channel=1 note=66 velocity=127 time=0\n",
      "note_off channel=1 note=66 velocity=0 time=480\n",
      "note_on channel=1 note=74 velocity=127 time=480\n",
      "note_off channel=1 note=74 velocity=0 time=48\n",
      "note_on channel=1 note=73 velocity=127 time=48\n",
      "note_off channel=1 note=73 velocity=0 time=48\n",
      "note_on channel=1 note=74 velocity=127 time=48\n",
      "note_off channel=1 note=74 velocity=0 time=48\n",
      "note_on channel=1 note=73 velocity=127 time=144\n",
      "note_off channel=1 note=73 velocity=0 time=48\n",
      "note_on channel=1 note=71 velocity=127 time=144\n",
      "note_off channel=1 note=71 velocity=0 time=576\n",
      "note_on channel=1 note=74 velocity=127 time=384\n",
      "note_off channel=1 note=74 velocity=0 time=48\n",
      "note_on channel=1 note=73 velocity=127 time=48\n",
      "note_off channel=1 note=73 velocity=0 time=48\n",
      "note_on channel=1 note=74 velocity=127 time=48\n",
      "note_off channel=1 note=74 velocity=0 time=384\n",
      "note_on channel=1 note=66 velocity=127 time=0\n",
      "note_off channel=1 note=66 velocity=0 time=384\n",
      "note_on channel=1 note=71 velocity=127 time=576\n",
      "note_off channel=1 note=71 velocity=0 time=48\n",
      "note_on channel=1 note=69 velocity=127 time=48\n",
      "note_off channel=1 note=69 velocity=0 time=48\n",
      "note_on channel=1 note=71 velocity=127 time=48\n",
      "note_off channel=1 note=71 velocity=0 time=48\n",
      "note_on channel=1 note=69 velocity=127 time=144\n",
      "note_off channel=1 note=69 velocity=0 time=48\n",
      "note_on channel=1 note=68 velocity=127 time=144\n",
      "note_off channel=1 note=68 velocity=0 time=48\n",
      "note_on channel=1 note=71 velocity=127 time=144\n",
      "note_off channel=1 note=71 velocity=0 time=48\n",
      "note_on channel=1 note=69 velocity=127 time=144\n",
      "note_off channel=1 note=69 velocity=0 time=480\n",
      "note_on channel=1 note=69 velocity=118 time=17176\n",
      "note_off channel=1 note=69 velocity=0 time=382\n",
      "note_on channel=1 note=71 velocity=118 time=0\n",
      "note_off channel=1 note=71 velocity=0 time=358\n",
      "note_on channel=1 note=69 velocity=120 time=28\n",
      "note_on channel=1 note=68 velocity=117 time=304\n",
      "note_off channel=1 note=69 velocity=0 time=16\n",
      "note_on channel=1 note=66 velocity=113 time=62\n",
      "note_off channel=1 note=68 velocity=0 time=22\n",
      "note_off channel=1 note=66 velocity=0 time=1066\n",
      "note_on channel=1 note=68 velocity=127 time=1802\n",
      "note_on channel=1 note=64 velocity=127 time=0\n",
      "note_on channel=1 note=59 velocity=127 time=0\n",
      "note_off channel=1 note=68 velocity=0 time=48\n",
      "note_off channel=1 note=64 velocity=0 time=38\n",
      "note_off channel=1 note=59 velocity=0 time=6\n",
      "note_on channel=1 note=68 velocity=127 time=100\n",
      "note_on channel=1 note=64 velocity=127 time=0\n",
      "note_on channel=1 note=59 velocity=127 time=0\n",
      "note_off channel=1 note=68 velocity=0 time=256\n",
      "note_off channel=1 note=59 velocity=0 time=2\n",
      "note_off channel=1 note=64 velocity=0 time=26\n",
      "note_on channel=1 note=68 velocity=127 time=100\n",
      "note_on channel=1 note=64 velocity=127 time=0\n",
      "note_on channel=1 note=59 velocity=127 time=0\n",
      "note_off channel=1 note=68 velocity=0 time=134\n",
      "note_off channel=1 note=59 velocity=0 time=6\n",
      "note_off channel=1 note=64 velocity=0 time=10\n",
      "note_on channel=1 note=59 velocity=127 time=42\n",
      "note_on channel=1 note=64 velocity=127 time=0\n",
      "note_on channel=1 note=68 velocity=127 time=0\n",
      "note_off channel=1 note=68 velocity=0 time=200\n",
      "note_off channel=1 note=64 velocity=0 time=4\n",
      "note_off channel=1 note=59 velocity=0 time=4\n",
      "note_on channel=1 note=59 velocity=127 time=176\n",
      "note_on channel=1 note=64 velocity=127 time=0\n",
      "note_on channel=1 note=68 velocity=127 time=0\n",
      "note_off channel=1 note=59 velocity=0 time=512\n",
      "note_off channel=1 note=64 velocity=0 time=16\n",
      "note_off channel=1 note=68 velocity=0 time=2\n",
      "note_on channel=1 note=73 velocity=127 time=1774\n",
      "note_off channel=1 note=73 velocity=0 time=64\n",
      "note_on channel=1 note=71 velocity=127 time=32\n",
      "note_off channel=1 note=71 velocity=0 time=48\n",
      "note_on channel=1 note=73 velocity=127 time=48\n",
      "note_off channel=1 note=73 velocity=0 time=288\n",
      "note_on channel=1 note=66 velocity=127 time=96\n",
      "note_off channel=1 note=66 velocity=0 time=384\n",
      "note_on channel=1 note=74 velocity=127 time=576\n",
      "note_off channel=1 note=74 velocity=0 time=48\n",
      "note_on channel=1 note=73 velocity=127 time=48\n",
      "note_off channel=1 note=73 velocity=0 time=48\n",
      "note_on channel=1 note=74 velocity=127 time=48\n",
      "note_off channel=1 note=74 velocity=0 time=48\n",
      "note_on channel=1 note=73 velocity=127 time=144\n",
      "note_off channel=1 note=73 velocity=0 time=48\n",
      "note_on channel=1 note=71 velocity=127 time=144\n",
      "note_off channel=1 note=71 velocity=0 time=576\n",
      "note_on channel=1 note=74 velocity=127 time=384\n",
      "note_off channel=1 note=74 velocity=0 time=48\n",
      "note_on channel=1 note=73 velocity=127 time=48\n",
      "note_off channel=1 note=73 velocity=0 time=48\n",
      "note_on channel=1 note=74 velocity=127 time=48\n",
      "note_off channel=1 note=74 velocity=0 time=384\n",
      "note_on channel=1 note=66 velocity=127 time=0\n",
      "note_off channel=1 note=66 velocity=0 time=384\n",
      "note_on channel=1 note=71 velocity=127 time=576\n",
      "note_off channel=1 note=71 velocity=0 time=48\n",
      "note_on channel=1 note=69 velocity=127 time=48\n",
      "note_off channel=1 note=69 velocity=0 time=48\n",
      "note_on channel=1 note=71 velocity=127 time=48\n",
      "note_off channel=1 note=71 velocity=0 time=48\n",
      "note_on channel=1 note=69 velocity=127 time=144\n",
      "note_off channel=1 note=69 velocity=0 time=48\n",
      "note_on channel=1 note=68 velocity=127 time=144\n",
      "note_off channel=1 note=68 velocity=0 time=48\n",
      "note_on channel=1 note=71 velocity=127 time=144\n",
      "note_off channel=1 note=71 velocity=0 time=48\n",
      "note_on channel=1 note=69 velocity=127 time=144\n",
      "note_off channel=1 note=69 velocity=0 time=576\n",
      "note_on channel=1 note=73 velocity=127 time=0\n",
      "note_off channel=1 note=73 velocity=0 time=48\n",
      "note_on channel=1 note=71 velocity=127 time=48\n",
      "note_off channel=1 note=71 velocity=0 time=48\n",
      "note_on channel=1 note=73 velocity=127 time=48\n",
      "note_off channel=1 note=73 velocity=0 time=384\n",
      "note_on channel=1 note=66 velocity=127 time=0\n",
      "note_off channel=1 note=66 velocity=0 time=480\n",
      "note_on channel=1 note=74 velocity=127 time=480\n",
      "note_off channel=1 note=74 velocity=0 time=48\n",
      "note_on channel=1 note=73 velocity=127 time=48\n",
      "note_off channel=1 note=73 velocity=0 time=48\n",
      "note_on channel=1 note=74 velocity=127 time=48\n",
      "note_off channel=1 note=74 velocity=0 time=48\n",
      "note_on channel=1 note=73 velocity=127 time=144\n",
      "note_off channel=1 note=73 velocity=0 time=48\n",
      "note_on channel=1 note=71 velocity=127 time=144\n",
      "note_off channel=1 note=71 velocity=0 time=576\n",
      "note_on channel=1 note=74 velocity=127 time=384\n",
      "note_off channel=1 note=74 velocity=0 time=48\n",
      "note_on channel=1 note=73 velocity=127 time=48\n",
      "note_off channel=1 note=73 velocity=0 time=48\n",
      "note_on channel=1 note=74 velocity=127 time=48\n",
      "note_off channel=1 note=74 velocity=0 time=384\n",
      "note_on channel=1 note=66 velocity=127 time=0\n",
      "note_off channel=1 note=66 velocity=0 time=384\n",
      "note_on channel=1 note=71 velocity=127 time=576\n",
      "note_off channel=1 note=71 velocity=0 time=48\n",
      "note_on channel=1 note=69 velocity=127 time=48\n",
      "note_off channel=1 note=69 velocity=0 time=48\n",
      "note_on channel=1 note=71 velocity=127 time=48\n",
      "note_off channel=1 note=71 velocity=0 time=48\n",
      "note_on channel=1 note=69 velocity=127 time=144\n",
      "note_off channel=1 note=69 velocity=0 time=48\n",
      "note_on channel=1 note=68 velocity=127 time=144\n",
      "note_off channel=1 note=68 velocity=0 time=48\n",
      "note_on channel=1 note=71 velocity=127 time=144\n",
      "note_off channel=1 note=71 velocity=0 time=48\n",
      "note_on channel=1 note=69 velocity=127 time=144\n",
      "note_off channel=1 note=69 velocity=0 time=480\n",
      "note_on channel=1 note=68 velocity=127 time=96\n",
      "note_off channel=1 note=68 velocity=0 time=48\n",
      "note_on channel=1 note=69 velocity=127 time=48\n",
      "note_off channel=1 note=69 velocity=0 time=48\n",
      "note_on channel=1 note=71 velocity=127 time=48\n",
      "note_off channel=1 note=71 velocity=0 time=576\n",
      "note_on channel=1 note=69 velocity=127 time=0\n",
      "note_off channel=1 note=69 velocity=0 time=48\n",
      "note_on channel=1 note=71 velocity=127 time=48\n",
      "note_off channel=1 note=71 velocity=0 time=48\n",
      "note_on channel=1 note=73 velocity=127 time=48\n",
      "note_off channel=1 note=73 velocity=0 time=192\n",
      "note_on channel=1 note=71 velocity=127 time=0\n",
      "note_off channel=1 note=71 velocity=0 time=192\n",
      "note_on channel=1 note=69 velocity=127 time=0\n",
      "note_off channel=1 note=69 velocity=0 time=192\n",
      "note_on channel=1 note=68 velocity=127 time=0\n",
      "note_off channel=1 note=68 velocity=0 time=192\n",
      "note_on channel=1 note=66 velocity=127 time=0\n",
      "note_off channel=1 note=66 velocity=0 time=384\n",
      "note_on channel=1 note=74 velocity=127 time=0\n",
      "note_off channel=1 note=74 velocity=0 time=384\n",
      "note_on channel=1 note=73 velocity=127 time=0\n",
      "note_off channel=1 note=73 velocity=0 time=1056\n",
      "note_on channel=1 note=73 velocity=127 time=96\n",
      "note_off channel=1 note=73 velocity=0 time=48\n",
      "note_on channel=1 note=74 velocity=127 time=48\n",
      "note_off channel=1 note=74 velocity=0 time=48\n",
      "note_on channel=1 note=73 velocity=127 time=48\n",
      "note_off channel=1 note=73 velocity=0 time=48\n",
      "note_on channel=1 note=71 velocity=127 time=48\n",
      "note_on channel=1 note=73 velocity=127 time=96\n",
      "note_off channel=1 note=71 velocity=0 time=96\n",
      "note_off channel=1 note=73 velocity=0 time=1152\n",
      "note_on channel=1 note=54 velocity=127 time=332\n",
      "note_off channel=1 note=54 velocity=0 time=2992\n",
      "note_on channel=1 note=73 velocity=127 time=25188\n",
      "note_off channel=1 note=73 velocity=0 time=64\n",
      "note_on channel=1 note=71 velocity=127 time=32\n",
      "note_off channel=1 note=71 velocity=0 time=48\n",
      "note_on channel=1 note=73 velocity=127 time=48\n",
      "note_off channel=1 note=73 velocity=0 time=288\n",
      "note_on channel=1 note=66 velocity=127 time=96\n",
      "note_off channel=1 note=66 velocity=0 time=384\n",
      "note_on channel=1 note=74 velocity=127 time=576\n",
      "note_off channel=1 note=74 velocity=0 time=48\n",
      "note_on channel=1 note=73 velocity=127 time=48\n",
      "note_off channel=1 note=73 velocity=0 time=48\n",
      "note_on channel=1 note=74 velocity=127 time=48\n",
      "note_off channel=1 note=74 velocity=0 time=48\n",
      "note_on channel=1 note=73 velocity=127 time=144\n",
      "note_off channel=1 note=73 velocity=0 time=48\n",
      "note_on channel=1 note=71 velocity=127 time=144\n",
      "note_off channel=1 note=71 velocity=0 time=576\n",
      "note_on channel=1 note=74 velocity=127 time=384\n",
      "note_off channel=1 note=74 velocity=0 time=48\n",
      "note_on channel=1 note=73 velocity=127 time=48\n",
      "note_off channel=1 note=73 velocity=0 time=48\n",
      "note_on channel=1 note=74 velocity=127 time=48\n",
      "note_off channel=1 note=74 velocity=0 time=384\n",
      "note_on channel=1 note=66 velocity=127 time=0\n",
      "note_off channel=1 note=66 velocity=0 time=384\n",
      "note_on channel=1 note=71 velocity=127 time=576\n",
      "note_off channel=1 note=71 velocity=0 time=48\n",
      "note_on channel=1 note=69 velocity=127 time=48\n",
      "note_off channel=1 note=69 velocity=0 time=48\n",
      "note_on channel=1 note=71 velocity=127 time=48\n",
      "note_off channel=1 note=71 velocity=0 time=48\n",
      "note_on channel=1 note=69 velocity=127 time=144\n",
      "note_off channel=1 note=69 velocity=0 time=48\n",
      "note_on channel=1 note=68 velocity=127 time=144\n",
      "note_off channel=1 note=68 velocity=0 time=48\n",
      "note_on channel=1 note=71 velocity=127 time=144\n",
      "note_off channel=1 note=71 velocity=0 time=48\n",
      "note_on channel=1 note=69 velocity=127 time=144\n",
      "note_off channel=1 note=69 velocity=0 time=576\n",
      "note_on channel=1 note=73 velocity=127 time=0\n",
      "note_off channel=1 note=73 velocity=0 time=48\n",
      "note_on channel=1 note=71 velocity=127 time=48\n",
      "note_off channel=1 note=71 velocity=0 time=48\n",
      "note_on channel=1 note=73 velocity=127 time=48\n",
      "note_off channel=1 note=73 velocity=0 time=384\n",
      "note_on channel=1 note=66 velocity=127 time=0\n",
      "note_off channel=1 note=66 velocity=0 time=480\n",
      "note_on channel=1 note=74 velocity=127 time=480\n",
      "note_off channel=1 note=74 velocity=0 time=48\n",
      "note_on channel=1 note=73 velocity=127 time=48\n",
      "note_off channel=1 note=73 velocity=0 time=48\n",
      "note_on channel=1 note=74 velocity=127 time=48\n",
      "note_off channel=1 note=74 velocity=0 time=48\n",
      "note_on channel=1 note=73 velocity=127 time=144\n",
      "note_off channel=1 note=73 velocity=0 time=48\n",
      "note_on channel=1 note=71 velocity=127 time=144\n",
      "note_off channel=1 note=71 velocity=0 time=576\n",
      "note_on channel=1 note=74 velocity=127 time=384\n",
      "note_off channel=1 note=74 velocity=0 time=48\n",
      "note_on channel=1 note=73 velocity=127 time=48\n",
      "note_off channel=1 note=73 velocity=0 time=48\n",
      "note_on channel=1 note=74 velocity=127 time=48\n",
      "note_off channel=1 note=74 velocity=0 time=384\n",
      "note_on channel=1 note=66 velocity=127 time=0\n",
      "note_off channel=1 note=66 velocity=0 time=384\n",
      "note_on channel=1 note=71 velocity=127 time=576\n",
      "note_off channel=1 note=71 velocity=0 time=48\n",
      "note_on channel=1 note=69 velocity=127 time=48\n",
      "note_off channel=1 note=69 velocity=0 time=48\n",
      "note_on channel=1 note=71 velocity=127 time=48\n",
      "note_off channel=1 note=71 velocity=0 time=48\n",
      "note_on channel=1 note=69 velocity=127 time=144\n",
      "note_off channel=1 note=69 velocity=0 time=48\n",
      "note_on channel=1 note=68 velocity=127 time=144\n",
      "note_off channel=1 note=68 velocity=0 time=48\n",
      "note_on channel=1 note=71 velocity=127 time=144\n",
      "note_off channel=1 note=71 velocity=0 time=48\n",
      "note_on channel=1 note=69 velocity=127 time=144\n",
      "note_off channel=1 note=69 velocity=0 time=480\n",
      "note_on channel=1 note=68 velocity=127 time=96\n",
      "note_off channel=1 note=68 velocity=0 time=48\n",
      "note_on channel=1 note=69 velocity=127 time=48\n",
      "note_off channel=1 note=69 velocity=0 time=48\n",
      "note_on channel=1 note=71 velocity=127 time=48\n",
      "note_off channel=1 note=71 velocity=0 time=576\n",
      "note_on channel=1 note=69 velocity=127 time=0\n",
      "note_off channel=1 note=69 velocity=0 time=96\n",
      "note_on channel=1 note=71 velocity=127 time=0\n",
      "note_off channel=1 note=71 velocity=0 time=96\n",
      "note_on channel=1 note=73 velocity=127 time=0\n",
      "note_off channel=1 note=73 velocity=0 time=192\n",
      "note_on channel=1 note=71 velocity=127 time=0\n",
      "note_off channel=1 note=71 velocity=0 time=192\n",
      "note_on channel=1 note=69 velocity=127 time=0\n",
      "note_off channel=1 note=69 velocity=0 time=192\n",
      "note_on channel=1 note=68 velocity=127 time=0\n",
      "note_off channel=1 note=68 velocity=0 time=192\n",
      "note_on channel=1 note=66 velocity=127 time=0\n",
      "note_off channel=1 note=66 velocity=0 time=384\n",
      "note_on channel=1 note=74 velocity=127 time=0\n",
      "note_off channel=1 note=74 velocity=0 time=384\n",
      "note_on channel=1 note=73 velocity=127 time=0\n",
      "note_off channel=1 note=73 velocity=0 time=1056\n",
      "note_on channel=1 note=73 velocity=127 time=96\n",
      "note_off channel=1 note=73 velocity=0 time=96\n",
      "note_on channel=1 note=74 velocity=127 time=0\n",
      "note_off channel=1 note=74 velocity=0 time=96\n",
      "note_on channel=1 note=73 velocity=127 time=0\n",
      "note_off channel=1 note=73 velocity=0 time=96\n",
      "note_on channel=1 note=71 velocity=127 time=0\n",
      "note_on channel=1 note=73 velocity=127 time=96\n",
      "note_off channel=1 note=71 velocity=0 time=96\n",
      "note_off channel=1 note=73 velocity=0 time=1152\n",
      "note_on channel=1 note=73 velocity=127 time=864\n",
      "note_off channel=1 note=73 velocity=0 time=64\n",
      "note_on channel=1 note=71 velocity=127 time=32\n",
      "note_off channel=1 note=71 velocity=0 time=48\n",
      "note_on channel=1 note=73 velocity=127 time=48\n",
      "note_off channel=1 note=73 velocity=0 time=288\n",
      "note_on channel=1 note=66 velocity=127 time=96\n",
      "note_off channel=1 note=66 velocity=0 time=384\n",
      "note_on channel=1 note=74 velocity=127 time=576\n",
      "note_off channel=1 note=74 velocity=0 time=48\n",
      "note_on channel=1 note=73 velocity=127 time=48\n",
      "note_off channel=1 note=73 velocity=0 time=48\n",
      "note_on channel=1 note=74 velocity=127 time=48\n",
      "note_off channel=1 note=74 velocity=0 time=48\n",
      "note_on channel=1 note=73 velocity=127 time=144\n",
      "note_off channel=1 note=73 velocity=0 time=48\n",
      "note_on channel=1 note=71 velocity=127 time=144\n",
      "note_off channel=1 note=71 velocity=0 time=576\n",
      "note_on channel=1 note=74 velocity=127 time=384\n",
      "note_off channel=1 note=74 velocity=0 time=48\n",
      "note_on channel=1 note=73 velocity=127 time=48\n",
      "note_off channel=1 note=73 velocity=0 time=48\n",
      "note_on channel=1 note=74 velocity=127 time=48\n",
      "note_off channel=1 note=74 velocity=0 time=384\n",
      "note_on channel=1 note=66 velocity=127 time=0\n",
      "note_off channel=1 note=66 velocity=0 time=384\n",
      "note_on channel=1 note=71 velocity=127 time=576\n",
      "note_off channel=1 note=71 velocity=0 time=48\n",
      "note_on channel=1 note=69 velocity=127 time=48\n",
      "note_off channel=1 note=69 velocity=0 time=48\n",
      "note_on channel=1 note=71 velocity=127 time=48\n",
      "note_off channel=1 note=71 velocity=0 time=48\n",
      "note_on channel=1 note=69 velocity=127 time=144\n",
      "note_off channel=1 note=69 velocity=0 time=48\n",
      "note_on channel=1 note=68 velocity=127 time=144\n",
      "note_off channel=1 note=68 velocity=0 time=48\n",
      "note_on channel=1 note=71 velocity=127 time=144\n",
      "note_off channel=1 note=71 velocity=0 time=48\n",
      "note_on channel=1 note=69 velocity=127 time=144\n",
      "note_off channel=1 note=69 velocity=0 time=576\n",
      "note_on channel=1 note=73 velocity=127 time=0\n",
      "note_off channel=1 note=73 velocity=0 time=48\n",
      "note_on channel=1 note=71 velocity=127 time=48\n",
      "note_off channel=1 note=71 velocity=0 time=48\n",
      "note_on channel=1 note=73 velocity=127 time=48\n",
      "note_off channel=1 note=73 velocity=0 time=384\n",
      "note_on channel=1 note=66 velocity=127 time=0\n",
      "note_off channel=1 note=66 velocity=0 time=480\n",
      "note_on channel=1 note=74 velocity=127 time=480\n",
      "note_off channel=1 note=74 velocity=0 time=48\n",
      "note_on channel=1 note=73 velocity=127 time=48\n",
      "note_off channel=1 note=73 velocity=0 time=48\n",
      "note_on channel=1 note=74 velocity=127 time=48\n",
      "note_off channel=1 note=74 velocity=0 time=48\n",
      "note_on channel=1 note=73 velocity=127 time=144\n",
      "note_off channel=1 note=73 velocity=0 time=48\n",
      "note_on channel=1 note=71 velocity=127 time=144\n",
      "note_off channel=1 note=71 velocity=0 time=576\n",
      "note_on channel=1 note=74 velocity=127 time=384\n",
      "note_off channel=1 note=74 velocity=0 time=48\n",
      "note_on channel=1 note=73 velocity=127 time=48\n",
      "note_off channel=1 note=73 velocity=0 time=48\n",
      "note_on channel=1 note=74 velocity=127 time=48\n",
      "note_off channel=1 note=74 velocity=0 time=384\n",
      "note_on channel=1 note=66 velocity=127 time=0\n",
      "note_off channel=1 note=66 velocity=0 time=384\n",
      "note_on channel=1 note=71 velocity=127 time=576\n",
      "note_off channel=1 note=71 velocity=0 time=48\n",
      "note_on channel=1 note=69 velocity=127 time=48\n",
      "note_off channel=1 note=69 velocity=0 time=48\n",
      "note_on channel=1 note=71 velocity=127 time=48\n",
      "note_off channel=1 note=71 velocity=0 time=48\n",
      "note_on channel=1 note=69 velocity=127 time=144\n",
      "note_off channel=1 note=69 velocity=0 time=48\n",
      "note_on channel=1 note=68 velocity=127 time=144\n",
      "note_off channel=1 note=68 velocity=0 time=48\n",
      "note_on channel=1 note=71 velocity=127 time=144\n",
      "note_off channel=1 note=71 velocity=0 time=48\n",
      "note_on channel=1 note=69 velocity=127 time=144\n",
      "note_off channel=1 note=69 velocity=0 time=480\n",
      "note_on channel=1 note=68 velocity=127 time=96\n",
      "note_off channel=1 note=68 velocity=0 time=48\n",
      "note_on channel=1 note=69 velocity=127 time=48\n",
      "note_off channel=1 note=69 velocity=0 time=48\n",
      "note_on channel=1 note=71 velocity=127 time=48\n",
      "note_off channel=1 note=71 velocity=0 time=576\n",
      "note_on channel=1 note=69 velocity=127 time=0\n",
      "note_off channel=1 note=69 velocity=0 time=48\n",
      "note_on channel=1 note=71 velocity=127 time=48\n",
      "note_off channel=1 note=71 velocity=0 time=48\n",
      "note_on channel=1 note=73 velocity=127 time=48\n",
      "note_off channel=1 note=73 velocity=0 time=192\n",
      "note_on channel=1 note=71 velocity=127 time=0\n",
      "note_off channel=1 note=71 velocity=0 time=192\n",
      "note_on channel=1 note=69 velocity=127 time=0\n",
      "note_off channel=1 note=69 velocity=0 time=192\n",
      "note_on channel=1 note=68 velocity=127 time=0\n",
      "note_off channel=1 note=68 velocity=0 time=192\n",
      "note_on channel=1 note=66 velocity=127 time=0\n",
      "note_off channel=1 note=66 velocity=0 time=384\n",
      "note_on channel=1 note=74 velocity=127 time=0\n",
      "note_off channel=1 note=74 velocity=0 time=384\n",
      "note_on channel=1 note=73 velocity=127 time=0\n",
      "note_off channel=1 note=73 velocity=0 time=1056\n",
      "note_on channel=1 note=73 velocity=127 time=96\n",
      "note_off channel=1 note=73 velocity=0 time=48\n",
      "note_on channel=1 note=74 velocity=127 time=48\n",
      "note_off channel=1 note=74 velocity=0 time=48\n",
      "note_on channel=1 note=73 velocity=127 time=48\n",
      "note_off channel=1 note=73 velocity=0 time=48\n",
      "note_on channel=1 note=71 velocity=127 time=48\n",
      "note_on channel=1 note=73 velocity=127 time=96\n",
      "note_off channel=1 note=71 velocity=0 time=96\n",
      "note_off channel=1 note=73 velocity=0 time=1152\n",
      "note_on channel=1 note=73 velocity=127 time=864\n",
      "note_off channel=1 note=73 velocity=0 time=64\n",
      "note_on channel=1 note=71 velocity=127 time=32\n",
      "note_off channel=1 note=71 velocity=0 time=48\n",
      "note_on channel=1 note=73 velocity=127 time=48\n",
      "note_off channel=1 note=73 velocity=0 time=288\n",
      "note_on channel=1 note=66 velocity=127 time=96\n",
      "note_off channel=1 note=66 velocity=0 time=384\n",
      "note_on channel=1 note=74 velocity=127 time=576\n",
      "note_off channel=1 note=74 velocity=0 time=48\n",
      "note_on channel=1 note=73 velocity=127 time=48\n",
      "note_off channel=1 note=73 velocity=0 time=48\n",
      "note_on channel=1 note=74 velocity=127 time=48\n",
      "note_off channel=1 note=74 velocity=0 time=48\n",
      "note_on channel=1 note=73 velocity=127 time=144\n",
      "note_off channel=1 note=73 velocity=0 time=48\n",
      "note_on channel=1 note=71 velocity=127 time=144\n",
      "note_off channel=1 note=71 velocity=0 time=576\n",
      "note_on channel=1 note=74 velocity=127 time=384\n",
      "note_off channel=1 note=74 velocity=0 time=48\n",
      "note_on channel=1 note=73 velocity=127 time=48\n",
      "note_off channel=1 note=73 velocity=0 time=48\n",
      "note_on channel=1 note=74 velocity=127 time=48\n",
      "note_off channel=1 note=74 velocity=0 time=384\n",
      "note_on channel=1 note=66 velocity=127 time=0\n",
      "note_off channel=1 note=66 velocity=0 time=384\n",
      "note_on channel=1 note=71 velocity=127 time=576\n",
      "note_off channel=1 note=71 velocity=0 time=48\n",
      "note_on channel=1 note=69 velocity=127 time=48\n",
      "note_off channel=1 note=69 velocity=0 time=48\n",
      "note_on channel=1 note=71 velocity=127 time=48\n",
      "note_off channel=1 note=71 velocity=0 time=48\n",
      "note_on channel=1 note=69 velocity=127 time=144\n",
      "note_off channel=1 note=69 velocity=0 time=48\n",
      "note_on channel=1 note=68 velocity=127 time=144\n",
      "note_off channel=1 note=68 velocity=0 time=48\n",
      "note_on channel=1 note=71 velocity=127 time=144\n",
      "note_off channel=1 note=71 velocity=0 time=48\n",
      "note_on channel=1 note=69 velocity=127 time=144\n",
      "note_off channel=1 note=69 velocity=0 time=576\n",
      "note_on channel=1 note=73 velocity=127 time=0\n",
      "note_off channel=1 note=73 velocity=0 time=48\n",
      "note_on channel=1 note=71 velocity=127 time=48\n",
      "note_off channel=1 note=71 velocity=0 time=48\n",
      "note_on channel=1 note=73 velocity=127 time=48\n",
      "note_off channel=1 note=73 velocity=0 time=384\n",
      "note_on channel=1 note=66 velocity=127 time=0\n",
      "note_off channel=1 note=66 velocity=0 time=480\n",
      "note_on channel=1 note=74 velocity=127 time=480\n",
      "note_off channel=1 note=74 velocity=0 time=48\n",
      "note_on channel=1 note=73 velocity=127 time=48\n",
      "note_off channel=1 note=73 velocity=0 time=48\n",
      "note_on channel=1 note=74 velocity=127 time=48\n",
      "note_off channel=1 note=74 velocity=0 time=48\n",
      "note_on channel=1 note=73 velocity=127 time=144\n",
      "note_off channel=1 note=73 velocity=0 time=48\n",
      "note_on channel=1 note=71 velocity=127 time=144\n",
      "note_off channel=1 note=71 velocity=0 time=576\n",
      "note_on channel=1 note=74 velocity=127 time=384\n",
      "note_off channel=1 note=74 velocity=0 time=48\n",
      "note_on channel=1 note=73 velocity=127 time=48\n",
      "note_off channel=1 note=73 velocity=0 time=48\n",
      "note_on channel=1 note=74 velocity=127 time=48\n",
      "note_off channel=1 note=74 velocity=0 time=384\n",
      "note_on channel=1 note=66 velocity=127 time=0\n",
      "note_off channel=1 note=66 velocity=0 time=384\n",
      "note_on channel=1 note=71 velocity=127 time=576\n",
      "note_off channel=1 note=71 velocity=0 time=48\n",
      "note_on channel=1 note=69 velocity=127 time=48\n",
      "note_off channel=1 note=69 velocity=0 time=48\n",
      "note_on channel=1 note=71 velocity=127 time=48\n",
      "note_off channel=1 note=71 velocity=0 time=48\n",
      "note_on channel=1 note=69 velocity=127 time=144\n",
      "note_off channel=1 note=69 velocity=0 time=48\n",
      "note_on channel=1 note=68 velocity=127 time=144\n",
      "note_off channel=1 note=68 velocity=0 time=48\n",
      "note_on channel=1 note=71 velocity=127 time=144\n",
      "note_off channel=1 note=71 velocity=0 time=48\n",
      "note_on channel=1 note=69 velocity=127 time=144\n",
      "note_off channel=1 note=69 velocity=0 time=480\n",
      "note_on channel=1 note=68 velocity=127 time=96\n",
      "note_off channel=1 note=68 velocity=0 time=48\n",
      "note_on channel=1 note=69 velocity=127 time=48\n",
      "note_off channel=1 note=69 velocity=0 time=48\n",
      "note_on channel=1 note=71 velocity=127 time=48\n",
      "note_off channel=1 note=71 velocity=0 time=576\n",
      "note_on channel=1 note=69 velocity=127 time=0\n",
      "note_off channel=1 note=69 velocity=0 time=48\n",
      "note_on channel=1 note=71 velocity=127 time=48\n",
      "note_off channel=1 note=71 velocity=0 time=48\n",
      "note_on channel=1 note=73 velocity=127 time=48\n",
      "note_off channel=1 note=73 velocity=0 time=192\n",
      "note_on channel=1 note=71 velocity=127 time=0\n",
      "note_off channel=1 note=71 velocity=0 time=192\n",
      "note_on channel=1 note=69 velocity=127 time=0\n",
      "note_off channel=1 note=69 velocity=0 time=192\n",
      "note_on channel=1 note=68 velocity=127 time=0\n",
      "note_off channel=1 note=68 velocity=0 time=192\n",
      "note_on channel=1 note=66 velocity=127 time=0\n",
      "note_off channel=1 note=66 velocity=0 time=384\n",
      "note_on channel=1 note=74 velocity=127 time=0\n",
      "note_off channel=1 note=74 velocity=0 time=384\n",
      "note_on channel=1 note=73 velocity=127 time=0\n",
      "note_off channel=1 note=73 velocity=0 time=1056\n",
      "note_on channel=1 note=73 velocity=127 time=480\n",
      "note_off channel=1 note=73 velocity=0 time=1248\n",
      "note_on channel=1 note=73 velocity=127 time=864\n",
      "note_off channel=1 note=73 velocity=0 time=64\n",
      "note_on channel=1 note=71 velocity=127 time=32\n",
      "note_off channel=1 note=71 velocity=0 time=48\n",
      "note_on channel=1 note=73 velocity=127 time=48\n",
      "note_off channel=1 note=73 velocity=0 time=288\n",
      "note_on channel=1 note=66 velocity=127 time=96\n",
      "note_off channel=1 note=66 velocity=0 time=384\n",
      "note_on channel=1 note=74 velocity=127 time=576\n",
      "note_off channel=1 note=74 velocity=0 time=48\n",
      "note_on channel=1 note=73 velocity=127 time=48\n",
      "note_off channel=1 note=73 velocity=0 time=48\n",
      "note_on channel=1 note=74 velocity=127 time=48\n",
      "note_off channel=1 note=74 velocity=0 time=48\n",
      "note_on channel=1 note=73 velocity=127 time=144\n",
      "note_off channel=1 note=73 velocity=0 time=48\n",
      "note_on channel=1 note=71 velocity=127 time=144\n",
      "note_off channel=1 note=71 velocity=0 time=576\n",
      "note_on channel=1 note=74 velocity=127 time=384\n",
      "note_off channel=1 note=74 velocity=0 time=48\n",
      "note_on channel=1 note=73 velocity=127 time=48\n",
      "note_off channel=1 note=73 velocity=0 time=48\n",
      "note_on channel=1 note=74 velocity=127 time=48\n",
      "note_off channel=1 note=74 velocity=0 time=384\n",
      "note_on channel=1 note=66 velocity=127 time=0\n",
      "note_off channel=1 note=66 velocity=0 time=384\n",
      "note_on channel=1 note=71 velocity=127 time=576\n",
      "note_off channel=1 note=71 velocity=0 time=48\n",
      "note_on channel=1 note=69 velocity=127 time=48\n",
      "note_off channel=1 note=69 velocity=0 time=48\n",
      "note_on channel=1 note=71 velocity=127 time=48\n",
      "note_off channel=1 note=71 velocity=0 time=48\n",
      "note_on channel=1 note=69 velocity=127 time=144\n",
      "note_off channel=1 note=69 velocity=0 time=48\n",
      "note_on channel=1 note=68 velocity=127 time=144\n",
      "note_off channel=1 note=68 velocity=0 time=48\n",
      "note_on channel=1 note=71 velocity=127 time=144\n",
      "note_off channel=1 note=71 velocity=0 time=48\n",
      "note_on channel=1 note=69 velocity=127 time=144\n",
      "note_off channel=1 note=69 velocity=0 time=576\n",
      "note_on channel=1 note=73 velocity=127 time=0\n",
      "note_off channel=1 note=73 velocity=0 time=48\n",
      "note_on channel=1 note=71 velocity=127 time=48\n",
      "note_off channel=1 note=71 velocity=0 time=48\n",
      "note_on channel=1 note=73 velocity=127 time=48\n",
      "note_off channel=1 note=73 velocity=0 time=384\n",
      "note_on channel=1 note=66 velocity=127 time=0\n",
      "note_off channel=1 note=66 velocity=0 time=480\n",
      "note_on channel=1 note=74 velocity=127 time=480\n",
      "note_off channel=1 note=74 velocity=0 time=48\n",
      "note_on channel=1 note=73 velocity=127 time=48\n",
      "note_off channel=1 note=73 velocity=0 time=48\n",
      "note_on channel=1 note=74 velocity=127 time=48\n",
      "note_off channel=1 note=74 velocity=0 time=48\n",
      "note_on channel=1 note=73 velocity=127 time=144\n",
      "note_off channel=1 note=73 velocity=0 time=48\n",
      "note_on channel=1 note=71 velocity=127 time=144\n",
      "note_off channel=1 note=71 velocity=0 time=576\n",
      "note_on channel=1 note=74 velocity=127 time=384\n",
      "note_off channel=1 note=74 velocity=0 time=48\n",
      "note_on channel=1 note=73 velocity=127 time=48\n",
      "note_off channel=1 note=73 velocity=0 time=48\n",
      "note_on channel=1 note=74 velocity=127 time=48\n",
      "note_off channel=1 note=74 velocity=0 time=384\n",
      "note_on channel=1 note=66 velocity=127 time=0\n",
      "note_off channel=1 note=66 velocity=0 time=384\n",
      "note_on channel=1 note=71 velocity=127 time=576\n",
      "note_off channel=1 note=71 velocity=0 time=48\n",
      "note_on channel=1 note=69 velocity=127 time=48\n",
      "note_off channel=1 note=69 velocity=0 time=48\n",
      "note_on channel=1 note=71 velocity=127 time=48\n",
      "note_off channel=1 note=71 velocity=0 time=48\n",
      "note_on channel=1 note=69 velocity=127 time=144\n",
      "note_off channel=1 note=69 velocity=0 time=48\n",
      "note_on channel=1 note=68 velocity=127 time=144\n",
      "note_off channel=1 note=68 velocity=0 time=48\n",
      "note_on channel=1 note=71 velocity=127 time=144\n",
      "note_off channel=1 note=71 velocity=0 time=48\n",
      "note_on channel=1 note=69 velocity=127 time=144\n",
      "note_off channel=1 note=69 velocity=0 time=480\n",
      "note_on channel=1 note=68 velocity=127 time=96\n",
      "note_off channel=1 note=68 velocity=0 time=48\n",
      "note_on channel=1 note=69 velocity=127 time=48\n",
      "note_off channel=1 note=69 velocity=0 time=48\n",
      "note_on channel=1 note=71 velocity=127 time=48\n",
      "note_off channel=1 note=71 velocity=0 time=576\n",
      "note_on channel=1 note=69 velocity=127 time=0\n",
      "note_off channel=1 note=69 velocity=0 time=48\n",
      "note_on channel=1 note=71 velocity=127 time=48\n",
      "note_off channel=1 note=71 velocity=0 time=48\n",
      "note_on channel=1 note=73 velocity=127 time=48\n",
      "note_off channel=1 note=73 velocity=0 time=192\n",
      "note_on channel=1 note=71 velocity=127 time=0\n",
      "note_off channel=1 note=71 velocity=0 time=192\n",
      "note_on channel=1 note=69 velocity=127 time=0\n",
      "note_off channel=1 note=69 velocity=0 time=192\n",
      "note_on channel=1 note=68 velocity=127 time=0\n",
      "note_off channel=1 note=68 velocity=0 time=192\n",
      "note_on channel=1 note=66 velocity=127 time=0\n",
      "note_off channel=1 note=66 velocity=0 time=384\n",
      "note_on channel=1 note=74 velocity=127 time=0\n",
      "note_off channel=1 note=74 velocity=0 time=384\n",
      "note_on channel=1 note=73 velocity=127 time=0\n",
      "note_off channel=1 note=73 velocity=0 time=1056\n",
      "note_on channel=1 note=73 velocity=127 time=480\n",
      "note_off channel=1 note=73 velocity=0 time=1248\n",
      "MetaMessage('end_of_track', time=1824)\n",
      "Track 3\n",
      "MetaMessage('track_name', name='SYNBRASS 1', time=0)\n",
      "program_change channel=2 program=62 time=1536\n",
      "control_change channel=2 control=7 value=127 time=0\n",
      "control_change channel=2 control=101 value=0 time=454\n",
      "control_change channel=2 control=100 value=0 time=6\n",
      "control_change channel=2 control=6 value=7 time=6\n",
      "control_change channel=2 control=91 value=127 time=334\n",
      "control_change channel=2 control=7 value=127 time=486\n",
      "program_change channel=2 program=62 time=96\n",
      "pitchwheel channel=2 pitch=0 time=1692\n",
      "note_on channel=2 note=35 velocity=127 time=10\n",
      "pitchwheel channel=2 pitch=234 time=298\n",
      "pitchwheel channel=2 pitch=819 time=16\n",
      "pitchwheel channel=2 pitch=1404 time=18\n",
      "pitchwheel channel=2 pitch=2106 time=14\n",
      "pitchwheel channel=2 pitch=3042 time=16\n",
      "pitchwheel channel=2 pitch=3393 time=12\n",
      "pitchwheel channel=2 pitch=3861 time=20\n",
      "pitchwheel channel=2 pitch=4212 time=10\n",
      "pitchwheel channel=2 pitch=4563 time=18\n",
      "pitchwheel channel=2 pitch=4797 time=14\n",
      "pitchwheel channel=2 pitch=5148 time=18\n",
      "pitchwheel channel=2 pitch=5499 time=10\n",
      "pitchwheel channel=2 pitch=5850 time=16\n",
      "pitchwheel channel=2 pitch=6084 time=12\n",
      "pitchwheel channel=2 pitch=6552 time=20\n",
      "pitchwheel channel=2 pitch=7020 time=12\n",
      "pitchwheel channel=2 pitch=7605 time=14\n",
      "pitchwheel channel=2 pitch=7956 time=18\n",
      "pitchwheel channel=2 pitch=8191 time=14\n",
      "note_off channel=2 note=35 velocity=0 time=950\n",
      "pitchwheel channel=2 pitch=0 time=6\n",
      "note_on channel=2 note=35 velocity=127 time=10\n",
      "pitchwheel channel=2 pitch=234 time=298\n",
      "pitchwheel channel=2 pitch=819 time=16\n",
      "pitchwheel channel=2 pitch=1404 time=18\n",
      "pitchwheel channel=2 pitch=2106 time=14\n",
      "pitchwheel channel=2 pitch=3042 time=16\n",
      "pitchwheel channel=2 pitch=3393 time=12\n",
      "pitchwheel channel=2 pitch=3861 time=20\n",
      "pitchwheel channel=2 pitch=4212 time=10\n",
      "pitchwheel channel=2 pitch=4563 time=18\n",
      "pitchwheel channel=2 pitch=4797 time=14\n",
      "pitchwheel channel=2 pitch=5148 time=18\n",
      "pitchwheel channel=2 pitch=5499 time=10\n",
      "pitchwheel channel=2 pitch=5850 time=16\n",
      "pitchwheel channel=2 pitch=6084 time=12\n",
      "pitchwheel channel=2 pitch=6552 time=20\n",
      "pitchwheel channel=2 pitch=7020 time=12\n",
      "pitchwheel channel=2 pitch=7605 time=14\n",
      "pitchwheel channel=2 pitch=7956 time=18\n",
      "pitchwheel channel=2 pitch=8191 time=14\n",
      "note_off channel=2 note=35 velocity=0 time=950\n",
      "pitchwheel channel=2 pitch=0 time=6\n",
      "note_on channel=2 note=35 velocity=127 time=10\n",
      "pitchwheel channel=2 pitch=234 time=298\n",
      "pitchwheel channel=2 pitch=819 time=16\n",
      "pitchwheel channel=2 pitch=1404 time=18\n",
      "pitchwheel channel=2 pitch=2106 time=14\n",
      "pitchwheel channel=2 pitch=3042 time=16\n",
      "pitchwheel channel=2 pitch=3393 time=12\n",
      "pitchwheel channel=2 pitch=3861 time=20\n",
      "pitchwheel channel=2 pitch=4212 time=10\n",
      "pitchwheel channel=2 pitch=4563 time=18\n",
      "pitchwheel channel=2 pitch=4797 time=14\n",
      "pitchwheel channel=2 pitch=5148 time=18\n",
      "pitchwheel channel=2 pitch=5499 time=10\n",
      "pitchwheel channel=2 pitch=5850 time=16\n",
      "pitchwheel channel=2 pitch=6084 time=12\n",
      "pitchwheel channel=2 pitch=6552 time=20\n",
      "pitchwheel channel=2 pitch=7020 time=12\n",
      "pitchwheel channel=2 pitch=7605 time=14\n",
      "pitchwheel channel=2 pitch=7956 time=18\n",
      "pitchwheel channel=2 pitch=8191 time=14\n",
      "note_off channel=2 note=35 velocity=0 time=950\n",
      "pitchwheel channel=2 pitch=0 time=6\n",
      "note_on channel=2 note=35 velocity=127 time=10\n",
      "pitchwheel channel=2 pitch=234 time=298\n",
      "pitchwheel channel=2 pitch=819 time=16\n",
      "pitchwheel channel=2 pitch=1404 time=18\n",
      "pitchwheel channel=2 pitch=2106 time=14\n",
      "pitchwheel channel=2 pitch=3042 time=16\n",
      "pitchwheel channel=2 pitch=3393 time=12\n",
      "pitchwheel channel=2 pitch=3861 time=20\n",
      "pitchwheel channel=2 pitch=4212 time=10\n",
      "pitchwheel channel=2 pitch=4563 time=18\n",
      "pitchwheel channel=2 pitch=4797 time=14\n",
      "pitchwheel channel=2 pitch=5148 time=18\n",
      "pitchwheel channel=2 pitch=5499 time=10\n",
      "pitchwheel channel=2 pitch=5850 time=16\n",
      "pitchwheel channel=2 pitch=6084 time=12\n",
      "pitchwheel channel=2 pitch=6552 time=20\n",
      "pitchwheel channel=2 pitch=7020 time=12\n",
      "pitchwheel channel=2 pitch=7605 time=14\n",
      "pitchwheel channel=2 pitch=7956 time=18\n",
      "pitchwheel channel=2 pitch=8191 time=14\n",
      "note_off channel=2 note=35 velocity=0 time=950\n",
      "pitchwheel channel=2 pitch=-8191 time=10756\n",
      "note_on channel=2 note=66 velocity=127 time=18\n",
      "pitchwheel channel=2 pitch=-7957 time=446\n",
      "pitchwheel channel=2 pitch=-7606 time=32\n",
      "pitchwheel channel=2 pitch=-7255 time=32\n",
      "pitchwheel channel=2 pitch=-7021 time=24\n",
      "pitchwheel channel=2 pitch=-6670 time=30\n",
      "pitchwheel channel=2 pitch=-6319 time=48\n",
      "pitchwheel channel=2 pitch=-6085 time=28\n",
      "pitchwheel channel=2 pitch=-5851 time=16\n",
      "pitchwheel channel=2 pitch=-5500 time=30\n",
      "pitchwheel channel=2 pitch=-5266 time=18\n",
      "pitchwheel channel=2 pitch=-5032 time=14\n",
      "pitchwheel channel=2 pitch=-4564 time=28\n",
      "pitchwheel channel=2 pitch=-4330 time=28\n",
      "pitchwheel channel=2 pitch=-4096 time=36\n",
      "pitchwheel channel=2 pitch=-3862 time=32\n",
      "pitchwheel channel=2 pitch=-3511 time=58\n",
      "pitchwheel channel=2 pitch=-3277 time=32\n",
      "pitchwheel channel=2 pitch=-2926 time=26\n",
      "pitchwheel channel=2 pitch=-2692 time=32\n",
      "pitchwheel channel=2 pitch=-2341 time=16\n",
      "pitchwheel channel=2 pitch=-2107 time=12\n",
      "pitchwheel channel=2 pitch=-1756 time=16\n",
      "pitchwheel channel=2 pitch=-1522 time=10\n",
      "pitchwheel channel=2 pitch=-1288 time=34\n",
      "pitchwheel channel=2 pitch=-1054 time=30\n",
      "pitchwheel channel=2 pitch=-820 time=34\n",
      "pitchwheel channel=2 pitch=-469 time=42\n",
      "pitchwheel channel=2 pitch=-235 time=16\n",
      "pitchwheel channel=2 pitch=0 time=30\n",
      "note_on channel=2 note=66 velocity=127 time=290\n",
      "note_off channel=2 note=66 velocity=0 time=14\n",
      "note_on channel=2 note=64 velocity=127 time=1148\n",
      "note_off channel=2 note=66 velocity=0 time=358\n",
      "note_off channel=2 note=64 velocity=0 time=42\n",
      "note_on channel=2 note=62 velocity=127 time=0\n",
      "note_off channel=2 note=62 velocity=0 time=1504\n",
      "note_on channel=2 note=59 velocity=127 time=22\n",
      "note_on channel=2 note=61 velocity=127 time=1002\n",
      "note_off channel=2 note=59 velocity=0 time=32\n",
      "note_on channel=2 note=62 velocity=127 time=250\n",
      "note_off channel=2 note=61 velocity=0 time=22\n",
      "note_off channel=2 note=62 velocity=0 time=208\n",
      "note_on channel=2 note=61 velocity=127 time=0\n",
      "note_off channel=2 note=61 velocity=0 time=794\n",
      "note_on channel=2 note=59 velocity=127 time=10\n",
      "note_off channel=2 note=59 velocity=0 time=664\n",
      "note_on channel=2 note=66 velocity=127 time=74\n",
      "note_on channel=2 note=64 velocity=127 time=1162\n",
      "note_off channel=2 note=66 velocity=0 time=12\n",
      "note_off channel=2 note=64 velocity=0 time=388\n",
      "note_on channel=2 note=62 velocity=127 time=0\n",
      "note_off channel=2 note=62 velocity=0 time=1504\n",
      "note_on channel=2 note=59 velocity=127 time=22\n",
      "note_on channel=2 note=61 velocity=127 time=1002\n",
      "note_off channel=2 note=59 velocity=0 time=32\n",
      "note_on channel=2 note=62 velocity=127 time=250\n",
      "note_off channel=2 note=61 velocity=0 time=22\n",
      "note_off channel=2 note=62 velocity=0 time=208\n",
      "note_on channel=2 note=61 velocity=127 time=0\n",
      "note_off channel=2 note=61 velocity=0 time=794\n",
      "note_on channel=2 note=59 velocity=127 time=10\n",
      "note_off channel=2 note=59 velocity=0 time=664\n",
      "note_on channel=2 note=61 velocity=127 time=78\n",
      "note_off channel=2 note=61 velocity=0 time=714\n",
      "note_on channel=2 note=66 velocity=127 time=60\n",
      "note_off channel=2 note=66 velocity=0 time=96\n",
      "note_on channel=2 note=64 velocity=127 time=80\n",
      "note_off channel=2 note=64 velocity=0 time=106\n",
      "note_on channel=2 note=62 velocity=127 time=96\n",
      "note_off channel=2 note=62 velocity=0 time=96\n",
      "note_on channel=2 note=59 velocity=127 time=82\n",
      "note_off channel=2 note=59 velocity=0 time=88\n",
      "note_on channel=2 note=61 velocity=127 time=120\n",
      "note_off channel=2 note=61 velocity=0 time=724\n",
      "note_on channel=2 note=66 velocity=127 time=20\n",
      "note_off channel=2 note=66 velocity=0 time=66\n",
      "note_on channel=2 note=64 velocity=127 time=132\n",
      "note_off channel=2 note=64 velocity=0 time=96\n",
      "note_on channel=2 note=62 velocity=127 time=108\n",
      "note_off channel=2 note=62 velocity=0 time=96\n",
      "note_on channel=2 note=59 velocity=127 time=94\n",
      "note_off channel=2 note=59 velocity=0 time=92\n",
      "note_on channel=2 note=61 velocity=127 time=106\n",
      "note_off channel=2 note=61 velocity=0 time=1484\n",
      "note_on channel=2 note=65 velocity=127 time=26\n",
      "note_off channel=2 note=65 velocity=0 time=1434\n",
      "program_change channel=2 program=119 time=40058\n",
      "note_on channel=2 note=76 velocity=127 time=7680\n",
      "note_off channel=2 note=76 velocity=0 time=1532\n",
      "program_change channel=2 program=119 time=27652\n",
      "note_on channel=2 note=76 velocity=127 time=7680\n",
      "note_off channel=2 note=76 velocity=0 time=1532\n",
      "program_change channel=2 program=62 time=49156\n",
      "note_on channel=2 note=66 velocity=127 time=3074\n",
      "note_off channel=2 note=66 velocity=0 time=662\n",
      "note_on channel=2 note=66 velocity=127 time=74\n",
      "note_off channel=2 note=66 velocity=0 time=272\n",
      "note_on channel=2 note=68 velocity=127 time=22\n",
      "note_off channel=2 note=68 velocity=0 time=254\n",
      "note_on channel=2 note=69 velocity=127 time=26\n",
      "note_off channel=2 note=69 velocity=0 time=182\n",
      "note_on channel=2 note=74 velocity=127 time=0\n",
      "note_off channel=2 note=74 velocity=0 time=1548\n",
      "note_on channel=2 note=71 velocity=127 time=26\n",
      "note_off channel=2 note=71 velocity=0 time=668\n",
      "note_on channel=2 note=71 velocity=127 time=94\n",
      "note_on channel=2 note=73 velocity=127 time=274\n",
      "note_off channel=2 note=71 velocity=0 time=42\n",
      "note_on channel=2 note=74 velocity=127 time=240\n",
      "note_off channel=2 note=73 velocity=0 time=4\n",
      "note_off channel=2 note=74 velocity=0 time=214\n",
      "note_on channel=2 note=73 velocity=127 time=22\n",
      "note_off channel=2 note=73 velocity=0 time=734\n",
      "note_on channel=2 note=71 velocity=127 time=24\n",
      "note_off channel=2 note=71 velocity=0 time=696\n",
      "MetaMessage('end_of_track', time=63040)\n",
      "Track 4\n",
      "MetaMessage('track_name', name='CHURCH ORG', time=0)\n",
      "program_change channel=3 program=19 time=1536\n",
      "control_change channel=3 control=7 value=127 time=0\n",
      "control_change channel=3 control=93 value=127 time=416\n",
      "control_change channel=3 control=91 value=127 time=390\n",
      "control_change channel=3 control=7 value=127 time=474\n",
      "program_change channel=3 program=19 time=108\n",
      "note_on channel=3 note=69 velocity=80 time=20116\n",
      "note_on channel=3 note=73 velocity=80 time=0\n",
      "note_on channel=3 note=66 velocity=80 time=0\n",
      "note_off channel=3 note=66 velocity=0 time=1532\n",
      "note_off channel=3 note=73 velocity=0 time=0\n",
      "note_off channel=3 note=69 velocity=0 time=0\n",
      "note_on channel=3 note=74 velocity=80 time=4\n",
      "note_on channel=3 note=69 velocity=80 time=0\n",
      "note_on channel=3 note=66 velocity=80 time=0\n",
      "note_off channel=3 note=66 velocity=0 time=1532\n",
      "note_off channel=3 note=69 velocity=0 time=0\n",
      "note_off channel=3 note=74 velocity=0 time=0\n",
      "note_on channel=3 note=74 velocity=80 time=4\n",
      "note_on channel=3 note=66 velocity=80 time=0\n",
      "note_on channel=3 note=71 velocity=80 time=0\n",
      "note_off channel=3 note=71 velocity=0 time=1532\n",
      "note_off channel=3 note=66 velocity=0 time=0\n",
      "note_off channel=3 note=74 velocity=0 time=0\n",
      "note_on channel=3 note=68 velocity=80 time=4\n",
      "note_on channel=3 note=64 velocity=80 time=0\n",
      "note_on channel=3 note=71 velocity=80 time=0\n",
      "note_off channel=3 note=71 velocity=0 time=764\n",
      "note_off channel=3 note=64 velocity=0 time=0\n",
      "note_off channel=3 note=68 velocity=0 time=0\n",
      "note_on channel=3 note=68 velocity=80 time=4\n",
      "note_on channel=3 note=71 velocity=80 time=0\n",
      "note_on channel=3 note=65 velocity=80 time=0\n",
      "note_off channel=3 note=65 velocity=0 time=764\n",
      "note_off channel=3 note=71 velocity=0 time=0\n",
      "note_off channel=3 note=68 velocity=0 time=0\n",
      "note_on channel=3 note=69 velocity=80 time=4\n",
      "note_on channel=3 note=73 velocity=80 time=0\n",
      "note_on channel=3 note=66 velocity=80 time=0\n",
      "note_off channel=3 note=66 velocity=0 time=1532\n",
      "note_off channel=3 note=73 velocity=0 time=0\n",
      "note_off channel=3 note=69 velocity=0 time=0\n",
      "note_on channel=3 note=74 velocity=80 time=4\n",
      "note_on channel=3 note=69 velocity=80 time=0\n",
      "note_on channel=3 note=66 velocity=80 time=0\n",
      "note_off channel=3 note=66 velocity=0 time=1532\n",
      "note_off channel=3 note=69 velocity=0 time=0\n",
      "note_off channel=3 note=74 velocity=0 time=0\n",
      "note_on channel=3 note=74 velocity=80 time=4\n",
      "note_on channel=3 note=66 velocity=80 time=0\n",
      "note_on channel=3 note=71 velocity=80 time=0\n",
      "note_off channel=3 note=71 velocity=0 time=1532\n",
      "note_off channel=3 note=66 velocity=0 time=0\n",
      "note_off channel=3 note=74 velocity=0 time=0\n",
      "note_on channel=3 note=68 velocity=80 time=4\n",
      "note_on channel=3 note=64 velocity=80 time=0\n",
      "note_on channel=3 note=71 velocity=80 time=0\n",
      "note_off channel=3 note=71 velocity=0 time=764\n",
      "note_off channel=3 note=64 velocity=0 time=0\n",
      "note_off channel=3 note=68 velocity=0 time=0\n",
      "note_on channel=3 note=68 velocity=80 time=4\n",
      "note_on channel=3 note=71 velocity=80 time=0\n",
      "note_on channel=3 note=65 velocity=80 time=0\n",
      "note_off channel=3 note=65 velocity=0 time=764\n",
      "note_off channel=3 note=71 velocity=0 time=0\n",
      "note_off channel=3 note=68 velocity=0 time=0\n",
      "note_on channel=3 note=73 velocity=80 time=4\n",
      "note_on channel=3 note=66 velocity=80 time=0\n",
      "note_on channel=3 note=69 velocity=80 time=0\n",
      "note_off channel=3 note=69 velocity=0 time=764\n",
      "note_off channel=3 note=66 velocity=0 time=0\n",
      "note_off channel=3 note=73 velocity=0 time=0\n",
      "note_on channel=3 note=68 velocity=80 time=4\n",
      "note_on channel=3 note=76 velocity=80 time=0\n",
      "note_on channel=3 note=71 velocity=80 time=0\n",
      "note_off channel=3 note=71 velocity=0 time=764\n",
      "note_off channel=3 note=76 velocity=0 time=0\n",
      "note_off channel=3 note=68 velocity=0 time=0\n",
      "note_on channel=3 note=76 velocity=80 time=4\n",
      "note_on channel=3 note=73 velocity=80 time=0\n",
      "note_on channel=3 note=69 velocity=80 time=0\n",
      "note_off channel=3 note=69 velocity=0 time=764\n",
      "note_off channel=3 note=73 velocity=0 time=0\n",
      "note_off channel=3 note=76 velocity=0 time=0\n",
      "note_on channel=3 note=74 velocity=80 time=4\n",
      "note_on channel=3 note=66 velocity=80 time=0\n",
      "note_on channel=3 note=69 velocity=80 time=0\n",
      "note_off channel=3 note=69 velocity=0 time=764\n",
      "note_off channel=3 note=66 velocity=0 time=0\n",
      "note_off channel=3 note=74 velocity=0 time=0\n",
      "note_on channel=3 note=66 velocity=80 time=4\n",
      "note_on channel=3 note=68 velocity=80 time=0\n",
      "note_on channel=3 note=73 velocity=80 time=0\n",
      "note_off channel=3 note=73 velocity=0 time=1532\n",
      "note_off channel=3 note=68 velocity=0 time=0\n",
      "note_off channel=3 note=66 velocity=0 time=0\n",
      "note_on channel=3 note=65 velocity=80 time=4\n",
      "note_on channel=3 note=68 velocity=80 time=0\n",
      "note_on channel=3 note=73 velocity=80 time=0\n",
      "note_off channel=3 note=73 velocity=0 time=1532\n",
      "note_off channel=3 note=68 velocity=0 time=0\n",
      "note_off channel=3 note=65 velocity=0 time=0\n",
      "note_on channel=3 note=66 velocity=80 time=138252\n",
      "note_on channel=3 note=73 velocity=80 time=0\n",
      "note_on channel=3 note=69 velocity=80 time=0\n",
      "note_off channel=3 note=69 velocity=0 time=1534\n",
      "note_off channel=3 note=73 velocity=0 time=0\n",
      "note_off channel=3 note=66 velocity=0 time=0\n",
      "note_on channel=3 note=66 velocity=80 time=2\n",
      "note_on channel=3 note=69 velocity=80 time=0\n",
      "note_on channel=3 note=74 velocity=80 time=0\n",
      "note_off channel=3 note=74 velocity=0 time=1534\n",
      "note_off channel=3 note=69 velocity=0 time=0\n",
      "note_off channel=3 note=66 velocity=0 time=0\n",
      "note_on channel=3 note=66 velocity=80 time=2\n",
      "note_on channel=3 note=74 velocity=80 time=0\n",
      "note_on channel=3 note=71 velocity=80 time=0\n",
      "note_off channel=3 note=71 velocity=0 time=1534\n",
      "note_off channel=3 note=74 velocity=0 time=0\n",
      "note_off channel=3 note=66 velocity=0 time=0\n",
      "note_on channel=3 note=68 velocity=80 time=2\n",
      "note_on channel=3 note=71 velocity=80 time=0\n",
      "note_on channel=3 note=64 velocity=80 time=0\n",
      "note_off channel=3 note=64 velocity=0 time=1534\n",
      "note_off channel=3 note=71 velocity=0 time=0\n",
      "note_off channel=3 note=68 velocity=0 time=0\n",
      "note_on channel=3 note=73 velocity=80 time=2\n",
      "note_on channel=3 note=66 velocity=80 time=0\n",
      "note_on channel=3 note=69 velocity=80 time=0\n",
      "note_off channel=3 note=69 velocity=0 time=766\n",
      "note_off channel=3 note=66 velocity=0 time=0\n",
      "note_off channel=3 note=73 velocity=0 time=0\n",
      "note_on channel=3 note=68 velocity=80 time=2\n",
      "note_on channel=3 note=76 velocity=80 time=0\n",
      "note_on channel=3 note=71 velocity=80 time=0\n",
      "note_off channel=3 note=71 velocity=0 time=766\n",
      "note_off channel=3 note=76 velocity=0 time=0\n",
      "note_off channel=3 note=68 velocity=0 time=0\n",
      "note_on channel=3 note=76 velocity=80 time=2\n",
      "note_on channel=3 note=73 velocity=80 time=0\n",
      "note_on channel=3 note=69 velocity=80 time=0\n",
      "note_off channel=3 note=69 velocity=0 time=766\n",
      "note_off channel=3 note=73 velocity=0 time=0\n",
      "note_off channel=3 note=76 velocity=0 time=0\n",
      "note_on channel=3 note=74 velocity=80 time=2\n",
      "note_on channel=3 note=66 velocity=80 time=0\n",
      "note_on channel=3 note=69 velocity=80 time=0\n",
      "note_off channel=3 note=69 velocity=0 time=766\n",
      "note_off channel=3 note=66 velocity=0 time=0\n",
      "note_off channel=3 note=74 velocity=0 time=0\n",
      "note_on channel=3 note=78 velocity=80 time=2\n",
      "note_on channel=3 note=68 velocity=80 time=0\n",
      "note_on channel=3 note=73 velocity=80 time=0\n",
      "note_off channel=3 note=73 velocity=0 time=1534\n",
      "note_off channel=3 note=68 velocity=0 time=0\n",
      "note_off channel=3 note=78 velocity=0 time=0\n",
      "note_on channel=3 note=68 velocity=80 time=2\n",
      "note_on channel=3 note=77 velocity=80 time=0\n",
      "note_on channel=3 note=73 velocity=80 time=0\n",
      "note_off channel=3 note=73 velocity=0 time=1534\n",
      "note_off channel=3 note=77 velocity=0 time=0\n",
      "note_off channel=3 note=68 velocity=0 time=0\n",
      "MetaMessage('end_of_track', time=56826)\n",
      "Track 5\n",
      "MetaMessage('track_name', name='SYN STR 1', time=0)\n",
      "program_change channel=4 program=50 time=1536\n",
      "control_change channel=4 control=7 value=127 time=0\n",
      "control_change channel=4 control=99 value=1 time=390\n",
      "control_change channel=4 control=98 value=99 time=6\n",
      "control_change channel=4 control=6 value=50 time=6\n",
      "control_change channel=4 control=93 value=127 time=6\n",
      "control_change channel=4 control=99 value=1 time=64\n",
      "control_change channel=4 control=98 value=32 time=8\n",
      "control_change channel=4 control=6 value=50 time=6\n",
      "control_change channel=4 control=91 value=127 time=326\n",
      "control_change channel=4 control=7 value=127 time=454\n",
      "program_change channel=4 program=50 time=128\n",
      "note_on channel=4 note=69 velocity=100 time=7822\n",
      "note_on channel=4 note=73 velocity=100 time=0\n",
      "note_on channel=4 note=66 velocity=100 time=0\n",
      "note_off channel=4 note=66 velocity=0 time=1532\n",
      "note_off channel=4 note=73 velocity=0 time=0\n",
      "note_off channel=4 note=69 velocity=0 time=0\n",
      "note_on channel=4 note=74 velocity=100 time=4\n",
      "note_on channel=4 note=69 velocity=100 time=0\n",
      "note_on channel=4 note=66 velocity=100 time=0\n",
      "note_off channel=4 note=66 velocity=0 time=1532\n",
      "note_off channel=4 note=69 velocity=0 time=0\n",
      "note_off channel=4 note=74 velocity=0 time=0\n",
      "note_on channel=4 note=74 velocity=100 time=4\n",
      "note_on channel=4 note=66 velocity=100 time=0\n",
      "note_on channel=4 note=71 velocity=100 time=0\n",
      "note_off channel=4 note=71 velocity=0 time=1532\n",
      "note_off channel=4 note=66 velocity=0 time=0\n",
      "note_off channel=4 note=74 velocity=0 time=0\n",
      "note_on channel=4 note=68 velocity=100 time=4\n",
      "note_on channel=4 note=64 velocity=100 time=0\n",
      "note_on channel=4 note=71 velocity=100 time=0\n",
      "note_off channel=4 note=71 velocity=0 time=764\n",
      "note_off channel=4 note=64 velocity=0 time=0\n",
      "note_off channel=4 note=68 velocity=0 time=0\n",
      "note_on channel=4 note=68 velocity=100 time=4\n",
      "note_on channel=4 note=71 velocity=100 time=0\n",
      "note_on channel=4 note=65 velocity=100 time=0\n",
      "note_off channel=4 note=65 velocity=0 time=764\n",
      "note_off channel=4 note=71 velocity=0 time=0\n",
      "note_off channel=4 note=68 velocity=0 time=0\n",
      "note_on channel=4 note=69 velocity=100 time=4\n",
      "note_on channel=4 note=73 velocity=100 time=0\n",
      "note_on channel=4 note=66 velocity=100 time=0\n",
      "note_off channel=4 note=66 velocity=0 time=1532\n",
      "note_off channel=4 note=73 velocity=0 time=0\n",
      "note_off channel=4 note=69 velocity=0 time=0\n",
      "note_on channel=4 note=74 velocity=100 time=4\n",
      "note_on channel=4 note=69 velocity=100 time=0\n",
      "note_on channel=4 note=66 velocity=100 time=0\n",
      "note_off channel=4 note=66 velocity=0 time=1532\n",
      "note_off channel=4 note=69 velocity=0 time=0\n",
      "note_off channel=4 note=74 velocity=0 time=0\n",
      "note_on channel=4 note=74 velocity=100 time=4\n",
      "note_on channel=4 note=66 velocity=100 time=0\n",
      "note_on channel=4 note=71 velocity=100 time=0\n",
      "note_off channel=4 note=71 velocity=0 time=1532\n",
      "note_off channel=4 note=66 velocity=0 time=0\n",
      "note_off channel=4 note=74 velocity=0 time=0\n",
      "note_on channel=4 note=68 velocity=100 time=4\n",
      "note_on channel=4 note=64 velocity=100 time=0\n",
      "note_on channel=4 note=71 velocity=100 time=0\n",
      "note_off channel=4 note=71 velocity=0 time=764\n",
      "note_off channel=4 note=64 velocity=0 time=0\n",
      "note_off channel=4 note=68 velocity=0 time=0\n",
      "note_on channel=4 note=68 velocity=100 time=4\n",
      "note_on channel=4 note=71 velocity=100 time=0\n",
      "note_on channel=4 note=65 velocity=100 time=0\n",
      "note_off channel=4 note=65 velocity=0 time=764\n",
      "note_off channel=4 note=71 velocity=0 time=0\n",
      "note_off channel=4 note=68 velocity=0 time=0\n",
      "note_on channel=4 note=69 velocity=100 time=4\n",
      "note_on channel=4 note=73 velocity=100 time=0\n",
      "note_on channel=4 note=66 velocity=100 time=0\n",
      "note_off channel=4 note=66 velocity=0 time=1532\n",
      "note_off channel=4 note=73 velocity=0 time=0\n",
      "note_off channel=4 note=69 velocity=0 time=0\n",
      "note_on channel=4 note=74 velocity=100 time=4\n",
      "note_on channel=4 note=69 velocity=100 time=0\n",
      "note_on channel=4 note=66 velocity=100 time=0\n",
      "note_off channel=4 note=66 velocity=0 time=1532\n",
      "note_off channel=4 note=69 velocity=0 time=0\n",
      "note_off channel=4 note=74 velocity=0 time=0\n",
      "note_on channel=4 note=74 velocity=100 time=4\n",
      "note_on channel=4 note=66 velocity=100 time=0\n",
      "note_on channel=4 note=71 velocity=100 time=0\n",
      "note_off channel=4 note=71 velocity=0 time=1532\n",
      "note_off channel=4 note=66 velocity=0 time=0\n",
      "note_off channel=4 note=74 velocity=0 time=0\n",
      "note_on channel=4 note=68 velocity=100 time=4\n",
      "note_on channel=4 note=64 velocity=100 time=0\n",
      "note_on channel=4 note=71 velocity=100 time=0\n",
      "note_off channel=4 note=71 velocity=0 time=764\n",
      "note_off channel=4 note=64 velocity=0 time=0\n",
      "note_off channel=4 note=68 velocity=0 time=0\n",
      "note_on channel=4 note=68 velocity=100 time=4\n",
      "note_on channel=4 note=71 velocity=100 time=0\n",
      "note_on channel=4 note=65 velocity=100 time=0\n",
      "note_off channel=4 note=65 velocity=0 time=764\n",
      "note_off channel=4 note=71 velocity=0 time=0\n",
      "note_off channel=4 note=68 velocity=0 time=0\n",
      "note_on channel=4 note=69 velocity=100 time=4\n",
      "note_on channel=4 note=73 velocity=100 time=0\n",
      "note_on channel=4 note=66 velocity=100 time=0\n",
      "note_off channel=4 note=66 velocity=0 time=1532\n",
      "note_off channel=4 note=73 velocity=0 time=0\n",
      "note_off channel=4 note=69 velocity=0 time=0\n",
      "note_on channel=4 note=74 velocity=100 time=4\n",
      "note_on channel=4 note=69 velocity=100 time=0\n",
      "note_on channel=4 note=66 velocity=100 time=0\n",
      "note_off channel=4 note=66 velocity=0 time=1532\n",
      "note_off channel=4 note=69 velocity=0 time=0\n",
      "note_off channel=4 note=74 velocity=0 time=0\n",
      "note_on channel=4 note=74 velocity=100 time=4\n",
      "note_on channel=4 note=66 velocity=100 time=0\n",
      "note_on channel=4 note=71 velocity=100 time=0\n",
      "note_off channel=4 note=71 velocity=0 time=1532\n",
      "note_off channel=4 note=66 velocity=0 time=0\n",
      "note_off channel=4 note=74 velocity=0 time=0\n",
      "note_on channel=4 note=68 velocity=100 time=4\n",
      "note_on channel=4 note=64 velocity=100 time=0\n",
      "note_on channel=4 note=71 velocity=100 time=0\n",
      "note_off channel=4 note=71 velocity=0 time=764\n",
      "note_off channel=4 note=64 velocity=0 time=0\n",
      "note_off channel=4 note=68 velocity=0 time=0\n",
      "note_on channel=4 note=68 velocity=100 time=4\n",
      "note_on channel=4 note=71 velocity=100 time=0\n",
      "note_on channel=4 note=65 velocity=100 time=0\n",
      "note_off channel=4 note=65 velocity=0 time=764\n",
      "note_off channel=4 note=71 velocity=0 time=0\n",
      "note_off channel=4 note=68 velocity=0 time=0\n",
      "note_on channel=4 note=73 velocity=100 time=4\n",
      "note_on channel=4 note=66 velocity=100 time=0\n",
      "note_on channel=4 note=69 velocity=100 time=0\n",
      "note_off channel=4 note=69 velocity=0 time=764\n",
      "note_off channel=4 note=66 velocity=0 time=0\n",
      "note_off channel=4 note=73 velocity=0 time=0\n",
      "note_on channel=4 note=68 velocity=100 time=4\n",
      "note_on channel=4 note=76 velocity=100 time=0\n",
      "note_on channel=4 note=71 velocity=100 time=0\n",
      "note_off channel=4 note=71 velocity=0 time=764\n",
      "note_off channel=4 note=76 velocity=0 time=0\n",
      "note_off channel=4 note=68 velocity=0 time=0\n",
      "note_on channel=4 note=76 velocity=100 time=4\n",
      "note_on channel=4 note=73 velocity=100 time=0\n",
      "note_on channel=4 note=69 velocity=100 time=0\n",
      "note_off channel=4 note=69 velocity=0 time=764\n",
      "note_off channel=4 note=73 velocity=0 time=0\n",
      "note_off channel=4 note=76 velocity=0 time=0\n",
      "note_on channel=4 note=74 velocity=100 time=4\n",
      "note_on channel=4 note=66 velocity=100 time=0\n",
      "note_on channel=4 note=69 velocity=100 time=0\n",
      "note_off channel=4 note=69 velocity=0 time=764\n",
      "note_off channel=4 note=66 velocity=0 time=0\n",
      "note_off channel=4 note=74 velocity=0 time=0\n",
      "note_on channel=4 note=78 velocity=100 time=4\n",
      "note_on channel=4 note=68 velocity=100 time=0\n",
      "note_on channel=4 note=73 velocity=100 time=0\n",
      "note_off channel=4 note=73 velocity=0 time=1532\n",
      "note_off channel=4 note=68 velocity=0 time=0\n",
      "note_off channel=4 note=78 velocity=0 time=0\n",
      "note_on channel=4 note=68 velocity=100 time=4\n",
      "note_on channel=4 note=77 velocity=100 time=0\n",
      "note_on channel=4 note=73 velocity=100 time=0\n",
      "note_off channel=4 note=73 velocity=0 time=1532\n",
      "note_off channel=4 note=77 velocity=0 time=0\n",
      "note_off channel=4 note=68 velocity=0 time=0\n",
      "note_on channel=4 note=66 velocity=100 time=4\n",
      "note_on channel=4 note=73 velocity=100 time=0\n",
      "note_on channel=4 note=69 velocity=100 time=0\n",
      "note_off channel=4 note=69 velocity=0 time=1532\n",
      "note_off channel=4 note=73 velocity=0 time=0\n",
      "note_off channel=4 note=66 velocity=0 time=0\n",
      "note_on channel=4 note=66 velocity=100 time=4\n",
      "note_on channel=4 note=69 velocity=100 time=0\n",
      "note_on channel=4 note=74 velocity=100 time=0\n",
      "note_off channel=4 note=74 velocity=0 time=1532\n",
      "note_off channel=4 note=69 velocity=0 time=0\n",
      "note_off channel=4 note=66 velocity=0 time=0\n",
      "note_on channel=4 note=66 velocity=100 time=4\n",
      "note_on channel=4 note=74 velocity=100 time=0\n",
      "note_on channel=4 note=71 velocity=100 time=0\n",
      "note_off channel=4 note=71 velocity=0 time=1532\n",
      "note_off channel=4 note=74 velocity=0 time=0\n",
      "note_off channel=4 note=66 velocity=0 time=0\n",
      "note_on channel=4 note=68 velocity=100 time=4\n",
      "note_on channel=4 note=71 velocity=100 time=0\n",
      "note_on channel=4 note=64 velocity=100 time=0\n",
      "note_off channel=4 note=64 velocity=0 time=1532\n",
      "note_off channel=4 note=71 velocity=0 time=0\n",
      "note_off channel=4 note=68 velocity=0 time=0\n",
      "note_on channel=4 note=66 velocity=100 time=4\n",
      "note_on channel=4 note=73 velocity=100 time=0\n",
      "note_on channel=4 note=69 velocity=100 time=0\n",
      "note_off channel=4 note=69 velocity=0 time=1532\n",
      "note_off channel=4 note=73 velocity=0 time=0\n",
      "note_off channel=4 note=66 velocity=0 time=0\n",
      "note_on channel=4 note=66 velocity=100 time=4\n",
      "note_on channel=4 note=69 velocity=100 time=0\n",
      "note_on channel=4 note=74 velocity=100 time=0\n",
      "note_off channel=4 note=74 velocity=0 time=1532\n",
      "note_off channel=4 note=69 velocity=0 time=0\n",
      "note_off channel=4 note=66 velocity=0 time=0\n",
      "note_on channel=4 note=66 velocity=100 time=4\n",
      "note_on channel=4 note=74 velocity=100 time=0\n",
      "note_on channel=4 note=71 velocity=100 time=0\n",
      "note_off channel=4 note=71 velocity=0 time=1532\n",
      "note_off channel=4 note=74 velocity=0 time=0\n",
      "note_off channel=4 note=66 velocity=0 time=0\n",
      "note_on channel=4 note=68 velocity=100 time=4\n",
      "note_on channel=4 note=71 velocity=100 time=0\n",
      "note_on channel=4 note=64 velocity=100 time=0\n",
      "note_off channel=4 note=64 velocity=0 time=1532\n",
      "note_off channel=4 note=71 velocity=0 time=0\n",
      "note_off channel=4 note=68 velocity=0 time=0\n",
      "note_on channel=4 note=73 velocity=100 time=4\n",
      "note_on channel=4 note=66 velocity=100 time=0\n",
      "note_on channel=4 note=69 velocity=100 time=0\n",
      "note_off channel=4 note=69 velocity=0 time=764\n",
      "note_off channel=4 note=66 velocity=0 time=0\n",
      "note_off channel=4 note=73 velocity=0 time=0\n",
      "note_on channel=4 note=68 velocity=100 time=4\n",
      "note_on channel=4 note=76 velocity=100 time=0\n",
      "note_on channel=4 note=71 velocity=100 time=0\n",
      "note_off channel=4 note=71 velocity=0 time=764\n",
      "note_off channel=4 note=76 velocity=0 time=0\n",
      "note_off channel=4 note=68 velocity=0 time=0\n",
      "note_on channel=4 note=76 velocity=100 time=4\n",
      "note_on channel=4 note=73 velocity=100 time=0\n",
      "note_on channel=4 note=69 velocity=100 time=0\n",
      "note_off channel=4 note=69 velocity=0 time=764\n",
      "note_off channel=4 note=73 velocity=0 time=0\n",
      "note_off channel=4 note=76 velocity=0 time=0\n",
      "note_on channel=4 note=74 velocity=100 time=4\n",
      "note_on channel=4 note=66 velocity=100 time=0\n",
      "note_on channel=4 note=69 velocity=100 time=0\n",
      "note_off channel=4 note=69 velocity=0 time=764\n",
      "note_off channel=4 note=66 velocity=0 time=0\n",
      "note_off channel=4 note=74 velocity=0 time=0\n",
      "note_on channel=4 note=78 velocity=100 time=4\n",
      "note_on channel=4 note=68 velocity=100 time=0\n",
      "note_on channel=4 note=73 velocity=100 time=0\n",
      "note_off channel=4 note=73 velocity=0 time=1532\n",
      "note_off channel=4 note=68 velocity=0 time=0\n",
      "note_off channel=4 note=78 velocity=0 time=0\n",
      "note_on channel=4 note=68 velocity=100 time=4\n",
      "note_on channel=4 note=77 velocity=100 time=0\n",
      "note_on channel=4 note=73 velocity=100 time=0\n",
      "note_off channel=4 note=73 velocity=0 time=1532\n",
      "note_off channel=4 note=77 velocity=0 time=0\n",
      "note_off channel=4 note=68 velocity=0 time=0\n",
      "note_on channel=4 note=42 velocity=100 time=4\n",
      "note_on channel=4 note=66 velocity=100 time=0\n",
      "note_off channel=4 note=66 velocity=0 time=5984\n",
      "note_off channel=4 note=42 velocity=0 time=0\n",
      "note_on channel=4 note=78 velocity=100 time=160\n",
      "note_on channel=4 note=73 velocity=100 time=0\n",
      "note_on channel=4 note=69 velocity=100 time=0\n",
      "note_off channel=4 note=69 velocity=0 time=4608\n",
      "note_off channel=4 note=73 velocity=0 time=0\n",
      "note_off channel=4 note=78 velocity=0 time=0\n",
      "note_on channel=4 note=71 velocity=100 time=0\n",
      "note_on channel=4 note=74 velocity=100 time=0\n",
      "note_on channel=4 note=66 velocity=100 time=0\n",
      "note_off channel=4 note=66 velocity=0 time=1536\n",
      "note_off channel=4 note=74 velocity=0 time=0\n",
      "note_off channel=4 note=71 velocity=0 time=0\n",
      "note_on channel=4 note=78 velocity=100 time=0\n",
      "note_on channel=4 note=73 velocity=100 time=0\n",
      "note_on channel=4 note=69 velocity=100 time=0\n",
      "note_off channel=4 note=69 velocity=0 time=3840\n",
      "note_off channel=4 note=73 velocity=0 time=0\n",
      "note_off channel=4 note=78 velocity=0 time=0\n",
      "note_on channel=4 note=68 velocity=100 time=0\n",
      "note_on channel=4 note=71 velocity=100 time=0\n",
      "note_on channel=4 note=76 velocity=100 time=0\n",
      "note_off channel=4 note=76 velocity=0 time=768\n",
      "note_off channel=4 note=71 velocity=0 time=0\n",
      "note_off channel=4 note=68 velocity=0 time=0\n",
      "note_on channel=4 note=73 velocity=100 time=0\n",
      "note_on channel=4 note=69 velocity=100 time=0\n",
      "note_on channel=4 note=76 velocity=100 time=0\n",
      "note_off channel=4 note=76 velocity=0 time=1536\n",
      "note_off channel=4 note=69 velocity=0 time=0\n",
      "note_off channel=4 note=73 velocity=0 time=0\n",
      "note_on channel=4 note=62 velocity=100 time=0\n",
      "note_on channel=4 note=66 velocity=100 time=0\n",
      "note_on channel=4 note=57 velocity=100 time=0\n",
      "note_off channel=4 note=57 velocity=0 time=1536\n",
      "note_off channel=4 note=66 velocity=0 time=0\n",
      "note_off channel=4 note=62 velocity=0 time=0\n",
      "note_on channel=4 note=64 velocity=100 time=0\n",
      "note_on channel=4 note=68 velocity=100 time=0\n",
      "note_on channel=4 note=59 velocity=100 time=0\n",
      "note_off channel=4 note=59 velocity=0 time=1536\n",
      "note_off channel=4 note=68 velocity=0 time=0\n",
      "note_off channel=4 note=64 velocity=0 time=0\n",
      "note_on channel=4 note=61 velocity=100 time=0\n",
      "note_on channel=4 note=64 velocity=100 time=0\n",
      "note_on channel=4 note=69 velocity=100 time=0\n",
      "note_off channel=4 note=69 velocity=0 time=768\n",
      "note_off channel=4 note=64 velocity=0 time=0\n",
      "note_off channel=4 note=61 velocity=0 time=0\n",
      "note_on channel=4 note=68 velocity=100 time=0\n",
      "note_on channel=4 note=64 velocity=100 time=0\n",
      "note_on channel=4 note=59 velocity=100 time=0\n",
      "note_off channel=4 note=59 velocity=0 time=768\n",
      "note_off channel=4 note=64 velocity=0 time=0\n",
      "note_off channel=4 note=68 velocity=0 time=0\n",
      "note_on channel=4 note=66 velocity=100 time=0\n",
      "note_on channel=4 note=61 velocity=100 time=0\n",
      "note_on channel=4 note=69 velocity=100 time=0\n",
      "note_off channel=4 note=69 velocity=0 time=768\n",
      "note_off channel=4 note=61 velocity=0 time=0\n",
      "note_off channel=4 note=66 velocity=0 time=0\n",
      "note_on channel=4 note=68 velocity=100 time=0\n",
      "note_on channel=4 note=59 velocity=100 time=0\n",
      "note_on channel=4 note=64 velocity=100 time=0\n",
      "note_off channel=4 note=64 velocity=0 time=768\n",
      "note_off channel=4 note=59 velocity=0 time=0\n",
      "note_off channel=4 note=68 velocity=0 time=0\n",
      "note_on channel=4 note=62 velocity=92 time=0\n",
      "note_on channel=4 note=66 velocity=85 time=0\n",
      "note_on channel=4 note=57 velocity=85 time=0\n",
      "note_off channel=4 note=57 velocity=0 time=1532\n",
      "note_off channel=4 note=66 velocity=0 time=0\n",
      "note_off channel=4 note=62 velocity=0 time=0\n",
      "note_on channel=4 note=61 velocity=83 time=4\n",
      "note_on channel=4 note=64 velocity=95 time=0\n",
      "note_on channel=4 note=57 velocity=95 time=0\n",
      "note_off channel=4 note=57 velocity=0 time=1532\n",
      "note_off channel=4 note=64 velocity=0 time=0\n",
      "note_off channel=4 note=61 velocity=0 time=0\n",
      "note_on channel=4 note=68 velocity=102 time=180\n",
      "note_on channel=4 note=64 velocity=105 time=0\n",
      "note_on channel=4 note=59 velocity=102 time=0\n",
      "note_off channel=4 note=59 velocity=0 time=98\n",
      "note_off channel=4 note=64 velocity=0 time=10\n",
      "note_off channel=4 note=68 velocity=0 time=0\n",
      "note_on channel=4 note=68 velocity=104 time=84\n",
      "note_on channel=4 note=64 velocity=105 time=0\n",
      "note_on channel=4 note=59 velocity=100 time=2\n",
      "note_off channel=4 note=68 velocity=0 time=266\n",
      "note_off channel=4 note=59 velocity=0 time=4\n",
      "note_off channel=4 note=64 velocity=0 time=0\n",
      "note_on channel=4 note=68 velocity=108 time=88\n",
      "note_on channel=4 note=64 velocity=108 time=0\n",
      "note_on channel=4 note=59 velocity=97 time=0\n",
      "note_off channel=4 note=59 velocity=0 time=116\n",
      "note_off channel=4 note=68 velocity=0 time=6\n",
      "note_off channel=4 note=64 velocity=0 time=14\n",
      "note_on channel=4 note=64 velocity=105 time=76\n",
      "note_on channel=4 note=68 velocity=105 time=6\n",
      "note_on channel=4 note=59 velocity=94 time=0\n",
      "note_off channel=4 note=68 velocity=0 time=78\n",
      "note_off channel=4 note=59 velocity=0 time=12\n",
      "note_off channel=4 note=64 velocity=0 time=0\n",
      "note_on channel=4 note=59 velocity=105 time=300\n",
      "note_on channel=4 note=64 velocity=105 time=0\n",
      "note_on channel=4 note=68 velocity=94 time=8\n",
      "note_off channel=4 note=59 velocity=0 time=488\n",
      "note_off channel=4 note=64 velocity=0 time=20\n",
      "note_off channel=4 note=68 velocity=0 time=32\n",
      "note_on channel=4 note=66 velocity=100 time=1188\n",
      "note_on channel=4 note=73 velocity=100 time=0\n",
      "note_on channel=4 note=69 velocity=100 time=0\n",
      "note_off channel=4 note=69 velocity=0 time=1532\n",
      "note_off channel=4 note=73 velocity=0 time=0\n",
      "note_off channel=4 note=66 velocity=0 time=0\n",
      "note_on channel=4 note=66 velocity=100 time=4\n",
      "note_on channel=4 note=69 velocity=100 time=0\n",
      "note_on channel=4 note=74 velocity=100 time=0\n",
      "note_off channel=4 note=74 velocity=0 time=1532\n",
      "note_off channel=4 note=69 velocity=0 time=0\n",
      "note_off channel=4 note=66 velocity=0 time=0\n",
      "note_on channel=4 note=66 velocity=100 time=4\n",
      "note_on channel=4 note=74 velocity=100 time=0\n",
      "note_on channel=4 note=71 velocity=100 time=0\n",
      "note_off channel=4 note=71 velocity=0 time=1532\n",
      "note_off channel=4 note=74 velocity=0 time=0\n",
      "note_off channel=4 note=66 velocity=0 time=0\n",
      "note_on channel=4 note=68 velocity=100 time=4\n",
      "note_on channel=4 note=71 velocity=100 time=0\n",
      "note_on channel=4 note=64 velocity=100 time=0\n",
      "note_off channel=4 note=64 velocity=0 time=1532\n",
      "note_off channel=4 note=71 velocity=0 time=0\n",
      "note_off channel=4 note=68 velocity=0 time=0\n",
      "note_on channel=4 note=66 velocity=100 time=4\n",
      "note_on channel=4 note=73 velocity=100 time=0\n",
      "note_on channel=4 note=69 velocity=100 time=0\n",
      "note_off channel=4 note=69 velocity=0 time=1532\n",
      "note_off channel=4 note=73 velocity=0 time=0\n",
      "note_off channel=4 note=66 velocity=0 time=0\n",
      "note_on channel=4 note=66 velocity=100 time=4\n",
      "note_on channel=4 note=69 velocity=100 time=0\n",
      "note_on channel=4 note=74 velocity=100 time=0\n",
      "note_off channel=4 note=74 velocity=0 time=1532\n",
      "note_off channel=4 note=69 velocity=0 time=0\n",
      "note_off channel=4 note=66 velocity=0 time=0\n",
      "note_on channel=4 note=66 velocity=100 time=4\n",
      "note_on channel=4 note=74 velocity=100 time=0\n",
      "note_on channel=4 note=71 velocity=100 time=0\n",
      "note_off channel=4 note=71 velocity=0 time=1532\n",
      "note_off channel=4 note=74 velocity=0 time=0\n",
      "note_off channel=4 note=66 velocity=0 time=0\n",
      "note_on channel=4 note=68 velocity=100 time=4\n",
      "note_on channel=4 note=71 velocity=100 time=0\n",
      "note_on channel=4 note=64 velocity=100 time=0\n",
      "note_off channel=4 note=64 velocity=0 time=1532\n",
      "note_off channel=4 note=71 velocity=0 time=0\n",
      "note_off channel=4 note=68 velocity=0 time=0\n",
      "note_on channel=4 note=78 velocity=100 time=4\n",
      "note_on channel=4 note=73 velocity=100 time=0\n",
      "note_on channel=4 note=69 velocity=100 time=0\n",
      "note_off channel=4 note=69 velocity=0 time=4608\n",
      "note_off channel=4 note=73 velocity=0 time=0\n",
      "note_off channel=4 note=78 velocity=0 time=0\n",
      "note_on channel=4 note=71 velocity=100 time=0\n",
      "note_on channel=4 note=74 velocity=100 time=0\n",
      "note_on channel=4 note=66 velocity=100 time=0\n",
      "note_off channel=4 note=66 velocity=0 time=1536\n",
      "note_off channel=4 note=74 velocity=0 time=0\n",
      "note_off channel=4 note=71 velocity=0 time=0\n",
      "note_on channel=4 note=78 velocity=100 time=0\n",
      "note_on channel=4 note=73 velocity=100 time=0\n",
      "note_on channel=4 note=69 velocity=100 time=0\n",
      "note_off channel=4 note=69 velocity=0 time=3840\n",
      "note_off channel=4 note=73 velocity=0 time=0\n",
      "note_off channel=4 note=78 velocity=0 time=0\n",
      "note_on channel=4 note=68 velocity=100 time=0\n",
      "note_on channel=4 note=71 velocity=100 time=0\n",
      "note_on channel=4 note=76 velocity=100 time=0\n",
      "note_off channel=4 note=76 velocity=0 time=768\n",
      "note_off channel=4 note=71 velocity=0 time=0\n",
      "note_off channel=4 note=68 velocity=0 time=0\n",
      "note_on channel=4 note=73 velocity=100 time=0\n",
      "note_on channel=4 note=69 velocity=100 time=0\n",
      "note_on channel=4 note=76 velocity=100 time=0\n",
      "note_off channel=4 note=76 velocity=0 time=1536\n",
      "note_off channel=4 note=69 velocity=0 time=0\n",
      "note_off channel=4 note=73 velocity=0 time=0\n",
      "note_on channel=4 note=62 velocity=100 time=0\n",
      "note_on channel=4 note=66 velocity=100 time=0\n",
      "note_on channel=4 note=57 velocity=100 time=0\n",
      "note_off channel=4 note=57 velocity=0 time=1536\n",
      "note_off channel=4 note=66 velocity=0 time=0\n",
      "note_off channel=4 note=62 velocity=0 time=0\n",
      "note_on channel=4 note=64 velocity=100 time=0\n",
      "note_on channel=4 note=68 velocity=100 time=0\n",
      "note_on channel=4 note=59 velocity=100 time=0\n",
      "note_off channel=4 note=59 velocity=0 time=1536\n",
      "note_off channel=4 note=68 velocity=0 time=0\n",
      "note_off channel=4 note=64 velocity=0 time=0\n",
      "note_on channel=4 note=61 velocity=100 time=0\n",
      "note_on channel=4 note=64 velocity=100 time=0\n",
      "note_on channel=4 note=69 velocity=100 time=0\n",
      "note_off channel=4 note=69 velocity=0 time=768\n",
      "note_off channel=4 note=64 velocity=0 time=0\n",
      "note_off channel=4 note=61 velocity=0 time=0\n",
      "note_on channel=4 note=68 velocity=100 time=0\n",
      "note_on channel=4 note=64 velocity=100 time=0\n",
      "note_on channel=4 note=59 velocity=100 time=0\n",
      "note_off channel=4 note=59 velocity=0 time=768\n",
      "note_off channel=4 note=64 velocity=0 time=0\n",
      "note_off channel=4 note=68 velocity=0 time=0\n",
      "note_on channel=4 note=66 velocity=100 time=0\n",
      "note_on channel=4 note=61 velocity=100 time=0\n",
      "note_on channel=4 note=69 velocity=100 time=0\n",
      "note_off channel=4 note=69 velocity=0 time=768\n",
      "note_off channel=4 note=61 velocity=0 time=0\n",
      "note_off channel=4 note=66 velocity=0 time=0\n",
      "note_on channel=4 note=68 velocity=100 time=0\n",
      "note_on channel=4 note=59 velocity=100 time=0\n",
      "note_on channel=4 note=64 velocity=100 time=0\n",
      "note_off channel=4 note=64 velocity=0 time=768\n",
      "note_off channel=4 note=59 velocity=0 time=0\n",
      "note_off channel=4 note=68 velocity=0 time=0\n",
      "note_on channel=4 note=62 velocity=92 time=0\n",
      "note_on channel=4 note=66 velocity=85 time=0\n",
      "note_on channel=4 note=57 velocity=85 time=0\n",
      "note_off channel=4 note=57 velocity=0 time=1532\n",
      "note_off channel=4 note=66 velocity=0 time=0\n",
      "note_off channel=4 note=62 velocity=0 time=0\n",
      "note_on channel=4 note=61 velocity=83 time=4\n",
      "note_on channel=4 note=64 velocity=95 time=0\n",
      "note_on channel=4 note=57 velocity=95 time=0\n",
      "note_off channel=4 note=57 velocity=0 time=1532\n",
      "note_off channel=4 note=64 velocity=0 time=0\n",
      "note_off channel=4 note=61 velocity=0 time=0\n",
      "note_on channel=4 note=68 velocity=102 time=180\n",
      "note_on channel=4 note=64 velocity=105 time=0\n",
      "note_on channel=4 note=59 velocity=102 time=0\n",
      "note_off channel=4 note=59 velocity=0 time=98\n",
      "note_off channel=4 note=64 velocity=0 time=10\n",
      "note_off channel=4 note=68 velocity=0 time=0\n",
      "note_on channel=4 note=68 velocity=104 time=84\n",
      "note_on channel=4 note=64 velocity=105 time=0\n",
      "note_on channel=4 note=59 velocity=100 time=2\n",
      "note_off channel=4 note=68 velocity=0 time=266\n",
      "note_off channel=4 note=59 velocity=0 time=4\n",
      "note_off channel=4 note=64 velocity=0 time=0\n",
      "note_on channel=4 note=68 velocity=108 time=88\n",
      "note_on channel=4 note=64 velocity=108 time=0\n",
      "note_on channel=4 note=59 velocity=97 time=0\n",
      "note_off channel=4 note=59 velocity=0 time=116\n",
      "note_off channel=4 note=68 velocity=0 time=6\n",
      "note_off channel=4 note=64 velocity=0 time=14\n",
      "note_on channel=4 note=64 velocity=105 time=76\n",
      "note_on channel=4 note=68 velocity=105 time=6\n",
      "note_on channel=4 note=59 velocity=94 time=0\n",
      "note_off channel=4 note=68 velocity=0 time=78\n",
      "note_off channel=4 note=59 velocity=0 time=12\n",
      "note_off channel=4 note=64 velocity=0 time=0\n",
      "note_on channel=4 note=59 velocity=105 time=300\n",
      "note_on channel=4 note=64 velocity=105 time=0\n",
      "note_on channel=4 note=68 velocity=94 time=8\n",
      "note_off channel=4 note=59 velocity=0 time=488\n",
      "note_off channel=4 note=64 velocity=0 time=20\n",
      "note_off channel=4 note=68 velocity=0 time=32\n",
      "note_on channel=4 note=66 velocity=100 time=1188\n",
      "note_on channel=4 note=73 velocity=100 time=0\n",
      "note_on channel=4 note=69 velocity=100 time=0\n",
      "note_off channel=4 note=69 velocity=0 time=1532\n",
      "note_off channel=4 note=73 velocity=0 time=0\n",
      "note_off channel=4 note=66 velocity=0 time=0\n",
      "note_on channel=4 note=66 velocity=100 time=4\n",
      "note_on channel=4 note=69 velocity=100 time=0\n",
      "note_on channel=4 note=74 velocity=100 time=0\n",
      "note_off channel=4 note=74 velocity=0 time=1532\n",
      "note_off channel=4 note=69 velocity=0 time=0\n",
      "note_off channel=4 note=66 velocity=0 time=0\n",
      "note_on channel=4 note=66 velocity=100 time=4\n",
      "note_on channel=4 note=74 velocity=100 time=0\n",
      "note_on channel=4 note=71 velocity=100 time=0\n",
      "note_off channel=4 note=71 velocity=0 time=1532\n",
      "note_off channel=4 note=74 velocity=0 time=0\n",
      "note_off channel=4 note=66 velocity=0 time=0\n",
      "note_on channel=4 note=68 velocity=100 time=4\n",
      "note_on channel=4 note=71 velocity=100 time=0\n",
      "note_on channel=4 note=64 velocity=100 time=0\n",
      "note_off channel=4 note=64 velocity=0 time=1532\n",
      "note_off channel=4 note=71 velocity=0 time=0\n",
      "note_off channel=4 note=68 velocity=0 time=0\n",
      "note_on channel=4 note=66 velocity=100 time=4\n",
      "note_on channel=4 note=73 velocity=100 time=0\n",
      "note_on channel=4 note=69 velocity=100 time=0\n",
      "note_off channel=4 note=69 velocity=0 time=1532\n",
      "note_off channel=4 note=73 velocity=0 time=0\n",
      "note_off channel=4 note=66 velocity=0 time=0\n",
      "note_on channel=4 note=66 velocity=100 time=4\n",
      "note_on channel=4 note=69 velocity=100 time=0\n",
      "note_on channel=4 note=74 velocity=100 time=0\n",
      "note_off channel=4 note=74 velocity=0 time=1532\n",
      "note_off channel=4 note=69 velocity=0 time=0\n",
      "note_off channel=4 note=66 velocity=0 time=0\n",
      "note_on channel=4 note=66 velocity=100 time=4\n",
      "note_on channel=4 note=74 velocity=100 time=0\n",
      "note_on channel=4 note=71 velocity=100 time=0\n",
      "note_off channel=4 note=71 velocity=0 time=1532\n",
      "note_off channel=4 note=74 velocity=0 time=0\n",
      "note_off channel=4 note=66 velocity=0 time=0\n",
      "note_on channel=4 note=68 velocity=100 time=4\n",
      "note_on channel=4 note=71 velocity=100 time=0\n",
      "note_on channel=4 note=64 velocity=100 time=0\n",
      "note_off channel=4 note=64 velocity=0 time=1532\n",
      "note_off channel=4 note=71 velocity=0 time=0\n",
      "note_off channel=4 note=68 velocity=0 time=0\n",
      "note_on channel=4 note=73 velocity=100 time=4\n",
      "note_on channel=4 note=66 velocity=100 time=0\n",
      "note_on channel=4 note=69 velocity=100 time=0\n",
      "note_off channel=4 note=69 velocity=0 time=764\n",
      "note_off channel=4 note=66 velocity=0 time=0\n",
      "note_off channel=4 note=73 velocity=0 time=0\n",
      "note_on channel=4 note=68 velocity=100 time=4\n",
      "note_on channel=4 note=76 velocity=100 time=0\n",
      "note_on channel=4 note=71 velocity=100 time=0\n",
      "note_off channel=4 note=71 velocity=0 time=764\n",
      "note_off channel=4 note=76 velocity=0 time=0\n",
      "note_off channel=4 note=68 velocity=0 time=0\n",
      "note_on channel=4 note=76 velocity=100 time=4\n",
      "note_on channel=4 note=73 velocity=100 time=0\n",
      "note_on channel=4 note=69 velocity=100 time=0\n",
      "note_off channel=4 note=69 velocity=0 time=764\n",
      "note_off channel=4 note=73 velocity=0 time=0\n",
      "note_off channel=4 note=76 velocity=0 time=0\n",
      "note_on channel=4 note=74 velocity=100 time=4\n",
      "note_on channel=4 note=66 velocity=100 time=0\n",
      "note_on channel=4 note=69 velocity=100 time=0\n",
      "note_off channel=4 note=69 velocity=0 time=764\n",
      "note_off channel=4 note=66 velocity=0 time=0\n",
      "note_off channel=4 note=74 velocity=0 time=0\n",
      "note_on channel=4 note=78 velocity=100 time=4\n",
      "note_on channel=4 note=68 velocity=100 time=0\n",
      "note_on channel=4 note=73 velocity=100 time=0\n",
      "note_off channel=4 note=73 velocity=0 time=1532\n",
      "note_off channel=4 note=68 velocity=0 time=0\n",
      "note_off channel=4 note=78 velocity=0 time=0\n",
      "note_on channel=4 note=68 velocity=100 time=4\n",
      "note_on channel=4 note=77 velocity=100 time=0\n",
      "note_on channel=4 note=73 velocity=100 time=0\n",
      "note_off channel=4 note=73 velocity=0 time=1532\n",
      "note_off channel=4 note=77 velocity=0 time=0\n",
      "note_off channel=4 note=68 velocity=0 time=0\n",
      "note_on channel=4 note=54 velocity=100 time=16\n",
      "note_on channel=4 note=59 velocity=100 time=3060\n",
      "note_on channel=4 note=66 velocity=100 time=0\n",
      "note_on channel=4 note=62 velocity=100 time=0\n",
      "note_off channel=4 note=54 velocity=0 time=28\n",
      "note_off channel=4 note=62 velocity=0 time=1504\n",
      "note_off channel=4 note=66 velocity=0 time=0\n",
      "note_off channel=4 note=59 velocity=0 time=0\n",
      "note_on channel=4 note=61 velocity=100 time=4\n",
      "note_on channel=4 note=57 velocity=100 time=0\n",
      "note_on channel=4 note=64 velocity=100 time=0\n",
      "note_off channel=4 note=64 velocity=0 time=1532\n",
      "note_off channel=4 note=57 velocity=0 time=0\n",
      "note_off channel=4 note=61 velocity=0 time=0\n",
      "note_on channel=4 note=62 velocity=100 time=4\n",
      "note_on channel=4 note=57 velocity=100 time=0\n",
      "note_on channel=4 note=66 velocity=100 time=0\n",
      "note_off channel=4 note=66 velocity=0 time=1532\n",
      "note_off channel=4 note=57 velocity=0 time=0\n",
      "note_off channel=4 note=62 velocity=0 time=0\n",
      "note_on channel=4 note=55 velocity=100 time=4\n",
      "note_on channel=4 note=62 velocity=100 time=0\n",
      "note_on channel=4 note=59 velocity=100 time=0\n",
      "note_off channel=4 note=59 velocity=0 time=764\n",
      "note_off channel=4 note=62 velocity=0 time=0\n",
      "note_off channel=4 note=55 velocity=0 time=0\n",
      "note_on channel=4 note=54 velocity=100 time=4\n",
      "note_on channel=4 note=59 velocity=100 time=0\n",
      "note_on channel=4 note=62 velocity=100 time=0\n",
      "note_off channel=4 note=62 velocity=0 time=764\n",
      "note_off channel=4 note=59 velocity=0 time=0\n",
      "note_off channel=4 note=54 velocity=0 time=0\n",
      "note_on channel=4 note=64 velocity=100 time=4\n",
      "note_on channel=4 note=59 velocity=100 time=0\n",
      "note_on channel=4 note=55 velocity=100 time=0\n",
      "note_off channel=4 note=55 velocity=0 time=1532\n",
      "note_off channel=4 note=59 velocity=0 time=0\n",
      "note_off channel=4 note=64 velocity=0 time=0\n",
      "note_on channel=4 note=61 velocity=100 time=4\n",
      "note_on channel=4 note=64 velocity=100 time=0\n",
      "note_on channel=4 note=57 velocity=100 time=0\n",
      "note_off channel=4 note=57 velocity=0 time=1532\n",
      "note_off channel=4 note=64 velocity=0 time=0\n",
      "note_off channel=4 note=61 velocity=0 time=0\n",
      "note_on channel=4 note=62 velocity=100 time=4\n",
      "note_on channel=4 note=66 velocity=100 time=0\n",
      "note_on channel=4 note=59 velocity=100 time=0\n",
      "note_off channel=4 note=59 velocity=0 time=1532\n",
      "note_off channel=4 note=66 velocity=0 time=0\n",
      "note_off channel=4 note=62 velocity=0 time=0\n",
      "note_on channel=4 note=66 velocity=100 time=4\n",
      "note_on channel=4 note=61 velocity=100 time=0\n",
      "note_on channel=4 note=57 velocity=100 time=0\n",
      "note_off channel=4 note=57 velocity=0 time=1532\n",
      "note_off channel=4 note=61 velocity=0 time=0\n",
      "note_off channel=4 note=66 velocity=0 time=0\n",
      "note_on channel=4 note=59 velocity=100 time=4\n",
      "note_on channel=4 note=66 velocity=100 time=0\n",
      "note_on channel=4 note=62 velocity=100 time=0\n",
      "note_off channel=4 note=62 velocity=0 time=1532\n",
      "note_off channel=4 note=66 velocity=0 time=0\n",
      "note_off channel=4 note=59 velocity=0 time=0\n",
      "note_on channel=4 note=61 velocity=100 time=4\n",
      "note_on channel=4 note=57 velocity=100 time=0\n",
      "note_on channel=4 note=64 velocity=100 time=0\n",
      "note_off channel=4 note=64 velocity=0 time=1532\n",
      "note_off channel=4 note=57 velocity=0 time=0\n",
      "note_off channel=4 note=61 velocity=0 time=0\n",
      "note_on channel=4 note=62 velocity=100 time=4\n",
      "note_on channel=4 note=57 velocity=100 time=0\n",
      "note_on channel=4 note=66 velocity=100 time=0\n",
      "note_off channel=4 note=66 velocity=0 time=1532\n",
      "note_off channel=4 note=57 velocity=0 time=0\n",
      "note_off channel=4 note=62 velocity=0 time=0\n",
      "note_on channel=4 note=55 velocity=100 time=4\n",
      "note_on channel=4 note=62 velocity=100 time=0\n",
      "note_on channel=4 note=59 velocity=100 time=0\n",
      "note_off channel=4 note=59 velocity=0 time=764\n",
      "note_off channel=4 note=62 velocity=0 time=0\n",
      "note_off channel=4 note=55 velocity=0 time=0\n",
      "note_on channel=4 note=54 velocity=100 time=4\n",
      "note_on channel=4 note=59 velocity=100 time=0\n",
      "note_on channel=4 note=62 velocity=100 time=0\n",
      "note_off channel=4 note=62 velocity=0 time=764\n",
      "note_off channel=4 note=59 velocity=0 time=0\n",
      "note_off channel=4 note=54 velocity=0 time=0\n",
      "note_on channel=4 note=64 velocity=100 time=4\n",
      "note_on channel=4 note=59 velocity=100 time=0\n",
      "note_on channel=4 note=55 velocity=100 time=0\n",
      "note_off channel=4 note=55 velocity=0 time=1532\n",
      "note_off channel=4 note=59 velocity=0 time=0\n",
      "note_off channel=4 note=64 velocity=0 time=0\n",
      "note_on channel=4 note=61 velocity=100 time=4\n",
      "note_on channel=4 note=64 velocity=100 time=0\n",
      "note_on channel=4 note=57 velocity=100 time=0\n",
      "note_off channel=4 note=57 velocity=0 time=1532\n",
      "note_off channel=4 note=64 velocity=0 time=0\n",
      "note_off channel=4 note=61 velocity=0 time=0\n",
      "note_on channel=4 note=62 velocity=100 time=4\n",
      "note_on channel=4 note=66 velocity=100 time=0\n",
      "note_on channel=4 note=59 velocity=100 time=0\n",
      "note_off channel=4 note=59 velocity=0 time=1532\n",
      "note_off channel=4 note=66 velocity=0 time=0\n",
      "note_off channel=4 note=62 velocity=0 time=0\n",
      "note_on channel=4 note=61 velocity=100 time=4\n",
      "note_on channel=4 note=68 velocity=100 time=0\n",
      "note_on channel=4 note=65 velocity=100 time=0\n",
      "note_off channel=4 note=65 velocity=0 time=1532\n",
      "note_off channel=4 note=68 velocity=0 time=0\n",
      "note_off channel=4 note=61 velocity=0 time=0\n",
      "note_on channel=4 note=66 velocity=100 time=4\n",
      "note_on channel=4 note=73 velocity=100 time=0\n",
      "note_on channel=4 note=69 velocity=100 time=0\n",
      "note_off channel=4 note=69 velocity=0 time=1532\n",
      "note_off channel=4 note=73 velocity=0 time=0\n",
      "note_off channel=4 note=66 velocity=0 time=0\n",
      "note_on channel=4 note=66 velocity=100 time=4\n",
      "note_on channel=4 note=69 velocity=100 time=0\n",
      "note_on channel=4 note=74 velocity=100 time=0\n",
      "note_off channel=4 note=74 velocity=0 time=1532\n",
      "note_off channel=4 note=69 velocity=0 time=0\n",
      "note_off channel=4 note=66 velocity=0 time=0\n",
      "note_on channel=4 note=66 velocity=100 time=4\n",
      "note_on channel=4 note=74 velocity=100 time=0\n",
      "note_on channel=4 note=71 velocity=100 time=0\n",
      "note_off channel=4 note=71 velocity=0 time=1532\n",
      "note_off channel=4 note=74 velocity=0 time=0\n",
      "note_off channel=4 note=66 velocity=0 time=0\n",
      "note_on channel=4 note=68 velocity=100 time=4\n",
      "note_on channel=4 note=71 velocity=100 time=0\n",
      "note_on channel=4 note=64 velocity=100 time=0\n",
      "note_off channel=4 note=64 velocity=0 time=1532\n",
      "note_off channel=4 note=71 velocity=0 time=0\n",
      "note_off channel=4 note=68 velocity=0 time=0\n",
      "note_on channel=4 note=66 velocity=100 time=4\n",
      "note_on channel=4 note=73 velocity=100 time=0\n",
      "note_on channel=4 note=69 velocity=100 time=0\n",
      "note_off channel=4 note=69 velocity=0 time=1532\n",
      "note_off channel=4 note=73 velocity=0 time=0\n",
      "note_off channel=4 note=66 velocity=0 time=0\n",
      "note_on channel=4 note=66 velocity=100 time=4\n",
      "note_on channel=4 note=69 velocity=100 time=0\n",
      "note_on channel=4 note=74 velocity=100 time=0\n",
      "note_off channel=4 note=74 velocity=0 time=1532\n",
      "note_off channel=4 note=69 velocity=0 time=0\n",
      "note_off channel=4 note=66 velocity=0 time=0\n",
      "note_on channel=4 note=66 velocity=100 time=4\n",
      "note_on channel=4 note=74 velocity=100 time=0\n",
      "note_on channel=4 note=71 velocity=100 time=0\n",
      "note_off channel=4 note=71 velocity=0 time=1532\n",
      "note_off channel=4 note=74 velocity=0 time=0\n",
      "note_off channel=4 note=66 velocity=0 time=0\n",
      "note_on channel=4 note=68 velocity=100 time=4\n",
      "note_on channel=4 note=71 velocity=100 time=0\n",
      "note_on channel=4 note=64 velocity=100 time=0\n",
      "note_off channel=4 note=64 velocity=0 time=1532\n",
      "note_off channel=4 note=71 velocity=0 time=0\n",
      "note_off channel=4 note=68 velocity=0 time=0\n",
      "note_on channel=4 note=73 velocity=100 time=4\n",
      "note_on channel=4 note=66 velocity=100 time=0\n",
      "note_on channel=4 note=69 velocity=100 time=0\n",
      "note_off channel=4 note=69 velocity=0 time=764\n",
      "note_off channel=4 note=66 velocity=0 time=0\n",
      "note_off channel=4 note=73 velocity=0 time=0\n",
      "note_on channel=4 note=68 velocity=100 time=4\n",
      "note_on channel=4 note=76 velocity=100 time=0\n",
      "note_on channel=4 note=71 velocity=100 time=0\n",
      "note_off channel=4 note=71 velocity=0 time=764\n",
      "note_off channel=4 note=76 velocity=0 time=0\n",
      "note_off channel=4 note=68 velocity=0 time=0\n",
      "note_on channel=4 note=76 velocity=100 time=4\n",
      "note_on channel=4 note=73 velocity=100 time=0\n",
      "note_on channel=4 note=69 velocity=100 time=0\n",
      "note_off channel=4 note=69 velocity=0 time=764\n",
      "note_off channel=4 note=73 velocity=0 time=0\n",
      "note_off channel=4 note=76 velocity=0 time=0\n",
      "note_on channel=4 note=74 velocity=100 time=4\n",
      "note_on channel=4 note=66 velocity=100 time=0\n",
      "note_on channel=4 note=69 velocity=100 time=0\n",
      "note_off channel=4 note=69 velocity=0 time=764\n",
      "note_off channel=4 note=66 velocity=0 time=0\n",
      "note_off channel=4 note=74 velocity=0 time=0\n",
      "note_on channel=4 note=78 velocity=100 time=4\n",
      "note_on channel=4 note=68 velocity=100 time=0\n",
      "note_on channel=4 note=73 velocity=100 time=0\n",
      "note_off channel=4 note=73 velocity=0 time=1532\n",
      "note_off channel=4 note=68 velocity=0 time=0\n",
      "note_off channel=4 note=78 velocity=0 time=0\n",
      "note_on channel=4 note=68 velocity=100 time=4\n",
      "note_on channel=4 note=77 velocity=100 time=0\n",
      "note_on channel=4 note=73 velocity=100 time=0\n",
      "note_off channel=4 note=73 velocity=0 time=1532\n",
      "note_off channel=4 note=77 velocity=0 time=0\n",
      "note_off channel=4 note=68 velocity=0 time=0\n",
      "note_on channel=4 note=66 velocity=100 time=4\n",
      "note_on channel=4 note=73 velocity=100 time=0\n",
      "note_on channel=4 note=69 velocity=100 time=0\n",
      "note_off channel=4 note=69 velocity=0 time=1532\n",
      "note_off channel=4 note=73 velocity=0 time=0\n",
      "note_off channel=4 note=66 velocity=0 time=0\n",
      "note_on channel=4 note=66 velocity=100 time=4\n",
      "note_on channel=4 note=69 velocity=100 time=0\n",
      "note_on channel=4 note=74 velocity=100 time=0\n",
      "note_off channel=4 note=74 velocity=0 time=1532\n",
      "note_off channel=4 note=69 velocity=0 time=0\n",
      "note_off channel=4 note=66 velocity=0 time=0\n",
      "note_on channel=4 note=66 velocity=100 time=4\n",
      "note_on channel=4 note=74 velocity=100 time=0\n",
      "note_on channel=4 note=71 velocity=100 time=0\n",
      "note_off channel=4 note=71 velocity=0 time=1532\n",
      "note_off channel=4 note=74 velocity=0 time=0\n",
      "note_off channel=4 note=66 velocity=0 time=0\n",
      "note_on channel=4 note=68 velocity=100 time=4\n",
      "note_on channel=4 note=71 velocity=100 time=0\n",
      "note_on channel=4 note=64 velocity=100 time=0\n",
      "note_off channel=4 note=64 velocity=0 time=1532\n",
      "note_off channel=4 note=71 velocity=0 time=0\n",
      "note_off channel=4 note=68 velocity=0 time=0\n",
      "note_on channel=4 note=66 velocity=100 time=4\n",
      "note_on channel=4 note=73 velocity=100 time=0\n",
      "note_on channel=4 note=69 velocity=100 time=0\n",
      "note_off channel=4 note=69 velocity=0 time=1532\n",
      "note_off channel=4 note=73 velocity=0 time=0\n",
      "note_off channel=4 note=66 velocity=0 time=0\n",
      "note_on channel=4 note=66 velocity=100 time=4\n",
      "note_on channel=4 note=69 velocity=100 time=0\n",
      "note_on channel=4 note=74 velocity=100 time=0\n",
      "note_off channel=4 note=74 velocity=0 time=1532\n",
      "note_off channel=4 note=69 velocity=0 time=0\n",
      "note_off channel=4 note=66 velocity=0 time=0\n",
      "note_on channel=4 note=66 velocity=100 time=4\n",
      "note_on channel=4 note=74 velocity=100 time=0\n",
      "note_on channel=4 note=71 velocity=100 time=0\n",
      "note_off channel=4 note=71 velocity=0 time=1532\n",
      "note_off channel=4 note=74 velocity=0 time=0\n",
      "note_off channel=4 note=66 velocity=0 time=0\n",
      "note_on channel=4 note=68 velocity=100 time=4\n",
      "note_on channel=4 note=71 velocity=100 time=0\n",
      "note_on channel=4 note=64 velocity=100 time=0\n",
      "note_off channel=4 note=64 velocity=0 time=1532\n",
      "note_off channel=4 note=71 velocity=0 time=0\n",
      "note_off channel=4 note=68 velocity=0 time=0\n",
      "note_on channel=4 note=73 velocity=100 time=4\n",
      "note_on channel=4 note=66 velocity=100 time=0\n",
      "note_on channel=4 note=69 velocity=100 time=0\n",
      "note_off channel=4 note=69 velocity=0 time=764\n",
      "note_off channel=4 note=66 velocity=0 time=0\n",
      "note_off channel=4 note=73 velocity=0 time=0\n",
      "note_on channel=4 note=68 velocity=100 time=4\n",
      "note_on channel=4 note=76 velocity=100 time=0\n",
      "note_on channel=4 note=71 velocity=100 time=0\n",
      "note_off channel=4 note=71 velocity=0 time=764\n",
      "note_off channel=4 note=76 velocity=0 time=0\n",
      "note_off channel=4 note=68 velocity=0 time=0\n",
      "note_on channel=4 note=76 velocity=100 time=4\n",
      "note_on channel=4 note=73 velocity=100 time=0\n",
      "note_on channel=4 note=69 velocity=100 time=0\n",
      "note_off channel=4 note=69 velocity=0 time=764\n",
      "note_off channel=4 note=73 velocity=0 time=0\n",
      "note_off channel=4 note=76 velocity=0 time=0\n",
      "note_on channel=4 note=74 velocity=100 time=4\n",
      "note_on channel=4 note=66 velocity=100 time=0\n",
      "note_on channel=4 note=69 velocity=100 time=0\n",
      "note_off channel=4 note=69 velocity=0 time=764\n",
      "note_off channel=4 note=66 velocity=0 time=0\n",
      "note_off channel=4 note=74 velocity=0 time=0\n",
      "note_on channel=4 note=78 velocity=100 time=4\n",
      "note_on channel=4 note=68 velocity=100 time=0\n",
      "note_on channel=4 note=73 velocity=100 time=0\n",
      "note_off channel=4 note=73 velocity=0 time=1532\n",
      "note_off channel=4 note=68 velocity=0 time=0\n",
      "note_off channel=4 note=78 velocity=0 time=0\n",
      "note_on channel=4 note=68 velocity=100 time=4\n",
      "note_on channel=4 note=77 velocity=100 time=0\n",
      "note_on channel=4 note=73 velocity=100 time=0\n",
      "note_off channel=4 note=73 velocity=0 time=1532\n",
      "note_off channel=4 note=77 velocity=0 time=0\n",
      "note_off channel=4 note=68 velocity=0 time=0\n",
      "note_on channel=4 note=66 velocity=100 time=4\n",
      "note_on channel=4 note=73 velocity=100 time=0\n",
      "note_on channel=4 note=69 velocity=100 time=0\n",
      "note_off channel=4 note=69 velocity=0 time=1532\n",
      "note_off channel=4 note=73 velocity=0 time=0\n",
      "note_off channel=4 note=66 velocity=0 time=0\n",
      "note_on channel=4 note=66 velocity=100 time=4\n",
      "note_on channel=4 note=69 velocity=100 time=0\n",
      "note_on channel=4 note=74 velocity=100 time=0\n",
      "note_off channel=4 note=74 velocity=0 time=1532\n",
      "note_off channel=4 note=69 velocity=0 time=0\n",
      "note_off channel=4 note=66 velocity=0 time=0\n",
      "note_on channel=4 note=66 velocity=100 time=4\n",
      "note_on channel=4 note=74 velocity=100 time=0\n",
      "note_on channel=4 note=71 velocity=100 time=0\n",
      "note_off channel=4 note=71 velocity=0 time=1532\n",
      "note_off channel=4 note=74 velocity=0 time=0\n",
      "note_off channel=4 note=66 velocity=0 time=0\n",
      "note_on channel=4 note=68 velocity=100 time=4\n",
      "note_on channel=4 note=71 velocity=100 time=0\n",
      "note_on channel=4 note=64 velocity=100 time=0\n",
      "note_off channel=4 note=64 velocity=0 time=1532\n",
      "note_off channel=4 note=71 velocity=0 time=0\n",
      "note_off channel=4 note=68 velocity=0 time=0\n",
      "note_on channel=4 note=66 velocity=100 time=4\n",
      "note_on channel=4 note=73 velocity=100 time=0\n",
      "note_on channel=4 note=69 velocity=100 time=0\n",
      "note_off channel=4 note=69 velocity=0 time=1532\n",
      "note_off channel=4 note=73 velocity=0 time=0\n",
      "note_off channel=4 note=66 velocity=0 time=0\n",
      "note_on channel=4 note=66 velocity=100 time=4\n",
      "note_on channel=4 note=69 velocity=100 time=0\n",
      "note_on channel=4 note=74 velocity=100 time=0\n",
      "note_off channel=4 note=74 velocity=0 time=1532\n",
      "note_off channel=4 note=69 velocity=0 time=0\n",
      "note_off channel=4 note=66 velocity=0 time=0\n",
      "note_on channel=4 note=66 velocity=100 time=4\n",
      "note_on channel=4 note=74 velocity=100 time=0\n",
      "note_on channel=4 note=71 velocity=100 time=0\n",
      "note_off channel=4 note=71 velocity=0 time=1532\n",
      "note_off channel=4 note=74 velocity=0 time=0\n",
      "note_off channel=4 note=66 velocity=0 time=0\n",
      "note_on channel=4 note=68 velocity=100 time=4\n",
      "note_on channel=4 note=71 velocity=100 time=0\n",
      "note_on channel=4 note=64 velocity=100 time=0\n",
      "note_off channel=4 note=64 velocity=0 time=1532\n",
      "note_off channel=4 note=71 velocity=0 time=0\n",
      "note_off channel=4 note=68 velocity=0 time=0\n",
      "note_on channel=4 note=73 velocity=100 time=4\n",
      "note_on channel=4 note=66 velocity=100 time=0\n",
      "note_on channel=4 note=69 velocity=100 time=0\n",
      "note_off channel=4 note=69 velocity=0 time=764\n",
      "note_off channel=4 note=66 velocity=0 time=0\n",
      "note_off channel=4 note=73 velocity=0 time=0\n",
      "note_on channel=4 note=68 velocity=100 time=4\n",
      "note_on channel=4 note=76 velocity=100 time=0\n",
      "note_on channel=4 note=71 velocity=100 time=0\n",
      "note_off channel=4 note=71 velocity=0 time=764\n",
      "note_off channel=4 note=76 velocity=0 time=0\n",
      "note_off channel=4 note=68 velocity=0 time=0\n",
      "note_on channel=4 note=76 velocity=100 time=4\n",
      "note_on channel=4 note=73 velocity=100 time=0\n",
      "note_on channel=4 note=69 velocity=100 time=0\n",
      "note_off channel=4 note=69 velocity=0 time=764\n",
      "note_off channel=4 note=73 velocity=0 time=0\n",
      "note_off channel=4 note=76 velocity=0 time=0\n",
      "note_on channel=4 note=74 velocity=100 time=4\n",
      "note_on channel=4 note=66 velocity=100 time=0\n",
      "note_on channel=4 note=69 velocity=100 time=0\n",
      "note_off channel=4 note=69 velocity=0 time=764\n",
      "note_off channel=4 note=66 velocity=0 time=0\n",
      "note_off channel=4 note=74 velocity=0 time=0\n",
      "note_on channel=4 note=78 velocity=100 time=4\n",
      "note_on channel=4 note=68 velocity=100 time=0\n",
      "note_on channel=4 note=73 velocity=100 time=0\n",
      "note_off channel=4 note=73 velocity=0 time=1532\n",
      "note_off channel=4 note=68 velocity=0 time=0\n",
      "note_off channel=4 note=78 velocity=0 time=0\n",
      "note_on channel=4 note=68 velocity=100 time=4\n",
      "note_on channel=4 note=77 velocity=100 time=0\n",
      "note_on channel=4 note=73 velocity=100 time=0\n",
      "note_off channel=4 note=73 velocity=0 time=1532\n",
      "note_off channel=4 note=77 velocity=0 time=0\n",
      "note_off channel=4 note=68 velocity=0 time=0\n",
      "note_on channel=4 note=66 velocity=100 time=4\n",
      "note_on channel=4 note=73 velocity=100 time=0\n",
      "note_on channel=4 note=69 velocity=100 time=0\n",
      "note_off channel=4 note=69 velocity=0 time=1532\n",
      "note_off channel=4 note=73 velocity=0 time=0\n",
      "note_off channel=4 note=66 velocity=0 time=0\n",
      "note_on channel=4 note=66 velocity=100 time=4\n",
      "note_on channel=4 note=69 velocity=100 time=0\n",
      "note_on channel=4 note=74 velocity=100 time=0\n",
      "note_off channel=4 note=74 velocity=0 time=1532\n",
      "note_off channel=4 note=69 velocity=0 time=0\n",
      "note_off channel=4 note=66 velocity=0 time=0\n",
      "note_on channel=4 note=66 velocity=100 time=4\n",
      "note_on channel=4 note=74 velocity=100 time=0\n",
      "note_on channel=4 note=71 velocity=100 time=0\n",
      "note_off channel=4 note=71 velocity=0 time=1532\n",
      "note_off channel=4 note=74 velocity=0 time=0\n",
      "note_off channel=4 note=66 velocity=0 time=0\n",
      "note_on channel=4 note=68 velocity=100 time=4\n",
      "note_on channel=4 note=71 velocity=100 time=0\n",
      "note_on channel=4 note=64 velocity=100 time=0\n",
      "note_off channel=4 note=64 velocity=0 time=1532\n",
      "note_off channel=4 note=71 velocity=0 time=0\n",
      "note_off channel=4 note=68 velocity=0 time=0\n",
      "note_on channel=4 note=66 velocity=100 time=4\n",
      "note_on channel=4 note=73 velocity=100 time=0\n",
      "note_on channel=4 note=69 velocity=100 time=0\n",
      "note_off channel=4 note=69 velocity=0 time=1532\n",
      "note_off channel=4 note=73 velocity=0 time=0\n",
      "note_off channel=4 note=66 velocity=0 time=0\n",
      "note_on channel=4 note=66 velocity=100 time=4\n",
      "note_on channel=4 note=69 velocity=100 time=0\n",
      "note_on channel=4 note=74 velocity=100 time=0\n",
      "note_off channel=4 note=74 velocity=0 time=1532\n",
      "note_off channel=4 note=69 velocity=0 time=0\n",
      "note_off channel=4 note=66 velocity=0 time=0\n",
      "note_on channel=4 note=66 velocity=100 time=4\n",
      "note_on channel=4 note=74 velocity=100 time=0\n",
      "note_on channel=4 note=71 velocity=100 time=0\n",
      "note_off channel=4 note=71 velocity=0 time=1532\n",
      "note_off channel=4 note=74 velocity=0 time=0\n",
      "note_off channel=4 note=66 velocity=0 time=0\n",
      "note_on channel=4 note=68 velocity=100 time=4\n",
      "note_on channel=4 note=71 velocity=100 time=0\n",
      "note_on channel=4 note=64 velocity=100 time=0\n",
      "note_off channel=4 note=64 velocity=0 time=1532\n",
      "note_off channel=4 note=71 velocity=0 time=0\n",
      "note_off channel=4 note=68 velocity=0 time=0\n",
      "note_on channel=4 note=73 velocity=100 time=4\n",
      "note_on channel=4 note=66 velocity=100 time=0\n",
      "note_on channel=4 note=69 velocity=100 time=0\n",
      "note_off channel=4 note=69 velocity=0 time=764\n",
      "note_off channel=4 note=66 velocity=0 time=0\n",
      "note_off channel=4 note=73 velocity=0 time=0\n",
      "note_on channel=4 note=68 velocity=100 time=4\n",
      "note_on channel=4 note=76 velocity=100 time=0\n",
      "note_on channel=4 note=71 velocity=100 time=0\n",
      "note_off channel=4 note=71 velocity=0 time=764\n",
      "note_off channel=4 note=76 velocity=0 time=0\n",
      "note_off channel=4 note=68 velocity=0 time=0\n",
      "note_on channel=4 note=76 velocity=100 time=4\n",
      "note_on channel=4 note=73 velocity=100 time=0\n",
      "note_on channel=4 note=69 velocity=100 time=0\n",
      "note_off channel=4 note=69 velocity=0 time=764\n",
      "note_off channel=4 note=73 velocity=0 time=0\n",
      "note_off channel=4 note=76 velocity=0 time=0\n",
      "note_on channel=4 note=74 velocity=100 time=4\n",
      "note_on channel=4 note=66 velocity=100 time=0\n",
      "note_on channel=4 note=69 velocity=100 time=0\n",
      "note_off channel=4 note=69 velocity=0 time=764\n",
      "note_off channel=4 note=66 velocity=0 time=0\n",
      "note_off channel=4 note=74 velocity=0 time=0\n",
      "note_on channel=4 note=78 velocity=100 time=4\n",
      "note_on channel=4 note=68 velocity=100 time=0\n",
      "note_on channel=4 note=73 velocity=100 time=0\n",
      "note_off channel=4 note=73 velocity=0 time=1532\n",
      "note_off channel=4 note=68 velocity=0 time=0\n",
      "note_off channel=4 note=78 velocity=0 time=0\n",
      "note_on channel=4 note=68 velocity=100 time=4\n",
      "note_on channel=4 note=77 velocity=100 time=0\n",
      "note_on channel=4 note=73 velocity=100 time=0\n",
      "note_off channel=4 note=73 velocity=0 time=1532\n",
      "note_off channel=4 note=77 velocity=0 time=0\n",
      "note_off channel=4 note=68 velocity=0 time=0\n",
      "MetaMessage('end_of_track', time=1540)\n",
      "Track 6\n",
      "MetaMessage('track_name', name='POLYSYNTH', time=0)\n",
      "program_change channel=5 program=90 time=1536\n",
      "control_change channel=5 control=7 value=127 time=0\n",
      "control_change channel=5 control=93 value=127 time=384\n",
      "control_change channel=5 control=101 value=0 time=50\n",
      "control_change channel=5 control=100 value=0 time=6\n",
      "control_change channel=5 control=6 value=7 time=8\n",
      "control_change channel=5 control=91 value=127 time=370\n",
      "control_change channel=5 control=7 value=127 time=454\n",
      "program_change channel=5 program=90 time=128\n",
      "pitchwheel channel=5 pitch=0 time=1674\n",
      "note_on channel=5 note=35 velocity=127 time=10\n",
      "pitchwheel channel=5 pitch=234 time=298\n",
      "pitchwheel channel=5 pitch=819 time=16\n",
      "pitchwheel channel=5 pitch=1404 time=18\n",
      "pitchwheel channel=5 pitch=2106 time=14\n",
      "pitchwheel channel=5 pitch=3042 time=16\n",
      "pitchwheel channel=5 pitch=3393 time=12\n",
      "pitchwheel channel=5 pitch=3861 time=20\n",
      "pitchwheel channel=5 pitch=4212 time=10\n",
      "pitchwheel channel=5 pitch=4563 time=18\n",
      "pitchwheel channel=5 pitch=4797 time=14\n",
      "pitchwheel channel=5 pitch=5148 time=18\n",
      "pitchwheel channel=5 pitch=5499 time=10\n",
      "pitchwheel channel=5 pitch=5850 time=16\n",
      "pitchwheel channel=5 pitch=6084 time=12\n",
      "pitchwheel channel=5 pitch=6552 time=20\n",
      "pitchwheel channel=5 pitch=7020 time=12\n",
      "pitchwheel channel=5 pitch=7605 time=14\n",
      "pitchwheel channel=5 pitch=7956 time=18\n",
      "pitchwheel channel=5 pitch=8191 time=14\n",
      "note_off channel=5 note=35 velocity=0 time=950\n",
      "pitchwheel channel=5 pitch=0 time=6\n",
      "note_on channel=5 note=35 velocity=127 time=10\n",
      "pitchwheel channel=5 pitch=234 time=298\n",
      "pitchwheel channel=5 pitch=819 time=16\n",
      "pitchwheel channel=5 pitch=1404 time=18\n",
      "pitchwheel channel=5 pitch=2106 time=14\n",
      "pitchwheel channel=5 pitch=3042 time=16\n",
      "pitchwheel channel=5 pitch=3393 time=12\n",
      "pitchwheel channel=5 pitch=3861 time=20\n",
      "pitchwheel channel=5 pitch=4212 time=10\n",
      "pitchwheel channel=5 pitch=4563 time=18\n",
      "pitchwheel channel=5 pitch=4797 time=14\n",
      "pitchwheel channel=5 pitch=5148 time=18\n",
      "pitchwheel channel=5 pitch=5499 time=10\n",
      "pitchwheel channel=5 pitch=5850 time=16\n",
      "pitchwheel channel=5 pitch=6084 time=12\n",
      "pitchwheel channel=5 pitch=6552 time=20\n",
      "pitchwheel channel=5 pitch=7020 time=12\n",
      "pitchwheel channel=5 pitch=7605 time=14\n",
      "pitchwheel channel=5 pitch=7956 time=18\n",
      "pitchwheel channel=5 pitch=8191 time=14\n",
      "note_off channel=5 note=35 velocity=0 time=950\n",
      "pitchwheel channel=5 pitch=0 time=6\n",
      "note_on channel=5 note=35 velocity=127 time=10\n",
      "pitchwheel channel=5 pitch=234 time=298\n",
      "pitchwheel channel=5 pitch=819 time=16\n",
      "pitchwheel channel=5 pitch=1404 time=18\n",
      "pitchwheel channel=5 pitch=2106 time=14\n",
      "pitchwheel channel=5 pitch=3042 time=16\n",
      "pitchwheel channel=5 pitch=3393 time=12\n",
      "pitchwheel channel=5 pitch=3861 time=20\n",
      "pitchwheel channel=5 pitch=4212 time=10\n",
      "pitchwheel channel=5 pitch=4563 time=18\n",
      "pitchwheel channel=5 pitch=4797 time=14\n",
      "pitchwheel channel=5 pitch=5148 time=18\n",
      "pitchwheel channel=5 pitch=5499 time=10\n",
      "pitchwheel channel=5 pitch=5850 time=16\n",
      "pitchwheel channel=5 pitch=6084 time=12\n",
      "pitchwheel channel=5 pitch=6552 time=20\n",
      "pitchwheel channel=5 pitch=7020 time=12\n",
      "pitchwheel channel=5 pitch=7605 time=14\n",
      "pitchwheel channel=5 pitch=7956 time=18\n",
      "pitchwheel channel=5 pitch=8191 time=14\n",
      "note_off channel=5 note=35 velocity=0 time=950\n",
      "pitchwheel channel=5 pitch=0 time=6\n",
      "note_on channel=5 note=35 velocity=127 time=10\n",
      "pitchwheel channel=5 pitch=234 time=298\n",
      "pitchwheel channel=5 pitch=819 time=16\n",
      "pitchwheel channel=5 pitch=1404 time=18\n",
      "pitchwheel channel=5 pitch=2106 time=14\n",
      "pitchwheel channel=5 pitch=3042 time=16\n",
      "pitchwheel channel=5 pitch=3393 time=12\n",
      "pitchwheel channel=5 pitch=3861 time=20\n",
      "pitchwheel channel=5 pitch=4212 time=10\n",
      "pitchwheel channel=5 pitch=4563 time=18\n",
      "pitchwheel channel=5 pitch=4797 time=14\n",
      "pitchwheel channel=5 pitch=5148 time=18\n",
      "pitchwheel channel=5 pitch=5499 time=10\n",
      "pitchwheel channel=5 pitch=5850 time=16\n",
      "pitchwheel channel=5 pitch=6084 time=12\n",
      "pitchwheel channel=5 pitch=6552 time=20\n",
      "pitchwheel channel=5 pitch=7020 time=12\n",
      "pitchwheel channel=5 pitch=7605 time=14\n",
      "pitchwheel channel=5 pitch=7956 time=18\n",
      "pitchwheel channel=5 pitch=8191 time=14\n",
      "note_off channel=5 note=35 velocity=0 time=950\n",
      "pitchwheel channel=5 pitch=0 time=4\n",
      "note_on channel=5 note=42 velocity=127 time=12\n",
      "note_on channel=5 note=40 velocity=127 time=1142\n",
      "note_off channel=5 note=42 velocity=0 time=14\n",
      "note_off channel=5 note=40 velocity=0 time=336\n",
      "note_on channel=5 note=38 velocity=127 time=38\n",
      "note_on channel=5 note=47 velocity=127 time=1536\n",
      "note_off channel=5 note=38 velocity=0 time=22\n",
      "note_on channel=5 note=40 velocity=127 time=1514\n",
      "note_off channel=5 note=47 velocity=0 time=10\n",
      "note_on channel=5 note=41 velocity=127 time=758\n",
      "note_off channel=5 note=40 velocity=0 time=34\n",
      "note_off channel=5 note=41 velocity=0 time=720\n",
      "pitchwheel channel=5 pitch=0 time=8\n",
      "note_on channel=5 note=42 velocity=127 time=12\n",
      "note_on channel=5 note=40 velocity=127 time=1142\n",
      "note_off channel=5 note=42 velocity=0 time=14\n",
      "note_off channel=5 note=40 velocity=0 time=336\n",
      "note_on channel=5 note=38 velocity=127 time=38\n",
      "note_on channel=5 note=47 velocity=127 time=1536\n",
      "note_off channel=5 note=38 velocity=0 time=22\n",
      "note_on channel=5 note=40 velocity=127 time=1514\n",
      "note_off channel=5 note=47 velocity=0 time=10\n",
      "note_on channel=5 note=41 velocity=127 time=758\n",
      "note_off channel=5 note=40 velocity=0 time=34\n",
      "note_off channel=5 note=41 velocity=0 time=720\n",
      "pitchwheel channel=5 pitch=0 time=8\n",
      "note_on channel=5 note=42 velocity=127 time=12\n",
      "note_on channel=5 note=40 velocity=127 time=1142\n",
      "note_off channel=5 note=42 velocity=0 time=14\n",
      "note_off channel=5 note=40 velocity=0 time=336\n",
      "note_on channel=5 note=38 velocity=127 time=38\n",
      "note_on channel=5 note=47 velocity=127 time=1536\n",
      "note_off channel=5 note=38 velocity=0 time=22\n",
      "note_on channel=5 note=40 velocity=127 time=1514\n",
      "note_off channel=5 note=47 velocity=0 time=10\n",
      "note_on channel=5 note=41 velocity=127 time=758\n",
      "note_off channel=5 note=40 velocity=0 time=34\n",
      "note_off channel=5 note=41 velocity=0 time=720\n",
      "pitchwheel channel=5 pitch=0 time=8\n",
      "note_on channel=5 note=42 velocity=127 time=12\n",
      "note_on channel=5 note=40 velocity=127 time=1142\n",
      "note_off channel=5 note=42 velocity=0 time=14\n",
      "note_off channel=5 note=40 velocity=0 time=336\n",
      "note_on channel=5 note=38 velocity=127 time=38\n",
      "note_on channel=5 note=47 velocity=127 time=1536\n",
      "note_off channel=5 note=38 velocity=0 time=22\n",
      "note_on channel=5 note=40 velocity=127 time=1514\n",
      "note_off channel=5 note=47 velocity=0 time=10\n",
      "note_on channel=5 note=41 velocity=127 time=758\n",
      "note_off channel=5 note=40 velocity=0 time=34\n",
      "note_off channel=5 note=41 velocity=0 time=720\n",
      "note_on channel=5 note=42 velocity=127 time=8\n",
      "note_off channel=5 note=42 velocity=0 time=764\n",
      "note_on channel=5 note=44 velocity=127 time=4\n",
      "note_off channel=5 note=44 velocity=0 time=764\n",
      "note_on channel=5 note=45 velocity=127 time=4\n",
      "note_off channel=5 note=45 velocity=0 time=764\n",
      "note_on channel=5 note=38 velocity=127 time=4\n",
      "note_off channel=5 note=38 velocity=0 time=764\n",
      "note_on channel=5 note=37 velocity=127 time=36\n",
      "note_off channel=5 note=37 velocity=0 time=2972\n",
      "MetaMessage('end_of_track', time=207428)\n",
      "Track 7\n",
      "MetaMessage('track_name', name='PICK BASS', time=0)\n",
      "program_change channel=6 program=34 time=1536\n",
      "control_change channel=6 control=7 value=127 time=0\n",
      "control_change channel=6 control=91 value=127 time=556\n",
      "control_change channel=6 control=93 value=127 time=6\n",
      "control_change channel=6 control=7 value=127 time=692\n",
      "program_change channel=6 program=34 time=154\n",
      "note_on channel=6 note=30 velocity=127 time=38528\n",
      "note_off channel=6 note=30 velocity=0 time=188\n",
      "note_on channel=6 note=30 velocity=127 time=4\n",
      "note_off channel=6 note=30 velocity=0 time=92\n",
      "note_on channel=6 note=30 velocity=127 time=4\n",
      "note_off channel=6 note=30 velocity=0 time=92\n",
      "note_on channel=6 note=30 velocity=127 time=4\n",
      "note_off channel=6 note=30 velocity=0 time=188\n",
      "note_on channel=6 note=30 velocity=127 time=4\n",
      "note_off channel=6 note=30 velocity=0 time=188\n",
      "note_on channel=6 note=30 velocity=127 time=4\n",
      "note_off channel=6 note=30 velocity=0 time=188\n",
      "note_on channel=6 note=30 velocity=127 time=4\n",
      "note_off channel=6 note=30 velocity=0 time=92\n",
      "note_on channel=6 note=30 velocity=127 time=4\n",
      "note_off channel=6 note=30 velocity=0 time=92\n",
      "note_on channel=6 note=30 velocity=127 time=4\n",
      "note_off channel=6 note=30 velocity=0 time=188\n",
      "note_on channel=6 note=30 velocity=127 time=4\n",
      "note_off channel=6 note=30 velocity=0 time=188\n",
      "note_on channel=6 note=38 velocity=127 time=4\n",
      "note_off channel=6 note=38 velocity=0 time=188\n",
      "note_on channel=6 note=38 velocity=127 time=4\n",
      "note_off channel=6 note=38 velocity=0 time=92\n",
      "note_on channel=6 note=38 velocity=127 time=4\n",
      "note_off channel=6 note=38 velocity=0 time=92\n",
      "note_on channel=6 note=38 velocity=127 time=4\n",
      "note_off channel=6 note=38 velocity=0 time=188\n",
      "note_on channel=6 note=38 velocity=127 time=4\n",
      "note_off channel=6 note=38 velocity=0 time=188\n",
      "note_on channel=6 note=38 velocity=127 time=4\n",
      "note_off channel=6 note=38 velocity=0 time=188\n",
      "note_on channel=6 note=38 velocity=127 time=4\n",
      "note_off channel=6 note=38 velocity=0 time=92\n",
      "note_on channel=6 note=38 velocity=127 time=4\n",
      "note_off channel=6 note=38 velocity=0 time=92\n",
      "note_on channel=6 note=38 velocity=127 time=4\n",
      "note_off channel=6 note=38 velocity=0 time=188\n",
      "note_on channel=6 note=38 velocity=127 time=4\n",
      "note_off channel=6 note=38 velocity=0 time=188\n",
      "note_on channel=6 note=35 velocity=127 time=4\n",
      "note_off channel=6 note=35 velocity=0 time=188\n",
      "note_on channel=6 note=35 velocity=127 time=4\n",
      "note_off channel=6 note=35 velocity=0 time=92\n",
      "note_on channel=6 note=35 velocity=127 time=4\n",
      "note_off channel=6 note=35 velocity=0 time=92\n",
      "note_on channel=6 note=35 velocity=127 time=4\n",
      "note_off channel=6 note=35 velocity=0 time=188\n",
      "note_on channel=6 note=35 velocity=127 time=4\n",
      "note_off channel=6 note=35 velocity=0 time=188\n",
      "note_on channel=6 note=35 velocity=127 time=4\n",
      "note_off channel=6 note=35 velocity=0 time=188\n",
      "note_on channel=6 note=35 velocity=127 time=4\n",
      "note_off channel=6 note=35 velocity=0 time=92\n",
      "note_on channel=6 note=35 velocity=127 time=4\n",
      "note_off channel=6 note=35 velocity=0 time=92\n",
      "note_on channel=6 note=35 velocity=127 time=4\n",
      "note_off channel=6 note=35 velocity=0 time=188\n",
      "note_on channel=6 note=35 velocity=127 time=4\n",
      "note_off channel=6 note=35 velocity=0 time=188\n",
      "note_on channel=6 note=28 velocity=127 time=4\n",
      "note_off channel=6 note=28 velocity=0 time=188\n",
      "note_on channel=6 note=28 velocity=127 time=4\n",
      "note_off channel=6 note=28 velocity=0 time=92\n",
      "note_on channel=6 note=28 velocity=127 time=4\n",
      "note_off channel=6 note=28 velocity=0 time=92\n",
      "note_on channel=6 note=28 velocity=127 time=4\n",
      "note_off channel=6 note=28 velocity=0 time=188\n",
      "note_on channel=6 note=28 velocity=127 time=4\n",
      "note_off channel=6 note=28 velocity=0 time=188\n",
      "note_on channel=6 note=28 velocity=127 time=4\n",
      "note_off channel=6 note=28 velocity=0 time=188\n",
      "note_on channel=6 note=28 velocity=127 time=4\n",
      "note_off channel=6 note=28 velocity=0 time=92\n",
      "note_on channel=6 note=28 velocity=127 time=4\n",
      "note_off channel=6 note=28 velocity=0 time=92\n",
      "note_on channel=6 note=28 velocity=127 time=4\n",
      "note_off channel=6 note=28 velocity=0 time=188\n",
      "note_on channel=6 note=28 velocity=127 time=4\n",
      "note_off channel=6 note=28 velocity=0 time=188\n",
      "note_on channel=6 note=30 velocity=127 time=4\n",
      "note_off channel=6 note=30 velocity=0 time=188\n",
      "note_on channel=6 note=30 velocity=127 time=4\n",
      "note_off channel=6 note=30 velocity=0 time=92\n",
      "note_on channel=6 note=30 velocity=127 time=4\n",
      "note_off channel=6 note=30 velocity=0 time=92\n",
      "note_on channel=6 note=30 velocity=127 time=4\n",
      "note_off channel=6 note=30 velocity=0 time=188\n",
      "note_on channel=6 note=30 velocity=127 time=4\n",
      "note_off channel=6 note=30 velocity=0 time=188\n",
      "note_on channel=6 note=30 velocity=127 time=4\n",
      "note_off channel=6 note=30 velocity=0 time=188\n",
      "note_on channel=6 note=30 velocity=127 time=4\n",
      "note_off channel=6 note=30 velocity=0 time=92\n",
      "note_on channel=6 note=30 velocity=127 time=4\n",
      "note_off channel=6 note=30 velocity=0 time=92\n",
      "note_on channel=6 note=30 velocity=127 time=4\n",
      "note_off channel=6 note=30 velocity=0 time=188\n",
      "note_on channel=6 note=30 velocity=127 time=4\n",
      "note_off channel=6 note=30 velocity=0 time=188\n",
      "note_on channel=6 note=38 velocity=127 time=4\n",
      "note_off channel=6 note=38 velocity=0 time=188\n",
      "note_on channel=6 note=38 velocity=127 time=4\n",
      "note_off channel=6 note=38 velocity=0 time=92\n",
      "note_on channel=6 note=38 velocity=127 time=4\n",
      "note_off channel=6 note=38 velocity=0 time=92\n",
      "note_on channel=6 note=38 velocity=127 time=4\n",
      "note_off channel=6 note=38 velocity=0 time=188\n",
      "note_on channel=6 note=38 velocity=127 time=4\n",
      "note_off channel=6 note=38 velocity=0 time=188\n",
      "note_on channel=6 note=38 velocity=127 time=4\n",
      "note_off channel=6 note=38 velocity=0 time=188\n",
      "note_on channel=6 note=38 velocity=127 time=4\n",
      "note_off channel=6 note=38 velocity=0 time=92\n",
      "note_on channel=6 note=38 velocity=127 time=4\n",
      "note_off channel=6 note=38 velocity=0 time=92\n",
      "note_on channel=6 note=38 velocity=127 time=4\n",
      "note_off channel=6 note=38 velocity=0 time=188\n",
      "note_on channel=6 note=38 velocity=127 time=4\n",
      "note_off channel=6 note=38 velocity=0 time=188\n",
      "note_on channel=6 note=35 velocity=127 time=4\n",
      "note_off channel=6 note=35 velocity=0 time=188\n",
      "note_on channel=6 note=35 velocity=127 time=4\n",
      "note_off channel=6 note=35 velocity=0 time=92\n",
      "note_on channel=6 note=35 velocity=127 time=4\n",
      "note_off channel=6 note=35 velocity=0 time=92\n",
      "note_on channel=6 note=35 velocity=127 time=4\n",
      "note_off channel=6 note=35 velocity=0 time=188\n",
      "note_on channel=6 note=35 velocity=127 time=4\n",
      "note_off channel=6 note=35 velocity=0 time=188\n",
      "note_on channel=6 note=35 velocity=127 time=4\n",
      "note_off channel=6 note=35 velocity=0 time=188\n",
      "note_on channel=6 note=35 velocity=127 time=4\n",
      "note_off channel=6 note=35 velocity=0 time=92\n",
      "note_on channel=6 note=35 velocity=127 time=4\n",
      "note_off channel=6 note=35 velocity=0 time=92\n",
      "note_on channel=6 note=35 velocity=127 time=4\n",
      "note_off channel=6 note=35 velocity=0 time=188\n",
      "note_on channel=6 note=35 velocity=127 time=4\n",
      "note_off channel=6 note=35 velocity=0 time=188\n",
      "note_on channel=6 note=28 velocity=127 time=4\n",
      "note_off channel=6 note=28 velocity=0 time=188\n",
      "note_on channel=6 note=28 velocity=127 time=4\n",
      "note_off channel=6 note=28 velocity=0 time=92\n",
      "note_on channel=6 note=28 velocity=127 time=4\n",
      "note_off channel=6 note=28 velocity=0 time=92\n",
      "note_on channel=6 note=28 velocity=127 time=4\n",
      "note_off channel=6 note=28 velocity=0 time=188\n",
      "note_on channel=6 note=28 velocity=127 time=4\n",
      "note_off channel=6 note=28 velocity=0 time=188\n",
      "note_on channel=6 note=28 velocity=127 time=4\n",
      "note_off channel=6 note=28 velocity=0 time=188\n",
      "note_on channel=6 note=28 velocity=127 time=4\n",
      "note_off channel=6 note=28 velocity=0 time=92\n",
      "note_on channel=6 note=28 velocity=127 time=4\n",
      "note_off channel=6 note=28 velocity=0 time=92\n",
      "note_on channel=6 note=28 velocity=127 time=4\n",
      "note_off channel=6 note=28 velocity=0 time=188\n",
      "note_on channel=6 note=28 velocity=127 time=4\n",
      "note_off channel=6 note=28 velocity=0 time=188\n",
      "note_on channel=6 note=30 velocity=127 time=4\n",
      "note_off channel=6 note=30 velocity=0 time=188\n",
      "note_on channel=6 note=30 velocity=127 time=4\n",
      "note_off channel=6 note=30 velocity=0 time=92\n",
      "note_on channel=6 note=30 velocity=127 time=4\n",
      "note_off channel=6 note=30 velocity=0 time=92\n",
      "note_on channel=6 note=30 velocity=127 time=4\n",
      "note_off channel=6 note=30 velocity=0 time=188\n",
      "note_on channel=6 note=30 velocity=127 time=4\n",
      "note_off channel=6 note=30 velocity=0 time=92\n",
      "note_on channel=6 note=30 velocity=127 time=4\n",
      "note_off channel=6 note=30 velocity=0 time=92\n",
      "note_on channel=6 note=32 velocity=127 time=4\n",
      "note_off channel=6 note=32 velocity=0 time=188\n",
      "note_on channel=6 note=32 velocity=127 time=4\n",
      "note_off channel=6 note=32 velocity=0 time=92\n",
      "note_on channel=6 note=32 velocity=127 time=4\n",
      "note_off channel=6 note=32 velocity=0 time=92\n",
      "note_on channel=6 note=32 velocity=127 time=4\n",
      "note_off channel=6 note=32 velocity=0 time=188\n",
      "note_on channel=6 note=32 velocity=127 time=4\n",
      "note_off channel=6 note=32 velocity=0 time=92\n",
      "note_on channel=6 note=32 velocity=127 time=4\n",
      "note_off channel=6 note=32 velocity=0 time=92\n",
      "note_on channel=6 note=33 velocity=127 time=4\n",
      "note_off channel=6 note=33 velocity=0 time=188\n",
      "note_on channel=6 note=33 velocity=127 time=4\n",
      "note_off channel=6 note=33 velocity=0 time=92\n",
      "note_on channel=6 note=33 velocity=127 time=4\n",
      "note_off channel=6 note=33 velocity=0 time=92\n",
      "note_on channel=6 note=33 velocity=127 time=4\n",
      "note_off channel=6 note=33 velocity=0 time=188\n",
      "note_on channel=6 note=33 velocity=127 time=4\n",
      "note_off channel=6 note=33 velocity=0 time=92\n",
      "note_on channel=6 note=33 velocity=127 time=4\n",
      "note_off channel=6 note=33 velocity=0 time=92\n",
      "note_on channel=6 note=38 velocity=127 time=4\n",
      "note_off channel=6 note=38 velocity=0 time=188\n",
      "note_on channel=6 note=38 velocity=127 time=4\n",
      "note_off channel=6 note=38 velocity=0 time=92\n",
      "note_on channel=6 note=38 velocity=127 time=4\n",
      "note_off channel=6 note=38 velocity=0 time=92\n",
      "note_on channel=6 note=38 velocity=127 time=4\n",
      "note_off channel=6 note=38 velocity=0 time=188\n",
      "note_on channel=6 note=38 velocity=127 time=4\n",
      "note_off channel=6 note=38 velocity=0 time=92\n",
      "note_on channel=6 note=38 velocity=127 time=4\n",
      "note_off channel=6 note=38 velocity=0 time=92\n",
      "note_on channel=6 note=37 velocity=127 time=4\n",
      "note_off channel=6 note=37 velocity=0 time=188\n",
      "note_on channel=6 note=37 velocity=127 time=4\n",
      "note_off channel=6 note=37 velocity=0 time=92\n",
      "note_on channel=6 note=37 velocity=127 time=4\n",
      "note_off channel=6 note=37 velocity=0 time=92\n",
      "note_on channel=6 note=37 velocity=127 time=4\n",
      "note_off channel=6 note=37 velocity=0 time=188\n",
      "note_on channel=6 note=37 velocity=127 time=4\n",
      "note_off channel=6 note=37 velocity=0 time=92\n",
      "note_on channel=6 note=37 velocity=127 time=4\n",
      "note_off channel=6 note=37 velocity=0 time=92\n",
      "note_on channel=6 note=37 velocity=127 time=4\n",
      "note_off channel=6 note=37 velocity=0 time=188\n",
      "note_on channel=6 note=37 velocity=127 time=4\n",
      "note_off channel=6 note=37 velocity=0 time=92\n",
      "note_on channel=6 note=37 velocity=127 time=4\n",
      "note_off channel=6 note=37 velocity=0 time=92\n",
      "note_on channel=6 note=37 velocity=127 time=4\n",
      "note_off channel=6 note=37 velocity=0 time=188\n",
      "note_on channel=6 note=37 velocity=127 time=4\n",
      "note_off channel=6 note=37 velocity=0 time=92\n",
      "note_on channel=6 note=37 velocity=127 time=4\n",
      "note_off channel=6 note=37 velocity=0 time=92\n",
      "note_on channel=6 note=37 velocity=127 time=4\n",
      "note_off channel=6 note=37 velocity=0 time=188\n",
      "note_on channel=6 note=37 velocity=127 time=4\n",
      "note_off channel=6 note=37 velocity=0 time=92\n",
      "note_on channel=6 note=37 velocity=127 time=4\n",
      "note_off channel=6 note=37 velocity=0 time=92\n",
      "note_on channel=6 note=37 velocity=127 time=4\n",
      "note_off channel=6 note=37 velocity=0 time=188\n",
      "note_on channel=6 note=37 velocity=127 time=4\n",
      "note_off channel=6 note=37 velocity=0 time=92\n",
      "note_on channel=6 note=37 velocity=127 time=4\n",
      "note_off channel=6 note=37 velocity=0 time=92\n",
      "note_on channel=6 note=37 velocity=127 time=4\n",
      "note_off channel=6 note=37 velocity=0 time=188\n",
      "note_on channel=6 note=37 velocity=127 time=4\n",
      "note_off channel=6 note=37 velocity=0 time=92\n",
      "note_on channel=6 note=37 velocity=127 time=4\n",
      "note_off channel=6 note=37 velocity=0 time=92\n",
      "note_on channel=6 note=37 velocity=127 time=4\n",
      "note_off channel=6 note=37 velocity=0 time=188\n",
      "note_on channel=6 note=37 velocity=127 time=4\n",
      "note_off channel=6 note=37 velocity=0 time=92\n",
      "note_on channel=6 note=37 velocity=127 time=4\n",
      "note_off channel=6 note=37 velocity=0 time=92\n",
      "note_on channel=6 note=30 velocity=127 time=4\n",
      "note_off channel=6 note=30 velocity=0 time=188\n",
      "note_on channel=6 note=30 velocity=127 time=4\n",
      "note_off channel=6 note=30 velocity=0 time=92\n",
      "note_on channel=6 note=30 velocity=127 time=4\n",
      "note_off channel=6 note=30 velocity=0 time=92\n",
      "note_on channel=6 note=30 velocity=127 time=4\n",
      "note_off channel=6 note=30 velocity=0 time=188\n",
      "note_on channel=6 note=30 velocity=127 time=4\n",
      "note_off channel=6 note=30 velocity=0 time=188\n",
      "note_on channel=6 note=30 velocity=127 time=4\n",
      "note_off channel=6 note=30 velocity=0 time=188\n",
      "note_on channel=6 note=30 velocity=127 time=4\n",
      "note_off channel=6 note=30 velocity=0 time=92\n",
      "note_on channel=6 note=30 velocity=127 time=4\n",
      "note_off channel=6 note=30 velocity=0 time=92\n",
      "note_on channel=6 note=30 velocity=127 time=4\n",
      "note_off channel=6 note=30 velocity=0 time=188\n",
      "note_on channel=6 note=30 velocity=127 time=4\n",
      "note_off channel=6 note=30 velocity=0 time=188\n",
      "note_on channel=6 note=30 velocity=127 time=4\n",
      "note_off channel=6 note=30 velocity=0 time=188\n",
      "note_on channel=6 note=30 velocity=127 time=4\n",
      "note_off channel=6 note=30 velocity=0 time=92\n",
      "note_on channel=6 note=30 velocity=127 time=4\n",
      "note_off channel=6 note=30 velocity=0 time=92\n",
      "note_on channel=6 note=30 velocity=127 time=4\n",
      "note_off channel=6 note=30 velocity=0 time=188\n",
      "note_on channel=6 note=30 velocity=127 time=4\n",
      "note_off channel=6 note=30 velocity=0 time=188\n",
      "note_on channel=6 note=30 velocity=127 time=4\n",
      "note_off channel=6 note=30 velocity=0 time=188\n",
      "note_on channel=6 note=30 velocity=127 time=4\n",
      "note_off channel=6 note=30 velocity=0 time=92\n",
      "note_on channel=6 note=30 velocity=127 time=4\n",
      "note_off channel=6 note=30 velocity=0 time=92\n",
      "note_on channel=6 note=30 velocity=127 time=4\n",
      "note_off channel=6 note=30 velocity=0 time=188\n",
      "note_on channel=6 note=30 velocity=127 time=4\n",
      "note_off channel=6 note=30 velocity=0 time=188\n",
      "note_on channel=6 note=30 velocity=127 time=4\n",
      "note_off channel=6 note=30 velocity=0 time=188\n",
      "note_on channel=6 note=30 velocity=127 time=4\n",
      "note_off channel=6 note=30 velocity=0 time=92\n",
      "note_on channel=6 note=30 velocity=127 time=4\n",
      "note_off channel=6 note=30 velocity=0 time=92\n",
      "note_on channel=6 note=30 velocity=127 time=4\n",
      "note_off channel=6 note=30 velocity=0 time=188\n",
      "note_on channel=6 note=30 velocity=127 time=4\n",
      "note_off channel=6 note=30 velocity=0 time=188\n",
      "note_on channel=6 note=30 velocity=127 time=4\n",
      "note_off channel=6 note=30 velocity=0 time=188\n",
      "note_on channel=6 note=30 velocity=127 time=4\n",
      "note_off channel=6 note=30 velocity=0 time=92\n",
      "note_on channel=6 note=30 velocity=127 time=4\n",
      "note_off channel=6 note=30 velocity=0 time=92\n",
      "note_on channel=6 note=30 velocity=127 time=4\n",
      "note_off channel=6 note=30 velocity=0 time=188\n",
      "note_on channel=6 note=30 velocity=127 time=4\n",
      "note_off channel=6 note=30 velocity=0 time=188\n",
      "note_on channel=6 note=30 velocity=127 time=4\n",
      "note_off channel=6 note=30 velocity=0 time=188\n",
      "note_on channel=6 note=30 velocity=127 time=4\n",
      "note_off channel=6 note=30 velocity=0 time=92\n",
      "note_on channel=6 note=30 velocity=127 time=4\n",
      "note_off channel=6 note=30 velocity=0 time=92\n",
      "note_on channel=6 note=30 velocity=127 time=4\n",
      "note_off channel=6 note=30 velocity=0 time=188\n",
      "note_on channel=6 note=30 velocity=127 time=4\n",
      "note_off channel=6 note=30 velocity=0 time=188\n",
      "note_on channel=6 note=30 velocity=127 time=4\n",
      "note_off channel=6 note=30 velocity=0 time=188\n",
      "note_on channel=6 note=30 velocity=127 time=4\n",
      "note_off channel=6 note=30 velocity=0 time=92\n",
      "note_on channel=6 note=30 velocity=127 time=4\n",
      "note_off channel=6 note=30 velocity=0 time=92\n",
      "note_on channel=6 note=30 velocity=127 time=4\n",
      "note_off channel=6 note=30 velocity=0 time=188\n",
      "note_on channel=6 note=30 velocity=127 time=4\n",
      "note_off channel=6 note=30 velocity=0 time=188\n",
      "note_on channel=6 note=30 velocity=127 time=4\n",
      "note_off channel=6 note=30 velocity=0 time=188\n",
      "note_on channel=6 note=30 velocity=127 time=4\n",
      "note_off channel=6 note=30 velocity=0 time=92\n",
      "note_on channel=6 note=30 velocity=127 time=4\n",
      "note_off channel=6 note=30 velocity=0 time=92\n",
      "note_on channel=6 note=30 velocity=127 time=4\n",
      "note_off channel=6 note=30 velocity=0 time=188\n",
      "note_on channel=6 note=28 velocity=127 time=4\n",
      "note_off channel=6 note=28 velocity=0 time=188\n",
      "note_on channel=6 note=30 velocity=127 time=4\n",
      "note_off channel=6 note=30 velocity=0 time=188\n",
      "note_on channel=6 note=30 velocity=127 time=4\n",
      "note_off channel=6 note=30 velocity=0 time=92\n",
      "note_on channel=6 note=30 velocity=127 time=4\n",
      "note_off channel=6 note=30 velocity=0 time=92\n",
      "note_on channel=6 note=30 velocity=127 time=4\n",
      "note_off channel=6 note=30 velocity=0 time=188\n",
      "note_on channel=6 note=28 velocity=127 time=4\n",
      "note_off channel=6 note=28 velocity=0 time=188\n",
      "note_on channel=6 note=30 velocity=127 time=4\n",
      "note_off channel=6 note=30 velocity=0 time=188\n",
      "note_on channel=6 note=30 velocity=127 time=4\n",
      "note_off channel=6 note=30 velocity=0 time=92\n",
      "note_on channel=6 note=30 velocity=127 time=4\n",
      "note_off channel=6 note=30 velocity=0 time=92\n",
      "note_on channel=6 note=30 velocity=127 time=4\n",
      "note_off channel=6 note=30 velocity=0 time=188\n",
      "note_on channel=6 note=28 velocity=127 time=4\n",
      "note_off channel=6 note=28 velocity=0 time=188\n",
      "note_on channel=6 note=30 velocity=127 time=4\n",
      "note_off channel=6 note=30 velocity=0 time=188\n",
      "note_on channel=6 note=30 velocity=127 time=4\n",
      "note_off channel=6 note=30 velocity=0 time=92\n",
      "note_on channel=6 note=30 velocity=127 time=4\n",
      "note_off channel=6 note=30 velocity=0 time=92\n",
      "note_on channel=6 note=30 velocity=127 time=4\n",
      "note_off channel=6 note=30 velocity=0 time=188\n",
      "note_on channel=6 note=28 velocity=127 time=4\n",
      "note_off channel=6 note=28 velocity=0 time=188\n",
      "note_on channel=6 note=30 velocity=127 time=4\n",
      "note_off channel=6 note=30 velocity=0 time=188\n",
      "note_on channel=6 note=30 velocity=127 time=4\n",
      "note_off channel=6 note=30 velocity=0 time=92\n",
      "note_on channel=6 note=30 velocity=127 time=4\n",
      "note_off channel=6 note=30 velocity=0 time=92\n",
      "note_on channel=6 note=30 velocity=127 time=4\n",
      "note_off channel=6 note=30 velocity=0 time=188\n",
      "note_on channel=6 note=28 velocity=127 time=4\n",
      "note_off channel=6 note=28 velocity=0 time=188\n",
      "note_on channel=6 note=30 velocity=127 time=4\n",
      "note_off channel=6 note=30 velocity=0 time=188\n",
      "note_on channel=6 note=30 velocity=127 time=4\n",
      "note_off channel=6 note=30 velocity=0 time=92\n",
      "note_on channel=6 note=30 velocity=127 time=4\n",
      "note_off channel=6 note=30 velocity=0 time=92\n",
      "note_on channel=6 note=30 velocity=127 time=4\n",
      "note_off channel=6 note=30 velocity=0 time=188\n",
      "note_on channel=6 note=28 velocity=127 time=4\n",
      "note_off channel=6 note=28 velocity=0 time=188\n",
      "note_on channel=6 note=35 velocity=127 time=4\n",
      "note_off channel=6 note=35 velocity=0 time=188\n",
      "note_on channel=6 note=35 velocity=127 time=4\n",
      "note_off channel=6 note=35 velocity=0 time=92\n",
      "note_on channel=6 note=35 velocity=127 time=4\n",
      "note_off channel=6 note=35 velocity=0 time=92\n",
      "note_on channel=6 note=35 velocity=127 time=4\n",
      "note_off channel=6 note=35 velocity=0 time=188\n",
      "note_on channel=6 note=33 velocity=127 time=4\n",
      "note_off channel=6 note=33 velocity=0 time=188\n",
      "note_on channel=6 note=35 velocity=127 time=4\n",
      "note_off channel=6 note=35 velocity=0 time=188\n",
      "note_on channel=6 note=35 velocity=127 time=4\n",
      "note_off channel=6 note=35 velocity=0 time=92\n",
      "note_on channel=6 note=35 velocity=127 time=4\n",
      "note_off channel=6 note=35 velocity=0 time=92\n",
      "note_on channel=6 note=35 velocity=127 time=4\n",
      "note_off channel=6 note=35 velocity=0 time=188\n",
      "note_on channel=6 note=33 velocity=127 time=4\n",
      "note_off channel=6 note=33 velocity=0 time=188\n",
      "note_on channel=6 note=30 velocity=127 time=4\n",
      "note_off channel=6 note=30 velocity=0 time=188\n",
      "note_on channel=6 note=30 velocity=127 time=4\n",
      "note_off channel=6 note=30 velocity=0 time=92\n",
      "note_on channel=6 note=30 velocity=127 time=4\n",
      "note_off channel=6 note=30 velocity=0 time=92\n",
      "note_on channel=6 note=30 velocity=127 time=4\n",
      "note_off channel=6 note=30 velocity=0 time=188\n",
      "note_on channel=6 note=28 velocity=127 time=4\n",
      "note_off channel=6 note=28 velocity=0 time=188\n",
      "note_on channel=6 note=30 velocity=127 time=4\n",
      "note_off channel=6 note=30 velocity=0 time=188\n",
      "note_on channel=6 note=30 velocity=127 time=4\n",
      "note_off channel=6 note=30 velocity=0 time=92\n",
      "note_on channel=6 note=30 velocity=127 time=4\n",
      "note_off channel=6 note=30 velocity=0 time=92\n",
      "note_on channel=6 note=30 velocity=127 time=4\n",
      "note_off channel=6 note=30 velocity=0 time=188\n",
      "note_on channel=6 note=28 velocity=127 time=4\n",
      "note_off channel=6 note=28 velocity=0 time=188\n",
      "note_on channel=6 note=30 velocity=127 time=4\n",
      "note_off channel=6 note=30 velocity=0 time=188\n",
      "note_on channel=6 note=30 velocity=127 time=4\n",
      "note_off channel=6 note=30 velocity=0 time=92\n",
      "note_on channel=6 note=30 velocity=127 time=4\n",
      "note_off channel=6 note=30 velocity=0 time=92\n",
      "note_on channel=6 note=30 velocity=127 time=4\n",
      "note_off channel=6 note=30 velocity=0 time=188\n",
      "note_on channel=6 note=28 velocity=127 time=4\n",
      "note_off channel=6 note=28 velocity=0 time=188\n",
      "note_on channel=6 note=30 velocity=127 time=4\n",
      "note_off channel=6 note=30 velocity=0 time=188\n",
      "note_on channel=6 note=30 velocity=127 time=4\n",
      "note_off channel=6 note=30 velocity=0 time=92\n",
      "note_on channel=6 note=30 velocity=127 time=4\n",
      "note_off channel=6 note=30 velocity=0 time=92\n",
      "note_on channel=6 note=30 velocity=127 time=4\n",
      "note_off channel=6 note=30 velocity=0 time=188\n",
      "note_on channel=6 note=28 velocity=127 time=4\n",
      "note_off channel=6 note=28 velocity=0 time=188\n",
      "note_on channel=6 note=30 velocity=127 time=4\n",
      "note_off channel=6 note=30 velocity=0 time=188\n",
      "note_on channel=6 note=30 velocity=127 time=4\n",
      "note_off channel=6 note=30 velocity=0 time=92\n",
      "note_on channel=6 note=30 velocity=127 time=4\n",
      "note_off channel=6 note=30 velocity=0 time=92\n",
      "note_on channel=6 note=30 velocity=127 time=4\n",
      "note_off channel=6 note=30 velocity=0 time=188\n",
      "note_on channel=6 note=28 velocity=127 time=4\n",
      "note_off channel=6 note=28 velocity=0 time=188\n",
      "note_on channel=6 note=32 velocity=127 time=4\n",
      "note_off channel=6 note=32 velocity=0 time=188\n",
      "note_on channel=6 note=32 velocity=127 time=4\n",
      "note_off channel=6 note=32 velocity=0 time=92\n",
      "note_on channel=6 note=32 velocity=127 time=4\n",
      "note_off channel=6 note=32 velocity=0 time=92\n",
      "note_on channel=6 note=32 velocity=127 time=4\n",
      "note_off channel=6 note=32 velocity=0 time=188\n",
      "note_on channel=6 note=28 velocity=127 time=4\n",
      "note_off channel=6 note=28 velocity=0 time=188\n",
      "note_on channel=6 note=33 velocity=127 time=4\n",
      "note_off channel=6 note=33 velocity=0 time=188\n",
      "note_on channel=6 note=33 velocity=127 time=4\n",
      "note_off channel=6 note=33 velocity=0 time=92\n",
      "note_on channel=6 note=33 velocity=127 time=4\n",
      "note_off channel=6 note=33 velocity=0 time=92\n",
      "note_on channel=6 note=33 velocity=127 time=4\n",
      "note_off channel=6 note=33 velocity=0 time=188\n",
      "note_on channel=6 note=33 velocity=127 time=4\n",
      "note_off channel=6 note=33 velocity=0 time=188\n",
      "note_on channel=6 note=33 velocity=127 time=4\n",
      "note_off channel=6 note=33 velocity=0 time=188\n",
      "note_on channel=6 note=33 velocity=127 time=4\n",
      "note_off channel=6 note=33 velocity=0 time=92\n",
      "note_on channel=6 note=33 velocity=127 time=4\n",
      "note_off channel=6 note=33 velocity=0 time=92\n",
      "note_on channel=6 note=33 velocity=127 time=4\n",
      "note_off channel=6 note=33 velocity=0 time=188\n",
      "note_on channel=6 note=33 velocity=127 time=4\n",
      "note_off channel=6 note=33 velocity=0 time=188\n",
      "note_on channel=6 note=38 velocity=127 time=4\n",
      "note_off channel=6 note=38 velocity=0 time=188\n",
      "note_on channel=6 note=38 velocity=127 time=4\n",
      "note_off channel=6 note=38 velocity=0 time=92\n",
      "note_on channel=6 note=38 velocity=127 time=4\n",
      "note_off channel=6 note=38 velocity=0 time=92\n",
      "note_on channel=6 note=38 velocity=127 time=4\n",
      "note_off channel=6 note=38 velocity=0 time=188\n",
      "note_on channel=6 note=38 velocity=127 time=4\n",
      "note_off channel=6 note=38 velocity=0 time=188\n",
      "note_on channel=6 note=38 velocity=127 time=4\n",
      "note_off channel=6 note=38 velocity=0 time=188\n",
      "note_on channel=6 note=38 velocity=127 time=4\n",
      "note_off channel=6 note=38 velocity=0 time=92\n",
      "note_on channel=6 note=38 velocity=127 time=4\n",
      "note_off channel=6 note=38 velocity=0 time=92\n",
      "note_on channel=6 note=38 velocity=127 time=4\n",
      "note_off channel=6 note=38 velocity=0 time=188\n",
      "note_on channel=6 note=38 velocity=127 time=4\n",
      "note_off channel=6 note=38 velocity=0 time=188\n",
      "note_on channel=6 note=40 velocity=127 time=4\n",
      "note_off channel=6 note=40 velocity=0 time=188\n",
      "note_on channel=6 note=40 velocity=127 time=4\n",
      "note_off channel=6 note=40 velocity=0 time=92\n",
      "note_on channel=6 note=40 velocity=127 time=4\n",
      "note_off channel=6 note=40 velocity=0 time=92\n",
      "note_on channel=6 note=40 velocity=127 time=4\n",
      "note_off channel=6 note=40 velocity=0 time=188\n",
      "note_on channel=6 note=40 velocity=127 time=4\n",
      "note_off channel=6 note=40 velocity=0 time=188\n",
      "note_on channel=6 note=40 velocity=127 time=4\n",
      "note_off channel=6 note=40 velocity=0 time=188\n",
      "note_on channel=6 note=40 velocity=127 time=4\n",
      "note_off channel=6 note=40 velocity=0 time=92\n",
      "note_on channel=6 note=40 velocity=127 time=4\n",
      "note_off channel=6 note=40 velocity=0 time=92\n",
      "note_on channel=6 note=40 velocity=127 time=4\n",
      "note_off channel=6 note=40 velocity=0 time=188\n",
      "note_on channel=6 note=40 velocity=127 time=4\n",
      "note_off channel=6 note=40 velocity=0 time=188\n",
      "note_on channel=6 note=33 velocity=127 time=4\n",
      "note_off channel=6 note=33 velocity=0 time=188\n",
      "note_on channel=6 note=33 velocity=127 time=4\n",
      "note_off channel=6 note=33 velocity=0 time=92\n",
      "note_on channel=6 note=33 velocity=127 time=4\n",
      "note_off channel=6 note=33 velocity=0 time=92\n",
      "note_on channel=6 note=33 velocity=127 time=4\n",
      "note_off channel=6 note=33 velocity=0 time=188\n",
      "note_on channel=6 note=33 velocity=127 time=4\n",
      "note_off channel=6 note=33 velocity=0 time=188\n",
      "note_on channel=6 note=32 velocity=127 time=4\n",
      "note_off channel=6 note=32 velocity=0 time=188\n",
      "note_on channel=6 note=32 velocity=127 time=4\n",
      "note_off channel=6 note=32 velocity=0 time=92\n",
      "note_on channel=6 note=32 velocity=127 time=4\n",
      "note_off channel=6 note=32 velocity=0 time=92\n",
      "note_on channel=6 note=32 velocity=127 time=4\n",
      "note_off channel=6 note=32 velocity=0 time=188\n",
      "note_on channel=6 note=32 velocity=127 time=4\n",
      "note_off channel=6 note=32 velocity=0 time=188\n",
      "note_on channel=6 note=30 velocity=127 time=4\n",
      "note_off channel=6 note=30 velocity=0 time=188\n",
      "note_on channel=6 note=30 velocity=127 time=4\n",
      "note_off channel=6 note=30 velocity=0 time=92\n",
      "note_on channel=6 note=30 velocity=127 time=4\n",
      "note_off channel=6 note=30 velocity=0 time=92\n",
      "note_on channel=6 note=30 velocity=127 time=4\n",
      "note_off channel=6 note=30 velocity=0 time=188\n",
      "note_on channel=6 note=30 velocity=127 time=4\n",
      "note_off channel=6 note=30 velocity=0 time=188\n",
      "note_on channel=6 note=28 velocity=127 time=4\n",
      "note_off channel=6 note=28 velocity=0 time=188\n",
      "note_on channel=6 note=28 velocity=127 time=4\n",
      "note_off channel=6 note=28 velocity=0 time=92\n",
      "note_on channel=6 note=28 velocity=127 time=4\n",
      "note_off channel=6 note=28 velocity=0 time=92\n",
      "note_on channel=6 note=28 velocity=127 time=4\n",
      "note_off channel=6 note=28 velocity=0 time=188\n",
      "note_on channel=6 note=28 velocity=127 time=4\n",
      "note_off channel=6 note=28 velocity=0 time=188\n",
      "note_on channel=6 note=38 velocity=127 time=4\n",
      "note_off channel=6 note=38 velocity=0 time=188\n",
      "note_on channel=6 note=38 velocity=127 time=4\n",
      "note_off channel=6 note=38 velocity=0 time=92\n",
      "note_on channel=6 note=38 velocity=127 time=4\n",
      "note_off channel=6 note=38 velocity=0 time=92\n",
      "note_on channel=6 note=38 velocity=127 time=4\n",
      "note_off channel=6 note=38 velocity=0 time=188\n",
      "note_on channel=6 note=38 velocity=127 time=4\n",
      "note_off channel=6 note=38 velocity=0 time=188\n",
      "note_on channel=6 note=38 velocity=127 time=4\n",
      "note_off channel=6 note=38 velocity=0 time=188\n",
      "note_on channel=6 note=38 velocity=127 time=4\n",
      "note_off channel=6 note=38 velocity=0 time=92\n",
      "note_on channel=6 note=38 velocity=127 time=4\n",
      "note_off channel=6 note=38 velocity=0 time=92\n",
      "note_on channel=6 note=38 velocity=127 time=4\n",
      "note_off channel=6 note=38 velocity=0 time=188\n",
      "note_on channel=6 note=38 velocity=127 time=4\n",
      "note_off channel=6 note=38 velocity=0 time=188\n",
      "note_on channel=6 note=37 velocity=127 time=4\n",
      "note_off channel=6 note=37 velocity=0 time=188\n",
      "note_on channel=6 note=37 velocity=127 time=4\n",
      "note_off channel=6 note=37 velocity=0 time=92\n",
      "note_on channel=6 note=37 velocity=127 time=4\n",
      "note_off channel=6 note=37 velocity=0 time=92\n",
      "note_on channel=6 note=37 velocity=127 time=4\n",
      "note_off channel=6 note=37 velocity=0 time=188\n",
      "note_on channel=6 note=37 velocity=127 time=4\n",
      "note_off channel=6 note=37 velocity=0 time=188\n",
      "note_on channel=6 note=37 velocity=127 time=4\n",
      "note_off channel=6 note=37 velocity=0 time=188\n",
      "note_on channel=6 note=37 velocity=127 time=4\n",
      "note_off channel=6 note=37 velocity=0 time=92\n",
      "note_on channel=6 note=37 velocity=127 time=4\n",
      "note_off channel=6 note=37 velocity=0 time=92\n",
      "note_on channel=6 note=37 velocity=127 time=4\n",
      "note_off channel=6 note=37 velocity=0 time=188\n",
      "note_on channel=6 note=37 velocity=127 time=4\n",
      "note_off channel=6 note=37 velocity=0 time=188\n",
      "note_on channel=6 note=40 velocity=127 time=196\n",
      "note_off channel=6 note=40 velocity=0 time=86\n",
      "note_on channel=6 note=40 velocity=127 time=106\n",
      "note_off channel=6 note=40 velocity=0 time=268\n",
      "note_on channel=6 note=40 velocity=127 time=116\n",
      "note_off channel=6 note=40 velocity=0 time=134\n",
      "note_on channel=6 note=40 velocity=127 time=58\n",
      "note_off channel=6 note=40 velocity=0 time=284\n",
      "note_on channel=6 note=40 velocity=127 time=100\n",
      "note_off channel=6 note=40 velocity=0 time=600\n",
      "note_on channel=6 note=30 velocity=127 time=1128\n",
      "note_off channel=6 note=30 velocity=0 time=188\n",
      "note_on channel=6 note=30 velocity=127 time=4\n",
      "note_off channel=6 note=30 velocity=0 time=92\n",
      "note_on channel=6 note=30 velocity=127 time=4\n",
      "note_off channel=6 note=30 velocity=0 time=92\n",
      "note_on channel=6 note=30 velocity=127 time=4\n",
      "note_off channel=6 note=30 velocity=0 time=188\n",
      "note_on channel=6 note=30 velocity=127 time=4\n",
      "note_off channel=6 note=30 velocity=0 time=188\n",
      "note_on channel=6 note=30 velocity=127 time=4\n",
      "note_off channel=6 note=30 velocity=0 time=188\n",
      "note_on channel=6 note=30 velocity=127 time=4\n",
      "note_off channel=6 note=30 velocity=0 time=92\n",
      "note_on channel=6 note=30 velocity=127 time=4\n",
      "note_off channel=6 note=30 velocity=0 time=92\n",
      "note_on channel=6 note=30 velocity=127 time=4\n",
      "note_off channel=6 note=30 velocity=0 time=188\n",
      "note_on channel=6 note=30 velocity=127 time=4\n",
      "note_off channel=6 note=30 velocity=0 time=188\n",
      "note_on channel=6 note=38 velocity=127 time=4\n",
      "note_off channel=6 note=38 velocity=0 time=188\n",
      "note_on channel=6 note=38 velocity=127 time=4\n",
      "note_off channel=6 note=38 velocity=0 time=92\n",
      "note_on channel=6 note=38 velocity=127 time=4\n",
      "note_off channel=6 note=38 velocity=0 time=92\n",
      "note_on channel=6 note=38 velocity=127 time=4\n",
      "note_off channel=6 note=38 velocity=0 time=188\n",
      "note_on channel=6 note=38 velocity=127 time=4\n",
      "note_off channel=6 note=38 velocity=0 time=188\n",
      "note_on channel=6 note=38 velocity=127 time=4\n",
      "note_off channel=6 note=38 velocity=0 time=188\n",
      "note_on channel=6 note=38 velocity=127 time=4\n",
      "note_off channel=6 note=38 velocity=0 time=92\n",
      "note_on channel=6 note=38 velocity=127 time=4\n",
      "note_off channel=6 note=38 velocity=0 time=92\n",
      "note_on channel=6 note=38 velocity=127 time=4\n",
      "note_off channel=6 note=38 velocity=0 time=188\n",
      "note_on channel=6 note=38 velocity=127 time=4\n",
      "note_off channel=6 note=38 velocity=0 time=188\n",
      "note_on channel=6 note=35 velocity=127 time=4\n",
      "note_off channel=6 note=35 velocity=0 time=188\n",
      "note_on channel=6 note=35 velocity=127 time=4\n",
      "note_off channel=6 note=35 velocity=0 time=92\n",
      "note_on channel=6 note=35 velocity=127 time=4\n",
      "note_off channel=6 note=35 velocity=0 time=92\n",
      "note_on channel=6 note=35 velocity=127 time=4\n",
      "note_off channel=6 note=35 velocity=0 time=188\n",
      "note_on channel=6 note=35 velocity=127 time=4\n",
      "note_off channel=6 note=35 velocity=0 time=188\n",
      "note_on channel=6 note=35 velocity=127 time=4\n",
      "note_off channel=6 note=35 velocity=0 time=188\n",
      "note_on channel=6 note=35 velocity=127 time=4\n",
      "note_off channel=6 note=35 velocity=0 time=92\n",
      "note_on channel=6 note=35 velocity=127 time=4\n",
      "note_off channel=6 note=35 velocity=0 time=92\n",
      "note_on channel=6 note=35 velocity=127 time=4\n",
      "note_off channel=6 note=35 velocity=0 time=188\n",
      "note_on channel=6 note=35 velocity=127 time=4\n",
      "note_off channel=6 note=35 velocity=0 time=188\n",
      "note_on channel=6 note=28 velocity=127 time=4\n",
      "note_off channel=6 note=28 velocity=0 time=188\n",
      "note_on channel=6 note=28 velocity=127 time=4\n",
      "note_off channel=6 note=28 velocity=0 time=92\n",
      "note_on channel=6 note=28 velocity=127 time=4\n",
      "note_off channel=6 note=28 velocity=0 time=92\n",
      "note_on channel=6 note=28 velocity=127 time=4\n",
      "note_off channel=6 note=28 velocity=0 time=188\n",
      "note_on channel=6 note=28 velocity=127 time=4\n",
      "note_off channel=6 note=28 velocity=0 time=188\n",
      "note_on channel=6 note=28 velocity=127 time=4\n",
      "note_off channel=6 note=28 velocity=0 time=188\n",
      "note_on channel=6 note=28 velocity=127 time=4\n",
      "note_off channel=6 note=28 velocity=0 time=92\n",
      "note_on channel=6 note=28 velocity=127 time=4\n",
      "note_off channel=6 note=28 velocity=0 time=92\n",
      "note_on channel=6 note=28 velocity=127 time=4\n",
      "note_off channel=6 note=28 velocity=0 time=188\n",
      "note_on channel=6 note=28 velocity=127 time=4\n",
      "note_off channel=6 note=28 velocity=0 time=188\n",
      "note_on channel=6 note=30 velocity=127 time=4\n",
      "note_off channel=6 note=30 velocity=0 time=188\n",
      "note_on channel=6 note=30 velocity=127 time=4\n",
      "note_off channel=6 note=30 velocity=0 time=92\n",
      "note_on channel=6 note=30 velocity=127 time=4\n",
      "note_off channel=6 note=30 velocity=0 time=92\n",
      "note_on channel=6 note=30 velocity=127 time=4\n",
      "note_off channel=6 note=30 velocity=0 time=188\n",
      "note_on channel=6 note=30 velocity=127 time=4\n",
      "note_off channel=6 note=30 velocity=0 time=188\n",
      "note_on channel=6 note=30 velocity=127 time=4\n",
      "note_off channel=6 note=30 velocity=0 time=188\n",
      "note_on channel=6 note=30 velocity=127 time=4\n",
      "note_off channel=6 note=30 velocity=0 time=92\n",
      "note_on channel=6 note=30 velocity=127 time=4\n",
      "note_off channel=6 note=30 velocity=0 time=92\n",
      "note_on channel=6 note=30 velocity=127 time=4\n",
      "note_off channel=6 note=30 velocity=0 time=188\n",
      "note_on channel=6 note=30 velocity=127 time=4\n",
      "note_off channel=6 note=30 velocity=0 time=188\n",
      "note_on channel=6 note=38 velocity=127 time=4\n",
      "note_off channel=6 note=38 velocity=0 time=188\n",
      "note_on channel=6 note=38 velocity=127 time=4\n",
      "note_off channel=6 note=38 velocity=0 time=92\n",
      "note_on channel=6 note=38 velocity=127 time=4\n",
      "note_off channel=6 note=38 velocity=0 time=92\n",
      "note_on channel=6 note=38 velocity=127 time=4\n",
      "note_off channel=6 note=38 velocity=0 time=188\n",
      "note_on channel=6 note=38 velocity=127 time=4\n",
      "note_off channel=6 note=38 velocity=0 time=188\n",
      "note_on channel=6 note=38 velocity=127 time=4\n",
      "note_off channel=6 note=38 velocity=0 time=188\n",
      "note_on channel=6 note=38 velocity=127 time=4\n",
      "note_off channel=6 note=38 velocity=0 time=92\n",
      "note_on channel=6 note=38 velocity=127 time=4\n",
      "note_off channel=6 note=38 velocity=0 time=92\n",
      "note_on channel=6 note=38 velocity=127 time=4\n",
      "note_off channel=6 note=38 velocity=0 time=188\n",
      "note_on channel=6 note=38 velocity=127 time=4\n",
      "note_off channel=6 note=38 velocity=0 time=188\n",
      "note_on channel=6 note=35 velocity=127 time=4\n",
      "note_off channel=6 note=35 velocity=0 time=188\n",
      "note_on channel=6 note=35 velocity=127 time=4\n",
      "note_off channel=6 note=35 velocity=0 time=92\n",
      "note_on channel=6 note=35 velocity=127 time=4\n",
      "note_off channel=6 note=35 velocity=0 time=92\n",
      "note_on channel=6 note=35 velocity=127 time=4\n",
      "note_off channel=6 note=35 velocity=0 time=188\n",
      "note_on channel=6 note=35 velocity=127 time=4\n",
      "note_off channel=6 note=35 velocity=0 time=188\n",
      "note_on channel=6 note=35 velocity=127 time=4\n",
      "note_off channel=6 note=35 velocity=0 time=188\n",
      "note_on channel=6 note=35 velocity=127 time=4\n",
      "note_off channel=6 note=35 velocity=0 time=92\n",
      "note_on channel=6 note=35 velocity=127 time=4\n",
      "note_off channel=6 note=35 velocity=0 time=92\n",
      "note_on channel=6 note=35 velocity=127 time=4\n",
      "note_off channel=6 note=35 velocity=0 time=188\n",
      "note_on channel=6 note=35 velocity=127 time=4\n",
      "note_off channel=6 note=35 velocity=0 time=188\n",
      "note_on channel=6 note=28 velocity=127 time=4\n",
      "note_off channel=6 note=28 velocity=0 time=188\n",
      "note_on channel=6 note=28 velocity=127 time=4\n",
      "note_off channel=6 note=28 velocity=0 time=92\n",
      "note_on channel=6 note=28 velocity=127 time=4\n",
      "note_off channel=6 note=28 velocity=0 time=92\n",
      "note_on channel=6 note=28 velocity=127 time=4\n",
      "note_off channel=6 note=28 velocity=0 time=188\n",
      "note_on channel=6 note=28 velocity=127 time=4\n",
      "note_off channel=6 note=28 velocity=0 time=188\n",
      "note_on channel=6 note=28 velocity=127 time=4\n",
      "note_off channel=6 note=28 velocity=0 time=188\n",
      "note_on channel=6 note=28 velocity=127 time=4\n",
      "note_off channel=6 note=28 velocity=0 time=92\n",
      "note_on channel=6 note=28 velocity=127 time=4\n",
      "note_off channel=6 note=28 velocity=0 time=92\n",
      "note_on channel=6 note=28 velocity=127 time=4\n",
      "note_off channel=6 note=28 velocity=0 time=188\n",
      "note_on channel=6 note=28 velocity=127 time=4\n",
      "note_off channel=6 note=28 velocity=0 time=188\n",
      "note_on channel=6 note=30 velocity=127 time=4\n",
      "note_off channel=6 note=30 velocity=0 time=188\n",
      "note_on channel=6 note=30 velocity=127 time=4\n",
      "note_off channel=6 note=30 velocity=0 time=92\n",
      "note_on channel=6 note=30 velocity=127 time=4\n",
      "note_off channel=6 note=30 velocity=0 time=92\n",
      "note_on channel=6 note=30 velocity=127 time=4\n",
      "note_off channel=6 note=30 velocity=0 time=188\n",
      "note_on channel=6 note=28 velocity=127 time=4\n",
      "note_off channel=6 note=28 velocity=0 time=188\n",
      "note_on channel=6 note=30 velocity=127 time=4\n",
      "note_off channel=6 note=30 velocity=0 time=188\n",
      "note_on channel=6 note=30 velocity=127 time=4\n",
      "note_off channel=6 note=30 velocity=0 time=92\n",
      "note_on channel=6 note=30 velocity=127 time=4\n",
      "note_off channel=6 note=30 velocity=0 time=92\n",
      "note_on channel=6 note=30 velocity=127 time=4\n",
      "note_off channel=6 note=30 velocity=0 time=188\n",
      "note_on channel=6 note=28 velocity=127 time=4\n",
      "note_off channel=6 note=28 velocity=0 time=188\n",
      "note_on channel=6 note=30 velocity=127 time=4\n",
      "note_off channel=6 note=30 velocity=0 time=188\n",
      "note_on channel=6 note=30 velocity=127 time=4\n",
      "note_off channel=6 note=30 velocity=0 time=92\n",
      "note_on channel=6 note=30 velocity=127 time=4\n",
      "note_off channel=6 note=30 velocity=0 time=92\n",
      "note_on channel=6 note=30 velocity=127 time=4\n",
      "note_off channel=6 note=30 velocity=0 time=188\n",
      "note_on channel=6 note=28 velocity=127 time=4\n",
      "note_off channel=6 note=28 velocity=0 time=188\n",
      "note_on channel=6 note=30 velocity=127 time=4\n",
      "note_off channel=6 note=30 velocity=0 time=188\n",
      "note_on channel=6 note=30 velocity=127 time=4\n",
      "note_off channel=6 note=30 velocity=0 time=92\n",
      "note_on channel=6 note=30 velocity=127 time=4\n",
      "note_off channel=6 note=30 velocity=0 time=92\n",
      "note_on channel=6 note=30 velocity=127 time=4\n",
      "note_off channel=6 note=30 velocity=0 time=188\n",
      "note_on channel=6 note=28 velocity=127 time=4\n",
      "note_off channel=6 note=28 velocity=0 time=188\n",
      "note_on channel=6 note=30 velocity=127 time=4\n",
      "note_off channel=6 note=30 velocity=0 time=188\n",
      "note_on channel=6 note=30 velocity=127 time=4\n",
      "note_off channel=6 note=30 velocity=0 time=92\n",
      "note_on channel=6 note=30 velocity=127 time=4\n",
      "note_off channel=6 note=30 velocity=0 time=92\n",
      "note_on channel=6 note=30 velocity=127 time=4\n",
      "note_off channel=6 note=30 velocity=0 time=188\n",
      "note_on channel=6 note=28 velocity=127 time=4\n",
      "note_off channel=6 note=28 velocity=0 time=188\n",
      "note_on channel=6 note=30 velocity=127 time=4\n",
      "note_off channel=6 note=30 velocity=0 time=188\n",
      "note_on channel=6 note=30 velocity=127 time=4\n",
      "note_off channel=6 note=30 velocity=0 time=92\n",
      "note_on channel=6 note=30 velocity=127 time=4\n",
      "note_off channel=6 note=30 velocity=0 time=92\n",
      "note_on channel=6 note=30 velocity=127 time=4\n",
      "note_off channel=6 note=30 velocity=0 time=188\n",
      "note_on channel=6 note=28 velocity=127 time=4\n",
      "note_off channel=6 note=28 velocity=0 time=188\n",
      "note_on channel=6 note=35 velocity=127 time=4\n",
      "note_off channel=6 note=35 velocity=0 time=188\n",
      "note_on channel=6 note=35 velocity=127 time=4\n",
      "note_off channel=6 note=35 velocity=0 time=92\n",
      "note_on channel=6 note=35 velocity=127 time=4\n",
      "note_off channel=6 note=35 velocity=0 time=92\n",
      "note_on channel=6 note=35 velocity=127 time=4\n",
      "note_off channel=6 note=35 velocity=0 time=188\n",
      "note_on channel=6 note=33 velocity=127 time=4\n",
      "note_off channel=6 note=33 velocity=0 time=188\n",
      "note_on channel=6 note=35 velocity=127 time=4\n",
      "note_off channel=6 note=35 velocity=0 time=188\n",
      "note_on channel=6 note=35 velocity=127 time=4\n",
      "note_off channel=6 note=35 velocity=0 time=92\n",
      "note_on channel=6 note=35 velocity=127 time=4\n",
      "note_off channel=6 note=35 velocity=0 time=92\n",
      "note_on channel=6 note=35 velocity=127 time=4\n",
      "note_off channel=6 note=35 velocity=0 time=188\n",
      "note_on channel=6 note=33 velocity=127 time=4\n",
      "note_off channel=6 note=33 velocity=0 time=188\n",
      "note_on channel=6 note=30 velocity=127 time=4\n",
      "note_off channel=6 note=30 velocity=0 time=188\n",
      "note_on channel=6 note=30 velocity=127 time=4\n",
      "note_off channel=6 note=30 velocity=0 time=92\n",
      "note_on channel=6 note=30 velocity=127 time=4\n",
      "note_off channel=6 note=30 velocity=0 time=92\n",
      "note_on channel=6 note=30 velocity=127 time=4\n",
      "note_off channel=6 note=30 velocity=0 time=188\n",
      "note_on channel=6 note=28 velocity=127 time=4\n",
      "note_off channel=6 note=28 velocity=0 time=188\n",
      "note_on channel=6 note=30 velocity=127 time=4\n",
      "note_off channel=6 note=30 velocity=0 time=188\n",
      "note_on channel=6 note=30 velocity=127 time=4\n",
      "note_off channel=6 note=30 velocity=0 time=92\n",
      "note_on channel=6 note=30 velocity=127 time=4\n",
      "note_off channel=6 note=30 velocity=0 time=92\n",
      "note_on channel=6 note=30 velocity=127 time=4\n",
      "note_off channel=6 note=30 velocity=0 time=188\n",
      "note_on channel=6 note=28 velocity=127 time=4\n",
      "note_off channel=6 note=28 velocity=0 time=188\n",
      "note_on channel=6 note=30 velocity=127 time=4\n",
      "note_off channel=6 note=30 velocity=0 time=188\n",
      "note_on channel=6 note=30 velocity=127 time=4\n",
      "note_off channel=6 note=30 velocity=0 time=92\n",
      "note_on channel=6 note=30 velocity=127 time=4\n",
      "note_off channel=6 note=30 velocity=0 time=92\n",
      "note_on channel=6 note=30 velocity=127 time=4\n",
      "note_off channel=6 note=30 velocity=0 time=188\n",
      "note_on channel=6 note=28 velocity=127 time=4\n",
      "note_off channel=6 note=28 velocity=0 time=188\n",
      "note_on channel=6 note=30 velocity=127 time=4\n",
      "note_off channel=6 note=30 velocity=0 time=188\n",
      "note_on channel=6 note=30 velocity=127 time=4\n",
      "note_off channel=6 note=30 velocity=0 time=92\n",
      "note_on channel=6 note=30 velocity=127 time=4\n",
      "note_off channel=6 note=30 velocity=0 time=92\n",
      "note_on channel=6 note=30 velocity=127 time=4\n",
      "note_off channel=6 note=30 velocity=0 time=188\n",
      "note_on channel=6 note=28 velocity=127 time=4\n",
      "note_off channel=6 note=28 velocity=0 time=188\n",
      "note_on channel=6 note=30 velocity=127 time=4\n",
      "note_off channel=6 note=30 velocity=0 time=188\n",
      "note_on channel=6 note=30 velocity=127 time=4\n",
      "note_off channel=6 note=30 velocity=0 time=92\n",
      "note_on channel=6 note=30 velocity=127 time=4\n",
      "note_off channel=6 note=30 velocity=0 time=92\n",
      "note_on channel=6 note=30 velocity=127 time=4\n",
      "note_off channel=6 note=30 velocity=0 time=188\n",
      "note_on channel=6 note=28 velocity=127 time=4\n",
      "note_off channel=6 note=28 velocity=0 time=188\n",
      "note_on channel=6 note=32 velocity=127 time=4\n",
      "note_off channel=6 note=32 velocity=0 time=188\n",
      "note_on channel=6 note=32 velocity=127 time=4\n",
      "note_off channel=6 note=32 velocity=0 time=92\n",
      "note_on channel=6 note=32 velocity=127 time=4\n",
      "note_off channel=6 note=32 velocity=0 time=92\n",
      "note_on channel=6 note=32 velocity=127 time=4\n",
      "note_off channel=6 note=32 velocity=0 time=188\n",
      "note_on channel=6 note=28 velocity=127 time=4\n",
      "note_off channel=6 note=28 velocity=0 time=188\n",
      "note_on channel=6 note=33 velocity=127 time=4\n",
      "note_off channel=6 note=33 velocity=0 time=188\n",
      "note_on channel=6 note=33 velocity=127 time=4\n",
      "note_off channel=6 note=33 velocity=0 time=92\n",
      "note_on channel=6 note=33 velocity=127 time=4\n",
      "note_off channel=6 note=33 velocity=0 time=92\n",
      "note_on channel=6 note=33 velocity=127 time=4\n",
      "note_off channel=6 note=33 velocity=0 time=188\n",
      "note_on channel=6 note=33 velocity=127 time=4\n",
      "note_off channel=6 note=33 velocity=0 time=188\n",
      "note_on channel=6 note=33 velocity=127 time=4\n",
      "note_off channel=6 note=33 velocity=0 time=188\n",
      "note_on channel=6 note=33 velocity=127 time=4\n",
      "note_off channel=6 note=33 velocity=0 time=92\n",
      "note_on channel=6 note=33 velocity=127 time=4\n",
      "note_off channel=6 note=33 velocity=0 time=92\n",
      "note_on channel=6 note=33 velocity=127 time=4\n",
      "note_off channel=6 note=33 velocity=0 time=188\n",
      "note_on channel=6 note=33 velocity=127 time=4\n",
      "note_off channel=6 note=33 velocity=0 time=188\n",
      "note_on channel=6 note=38 velocity=127 time=4\n",
      "note_off channel=6 note=38 velocity=0 time=188\n",
      "note_on channel=6 note=38 velocity=127 time=4\n",
      "note_off channel=6 note=38 velocity=0 time=92\n",
      "note_on channel=6 note=38 velocity=127 time=4\n",
      "note_off channel=6 note=38 velocity=0 time=92\n",
      "note_on channel=6 note=38 velocity=127 time=4\n",
      "note_off channel=6 note=38 velocity=0 time=188\n",
      "note_on channel=6 note=38 velocity=127 time=4\n",
      "note_off channel=6 note=38 velocity=0 time=188\n",
      "note_on channel=6 note=38 velocity=127 time=4\n",
      "note_off channel=6 note=38 velocity=0 time=188\n",
      "note_on channel=6 note=38 velocity=127 time=4\n",
      "note_off channel=6 note=38 velocity=0 time=92\n",
      "note_on channel=6 note=38 velocity=127 time=4\n",
      "note_off channel=6 note=38 velocity=0 time=92\n",
      "note_on channel=6 note=38 velocity=127 time=4\n",
      "note_off channel=6 note=38 velocity=0 time=188\n",
      "note_on channel=6 note=38 velocity=127 time=4\n",
      "note_off channel=6 note=38 velocity=0 time=188\n",
      "note_on channel=6 note=40 velocity=127 time=4\n",
      "note_off channel=6 note=40 velocity=0 time=188\n",
      "note_on channel=6 note=40 velocity=127 time=4\n",
      "note_off channel=6 note=40 velocity=0 time=92\n",
      "note_on channel=6 note=40 velocity=127 time=4\n",
      "note_off channel=6 note=40 velocity=0 time=92\n",
      "note_on channel=6 note=40 velocity=127 time=4\n",
      "note_off channel=6 note=40 velocity=0 time=188\n",
      "note_on channel=6 note=40 velocity=127 time=4\n",
      "note_off channel=6 note=40 velocity=0 time=188\n",
      "note_on channel=6 note=40 velocity=127 time=4\n",
      "note_off channel=6 note=40 velocity=0 time=188\n",
      "note_on channel=6 note=40 velocity=127 time=4\n",
      "note_off channel=6 note=40 velocity=0 time=92\n",
      "note_on channel=6 note=40 velocity=127 time=4\n",
      "note_off channel=6 note=40 velocity=0 time=92\n",
      "note_on channel=6 note=40 velocity=127 time=4\n",
      "note_off channel=6 note=40 velocity=0 time=188\n",
      "note_on channel=6 note=40 velocity=127 time=4\n",
      "note_off channel=6 note=40 velocity=0 time=188\n",
      "note_on channel=6 note=33 velocity=127 time=4\n",
      "note_off channel=6 note=33 velocity=0 time=188\n",
      "note_on channel=6 note=33 velocity=127 time=4\n",
      "note_off channel=6 note=33 velocity=0 time=92\n",
      "note_on channel=6 note=33 velocity=127 time=4\n",
      "note_off channel=6 note=33 velocity=0 time=92\n",
      "note_on channel=6 note=33 velocity=127 time=4\n",
      "note_off channel=6 note=33 velocity=0 time=188\n",
      "note_on channel=6 note=33 velocity=127 time=4\n",
      "note_off channel=6 note=33 velocity=0 time=188\n",
      "note_on channel=6 note=32 velocity=127 time=4\n",
      "note_off channel=6 note=32 velocity=0 time=188\n",
      "note_on channel=6 note=32 velocity=127 time=4\n",
      "note_off channel=6 note=32 velocity=0 time=92\n",
      "note_on channel=6 note=32 velocity=127 time=4\n",
      "note_off channel=6 note=32 velocity=0 time=92\n",
      "note_on channel=6 note=32 velocity=127 time=4\n",
      "note_off channel=6 note=32 velocity=0 time=188\n",
      "note_on channel=6 note=32 velocity=127 time=4\n",
      "note_off channel=6 note=32 velocity=0 time=188\n",
      "note_on channel=6 note=30 velocity=127 time=4\n",
      "note_off channel=6 note=30 velocity=0 time=188\n",
      "note_on channel=6 note=30 velocity=127 time=4\n",
      "note_off channel=6 note=30 velocity=0 time=92\n",
      "note_on channel=6 note=30 velocity=127 time=4\n",
      "note_off channel=6 note=30 velocity=0 time=92\n",
      "note_on channel=6 note=30 velocity=127 time=4\n",
      "note_off channel=6 note=30 velocity=0 time=188\n",
      "note_on channel=6 note=30 velocity=127 time=4\n",
      "note_off channel=6 note=30 velocity=0 time=188\n",
      "note_on channel=6 note=28 velocity=127 time=4\n",
      "note_off channel=6 note=28 velocity=0 time=188\n",
      "note_on channel=6 note=28 velocity=127 time=4\n",
      "note_off channel=6 note=28 velocity=0 time=92\n",
      "note_on channel=6 note=28 velocity=127 time=4\n",
      "note_off channel=6 note=28 velocity=0 time=92\n",
      "note_on channel=6 note=28 velocity=127 time=4\n",
      "note_off channel=6 note=28 velocity=0 time=188\n",
      "note_on channel=6 note=28 velocity=127 time=4\n",
      "note_off channel=6 note=28 velocity=0 time=188\n",
      "note_on channel=6 note=38 velocity=127 time=4\n",
      "note_off channel=6 note=38 velocity=0 time=188\n",
      "note_on channel=6 note=38 velocity=127 time=4\n",
      "note_off channel=6 note=38 velocity=0 time=92\n",
      "note_on channel=6 note=38 velocity=127 time=4\n",
      "note_off channel=6 note=38 velocity=0 time=92\n",
      "note_on channel=6 note=38 velocity=127 time=4\n",
      "note_off channel=6 note=38 velocity=0 time=188\n",
      "note_on channel=6 note=38 velocity=127 time=4\n",
      "note_off channel=6 note=38 velocity=0 time=188\n",
      "note_on channel=6 note=38 velocity=127 time=4\n",
      "note_off channel=6 note=38 velocity=0 time=188\n",
      "note_on channel=6 note=38 velocity=127 time=4\n",
      "note_off channel=6 note=38 velocity=0 time=92\n",
      "note_on channel=6 note=38 velocity=127 time=4\n",
      "note_off channel=6 note=38 velocity=0 time=92\n",
      "note_on channel=6 note=38 velocity=127 time=4\n",
      "note_off channel=6 note=38 velocity=0 time=188\n",
      "note_on channel=6 note=38 velocity=127 time=4\n",
      "note_off channel=6 note=38 velocity=0 time=188\n",
      "note_on channel=6 note=37 velocity=127 time=4\n",
      "note_off channel=6 note=37 velocity=0 time=188\n",
      "note_on channel=6 note=37 velocity=127 time=4\n",
      "note_off channel=6 note=37 velocity=0 time=92\n",
      "note_on channel=6 note=37 velocity=127 time=4\n",
      "note_off channel=6 note=37 velocity=0 time=92\n",
      "note_on channel=6 note=37 velocity=127 time=4\n",
      "note_off channel=6 note=37 velocity=0 time=188\n",
      "note_on channel=6 note=37 velocity=127 time=4\n",
      "note_off channel=6 note=37 velocity=0 time=188\n",
      "note_on channel=6 note=37 velocity=127 time=4\n",
      "note_off channel=6 note=37 velocity=0 time=188\n",
      "note_on channel=6 note=37 velocity=127 time=4\n",
      "note_off channel=6 note=37 velocity=0 time=92\n",
      "note_on channel=6 note=37 velocity=127 time=4\n",
      "note_off channel=6 note=37 velocity=0 time=92\n",
      "note_on channel=6 note=37 velocity=127 time=4\n",
      "note_off channel=6 note=37 velocity=0 time=188\n",
      "note_on channel=6 note=37 velocity=127 time=4\n",
      "note_off channel=6 note=37 velocity=0 time=188\n",
      "note_on channel=6 note=40 velocity=127 time=196\n",
      "note_off channel=6 note=40 velocity=0 time=86\n",
      "note_on channel=6 note=40 velocity=127 time=106\n",
      "note_off channel=6 note=40 velocity=0 time=268\n",
      "note_on channel=6 note=40 velocity=127 time=116\n",
      "note_off channel=6 note=40 velocity=0 time=134\n",
      "note_on channel=6 note=40 velocity=127 time=58\n",
      "note_off channel=6 note=40 velocity=0 time=284\n",
      "note_on channel=6 note=40 velocity=127 time=100\n",
      "note_off channel=6 note=40 velocity=0 time=600\n",
      "note_on channel=6 note=30 velocity=127 time=1128\n",
      "note_off channel=6 note=30 velocity=0 time=188\n",
      "note_on channel=6 note=30 velocity=127 time=4\n",
      "note_off channel=6 note=30 velocity=0 time=92\n",
      "note_on channel=6 note=30 velocity=127 time=4\n",
      "note_off channel=6 note=30 velocity=0 time=92\n",
      "note_on channel=6 note=30 velocity=127 time=4\n",
      "note_off channel=6 note=30 velocity=0 time=188\n",
      "note_on channel=6 note=30 velocity=127 time=4\n",
      "note_off channel=6 note=30 velocity=0 time=188\n",
      "note_on channel=6 note=30 velocity=127 time=4\n",
      "note_off channel=6 note=30 velocity=0 time=188\n",
      "note_on channel=6 note=30 velocity=127 time=4\n",
      "note_off channel=6 note=30 velocity=0 time=92\n",
      "note_on channel=6 note=30 velocity=127 time=4\n",
      "note_off channel=6 note=30 velocity=0 time=92\n",
      "note_on channel=6 note=30 velocity=127 time=4\n",
      "note_off channel=6 note=30 velocity=0 time=188\n",
      "note_on channel=6 note=30 velocity=127 time=4\n",
      "note_off channel=6 note=30 velocity=0 time=188\n",
      "note_on channel=6 note=38 velocity=127 time=4\n",
      "note_off channel=6 note=38 velocity=0 time=188\n",
      "note_on channel=6 note=38 velocity=127 time=4\n",
      "note_off channel=6 note=38 velocity=0 time=92\n",
      "note_on channel=6 note=38 velocity=127 time=4\n",
      "note_off channel=6 note=38 velocity=0 time=92\n",
      "note_on channel=6 note=38 velocity=127 time=4\n",
      "note_off channel=6 note=38 velocity=0 time=188\n",
      "note_on channel=6 note=38 velocity=127 time=4\n",
      "note_off channel=6 note=38 velocity=0 time=188\n",
      "note_on channel=6 note=38 velocity=127 time=4\n",
      "note_off channel=6 note=38 velocity=0 time=188\n",
      "note_on channel=6 note=38 velocity=127 time=4\n",
      "note_off channel=6 note=38 velocity=0 time=92\n",
      "note_on channel=6 note=38 velocity=127 time=4\n",
      "note_off channel=6 note=38 velocity=0 time=92\n",
      "note_on channel=6 note=38 velocity=127 time=4\n",
      "note_off channel=6 note=38 velocity=0 time=188\n",
      "note_on channel=6 note=38 velocity=127 time=4\n",
      "note_off channel=6 note=38 velocity=0 time=188\n",
      "note_on channel=6 note=35 velocity=127 time=4\n",
      "note_off channel=6 note=35 velocity=0 time=188\n",
      "note_on channel=6 note=35 velocity=127 time=4\n",
      "note_off channel=6 note=35 velocity=0 time=92\n",
      "note_on channel=6 note=35 velocity=127 time=4\n",
      "note_off channel=6 note=35 velocity=0 time=92\n",
      "note_on channel=6 note=35 velocity=127 time=4\n",
      "note_off channel=6 note=35 velocity=0 time=188\n",
      "note_on channel=6 note=35 velocity=127 time=4\n",
      "note_off channel=6 note=35 velocity=0 time=188\n",
      "note_on channel=6 note=35 velocity=127 time=4\n",
      "note_off channel=6 note=35 velocity=0 time=188\n",
      "note_on channel=6 note=35 velocity=127 time=4\n",
      "note_off channel=6 note=35 velocity=0 time=92\n",
      "note_on channel=6 note=35 velocity=127 time=4\n",
      "note_off channel=6 note=35 velocity=0 time=92\n",
      "note_on channel=6 note=35 velocity=127 time=4\n",
      "note_off channel=6 note=35 velocity=0 time=188\n",
      "note_on channel=6 note=35 velocity=127 time=4\n",
      "note_off channel=6 note=35 velocity=0 time=188\n",
      "note_on channel=6 note=28 velocity=127 time=4\n",
      "note_off channel=6 note=28 velocity=0 time=188\n",
      "note_on channel=6 note=28 velocity=127 time=4\n",
      "note_off channel=6 note=28 velocity=0 time=92\n",
      "note_on channel=6 note=28 velocity=127 time=4\n",
      "note_off channel=6 note=28 velocity=0 time=92\n",
      "note_on channel=6 note=28 velocity=127 time=4\n",
      "note_off channel=6 note=28 velocity=0 time=188\n",
      "note_on channel=6 note=28 velocity=127 time=4\n",
      "note_off channel=6 note=28 velocity=0 time=188\n",
      "note_on channel=6 note=28 velocity=127 time=4\n",
      "note_off channel=6 note=28 velocity=0 time=188\n",
      "note_on channel=6 note=28 velocity=127 time=4\n",
      "note_off channel=6 note=28 velocity=0 time=92\n",
      "note_on channel=6 note=28 velocity=127 time=4\n",
      "note_off channel=6 note=28 velocity=0 time=92\n",
      "note_on channel=6 note=28 velocity=127 time=4\n",
      "note_off channel=6 note=28 velocity=0 time=188\n",
      "note_on channel=6 note=28 velocity=127 time=4\n",
      "note_off channel=6 note=28 velocity=0 time=188\n",
      "note_on channel=6 note=30 velocity=127 time=4\n",
      "note_off channel=6 note=30 velocity=0 time=188\n",
      "note_on channel=6 note=30 velocity=127 time=4\n",
      "note_off channel=6 note=30 velocity=0 time=92\n",
      "note_on channel=6 note=30 velocity=127 time=4\n",
      "note_off channel=6 note=30 velocity=0 time=92\n",
      "note_on channel=6 note=30 velocity=127 time=4\n",
      "note_off channel=6 note=30 velocity=0 time=188\n",
      "note_on channel=6 note=30 velocity=127 time=4\n",
      "note_off channel=6 note=30 velocity=0 time=188\n",
      "note_on channel=6 note=30 velocity=127 time=4\n",
      "note_off channel=6 note=30 velocity=0 time=188\n",
      "note_on channel=6 note=30 velocity=127 time=4\n",
      "note_off channel=6 note=30 velocity=0 time=92\n",
      "note_on channel=6 note=30 velocity=127 time=4\n",
      "note_off channel=6 note=30 velocity=0 time=92\n",
      "note_on channel=6 note=30 velocity=127 time=4\n",
      "note_off channel=6 note=30 velocity=0 time=188\n",
      "note_on channel=6 note=30 velocity=127 time=4\n",
      "note_off channel=6 note=30 velocity=0 time=188\n",
      "note_on channel=6 note=38 velocity=127 time=4\n",
      "note_off channel=6 note=38 velocity=0 time=188\n",
      "note_on channel=6 note=38 velocity=127 time=4\n",
      "note_off channel=6 note=38 velocity=0 time=92\n",
      "note_on channel=6 note=38 velocity=127 time=4\n",
      "note_off channel=6 note=38 velocity=0 time=92\n",
      "note_on channel=6 note=38 velocity=127 time=4\n",
      "note_off channel=6 note=38 velocity=0 time=188\n",
      "note_on channel=6 note=38 velocity=127 time=4\n",
      "note_off channel=6 note=38 velocity=0 time=188\n",
      "note_on channel=6 note=38 velocity=127 time=4\n",
      "note_off channel=6 note=38 velocity=0 time=188\n",
      "note_on channel=6 note=38 velocity=127 time=4\n",
      "note_off channel=6 note=38 velocity=0 time=92\n",
      "note_on channel=6 note=38 velocity=127 time=4\n",
      "note_off channel=6 note=38 velocity=0 time=92\n",
      "note_on channel=6 note=38 velocity=127 time=4\n",
      "note_off channel=6 note=38 velocity=0 time=188\n",
      "note_on channel=6 note=38 velocity=127 time=4\n",
      "note_off channel=6 note=38 velocity=0 time=188\n",
      "note_on channel=6 note=35 velocity=127 time=4\n",
      "note_off channel=6 note=35 velocity=0 time=188\n",
      "note_on channel=6 note=35 velocity=127 time=4\n",
      "note_off channel=6 note=35 velocity=0 time=92\n",
      "note_on channel=6 note=35 velocity=127 time=4\n",
      "note_off channel=6 note=35 velocity=0 time=92\n",
      "note_on channel=6 note=35 velocity=127 time=4\n",
      "note_off channel=6 note=35 velocity=0 time=188\n",
      "note_on channel=6 note=35 velocity=127 time=4\n",
      "note_off channel=6 note=35 velocity=0 time=188\n",
      "note_on channel=6 note=35 velocity=127 time=4\n",
      "note_off channel=6 note=35 velocity=0 time=188\n",
      "note_on channel=6 note=35 velocity=127 time=4\n",
      "note_off channel=6 note=35 velocity=0 time=92\n",
      "note_on channel=6 note=35 velocity=127 time=4\n",
      "note_off channel=6 note=35 velocity=0 time=92\n",
      "note_on channel=6 note=35 velocity=127 time=4\n",
      "note_off channel=6 note=35 velocity=0 time=188\n",
      "note_on channel=6 note=35 velocity=127 time=4\n",
      "note_off channel=6 note=35 velocity=0 time=188\n",
      "note_on channel=6 note=28 velocity=127 time=4\n",
      "note_off channel=6 note=28 velocity=0 time=188\n",
      "note_on channel=6 note=28 velocity=127 time=4\n",
      "note_off channel=6 note=28 velocity=0 time=92\n",
      "note_on channel=6 note=28 velocity=127 time=4\n",
      "note_off channel=6 note=28 velocity=0 time=92\n",
      "note_on channel=6 note=28 velocity=127 time=4\n",
      "note_off channel=6 note=28 velocity=0 time=188\n",
      "note_on channel=6 note=28 velocity=127 time=4\n",
      "note_off channel=6 note=28 velocity=0 time=188\n",
      "note_on channel=6 note=28 velocity=127 time=4\n",
      "note_off channel=6 note=28 velocity=0 time=188\n",
      "note_on channel=6 note=28 velocity=127 time=4\n",
      "note_off channel=6 note=28 velocity=0 time=92\n",
      "note_on channel=6 note=28 velocity=127 time=4\n",
      "note_off channel=6 note=28 velocity=0 time=92\n",
      "note_on channel=6 note=28 velocity=127 time=4\n",
      "note_off channel=6 note=28 velocity=0 time=188\n",
      "note_on channel=6 note=28 velocity=127 time=4\n",
      "note_off channel=6 note=28 velocity=0 time=188\n",
      "note_on channel=6 note=30 velocity=127 time=4\n",
      "note_off channel=6 note=30 velocity=0 time=188\n",
      "note_on channel=6 note=30 velocity=127 time=4\n",
      "note_off channel=6 note=30 velocity=0 time=92\n",
      "note_on channel=6 note=30 velocity=127 time=4\n",
      "note_off channel=6 note=30 velocity=0 time=92\n",
      "note_on channel=6 note=30 velocity=127 time=4\n",
      "note_off channel=6 note=30 velocity=0 time=188\n",
      "note_on channel=6 note=30 velocity=127 time=4\n",
      "note_off channel=6 note=30 velocity=0 time=92\n",
      "note_on channel=6 note=30 velocity=127 time=4\n",
      "note_off channel=6 note=30 velocity=0 time=92\n",
      "note_on channel=6 note=32 velocity=127 time=4\n",
      "note_off channel=6 note=32 velocity=0 time=188\n",
      "note_on channel=6 note=32 velocity=127 time=4\n",
      "note_off channel=6 note=32 velocity=0 time=92\n",
      "note_on channel=6 note=32 velocity=127 time=4\n",
      "note_off channel=6 note=32 velocity=0 time=92\n",
      "note_on channel=6 note=32 velocity=127 time=4\n",
      "note_off channel=6 note=32 velocity=0 time=188\n",
      "note_on channel=6 note=32 velocity=127 time=4\n",
      "note_off channel=6 note=32 velocity=0 time=92\n",
      "note_on channel=6 note=32 velocity=127 time=4\n",
      "note_off channel=6 note=32 velocity=0 time=92\n",
      "note_on channel=6 note=33 velocity=127 time=4\n",
      "note_off channel=6 note=33 velocity=0 time=188\n",
      "note_on channel=6 note=33 velocity=127 time=4\n",
      "note_off channel=6 note=33 velocity=0 time=92\n",
      "note_on channel=6 note=33 velocity=127 time=4\n",
      "note_off channel=6 note=33 velocity=0 time=92\n",
      "note_on channel=6 note=33 velocity=127 time=4\n",
      "note_off channel=6 note=33 velocity=0 time=188\n",
      "note_on channel=6 note=33 velocity=127 time=4\n",
      "note_off channel=6 note=33 velocity=0 time=92\n",
      "note_on channel=6 note=33 velocity=127 time=4\n",
      "note_off channel=6 note=33 velocity=0 time=92\n",
      "note_on channel=6 note=38 velocity=127 time=4\n",
      "note_off channel=6 note=38 velocity=0 time=188\n",
      "note_on channel=6 note=38 velocity=127 time=4\n",
      "note_off channel=6 note=38 velocity=0 time=92\n",
      "note_on channel=6 note=38 velocity=127 time=4\n",
      "note_off channel=6 note=38 velocity=0 time=92\n",
      "note_on channel=6 note=38 velocity=127 time=4\n",
      "note_off channel=6 note=38 velocity=0 time=188\n",
      "note_on channel=6 note=38 velocity=127 time=4\n",
      "note_off channel=6 note=38 velocity=0 time=92\n",
      "note_on channel=6 note=38 velocity=127 time=4\n",
      "note_off channel=6 note=38 velocity=0 time=92\n",
      "note_on channel=6 note=37 velocity=127 time=4\n",
      "note_off channel=6 note=37 velocity=0 time=188\n",
      "note_on channel=6 note=37 velocity=127 time=4\n",
      "note_off channel=6 note=37 velocity=0 time=92\n",
      "note_on channel=6 note=37 velocity=127 time=4\n",
      "note_off channel=6 note=37 velocity=0 time=92\n",
      "note_on channel=6 note=37 velocity=127 time=4\n",
      "note_off channel=6 note=37 velocity=0 time=188\n",
      "note_on channel=6 note=37 velocity=127 time=4\n",
      "note_off channel=6 note=37 velocity=0 time=92\n",
      "note_on channel=6 note=37 velocity=127 time=4\n",
      "note_off channel=6 note=37 velocity=0 time=92\n",
      "note_on channel=6 note=37 velocity=127 time=4\n",
      "note_off channel=6 note=37 velocity=0 time=188\n",
      "note_on channel=6 note=37 velocity=127 time=4\n",
      "note_off channel=6 note=37 velocity=0 time=92\n",
      "note_on channel=6 note=37 velocity=127 time=4\n",
      "note_off channel=6 note=37 velocity=0 time=92\n",
      "note_on channel=6 note=37 velocity=127 time=4\n",
      "note_off channel=6 note=37 velocity=0 time=188\n",
      "note_on channel=6 note=37 velocity=127 time=4\n",
      "note_off channel=6 note=37 velocity=0 time=92\n",
      "note_on channel=6 note=37 velocity=127 time=4\n",
      "note_off channel=6 note=37 velocity=0 time=92\n",
      "note_on channel=6 note=37 velocity=127 time=4\n",
      "note_off channel=6 note=37 velocity=0 time=188\n",
      "note_on channel=6 note=37 velocity=127 time=4\n",
      "note_off channel=6 note=37 velocity=0 time=92\n",
      "note_on channel=6 note=37 velocity=127 time=4\n",
      "note_off channel=6 note=37 velocity=0 time=92\n",
      "note_on channel=6 note=37 velocity=127 time=4\n",
      "note_off channel=6 note=37 velocity=0 time=188\n",
      "note_on channel=6 note=37 velocity=127 time=4\n",
      "note_off channel=6 note=37 velocity=0 time=92\n",
      "note_on channel=6 note=37 velocity=127 time=4\n",
      "note_off channel=6 note=37 velocity=0 time=92\n",
      "note_on channel=6 note=37 velocity=127 time=4\n",
      "note_off channel=6 note=37 velocity=0 time=188\n",
      "note_on channel=6 note=37 velocity=127 time=4\n",
      "note_off channel=6 note=37 velocity=0 time=92\n",
      "note_on channel=6 note=37 velocity=127 time=4\n",
      "note_off channel=6 note=37 velocity=0 time=92\n",
      "note_on channel=6 note=37 velocity=127 time=4\n",
      "note_off channel=6 note=37 velocity=0 time=188\n",
      "note_on channel=6 note=37 velocity=127 time=4\n",
      "note_off channel=6 note=37 velocity=0 time=92\n",
      "note_on channel=6 note=37 velocity=127 time=4\n",
      "note_off channel=6 note=37 velocity=0 time=92\n",
      "note_on channel=6 note=30 velocity=127 time=4\n",
      "note_off channel=6 note=30 velocity=0 time=384\n",
      "note_on channel=6 note=30 velocity=127 time=0\n",
      "note_off channel=6 note=30 velocity=0 time=96\n",
      "note_on channel=6 note=30 velocity=127 time=96\n",
      "note_off channel=6 note=30 velocity=0 time=96\n",
      "note_on channel=6 note=30 velocity=127 time=0\n",
      "note_off channel=6 note=30 velocity=0 time=96\n",
      "note_on channel=6 note=30 velocity=127 time=96\n",
      "note_off channel=6 note=30 velocity=0 time=96\n",
      "note_on channel=6 note=30 velocity=127 time=0\n",
      "note_off channel=6 note=30 velocity=0 time=96\n",
      "note_on channel=6 note=30 velocity=127 time=96\n",
      "note_off channel=6 note=30 velocity=0 time=96\n",
      "note_on channel=6 note=30 velocity=127 time=96\n",
      "note_off channel=6 note=30 velocity=0 time=96\n",
      "note_on channel=6 note=30 velocity=127 time=96\n",
      "note_off channel=6 note=30 velocity=0 time=384\n",
      "note_on channel=6 note=30 velocity=127 time=0\n",
      "note_off channel=6 note=30 velocity=0 time=96\n",
      "note_on channel=6 note=30 velocity=127 time=96\n",
      "note_off channel=6 note=30 velocity=0 time=96\n",
      "note_on channel=6 note=30 velocity=127 time=96\n",
      "note_off channel=6 note=30 velocity=0 time=96\n",
      "note_on channel=6 note=30 velocity=127 time=96\n",
      "note_off channel=6 note=30 velocity=0 time=96\n",
      "note_on channel=6 note=30 velocity=127 time=0\n",
      "note_off channel=6 note=30 velocity=0 time=96\n",
      "note_on channel=6 note=30 velocity=127 time=96\n",
      "note_off channel=6 note=30 velocity=0 time=96\n",
      "note_on channel=6 note=30 velocity=127 time=96\n",
      "note_on channel=6 note=35 velocity=127 time=96\n",
      "note_off channel=6 note=30 velocity=0 time=96\n",
      "note_off channel=6 note=35 velocity=0 time=92\n",
      "note_on channel=6 note=35 velocity=127 time=4\n",
      "note_off channel=6 note=35 velocity=0 time=92\n",
      "note_on channel=6 note=35 velocity=127 time=4\n",
      "note_off channel=6 note=35 velocity=0 time=92\n",
      "note_on channel=6 note=35 velocity=127 time=4\n",
      "note_off channel=6 note=35 velocity=0 time=188\n",
      "note_on channel=6 note=35 velocity=127 time=4\n",
      "note_off channel=6 note=35 velocity=0 time=188\n",
      "note_on channel=6 note=35 velocity=127 time=4\n",
      "note_off channel=6 note=35 velocity=0 time=188\n",
      "note_on channel=6 note=35 velocity=127 time=4\n",
      "note_off channel=6 note=35 velocity=0 time=92\n",
      "note_on channel=6 note=35 velocity=127 time=4\n",
      "note_off channel=6 note=35 velocity=0 time=92\n",
      "note_on channel=6 note=35 velocity=127 time=4\n",
      "note_off channel=6 note=35 velocity=0 time=188\n",
      "note_on channel=6 note=35 velocity=127 time=4\n",
      "note_off channel=6 note=35 velocity=0 time=188\n",
      "note_on channel=6 note=33 velocity=127 time=4\n",
      "note_off channel=6 note=33 velocity=0 time=188\n",
      "note_on channel=6 note=33 velocity=127 time=4\n",
      "note_off channel=6 note=33 velocity=0 time=92\n",
      "note_on channel=6 note=33 velocity=127 time=4\n",
      "note_off channel=6 note=33 velocity=0 time=92\n",
      "note_on channel=6 note=33 velocity=127 time=4\n",
      "note_off channel=6 note=33 velocity=0 time=188\n",
      "note_on channel=6 note=33 velocity=127 time=4\n",
      "note_off channel=6 note=33 velocity=0 time=188\n",
      "note_on channel=6 note=33 velocity=127 time=4\n",
      "note_off channel=6 note=33 velocity=0 time=188\n",
      "note_on channel=6 note=33 velocity=127 time=4\n",
      "note_off channel=6 note=33 velocity=0 time=92\n",
      "note_on channel=6 note=33 velocity=127 time=4\n",
      "note_off channel=6 note=33 velocity=0 time=92\n",
      "note_on channel=6 note=33 velocity=127 time=4\n",
      "note_off channel=6 note=33 velocity=0 time=188\n",
      "note_on channel=6 note=33 velocity=127 time=4\n",
      "note_off channel=6 note=33 velocity=0 time=188\n",
      "note_on channel=6 note=38 velocity=127 time=4\n",
      "note_off channel=6 note=38 velocity=0 time=188\n",
      "note_on channel=6 note=38 velocity=127 time=4\n",
      "note_off channel=6 note=38 velocity=0 time=92\n",
      "note_on channel=6 note=38 velocity=127 time=4\n",
      "note_off channel=6 note=38 velocity=0 time=92\n",
      "note_on channel=6 note=38 velocity=127 time=4\n",
      "note_off channel=6 note=38 velocity=0 time=188\n",
      "note_on channel=6 note=38 velocity=127 time=4\n",
      "note_off channel=6 note=38 velocity=0 time=188\n",
      "note_on channel=6 note=38 velocity=127 time=4\n",
      "note_off channel=6 note=38 velocity=0 time=188\n",
      "note_on channel=6 note=38 velocity=127 time=4\n",
      "note_off channel=6 note=38 velocity=0 time=92\n",
      "note_on channel=6 note=38 velocity=127 time=4\n",
      "note_off channel=6 note=38 velocity=0 time=92\n",
      "note_on channel=6 note=38 velocity=127 time=4\n",
      "note_off channel=6 note=38 velocity=0 time=188\n",
      "note_on channel=6 note=38 velocity=127 time=4\n",
      "note_off channel=6 note=38 velocity=0 time=188\n",
      "note_on channel=6 note=31 velocity=127 time=4\n",
      "note_off channel=6 note=31 velocity=0 time=188\n",
      "note_on channel=6 note=31 velocity=127 time=4\n",
      "note_off channel=6 note=31 velocity=0 time=92\n",
      "note_on channel=6 note=31 velocity=127 time=4\n",
      "note_off channel=6 note=31 velocity=0 time=92\n",
      "note_on channel=6 note=31 velocity=127 time=4\n",
      "note_off channel=6 note=31 velocity=0 time=188\n",
      "note_on channel=6 note=31 velocity=127 time=4\n",
      "note_off channel=6 note=31 velocity=0 time=188\n",
      "note_on channel=6 note=30 velocity=127 time=4\n",
      "note_off channel=6 note=30 velocity=0 time=188\n",
      "note_on channel=6 note=30 velocity=127 time=4\n",
      "note_off channel=6 note=30 velocity=0 time=92\n",
      "note_on channel=6 note=30 velocity=127 time=4\n",
      "note_off channel=6 note=30 velocity=0 time=92\n",
      "note_on channel=6 note=30 velocity=127 time=4\n",
      "note_off channel=6 note=30 velocity=0 time=188\n",
      "note_on channel=6 note=30 velocity=127 time=4\n",
      "note_off channel=6 note=30 velocity=0 time=188\n",
      "note_on channel=6 note=28 velocity=127 time=4\n",
      "note_off channel=6 note=28 velocity=0 time=188\n",
      "note_on channel=6 note=28 velocity=127 time=4\n",
      "note_off channel=6 note=28 velocity=0 time=92\n",
      "note_on channel=6 note=28 velocity=127 time=4\n",
      "note_off channel=6 note=28 velocity=0 time=92\n",
      "note_on channel=6 note=28 velocity=127 time=4\n",
      "note_off channel=6 note=28 velocity=0 time=188\n",
      "note_on channel=6 note=28 velocity=127 time=4\n",
      "note_off channel=6 note=28 velocity=0 time=188\n",
      "note_on channel=6 note=28 velocity=127 time=4\n",
      "note_off channel=6 note=28 velocity=0 time=188\n",
      "note_on channel=6 note=28 velocity=127 time=4\n",
      "note_off channel=6 note=28 velocity=0 time=92\n",
      "note_on channel=6 note=28 velocity=127 time=4\n",
      "note_off channel=6 note=28 velocity=0 time=92\n",
      "note_on channel=6 note=28 velocity=127 time=4\n",
      "note_off channel=6 note=28 velocity=0 time=188\n",
      "note_on channel=6 note=28 velocity=127 time=4\n",
      "note_off channel=6 note=28 velocity=0 time=188\n",
      "note_on channel=6 note=33 velocity=127 time=4\n",
      "note_off channel=6 note=33 velocity=0 time=188\n",
      "note_on channel=6 note=33 velocity=127 time=4\n",
      "note_off channel=6 note=33 velocity=0 time=92\n",
      "note_on channel=6 note=33 velocity=127 time=4\n",
      "note_off channel=6 note=33 velocity=0 time=92\n",
      "note_on channel=6 note=33 velocity=127 time=4\n",
      "note_off channel=6 note=33 velocity=0 time=188\n",
      "note_on channel=6 note=33 velocity=127 time=4\n",
      "note_off channel=6 note=33 velocity=0 time=188\n",
      "note_on channel=6 note=33 velocity=127 time=4\n",
      "note_off channel=6 note=33 velocity=0 time=188\n",
      "note_on channel=6 note=33 velocity=127 time=4\n",
      "note_off channel=6 note=33 velocity=0 time=92\n",
      "note_on channel=6 note=33 velocity=127 time=4\n",
      "note_off channel=6 note=33 velocity=0 time=92\n",
      "note_on channel=6 note=33 velocity=127 time=4\n",
      "note_off channel=6 note=33 velocity=0 time=188\n",
      "note_on channel=6 note=33 velocity=127 time=4\n",
      "note_off channel=6 note=33 velocity=0 time=188\n",
      "note_on channel=6 note=35 velocity=127 time=4\n",
      "note_off channel=6 note=35 velocity=0 time=188\n",
      "note_on channel=6 note=35 velocity=127 time=4\n",
      "note_off channel=6 note=35 velocity=0 time=92\n",
      "note_on channel=6 note=35 velocity=127 time=4\n",
      "note_off channel=6 note=35 velocity=0 time=92\n",
      "note_on channel=6 note=35 velocity=127 time=4\n",
      "note_off channel=6 note=35 velocity=0 time=188\n",
      "note_on channel=6 note=35 velocity=127 time=4\n",
      "note_off channel=6 note=35 velocity=0 time=188\n",
      "note_on channel=6 note=35 velocity=127 time=4\n",
      "note_off channel=6 note=35 velocity=0 time=188\n",
      "note_on channel=6 note=35 velocity=127 time=4\n",
      "note_off channel=6 note=35 velocity=0 time=92\n",
      "note_on channel=6 note=35 velocity=127 time=4\n",
      "note_off channel=6 note=35 velocity=0 time=92\n",
      "note_on channel=6 note=35 velocity=127 time=4\n",
      "note_off channel=6 note=35 velocity=0 time=188\n",
      "note_on channel=6 note=35 velocity=127 time=4\n",
      "note_off channel=6 note=35 velocity=0 time=188\n",
      "note_on channel=6 note=30 velocity=127 time=4\n",
      "note_off channel=6 note=30 velocity=0 time=188\n",
      "note_on channel=6 note=30 velocity=127 time=4\n",
      "note_off channel=6 note=30 velocity=0 time=92\n",
      "note_on channel=6 note=30 velocity=127 time=4\n",
      "note_off channel=6 note=30 velocity=0 time=92\n",
      "note_on channel=6 note=30 velocity=127 time=4\n",
      "note_off channel=6 note=30 velocity=0 time=188\n",
      "note_on channel=6 note=30 velocity=127 time=4\n",
      "note_off channel=6 note=30 velocity=0 time=188\n",
      "note_on channel=6 note=30 velocity=127 time=4\n",
      "note_off channel=6 note=30 velocity=0 time=188\n",
      "note_on channel=6 note=30 velocity=127 time=4\n",
      "note_off channel=6 note=30 velocity=0 time=92\n",
      "note_on channel=6 note=30 velocity=127 time=4\n",
      "note_off channel=6 note=30 velocity=0 time=92\n",
      "note_on channel=6 note=30 velocity=127 time=4\n",
      "note_off channel=6 note=30 velocity=0 time=188\n",
      "note_on channel=6 note=30 velocity=127 time=4\n",
      "note_off channel=6 note=30 velocity=0 time=188\n",
      "note_on channel=6 note=35 velocity=127 time=4\n",
      "note_off channel=6 note=35 velocity=0 time=188\n",
      "note_on channel=6 note=35 velocity=127 time=4\n",
      "note_off channel=6 note=35 velocity=0 time=92\n",
      "note_on channel=6 note=35 velocity=127 time=4\n",
      "note_off channel=6 note=35 velocity=0 time=92\n",
      "note_on channel=6 note=35 velocity=127 time=4\n",
      "note_off channel=6 note=35 velocity=0 time=188\n",
      "note_on channel=6 note=35 velocity=127 time=4\n",
      "note_off channel=6 note=35 velocity=0 time=188\n",
      "note_on channel=6 note=35 velocity=127 time=4\n",
      "note_off channel=6 note=35 velocity=0 time=188\n",
      "note_on channel=6 note=35 velocity=127 time=4\n",
      "note_off channel=6 note=35 velocity=0 time=92\n",
      "note_on channel=6 note=35 velocity=127 time=4\n",
      "note_off channel=6 note=35 velocity=0 time=92\n",
      "note_on channel=6 note=35 velocity=127 time=4\n",
      "note_off channel=6 note=35 velocity=0 time=188\n",
      "note_on channel=6 note=35 velocity=127 time=4\n",
      "note_off channel=6 note=35 velocity=0 time=188\n",
      "note_on channel=6 note=33 velocity=127 time=4\n",
      "note_off channel=6 note=33 velocity=0 time=188\n",
      "note_on channel=6 note=33 velocity=127 time=4\n",
      "note_off channel=6 note=33 velocity=0 time=92\n",
      "note_on channel=6 note=33 velocity=127 time=4\n",
      "note_off channel=6 note=33 velocity=0 time=92\n",
      "note_on channel=6 note=33 velocity=127 time=4\n",
      "note_off channel=6 note=33 velocity=0 time=188\n",
      "note_on channel=6 note=33 velocity=127 time=4\n",
      "note_off channel=6 note=33 velocity=0 time=188\n",
      "note_on channel=6 note=33 velocity=127 time=4\n",
      "note_off channel=6 note=33 velocity=0 time=188\n",
      "note_on channel=6 note=33 velocity=127 time=4\n",
      "note_off channel=6 note=33 velocity=0 time=92\n",
      "note_on channel=6 note=33 velocity=127 time=4\n",
      "note_off channel=6 note=33 velocity=0 time=92\n",
      "note_on channel=6 note=33 velocity=127 time=4\n",
      "note_off channel=6 note=33 velocity=0 time=188\n",
      "note_on channel=6 note=33 velocity=127 time=4\n",
      "note_off channel=6 note=33 velocity=0 time=188\n",
      "note_on channel=6 note=38 velocity=127 time=4\n",
      "note_off channel=6 note=38 velocity=0 time=188\n",
      "note_on channel=6 note=38 velocity=127 time=4\n",
      "note_off channel=6 note=38 velocity=0 time=92\n",
      "note_on channel=6 note=38 velocity=127 time=4\n",
      "note_off channel=6 note=38 velocity=0 time=92\n",
      "note_on channel=6 note=38 velocity=127 time=4\n",
      "note_off channel=6 note=38 velocity=0 time=188\n",
      "note_on channel=6 note=38 velocity=127 time=4\n",
      "note_off channel=6 note=38 velocity=0 time=188\n",
      "note_on channel=6 note=38 velocity=127 time=4\n",
      "note_off channel=6 note=38 velocity=0 time=188\n",
      "note_on channel=6 note=38 velocity=127 time=4\n",
      "note_off channel=6 note=38 velocity=0 time=92\n",
      "note_on channel=6 note=38 velocity=127 time=4\n",
      "note_off channel=6 note=38 velocity=0 time=92\n",
      "note_on channel=6 note=38 velocity=127 time=4\n",
      "note_off channel=6 note=38 velocity=0 time=188\n",
      "note_on channel=6 note=38 velocity=127 time=4\n",
      "note_off channel=6 note=38 velocity=0 time=188\n",
      "note_on channel=6 note=31 velocity=127 time=4\n",
      "note_off channel=6 note=31 velocity=0 time=188\n",
      "note_on channel=6 note=31 velocity=127 time=4\n",
      "note_off channel=6 note=31 velocity=0 time=92\n",
      "note_on channel=6 note=31 velocity=127 time=4\n",
      "note_off channel=6 note=31 velocity=0 time=92\n",
      "note_on channel=6 note=31 velocity=127 time=4\n",
      "note_off channel=6 note=31 velocity=0 time=188\n",
      "note_on channel=6 note=31 velocity=127 time=4\n",
      "note_off channel=6 note=31 velocity=0 time=188\n",
      "note_on channel=6 note=30 velocity=127 time=4\n",
      "note_off channel=6 note=30 velocity=0 time=188\n",
      "note_on channel=6 note=30 velocity=127 time=4\n",
      "note_off channel=6 note=30 velocity=0 time=92\n",
      "note_on channel=6 note=30 velocity=127 time=4\n",
      "note_off channel=6 note=30 velocity=0 time=92\n",
      "note_on channel=6 note=30 velocity=127 time=4\n",
      "note_off channel=6 note=30 velocity=0 time=188\n",
      "note_on channel=6 note=30 velocity=127 time=4\n",
      "note_off channel=6 note=30 velocity=0 time=188\n",
      "note_on channel=6 note=28 velocity=127 time=4\n",
      "note_off channel=6 note=28 velocity=0 time=188\n",
      "note_on channel=6 note=28 velocity=127 time=4\n",
      "note_off channel=6 note=28 velocity=0 time=92\n",
      "note_on channel=6 note=28 velocity=127 time=4\n",
      "note_off channel=6 note=28 velocity=0 time=92\n",
      "note_on channel=6 note=28 velocity=127 time=4\n",
      "note_off channel=6 note=28 velocity=0 time=188\n",
      "note_on channel=6 note=28 velocity=127 time=4\n",
      "note_off channel=6 note=28 velocity=0 time=188\n",
      "note_on channel=6 note=28 velocity=127 time=4\n",
      "note_off channel=6 note=28 velocity=0 time=188\n",
      "note_on channel=6 note=28 velocity=127 time=4\n",
      "note_off channel=6 note=28 velocity=0 time=92\n",
      "note_on channel=6 note=28 velocity=127 time=4\n",
      "note_off channel=6 note=28 velocity=0 time=92\n",
      "note_on channel=6 note=28 velocity=127 time=4\n",
      "note_off channel=6 note=28 velocity=0 time=188\n",
      "note_on channel=6 note=28 velocity=127 time=4\n",
      "note_off channel=6 note=28 velocity=0 time=188\n",
      "note_on channel=6 note=33 velocity=127 time=4\n",
      "note_off channel=6 note=33 velocity=0 time=188\n",
      "note_on channel=6 note=33 velocity=127 time=4\n",
      "note_off channel=6 note=33 velocity=0 time=92\n",
      "note_on channel=6 note=33 velocity=127 time=4\n",
      "note_off channel=6 note=33 velocity=0 time=92\n",
      "note_on channel=6 note=33 velocity=127 time=4\n",
      "note_off channel=6 note=33 velocity=0 time=188\n",
      "note_on channel=6 note=33 velocity=127 time=4\n",
      "note_off channel=6 note=33 velocity=0 time=188\n",
      "note_on channel=6 note=33 velocity=127 time=4\n",
      "note_off channel=6 note=33 velocity=0 time=188\n",
      "note_on channel=6 note=33 velocity=127 time=4\n",
      "note_off channel=6 note=33 velocity=0 time=92\n",
      "note_on channel=6 note=33 velocity=127 time=4\n",
      "note_off channel=6 note=33 velocity=0 time=92\n",
      "note_on channel=6 note=33 velocity=127 time=4\n",
      "note_off channel=6 note=33 velocity=0 time=188\n",
      "note_on channel=6 note=33 velocity=127 time=4\n",
      "note_off channel=6 note=33 velocity=0 time=188\n",
      "note_on channel=6 note=35 velocity=127 time=4\n",
      "note_off channel=6 note=35 velocity=0 time=188\n",
      "note_on channel=6 note=35 velocity=127 time=4\n",
      "note_off channel=6 note=35 velocity=0 time=92\n",
      "note_on channel=6 note=35 velocity=127 time=4\n",
      "note_off channel=6 note=35 velocity=0 time=92\n",
      "note_on channel=6 note=35 velocity=127 time=4\n",
      "note_off channel=6 note=35 velocity=0 time=188\n",
      "note_on channel=6 note=35 velocity=127 time=4\n",
      "note_off channel=6 note=35 velocity=0 time=188\n",
      "note_on channel=6 note=35 velocity=127 time=4\n",
      "note_off channel=6 note=35 velocity=0 time=188\n",
      "note_on channel=6 note=35 velocity=127 time=4\n",
      "note_off channel=6 note=35 velocity=0 time=92\n",
      "note_on channel=6 note=35 velocity=127 time=4\n",
      "note_off channel=6 note=35 velocity=0 time=92\n",
      "note_on channel=6 note=35 velocity=127 time=4\n",
      "note_off channel=6 note=35 velocity=0 time=188\n",
      "note_on channel=6 note=35 velocity=127 time=4\n",
      "note_off channel=6 note=35 velocity=0 time=188\n",
      "note_on channel=6 note=37 velocity=127 time=4\n",
      "note_off channel=6 note=37 velocity=0 time=188\n",
      "note_on channel=6 note=37 velocity=127 time=4\n",
      "note_off channel=6 note=37 velocity=0 time=92\n",
      "note_on channel=6 note=37 velocity=127 time=4\n",
      "note_off channel=6 note=37 velocity=0 time=92\n",
      "note_on channel=6 note=37 velocity=127 time=4\n",
      "note_off channel=6 note=37 velocity=0 time=188\n",
      "note_on channel=6 note=37 velocity=127 time=4\n",
      "note_off channel=6 note=37 velocity=0 time=188\n",
      "note_on channel=6 note=37 velocity=127 time=4\n",
      "note_off channel=6 note=37 velocity=0 time=188\n",
      "note_on channel=6 note=37 velocity=127 time=4\n",
      "note_off channel=6 note=37 velocity=0 time=92\n",
      "note_on channel=6 note=37 velocity=127 time=4\n",
      "note_off channel=6 note=37 velocity=0 time=92\n",
      "note_on channel=6 note=37 velocity=127 time=4\n",
      "note_off channel=6 note=37 velocity=0 time=188\n",
      "note_on channel=6 note=37 velocity=127 time=4\n",
      "note_off channel=6 note=37 velocity=0 time=188\n",
      "note_on channel=6 note=30 velocity=127 time=6\n",
      "note_off channel=6 note=30 velocity=0 time=358\n",
      "note_on channel=6 note=37 velocity=127 time=990\n",
      "note_off channel=6 note=37 velocity=0 time=194\n",
      "note_on channel=6 note=38 velocity=127 time=10\n",
      "note_off channel=6 note=38 velocity=0 time=294\n",
      "note_on channel=6 note=35 velocity=127 time=1242\n",
      "note_off channel=6 note=35 velocity=0 time=394\n",
      "note_on channel=6 note=38 velocity=127 time=932\n",
      "note_on channel=6 note=40 velocity=127 time=194\n",
      "note_off channel=6 note=38 velocity=0 time=10\n",
      "note_off channel=6 note=40 velocity=0 time=348\n",
      "note_on channel=6 note=40 velocity=90 time=984\n",
      "note_off channel=6 note=40 velocity=0 time=188\n",
      "note_on channel=6 note=30 velocity=127 time=4\n",
      "note_off channel=6 note=30 velocity=0 time=508\n",
      "note_on channel=6 note=37 velocity=127 time=836\n",
      "note_on channel=6 note=38 velocity=127 time=204\n",
      "note_on channel=6 note=39 velocity=127 time=0\n",
      "note_off channel=6 note=37 velocity=0 time=10\n",
      "note_off channel=6 note=39 velocity=0 time=74\n",
      "note_off channel=6 note=38 velocity=0 time=456\n",
      "note_on channel=6 note=35 velocity=127 time=1000\n",
      "note_off channel=6 note=35 velocity=0 time=566\n",
      "note_on channel=6 note=38 velocity=127 time=746\n",
      "note_on channel=6 note=40 velocity=127 time=208\n",
      "note_off channel=6 note=38 velocity=0 time=12\n",
      "note_off channel=6 note=40 velocity=0 time=532\n",
      "note_on channel=6 note=30 velocity=99 time=992\n",
      "note_off channel=6 note=30 velocity=0 time=736\n",
      "note_on channel=6 note=32 velocity=84 time=0\n",
      "note_on channel=6 note=33 velocity=82 time=736\n",
      "note_off channel=6 note=32 velocity=0 time=8\n",
      "note_on channel=6 note=32 velocity=127 time=206\n",
      "note_off channel=6 note=33 velocity=0 time=28\n",
      "note_on channel=6 note=30 velocity=127 time=170\n",
      "note_off channel=6 note=32 velocity=0 time=26\n",
      "note_off channel=6 note=30 velocity=0 time=176\n",
      "note_on channel=6 note=28 velocity=127 time=12\n",
      "note_off channel=6 note=28 velocity=0 time=174\n",
      "note_on channel=6 note=38 velocity=127 time=32\n",
      "note_off channel=6 note=38 velocity=0 time=380\n",
      "note_on channel=6 note=38 velocity=127 time=4\n",
      "note_off channel=6 note=38 velocity=0 time=380\n",
      "note_on channel=6 note=37 velocity=127 time=4\n",
      "note_off channel=6 note=37 velocity=0 time=3068\n",
      "note_on channel=6 note=30 velocity=127 time=4\n",
      "note_off channel=6 note=30 velocity=0 time=188\n",
      "note_on channel=6 note=30 velocity=127 time=4\n",
      "note_off channel=6 note=30 velocity=0 time=92\n",
      "note_on channel=6 note=30 velocity=127 time=4\n",
      "note_off channel=6 note=30 velocity=0 time=92\n",
      "note_on channel=6 note=30 velocity=127 time=4\n",
      "note_off channel=6 note=30 velocity=0 time=188\n",
      "note_on channel=6 note=30 velocity=127 time=4\n",
      "note_off channel=6 note=30 velocity=0 time=188\n",
      "note_on channel=6 note=30 velocity=127 time=4\n",
      "note_off channel=6 note=30 velocity=0 time=188\n",
      "note_on channel=6 note=30 velocity=127 time=4\n",
      "note_off channel=6 note=30 velocity=0 time=92\n",
      "note_on channel=6 note=30 velocity=127 time=4\n",
      "note_off channel=6 note=30 velocity=0 time=92\n",
      "note_on channel=6 note=30 velocity=127 time=4\n",
      "note_off channel=6 note=30 velocity=0 time=188\n",
      "note_on channel=6 note=30 velocity=127 time=4\n",
      "note_off channel=6 note=30 velocity=0 time=188\n",
      "note_on channel=6 note=38 velocity=127 time=4\n",
      "note_off channel=6 note=38 velocity=0 time=188\n",
      "note_on channel=6 note=38 velocity=127 time=4\n",
      "note_off channel=6 note=38 velocity=0 time=92\n",
      "note_on channel=6 note=38 velocity=127 time=4\n",
      "note_off channel=6 note=38 velocity=0 time=92\n",
      "note_on channel=6 note=38 velocity=127 time=4\n",
      "note_off channel=6 note=38 velocity=0 time=188\n",
      "note_on channel=6 note=38 velocity=127 time=4\n",
      "note_off channel=6 note=38 velocity=0 time=188\n",
      "note_on channel=6 note=38 velocity=127 time=4\n",
      "note_off channel=6 note=38 velocity=0 time=188\n",
      "note_on channel=6 note=38 velocity=127 time=4\n",
      "note_off channel=6 note=38 velocity=0 time=92\n",
      "note_on channel=6 note=38 velocity=127 time=4\n",
      "note_off channel=6 note=38 velocity=0 time=92\n",
      "note_on channel=6 note=38 velocity=127 time=4\n",
      "note_off channel=6 note=38 velocity=0 time=188\n",
      "note_on channel=6 note=38 velocity=127 time=4\n",
      "note_off channel=6 note=38 velocity=0 time=188\n",
      "note_on channel=6 note=35 velocity=127 time=4\n",
      "note_off channel=6 note=35 velocity=0 time=188\n",
      "note_on channel=6 note=35 velocity=127 time=4\n",
      "note_off channel=6 note=35 velocity=0 time=92\n",
      "note_on channel=6 note=35 velocity=127 time=4\n",
      "note_off channel=6 note=35 velocity=0 time=92\n",
      "note_on channel=6 note=35 velocity=127 time=4\n",
      "note_off channel=6 note=35 velocity=0 time=188\n",
      "note_on channel=6 note=35 velocity=127 time=4\n",
      "note_off channel=6 note=35 velocity=0 time=188\n",
      "note_on channel=6 note=35 velocity=127 time=4\n",
      "note_off channel=6 note=35 velocity=0 time=188\n",
      "note_on channel=6 note=35 velocity=127 time=4\n",
      "note_off channel=6 note=35 velocity=0 time=92\n",
      "note_on channel=6 note=35 velocity=127 time=4\n",
      "note_off channel=6 note=35 velocity=0 time=92\n",
      "note_on channel=6 note=35 velocity=127 time=4\n",
      "note_off channel=6 note=35 velocity=0 time=188\n",
      "note_on channel=6 note=35 velocity=127 time=4\n",
      "note_off channel=6 note=35 velocity=0 time=188\n",
      "note_on channel=6 note=28 velocity=127 time=4\n",
      "note_off channel=6 note=28 velocity=0 time=188\n",
      "note_on channel=6 note=28 velocity=127 time=4\n",
      "note_off channel=6 note=28 velocity=0 time=92\n",
      "note_on channel=6 note=28 velocity=127 time=4\n",
      "note_off channel=6 note=28 velocity=0 time=92\n",
      "note_on channel=6 note=28 velocity=127 time=4\n",
      "note_off channel=6 note=28 velocity=0 time=188\n",
      "note_on channel=6 note=28 velocity=127 time=4\n",
      "note_off channel=6 note=28 velocity=0 time=188\n",
      "note_on channel=6 note=28 velocity=127 time=4\n",
      "note_off channel=6 note=28 velocity=0 time=188\n",
      "note_on channel=6 note=28 velocity=127 time=4\n",
      "note_off channel=6 note=28 velocity=0 time=92\n",
      "note_on channel=6 note=28 velocity=127 time=4\n",
      "note_off channel=6 note=28 velocity=0 time=92\n",
      "note_on channel=6 note=28 velocity=127 time=4\n",
      "note_off channel=6 note=28 velocity=0 time=188\n",
      "note_on channel=6 note=28 velocity=127 time=4\n",
      "note_off channel=6 note=28 velocity=0 time=188\n",
      "note_on channel=6 note=30 velocity=127 time=4\n",
      "note_off channel=6 note=30 velocity=0 time=188\n",
      "note_on channel=6 note=30 velocity=127 time=4\n",
      "note_off channel=6 note=30 velocity=0 time=92\n",
      "note_on channel=6 note=30 velocity=127 time=4\n",
      "note_off channel=6 note=30 velocity=0 time=92\n",
      "note_on channel=6 note=30 velocity=127 time=4\n",
      "note_off channel=6 note=30 velocity=0 time=188\n",
      "note_on channel=6 note=30 velocity=127 time=4\n",
      "note_off channel=6 note=30 velocity=0 time=188\n",
      "note_on channel=6 note=30 velocity=127 time=4\n",
      "note_off channel=6 note=30 velocity=0 time=188\n",
      "note_on channel=6 note=30 velocity=127 time=4\n",
      "note_off channel=6 note=30 velocity=0 time=92\n",
      "note_on channel=6 note=30 velocity=127 time=4\n",
      "note_off channel=6 note=30 velocity=0 time=92\n",
      "note_on channel=6 note=30 velocity=127 time=4\n",
      "note_off channel=6 note=30 velocity=0 time=188\n",
      "note_on channel=6 note=30 velocity=127 time=4\n",
      "note_off channel=6 note=30 velocity=0 time=188\n",
      "note_on channel=6 note=38 velocity=127 time=4\n",
      "note_off channel=6 note=38 velocity=0 time=188\n",
      "note_on channel=6 note=38 velocity=127 time=4\n",
      "note_off channel=6 note=38 velocity=0 time=92\n",
      "note_on channel=6 note=38 velocity=127 time=4\n",
      "note_off channel=6 note=38 velocity=0 time=92\n",
      "note_on channel=6 note=38 velocity=127 time=4\n",
      "note_off channel=6 note=38 velocity=0 time=188\n",
      "note_on channel=6 note=38 velocity=127 time=4\n",
      "note_off channel=6 note=38 velocity=0 time=188\n",
      "note_on channel=6 note=38 velocity=127 time=4\n",
      "note_off channel=6 note=38 velocity=0 time=188\n",
      "note_on channel=6 note=38 velocity=127 time=4\n",
      "note_off channel=6 note=38 velocity=0 time=92\n",
      "note_on channel=6 note=38 velocity=127 time=4\n",
      "note_off channel=6 note=38 velocity=0 time=92\n",
      "note_on channel=6 note=38 velocity=127 time=4\n",
      "note_off channel=6 note=38 velocity=0 time=188\n",
      "note_on channel=6 note=38 velocity=127 time=4\n",
      "note_off channel=6 note=38 velocity=0 time=188\n",
      "note_on channel=6 note=35 velocity=127 time=4\n",
      "note_off channel=6 note=35 velocity=0 time=188\n",
      "note_on channel=6 note=35 velocity=127 time=4\n",
      "note_off channel=6 note=35 velocity=0 time=92\n",
      "note_on channel=6 note=35 velocity=127 time=4\n",
      "note_off channel=6 note=35 velocity=0 time=92\n",
      "note_on channel=6 note=35 velocity=127 time=4\n",
      "note_off channel=6 note=35 velocity=0 time=188\n",
      "note_on channel=6 note=35 velocity=127 time=4\n",
      "note_off channel=6 note=35 velocity=0 time=188\n",
      "note_on channel=6 note=35 velocity=127 time=4\n",
      "note_off channel=6 note=35 velocity=0 time=188\n",
      "note_on channel=6 note=35 velocity=127 time=4\n",
      "note_off channel=6 note=35 velocity=0 time=92\n",
      "note_on channel=6 note=35 velocity=127 time=4\n",
      "note_off channel=6 note=35 velocity=0 time=92\n",
      "note_on channel=6 note=35 velocity=127 time=4\n",
      "note_off channel=6 note=35 velocity=0 time=188\n",
      "note_on channel=6 note=35 velocity=127 time=4\n",
      "note_off channel=6 note=35 velocity=0 time=188\n",
      "note_on channel=6 note=28 velocity=127 time=4\n",
      "note_off channel=6 note=28 velocity=0 time=188\n",
      "note_on channel=6 note=28 velocity=127 time=4\n",
      "note_off channel=6 note=28 velocity=0 time=92\n",
      "note_on channel=6 note=28 velocity=127 time=4\n",
      "note_off channel=6 note=28 velocity=0 time=92\n",
      "note_on channel=6 note=28 velocity=127 time=4\n",
      "note_off channel=6 note=28 velocity=0 time=188\n",
      "note_on channel=6 note=28 velocity=127 time=4\n",
      "note_off channel=6 note=28 velocity=0 time=188\n",
      "note_on channel=6 note=28 velocity=127 time=4\n",
      "note_off channel=6 note=28 velocity=0 time=188\n",
      "note_on channel=6 note=28 velocity=127 time=4\n",
      "note_off channel=6 note=28 velocity=0 time=92\n",
      "note_on channel=6 note=28 velocity=127 time=4\n",
      "note_off channel=6 note=28 velocity=0 time=92\n",
      "note_on channel=6 note=28 velocity=127 time=4\n",
      "note_off channel=6 note=28 velocity=0 time=188\n",
      "note_on channel=6 note=28 velocity=127 time=4\n",
      "note_off channel=6 note=28 velocity=0 time=188\n",
      "note_on channel=6 note=30 velocity=127 time=4\n",
      "note_off channel=6 note=30 velocity=0 time=188\n",
      "note_on channel=6 note=30 velocity=127 time=4\n",
      "note_off channel=6 note=30 velocity=0 time=92\n",
      "note_on channel=6 note=30 velocity=127 time=4\n",
      "note_off channel=6 note=30 velocity=0 time=92\n",
      "note_on channel=6 note=30 velocity=127 time=4\n",
      "note_off channel=6 note=30 velocity=0 time=188\n",
      "note_on channel=6 note=30 velocity=127 time=4\n",
      "note_off channel=6 note=30 velocity=0 time=92\n",
      "note_on channel=6 note=30 velocity=127 time=4\n",
      "note_off channel=6 note=30 velocity=0 time=92\n",
      "note_on channel=6 note=32 velocity=127 time=4\n",
      "note_off channel=6 note=32 velocity=0 time=188\n",
      "note_on channel=6 note=32 velocity=127 time=4\n",
      "note_off channel=6 note=32 velocity=0 time=92\n",
      "note_on channel=6 note=32 velocity=127 time=4\n",
      "note_off channel=6 note=32 velocity=0 time=92\n",
      "note_on channel=6 note=32 velocity=127 time=4\n",
      "note_off channel=6 note=32 velocity=0 time=188\n",
      "note_on channel=6 note=32 velocity=127 time=4\n",
      "note_off channel=6 note=32 velocity=0 time=92\n",
      "note_on channel=6 note=32 velocity=127 time=4\n",
      "note_off channel=6 note=32 velocity=0 time=92\n",
      "note_on channel=6 note=33 velocity=127 time=4\n",
      "note_off channel=6 note=33 velocity=0 time=188\n",
      "note_on channel=6 note=33 velocity=127 time=4\n",
      "note_off channel=6 note=33 velocity=0 time=92\n",
      "note_on channel=6 note=33 velocity=127 time=4\n",
      "note_off channel=6 note=33 velocity=0 time=92\n",
      "note_on channel=6 note=33 velocity=127 time=4\n",
      "note_off channel=6 note=33 velocity=0 time=188\n",
      "note_on channel=6 note=33 velocity=127 time=4\n",
      "note_off channel=6 note=33 velocity=0 time=92\n",
      "note_on channel=6 note=33 velocity=127 time=4\n",
      "note_off channel=6 note=33 velocity=0 time=92\n",
      "note_on channel=6 note=38 velocity=127 time=4\n",
      "note_off channel=6 note=38 velocity=0 time=188\n",
      "note_on channel=6 note=38 velocity=127 time=4\n",
      "note_off channel=6 note=38 velocity=0 time=92\n",
      "note_on channel=6 note=38 velocity=127 time=4\n",
      "note_off channel=6 note=38 velocity=0 time=92\n",
      "note_on channel=6 note=38 velocity=127 time=4\n",
      "note_off channel=6 note=38 velocity=0 time=188\n",
      "note_on channel=6 note=38 velocity=127 time=4\n",
      "note_off channel=6 note=38 velocity=0 time=92\n",
      "note_on channel=6 note=38 velocity=127 time=4\n",
      "note_off channel=6 note=38 velocity=0 time=92\n",
      "note_on channel=6 note=37 velocity=127 time=4\n",
      "note_off channel=6 note=37 velocity=0 time=188\n",
      "note_on channel=6 note=37 velocity=127 time=4\n",
      "note_off channel=6 note=37 velocity=0 time=92\n",
      "note_on channel=6 note=37 velocity=127 time=4\n",
      "note_off channel=6 note=37 velocity=0 time=92\n",
      "note_on channel=6 note=37 velocity=127 time=4\n",
      "note_off channel=6 note=37 velocity=0 time=188\n",
      "note_on channel=6 note=37 velocity=127 time=4\n",
      "note_off channel=6 note=37 velocity=0 time=92\n",
      "note_on channel=6 note=37 velocity=127 time=4\n",
      "note_off channel=6 note=37 velocity=0 time=92\n",
      "note_on channel=6 note=37 velocity=127 time=4\n",
      "note_off channel=6 note=37 velocity=0 time=188\n",
      "note_on channel=6 note=37 velocity=127 time=4\n",
      "note_off channel=6 note=37 velocity=0 time=92\n",
      "note_on channel=6 note=37 velocity=127 time=4\n",
      "note_off channel=6 note=37 velocity=0 time=92\n",
      "note_on channel=6 note=37 velocity=127 time=4\n",
      "note_off channel=6 note=37 velocity=0 time=188\n",
      "note_on channel=6 note=37 velocity=127 time=4\n",
      "note_off channel=6 note=37 velocity=0 time=92\n",
      "note_on channel=6 note=37 velocity=127 time=4\n",
      "note_off channel=6 note=37 velocity=0 time=92\n",
      "note_on channel=6 note=37 velocity=124 time=4\n",
      "note_off channel=6 note=37 velocity=0 time=198\n",
      "note_on channel=6 note=37 velocity=115 time=58\n",
      "note_off channel=6 note=37 velocity=0 time=178\n",
      "note_on channel=6 note=37 velocity=112 time=90\n",
      "note_off channel=6 note=37 velocity=0 time=160\n",
      "note_on channel=6 note=37 velocity=117 time=80\n",
      "note_off channel=6 note=37 velocity=0 time=244\n",
      "note_on channel=6 note=37 velocity=120 time=136\n",
      "note_off channel=6 note=37 velocity=0 time=378\n",
      "note_on channel=6 note=30 velocity=127 time=14\n",
      "note_off channel=6 note=30 velocity=0 time=188\n",
      "note_on channel=6 note=30 velocity=127 time=4\n",
      "note_off channel=6 note=30 velocity=0 time=92\n",
      "note_on channel=6 note=30 velocity=127 time=4\n",
      "note_off channel=6 note=30 velocity=0 time=92\n",
      "note_on channel=6 note=30 velocity=127 time=4\n",
      "note_off channel=6 note=30 velocity=0 time=188\n",
      "note_on channel=6 note=30 velocity=127 time=4\n",
      "note_off channel=6 note=30 velocity=0 time=188\n",
      "note_on channel=6 note=30 velocity=127 time=4\n",
      "note_off channel=6 note=30 velocity=0 time=188\n",
      "note_on channel=6 note=30 velocity=127 time=4\n",
      "note_off channel=6 note=30 velocity=0 time=92\n",
      "note_on channel=6 note=30 velocity=127 time=4\n",
      "note_off channel=6 note=30 velocity=0 time=92\n",
      "note_on channel=6 note=30 velocity=127 time=4\n",
      "note_off channel=6 note=30 velocity=0 time=188\n",
      "note_on channel=6 note=30 velocity=127 time=4\n",
      "note_off channel=6 note=30 velocity=0 time=188\n",
      "note_on channel=6 note=38 velocity=127 time=4\n",
      "note_off channel=6 note=38 velocity=0 time=188\n",
      "note_on channel=6 note=38 velocity=127 time=4\n",
      "note_off channel=6 note=38 velocity=0 time=92\n",
      "note_on channel=6 note=38 velocity=127 time=4\n",
      "note_off channel=6 note=38 velocity=0 time=92\n",
      "note_on channel=6 note=38 velocity=127 time=4\n",
      "note_off channel=6 note=38 velocity=0 time=188\n",
      "note_on channel=6 note=38 velocity=127 time=4\n",
      "note_off channel=6 note=38 velocity=0 time=188\n",
      "note_on channel=6 note=38 velocity=127 time=4\n",
      "note_off channel=6 note=38 velocity=0 time=188\n",
      "note_on channel=6 note=38 velocity=127 time=4\n",
      "note_off channel=6 note=38 velocity=0 time=92\n",
      "note_on channel=6 note=38 velocity=127 time=4\n",
      "note_off channel=6 note=38 velocity=0 time=92\n",
      "note_on channel=6 note=38 velocity=127 time=4\n",
      "note_off channel=6 note=38 velocity=0 time=188\n",
      "note_on channel=6 note=38 velocity=127 time=4\n",
      "note_off channel=6 note=38 velocity=0 time=188\n",
      "note_on channel=6 note=35 velocity=127 time=4\n",
      "note_off channel=6 note=35 velocity=0 time=188\n",
      "note_on channel=6 note=35 velocity=127 time=4\n",
      "note_off channel=6 note=35 velocity=0 time=92\n",
      "note_on channel=6 note=35 velocity=127 time=4\n",
      "note_off channel=6 note=35 velocity=0 time=92\n",
      "note_on channel=6 note=35 velocity=127 time=4\n",
      "note_off channel=6 note=35 velocity=0 time=188\n",
      "note_on channel=6 note=35 velocity=127 time=4\n",
      "note_off channel=6 note=35 velocity=0 time=188\n",
      "note_on channel=6 note=35 velocity=127 time=4\n",
      "note_off channel=6 note=35 velocity=0 time=188\n",
      "note_on channel=6 note=35 velocity=127 time=4\n",
      "note_off channel=6 note=35 velocity=0 time=92\n",
      "note_on channel=6 note=35 velocity=127 time=4\n",
      "note_off channel=6 note=35 velocity=0 time=92\n",
      "note_on channel=6 note=35 velocity=127 time=4\n",
      "note_off channel=6 note=35 velocity=0 time=188\n",
      "note_on channel=6 note=35 velocity=127 time=4\n",
      "note_off channel=6 note=35 velocity=0 time=188\n",
      "note_on channel=6 note=28 velocity=127 time=4\n",
      "note_off channel=6 note=28 velocity=0 time=188\n",
      "note_on channel=6 note=28 velocity=127 time=4\n",
      "note_off channel=6 note=28 velocity=0 time=92\n",
      "note_on channel=6 note=28 velocity=127 time=4\n",
      "note_off channel=6 note=28 velocity=0 time=92\n",
      "note_on channel=6 note=28 velocity=127 time=4\n",
      "note_off channel=6 note=28 velocity=0 time=188\n",
      "note_on channel=6 note=28 velocity=127 time=4\n",
      "note_off channel=6 note=28 velocity=0 time=188\n",
      "note_on channel=6 note=28 velocity=127 time=4\n",
      "note_off channel=6 note=28 velocity=0 time=188\n",
      "note_on channel=6 note=28 velocity=127 time=4\n",
      "note_off channel=6 note=28 velocity=0 time=92\n",
      "note_on channel=6 note=28 velocity=127 time=4\n",
      "note_off channel=6 note=28 velocity=0 time=92\n",
      "note_on channel=6 note=28 velocity=127 time=4\n",
      "note_off channel=6 note=28 velocity=0 time=188\n",
      "note_on channel=6 note=28 velocity=127 time=4\n",
      "note_off channel=6 note=28 velocity=0 time=188\n",
      "note_on channel=6 note=30 velocity=127 time=4\n",
      "note_off channel=6 note=30 velocity=0 time=188\n",
      "note_on channel=6 note=30 velocity=127 time=4\n",
      "note_off channel=6 note=30 velocity=0 time=92\n",
      "note_on channel=6 note=30 velocity=127 time=4\n",
      "note_off channel=6 note=30 velocity=0 time=92\n",
      "note_on channel=6 note=30 velocity=127 time=4\n",
      "note_off channel=6 note=30 velocity=0 time=188\n",
      "note_on channel=6 note=30 velocity=127 time=4\n",
      "note_off channel=6 note=30 velocity=0 time=188\n",
      "note_on channel=6 note=30 velocity=127 time=4\n",
      "note_off channel=6 note=30 velocity=0 time=188\n",
      "note_on channel=6 note=30 velocity=127 time=4\n",
      "note_off channel=6 note=30 velocity=0 time=92\n",
      "note_on channel=6 note=30 velocity=127 time=4\n",
      "note_off channel=6 note=30 velocity=0 time=92\n",
      "note_on channel=6 note=30 velocity=127 time=4\n",
      "note_off channel=6 note=30 velocity=0 time=188\n",
      "note_on channel=6 note=30 velocity=127 time=4\n",
      "note_off channel=6 note=30 velocity=0 time=188\n",
      "note_on channel=6 note=38 velocity=127 time=4\n",
      "note_off channel=6 note=38 velocity=0 time=188\n",
      "note_on channel=6 note=38 velocity=127 time=4\n",
      "note_off channel=6 note=38 velocity=0 time=92\n",
      "note_on channel=6 note=38 velocity=127 time=4\n",
      "note_off channel=6 note=38 velocity=0 time=92\n",
      "note_on channel=6 note=38 velocity=127 time=4\n",
      "note_off channel=6 note=38 velocity=0 time=188\n",
      "note_on channel=6 note=38 velocity=127 time=4\n",
      "note_off channel=6 note=38 velocity=0 time=188\n",
      "note_on channel=6 note=38 velocity=127 time=4\n",
      "note_off channel=6 note=38 velocity=0 time=188\n",
      "note_on channel=6 note=38 velocity=127 time=4\n",
      "note_off channel=6 note=38 velocity=0 time=92\n",
      "note_on channel=6 note=38 velocity=127 time=4\n",
      "note_off channel=6 note=38 velocity=0 time=92\n",
      "note_on channel=6 note=38 velocity=127 time=4\n",
      "note_off channel=6 note=38 velocity=0 time=188\n",
      "note_on channel=6 note=38 velocity=127 time=4\n",
      "note_off channel=6 note=38 velocity=0 time=188\n",
      "note_on channel=6 note=35 velocity=127 time=4\n",
      "note_off channel=6 note=35 velocity=0 time=188\n",
      "note_on channel=6 note=35 velocity=127 time=4\n",
      "note_off channel=6 note=35 velocity=0 time=92\n",
      "note_on channel=6 note=35 velocity=127 time=4\n",
      "note_off channel=6 note=35 velocity=0 time=92\n",
      "note_on channel=6 note=35 velocity=127 time=4\n",
      "note_off channel=6 note=35 velocity=0 time=188\n",
      "note_on channel=6 note=35 velocity=127 time=4\n",
      "note_off channel=6 note=35 velocity=0 time=188\n",
      "note_on channel=6 note=35 velocity=127 time=4\n",
      "note_off channel=6 note=35 velocity=0 time=188\n",
      "note_on channel=6 note=35 velocity=127 time=4\n",
      "note_off channel=6 note=35 velocity=0 time=92\n",
      "note_on channel=6 note=35 velocity=127 time=4\n",
      "note_off channel=6 note=35 velocity=0 time=92\n",
      "note_on channel=6 note=35 velocity=127 time=4\n",
      "note_off channel=6 note=35 velocity=0 time=188\n",
      "note_on channel=6 note=35 velocity=127 time=4\n",
      "note_off channel=6 note=35 velocity=0 time=188\n",
      "note_on channel=6 note=28 velocity=127 time=4\n",
      "note_off channel=6 note=28 velocity=0 time=188\n",
      "note_on channel=6 note=28 velocity=127 time=4\n",
      "note_off channel=6 note=28 velocity=0 time=92\n",
      "note_on channel=6 note=28 velocity=127 time=4\n",
      "note_off channel=6 note=28 velocity=0 time=92\n",
      "note_on channel=6 note=28 velocity=127 time=4\n",
      "note_off channel=6 note=28 velocity=0 time=188\n",
      "note_on channel=6 note=28 velocity=127 time=4\n",
      "note_off channel=6 note=28 velocity=0 time=188\n",
      "note_on channel=6 note=28 velocity=127 time=4\n",
      "note_off channel=6 note=28 velocity=0 time=188\n",
      "note_on channel=6 note=28 velocity=127 time=4\n",
      "note_off channel=6 note=28 velocity=0 time=92\n",
      "note_on channel=6 note=28 velocity=127 time=4\n",
      "note_off channel=6 note=28 velocity=0 time=92\n",
      "note_on channel=6 note=28 velocity=127 time=4\n",
      "note_off channel=6 note=28 velocity=0 time=188\n",
      "note_on channel=6 note=28 velocity=127 time=4\n",
      "note_off channel=6 note=28 velocity=0 time=188\n",
      "note_on channel=6 note=30 velocity=127 time=4\n",
      "note_off channel=6 note=30 velocity=0 time=188\n",
      "note_on channel=6 note=30 velocity=127 time=4\n",
      "note_off channel=6 note=30 velocity=0 time=92\n",
      "note_on channel=6 note=30 velocity=127 time=4\n",
      "note_off channel=6 note=30 velocity=0 time=92\n",
      "note_on channel=6 note=30 velocity=127 time=4\n",
      "note_off channel=6 note=30 velocity=0 time=188\n",
      "note_on channel=6 note=30 velocity=127 time=4\n",
      "note_off channel=6 note=30 velocity=0 time=92\n",
      "note_on channel=6 note=30 velocity=127 time=4\n",
      "note_off channel=6 note=30 velocity=0 time=92\n",
      "note_on channel=6 note=32 velocity=127 time=4\n",
      "note_off channel=6 note=32 velocity=0 time=188\n",
      "note_on channel=6 note=32 velocity=127 time=4\n",
      "note_off channel=6 note=32 velocity=0 time=92\n",
      "note_on channel=6 note=32 velocity=127 time=4\n",
      "note_off channel=6 note=32 velocity=0 time=92\n",
      "note_on channel=6 note=32 velocity=127 time=4\n",
      "note_off channel=6 note=32 velocity=0 time=188\n",
      "note_on channel=6 note=32 velocity=127 time=4\n",
      "note_off channel=6 note=32 velocity=0 time=92\n",
      "note_on channel=6 note=32 velocity=127 time=4\n",
      "note_off channel=6 note=32 velocity=0 time=92\n",
      "note_on channel=6 note=33 velocity=127 time=4\n",
      "note_off channel=6 note=33 velocity=0 time=188\n",
      "note_on channel=6 note=33 velocity=127 time=4\n",
      "note_off channel=6 note=33 velocity=0 time=92\n",
      "note_on channel=6 note=33 velocity=127 time=4\n",
      "note_off channel=6 note=33 velocity=0 time=92\n",
      "note_on channel=6 note=33 velocity=127 time=4\n",
      "note_off channel=6 note=33 velocity=0 time=188\n",
      "note_on channel=6 note=33 velocity=127 time=4\n",
      "note_off channel=6 note=33 velocity=0 time=92\n",
      "note_on channel=6 note=33 velocity=127 time=4\n",
      "note_off channel=6 note=33 velocity=0 time=92\n",
      "note_on channel=6 note=38 velocity=127 time=4\n",
      "note_off channel=6 note=38 velocity=0 time=188\n",
      "note_on channel=6 note=38 velocity=127 time=4\n",
      "note_off channel=6 note=38 velocity=0 time=92\n",
      "note_on channel=6 note=38 velocity=127 time=4\n",
      "note_off channel=6 note=38 velocity=0 time=92\n",
      "note_on channel=6 note=38 velocity=127 time=4\n",
      "note_off channel=6 note=38 velocity=0 time=188\n",
      "note_on channel=6 note=38 velocity=127 time=4\n",
      "note_off channel=6 note=38 velocity=0 time=92\n",
      "note_on channel=6 note=38 velocity=127 time=4\n",
      "note_off channel=6 note=38 velocity=0 time=92\n",
      "note_on channel=6 note=37 velocity=127 time=4\n",
      "note_off channel=6 note=37 velocity=0 time=188\n",
      "note_on channel=6 note=37 velocity=127 time=4\n",
      "note_off channel=6 note=37 velocity=0 time=92\n",
      "note_on channel=6 note=37 velocity=127 time=4\n",
      "note_off channel=6 note=37 velocity=0 time=92\n",
      "note_on channel=6 note=37 velocity=127 time=4\n",
      "note_off channel=6 note=37 velocity=0 time=188\n",
      "note_on channel=6 note=37 velocity=127 time=4\n",
      "note_off channel=6 note=37 velocity=0 time=92\n",
      "note_on channel=6 note=37 velocity=127 time=4\n",
      "note_off channel=6 note=37 velocity=0 time=92\n",
      "note_on channel=6 note=37 velocity=127 time=4\n",
      "note_off channel=6 note=37 velocity=0 time=188\n",
      "note_on channel=6 note=37 velocity=127 time=4\n",
      "note_off channel=6 note=37 velocity=0 time=92\n",
      "note_on channel=6 note=37 velocity=127 time=4\n",
      "note_off channel=6 note=37 velocity=0 time=92\n",
      "note_on channel=6 note=37 velocity=127 time=4\n",
      "note_off channel=6 note=37 velocity=0 time=188\n",
      "note_on channel=6 note=37 velocity=127 time=4\n",
      "note_off channel=6 note=37 velocity=0 time=92\n",
      "note_on channel=6 note=37 velocity=127 time=4\n",
      "note_off channel=6 note=37 velocity=0 time=92\n",
      "note_on channel=6 note=37 velocity=124 time=4\n",
      "note_off channel=6 note=37 velocity=0 time=198\n",
      "note_on channel=6 note=37 velocity=115 time=58\n",
      "note_off channel=6 note=37 velocity=0 time=178\n",
      "note_on channel=6 note=37 velocity=112 time=90\n",
      "note_off channel=6 note=37 velocity=0 time=160\n",
      "note_on channel=6 note=37 velocity=117 time=80\n",
      "note_off channel=6 note=37 velocity=0 time=244\n",
      "note_on channel=6 note=37 velocity=120 time=136\n",
      "note_off channel=6 note=37 velocity=0 time=378\n",
      "note_on channel=6 note=30 velocity=127 time=14\n",
      "note_off channel=6 note=30 velocity=0 time=188\n",
      "note_on channel=6 note=30 velocity=127 time=4\n",
      "note_off channel=6 note=30 velocity=0 time=92\n",
      "note_on channel=6 note=30 velocity=127 time=4\n",
      "note_off channel=6 note=30 velocity=0 time=92\n",
      "note_on channel=6 note=30 velocity=127 time=4\n",
      "note_off channel=6 note=30 velocity=0 time=188\n",
      "note_on channel=6 note=30 velocity=127 time=4\n",
      "note_off channel=6 note=30 velocity=0 time=188\n",
      "note_on channel=6 note=30 velocity=127 time=4\n",
      "note_off channel=6 note=30 velocity=0 time=188\n",
      "note_on channel=6 note=30 velocity=127 time=4\n",
      "note_off channel=6 note=30 velocity=0 time=92\n",
      "note_on channel=6 note=30 velocity=127 time=4\n",
      "note_off channel=6 note=30 velocity=0 time=92\n",
      "note_on channel=6 note=30 velocity=127 time=4\n",
      "note_off channel=6 note=30 velocity=0 time=188\n",
      "note_on channel=6 note=30 velocity=127 time=4\n",
      "note_off channel=6 note=30 velocity=0 time=188\n",
      "note_on channel=6 note=38 velocity=127 time=4\n",
      "note_off channel=6 note=38 velocity=0 time=188\n",
      "note_on channel=6 note=38 velocity=127 time=4\n",
      "note_off channel=6 note=38 velocity=0 time=92\n",
      "note_on channel=6 note=38 velocity=127 time=4\n",
      "note_off channel=6 note=38 velocity=0 time=92\n",
      "note_on channel=6 note=38 velocity=127 time=4\n",
      "note_off channel=6 note=38 velocity=0 time=188\n",
      "note_on channel=6 note=38 velocity=127 time=4\n",
      "note_off channel=6 note=38 velocity=0 time=188\n",
      "note_on channel=6 note=38 velocity=127 time=4\n",
      "note_off channel=6 note=38 velocity=0 time=188\n",
      "note_on channel=6 note=38 velocity=127 time=4\n",
      "note_off channel=6 note=38 velocity=0 time=92\n",
      "note_on channel=6 note=38 velocity=127 time=4\n",
      "note_off channel=6 note=38 velocity=0 time=92\n",
      "note_on channel=6 note=38 velocity=127 time=4\n",
      "note_off channel=6 note=38 velocity=0 time=188\n",
      "note_on channel=6 note=38 velocity=127 time=4\n",
      "note_off channel=6 note=38 velocity=0 time=188\n",
      "note_on channel=6 note=35 velocity=127 time=4\n",
      "note_off channel=6 note=35 velocity=0 time=188\n",
      "note_on channel=6 note=35 velocity=127 time=4\n",
      "note_off channel=6 note=35 velocity=0 time=92\n",
      "note_on channel=6 note=35 velocity=127 time=4\n",
      "note_off channel=6 note=35 velocity=0 time=92\n",
      "note_on channel=6 note=35 velocity=127 time=4\n",
      "note_off channel=6 note=35 velocity=0 time=188\n",
      "note_on channel=6 note=35 velocity=127 time=4\n",
      "note_off channel=6 note=35 velocity=0 time=188\n",
      "note_on channel=6 note=35 velocity=127 time=4\n",
      "note_off channel=6 note=35 velocity=0 time=188\n",
      "note_on channel=6 note=35 velocity=127 time=4\n",
      "note_off channel=6 note=35 velocity=0 time=92\n",
      "note_on channel=6 note=35 velocity=127 time=4\n",
      "note_off channel=6 note=35 velocity=0 time=92\n",
      "note_on channel=6 note=35 velocity=127 time=4\n",
      "note_off channel=6 note=35 velocity=0 time=188\n",
      "note_on channel=6 note=35 velocity=127 time=4\n",
      "note_off channel=6 note=35 velocity=0 time=188\n",
      "note_on channel=6 note=28 velocity=127 time=4\n",
      "note_off channel=6 note=28 velocity=0 time=188\n",
      "note_on channel=6 note=28 velocity=127 time=4\n",
      "note_off channel=6 note=28 velocity=0 time=92\n",
      "note_on channel=6 note=28 velocity=127 time=4\n",
      "note_off channel=6 note=28 velocity=0 time=92\n",
      "note_on channel=6 note=28 velocity=127 time=4\n",
      "note_off channel=6 note=28 velocity=0 time=188\n",
      "note_on channel=6 note=28 velocity=127 time=4\n",
      "note_off channel=6 note=28 velocity=0 time=188\n",
      "note_on channel=6 note=28 velocity=127 time=4\n",
      "note_off channel=6 note=28 velocity=0 time=188\n",
      "note_on channel=6 note=28 velocity=127 time=4\n",
      "note_off channel=6 note=28 velocity=0 time=92\n",
      "note_on channel=6 note=28 velocity=127 time=4\n",
      "note_off channel=6 note=28 velocity=0 time=92\n",
      "note_on channel=6 note=28 velocity=127 time=4\n",
      "note_off channel=6 note=28 velocity=0 time=188\n",
      "note_on channel=6 note=28 velocity=127 time=4\n",
      "note_off channel=6 note=28 velocity=0 time=188\n",
      "note_on channel=6 note=30 velocity=127 time=4\n",
      "note_off channel=6 note=30 velocity=0 time=188\n",
      "note_on channel=6 note=30 velocity=127 time=4\n",
      "note_off channel=6 note=30 velocity=0 time=92\n",
      "note_on channel=6 note=30 velocity=127 time=4\n",
      "note_off channel=6 note=30 velocity=0 time=92\n",
      "note_on channel=6 note=30 velocity=127 time=4\n",
      "note_off channel=6 note=30 velocity=0 time=188\n",
      "note_on channel=6 note=30 velocity=127 time=4\n",
      "note_off channel=6 note=30 velocity=0 time=188\n",
      "note_on channel=6 note=30 velocity=127 time=4\n",
      "note_off channel=6 note=30 velocity=0 time=188\n",
      "note_on channel=6 note=30 velocity=127 time=4\n",
      "note_off channel=6 note=30 velocity=0 time=92\n",
      "note_on channel=6 note=30 velocity=127 time=4\n",
      "note_off channel=6 note=30 velocity=0 time=92\n",
      "note_on channel=6 note=30 velocity=127 time=4\n",
      "note_off channel=6 note=30 velocity=0 time=188\n",
      "note_on channel=6 note=30 velocity=127 time=4\n",
      "note_off channel=6 note=30 velocity=0 time=188\n",
      "note_on channel=6 note=38 velocity=127 time=4\n",
      "note_off channel=6 note=38 velocity=0 time=188\n",
      "note_on channel=6 note=38 velocity=127 time=4\n",
      "note_off channel=6 note=38 velocity=0 time=92\n",
      "note_on channel=6 note=38 velocity=127 time=4\n",
      "note_off channel=6 note=38 velocity=0 time=92\n",
      "note_on channel=6 note=38 velocity=127 time=4\n",
      "note_off channel=6 note=38 velocity=0 time=188\n",
      "note_on channel=6 note=38 velocity=127 time=4\n",
      "note_off channel=6 note=38 velocity=0 time=188\n",
      "note_on channel=6 note=38 velocity=127 time=4\n",
      "note_off channel=6 note=38 velocity=0 time=188\n",
      "note_on channel=6 note=38 velocity=127 time=4\n",
      "note_off channel=6 note=38 velocity=0 time=92\n",
      "note_on channel=6 note=38 velocity=127 time=4\n",
      "note_off channel=6 note=38 velocity=0 time=92\n",
      "note_on channel=6 note=38 velocity=127 time=4\n",
      "note_off channel=6 note=38 velocity=0 time=188\n",
      "note_on channel=6 note=38 velocity=127 time=4\n",
      "note_off channel=6 note=38 velocity=0 time=188\n",
      "note_on channel=6 note=35 velocity=127 time=4\n",
      "note_off channel=6 note=35 velocity=0 time=188\n",
      "note_on channel=6 note=35 velocity=127 time=4\n",
      "note_off channel=6 note=35 velocity=0 time=92\n",
      "note_on channel=6 note=35 velocity=127 time=4\n",
      "note_off channel=6 note=35 velocity=0 time=92\n",
      "note_on channel=6 note=35 velocity=127 time=4\n",
      "note_off channel=6 note=35 velocity=0 time=188\n",
      "note_on channel=6 note=35 velocity=127 time=4\n",
      "note_off channel=6 note=35 velocity=0 time=188\n",
      "note_on channel=6 note=35 velocity=127 time=4\n",
      "note_off channel=6 note=35 velocity=0 time=188\n",
      "note_on channel=6 note=35 velocity=127 time=4\n",
      "note_off channel=6 note=35 velocity=0 time=92\n",
      "note_on channel=6 note=35 velocity=127 time=4\n",
      "note_off channel=6 note=35 velocity=0 time=92\n",
      "note_on channel=6 note=35 velocity=127 time=4\n",
      "note_off channel=6 note=35 velocity=0 time=188\n",
      "note_on channel=6 note=35 velocity=127 time=4\n",
      "note_off channel=6 note=35 velocity=0 time=188\n",
      "note_on channel=6 note=28 velocity=127 time=4\n",
      "note_off channel=6 note=28 velocity=0 time=188\n",
      "note_on channel=6 note=28 velocity=127 time=4\n",
      "note_off channel=6 note=28 velocity=0 time=92\n",
      "note_on channel=6 note=28 velocity=127 time=4\n",
      "note_off channel=6 note=28 velocity=0 time=92\n",
      "note_on channel=6 note=28 velocity=127 time=4\n",
      "note_off channel=6 note=28 velocity=0 time=188\n",
      "note_on channel=6 note=28 velocity=127 time=4\n",
      "note_off channel=6 note=28 velocity=0 time=188\n",
      "note_on channel=6 note=28 velocity=127 time=4\n",
      "note_off channel=6 note=28 velocity=0 time=188\n",
      "note_on channel=6 note=28 velocity=127 time=4\n",
      "note_off channel=6 note=28 velocity=0 time=92\n",
      "note_on channel=6 note=28 velocity=127 time=4\n",
      "note_off channel=6 note=28 velocity=0 time=92\n",
      "note_on channel=6 note=28 velocity=127 time=4\n",
      "note_off channel=6 note=28 velocity=0 time=188\n",
      "note_on channel=6 note=28 velocity=127 time=4\n",
      "note_off channel=6 note=28 velocity=0 time=188\n",
      "note_on channel=6 note=30 velocity=127 time=4\n",
      "note_off channel=6 note=30 velocity=0 time=188\n",
      "note_on channel=6 note=30 velocity=127 time=4\n",
      "note_off channel=6 note=30 velocity=0 time=92\n",
      "note_on channel=6 note=30 velocity=127 time=4\n",
      "note_off channel=6 note=30 velocity=0 time=92\n",
      "note_on channel=6 note=30 velocity=127 time=4\n",
      "note_off channel=6 note=30 velocity=0 time=188\n",
      "note_on channel=6 note=30 velocity=127 time=4\n",
      "note_off channel=6 note=30 velocity=0 time=92\n",
      "note_on channel=6 note=30 velocity=127 time=4\n",
      "note_off channel=6 note=30 velocity=0 time=92\n",
      "note_on channel=6 note=32 velocity=127 time=4\n",
      "note_off channel=6 note=32 velocity=0 time=188\n",
      "note_on channel=6 note=32 velocity=127 time=4\n",
      "note_off channel=6 note=32 velocity=0 time=92\n",
      "note_on channel=6 note=32 velocity=127 time=4\n",
      "note_off channel=6 note=32 velocity=0 time=92\n",
      "note_on channel=6 note=32 velocity=127 time=4\n",
      "note_off channel=6 note=32 velocity=0 time=188\n",
      "note_on channel=6 note=32 velocity=127 time=4\n",
      "note_off channel=6 note=32 velocity=0 time=92\n",
      "note_on channel=6 note=32 velocity=127 time=4\n",
      "note_off channel=6 note=32 velocity=0 time=92\n",
      "note_on channel=6 note=33 velocity=127 time=4\n",
      "note_off channel=6 note=33 velocity=0 time=188\n",
      "note_on channel=6 note=33 velocity=127 time=4\n",
      "note_off channel=6 note=33 velocity=0 time=92\n",
      "note_on channel=6 note=33 velocity=127 time=4\n",
      "note_off channel=6 note=33 velocity=0 time=92\n",
      "note_on channel=6 note=33 velocity=127 time=4\n",
      "note_off channel=6 note=33 velocity=0 time=188\n",
      "note_on channel=6 note=33 velocity=127 time=4\n",
      "note_off channel=6 note=33 velocity=0 time=92\n",
      "note_on channel=6 note=33 velocity=127 time=4\n",
      "note_off channel=6 note=33 velocity=0 time=92\n",
      "note_on channel=6 note=38 velocity=127 time=4\n",
      "note_off channel=6 note=38 velocity=0 time=188\n",
      "note_on channel=6 note=38 velocity=127 time=4\n",
      "note_off channel=6 note=38 velocity=0 time=92\n",
      "note_on channel=6 note=38 velocity=127 time=4\n",
      "note_off channel=6 note=38 velocity=0 time=92\n",
      "note_on channel=6 note=38 velocity=127 time=4\n",
      "note_off channel=6 note=38 velocity=0 time=188\n",
      "note_on channel=6 note=38 velocity=127 time=4\n",
      "note_off channel=6 note=38 velocity=0 time=92\n",
      "note_on channel=6 note=38 velocity=127 time=4\n",
      "note_off channel=6 note=38 velocity=0 time=92\n",
      "note_on channel=6 note=37 velocity=127 time=4\n",
      "note_off channel=6 note=37 velocity=0 time=188\n",
      "note_on channel=6 note=37 velocity=127 time=4\n",
      "note_off channel=6 note=37 velocity=0 time=92\n",
      "note_on channel=6 note=37 velocity=127 time=4\n",
      "note_off channel=6 note=37 velocity=0 time=92\n",
      "note_on channel=6 note=37 velocity=127 time=4\n",
      "note_off channel=6 note=37 velocity=0 time=188\n",
      "note_on channel=6 note=37 velocity=127 time=4\n",
      "note_off channel=6 note=37 velocity=0 time=92\n",
      "note_on channel=6 note=37 velocity=127 time=4\n",
      "note_off channel=6 note=37 velocity=0 time=92\n",
      "note_on channel=6 note=37 velocity=127 time=4\n",
      "note_off channel=6 note=37 velocity=0 time=188\n",
      "note_on channel=6 note=37 velocity=127 time=4\n",
      "note_off channel=6 note=37 velocity=0 time=92\n",
      "note_on channel=6 note=37 velocity=127 time=4\n",
      "note_off channel=6 note=37 velocity=0 time=92\n",
      "note_on channel=6 note=37 velocity=127 time=4\n",
      "note_off channel=6 note=37 velocity=0 time=188\n",
      "note_on channel=6 note=37 velocity=127 time=4\n",
      "note_off channel=6 note=37 velocity=0 time=92\n",
      "note_on channel=6 note=37 velocity=127 time=4\n",
      "note_off channel=6 note=37 velocity=0 time=92\n",
      "note_on channel=6 note=37 velocity=124 time=4\n",
      "note_off channel=6 note=37 velocity=0 time=198\n",
      "note_on channel=6 note=37 velocity=115 time=58\n",
      "note_off channel=6 note=37 velocity=0 time=178\n",
      "note_on channel=6 note=37 velocity=112 time=90\n",
      "note_off channel=6 note=37 velocity=0 time=160\n",
      "note_on channel=6 note=37 velocity=117 time=80\n",
      "note_off channel=6 note=37 velocity=0 time=244\n",
      "note_on channel=6 note=37 velocity=120 time=136\n",
      "note_off channel=6 note=37 velocity=0 time=378\n",
      "MetaMessage('end_of_track', time=1550)\n",
      "Track 8\n",
      "MetaMessage('track_name', name='OVERDRIVE', time=0)\n",
      "program_change channel=7 program=29 time=1536\n",
      "control_change channel=7 control=7 value=127 time=0\n",
      "control_change channel=7 control=91 value=127 time=824\n",
      "control_change channel=7 control=93 value=60 time=8\n",
      "control_change channel=7 control=7 value=127 time=428\n",
      "program_change channel=7 program=29 time=154\n",
      "pitchwheel channel=7 pitch=0 time=146042\n",
      "control_change channel=7 control=1 value=0 time=2\n",
      "note_on channel=7 note=66 velocity=127 time=4\n",
      "note_on channel=7 note=71 velocity=127 time=0\n",
      "note_on channel=7 note=74 velocity=127 time=42\n",
      "note_off channel=7 note=71 velocity=0 time=2\n",
      "note_off channel=7 note=74 velocity=0 time=42\n",
      "note_on channel=7 note=71 velocity=127 time=4\n",
      "note_on channel=7 note=71 velocity=127 time=0\n",
      "note_off channel=7 note=71 velocity=1 time=1\n",
      "note_off channel=7 note=66 velocity=0 time=1\n",
      "note_off channel=7 note=71 velocity=0 time=42\n",
      "note_on channel=7 note=74 velocity=127 time=4\n",
      "note_off channel=7 note=74 velocity=0 time=44\n",
      "note_on channel=7 note=78 velocity=127 time=4\n",
      "note_on channel=7 note=74 velocity=127 time=0\n",
      "note_off channel=7 note=74 velocity=0 time=92\n",
      "note_off channel=7 note=78 velocity=0 time=0\n",
      "note_on channel=7 note=71 velocity=127 time=4\n",
      "note_on channel=7 note=66 velocity=127 time=0\n",
      "note_off channel=7 note=71 velocity=0 time=44\n",
      "note_on channel=7 note=74 velocity=127 time=4\n",
      "note_off channel=7 note=74 velocity=0 time=44\n",
      "note_off channel=7 note=66 velocity=0 time=0\n",
      "note_on channel=7 note=71 velocity=127 time=4\n",
      "note_on channel=7 note=71 velocity=127 time=0\n",
      "note_off channel=7 note=71 velocity=1 time=1\n",
      "note_off channel=7 note=71 velocity=0 time=43\n",
      "note_on channel=7 note=74 velocity=127 time=4\n",
      "note_off channel=7 note=74 velocity=0 time=44\n",
      "note_on channel=7 note=78 velocity=127 time=4\n",
      "note_on channel=7 note=74 velocity=127 time=0\n",
      "note_off channel=7 note=74 velocity=0 time=92\n",
      "note_off channel=7 note=78 velocity=0 time=0\n",
      "note_on channel=7 note=71 velocity=127 time=4\n",
      "note_on channel=7 note=66 velocity=127 time=0\n",
      "note_off channel=7 note=71 velocity=0 time=44\n",
      "note_on channel=7 note=74 velocity=127 time=4\n",
      "note_off channel=7 note=74 velocity=0 time=44\n",
      "note_off channel=7 note=66 velocity=0 time=0\n",
      "note_on channel=7 note=71 velocity=127 time=4\n",
      "note_on channel=7 note=71 velocity=127 time=0\n",
      "note_off channel=7 note=71 velocity=1 time=1\n",
      "note_off channel=7 note=71 velocity=0 time=43\n",
      "note_on channel=7 note=74 velocity=127 time=4\n",
      "note_off channel=7 note=74 velocity=0 time=44\n",
      "note_on channel=7 note=78 velocity=127 time=4\n",
      "note_on channel=7 note=74 velocity=127 time=0\n",
      "note_off channel=7 note=74 velocity=0 time=92\n",
      "note_off channel=7 note=78 velocity=0 time=0\n",
      "note_on channel=7 note=71 velocity=127 time=4\n",
      "note_on channel=7 note=66 velocity=127 time=0\n",
      "note_off channel=7 note=71 velocity=0 time=44\n",
      "note_on channel=7 note=74 velocity=127 time=4\n",
      "note_off channel=7 note=74 velocity=0 time=44\n",
      "note_off channel=7 note=66 velocity=0 time=0\n",
      "note_on channel=7 note=71 velocity=127 time=4\n",
      "note_on channel=7 note=71 velocity=127 time=0\n",
      "note_off channel=7 note=71 velocity=1 time=1\n",
      "note_off channel=7 note=71 velocity=0 time=43\n",
      "note_on channel=7 note=74 velocity=127 time=4\n",
      "note_off channel=7 note=74 velocity=0 time=44\n",
      "note_on channel=7 note=78 velocity=127 time=4\n",
      "note_on channel=7 note=74 velocity=127 time=0\n",
      "note_off channel=7 note=74 velocity=0 time=92\n",
      "note_off channel=7 note=78 velocity=0 time=0\n",
      "note_on channel=7 note=71 velocity=127 time=4\n",
      "note_on channel=7 note=66 velocity=127 time=0\n",
      "note_off channel=7 note=71 velocity=0 time=44\n",
      "note_on channel=7 note=74 velocity=127 time=4\n",
      "note_off channel=7 note=74 velocity=0 time=44\n",
      "note_off channel=7 note=66 velocity=0 time=0\n",
      "note_on channel=7 note=71 velocity=127 time=4\n",
      "note_on channel=7 note=71 velocity=127 time=0\n",
      "note_off channel=7 note=71 velocity=1 time=1\n",
      "note_off channel=7 note=71 velocity=0 time=43\n",
      "note_on channel=7 note=74 velocity=127 time=4\n",
      "note_off channel=7 note=74 velocity=0 time=44\n",
      "note_on channel=7 note=78 velocity=127 time=4\n",
      "note_on channel=7 note=74 velocity=127 time=0\n",
      "note_off channel=7 note=74 velocity=0 time=188\n",
      "note_off channel=7 note=78 velocity=0 time=0\n",
      "note_on channel=7 note=73 velocity=127 time=4\n",
      "note_on channel=7 note=69 velocity=127 time=0\n",
      "note_off channel=7 note=73 velocity=0 time=44\n",
      "note_on channel=7 note=76 velocity=127 time=4\n",
      "note_off channel=7 note=76 velocity=0 time=44\n",
      "note_off channel=7 note=69 velocity=0 time=0\n",
      "note_on channel=7 note=73 velocity=127 time=4\n",
      "note_on channel=7 note=73 velocity=127 time=0\n",
      "note_off channel=7 note=73 velocity=1 time=1\n",
      "note_off channel=7 note=73 velocity=0 time=43\n",
      "note_on channel=7 note=76 velocity=127 time=4\n",
      "note_off channel=7 note=76 velocity=0 time=44\n",
      "note_on channel=7 note=79 velocity=127 time=4\n",
      "note_on channel=7 note=76 velocity=127 time=0\n",
      "note_off channel=7 note=76 velocity=0 time=92\n",
      "note_off channel=7 note=79 velocity=0 time=0\n",
      "note_on channel=7 note=73 velocity=127 time=4\n",
      "note_on channel=7 note=69 velocity=127 time=0\n",
      "note_off channel=7 note=73 velocity=0 time=44\n",
      "note_on channel=7 note=76 velocity=127 time=4\n",
      "note_off channel=7 note=76 velocity=0 time=44\n",
      "note_off channel=7 note=69 velocity=0 time=0\n",
      "note_on channel=7 note=73 velocity=127 time=4\n",
      "note_on channel=7 note=73 velocity=127 time=0\n",
      "note_off channel=7 note=73 velocity=1 time=1\n",
      "note_off channel=7 note=73 velocity=0 time=43\n",
      "note_on channel=7 note=76 velocity=127 time=4\n",
      "note_off channel=7 note=76 velocity=0 time=44\n",
      "note_on channel=7 note=79 velocity=127 time=4\n",
      "note_on channel=7 note=76 velocity=127 time=0\n",
      "note_off channel=7 note=76 velocity=0 time=92\n",
      "note_off channel=7 note=79 velocity=0 time=0\n",
      "note_on channel=7 note=73 velocity=127 time=4\n",
      "note_on channel=7 note=69 velocity=127 time=0\n",
      "note_off channel=7 note=73 velocity=0 time=44\n",
      "note_on channel=7 note=76 velocity=127 time=4\n",
      "note_off channel=7 note=76 velocity=0 time=44\n",
      "note_off channel=7 note=69 velocity=0 time=0\n",
      "note_on channel=7 note=73 velocity=127 time=4\n",
      "note_on channel=7 note=73 velocity=127 time=0\n",
      "note_off channel=7 note=73 velocity=1 time=1\n",
      "note_off channel=7 note=73 velocity=0 time=43\n",
      "note_on channel=7 note=76 velocity=127 time=4\n",
      "note_off channel=7 note=76 velocity=0 time=44\n",
      "note_on channel=7 note=79 velocity=127 time=4\n",
      "note_on channel=7 note=76 velocity=127 time=0\n",
      "note_off channel=7 note=76 velocity=0 time=92\n",
      "note_off channel=7 note=79 velocity=0 time=0\n",
      "note_on channel=7 note=73 velocity=127 time=4\n",
      "note_on channel=7 note=69 velocity=127 time=0\n",
      "note_off channel=7 note=73 velocity=0 time=44\n",
      "note_on channel=7 note=76 velocity=127 time=4\n",
      "note_off channel=7 note=76 velocity=0 time=44\n",
      "note_off channel=7 note=69 velocity=0 time=0\n",
      "note_on channel=7 note=73 velocity=127 time=4\n",
      "note_on channel=7 note=73 velocity=127 time=0\n",
      "note_off channel=7 note=73 velocity=1 time=1\n",
      "note_off channel=7 note=73 velocity=0 time=43\n",
      "note_on channel=7 note=76 velocity=127 time=4\n",
      "note_off channel=7 note=76 velocity=0 time=44\n",
      "note_on channel=7 note=79 velocity=127 time=4\n",
      "note_on channel=7 note=76 velocity=127 time=0\n",
      "note_off channel=7 note=76 velocity=0 time=92\n",
      "note_off channel=7 note=79 velocity=0 time=0\n",
      "note_on channel=7 note=73 velocity=127 time=4\n",
      "note_on channel=7 note=69 velocity=127 time=0\n",
      "note_off channel=7 note=73 velocity=0 time=44\n",
      "note_on channel=7 note=76 velocity=127 time=4\n",
      "note_off channel=7 note=76 velocity=0 time=44\n",
      "note_off channel=7 note=69 velocity=0 time=0\n",
      "note_on channel=7 note=73 velocity=127 time=4\n",
      "note_on channel=7 note=73 velocity=127 time=0\n",
      "note_off channel=7 note=73 velocity=1 time=1\n",
      "note_off channel=7 note=73 velocity=0 time=43\n",
      "note_on channel=7 note=76 velocity=127 time=4\n",
      "note_off channel=7 note=76 velocity=0 time=44\n",
      "note_on channel=7 note=79 velocity=127 time=4\n",
      "note_on channel=7 note=76 velocity=127 time=0\n",
      "note_off channel=7 note=76 velocity=0 time=92\n",
      "note_off channel=7 note=79 velocity=0 time=96\n",
      "note_on channel=7 note=74 velocity=127 time=4\n",
      "note_on channel=7 note=69 velocity=127 time=0\n",
      "note_off channel=7 note=74 velocity=0 time=44\n",
      "note_on channel=7 note=78 velocity=127 time=4\n",
      "note_off channel=7 note=78 velocity=0 time=44\n",
      "note_off channel=7 note=69 velocity=0 time=0\n",
      "note_on channel=7 note=74 velocity=127 time=4\n",
      "note_on channel=7 note=74 velocity=127 time=0\n",
      "note_off channel=7 note=74 velocity=1 time=1\n",
      "note_off channel=7 note=74 velocity=0 time=43\n",
      "note_on channel=7 note=78 velocity=127 time=4\n",
      "note_off channel=7 note=78 velocity=0 time=44\n",
      "note_on channel=7 note=81 velocity=127 time=4\n",
      "note_on channel=7 note=78 velocity=127 time=0\n",
      "note_off channel=7 note=78 velocity=0 time=92\n",
      "note_off channel=7 note=81 velocity=0 time=0\n",
      "note_on channel=7 note=74 velocity=127 time=4\n",
      "note_on channel=7 note=69 velocity=127 time=0\n",
      "note_off channel=7 note=74 velocity=0 time=44\n",
      "note_on channel=7 note=78 velocity=127 time=4\n",
      "note_off channel=7 note=78 velocity=0 time=44\n",
      "note_off channel=7 note=69 velocity=0 time=0\n",
      "note_on channel=7 note=74 velocity=127 time=4\n",
      "note_on channel=7 note=74 velocity=127 time=0\n",
      "note_off channel=7 note=74 velocity=1 time=1\n",
      "note_off channel=7 note=74 velocity=0 time=43\n",
      "note_on channel=7 note=78 velocity=127 time=4\n",
      "note_off channel=7 note=78 velocity=0 time=44\n",
      "note_on channel=7 note=81 velocity=127 time=4\n",
      "note_on channel=7 note=78 velocity=127 time=0\n",
      "note_off channel=7 note=78 velocity=0 time=92\n",
      "note_off channel=7 note=81 velocity=0 time=0\n",
      "note_on channel=7 note=74 velocity=127 time=4\n",
      "note_on channel=7 note=69 velocity=127 time=0\n",
      "note_off channel=7 note=74 velocity=0 time=44\n",
      "note_on channel=7 note=78 velocity=127 time=4\n",
      "note_off channel=7 note=78 velocity=0 time=44\n",
      "note_off channel=7 note=69 velocity=0 time=0\n",
      "note_on channel=7 note=74 velocity=127 time=4\n",
      "note_on channel=7 note=74 velocity=127 time=0\n",
      "note_off channel=7 note=74 velocity=1 time=1\n",
      "note_off channel=7 note=74 velocity=0 time=43\n",
      "note_on channel=7 note=78 velocity=127 time=4\n",
      "note_off channel=7 note=78 velocity=0 time=44\n",
      "note_on channel=7 note=81 velocity=127 time=4\n",
      "note_on channel=7 note=78 velocity=127 time=0\n",
      "note_off channel=7 note=78 velocity=0 time=92\n",
      "note_off channel=7 note=81 velocity=0 time=0\n",
      "note_on channel=7 note=74 velocity=127 time=4\n",
      "note_on channel=7 note=69 velocity=127 time=0\n",
      "note_off channel=7 note=74 velocity=0 time=44\n",
      "note_on channel=7 note=78 velocity=127 time=4\n",
      "note_off channel=7 note=78 velocity=0 time=44\n",
      "note_off channel=7 note=69 velocity=0 time=0\n",
      "note_on channel=7 note=74 velocity=127 time=4\n",
      "note_on channel=7 note=74 velocity=127 time=0\n",
      "note_off channel=7 note=74 velocity=1 time=1\n",
      "note_off channel=7 note=74 velocity=0 time=43\n",
      "note_on channel=7 note=78 velocity=127 time=4\n",
      "note_off channel=7 note=78 velocity=0 time=44\n",
      "note_on channel=7 note=81 velocity=127 time=4\n",
      "note_on channel=7 note=78 velocity=127 time=0\n",
      "note_off channel=7 note=78 velocity=0 time=92\n",
      "note_off channel=7 note=81 velocity=0 time=0\n",
      "note_on channel=7 note=74 velocity=127 time=4\n",
      "note_on channel=7 note=69 velocity=127 time=0\n",
      "note_off channel=7 note=74 velocity=0 time=44\n",
      "note_on channel=7 note=78 velocity=127 time=4\n",
      "note_off channel=7 note=78 velocity=0 time=44\n",
      "note_off channel=7 note=69 velocity=0 time=0\n",
      "note_on channel=7 note=74 velocity=127 time=4\n",
      "note_on channel=7 note=74 velocity=127 time=0\n",
      "note_off channel=7 note=74 velocity=1 time=1\n",
      "note_off channel=7 note=74 velocity=0 time=43\n",
      "note_on channel=7 note=78 velocity=127 time=4\n",
      "note_off channel=7 note=78 velocity=0 time=44\n",
      "note_on channel=7 note=81 velocity=127 time=4\n",
      "note_on channel=7 note=78 velocity=127 time=0\n",
      "note_off channel=7 note=78 velocity=0 time=188\n",
      "note_off channel=7 note=81 velocity=0 time=0\n",
      "note_on channel=7 note=67 velocity=127 time=4\n",
      "note_on channel=7 note=62 velocity=127 time=0\n",
      "note_off channel=7 note=62 velocity=0 time=92\n",
      "note_off channel=7 note=67 velocity=0 time=0\n",
      "note_on channel=7 note=62 velocity=127 time=4\n",
      "note_on channel=7 note=69 velocity=127 time=0\n",
      "note_off channel=7 note=69 velocity=0 time=92\n",
      "note_off channel=7 note=62 velocity=0 time=0\n",
      "note_on channel=7 note=62 velocity=127 time=4\n",
      "note_on channel=7 note=71 velocity=127 time=0\n",
      "note_off channel=7 note=71 velocity=0 time=92\n",
      "note_off channel=7 note=62 velocity=0 time=0\n",
      "note_on channel=7 note=67 velocity=127 time=4\n",
      "note_on channel=7 note=62 velocity=127 time=0\n",
      "note_off channel=7 note=62 velocity=0 time=92\n",
      "note_off channel=7 note=67 velocity=0 time=0\n",
      "note_on channel=7 note=62 velocity=127 time=4\n",
      "note_on channel=7 note=69 velocity=127 time=0\n",
      "note_off channel=7 note=69 velocity=0 time=92\n",
      "note_off channel=7 note=62 velocity=0 time=0\n",
      "note_on channel=7 note=62 velocity=127 time=4\n",
      "note_on channel=7 note=71 velocity=127 time=0\n",
      "note_off channel=7 note=71 velocity=0 time=92\n",
      "note_off channel=7 note=62 velocity=0 time=0\n",
      "note_on channel=7 note=67 velocity=127 time=4\n",
      "note_on channel=7 note=62 velocity=127 time=0\n",
      "note_off channel=7 note=62 velocity=0 time=92\n",
      "note_off channel=7 note=67 velocity=0 time=0\n",
      "note_on channel=7 note=69 velocity=127 time=4\n",
      "note_on channel=7 note=64 velocity=127 time=0\n",
      "note_off channel=7 note=64 velocity=0 time=92\n",
      "note_off channel=7 note=69 velocity=0 time=0\n",
      "note_on channel=7 note=71 velocity=127 time=4\n",
      "note_on channel=7 note=66 velocity=127 time=0\n",
      "note_off channel=7 note=66 velocity=0 time=92\n",
      "note_off channel=7 note=71 velocity=0 time=0\n",
      "note_on channel=7 note=69 velocity=127 time=4\n",
      "note_on channel=7 note=64 velocity=127 time=0\n",
      "note_off channel=7 note=64 velocity=0 time=92\n",
      "note_off channel=7 note=69 velocity=0 time=0\n",
      "note_on channel=7 note=67 velocity=127 time=4\n",
      "note_on channel=7 note=62 velocity=127 time=0\n",
      "note_off channel=7 note=62 velocity=0 time=92\n",
      "note_off channel=7 note=67 velocity=0 time=0\n",
      "note_on channel=7 note=66 velocity=127 time=4\n",
      "note_on channel=7 note=61 velocity=127 time=0\n",
      "note_off channel=7 note=61 velocity=0 time=92\n",
      "note_off channel=7 note=66 velocity=0 time=0\n",
      "note_on channel=7 note=69 velocity=127 time=4\n",
      "note_on channel=7 note=64 velocity=127 time=0\n",
      "note_off channel=7 note=64 velocity=0 time=92\n",
      "note_off channel=7 note=69 velocity=0 time=0\n",
      "note_on channel=7 note=67 velocity=127 time=4\n",
      "note_on channel=7 note=62 velocity=127 time=0\n",
      "note_off channel=7 note=62 velocity=0 time=92\n",
      "note_off channel=7 note=67 velocity=0 time=0\n",
      "note_on channel=7 note=66 velocity=127 time=4\n",
      "note_on channel=7 note=61 velocity=127 time=0\n",
      "note_off channel=7 note=61 velocity=0 time=92\n",
      "note_off channel=7 note=66 velocity=0 time=0\n",
      "note_on channel=7 note=62 velocity=127 time=4\n",
      "note_on channel=7 note=57 velocity=127 time=0\n",
      "note_off channel=7 note=57 velocity=0 time=92\n",
      "note_off channel=7 note=62 velocity=0 time=0\n",
      "note_on channel=7 note=64 velocity=127 time=10\n",
      "note_on channel=7 note=59 velocity=127 time=0\n",
      "note_off channel=7 note=59 velocity=0 time=560\n",
      "note_off channel=7 note=64 velocity=0 time=0\n",
      "note_on channel=7 note=67 velocity=127 time=10\n",
      "note_off channel=7 note=67 velocity=0 time=92\n",
      "note_on channel=7 note=67 velocity=127 time=4\n",
      "note_off channel=7 note=67 velocity=0 time=92\n",
      "note_on channel=7 note=67 velocity=127 time=4\n",
      "note_off channel=7 note=67 velocity=0 time=188\n",
      "note_on channel=7 note=66 velocity=127 time=4\n",
      "note_off channel=7 note=66 velocity=0 time=44\n",
      "note_on channel=7 note=67 velocity=127 time=4\n",
      "note_off channel=7 note=67 velocity=0 time=44\n",
      "note_on channel=7 note=66 velocity=127 time=4\n",
      "note_off channel=7 note=66 velocity=0 time=86\n",
      "note_on channel=7 note=64 velocity=127 time=10\n",
      "note_off channel=7 note=64 velocity=0 time=188\n",
      "note_on channel=7 note=62 velocity=127 time=4\n",
      "note_off channel=7 note=62 velocity=0 time=188\n",
      "note_on channel=7 note=62 velocity=127 time=4\n",
      "note_off channel=7 note=62 velocity=0 time=370\n",
      "note_on channel=7 note=61 velocity=127 time=10\n",
      "pitchwheel channel=7 pitch=-1054 time=12\n",
      "pitchwheel channel=7 pitch=-4096 time=10\n",
      "pitchwheel channel=7 pitch=-7489 time=20\n",
      "pitchwheel channel=7 pitch=-8074 time=10\n",
      "pitchwheel channel=7 pitch=-7255 time=18\n",
      "pitchwheel channel=7 pitch=-5734 time=14\n",
      "pitchwheel channel=7 pitch=-2809 time=22\n",
      "pitchwheel channel=7 pitch=0 time=6\n",
      "note_off channel=7 note=61 velocity=0 time=268\n",
      "note_on channel=7 note=59 velocity=127 time=20\n",
      "pitchwheel channel=7 pitch=-235 time=0\n",
      "pitchwheel channel=7 pitch=-4096 time=20\n",
      "pitchwheel channel=7 pitch=-5617 time=8\n",
      "pitchwheel channel=7 pitch=-5149 time=20\n",
      "pitchwheel channel=7 pitch=-4330 time=12\n",
      "pitchwheel channel=7 pitch=-2692 time=14\n",
      "pitchwheel channel=7 pitch=0 time=16\n",
      "pitchwheel channel=7 pitch=-703 time=272\n",
      "pitchwheel channel=7 pitch=-6085 time=22\n",
      "note_on channel=7 note=57 velocity=127 time=4\n",
      "pitchwheel channel=7 pitch=-6553 time=2\n",
      "note_off channel=7 note=59 velocity=0 time=6\n",
      "pitchwheel channel=7 pitch=-6202 time=8\n",
      "pitchwheel channel=7 pitch=-4447 time=18\n",
      "pitchwheel channel=7 pitch=-1522 time=16\n",
      "pitchwheel channel=7 pitch=0 time=14\n",
      "note_off channel=7 note=57 velocity=0 time=304\n",
      "note_on channel=7 note=71 velocity=127 time=0\n",
      "pitchwheel channel=7 pitch=-820 time=198\n",
      "pitchwheel channel=7 pitch=-1405 time=16\n",
      "pitchwheel channel=7 pitch=-1639 time=12\n",
      "pitchwheel channel=7 pitch=-1990 time=16\n",
      "pitchwheel channel=7 pitch=-2341 time=16\n",
      "pitchwheel channel=7 pitch=-2809 time=16\n",
      "pitchwheel channel=7 pitch=-3394 time=20\n",
      "pitchwheel channel=7 pitch=-3745 time=6\n",
      "pitchwheel channel=7 pitch=-4330 time=20\n",
      "pitchwheel channel=7 pitch=-4681 time=16\n",
      "pitchwheel channel=7 pitch=-5032 time=12\n",
      "note_off channel=7 note=71 velocity=0 time=36\n",
      "pitchwheel channel=7 pitch=0 time=0\n",
      "note_on channel=7 note=69 velocity=127 time=8\n",
      "note_on channel=7 note=66 velocity=127 time=88\n",
      "note_off channel=7 note=69 velocity=0 time=8\n",
      "note_off channel=7 note=66 velocity=0 time=88\n",
      "note_on channel=7 note=69 velocity=127 time=0\n",
      "note_off channel=7 note=69 velocity=0 time=96\n",
      "note_on channel=7 note=66 velocity=127 time=0\n",
      "pitchwheel channel=7 pitch=-235 time=146\n",
      "pitchwheel channel=7 pitch=-1054 time=10\n",
      "pitchwheel channel=7 pitch=-1639 time=16\n",
      "pitchwheel channel=7 pitch=0 time=12\n",
      "note_off channel=7 note=66 velocity=0 time=8\n",
      "note_on channel=7 note=71 velocity=127 time=0\n",
      "note_off channel=7 note=71 velocity=0 time=96\n",
      "note_on channel=7 note=69 velocity=127 time=0\n",
      "note_off channel=7 note=69 velocity=0 time=96\n",
      "note_on channel=7 note=66 velocity=127 time=0\n",
      "note_off channel=7 note=66 velocity=0 time=96\n",
      "note_on channel=7 note=68 velocity=127 time=0\n",
      "note_off channel=7 note=68 velocity=0 time=96\n",
      "note_on channel=7 note=64 velocity=127 time=0\n",
      "note_off channel=7 note=64 velocity=0 time=96\n",
      "note_on channel=7 note=66 velocity=127 time=0\n",
      "note_off channel=7 note=66 velocity=0 time=192\n",
      "note_on channel=7 note=66 velocity=127 time=0\n",
      "note_off channel=7 note=66 velocity=0 time=92\n",
      "note_on channel=7 note=64 velocity=127 time=4\n",
      "note_off channel=7 note=64 velocity=0 time=92\n",
      "note_on channel=7 note=62 velocity=127 time=4\n",
      "note_off channel=7 note=62 velocity=0 time=92\n",
      "note_on channel=7 note=59 velocity=127 time=4\n",
      "note_off channel=7 note=59 velocity=0 time=92\n",
      "note_on channel=7 note=64 velocity=127 time=4\n",
      "note_off channel=7 note=64 velocity=0 time=92\n",
      "note_on channel=7 note=59 velocity=127 time=4\n",
      "note_off channel=7 note=59 velocity=0 time=92\n",
      "note_on channel=7 note=62 velocity=127 time=4\n",
      "note_off channel=7 note=62 velocity=0 time=92\n",
      "note_on channel=7 note=64 velocity=127 time=4\n",
      "control_change channel=7 control=1 value=22 time=300\n",
      "control_change channel=7 control=1 value=68 time=10\n",
      "control_change channel=7 control=1 value=92 time=18\n",
      "control_change channel=7 control=1 value=104 time=14\n",
      "control_change channel=7 control=1 value=107 time=16\n",
      "control_change channel=7 control=1 value=118 time=32\n",
      "control_change channel=7 control=1 value=125 time=58\n",
      "control_change channel=7 control=1 value=107 time=256\n",
      "control_change channel=7 control=1 value=7 time=16\n",
      "control_change channel=7 control=1 value=0 time=8\n",
      "note_off channel=7 note=64 velocity=0 time=128\n",
      "pitchwheel channel=7 pitch=0 time=8\n",
      "note_on channel=7 note=66 velocity=127 time=6\n",
      "note_on channel=7 note=71 velocity=127 time=0\n",
      "note_on channel=7 note=74 velocity=127 time=42\n",
      "note_off channel=7 note=71 velocity=0 time=2\n",
      "note_off channel=7 note=74 velocity=0 time=42\n",
      "note_on channel=7 note=71 velocity=127 time=4\n",
      "note_on channel=7 note=71 velocity=127 time=0\n",
      "note_off channel=7 note=71 velocity=1 time=1\n",
      "note_off channel=7 note=66 velocity=0 time=1\n",
      "note_off channel=7 note=71 velocity=0 time=42\n",
      "note_on channel=7 note=74 velocity=127 time=4\n",
      "note_off channel=7 note=74 velocity=0 time=44\n",
      "note_on channel=7 note=78 velocity=127 time=4\n",
      "note_on channel=7 note=74 velocity=127 time=0\n",
      "note_off channel=7 note=74 velocity=0 time=92\n",
      "note_off channel=7 note=78 velocity=0 time=0\n",
      "note_on channel=7 note=71 velocity=127 time=4\n",
      "note_on channel=7 note=66 velocity=127 time=0\n",
      "note_off channel=7 note=71 velocity=0 time=44\n",
      "note_on channel=7 note=74 velocity=127 time=4\n",
      "note_off channel=7 note=74 velocity=0 time=44\n",
      "note_off channel=7 note=66 velocity=0 time=0\n",
      "note_on channel=7 note=71 velocity=127 time=4\n",
      "note_on channel=7 note=71 velocity=127 time=0\n",
      "note_off channel=7 note=71 velocity=1 time=1\n",
      "note_off channel=7 note=71 velocity=0 time=43\n",
      "note_on channel=7 note=74 velocity=127 time=4\n",
      "note_off channel=7 note=74 velocity=0 time=44\n",
      "note_on channel=7 note=78 velocity=127 time=4\n",
      "note_on channel=7 note=74 velocity=127 time=0\n",
      "note_off channel=7 note=74 velocity=0 time=92\n",
      "note_off channel=7 note=78 velocity=0 time=0\n",
      "note_on channel=7 note=71 velocity=127 time=4\n",
      "note_on channel=7 note=66 velocity=127 time=0\n",
      "note_off channel=7 note=71 velocity=0 time=44\n",
      "note_on channel=7 note=74 velocity=127 time=4\n",
      "note_off channel=7 note=74 velocity=0 time=44\n",
      "note_off channel=7 note=66 velocity=0 time=0\n",
      "note_on channel=7 note=71 velocity=127 time=4\n",
      "note_on channel=7 note=71 velocity=127 time=0\n",
      "note_off channel=7 note=71 velocity=1 time=1\n",
      "note_off channel=7 note=71 velocity=0 time=43\n",
      "note_on channel=7 note=74 velocity=127 time=4\n",
      "note_off channel=7 note=74 velocity=0 time=44\n",
      "note_on channel=7 note=78 velocity=127 time=4\n",
      "note_on channel=7 note=74 velocity=127 time=0\n",
      "note_off channel=7 note=74 velocity=0 time=92\n",
      "note_off channel=7 note=78 velocity=0 time=0\n",
      "note_on channel=7 note=71 velocity=127 time=4\n",
      "note_on channel=7 note=66 velocity=127 time=0\n",
      "note_off channel=7 note=71 velocity=0 time=44\n",
      "note_on channel=7 note=74 velocity=127 time=4\n",
      "note_off channel=7 note=74 velocity=0 time=44\n",
      "note_off channel=7 note=66 velocity=0 time=0\n",
      "note_on channel=7 note=71 velocity=127 time=4\n",
      "note_on channel=7 note=71 velocity=127 time=0\n",
      "note_off channel=7 note=71 velocity=1 time=1\n",
      "note_off channel=7 note=71 velocity=0 time=43\n",
      "note_on channel=7 note=74 velocity=127 time=4\n",
      "note_off channel=7 note=74 velocity=0 time=44\n",
      "note_on channel=7 note=78 velocity=127 time=4\n",
      "note_on channel=7 note=74 velocity=127 time=0\n",
      "note_off channel=7 note=74 velocity=0 time=92\n",
      "note_off channel=7 note=78 velocity=0 time=0\n",
      "note_on channel=7 note=71 velocity=127 time=4\n",
      "note_on channel=7 note=66 velocity=127 time=0\n",
      "note_off channel=7 note=71 velocity=0 time=44\n",
      "note_on channel=7 note=74 velocity=127 time=4\n",
      "note_off channel=7 note=74 velocity=0 time=44\n",
      "note_off channel=7 note=66 velocity=0 time=0\n",
      "note_on channel=7 note=71 velocity=127 time=4\n",
      "note_on channel=7 note=71 velocity=127 time=0\n",
      "note_off channel=7 note=71 velocity=1 time=1\n",
      "note_off channel=7 note=71 velocity=0 time=43\n",
      "note_on channel=7 note=74 velocity=127 time=4\n",
      "note_off channel=7 note=74 velocity=0 time=44\n",
      "note_on channel=7 note=78 velocity=127 time=4\n",
      "note_on channel=7 note=74 velocity=127 time=0\n",
      "note_off channel=7 note=74 velocity=0 time=188\n",
      "note_off channel=7 note=78 velocity=0 time=0\n",
      "note_on channel=7 note=73 velocity=127 time=4\n",
      "note_on channel=7 note=69 velocity=127 time=0\n",
      "note_off channel=7 note=73 velocity=0 time=44\n",
      "note_on channel=7 note=76 velocity=127 time=4\n",
      "note_off channel=7 note=76 velocity=0 time=44\n",
      "note_off channel=7 note=69 velocity=0 time=0\n",
      "note_on channel=7 note=73 velocity=127 time=4\n",
      "note_on channel=7 note=73 velocity=127 time=0\n",
      "note_off channel=7 note=73 velocity=1 time=1\n",
      "note_off channel=7 note=73 velocity=0 time=43\n",
      "note_on channel=7 note=76 velocity=127 time=4\n",
      "note_off channel=7 note=76 velocity=0 time=44\n",
      "note_on channel=7 note=79 velocity=127 time=4\n",
      "note_on channel=7 note=76 velocity=127 time=0\n",
      "note_off channel=7 note=76 velocity=0 time=92\n",
      "note_off channel=7 note=79 velocity=0 time=0\n",
      "note_on channel=7 note=73 velocity=127 time=4\n",
      "note_on channel=7 note=69 velocity=127 time=0\n",
      "note_off channel=7 note=73 velocity=0 time=44\n",
      "note_on channel=7 note=76 velocity=127 time=4\n",
      "note_off channel=7 note=76 velocity=0 time=44\n",
      "note_off channel=7 note=69 velocity=0 time=0\n",
      "note_on channel=7 note=73 velocity=127 time=4\n",
      "note_on channel=7 note=73 velocity=127 time=0\n",
      "note_off channel=7 note=73 velocity=1 time=1\n",
      "note_off channel=7 note=73 velocity=0 time=43\n",
      "note_on channel=7 note=76 velocity=127 time=4\n",
      "note_off channel=7 note=76 velocity=0 time=44\n",
      "note_on channel=7 note=79 velocity=127 time=4\n",
      "note_on channel=7 note=76 velocity=127 time=0\n",
      "note_off channel=7 note=76 velocity=0 time=92\n",
      "note_off channel=7 note=79 velocity=0 time=0\n",
      "note_on channel=7 note=73 velocity=127 time=4\n",
      "note_on channel=7 note=69 velocity=127 time=0\n",
      "note_off channel=7 note=73 velocity=0 time=44\n",
      "note_on channel=7 note=76 velocity=127 time=4\n",
      "note_off channel=7 note=76 velocity=0 time=44\n",
      "note_off channel=7 note=69 velocity=0 time=0\n",
      "note_on channel=7 note=73 velocity=127 time=4\n",
      "note_on channel=7 note=73 velocity=127 time=0\n",
      "note_off channel=7 note=73 velocity=1 time=1\n",
      "note_off channel=7 note=73 velocity=0 time=43\n",
      "note_on channel=7 note=76 velocity=127 time=4\n",
      "note_off channel=7 note=76 velocity=0 time=44\n",
      "note_on channel=7 note=79 velocity=127 time=4\n",
      "note_on channel=7 note=76 velocity=127 time=0\n",
      "note_off channel=7 note=76 velocity=0 time=92\n",
      "note_off channel=7 note=79 velocity=0 time=0\n",
      "note_on channel=7 note=73 velocity=127 time=4\n",
      "note_on channel=7 note=69 velocity=127 time=0\n",
      "note_off channel=7 note=73 velocity=0 time=44\n",
      "note_on channel=7 note=76 velocity=127 time=4\n",
      "note_off channel=7 note=76 velocity=0 time=44\n",
      "note_off channel=7 note=69 velocity=0 time=0\n",
      "note_on channel=7 note=73 velocity=127 time=4\n",
      "note_on channel=7 note=73 velocity=127 time=0\n",
      "note_off channel=7 note=73 velocity=1 time=1\n",
      "note_off channel=7 note=73 velocity=0 time=43\n",
      "note_on channel=7 note=76 velocity=127 time=4\n",
      "note_off channel=7 note=76 velocity=0 time=44\n",
      "note_on channel=7 note=79 velocity=127 time=4\n",
      "note_on channel=7 note=76 velocity=127 time=0\n",
      "note_off channel=7 note=76 velocity=0 time=92\n",
      "note_off channel=7 note=79 velocity=0 time=0\n",
      "note_on channel=7 note=73 velocity=127 time=4\n",
      "note_on channel=7 note=69 velocity=127 time=0\n",
      "note_off channel=7 note=73 velocity=0 time=44\n",
      "note_on channel=7 note=76 velocity=127 time=4\n",
      "note_off channel=7 note=76 velocity=0 time=44\n",
      "note_off channel=7 note=69 velocity=0 time=0\n",
      "note_on channel=7 note=73 velocity=127 time=4\n",
      "note_on channel=7 note=73 velocity=127 time=0\n",
      "note_off channel=7 note=73 velocity=1 time=1\n",
      "note_off channel=7 note=73 velocity=0 time=43\n",
      "note_on channel=7 note=76 velocity=127 time=4\n",
      "note_off channel=7 note=76 velocity=0 time=44\n",
      "note_on channel=7 note=79 velocity=127 time=4\n",
      "note_on channel=7 note=76 velocity=127 time=0\n",
      "note_off channel=7 note=76 velocity=0 time=92\n",
      "note_off channel=7 note=79 velocity=0 time=96\n",
      "note_on channel=7 note=74 velocity=127 time=4\n",
      "note_on channel=7 note=69 velocity=127 time=0\n",
      "note_off channel=7 note=74 velocity=0 time=44\n",
      "note_on channel=7 note=78 velocity=127 time=4\n",
      "note_off channel=7 note=78 velocity=0 time=44\n",
      "note_off channel=7 note=69 velocity=0 time=0\n",
      "note_on channel=7 note=74 velocity=127 time=4\n",
      "note_on channel=7 note=74 velocity=127 time=0\n",
      "note_off channel=7 note=74 velocity=1 time=1\n",
      "note_off channel=7 note=74 velocity=0 time=43\n",
      "note_on channel=7 note=78 velocity=127 time=4\n",
      "note_off channel=7 note=78 velocity=0 time=44\n",
      "note_on channel=7 note=81 velocity=127 time=4\n",
      "note_on channel=7 note=78 velocity=127 time=0\n",
      "note_off channel=7 note=78 velocity=0 time=92\n",
      "note_off channel=7 note=81 velocity=0 time=0\n",
      "note_on channel=7 note=74 velocity=127 time=4\n",
      "note_on channel=7 note=69 velocity=127 time=0\n",
      "note_off channel=7 note=74 velocity=0 time=44\n",
      "note_on channel=7 note=78 velocity=127 time=4\n",
      "note_off channel=7 note=78 velocity=0 time=44\n",
      "note_off channel=7 note=69 velocity=0 time=0\n",
      "note_on channel=7 note=74 velocity=127 time=4\n",
      "note_on channel=7 note=74 velocity=127 time=0\n",
      "note_off channel=7 note=74 velocity=1 time=1\n",
      "note_off channel=7 note=74 velocity=0 time=43\n",
      "note_on channel=7 note=78 velocity=127 time=4\n",
      "note_off channel=7 note=78 velocity=0 time=44\n",
      "note_on channel=7 note=81 velocity=127 time=4\n",
      "note_on channel=7 note=78 velocity=127 time=0\n",
      "note_off channel=7 note=78 velocity=0 time=92\n",
      "note_off channel=7 note=81 velocity=0 time=0\n",
      "note_on channel=7 note=74 velocity=127 time=4\n",
      "note_on channel=7 note=69 velocity=127 time=0\n",
      "note_off channel=7 note=74 velocity=0 time=44\n",
      "note_on channel=7 note=78 velocity=127 time=4\n",
      "note_off channel=7 note=78 velocity=0 time=44\n",
      "note_off channel=7 note=69 velocity=0 time=0\n",
      "note_on channel=7 note=74 velocity=127 time=4\n",
      "note_on channel=7 note=74 velocity=127 time=0\n",
      "note_off channel=7 note=74 velocity=1 time=1\n",
      "note_off channel=7 note=74 velocity=0 time=43\n",
      "note_on channel=7 note=78 velocity=127 time=4\n",
      "note_off channel=7 note=78 velocity=0 time=44\n",
      "note_on channel=7 note=81 velocity=127 time=4\n",
      "note_on channel=7 note=78 velocity=127 time=0\n",
      "note_off channel=7 note=78 velocity=0 time=92\n",
      "note_off channel=7 note=81 velocity=0 time=0\n",
      "note_on channel=7 note=74 velocity=127 time=4\n",
      "note_on channel=7 note=69 velocity=127 time=0\n",
      "note_off channel=7 note=74 velocity=0 time=44\n",
      "note_on channel=7 note=78 velocity=127 time=4\n",
      "note_off channel=7 note=78 velocity=0 time=44\n",
      "note_off channel=7 note=69 velocity=0 time=0\n",
      "note_on channel=7 note=74 velocity=127 time=4\n",
      "note_on channel=7 note=74 velocity=127 time=0\n",
      "note_off channel=7 note=74 velocity=1 time=1\n",
      "note_off channel=7 note=74 velocity=0 time=43\n",
      "note_on channel=7 note=78 velocity=127 time=4\n",
      "note_off channel=7 note=78 velocity=0 time=44\n",
      "note_on channel=7 note=81 velocity=127 time=4\n",
      "note_on channel=7 note=78 velocity=127 time=0\n",
      "note_off channel=7 note=78 velocity=0 time=92\n",
      "note_off channel=7 note=81 velocity=0 time=0\n",
      "note_on channel=7 note=74 velocity=127 time=4\n",
      "note_on channel=7 note=69 velocity=127 time=0\n",
      "note_off channel=7 note=74 velocity=0 time=44\n",
      "note_on channel=7 note=78 velocity=127 time=4\n",
      "note_off channel=7 note=78 velocity=0 time=44\n",
      "note_off channel=7 note=69 velocity=0 time=0\n",
      "note_on channel=7 note=74 velocity=127 time=4\n",
      "note_on channel=7 note=74 velocity=127 time=0\n",
      "note_off channel=7 note=74 velocity=1 time=1\n",
      "note_off channel=7 note=74 velocity=0 time=43\n",
      "note_on channel=7 note=78 velocity=127 time=4\n",
      "note_off channel=7 note=78 velocity=0 time=44\n",
      "note_on channel=7 note=81 velocity=127 time=4\n",
      "note_on channel=7 note=78 velocity=127 time=0\n",
      "note_off channel=7 note=78 velocity=0 time=188\n",
      "note_off channel=7 note=81 velocity=0 time=0\n",
      "note_on channel=7 note=67 velocity=127 time=4\n",
      "note_on channel=7 note=62 velocity=127 time=0\n",
      "note_off channel=7 note=62 velocity=0 time=92\n",
      "note_off channel=7 note=67 velocity=0 time=0\n",
      "note_on channel=7 note=62 velocity=127 time=4\n",
      "note_on channel=7 note=69 velocity=127 time=0\n",
      "note_off channel=7 note=69 velocity=0 time=92\n",
      "note_off channel=7 note=62 velocity=0 time=0\n",
      "note_on channel=7 note=62 velocity=127 time=4\n",
      "note_on channel=7 note=71 velocity=127 time=0\n",
      "note_off channel=7 note=71 velocity=0 time=92\n",
      "note_off channel=7 note=62 velocity=0 time=0\n",
      "note_on channel=7 note=67 velocity=127 time=4\n",
      "note_on channel=7 note=62 velocity=127 time=0\n",
      "note_off channel=7 note=62 velocity=0 time=92\n",
      "note_off channel=7 note=67 velocity=0 time=0\n",
      "note_on channel=7 note=62 velocity=127 time=4\n",
      "note_on channel=7 note=69 velocity=127 time=0\n",
      "note_off channel=7 note=69 velocity=0 time=92\n",
      "note_off channel=7 note=62 velocity=0 time=0\n",
      "note_on channel=7 note=62 velocity=127 time=4\n",
      "note_on channel=7 note=71 velocity=127 time=0\n",
      "note_off channel=7 note=71 velocity=0 time=92\n",
      "note_off channel=7 note=62 velocity=0 time=0\n",
      "note_on channel=7 note=67 velocity=127 time=4\n",
      "note_on channel=7 note=62 velocity=127 time=0\n",
      "note_off channel=7 note=62 velocity=0 time=92\n",
      "note_off channel=7 note=67 velocity=0 time=0\n",
      "note_on channel=7 note=69 velocity=127 time=4\n",
      "note_on channel=7 note=64 velocity=127 time=0\n",
      "note_off channel=7 note=64 velocity=0 time=92\n",
      "note_off channel=7 note=69 velocity=0 time=0\n",
      "note_on channel=7 note=71 velocity=127 time=4\n",
      "note_on channel=7 note=66 velocity=127 time=0\n",
      "note_off channel=7 note=66 velocity=0 time=92\n",
      "note_off channel=7 note=71 velocity=0 time=0\n",
      "note_on channel=7 note=69 velocity=127 time=4\n",
      "note_on channel=7 note=64 velocity=127 time=0\n",
      "note_off channel=7 note=64 velocity=0 time=92\n",
      "note_off channel=7 note=69 velocity=0 time=0\n",
      "note_on channel=7 note=67 velocity=127 time=4\n",
      "note_on channel=7 note=62 velocity=127 time=0\n",
      "note_off channel=7 note=62 velocity=0 time=92\n",
      "note_off channel=7 note=67 velocity=0 time=0\n",
      "note_on channel=7 note=66 velocity=127 time=4\n",
      "note_on channel=7 note=61 velocity=127 time=0\n",
      "note_off channel=7 note=61 velocity=0 time=92\n",
      "note_off channel=7 note=66 velocity=0 time=0\n",
      "note_on channel=7 note=69 velocity=127 time=4\n",
      "note_on channel=7 note=64 velocity=127 time=0\n",
      "note_off channel=7 note=64 velocity=0 time=188\n",
      "note_off channel=7 note=69 velocity=0 time=0\n",
      "note_on channel=7 note=62 velocity=127 time=4\n",
      "note_on channel=7 note=67 velocity=127 time=0\n",
      "note_off channel=7 note=67 velocity=0 time=92\n",
      "note_off channel=7 note=62 velocity=0 time=0\n",
      "note_on channel=7 note=61 velocity=127 time=4\n",
      "note_on channel=7 note=66 velocity=127 time=0\n",
      "note_off channel=7 note=66 velocity=0 time=92\n",
      "note_off channel=7 note=61 velocity=0 time=0\n",
      "note_on channel=7 note=64 velocity=127 time=6\n",
      "note_on channel=7 note=59 velocity=127 time=0\n",
      "note_off channel=7 note=59 velocity=0 time=570\n",
      "note_off channel=7 note=64 velocity=0 time=0\n",
      "note_on channel=7 note=67 velocity=127 time=4\n",
      "note_off channel=7 note=67 velocity=0 time=92\n",
      "note_on channel=7 note=67 velocity=127 time=4\n",
      "note_off channel=7 note=67 velocity=0 time=92\n",
      "note_on channel=7 note=67 velocity=127 time=4\n",
      "note_off channel=7 note=67 velocity=0 time=188\n",
      "note_on channel=7 note=66 velocity=127 time=6\n",
      "note_off channel=7 note=66 velocity=0 time=90\n",
      "note_on channel=7 note=67 velocity=127 time=4\n",
      "note_off channel=7 note=67 velocity=0 time=44\n",
      "note_on channel=7 note=66 velocity=127 time=4\n",
      "note_off channel=7 note=66 velocity=0 time=44\n",
      "note_on channel=7 note=64 velocity=127 time=4\n",
      "note_off channel=7 note=64 velocity=0 time=188\n",
      "note_on channel=7 note=62 velocity=127 time=4\n",
      "note_off channel=7 note=62 velocity=0 time=188\n",
      "note_on channel=7 note=69 velocity=127 time=4\n",
      "pitchwheel channel=7 pitch=1053 time=64\n",
      "pitchwheel channel=7 pitch=2223 time=8\n",
      "pitchwheel channel=7 pitch=3042 time=20\n",
      "pitchwheel channel=7 pitch=3276 time=12\n",
      "pitchwheel channel=7 pitch=3627 time=14\n",
      "pitchwheel channel=7 pitch=3978 time=16\n",
      "pitchwheel channel=7 pitch=4329 time=16\n",
      "pitchwheel channel=7 pitch=4797 time=26\n",
      "pitchwheel channel=7 pitch=5148 time=22\n",
      "pitchwheel channel=7 pitch=5499 time=12\n",
      "pitchwheel channel=7 pitch=5967 time=14\n",
      "pitchwheel channel=7 pitch=6669 time=18\n",
      "pitchwheel channel=7 pitch=7254 time=14\n",
      "pitchwheel channel=7 pitch=7605 time=12\n",
      "pitchwheel channel=7 pitch=7956 time=32\n",
      "pitchwheel channel=7 pitch=6084 time=64\n",
      "pitchwheel channel=7 pitch=3510 time=10\n",
      "note_off channel=7 note=69 velocity=0 time=18\n",
      "pitchwheel channel=7 pitch=0 time=0\n",
      "note_on channel=7 note=69 velocity=127 time=4\n",
      "note_on channel=7 note=62 velocity=127 time=378\n",
      "note_off channel=7 note=69 velocity=0 time=2\n",
      "note_off channel=7 note=62 velocity=0 time=366\n",
      "note_on channel=7 note=64 velocity=127 time=18\n",
      "note_off channel=7 note=64 velocity=0 time=368\n",
      "note_on channel=7 note=66 velocity=124 time=8\n",
      "control_change channel=7 control=1 value=5 time=492\n",
      "control_change channel=7 control=1 value=48 time=20\n",
      "control_change channel=7 control=1 value=66 time=6\n",
      "control_change channel=7 control=1 value=72 time=18\n",
      "control_change channel=7 control=1 value=92 time=16\n",
      "control_change channel=7 control=1 value=101 time=20\n",
      "control_change channel=7 control=1 value=107 time=16\n",
      "control_change channel=7 control=1 value=114 time=10\n",
      "control_change channel=7 control=1 value=121 time=34\n",
      "control_change channel=7 control=1 value=127 time=176\n",
      "control_change channel=7 control=1 value=125 time=200\n",
      "control_change channel=7 control=1 value=118 time=104\n",
      "control_change channel=7 control=1 value=55 time=30\n",
      "control_change channel=7 control=1 value=14 time=6\n",
      "control_change channel=7 control=1 value=0 time=22\n",
      "note_off channel=7 note=66 velocity=0 time=358\n",
      "pitchwheel channel=7 pitch=0 time=8\n",
      "note_on channel=7 note=68 velocity=127 time=6\n",
      "pitchwheel channel=7 pitch=-469 time=256\n",
      "pitchwheel channel=7 pitch=-820 time=12\n",
      "pitchwheel channel=7 pitch=-1288 time=22\n",
      "pitchwheel channel=7 pitch=-1522 time=10\n",
      "pitchwheel channel=7 pitch=-1873 time=14\n",
      "pitchwheel channel=7 pitch=-2224 time=16\n",
      "pitchwheel channel=7 pitch=-2575 time=16\n",
      "pitchwheel channel=7 pitch=-2926 time=12\n",
      "pitchwheel channel=7 pitch=-3394 time=26\n",
      "pitchwheel channel=7 pitch=-3745 time=2\n",
      "pitchwheel channel=7 pitch=-4330 time=16\n",
      "pitchwheel channel=7 pitch=-4915 time=20\n",
      "pitchwheel channel=7 pitch=-5383 time=12\n",
      "pitchwheel channel=7 pitch=-5617 time=16\n",
      "pitchwheel channel=7 pitch=-5149 time=30\n",
      "pitchwheel channel=7 pitch=-3745 time=18\n",
      "pitchwheel channel=7 pitch=-1288 time=10\n",
      "pitchwheel channel=7 pitch=0 time=20\n",
      "note_off channel=7 note=68 velocity=0 time=26\n",
      "note_on channel=7 note=71 velocity=127 time=2\n",
      "note_off channel=7 note=71 velocity=0 time=214\n",
      "note_on channel=7 note=68 velocity=127 time=8\n",
      "pitchwheel channel=7 pitch=-118 time=306\n",
      "pitchwheel channel=7 pitch=-586 time=10\n",
      "pitchwheel channel=7 pitch=-937 time=16\n",
      "pitchwheel channel=7 pitch=-1405 time=12\n",
      "pitchwheel channel=7 pitch=-1873 time=16\n",
      "pitchwheel channel=7 pitch=-2341 time=20\n",
      "pitchwheel channel=7 pitch=-2575 time=16\n",
      "pitchwheel channel=7 pitch=-2926 time=10\n",
      "pitchwheel channel=7 pitch=-3277 time=16\n",
      "pitchwheel channel=7 pitch=-3628 time=18\n",
      "pitchwheel channel=7 pitch=-3862 time=14\n",
      "pitchwheel channel=7 pitch=-4213 time=12\n",
      "pitchwheel channel=7 pitch=-4447 time=16\n",
      "pitchwheel channel=7 pitch=-4915 time=36\n",
      "pitchwheel channel=7 pitch=-5149 time=12\n",
      "pitchwheel channel=7 pitch=-5617 time=14\n",
      "pitchwheel channel=7 pitch=-6085 time=28\n",
      "pitchwheel channel=7 pitch=-6319 time=28\n",
      "pitchwheel channel=7 pitch=-5734 time=46\n",
      "pitchwheel channel=7 pitch=-4564 time=18\n",
      "pitchwheel channel=7 pitch=-2575 time=14\n",
      "pitchwheel channel=7 pitch=0 time=16\n",
      "note_off channel=7 note=68 velocity=0 time=48\n",
      "MetaMessage('end_of_track', time=75274)\n",
      "Track 9\n",
      "MetaMessage('track_name', name='BOWEDGLASS', time=0)\n",
      "program_change channel=8 program=92 time=1536\n",
      "control_change channel=8 control=7 value=127 time=0\n",
      "control_change channel=8 control=91 value=127 time=582\n",
      "control_change channel=8 control=93 value=127 time=6\n",
      "control_change channel=8 control=7 value=127 time=660\n",
      "program_change channel=8 program=92 time=172\n",
      "note_on channel=8 note=66 velocity=127 time=59252\n",
      "note_off channel=8 note=66 velocity=0 time=384\n",
      "note_on channel=8 note=64 velocity=127 time=0\n",
      "note_off channel=8 note=64 velocity=0 time=384\n",
      "note_on channel=8 note=61 velocity=127 time=0\n",
      "note_off channel=8 note=61 velocity=0 time=384\n",
      "note_on channel=8 note=69 velocity=127 time=0\n",
      "note_off channel=8 note=69 velocity=0 time=384\n",
      "note_on channel=8 note=68 velocity=127 time=0\n",
      "note_off channel=8 note=68 velocity=0 time=384\n",
      "note_on channel=8 note=64 velocity=127 time=0\n",
      "note_off channel=8 note=64 velocity=0 time=384\n",
      "note_on channel=8 note=66 velocity=127 time=0\n",
      "note_off channel=8 note=66 velocity=0 time=1536\n",
      "MetaMessage('end_of_track', time=182784)\n",
      "Track 10\n",
      "MetaMessage('track_name', name='DRUMS', time=0)\n",
      "control_change channel=9 control=7 value=127 time=1536\n",
      "control_change channel=9 control=7 value=127 time=0\n",
      "program_change channel=9 program=16 time=0\n",
      "control_change channel=9 control=7 value=127 time=0\n",
      "control_change channel=9 control=91 value=127 time=768\n",
      "control_change channel=9 control=7 value=127 time=544\n",
      "program_change channel=9 program=16 time=128\n",
      "note_on channel=9 note=35 velocity=127 time=36864\n",
      "note_off channel=9 note=35 velocity=0 time=92\n",
      "note_on channel=9 note=48 velocity=127 time=4\n",
      "note_off channel=9 note=48 velocity=0 time=92\n",
      "note_on channel=9 note=48 velocity=127 time=4\n",
      "note_off channel=9 note=48 velocity=0 time=92\n",
      "note_on channel=9 note=35 velocity=127 time=100\n",
      "note_off channel=9 note=35 velocity=0 time=92\n",
      "note_on channel=9 note=47 velocity=127 time=4\n",
      "note_off channel=9 note=47 velocity=0 time=92\n",
      "note_on channel=9 note=47 velocity=127 time=4\n",
      "note_off channel=9 note=47 velocity=0 time=92\n",
      "note_on channel=9 note=35 velocity=127 time=100\n",
      "note_off channel=9 note=35 velocity=0 time=92\n",
      "note_on channel=9 note=45 velocity=127 time=4\n",
      "note_off channel=9 note=45 velocity=0 time=92\n",
      "note_on channel=9 note=45 velocity=127 time=4\n",
      "note_off channel=9 note=45 velocity=0 time=92\n",
      "note_on channel=9 note=35 velocity=127 time=100\n",
      "note_off channel=9 note=35 velocity=0 time=92\n",
      "note_on channel=9 note=46 velocity=127 time=4\n",
      "note_on channel=9 note=38 velocity=127 time=0\n",
      "note_off channel=9 note=38 velocity=0 time=92\n",
      "note_off channel=9 note=46 velocity=0 time=0\n",
      "note_on channel=9 note=36 velocity=127 time=292\n",
      "note_on channel=9 note=46 velocity=127 time=0\n",
      "note_on channel=9 note=57 velocity=125 time=8\n",
      "note_off channel=9 note=36 velocity=0 time=84\n",
      "note_on channel=9 note=36 velocity=127 time=196\n",
      "note_off channel=9 note=36 velocity=0 time=92\n",
      "note_on channel=9 note=38 velocity=127 time=4\n",
      "note_off channel=9 note=38 velocity=0 time=92\n",
      "note_on channel=9 note=36 velocity=127 time=100\n",
      "note_on channel=9 note=46 velocity=102 time=0\n",
      "note_off channel=9 note=46 velocity=0 time=92\n",
      "note_off channel=9 note=36 velocity=0 time=0\n",
      "note_on channel=9 note=36 velocity=127 time=100\n",
      "note_on channel=9 note=46 velocity=127 time=0\n",
      "note_off channel=9 note=57 velocity=0 time=6\n",
      "note_off channel=9 note=36 velocity=0 time=86\n",
      "note_on channel=9 note=36 velocity=127 time=196\n",
      "note_off channel=9 note=36 velocity=0 time=92\n",
      "note_off channel=9 note=46 velocity=0 time=4\n",
      "note_on channel=9 note=38 velocity=127 time=0\n",
      "note_off channel=9 note=38 velocity=0 time=92\n",
      "note_on channel=9 note=36 velocity=127 time=100\n",
      "note_off channel=9 note=36 velocity=0 time=92\n",
      "note_off channel=9 note=46 velocity=0 time=96\n",
      "note_on channel=9 note=36 velocity=127 time=4\n",
      "note_on channel=9 note=46 velocity=127 time=0\n",
      "note_off channel=9 note=36 velocity=0 time=92\n",
      "note_on channel=9 note=36 velocity=127 time=196\n",
      "note_off channel=9 note=36 velocity=0 time=92\n",
      "note_on channel=9 note=38 velocity=127 time=4\n",
      "note_off channel=9 note=38 velocity=0 time=92\n",
      "note_on channel=9 note=36 velocity=127 time=100\n",
      "note_on channel=9 note=46 velocity=102 time=0\n",
      "note_off channel=9 note=46 velocity=0 time=92\n",
      "note_off channel=9 note=36 velocity=0 time=0\n",
      "note_on channel=9 note=36 velocity=127 time=100\n",
      "note_on channel=9 note=46 velocity=127 time=0\n",
      "note_off channel=9 note=36 velocity=0 time=92\n",
      "note_on channel=9 note=36 velocity=127 time=196\n",
      "note_off channel=9 note=36 velocity=0 time=92\n",
      "note_off channel=9 note=46 velocity=0 time=4\n",
      "note_on channel=9 note=38 velocity=127 time=0\n",
      "note_off channel=9 note=38 velocity=0 time=92\n",
      "note_on channel=9 note=36 velocity=127 time=100\n",
      "note_off channel=9 note=36 velocity=0 time=92\n",
      "note_off channel=9 note=46 velocity=0 time=96\n",
      "note_on channel=9 note=36 velocity=127 time=4\n",
      "note_on channel=9 note=46 velocity=127 time=0\n",
      "note_off channel=9 note=36 velocity=0 time=92\n",
      "note_on channel=9 note=36 velocity=127 time=196\n",
      "note_off channel=9 note=36 velocity=0 time=92\n",
      "note_on channel=9 note=38 velocity=127 time=4\n",
      "note_off channel=9 note=38 velocity=0 time=92\n",
      "note_on channel=9 note=36 velocity=127 time=100\n",
      "note_on channel=9 note=46 velocity=102 time=0\n",
      "note_off channel=9 note=46 velocity=0 time=92\n",
      "note_off channel=9 note=36 velocity=0 time=0\n",
      "note_on channel=9 note=36 velocity=127 time=100\n",
      "note_on channel=9 note=46 velocity=127 time=0\n",
      "note_off channel=9 note=36 velocity=0 time=92\n",
      "note_on channel=9 note=36 velocity=127 time=196\n",
      "note_off channel=9 note=36 velocity=0 time=92\n",
      "note_off channel=9 note=46 velocity=0 time=4\n",
      "note_on channel=9 note=38 velocity=127 time=0\n",
      "note_off channel=9 note=38 velocity=0 time=92\n",
      "note_on channel=9 note=36 velocity=127 time=100\n",
      "note_off channel=9 note=36 velocity=0 time=92\n",
      "note_off channel=9 note=46 velocity=0 time=96\n",
      "note_on channel=9 note=36 velocity=127 time=4\n",
      "note_on channel=9 note=46 velocity=127 time=0\n",
      "note_off channel=9 note=36 velocity=0 time=92\n",
      "note_on channel=9 note=36 velocity=127 time=196\n",
      "note_off channel=9 note=36 velocity=0 time=92\n",
      "note_on channel=9 note=38 velocity=127 time=4\n",
      "note_off channel=9 note=38 velocity=0 time=92\n",
      "note_on channel=9 note=36 velocity=127 time=100\n",
      "note_on channel=9 note=46 velocity=102 time=0\n",
      "note_off channel=9 note=46 velocity=0 time=92\n",
      "note_off channel=9 note=36 velocity=0 time=0\n",
      "note_on channel=9 note=36 velocity=127 time=100\n",
      "note_on channel=9 note=46 velocity=127 time=0\n",
      "note_off channel=9 note=36 velocity=0 time=92\n",
      "note_on channel=9 note=36 velocity=127 time=196\n",
      "note_off channel=9 note=36 velocity=0 time=92\n",
      "note_off channel=9 note=46 velocity=0 time=4\n",
      "note_on channel=9 note=38 velocity=127 time=0\n",
      "note_off channel=9 note=38 velocity=0 time=92\n",
      "note_on channel=9 note=36 velocity=127 time=100\n",
      "note_off channel=9 note=36 velocity=0 time=92\n",
      "note_off channel=9 note=46 velocity=0 time=96\n",
      "note_on channel=9 note=36 velocity=127 time=4\n",
      "note_on channel=9 note=46 velocity=127 time=0\n",
      "note_off channel=9 note=36 velocity=0 time=92\n",
      "note_on channel=9 note=36 velocity=127 time=196\n",
      "note_off channel=9 note=36 velocity=0 time=92\n",
      "note_on channel=9 note=38 velocity=127 time=4\n",
      "note_off channel=9 note=38 velocity=0 time=92\n",
      "note_on channel=9 note=36 velocity=127 time=100\n",
      "note_on channel=9 note=46 velocity=102 time=0\n",
      "note_off channel=9 note=46 velocity=0 time=92\n",
      "note_off channel=9 note=36 velocity=0 time=0\n",
      "note_on channel=9 note=36 velocity=127 time=100\n",
      "note_on channel=9 note=46 velocity=127 time=0\n",
      "note_off channel=9 note=36 velocity=0 time=92\n",
      "note_on channel=9 note=36 velocity=127 time=196\n",
      "note_off channel=9 note=36 velocity=0 time=92\n",
      "note_off channel=9 note=46 velocity=0 time=4\n",
      "note_on channel=9 note=38 velocity=127 time=0\n",
      "note_off channel=9 note=38 velocity=0 time=92\n",
      "note_on channel=9 note=36 velocity=127 time=100\n",
      "note_off channel=9 note=36 velocity=0 time=92\n",
      "note_off channel=9 note=46 velocity=0 time=96\n",
      "note_on channel=9 note=36 velocity=127 time=4\n",
      "note_on channel=9 note=46 velocity=127 time=0\n",
      "note_off channel=9 note=36 velocity=0 time=92\n",
      "note_on channel=9 note=36 velocity=127 time=196\n",
      "note_off channel=9 note=36 velocity=0 time=92\n",
      "note_on channel=9 note=38 velocity=127 time=4\n",
      "note_off channel=9 note=38 velocity=0 time=92\n",
      "note_on channel=9 note=36 velocity=127 time=100\n",
      "note_on channel=9 note=46 velocity=102 time=0\n",
      "note_off channel=9 note=46 velocity=0 time=92\n",
      "note_off channel=9 note=36 velocity=0 time=0\n",
      "note_on channel=9 note=36 velocity=127 time=100\n",
      "note_on channel=9 note=46 velocity=127 time=0\n",
      "note_off channel=9 note=36 velocity=0 time=92\n",
      "note_on channel=9 note=36 velocity=127 time=196\n",
      "note_off channel=9 note=36 velocity=0 time=92\n",
      "note_off channel=9 note=46 velocity=0 time=4\n",
      "note_on channel=9 note=38 velocity=127 time=0\n",
      "note_off channel=9 note=38 velocity=0 time=92\n",
      "note_on channel=9 note=36 velocity=127 time=100\n",
      "note_off channel=9 note=36 velocity=0 time=92\n",
      "note_off channel=9 note=46 velocity=0 time=96\n",
      "note_on channel=9 note=36 velocity=127 time=4\n",
      "note_on channel=9 note=46 velocity=127 time=0\n",
      "note_off channel=9 note=36 velocity=0 time=92\n",
      "note_on channel=9 note=36 velocity=127 time=196\n",
      "note_off channel=9 note=36 velocity=0 time=92\n",
      "note_on channel=9 note=38 velocity=127 time=4\n",
      "note_off channel=9 note=38 velocity=0 time=92\n",
      "note_on channel=9 note=36 velocity=127 time=100\n",
      "note_on channel=9 note=46 velocity=102 time=0\n",
      "note_off channel=9 note=46 velocity=0 time=92\n",
      "note_off channel=9 note=36 velocity=0 time=0\n",
      "note_on channel=9 note=36 velocity=127 time=100\n",
      "note_on channel=9 note=46 velocity=127 time=0\n",
      "note_off channel=9 note=36 velocity=0 time=92\n",
      "note_on channel=9 note=36 velocity=127 time=196\n",
      "note_off channel=9 note=36 velocity=0 time=92\n",
      "note_off channel=9 note=46 velocity=0 time=4\n",
      "note_on channel=9 note=38 velocity=127 time=0\n",
      "note_off channel=9 note=38 velocity=0 time=92\n",
      "note_on channel=9 note=36 velocity=127 time=100\n",
      "note_off channel=9 note=36 velocity=0 time=92\n",
      "note_off channel=9 note=46 velocity=0 time=96\n",
      "note_on channel=9 note=36 velocity=127 time=4\n",
      "note_on channel=9 note=46 velocity=127 time=0\n",
      "note_off channel=9 note=36 velocity=0 time=92\n",
      "note_on channel=9 note=36 velocity=127 time=196\n",
      "note_off channel=9 note=36 velocity=0 time=92\n",
      "note_on channel=9 note=38 velocity=127 time=4\n",
      "note_off channel=9 note=38 velocity=0 time=92\n",
      "note_on channel=9 note=36 velocity=127 time=100\n",
      "note_on channel=9 note=46 velocity=102 time=0\n",
      "note_off channel=9 note=46 velocity=0 time=92\n",
      "note_off channel=9 note=36 velocity=0 time=0\n",
      "note_on channel=9 note=36 velocity=127 time=100\n",
      "note_on channel=9 note=46 velocity=127 time=0\n",
      "note_off channel=9 note=36 velocity=0 time=92\n",
      "note_on channel=9 note=36 velocity=127 time=196\n",
      "note_off channel=9 note=36 velocity=0 time=92\n",
      "note_off channel=9 note=46 velocity=0 time=4\n",
      "note_on channel=9 note=38 velocity=127 time=0\n",
      "note_off channel=9 note=38 velocity=0 time=92\n",
      "note_on channel=9 note=36 velocity=127 time=100\n",
      "note_off channel=9 note=36 velocity=0 time=92\n",
      "note_off channel=9 note=46 velocity=0 time=96\n",
      "note_on channel=9 note=36 velocity=127 time=4\n",
      "note_on channel=9 note=46 velocity=127 time=0\n",
      "note_on channel=9 note=57 velocity=125 time=8\n",
      "note_off channel=9 note=36 velocity=0 time=84\n",
      "note_on channel=9 note=36 velocity=127 time=196\n",
      "note_off channel=9 note=36 velocity=0 time=92\n",
      "note_on channel=9 note=38 velocity=127 time=4\n",
      "note_off channel=9 note=38 velocity=0 time=92\n",
      "note_on channel=9 note=36 velocity=127 time=100\n",
      "note_on channel=9 note=46 velocity=102 time=0\n",
      "note_off channel=9 note=46 velocity=0 time=92\n",
      "note_off channel=9 note=36 velocity=0 time=0\n",
      "note_on channel=9 note=36 velocity=127 time=100\n",
      "note_on channel=9 note=46 velocity=127 time=0\n",
      "note_off channel=9 note=57 velocity=0 time=6\n",
      "note_on channel=9 note=57 velocity=125 time=2\n",
      "note_off channel=9 note=36 velocity=0 time=84\n",
      "note_on channel=9 note=36 velocity=127 time=196\n",
      "note_off channel=9 note=36 velocity=0 time=92\n",
      "note_off channel=9 note=46 velocity=0 time=4\n",
      "note_on channel=9 note=38 velocity=127 time=0\n",
      "note_off channel=9 note=38 velocity=0 time=92\n",
      "note_on channel=9 note=36 velocity=127 time=100\n",
      "note_off channel=9 note=36 velocity=0 time=92\n",
      "note_off channel=9 note=46 velocity=0 time=96\n",
      "note_on channel=9 note=36 velocity=127 time=4\n",
      "note_on channel=9 note=46 velocity=127 time=0\n",
      "note_off channel=9 note=57 velocity=0 time=6\n",
      "note_on channel=9 note=57 velocity=126 time=2\n",
      "note_off channel=9 note=36 velocity=0 time=84\n",
      "note_on channel=9 note=36 velocity=127 time=196\n",
      "note_off channel=9 note=36 velocity=0 time=92\n",
      "note_on channel=9 note=38 velocity=127 time=4\n",
      "note_off channel=9 note=38 velocity=0 time=92\n",
      "note_on channel=9 note=36 velocity=127 time=100\n",
      "note_on channel=9 note=46 velocity=102 time=0\n",
      "note_off channel=9 note=46 velocity=0 time=92\n",
      "note_off channel=9 note=36 velocity=0 time=0\n",
      "note_on channel=9 note=36 velocity=127 time=100\n",
      "note_on channel=9 note=46 velocity=127 time=0\n",
      "note_off channel=9 note=57 velocity=0 time=6\n",
      "note_on channel=9 note=57 velocity=125 time=2\n",
      "note_off channel=9 note=36 velocity=0 time=84\n",
      "note_on channel=9 note=36 velocity=127 time=196\n",
      "note_off channel=9 note=36 velocity=0 time=92\n",
      "note_off channel=9 note=46 velocity=0 time=4\n",
      "note_on channel=9 note=38 velocity=127 time=0\n",
      "note_off channel=9 note=38 velocity=0 time=92\n",
      "note_on channel=9 note=36 velocity=127 time=100\n",
      "note_off channel=9 note=36 velocity=0 time=92\n",
      "note_off channel=9 note=46 velocity=0 time=96\n",
      "note_on channel=9 note=36 velocity=127 time=4\n",
      "note_on channel=9 note=46 velocity=127 time=0\n",
      "note_off channel=9 note=57 velocity=0 time=6\n",
      "note_on channel=9 note=57 velocity=124 time=2\n",
      "note_off channel=9 note=36 velocity=0 time=84\n",
      "note_on channel=9 note=36 velocity=127 time=196\n",
      "note_off channel=9 note=36 velocity=0 time=92\n",
      "note_on channel=9 note=38 velocity=127 time=4\n",
      "note_off channel=9 note=38 velocity=0 time=92\n",
      "note_on channel=9 note=36 velocity=127 time=100\n",
      "note_on channel=9 note=46 velocity=102 time=0\n",
      "note_off channel=9 note=46 velocity=0 time=92\n",
      "note_off channel=9 note=36 velocity=0 time=0\n",
      "note_on channel=9 note=36 velocity=127 time=100\n",
      "note_on channel=9 note=46 velocity=127 time=0\n",
      "note_off channel=9 note=57 velocity=0 time=6\n",
      "note_off channel=9 note=36 velocity=0 time=86\n",
      "note_on channel=9 note=36 velocity=127 time=196\n",
      "note_off channel=9 note=36 velocity=0 time=92\n",
      "note_off channel=9 note=46 velocity=0 time=4\n",
      "note_on channel=9 note=38 velocity=127 time=0\n",
      "note_off channel=9 note=38 velocity=0 time=92\n",
      "note_on channel=9 note=36 velocity=127 time=100\n",
      "note_off channel=9 note=36 velocity=0 time=92\n",
      "note_off channel=9 note=46 velocity=0 time=96\n",
      "note_on channel=9 note=36 velocity=127 time=4\n",
      "note_on channel=9 note=46 velocity=127 time=0\n",
      "note_off channel=9 note=36 velocity=0 time=92\n",
      "note_on channel=9 note=36 velocity=127 time=196\n",
      "note_off channel=9 note=36 velocity=0 time=92\n",
      "note_on channel=9 note=38 velocity=127 time=4\n",
      "note_off channel=9 note=38 velocity=0 time=92\n",
      "note_on channel=9 note=36 velocity=127 time=100\n",
      "note_on channel=9 note=46 velocity=102 time=0\n",
      "note_off channel=9 note=46 velocity=0 time=92\n",
      "note_off channel=9 note=36 velocity=0 time=0\n",
      "note_on channel=9 note=36 velocity=127 time=100\n",
      "note_on channel=9 note=46 velocity=127 time=0\n",
      "note_off channel=9 note=36 velocity=0 time=92\n",
      "note_on channel=9 note=36 velocity=127 time=196\n",
      "note_off channel=9 note=36 velocity=0 time=92\n",
      "note_off channel=9 note=46 velocity=0 time=4\n",
      "note_on channel=9 note=38 velocity=127 time=0\n",
      "note_off channel=9 note=38 velocity=0 time=92\n",
      "note_on channel=9 note=36 velocity=127 time=100\n",
      "note_on channel=9 note=38 velocity=127 time=0\n",
      "note_off channel=9 note=38 velocity=0 time=92\n",
      "note_off channel=9 note=36 velocity=0 time=0\n",
      "note_on channel=9 note=38 velocity=127 time=4\n",
      "note_off channel=9 note=38 velocity=0 time=92\n",
      "note_off channel=9 note=46 velocity=0 time=0\n",
      "note_on channel=9 note=36 velocity=127 time=4\n",
      "note_on channel=9 note=46 velocity=127 time=0\n",
      "note_on channel=9 note=57 velocity=121 time=0\n",
      "note_off channel=9 note=36 velocity=0 time=92\n",
      "note_off channel=9 note=57 velocity=0 time=96\n",
      "note_on channel=9 note=36 velocity=127 time=100\n",
      "note_off channel=9 note=36 velocity=0 time=92\n",
      "note_on channel=9 note=38 velocity=127 time=4\n",
      "note_off channel=9 note=38 velocity=0 time=92\n",
      "note_on channel=9 note=36 velocity=127 time=100\n",
      "note_on channel=9 note=46 velocity=102 time=0\n",
      "note_off channel=9 note=46 velocity=0 time=92\n",
      "note_off channel=9 note=36 velocity=0 time=0\n",
      "note_on channel=9 note=36 velocity=127 time=100\n",
      "note_on channel=9 note=46 velocity=127 time=0\n",
      "note_off channel=9 note=36 velocity=0 time=92\n",
      "note_on channel=9 note=36 velocity=127 time=196\n",
      "note_off channel=9 note=36 velocity=0 time=92\n",
      "note_off channel=9 note=46 velocity=0 time=4\n",
      "note_on channel=9 note=38 velocity=127 time=0\n",
      "note_off channel=9 note=38 velocity=0 time=92\n",
      "note_on channel=9 note=36 velocity=127 time=100\n",
      "note_off channel=9 note=36 velocity=0 time=92\n",
      "note_off channel=9 note=46 velocity=0 time=96\n",
      "note_on channel=9 note=36 velocity=127 time=4\n",
      "note_on channel=9 note=46 velocity=127 time=0\n",
      "note_off channel=9 note=36 velocity=0 time=92\n",
      "note_on channel=9 note=36 velocity=127 time=196\n",
      "note_off channel=9 note=36 velocity=0 time=92\n",
      "note_on channel=9 note=38 velocity=127 time=4\n",
      "note_off channel=9 note=38 velocity=0 time=92\n",
      "note_on channel=9 note=36 velocity=127 time=100\n",
      "note_on channel=9 note=46 velocity=102 time=0\n",
      "note_off channel=9 note=46 velocity=0 time=92\n",
      "note_off channel=9 note=36 velocity=0 time=0\n",
      "note_on channel=9 note=36 velocity=127 time=100\n",
      "note_on channel=9 note=46 velocity=127 time=0\n",
      "note_off channel=9 note=36 velocity=0 time=92\n",
      "note_on channel=9 note=36 velocity=127 time=196\n",
      "note_off channel=9 note=36 velocity=0 time=92\n",
      "note_off channel=9 note=46 velocity=0 time=4\n",
      "note_on channel=9 note=38 velocity=127 time=0\n",
      "note_off channel=9 note=38 velocity=0 time=92\n",
      "note_on channel=9 note=36 velocity=127 time=100\n",
      "note_off channel=9 note=36 velocity=0 time=92\n",
      "note_off channel=9 note=46 velocity=0 time=96\n",
      "note_on channel=9 note=36 velocity=127 time=4\n",
      "note_on channel=9 note=46 velocity=127 time=0\n",
      "note_off channel=9 note=36 velocity=0 time=92\n",
      "note_on channel=9 note=36 velocity=127 time=196\n",
      "note_off channel=9 note=36 velocity=0 time=92\n",
      "note_on channel=9 note=38 velocity=127 time=4\n",
      "note_off channel=9 note=38 velocity=0 time=92\n",
      "note_on channel=9 note=36 velocity=127 time=100\n",
      "note_on channel=9 note=46 velocity=102 time=0\n",
      "note_off channel=9 note=46 velocity=0 time=92\n",
      "note_off channel=9 note=36 velocity=0 time=0\n",
      "note_on channel=9 note=36 velocity=127 time=100\n",
      "note_on channel=9 note=46 velocity=127 time=0\n",
      "note_off channel=9 note=36 velocity=0 time=92\n",
      "note_on channel=9 note=36 velocity=127 time=196\n",
      "note_off channel=9 note=36 velocity=0 time=92\n",
      "note_off channel=9 note=46 velocity=0 time=4\n",
      "note_on channel=9 note=38 velocity=127 time=0\n",
      "note_off channel=9 note=38 velocity=0 time=92\n",
      "note_on channel=9 note=36 velocity=127 time=100\n",
      "note_off channel=9 note=36 velocity=0 time=92\n",
      "note_off channel=9 note=46 velocity=0 time=96\n",
      "note_on channel=9 note=36 velocity=127 time=4\n",
      "note_on channel=9 note=46 velocity=127 time=0\n",
      "note_off channel=9 note=36 velocity=0 time=92\n",
      "note_on channel=9 note=36 velocity=127 time=196\n",
      "note_off channel=9 note=36 velocity=0 time=92\n",
      "note_on channel=9 note=38 velocity=127 time=4\n",
      "note_off channel=9 note=38 velocity=0 time=92\n",
      "note_on channel=9 note=36 velocity=127 time=100\n",
      "note_on channel=9 note=46 velocity=102 time=0\n",
      "note_off channel=9 note=46 velocity=0 time=92\n",
      "note_off channel=9 note=36 velocity=0 time=0\n",
      "note_on channel=9 note=36 velocity=127 time=100\n",
      "note_on channel=9 note=46 velocity=127 time=0\n",
      "note_off channel=9 note=36 velocity=0 time=92\n",
      "note_on channel=9 note=36 velocity=127 time=196\n",
      "note_off channel=9 note=36 velocity=0 time=92\n",
      "note_off channel=9 note=46 velocity=0 time=4\n",
      "note_on channel=9 note=38 velocity=127 time=0\n",
      "note_off channel=9 note=38 velocity=0 time=92\n",
      "note_on channel=9 note=36 velocity=127 time=100\n",
      "note_off channel=9 note=36 velocity=0 time=92\n",
      "note_off channel=9 note=46 velocity=0 time=96\n",
      "note_on channel=9 note=36 velocity=127 time=4\n",
      "note_on channel=9 note=46 velocity=127 time=0\n",
      "note_on channel=9 note=57 velocity=121 time=0\n",
      "note_off channel=9 note=36 velocity=0 time=92\n",
      "note_off channel=9 note=57 velocity=0 time=96\n",
      "note_on channel=9 note=36 velocity=127 time=100\n",
      "note_off channel=9 note=36 velocity=0 time=92\n",
      "note_on channel=9 note=38 velocity=127 time=4\n",
      "note_off channel=9 note=38 velocity=0 time=92\n",
      "note_on channel=9 note=36 velocity=127 time=100\n",
      "note_on channel=9 note=46 velocity=102 time=0\n",
      "note_off channel=9 note=46 velocity=0 time=92\n",
      "note_off channel=9 note=36 velocity=0 time=0\n",
      "note_on channel=9 note=36 velocity=127 time=100\n",
      "note_on channel=9 note=46 velocity=127 time=0\n",
      "note_off channel=9 note=36 velocity=0 time=92\n",
      "note_on channel=9 note=36 velocity=127 time=196\n",
      "note_off channel=9 note=36 velocity=0 time=92\n",
      "note_off channel=9 note=46 velocity=0 time=4\n",
      "note_on channel=9 note=38 velocity=127 time=0\n",
      "note_off channel=9 note=38 velocity=0 time=92\n",
      "note_on channel=9 note=36 velocity=127 time=100\n",
      "note_off channel=9 note=36 velocity=0 time=92\n",
      "note_off channel=9 note=46 velocity=0 time=96\n",
      "note_on channel=9 note=36 velocity=127 time=4\n",
      "note_on channel=9 note=46 velocity=127 time=0\n",
      "note_off channel=9 note=36 velocity=0 time=92\n",
      "note_on channel=9 note=36 velocity=127 time=196\n",
      "note_off channel=9 note=36 velocity=0 time=92\n",
      "note_on channel=9 note=38 velocity=127 time=4\n",
      "note_off channel=9 note=38 velocity=0 time=92\n",
      "note_on channel=9 note=36 velocity=127 time=100\n",
      "note_on channel=9 note=46 velocity=102 time=0\n",
      "note_off channel=9 note=46 velocity=0 time=92\n",
      "note_off channel=9 note=36 velocity=0 time=0\n",
      "note_on channel=9 note=36 velocity=127 time=100\n",
      "note_on channel=9 note=46 velocity=127 time=0\n",
      "note_off channel=9 note=36 velocity=0 time=92\n",
      "note_on channel=9 note=36 velocity=127 time=196\n",
      "note_off channel=9 note=36 velocity=0 time=92\n",
      "note_off channel=9 note=46 velocity=0 time=4\n",
      "note_on channel=9 note=38 velocity=127 time=0\n",
      "note_off channel=9 note=38 velocity=0 time=92\n",
      "note_on channel=9 note=36 velocity=127 time=100\n",
      "note_off channel=9 note=36 velocity=0 time=92\n",
      "note_off channel=9 note=46 velocity=0 time=96\n",
      "note_on channel=9 note=36 velocity=127 time=4\n",
      "note_on channel=9 note=46 velocity=127 time=0\n",
      "note_off channel=9 note=36 velocity=0 time=92\n",
      "note_on channel=9 note=36 velocity=127 time=196\n",
      "note_off channel=9 note=36 velocity=0 time=92\n",
      "note_on channel=9 note=38 velocity=127 time=4\n",
      "note_off channel=9 note=38 velocity=0 time=92\n",
      "note_on channel=9 note=36 velocity=127 time=100\n",
      "note_on channel=9 note=46 velocity=102 time=0\n",
      "note_off channel=9 note=46 velocity=0 time=92\n",
      "note_off channel=9 note=36 velocity=0 time=0\n",
      "note_on channel=9 note=36 velocity=127 time=100\n",
      "note_on channel=9 note=46 velocity=127 time=0\n",
      "note_off channel=9 note=36 velocity=0 time=92\n",
      "note_on channel=9 note=36 velocity=127 time=196\n",
      "note_off channel=9 note=36 velocity=0 time=92\n",
      "note_off channel=9 note=46 velocity=0 time=4\n",
      "note_on channel=9 note=38 velocity=127 time=0\n",
      "note_off channel=9 note=38 velocity=0 time=92\n",
      "note_on channel=9 note=36 velocity=127 time=100\n",
      "note_off channel=9 note=36 velocity=0 time=92\n",
      "note_off channel=9 note=46 velocity=0 time=96\n",
      "note_on channel=9 note=36 velocity=127 time=4\n",
      "note_on channel=9 note=46 velocity=127 time=0\n",
      "note_off channel=9 note=36 velocity=0 time=92\n",
      "note_on channel=9 note=36 velocity=127 time=196\n",
      "note_off channel=9 note=36 velocity=0 time=92\n",
      "note_on channel=9 note=38 velocity=127 time=4\n",
      "note_off channel=9 note=38 velocity=0 time=92\n",
      "note_on channel=9 note=36 velocity=127 time=100\n",
      "note_on channel=9 note=46 velocity=102 time=0\n",
      "note_off channel=9 note=46 velocity=0 time=92\n",
      "note_off channel=9 note=36 velocity=0 time=0\n",
      "note_on channel=9 note=36 velocity=127 time=100\n",
      "note_on channel=9 note=46 velocity=127 time=0\n",
      "note_off channel=9 note=36 velocity=0 time=92\n",
      "note_on channel=9 note=36 velocity=127 time=196\n",
      "note_off channel=9 note=36 velocity=0 time=92\n",
      "note_off channel=9 note=46 velocity=0 time=4\n",
      "note_on channel=9 note=38 velocity=127 time=0\n",
      "note_off channel=9 note=38 velocity=0 time=92\n",
      "note_on channel=9 note=36 velocity=127 time=100\n",
      "note_off channel=9 note=36 velocity=0 time=92\n",
      "note_off channel=9 note=46 velocity=0 time=96\n",
      "note_on channel=9 note=36 velocity=127 time=4\n",
      "note_on channel=9 note=46 velocity=127 time=0\n",
      "note_off channel=9 note=36 velocity=0 time=92\n",
      "note_on channel=9 note=36 velocity=127 time=196\n",
      "note_off channel=9 note=36 velocity=0 time=92\n",
      "note_on channel=9 note=38 velocity=127 time=4\n",
      "note_off channel=9 note=38 velocity=0 time=92\n",
      "note_on channel=9 note=36 velocity=127 time=100\n",
      "note_on channel=9 note=46 velocity=102 time=0\n",
      "note_off channel=9 note=46 velocity=0 time=92\n",
      "note_off channel=9 note=36 velocity=0 time=0\n",
      "note_on channel=9 note=36 velocity=127 time=100\n",
      "note_on channel=9 note=46 velocity=127 time=0\n",
      "note_off channel=9 note=36 velocity=0 time=92\n",
      "note_on channel=9 note=36 velocity=127 time=196\n",
      "note_off channel=9 note=36 velocity=0 time=92\n",
      "note_off channel=9 note=46 velocity=0 time=4\n",
      "note_on channel=9 note=38 velocity=127 time=0\n",
      "note_off channel=9 note=38 velocity=0 time=92\n",
      "note_on channel=9 note=36 velocity=127 time=100\n",
      "note_off channel=9 note=36 velocity=0 time=92\n",
      "note_off channel=9 note=46 velocity=0 time=96\n",
      "note_on channel=9 note=36 velocity=127 time=4\n",
      "note_on channel=9 note=46 velocity=127 time=0\n",
      "note_off channel=9 note=36 velocity=0 time=92\n",
      "note_on channel=9 note=36 velocity=127 time=196\n",
      "note_off channel=9 note=36 velocity=0 time=92\n",
      "note_on channel=9 note=38 velocity=127 time=4\n",
      "note_off channel=9 note=38 velocity=0 time=92\n",
      "note_on channel=9 note=36 velocity=127 time=100\n",
      "note_on channel=9 note=46 velocity=102 time=0\n",
      "note_off channel=9 note=46 velocity=0 time=92\n",
      "note_off channel=9 note=36 velocity=0 time=0\n",
      "note_on channel=9 note=36 velocity=127 time=100\n",
      "note_on channel=9 note=46 velocity=127 time=0\n",
      "note_off channel=9 note=36 velocity=0 time=92\n",
      "note_on channel=9 note=36 velocity=127 time=196\n",
      "note_off channel=9 note=36 velocity=0 time=92\n",
      "note_off channel=9 note=46 velocity=0 time=4\n",
      "note_on channel=9 note=38 velocity=127 time=0\n",
      "note_off channel=9 note=38 velocity=0 time=92\n",
      "note_on channel=9 note=36 velocity=127 time=100\n",
      "note_off channel=9 note=36 velocity=0 time=92\n",
      "note_off channel=9 note=46 velocity=0 time=96\n",
      "note_on channel=9 note=36 velocity=127 time=4\n",
      "note_on channel=9 note=46 velocity=127 time=0\n",
      "note_on channel=9 note=57 velocity=115 time=0\n",
      "note_off channel=9 note=36 velocity=0 time=92\n",
      "note_on channel=9 note=36 velocity=127 time=196\n",
      "note_off channel=9 note=36 velocity=0 time=92\n",
      "note_on channel=9 note=38 velocity=127 time=4\n",
      "note_off channel=9 note=38 velocity=0 time=92\n",
      "note_on channel=9 note=36 velocity=127 time=100\n",
      "note_on channel=9 note=46 velocity=102 time=0\n",
      "note_off channel=9 note=46 velocity=0 time=92\n",
      "note_off channel=9 note=36 velocity=0 time=0\n",
      "note_off channel=9 note=57 velocity=0 time=96\n",
      "note_on channel=9 note=36 velocity=127 time=4\n",
      "note_on channel=9 note=46 velocity=127 time=0\n",
      "note_on channel=9 note=57 velocity=119 time=0\n",
      "note_off channel=9 note=36 velocity=0 time=92\n",
      "note_on channel=9 note=36 velocity=127 time=196\n",
      "note_off channel=9 note=36 velocity=0 time=92\n",
      "note_off channel=9 note=46 velocity=0 time=4\n",
      "note_on channel=9 note=38 velocity=127 time=0\n",
      "note_off channel=9 note=38 velocity=0 time=92\n",
      "note_on channel=9 note=36 velocity=127 time=100\n",
      "note_off channel=9 note=36 velocity=0 time=92\n",
      "note_off channel=9 note=57 velocity=0 time=96\n",
      "note_off channel=9 note=46 velocity=0 time=0\n",
      "note_on channel=9 note=36 velocity=127 time=4\n",
      "note_on channel=9 note=46 velocity=127 time=0\n",
      "note_on channel=9 note=57 velocity=117 time=0\n",
      "note_off channel=9 note=36 velocity=0 time=92\n",
      "note_on channel=9 note=36 velocity=127 time=196\n",
      "note_off channel=9 note=36 velocity=0 time=92\n",
      "note_on channel=9 note=38 velocity=127 time=4\n",
      "note_off channel=9 note=38 velocity=0 time=92\n",
      "note_on channel=9 note=36 velocity=127 time=100\n",
      "note_on channel=9 note=46 velocity=102 time=0\n",
      "note_off channel=9 note=46 velocity=0 time=92\n",
      "note_off channel=9 note=36 velocity=0 time=0\n",
      "note_off channel=9 note=57 velocity=0 time=96\n",
      "note_on channel=9 note=36 velocity=127 time=4\n",
      "note_on channel=9 note=46 velocity=127 time=0\n",
      "note_off channel=9 note=36 velocity=0 time=92\n",
      "note_on channel=9 note=36 velocity=127 time=196\n",
      "note_off channel=9 note=36 velocity=0 time=92\n",
      "note_off channel=9 note=46 velocity=0 time=4\n",
      "note_on channel=9 note=38 velocity=127 time=0\n",
      "note_off channel=9 note=38 velocity=0 time=92\n",
      "note_on channel=9 note=36 velocity=127 time=100\n",
      "note_off channel=9 note=36 velocity=0 time=92\n",
      "note_off channel=9 note=46 velocity=0 time=96\n",
      "note_on channel=9 note=36 velocity=127 time=4\n",
      "note_on channel=9 note=46 velocity=127 time=0\n",
      "note_off channel=9 note=36 velocity=0 time=92\n",
      "note_on channel=9 note=36 velocity=127 time=196\n",
      "note_off channel=9 note=36 velocity=0 time=92\n",
      "note_on channel=9 note=38 velocity=127 time=4\n",
      "note_off channel=9 note=38 velocity=0 time=92\n",
      "note_on channel=9 note=36 velocity=127 time=100\n",
      "note_on channel=9 note=46 velocity=102 time=0\n",
      "note_off channel=9 note=46 velocity=0 time=92\n",
      "note_off channel=9 note=36 velocity=0 time=0\n",
      "note_on channel=9 note=36 velocity=127 time=100\n",
      "note_on channel=9 note=46 velocity=127 time=0\n",
      "note_off channel=9 note=36 velocity=0 time=92\n",
      "note_on channel=9 note=36 velocity=127 time=196\n",
      "note_off channel=9 note=36 velocity=0 time=92\n",
      "note_off channel=9 note=46 velocity=0 time=4\n",
      "note_on channel=9 note=38 velocity=127 time=0\n",
      "note_off channel=9 note=38 velocity=0 time=92\n",
      "note_on channel=9 note=36 velocity=127 time=100\n",
      "note_off channel=9 note=36 velocity=0 time=92\n",
      "note_off channel=9 note=46 velocity=0 time=96\n",
      "note_on channel=9 note=36 velocity=127 time=4\n",
      "note_on channel=9 note=46 velocity=127 time=0\n",
      "note_off channel=9 note=36 velocity=0 time=92\n",
      "note_on channel=9 note=36 velocity=127 time=196\n",
      "note_off channel=9 note=36 velocity=0 time=92\n",
      "note_on channel=9 note=38 velocity=127 time=4\n",
      "note_off channel=9 note=38 velocity=0 time=92\n",
      "note_on channel=9 note=36 velocity=127 time=100\n",
      "note_on channel=9 note=46 velocity=102 time=0\n",
      "note_off channel=9 note=46 velocity=0 time=92\n",
      "note_off channel=9 note=36 velocity=0 time=0\n",
      "note_on channel=9 note=36 velocity=127 time=100\n",
      "note_on channel=9 note=46 velocity=127 time=0\n",
      "note_off channel=9 note=36 velocity=0 time=92\n",
      "note_on channel=9 note=36 velocity=127 time=196\n",
      "note_off channel=9 note=36 velocity=0 time=92\n",
      "note_off channel=9 note=46 velocity=0 time=4\n",
      "note_on channel=9 note=38 velocity=127 time=0\n",
      "note_off channel=9 note=38 velocity=0 time=92\n",
      "note_on channel=9 note=36 velocity=127 time=100\n",
      "note_off channel=9 note=36 velocity=0 time=92\n",
      "note_off channel=9 note=46 velocity=0 time=96\n",
      "note_on channel=9 note=36 velocity=127 time=4\n",
      "note_on channel=9 note=46 velocity=127 time=0\n",
      "note_off channel=9 note=36 velocity=0 time=92\n",
      "note_on channel=9 note=36 velocity=127 time=196\n",
      "note_off channel=9 note=36 velocity=0 time=92\n",
      "note_on channel=9 note=38 velocity=127 time=4\n",
      "note_off channel=9 note=38 velocity=0 time=92\n",
      "note_on channel=9 note=36 velocity=127 time=100\n",
      "note_on channel=9 note=46 velocity=102 time=0\n",
      "note_off channel=9 note=46 velocity=0 time=92\n",
      "note_off channel=9 note=36 velocity=0 time=0\n",
      "note_on channel=9 note=36 velocity=127 time=100\n",
      "note_on channel=9 note=46 velocity=127 time=0\n",
      "note_off channel=9 note=36 velocity=0 time=92\n",
      "note_on channel=9 note=36 velocity=127 time=196\n",
      "note_off channel=9 note=36 velocity=0 time=92\n",
      "note_off channel=9 note=46 velocity=0 time=4\n",
      "note_on channel=9 note=38 velocity=127 time=0\n",
      "note_off channel=9 note=38 velocity=0 time=92\n",
      "note_on channel=9 note=36 velocity=127 time=100\n",
      "note_off channel=9 note=36 velocity=0 time=92\n",
      "note_off channel=9 note=46 velocity=0 time=96\n",
      "note_on channel=9 note=36 velocity=127 time=4\n",
      "note_on channel=9 note=46 velocity=127 time=0\n",
      "note_off channel=9 note=36 velocity=0 time=92\n",
      "note_on channel=9 note=36 velocity=127 time=196\n",
      "note_off channel=9 note=36 velocity=0 time=92\n",
      "note_on channel=9 note=38 velocity=127 time=4\n",
      "note_off channel=9 note=38 velocity=0 time=92\n",
      "note_on channel=9 note=36 velocity=127 time=100\n",
      "note_on channel=9 note=46 velocity=102 time=0\n",
      "note_off channel=9 note=46 velocity=0 time=92\n",
      "note_off channel=9 note=36 velocity=0 time=0\n",
      "note_on channel=9 note=36 velocity=127 time=100\n",
      "note_on channel=9 note=46 velocity=127 time=0\n",
      "note_off channel=9 note=36 velocity=0 time=92\n",
      "note_on channel=9 note=36 velocity=127 time=196\n",
      "note_off channel=9 note=36 velocity=0 time=92\n",
      "note_off channel=9 note=46 velocity=0 time=4\n",
      "note_on channel=9 note=38 velocity=127 time=0\n",
      "note_off channel=9 note=38 velocity=0 time=92\n",
      "note_on channel=9 note=36 velocity=127 time=100\n",
      "note_off channel=9 note=36 velocity=0 time=92\n",
      "note_off channel=9 note=46 velocity=0 time=96\n",
      "note_on channel=9 note=36 velocity=127 time=4\n",
      "note_on channel=9 note=46 velocity=127 time=0\n",
      "note_off channel=9 note=36 velocity=0 time=92\n",
      "note_on channel=9 note=36 velocity=127 time=196\n",
      "note_off channel=9 note=36 velocity=0 time=92\n",
      "note_on channel=9 note=38 velocity=127 time=4\n",
      "note_off channel=9 note=38 velocity=0 time=92\n",
      "note_on channel=9 note=36 velocity=127 time=100\n",
      "note_on channel=9 note=46 velocity=102 time=0\n",
      "note_off channel=9 note=46 velocity=0 time=92\n",
      "note_off channel=9 note=36 velocity=0 time=0\n",
      "note_on channel=9 note=36 velocity=127 time=100\n",
      "note_on channel=9 note=46 velocity=127 time=0\n",
      "note_off channel=9 note=36 velocity=0 time=92\n",
      "note_on channel=9 note=36 velocity=127 time=196\n",
      "note_off channel=9 note=36 velocity=0 time=92\n",
      "note_off channel=9 note=46 velocity=0 time=4\n",
      "note_on channel=9 note=38 velocity=127 time=0\n",
      "note_off channel=9 note=38 velocity=0 time=92\n",
      "note_on channel=9 note=36 velocity=127 time=100\n",
      "note_off channel=9 note=36 velocity=0 time=92\n",
      "note_off channel=9 note=46 velocity=0 time=96\n",
      "note_on channel=9 note=46 velocity=127 time=4\n",
      "note_on channel=9 note=36 velocity=127 time=24\n",
      "note_off channel=9 note=36 velocity=0 time=94\n",
      "note_on channel=9 note=36 velocity=127 time=170\n",
      "note_off channel=9 note=36 velocity=0 time=92\n",
      "note_on channel=9 note=38 velocity=127 time=4\n",
      "note_off channel=9 note=38 velocity=0 time=92\n",
      "note_on channel=9 note=36 velocity=127 time=100\n",
      "note_on channel=9 note=46 velocity=102 time=0\n",
      "note_off channel=9 note=46 velocity=0 time=92\n",
      "note_off channel=9 note=36 velocity=0 time=0\n",
      "note_on channel=9 note=36 velocity=127 time=100\n",
      "note_on channel=9 note=46 velocity=127 time=0\n",
      "note_off channel=9 note=36 velocity=0 time=92\n",
      "note_on channel=9 note=36 velocity=127 time=196\n",
      "note_off channel=9 note=36 velocity=0 time=92\n",
      "note_off channel=9 note=46 velocity=0 time=4\n",
      "note_on channel=9 note=38 velocity=127 time=0\n",
      "note_off channel=9 note=38 velocity=0 time=92\n",
      "note_on channel=9 note=38 velocity=127 time=100\n",
      "note_off channel=9 note=38 velocity=0 time=92\n",
      "note_off channel=9 note=46 velocity=0 time=96\n",
      "note_on channel=9 note=36 velocity=127 time=4\n",
      "note_off channel=9 note=36 velocity=0 time=144\n",
      "note_on channel=9 note=38 velocity=127 time=48\n",
      "note_on channel=9 note=46 velocity=127 time=0\n",
      "note_off channel=9 note=46 velocity=0 time=76\n",
      "note_off channel=9 note=38 velocity=0 time=4\n",
      "note_on channel=9 note=38 velocity=127 time=112\n",
      "note_on channel=9 note=46 velocity=127 time=0\n",
      "note_off channel=9 note=38 velocity=0 time=104\n",
      "note_on channel=9 note=36 velocity=127 time=88\n",
      "note_off channel=9 note=46 velocity=0 time=32\n",
      "note_off channel=9 note=36 velocity=0 time=80\n",
      "note_on channel=9 note=38 velocity=127 time=80\n",
      "note_on channel=9 note=46 velocity=127 time=0\n",
      "note_off channel=9 note=38 velocity=0 time=64\n",
      "note_off channel=9 note=46 velocity=0 time=32\n",
      "note_on channel=9 note=38 velocity=127 time=96\n",
      "note_on channel=9 note=46 velocity=127 time=0\n",
      "note_off channel=9 note=38 velocity=0 time=166\n",
      "note_off channel=9 note=46 velocity=0 time=10\n",
      "note_on channel=9 note=36 velocity=127 time=16\n",
      "note_off channel=9 note=36 velocity=0 time=98\n",
      "note_on channel=9 note=38 velocity=127 time=94\n",
      "note_on channel=9 note=46 velocity=127 time=0\n",
      "note_off channel=9 note=46 velocity=0 time=290\n",
      "note_off channel=9 note=38 velocity=0 time=90\n",
      "note_on channel=9 note=43 velocity=127 time=916\n",
      "note_on channel=9 note=38 velocity=127 time=48\n",
      "note_off channel=9 note=43 velocity=0 time=56\n",
      "note_off channel=9 note=38 velocity=0 time=176\n",
      "note_on channel=9 note=36 velocity=127 time=152\n",
      "note_on channel=9 note=46 velocity=127 time=0\n",
      "note_on channel=9 note=57 velocity=120 time=0\n",
      "note_off channel=9 note=36 velocity=0 time=92\n",
      "note_on channel=9 note=36 velocity=127 time=196\n",
      "note_off channel=9 note=36 velocity=0 time=92\n",
      "note_off channel=9 note=57 velocity=0 time=0\n",
      "note_on channel=9 note=38 velocity=127 time=4\n",
      "note_off channel=9 note=38 velocity=0 time=92\n",
      "note_on channel=9 note=36 velocity=127 time=100\n",
      "note_on channel=9 note=46 velocity=102 time=0\n",
      "note_off channel=9 note=46 velocity=0 time=92\n",
      "note_off channel=9 note=36 velocity=0 time=0\n",
      "note_on channel=9 note=36 velocity=127 time=100\n",
      "note_on channel=9 note=46 velocity=127 time=0\n",
      "note_off channel=9 note=36 velocity=0 time=92\n",
      "note_on channel=9 note=36 velocity=127 time=196\n",
      "note_off channel=9 note=36 velocity=0 time=92\n",
      "note_off channel=9 note=46 velocity=0 time=4\n",
      "note_on channel=9 note=38 velocity=127 time=0\n",
      "note_off channel=9 note=38 velocity=0 time=92\n",
      "note_on channel=9 note=36 velocity=127 time=100\n",
      "note_off channel=9 note=36 velocity=0 time=92\n",
      "note_off channel=9 note=46 velocity=0 time=96\n",
      "note_on channel=9 note=36 velocity=127 time=4\n",
      "note_on channel=9 note=46 velocity=127 time=0\n",
      "note_off channel=9 note=36 velocity=0 time=92\n",
      "note_on channel=9 note=36 velocity=127 time=196\n",
      "note_off channel=9 note=36 velocity=0 time=92\n",
      "note_on channel=9 note=38 velocity=127 time=4\n",
      "note_off channel=9 note=38 velocity=0 time=92\n",
      "note_on channel=9 note=36 velocity=127 time=100\n",
      "note_on channel=9 note=46 velocity=102 time=0\n",
      "note_off channel=9 note=46 velocity=0 time=92\n",
      "note_off channel=9 note=36 velocity=0 time=0\n",
      "note_on channel=9 note=36 velocity=127 time=100\n",
      "note_on channel=9 note=46 velocity=127 time=0\n",
      "note_off channel=9 note=36 velocity=0 time=92\n",
      "note_on channel=9 note=36 velocity=127 time=196\n",
      "note_off channel=9 note=36 velocity=0 time=92\n",
      "note_off channel=9 note=46 velocity=0 time=4\n",
      "note_on channel=9 note=38 velocity=127 time=0\n",
      "note_off channel=9 note=38 velocity=0 time=92\n",
      "note_on channel=9 note=36 velocity=127 time=100\n",
      "note_off channel=9 note=36 velocity=0 time=92\n",
      "note_off channel=9 note=46 velocity=0 time=96\n",
      "note_on channel=9 note=36 velocity=127 time=4\n",
      "note_on channel=9 note=46 velocity=127 time=0\n",
      "note_off channel=9 note=36 velocity=0 time=92\n",
      "note_on channel=9 note=36 velocity=127 time=196\n",
      "note_off channel=9 note=36 velocity=0 time=92\n",
      "note_on channel=9 note=38 velocity=127 time=4\n",
      "note_off channel=9 note=38 velocity=0 time=92\n",
      "note_on channel=9 note=36 velocity=127 time=100\n",
      "note_on channel=9 note=46 velocity=102 time=0\n",
      "note_off channel=9 note=46 velocity=0 time=92\n",
      "note_off channel=9 note=36 velocity=0 time=0\n",
      "note_on channel=9 note=36 velocity=127 time=100\n",
      "note_on channel=9 note=46 velocity=127 time=0\n",
      "note_off channel=9 note=36 velocity=0 time=92\n",
      "note_on channel=9 note=36 velocity=127 time=196\n",
      "note_off channel=9 note=36 velocity=0 time=92\n",
      "note_off channel=9 note=46 velocity=0 time=4\n",
      "note_on channel=9 note=38 velocity=127 time=0\n",
      "note_off channel=9 note=38 velocity=0 time=92\n",
      "note_on channel=9 note=36 velocity=127 time=100\n",
      "note_off channel=9 note=36 velocity=0 time=92\n",
      "note_off channel=9 note=46 velocity=0 time=96\n",
      "note_on channel=9 note=36 velocity=127 time=4\n",
      "note_on channel=9 note=46 velocity=127 time=0\n",
      "note_off channel=9 note=36 velocity=0 time=92\n",
      "note_on channel=9 note=36 velocity=127 time=196\n",
      "note_off channel=9 note=36 velocity=0 time=92\n",
      "note_on channel=9 note=38 velocity=127 time=4\n",
      "note_off channel=9 note=38 velocity=0 time=92\n",
      "note_on channel=9 note=36 velocity=127 time=100\n",
      "note_on channel=9 note=46 velocity=102 time=0\n",
      "note_off channel=9 note=46 velocity=0 time=92\n",
      "note_off channel=9 note=36 velocity=0 time=0\n",
      "note_on channel=9 note=36 velocity=127 time=100\n",
      "note_on channel=9 note=46 velocity=127 time=0\n",
      "note_off channel=9 note=36 velocity=0 time=92\n",
      "note_on channel=9 note=36 velocity=127 time=196\n",
      "note_off channel=9 note=36 velocity=0 time=92\n",
      "note_off channel=9 note=46 velocity=0 time=4\n",
      "note_on channel=9 note=38 velocity=127 time=0\n",
      "note_off channel=9 note=38 velocity=0 time=92\n",
      "note_on channel=9 note=36 velocity=127 time=100\n",
      "note_off channel=9 note=36 velocity=0 time=92\n",
      "note_off channel=9 note=46 velocity=0 time=96\n",
      "note_on channel=9 note=36 velocity=127 time=4\n",
      "note_on channel=9 note=46 velocity=127 time=0\n",
      "note_off channel=9 note=36 velocity=0 time=92\n",
      "note_on channel=9 note=36 velocity=127 time=196\n",
      "note_off channel=9 note=36 velocity=0 time=92\n",
      "note_on channel=9 note=38 velocity=127 time=4\n",
      "note_off channel=9 note=38 velocity=0 time=92\n",
      "note_on channel=9 note=36 velocity=127 time=100\n",
      "note_on channel=9 note=46 velocity=102 time=0\n",
      "note_off channel=9 note=46 velocity=0 time=92\n",
      "note_off channel=9 note=36 velocity=0 time=0\n",
      "note_on channel=9 note=36 velocity=127 time=100\n",
      "note_on channel=9 note=46 velocity=127 time=0\n",
      "note_off channel=9 note=36 velocity=0 time=92\n",
      "note_on channel=9 note=36 velocity=127 time=196\n",
      "note_off channel=9 note=36 velocity=0 time=92\n",
      "note_off channel=9 note=46 velocity=0 time=4\n",
      "note_on channel=9 note=38 velocity=127 time=0\n",
      "note_off channel=9 note=38 velocity=0 time=92\n",
      "note_on channel=9 note=36 velocity=127 time=100\n",
      "note_off channel=9 note=36 velocity=0 time=92\n",
      "note_off channel=9 note=46 velocity=0 time=96\n",
      "note_on channel=9 note=36 velocity=127 time=4\n",
      "note_on channel=9 note=46 velocity=127 time=0\n",
      "note_off channel=9 note=36 velocity=0 time=92\n",
      "note_on channel=9 note=36 velocity=127 time=196\n",
      "note_off channel=9 note=36 velocity=0 time=92\n",
      "note_on channel=9 note=38 velocity=127 time=4\n",
      "note_off channel=9 note=38 velocity=0 time=92\n",
      "note_on channel=9 note=36 velocity=127 time=100\n",
      "note_on channel=9 note=46 velocity=102 time=0\n",
      "note_off channel=9 note=46 velocity=0 time=92\n",
      "note_off channel=9 note=36 velocity=0 time=0\n",
      "note_on channel=9 note=36 velocity=127 time=100\n",
      "note_on channel=9 note=46 velocity=127 time=0\n",
      "note_off channel=9 note=36 velocity=0 time=92\n",
      "note_on channel=9 note=36 velocity=127 time=196\n",
      "note_off channel=9 note=36 velocity=0 time=92\n",
      "note_off channel=9 note=46 velocity=0 time=4\n",
      "note_on channel=9 note=38 velocity=127 time=0\n",
      "note_off channel=9 note=38 velocity=0 time=92\n",
      "note_on channel=9 note=36 velocity=127 time=100\n",
      "note_off channel=9 note=36 velocity=0 time=92\n",
      "note_off channel=9 note=46 velocity=0 time=96\n",
      "note_on channel=9 note=36 velocity=127 time=4\n",
      "note_on channel=9 note=46 velocity=127 time=0\n",
      "note_off channel=9 note=36 velocity=0 time=92\n",
      "note_on channel=9 note=36 velocity=127 time=196\n",
      "note_off channel=9 note=36 velocity=0 time=92\n",
      "note_on channel=9 note=38 velocity=127 time=4\n",
      "note_off channel=9 note=38 velocity=0 time=92\n",
      "note_on channel=9 note=36 velocity=127 time=100\n",
      "note_on channel=9 note=46 velocity=102 time=0\n",
      "note_off channel=9 note=46 velocity=0 time=92\n",
      "note_off channel=9 note=36 velocity=0 time=0\n",
      "note_on channel=9 note=36 velocity=127 time=100\n",
      "note_on channel=9 note=46 velocity=127 time=0\n",
      "note_off channel=9 note=36 velocity=0 time=92\n",
      "note_on channel=9 note=36 velocity=127 time=196\n",
      "note_off channel=9 note=36 velocity=0 time=92\n",
      "note_off channel=9 note=46 velocity=0 time=4\n",
      "note_on channel=9 note=38 velocity=127 time=0\n",
      "note_off channel=9 note=38 velocity=0 time=92\n",
      "note_on channel=9 note=36 velocity=127 time=100\n",
      "note_off channel=9 note=36 velocity=0 time=92\n",
      "note_off channel=9 note=46 velocity=0 time=96\n",
      "note_on channel=9 note=36 velocity=127 time=4\n",
      "note_on channel=9 note=46 velocity=127 time=0\n",
      "note_off channel=9 note=36 velocity=0 time=92\n",
      "note_on channel=9 note=36 velocity=127 time=196\n",
      "note_off channel=9 note=36 velocity=0 time=92\n",
      "note_on channel=9 note=38 velocity=127 time=4\n",
      "note_off channel=9 note=38 velocity=0 time=92\n",
      "note_on channel=9 note=36 velocity=127 time=100\n",
      "note_on channel=9 note=46 velocity=102 time=0\n",
      "note_off channel=9 note=46 velocity=0 time=92\n",
      "note_off channel=9 note=36 velocity=0 time=0\n",
      "note_on channel=9 note=36 velocity=127 time=100\n",
      "note_on channel=9 note=46 velocity=127 time=0\n",
      "note_off channel=9 note=36 velocity=0 time=92\n",
      "note_on channel=9 note=36 velocity=127 time=196\n",
      "note_off channel=9 note=36 velocity=0 time=92\n",
      "note_off channel=9 note=46 velocity=0 time=4\n",
      "note_on channel=9 note=38 velocity=127 time=0\n",
      "note_off channel=9 note=38 velocity=0 time=92\n",
      "note_on channel=9 note=36 velocity=127 time=100\n",
      "note_off channel=9 note=36 velocity=0 time=92\n",
      "note_off channel=9 note=46 velocity=0 time=96\n",
      "note_on channel=9 note=36 velocity=127 time=4\n",
      "note_on channel=9 note=46 velocity=127 time=0\n",
      "note_on channel=9 note=57 velocity=121 time=0\n",
      "note_off channel=9 note=36 velocity=0 time=92\n",
      "note_off channel=9 note=57 velocity=0 time=96\n",
      "note_on channel=9 note=36 velocity=127 time=100\n",
      "note_off channel=9 note=36 velocity=0 time=92\n",
      "note_on channel=9 note=38 velocity=127 time=4\n",
      "note_off channel=9 note=38 velocity=0 time=92\n",
      "note_on channel=9 note=36 velocity=127 time=100\n",
      "note_on channel=9 note=46 velocity=102 time=0\n",
      "note_off channel=9 note=46 velocity=0 time=92\n",
      "note_off channel=9 note=36 velocity=0 time=0\n",
      "note_on channel=9 note=36 velocity=127 time=100\n",
      "note_on channel=9 note=46 velocity=127 time=0\n",
      "note_off channel=9 note=36 velocity=0 time=92\n",
      "note_on channel=9 note=36 velocity=127 time=196\n",
      "note_off channel=9 note=36 velocity=0 time=92\n",
      "note_off channel=9 note=46 velocity=0 time=4\n",
      "note_on channel=9 note=38 velocity=127 time=0\n",
      "note_off channel=9 note=38 velocity=0 time=92\n",
      "note_on channel=9 note=36 velocity=127 time=100\n",
      "note_off channel=9 note=36 velocity=0 time=92\n",
      "note_off channel=9 note=46 velocity=0 time=96\n",
      "note_on channel=9 note=36 velocity=127 time=4\n",
      "note_on channel=9 note=46 velocity=127 time=0\n",
      "note_off channel=9 note=36 velocity=0 time=92\n",
      "note_on channel=9 note=36 velocity=127 time=196\n",
      "note_off channel=9 note=36 velocity=0 time=92\n",
      "note_on channel=9 note=38 velocity=127 time=4\n",
      "note_off channel=9 note=38 velocity=0 time=92\n",
      "note_on channel=9 note=36 velocity=127 time=100\n",
      "note_on channel=9 note=46 velocity=102 time=0\n",
      "note_off channel=9 note=46 velocity=0 time=92\n",
      "note_off channel=9 note=36 velocity=0 time=0\n",
      "note_on channel=9 note=36 velocity=127 time=100\n",
      "note_on channel=9 note=46 velocity=127 time=0\n",
      "note_off channel=9 note=36 velocity=0 time=92\n",
      "note_on channel=9 note=36 velocity=127 time=196\n",
      "note_off channel=9 note=36 velocity=0 time=92\n",
      "note_off channel=9 note=46 velocity=0 time=4\n",
      "note_on channel=9 note=38 velocity=127 time=0\n",
      "note_off channel=9 note=38 velocity=0 time=92\n",
      "note_on channel=9 note=36 velocity=127 time=100\n",
      "note_off channel=9 note=36 velocity=0 time=92\n",
      "note_off channel=9 note=46 velocity=0 time=96\n",
      "note_on channel=9 note=36 velocity=127 time=4\n",
      "note_on channel=9 note=46 velocity=127 time=0\n",
      "note_off channel=9 note=36 velocity=0 time=92\n",
      "note_on channel=9 note=36 velocity=127 time=196\n",
      "note_off channel=9 note=36 velocity=0 time=92\n",
      "note_on channel=9 note=38 velocity=127 time=4\n",
      "note_off channel=9 note=38 velocity=0 time=92\n",
      "note_on channel=9 note=36 velocity=127 time=100\n",
      "note_on channel=9 note=46 velocity=102 time=0\n",
      "note_off channel=9 note=46 velocity=0 time=92\n",
      "note_off channel=9 note=36 velocity=0 time=0\n",
      "note_on channel=9 note=36 velocity=127 time=100\n",
      "note_on channel=9 note=46 velocity=127 time=0\n",
      "note_off channel=9 note=36 velocity=0 time=92\n",
      "note_on channel=9 note=36 velocity=127 time=196\n",
      "note_off channel=9 note=36 velocity=0 time=92\n",
      "note_off channel=9 note=46 velocity=0 time=4\n",
      "note_on channel=9 note=38 velocity=127 time=0\n",
      "note_off channel=9 note=38 velocity=0 time=92\n",
      "note_on channel=9 note=36 velocity=127 time=100\n",
      "note_off channel=9 note=36 velocity=0 time=92\n",
      "note_off channel=9 note=46 velocity=0 time=96\n",
      "note_on channel=9 note=36 velocity=127 time=4\n",
      "note_on channel=9 note=46 velocity=127 time=0\n",
      "note_off channel=9 note=36 velocity=0 time=92\n",
      "note_on channel=9 note=36 velocity=127 time=196\n",
      "note_off channel=9 note=36 velocity=0 time=92\n",
      "note_on channel=9 note=38 velocity=127 time=4\n",
      "note_off channel=9 note=38 velocity=0 time=92\n",
      "note_on channel=9 note=36 velocity=127 time=100\n",
      "note_on channel=9 note=46 velocity=102 time=0\n",
      "note_off channel=9 note=46 velocity=0 time=92\n",
      "note_off channel=9 note=36 velocity=0 time=0\n",
      "note_on channel=9 note=36 velocity=127 time=100\n",
      "note_on channel=9 note=46 velocity=127 time=0\n",
      "note_off channel=9 note=36 velocity=0 time=92\n",
      "note_on channel=9 note=36 velocity=127 time=196\n",
      "note_off channel=9 note=36 velocity=0 time=92\n",
      "note_off channel=9 note=46 velocity=0 time=4\n",
      "note_on channel=9 note=38 velocity=127 time=0\n",
      "note_off channel=9 note=38 velocity=0 time=92\n",
      "note_on channel=9 note=36 velocity=127 time=100\n",
      "note_off channel=9 note=36 velocity=0 time=92\n",
      "note_off channel=9 note=46 velocity=0 time=96\n",
      "note_on channel=9 note=36 velocity=127 time=4\n",
      "note_on channel=9 note=46 velocity=127 time=0\n",
      "note_off channel=9 note=36 velocity=0 time=92\n",
      "note_on channel=9 note=36 velocity=127 time=196\n",
      "note_off channel=9 note=36 velocity=0 time=92\n",
      "note_on channel=9 note=38 velocity=127 time=4\n",
      "note_off channel=9 note=38 velocity=0 time=92\n",
      "note_on channel=9 note=36 velocity=127 time=100\n",
      "note_on channel=9 note=46 velocity=102 time=0\n",
      "note_off channel=9 note=46 velocity=0 time=92\n",
      "note_off channel=9 note=36 velocity=0 time=0\n",
      "note_on channel=9 note=36 velocity=127 time=100\n",
      "note_on channel=9 note=46 velocity=127 time=0\n",
      "note_off channel=9 note=36 velocity=0 time=92\n",
      "note_on channel=9 note=36 velocity=127 time=196\n",
      "note_off channel=9 note=36 velocity=0 time=92\n",
      "note_off channel=9 note=46 velocity=0 time=4\n",
      "note_on channel=9 note=38 velocity=127 time=0\n",
      "note_off channel=9 note=38 velocity=0 time=92\n",
      "note_on channel=9 note=36 velocity=127 time=100\n",
      "note_off channel=9 note=36 velocity=0 time=92\n",
      "note_off channel=9 note=46 velocity=0 time=96\n",
      "note_on channel=9 note=36 velocity=127 time=4\n",
      "note_on channel=9 note=46 velocity=127 time=0\n",
      "note_off channel=9 note=36 velocity=0 time=92\n",
      "note_on channel=9 note=36 velocity=127 time=196\n",
      "note_off channel=9 note=36 velocity=0 time=92\n",
      "note_on channel=9 note=38 velocity=127 time=4\n",
      "note_off channel=9 note=38 velocity=0 time=92\n",
      "note_on channel=9 note=36 velocity=127 time=100\n",
      "note_on channel=9 note=46 velocity=102 time=0\n",
      "note_off channel=9 note=46 velocity=0 time=92\n",
      "note_off channel=9 note=36 velocity=0 time=0\n",
      "note_on channel=9 note=36 velocity=127 time=100\n",
      "note_on channel=9 note=46 velocity=127 time=0\n",
      "note_off channel=9 note=36 velocity=0 time=92\n",
      "note_on channel=9 note=36 velocity=127 time=196\n",
      "note_off channel=9 note=36 velocity=0 time=92\n",
      "note_off channel=9 note=46 velocity=0 time=4\n",
      "note_on channel=9 note=38 velocity=127 time=0\n",
      "note_off channel=9 note=38 velocity=0 time=92\n",
      "note_on channel=9 note=36 velocity=127 time=100\n",
      "note_off channel=9 note=36 velocity=0 time=92\n",
      "note_off channel=9 note=46 velocity=0 time=96\n",
      "note_on channel=9 note=36 velocity=127 time=4\n",
      "note_on channel=9 note=46 velocity=127 time=0\n",
      "note_on channel=9 note=57 velocity=115 time=0\n",
      "note_off channel=9 note=36 velocity=0 time=92\n",
      "note_on channel=9 note=36 velocity=127 time=196\n",
      "note_off channel=9 note=36 velocity=0 time=92\n",
      "note_on channel=9 note=38 velocity=127 time=4\n",
      "note_off channel=9 note=38 velocity=0 time=92\n",
      "note_on channel=9 note=36 velocity=127 time=100\n",
      "note_on channel=9 note=46 velocity=102 time=0\n",
      "note_off channel=9 note=46 velocity=0 time=92\n",
      "note_off channel=9 note=36 velocity=0 time=0\n",
      "note_off channel=9 note=57 velocity=0 time=96\n",
      "note_on channel=9 note=36 velocity=127 time=4\n",
      "note_on channel=9 note=46 velocity=127 time=0\n",
      "note_on channel=9 note=57 velocity=119 time=0\n",
      "note_off channel=9 note=36 velocity=0 time=92\n",
      "note_on channel=9 note=36 velocity=127 time=196\n",
      "note_off channel=9 note=36 velocity=0 time=92\n",
      "note_off channel=9 note=46 velocity=0 time=4\n",
      "note_on channel=9 note=38 velocity=127 time=0\n",
      "note_off channel=9 note=38 velocity=0 time=92\n",
      "note_on channel=9 note=36 velocity=127 time=100\n",
      "note_off channel=9 note=36 velocity=0 time=92\n",
      "note_off channel=9 note=57 velocity=0 time=96\n",
      "note_off channel=9 note=46 velocity=0 time=0\n",
      "note_on channel=9 note=36 velocity=127 time=4\n",
      "note_on channel=9 note=46 velocity=127 time=0\n",
      "note_on channel=9 note=57 velocity=117 time=0\n",
      "note_off channel=9 note=36 velocity=0 time=92\n",
      "note_on channel=9 note=36 velocity=127 time=196\n",
      "note_off channel=9 note=36 velocity=0 time=92\n",
      "note_on channel=9 note=38 velocity=127 time=4\n",
      "note_off channel=9 note=38 velocity=0 time=92\n",
      "note_on channel=9 note=36 velocity=127 time=100\n",
      "note_on channel=9 note=46 velocity=102 time=0\n",
      "note_off channel=9 note=46 velocity=0 time=92\n",
      "note_off channel=9 note=36 velocity=0 time=0\n",
      "note_off channel=9 note=57 velocity=0 time=96\n",
      "note_on channel=9 note=36 velocity=127 time=4\n",
      "note_on channel=9 note=46 velocity=127 time=0\n",
      "note_off channel=9 note=36 velocity=0 time=92\n",
      "note_on channel=9 note=36 velocity=127 time=196\n",
      "note_off channel=9 note=36 velocity=0 time=92\n",
      "note_off channel=9 note=46 velocity=0 time=4\n",
      "note_on channel=9 note=38 velocity=127 time=0\n",
      "note_off channel=9 note=38 velocity=0 time=92\n",
      "note_on channel=9 note=36 velocity=127 time=100\n",
      "note_off channel=9 note=36 velocity=0 time=92\n",
      "note_off channel=9 note=46 velocity=0 time=96\n",
      "note_on channel=9 note=36 velocity=127 time=4\n",
      "note_on channel=9 note=46 velocity=127 time=0\n",
      "note_off channel=9 note=36 velocity=0 time=92\n",
      "note_on channel=9 note=36 velocity=127 time=196\n",
      "note_off channel=9 note=36 velocity=0 time=92\n",
      "note_on channel=9 note=38 velocity=127 time=4\n",
      "note_off channel=9 note=38 velocity=0 time=92\n",
      "note_on channel=9 note=36 velocity=127 time=100\n",
      "note_on channel=9 note=46 velocity=102 time=0\n",
      "note_off channel=9 note=46 velocity=0 time=92\n",
      "note_off channel=9 note=36 velocity=0 time=0\n",
      "note_on channel=9 note=36 velocity=127 time=100\n",
      "note_on channel=9 note=46 velocity=127 time=0\n",
      "note_off channel=9 note=36 velocity=0 time=92\n",
      "note_on channel=9 note=36 velocity=127 time=196\n",
      "note_off channel=9 note=36 velocity=0 time=92\n",
      "note_off channel=9 note=46 velocity=0 time=4\n",
      "note_on channel=9 note=38 velocity=127 time=0\n",
      "note_off channel=9 note=38 velocity=0 time=92\n",
      "note_on channel=9 note=36 velocity=127 time=100\n",
      "note_off channel=9 note=36 velocity=0 time=92\n",
      "note_off channel=9 note=46 velocity=0 time=96\n",
      "note_on channel=9 note=36 velocity=127 time=4\n",
      "note_on channel=9 note=46 velocity=127 time=0\n",
      "note_off channel=9 note=36 velocity=0 time=92\n",
      "note_on channel=9 note=36 velocity=127 time=196\n",
      "note_off channel=9 note=36 velocity=0 time=92\n",
      "note_on channel=9 note=38 velocity=127 time=4\n",
      "note_off channel=9 note=38 velocity=0 time=92\n",
      "note_on channel=9 note=36 velocity=127 time=100\n",
      "note_on channel=9 note=46 velocity=102 time=0\n",
      "note_off channel=9 note=46 velocity=0 time=92\n",
      "note_off channel=9 note=36 velocity=0 time=0\n",
      "note_on channel=9 note=36 velocity=127 time=100\n",
      "note_on channel=9 note=46 velocity=127 time=0\n",
      "note_off channel=9 note=36 velocity=0 time=92\n",
      "note_on channel=9 note=36 velocity=127 time=196\n",
      "note_off channel=9 note=36 velocity=0 time=92\n",
      "note_off channel=9 note=46 velocity=0 time=4\n",
      "note_on channel=9 note=38 velocity=127 time=0\n",
      "note_off channel=9 note=38 velocity=0 time=92\n",
      "note_on channel=9 note=36 velocity=127 time=100\n",
      "note_off channel=9 note=36 velocity=0 time=92\n",
      "note_off channel=9 note=46 velocity=0 time=96\n",
      "note_on channel=9 note=36 velocity=127 time=4\n",
      "note_on channel=9 note=46 velocity=127 time=0\n",
      "note_off channel=9 note=36 velocity=0 time=92\n",
      "note_on channel=9 note=36 velocity=127 time=196\n",
      "note_off channel=9 note=36 velocity=0 time=92\n",
      "note_on channel=9 note=38 velocity=127 time=4\n",
      "note_off channel=9 note=38 velocity=0 time=92\n",
      "note_on channel=9 note=36 velocity=127 time=100\n",
      "note_on channel=9 note=46 velocity=102 time=0\n",
      "note_off channel=9 note=46 velocity=0 time=92\n",
      "note_off channel=9 note=36 velocity=0 time=0\n",
      "note_on channel=9 note=36 velocity=127 time=100\n",
      "note_on channel=9 note=46 velocity=127 time=0\n",
      "note_off channel=9 note=36 velocity=0 time=92\n",
      "note_on channel=9 note=36 velocity=127 time=196\n",
      "note_off channel=9 note=36 velocity=0 time=92\n",
      "note_off channel=9 note=46 velocity=0 time=4\n",
      "note_on channel=9 note=38 velocity=127 time=0\n",
      "note_off channel=9 note=38 velocity=0 time=92\n",
      "note_on channel=9 note=36 velocity=127 time=100\n",
      "note_off channel=9 note=36 velocity=0 time=92\n",
      "note_off channel=9 note=46 velocity=0 time=96\n",
      "note_on channel=9 note=36 velocity=127 time=4\n",
      "note_on channel=9 note=46 velocity=127 time=0\n",
      "note_off channel=9 note=36 velocity=0 time=92\n",
      "note_on channel=9 note=36 velocity=127 time=196\n",
      "note_off channel=9 note=36 velocity=0 time=92\n",
      "note_on channel=9 note=38 velocity=127 time=4\n",
      "note_off channel=9 note=38 velocity=0 time=92\n",
      "note_on channel=9 note=36 velocity=127 time=100\n",
      "note_on channel=9 note=46 velocity=102 time=0\n",
      "note_off channel=9 note=46 velocity=0 time=92\n",
      "note_off channel=9 note=36 velocity=0 time=0\n",
      "note_on channel=9 note=36 velocity=127 time=100\n",
      "note_on channel=9 note=46 velocity=127 time=0\n",
      "note_off channel=9 note=36 velocity=0 time=92\n",
      "note_on channel=9 note=36 velocity=127 time=196\n",
      "note_off channel=9 note=36 velocity=0 time=92\n",
      "note_off channel=9 note=46 velocity=0 time=4\n",
      "note_on channel=9 note=38 velocity=127 time=0\n",
      "note_off channel=9 note=38 velocity=0 time=92\n",
      "note_on channel=9 note=36 velocity=127 time=100\n",
      "note_off channel=9 note=36 velocity=0 time=92\n",
      "note_off channel=9 note=46 velocity=0 time=96\n",
      "note_on channel=9 note=36 velocity=127 time=4\n",
      "note_on channel=9 note=46 velocity=127 time=0\n",
      "note_off channel=9 note=36 velocity=0 time=92\n",
      "note_on channel=9 note=36 velocity=127 time=196\n",
      "note_off channel=9 note=36 velocity=0 time=92\n",
      "note_on channel=9 note=38 velocity=127 time=4\n",
      "note_off channel=9 note=38 velocity=0 time=92\n",
      "note_on channel=9 note=36 velocity=127 time=100\n",
      "note_on channel=9 note=46 velocity=102 time=0\n",
      "note_off channel=9 note=46 velocity=0 time=92\n",
      "note_off channel=9 note=36 velocity=0 time=0\n",
      "note_on channel=9 note=36 velocity=127 time=100\n",
      "note_on channel=9 note=46 velocity=127 time=0\n",
      "note_off channel=9 note=36 velocity=0 time=92\n",
      "note_on channel=9 note=36 velocity=127 time=196\n",
      "note_off channel=9 note=36 velocity=0 time=92\n",
      "note_off channel=9 note=46 velocity=0 time=4\n",
      "note_on channel=9 note=38 velocity=127 time=0\n",
      "note_off channel=9 note=38 velocity=0 time=92\n",
      "note_on channel=9 note=36 velocity=127 time=100\n",
      "note_off channel=9 note=36 velocity=0 time=92\n",
      "note_off channel=9 note=46 velocity=0 time=96\n",
      "note_on channel=9 note=46 velocity=127 time=4\n",
      "note_on channel=9 note=36 velocity=127 time=24\n",
      "note_off channel=9 note=36 velocity=0 time=94\n",
      "note_on channel=9 note=36 velocity=127 time=170\n",
      "note_off channel=9 note=36 velocity=0 time=92\n",
      "note_on channel=9 note=38 velocity=127 time=4\n",
      "note_off channel=9 note=38 velocity=0 time=92\n",
      "note_on channel=9 note=36 velocity=127 time=100\n",
      "note_on channel=9 note=46 velocity=102 time=0\n",
      "note_off channel=9 note=46 velocity=0 time=92\n",
      "note_off channel=9 note=36 velocity=0 time=0\n",
      "note_on channel=9 note=36 velocity=127 time=100\n",
      "note_on channel=9 note=46 velocity=127 time=0\n",
      "note_off channel=9 note=36 velocity=0 time=92\n",
      "note_on channel=9 note=36 velocity=127 time=196\n",
      "note_off channel=9 note=36 velocity=0 time=92\n",
      "note_off channel=9 note=46 velocity=0 time=4\n",
      "note_on channel=9 note=38 velocity=127 time=0\n",
      "note_off channel=9 note=38 velocity=0 time=92\n",
      "note_on channel=9 note=38 velocity=127 time=100\n",
      "note_off channel=9 note=38 velocity=0 time=92\n",
      "note_off channel=9 note=46 velocity=0 time=96\n",
      "note_on channel=9 note=36 velocity=127 time=4\n",
      "note_off channel=9 note=36 velocity=0 time=144\n",
      "note_on channel=9 note=38 velocity=127 time=48\n",
      "note_on channel=9 note=46 velocity=127 time=0\n",
      "note_off channel=9 note=46 velocity=0 time=76\n",
      "note_off channel=9 note=38 velocity=0 time=4\n",
      "note_on channel=9 note=38 velocity=127 time=112\n",
      "note_on channel=9 note=46 velocity=127 time=0\n",
      "note_off channel=9 note=38 velocity=0 time=104\n",
      "note_on channel=9 note=36 velocity=127 time=88\n",
      "note_off channel=9 note=46 velocity=0 time=32\n",
      "note_off channel=9 note=36 velocity=0 time=80\n",
      "note_on channel=9 note=38 velocity=127 time=80\n",
      "note_on channel=9 note=46 velocity=127 time=0\n",
      "note_off channel=9 note=38 velocity=0 time=64\n",
      "note_off channel=9 note=46 velocity=0 time=32\n",
      "note_on channel=9 note=38 velocity=127 time=96\n",
      "note_on channel=9 note=46 velocity=127 time=0\n",
      "note_off channel=9 note=38 velocity=0 time=166\n",
      "note_off channel=9 note=46 velocity=0 time=10\n",
      "note_on channel=9 note=36 velocity=127 time=16\n",
      "note_off channel=9 note=36 velocity=0 time=98\n",
      "note_on channel=9 note=38 velocity=127 time=94\n",
      "note_on channel=9 note=46 velocity=127 time=0\n",
      "note_off channel=9 note=46 velocity=0 time=290\n",
      "note_off channel=9 note=38 velocity=0 time=90\n",
      "note_on channel=9 note=43 velocity=127 time=916\n",
      "note_on channel=9 note=38 velocity=127 time=48\n",
      "note_off channel=9 note=43 velocity=0 time=56\n",
      "note_off channel=9 note=38 velocity=0 time=176\n",
      "note_on channel=9 note=36 velocity=127 time=152\n",
      "note_on channel=9 note=46 velocity=127 time=0\n",
      "note_off channel=9 note=36 velocity=0 time=92\n",
      "note_on channel=9 note=36 velocity=127 time=196\n",
      "note_off channel=9 note=36 velocity=0 time=92\n",
      "note_on channel=9 note=38 velocity=127 time=4\n",
      "note_off channel=9 note=38 velocity=0 time=92\n",
      "note_on channel=9 note=36 velocity=127 time=100\n",
      "note_on channel=9 note=46 velocity=102 time=0\n",
      "note_off channel=9 note=46 velocity=0 time=92\n",
      "note_off channel=9 note=36 velocity=0 time=0\n",
      "note_on channel=9 note=36 velocity=127 time=100\n",
      "note_on channel=9 note=46 velocity=127 time=0\n",
      "note_off channel=9 note=36 velocity=0 time=92\n",
      "note_on channel=9 note=36 velocity=127 time=196\n",
      "note_off channel=9 note=36 velocity=0 time=92\n",
      "note_off channel=9 note=46 velocity=0 time=4\n",
      "note_on channel=9 note=38 velocity=127 time=0\n",
      "note_off channel=9 note=38 velocity=0 time=92\n",
      "note_on channel=9 note=36 velocity=127 time=100\n",
      "note_off channel=9 note=36 velocity=0 time=92\n",
      "note_off channel=9 note=46 velocity=0 time=96\n",
      "note_on channel=9 note=36 velocity=127 time=4\n",
      "note_on channel=9 note=46 velocity=127 time=0\n",
      "note_off channel=9 note=36 velocity=0 time=92\n",
      "note_on channel=9 note=36 velocity=127 time=196\n",
      "note_off channel=9 note=36 velocity=0 time=92\n",
      "note_on channel=9 note=38 velocity=127 time=4\n",
      "note_off channel=9 note=38 velocity=0 time=92\n",
      "note_on channel=9 note=36 velocity=127 time=100\n",
      "note_on channel=9 note=46 velocity=102 time=0\n",
      "note_off channel=9 note=46 velocity=0 time=92\n",
      "note_off channel=9 note=36 velocity=0 time=0\n",
      "note_on channel=9 note=36 velocity=127 time=100\n",
      "note_on channel=9 note=46 velocity=127 time=0\n",
      "note_off channel=9 note=36 velocity=0 time=92\n",
      "note_on channel=9 note=36 velocity=127 time=196\n",
      "note_off channel=9 note=36 velocity=0 time=92\n",
      "note_off channel=9 note=46 velocity=0 time=4\n",
      "note_on channel=9 note=38 velocity=127 time=0\n",
      "note_off channel=9 note=38 velocity=0 time=92\n",
      "note_on channel=9 note=36 velocity=127 time=100\n",
      "note_off channel=9 note=36 velocity=0 time=92\n",
      "note_off channel=9 note=46 velocity=0 time=96\n",
      "note_on channel=9 note=36 velocity=127 time=4\n",
      "note_on channel=9 note=46 velocity=127 time=0\n",
      "note_off channel=9 note=36 velocity=0 time=92\n",
      "note_on channel=9 note=36 velocity=127 time=196\n",
      "note_off channel=9 note=36 velocity=0 time=92\n",
      "note_on channel=9 note=38 velocity=127 time=4\n",
      "note_off channel=9 note=38 velocity=0 time=92\n",
      "note_on channel=9 note=36 velocity=127 time=100\n",
      "note_on channel=9 note=46 velocity=102 time=0\n",
      "note_off channel=9 note=46 velocity=0 time=92\n",
      "note_off channel=9 note=36 velocity=0 time=0\n",
      "note_on channel=9 note=36 velocity=127 time=100\n",
      "note_on channel=9 note=46 velocity=127 time=0\n",
      "note_off channel=9 note=36 velocity=0 time=92\n",
      "note_on channel=9 note=36 velocity=127 time=196\n",
      "note_off channel=9 note=36 velocity=0 time=92\n",
      "note_off channel=9 note=46 velocity=0 time=4\n",
      "note_on channel=9 note=38 velocity=127 time=0\n",
      "note_off channel=9 note=38 velocity=0 time=92\n",
      "note_on channel=9 note=36 velocity=127 time=100\n",
      "note_off channel=9 note=36 velocity=0 time=92\n",
      "note_off channel=9 note=46 velocity=0 time=96\n",
      "note_on channel=9 note=36 velocity=127 time=4\n",
      "note_on channel=9 note=46 velocity=127 time=0\n",
      "note_off channel=9 note=36 velocity=0 time=92\n",
      "note_on channel=9 note=36 velocity=127 time=196\n",
      "note_off channel=9 note=36 velocity=0 time=92\n",
      "note_on channel=9 note=38 velocity=127 time=4\n",
      "note_off channel=9 note=38 velocity=0 time=92\n",
      "note_on channel=9 note=36 velocity=127 time=100\n",
      "note_on channel=9 note=46 velocity=102 time=0\n",
      "note_off channel=9 note=46 velocity=0 time=92\n",
      "note_off channel=9 note=36 velocity=0 time=0\n",
      "note_on channel=9 note=36 velocity=127 time=100\n",
      "note_on channel=9 note=46 velocity=127 time=0\n",
      "note_off channel=9 note=36 velocity=0 time=92\n",
      "note_on channel=9 note=36 velocity=127 time=196\n",
      "note_off channel=9 note=36 velocity=0 time=92\n",
      "note_off channel=9 note=46 velocity=0 time=4\n",
      "note_on channel=9 note=38 velocity=127 time=0\n",
      "note_off channel=9 note=38 velocity=0 time=92\n",
      "note_on channel=9 note=36 velocity=127 time=100\n",
      "note_off channel=9 note=36 velocity=0 time=92\n",
      "note_off channel=9 note=46 velocity=0 time=96\n",
      "note_on channel=9 note=36 velocity=127 time=4\n",
      "note_on channel=9 note=46 velocity=127 time=0\n",
      "note_off channel=9 note=36 velocity=0 time=92\n",
      "note_on channel=9 note=36 velocity=127 time=196\n",
      "note_off channel=9 note=36 velocity=0 time=92\n",
      "note_on channel=9 note=38 velocity=127 time=4\n",
      "note_off channel=9 note=38 velocity=0 time=92\n",
      "note_on channel=9 note=36 velocity=127 time=100\n",
      "note_on channel=9 note=46 velocity=102 time=0\n",
      "note_off channel=9 note=46 velocity=0 time=92\n",
      "note_off channel=9 note=36 velocity=0 time=0\n",
      "note_on channel=9 note=36 velocity=127 time=100\n",
      "note_on channel=9 note=46 velocity=127 time=0\n",
      "note_off channel=9 note=36 velocity=0 time=92\n",
      "note_on channel=9 note=36 velocity=127 time=196\n",
      "note_off channel=9 note=36 velocity=0 time=92\n",
      "note_off channel=9 note=46 velocity=1 time=4\n",
      "note_on channel=9 note=38 velocity=127 time=0\n",
      "note_off channel=9 note=38 velocity=0 time=92\n",
      "note_on channel=9 note=36 velocity=127 time=100\n",
      "note_off channel=9 note=36 velocity=0 time=92\n",
      "note_off channel=9 note=46 velocity=0 time=96\n",
      "note_on channel=9 note=36 velocity=127 time=4\n",
      "note_on channel=9 note=46 velocity=127 time=0\n",
      "note_off channel=9 note=36 velocity=0 time=92\n",
      "note_on channel=9 note=36 velocity=127 time=196\n",
      "note_off channel=9 note=36 velocity=0 time=92\n",
      "note_on channel=9 note=38 velocity=127 time=4\n",
      "note_off channel=9 note=38 velocity=0 time=92\n",
      "note_on channel=9 note=36 velocity=127 time=100\n",
      "note_on channel=9 note=46 velocity=102 time=0\n",
      "note_off channel=9 note=46 velocity=0 time=92\n",
      "note_off channel=9 note=36 velocity=0 time=0\n",
      "note_on channel=9 note=36 velocity=127 time=100\n",
      "note_on channel=9 note=46 velocity=127 time=0\n",
      "note_off channel=9 note=36 velocity=0 time=92\n",
      "note_on channel=9 note=36 velocity=127 time=196\n",
      "note_off channel=9 note=36 velocity=0 time=92\n",
      "note_off channel=9 note=46 velocity=1 time=4\n",
      "note_on channel=9 note=38 velocity=127 time=0\n",
      "note_off channel=9 note=38 velocity=0 time=92\n",
      "note_on channel=9 note=36 velocity=127 time=100\n",
      "note_off channel=9 note=36 velocity=0 time=92\n",
      "note_off channel=9 note=46 velocity=0 time=96\n",
      "note_on channel=9 note=36 velocity=127 time=4\n",
      "note_on channel=9 note=46 velocity=127 time=0\n",
      "note_off channel=9 note=36 velocity=0 time=92\n",
      "note_on channel=9 note=36 velocity=127 time=196\n",
      "note_off channel=9 note=36 velocity=0 time=92\n",
      "note_on channel=9 note=38 velocity=127 time=4\n",
      "note_off channel=9 note=38 velocity=0 time=92\n",
      "note_on channel=9 note=36 velocity=127 time=100\n",
      "note_on channel=9 note=46 velocity=102 time=0\n",
      "note_off channel=9 note=46 velocity=0 time=92\n",
      "note_off channel=9 note=36 velocity=0 time=0\n",
      "note_on channel=9 note=36 velocity=127 time=100\n",
      "note_on channel=9 note=46 velocity=127 time=0\n",
      "note_off channel=9 note=36 velocity=0 time=92\n",
      "note_on channel=9 note=36 velocity=127 time=196\n",
      "note_off channel=9 note=36 velocity=0 time=92\n",
      "note_off channel=9 note=46 velocity=1 time=4\n",
      "note_on channel=9 note=38 velocity=127 time=0\n",
      "note_off channel=9 note=38 velocity=0 time=92\n",
      "note_on channel=9 note=36 velocity=127 time=100\n",
      "note_off channel=9 note=36 velocity=0 time=92\n",
      "note_off channel=9 note=46 velocity=0 time=96\n",
      "note_on channel=9 note=36 velocity=127 time=4\n",
      "note_on channel=9 note=46 velocity=127 time=0\n",
      "note_off channel=9 note=36 velocity=0 time=92\n",
      "note_on channel=9 note=36 velocity=127 time=196\n",
      "note_off channel=9 note=36 velocity=0 time=92\n",
      "note_on channel=9 note=38 velocity=127 time=4\n",
      "note_off channel=9 note=38 velocity=0 time=92\n",
      "note_on channel=9 note=36 velocity=127 time=100\n",
      "note_on channel=9 note=46 velocity=102 time=0\n",
      "note_off channel=9 note=46 velocity=0 time=92\n",
      "note_off channel=9 note=36 velocity=0 time=0\n",
      "note_on channel=9 note=36 velocity=127 time=100\n",
      "note_on channel=9 note=46 velocity=127 time=0\n",
      "note_off channel=9 note=36 velocity=0 time=92\n",
      "note_on channel=9 note=36 velocity=127 time=196\n",
      "note_off channel=9 note=36 velocity=0 time=92\n",
      "note_off channel=9 note=46 velocity=1 time=4\n",
      "note_on channel=9 note=38 velocity=127 time=0\n",
      "note_off channel=9 note=38 velocity=0 time=92\n",
      "note_on channel=9 note=36 velocity=127 time=100\n",
      "note_off channel=9 note=36 velocity=0 time=92\n",
      "note_off channel=9 note=46 velocity=0 time=96\n",
      "note_on channel=9 note=36 velocity=127 time=4\n",
      "note_on channel=9 note=46 velocity=127 time=0\n",
      "note_on channel=9 note=57 velocity=125 time=8\n",
      "note_off channel=9 note=36 velocity=0 time=84\n",
      "note_on channel=9 note=36 velocity=127 time=196\n",
      "note_off channel=9 note=36 velocity=0 time=92\n",
      "note_on channel=9 note=38 velocity=127 time=4\n",
      "note_off channel=9 note=38 velocity=0 time=92\n",
      "note_on channel=9 note=36 velocity=127 time=100\n",
      "note_on channel=9 note=46 velocity=102 time=0\n",
      "note_off channel=9 note=46 velocity=0 time=92\n",
      "note_off channel=9 note=36 velocity=0 time=0\n",
      "note_on channel=9 note=36 velocity=127 time=100\n",
      "note_on channel=9 note=46 velocity=127 time=0\n",
      "note_off channel=9 note=57 velocity=0 time=6\n",
      "note_on channel=9 note=57 velocity=125 time=2\n",
      "note_off channel=9 note=36 velocity=0 time=84\n",
      "note_on channel=9 note=36 velocity=127 time=196\n",
      "note_off channel=9 note=36 velocity=0 time=92\n",
      "note_off channel=9 note=46 velocity=1 time=4\n",
      "note_on channel=9 note=38 velocity=127 time=0\n",
      "note_off channel=9 note=38 velocity=0 time=92\n",
      "note_on channel=9 note=36 velocity=127 time=100\n",
      "note_off channel=9 note=36 velocity=0 time=92\n",
      "note_off channel=9 note=46 velocity=0 time=96\n",
      "note_on channel=9 note=36 velocity=127 time=4\n",
      "note_on channel=9 note=46 velocity=127 time=0\n",
      "note_off channel=9 note=57 velocity=0 time=6\n",
      "note_on channel=9 note=57 velocity=126 time=2\n",
      "note_off channel=9 note=36 velocity=0 time=84\n",
      "note_on channel=9 note=36 velocity=127 time=196\n",
      "note_off channel=9 note=36 velocity=0 time=92\n",
      "note_on channel=9 note=38 velocity=127 time=4\n",
      "note_off channel=9 note=38 velocity=0 time=92\n",
      "note_on channel=9 note=36 velocity=127 time=100\n",
      "note_on channel=9 note=46 velocity=102 time=0\n",
      "note_off channel=9 note=46 velocity=0 time=92\n",
      "note_off channel=9 note=36 velocity=0 time=0\n",
      "note_on channel=9 note=36 velocity=127 time=100\n",
      "note_on channel=9 note=46 velocity=127 time=0\n",
      "note_off channel=9 note=57 velocity=0 time=6\n",
      "note_on channel=9 note=57 velocity=125 time=2\n",
      "note_off channel=9 note=36 velocity=0 time=84\n",
      "note_on channel=9 note=36 velocity=127 time=196\n",
      "note_off channel=9 note=36 velocity=0 time=92\n",
      "note_off channel=9 note=46 velocity=1 time=4\n",
      "note_on channel=9 note=38 velocity=127 time=0\n",
      "note_off channel=9 note=38 velocity=0 time=92\n",
      "note_on channel=9 note=36 velocity=127 time=100\n",
      "note_off channel=9 note=36 velocity=0 time=92\n",
      "note_off channel=9 note=46 velocity=0 time=96\n",
      "note_on channel=9 note=36 velocity=127 time=4\n",
      "note_on channel=9 note=46 velocity=127 time=0\n",
      "note_off channel=9 note=57 velocity=0 time=6\n",
      "note_on channel=9 note=57 velocity=124 time=2\n",
      "note_off channel=9 note=36 velocity=0 time=84\n",
      "note_on channel=9 note=36 velocity=127 time=196\n",
      "note_off channel=9 note=36 velocity=0 time=92\n",
      "note_on channel=9 note=38 velocity=127 time=4\n",
      "note_off channel=9 note=38 velocity=0 time=92\n",
      "note_on channel=9 note=36 velocity=127 time=100\n",
      "note_on channel=9 note=46 velocity=102 time=0\n",
      "note_off channel=9 note=46 velocity=0 time=92\n",
      "note_off channel=9 note=36 velocity=0 time=0\n",
      "note_on channel=9 note=36 velocity=127 time=100\n",
      "note_on channel=9 note=46 velocity=127 time=0\n",
      "note_off channel=9 note=57 velocity=0 time=6\n",
      "note_off channel=9 note=36 velocity=0 time=86\n",
      "note_on channel=9 note=36 velocity=127 time=196\n",
      "note_off channel=9 note=36 velocity=0 time=92\n",
      "note_off channel=9 note=46 velocity=1 time=4\n",
      "note_on channel=9 note=38 velocity=127 time=0\n",
      "note_off channel=9 note=38 velocity=0 time=92\n",
      "note_on channel=9 note=36 velocity=127 time=100\n",
      "note_off channel=9 note=36 velocity=0 time=92\n",
      "note_off channel=9 note=46 velocity=0 time=96\n",
      "note_on channel=9 note=36 velocity=127 time=4\n",
      "note_on channel=9 note=46 velocity=127 time=0\n",
      "note_off channel=9 note=36 velocity=0 time=92\n",
      "note_on channel=9 note=36 velocity=127 time=196\n",
      "note_off channel=9 note=36 velocity=0 time=92\n",
      "note_on channel=9 note=38 velocity=127 time=4\n",
      "note_off channel=9 note=38 velocity=0 time=92\n",
      "note_on channel=9 note=36 velocity=127 time=100\n",
      "note_on channel=9 note=46 velocity=102 time=0\n",
      "note_off channel=9 note=46 velocity=0 time=92\n",
      "note_off channel=9 note=36 velocity=0 time=0\n",
      "note_on channel=9 note=36 velocity=127 time=100\n",
      "note_on channel=9 note=46 velocity=127 time=0\n",
      "note_off channel=9 note=36 velocity=0 time=92\n",
      "note_on channel=9 note=36 velocity=127 time=196\n",
      "note_off channel=9 note=36 velocity=0 time=92\n",
      "note_off channel=9 note=46 velocity=1 time=4\n",
      "note_on channel=9 note=38 velocity=127 time=0\n",
      "note_off channel=9 note=38 velocity=0 time=92\n",
      "note_on channel=9 note=36 velocity=127 time=100\n",
      "note_on channel=9 note=38 velocity=127 time=0\n",
      "note_off channel=9 note=38 velocity=0 time=92\n",
      "note_off channel=9 note=36 velocity=0 time=0\n",
      "note_on channel=9 note=38 velocity=127 time=4\n",
      "note_off channel=9 note=38 velocity=0 time=92\n",
      "note_off channel=9 note=46 velocity=0 time=0\n",
      "note_on channel=9 note=36 velocity=127 time=4\n",
      "note_on channel=9 note=50 velocity=127 time=0\n",
      "note_on channel=9 note=57 velocity=127 time=0\n",
      "note_off channel=9 note=50 velocity=0 time=124\n",
      "note_on channel=9 note=50 velocity=127 time=4\n",
      "note_on channel=9 note=38 velocity=127 time=64\n",
      "note_off channel=9 note=50 velocity=0 time=60\n",
      "note_on channel=9 note=48 velocity=127 time=4\n",
      "note_off channel=9 note=38 velocity=0 time=32\n",
      "note_off channel=9 note=48 velocity=0 time=92\n",
      "note_off channel=9 note=57 velocity=0 time=0\n",
      "note_off channel=9 note=36 velocity=0 time=0\n",
      "note_on channel=9 note=38 velocity=127 time=4\n",
      "note_on channel=9 note=48 velocity=127 time=0\n",
      "note_off channel=9 note=38 velocity=0 time=96\n",
      "note_on channel=9 note=38 velocity=127 time=0\n",
      "note_off channel=9 note=48 velocity=0 time=28\n",
      "note_on channel=9 note=47 velocity=127 time=4\n",
      "note_off channel=9 note=38 velocity=0 time=64\n",
      "note_off channel=9 note=47 velocity=0 time=60\n",
      "note_on channel=9 note=47 velocity=127 time=4\n",
      "note_on channel=9 note=38 velocity=127 time=32\n",
      "note_off channel=9 note=47 velocity=0 time=92\n",
      "note_off channel=9 note=38 velocity=0 time=4\n",
      "note_on channel=9 note=38 velocity=127 time=0\n",
      "note_on channel=9 note=45 velocity=127 time=0\n",
      "note_off channel=9 note=38 velocity=0 time=96\n",
      "note_off channel=9 note=45 velocity=0 time=28\n",
      "note_on channel=9 note=45 velocity=127 time=4\n",
      "note_on channel=9 note=38 velocity=127 time=64\n",
      "note_off channel=9 note=45 velocity=0 time=60\n",
      "note_on channel=9 note=43 velocity=127 time=4\n",
      "note_off channel=9 note=38 velocity=0 time=32\n",
      "note_on channel=9 note=38 velocity=127 time=0\n",
      "note_off channel=9 note=43 velocity=0 time=92\n",
      "note_off channel=9 note=38 velocity=0 time=4\n",
      "note_on channel=9 note=38 velocity=127 time=96\n",
      "note_off channel=9 note=38 velocity=0 time=96\n",
      "note_on channel=9 note=38 velocity=127 time=0\n",
      "note_off channel=9 note=38 velocity=0 time=96\n",
      "note_on channel=9 note=38 velocity=127 time=96\n",
      "note_on channel=9 note=50 velocity=127 time=0\n",
      "note_off channel=9 note=50 velocity=0 time=60\n",
      "note_on channel=9 note=50 velocity=99 time=4\n",
      "note_off channel=9 note=38 velocity=0 time=32\n",
      "note_off channel=9 note=50 velocity=0 time=28\n",
      "note_on channel=9 note=50 velocity=95 time=4\n",
      "note_off channel=9 note=50 velocity=0 time=60\n",
      "note_on channel=9 note=38 velocity=127 time=4\n",
      "note_on channel=9 note=48 velocity=96 time=0\n",
      "note_off channel=9 note=48 velocity=0 time=60\n",
      "note_on channel=9 note=48 velocity=96 time=4\n",
      "note_off channel=9 note=38 velocity=0 time=32\n",
      "note_off channel=9 note=48 velocity=0 time=28\n",
      "note_on channel=9 note=48 velocity=96 time=4\n",
      "note_off channel=9 note=48 velocity=0 time=60\n",
      "note_on channel=9 note=38 velocity=127 time=4\n",
      "note_on channel=9 note=47 velocity=102 time=0\n",
      "note_off channel=9 note=47 velocity=0 time=60\n",
      "note_on channel=9 note=47 velocity=92 time=4\n",
      "note_off channel=9 note=38 velocity=0 time=32\n",
      "note_on channel=9 note=38 velocity=127 time=0\n",
      "note_off channel=9 note=47 velocity=0 time=28\n",
      "note_on channel=9 note=47 velocity=97 time=4\n",
      "note_off channel=9 note=47 velocity=0 time=60\n",
      "note_off channel=9 note=38 velocity=0 time=4\n",
      "note_on channel=9 note=45 velocity=98 time=0\n",
      "note_off channel=9 note=45 velocity=0 time=60\n",
      "note_on channel=9 note=45 velocity=97 time=4\n",
      "note_on channel=9 note=38 velocity=127 time=32\n",
      "note_off channel=9 note=45 velocity=0 time=28\n",
      "note_on channel=9 note=45 velocity=102 time=4\n",
      "note_off channel=9 note=45 velocity=0 time=60\n",
      "note_off channel=9 note=38 velocity=0 time=4\n",
      "note_on channel=9 note=38 velocity=127 time=0\n",
      "note_on channel=9 note=43 velocity=93 time=0\n",
      "note_off channel=9 note=43 velocity=0 time=60\n",
      "note_on channel=9 note=43 velocity=94 time=4\n",
      "note_off channel=9 note=38 velocity=0 time=32\n",
      "note_off channel=9 note=43 velocity=0 time=28\n",
      "note_on channel=9 note=43 velocity=95 time=4\n",
      "note_off channel=9 note=43 velocity=0 time=60\n",
      "note_on channel=9 note=38 velocity=127 time=4\n",
      "note_on channel=9 note=43 velocity=92 time=0\n",
      "note_off channel=9 note=43 velocity=0 time=60\n",
      "note_on channel=9 note=43 velocity=96 time=4\n",
      "note_off channel=9 note=38 velocity=0 time=32\n",
      "note_on channel=9 note=38 velocity=127 time=0\n",
      "note_off channel=9 note=43 velocity=0 time=28\n",
      "note_on channel=9 note=43 velocity=94 time=4\n",
      "note_off channel=9 note=43 velocity=0 time=60\n",
      "note_off channel=9 note=38 velocity=0 time=4\n",
      "note_on channel=9 note=38 velocity=127 time=96\n",
      "note_off channel=9 note=38 velocity=0 time=96\n",
      "note_on channel=9 note=38 velocity=127 time=0\n",
      "note_off channel=9 note=38 velocity=0 time=96\n",
      "note_on channel=9 note=36 velocity=127 time=96\n",
      "note_on channel=9 note=46 velocity=127 time=0\n",
      "note_on channel=9 note=57 velocity=127 time=0\n",
      "note_off channel=9 note=36 velocity=0 time=92\n",
      "note_off channel=9 note=57 velocity=0 time=32\n",
      "note_on channel=9 note=36 velocity=127 time=164\n",
      "note_off channel=9 note=36 velocity=0 time=92\n",
      "note_on channel=9 note=38 velocity=127 time=4\n",
      "note_off channel=9 note=38 velocity=0 time=92\n",
      "note_on channel=9 note=36 velocity=127 time=100\n",
      "note_on channel=9 note=46 velocity=95 time=0\n",
      "note_off channel=9 note=46 velocity=0 time=92\n",
      "note_off channel=9 note=36 velocity=0 time=0\n",
      "note_on channel=9 note=36 velocity=127 time=100\n",
      "note_on channel=9 note=46 velocity=127 time=0\n",
      "note_off channel=9 note=36 velocity=0 time=92\n",
      "note_on channel=9 note=36 velocity=127 time=196\n",
      "note_off channel=9 note=36 velocity=0 time=92\n",
      "note_off channel=9 note=46 velocity=1 time=4\n",
      "note_on channel=9 note=38 velocity=127 time=0\n",
      "note_off channel=9 note=38 velocity=0 time=92\n",
      "note_on channel=9 note=36 velocity=127 time=100\n",
      "note_off channel=9 note=36 velocity=0 time=92\n",
      "note_off channel=9 note=46 velocity=0 time=96\n",
      "note_on channel=9 note=36 velocity=127 time=4\n",
      "note_on channel=9 note=46 velocity=127 time=0\n",
      "note_off channel=9 note=36 velocity=0 time=92\n",
      "note_on channel=9 note=36 velocity=127 time=196\n",
      "note_off channel=9 note=36 velocity=0 time=92\n",
      "note_on channel=9 note=38 velocity=127 time=4\n",
      "note_off channel=9 note=38 velocity=0 time=92\n",
      "note_on channel=9 note=36 velocity=127 time=100\n",
      "note_on channel=9 note=46 velocity=113 time=0\n",
      "note_off channel=9 note=46 velocity=0 time=92\n",
      "note_off channel=9 note=36 velocity=0 time=0\n",
      "note_on channel=9 note=36 velocity=127 time=100\n",
      "note_on channel=9 note=46 velocity=127 time=0\n",
      "note_off channel=9 note=36 velocity=0 time=92\n",
      "note_on channel=9 note=36 velocity=127 time=196\n",
      "note_off channel=9 note=36 velocity=0 time=92\n",
      "note_off channel=9 note=46 velocity=1 time=4\n",
      "note_on channel=9 note=38 velocity=127 time=0\n",
      "note_off channel=9 note=38 velocity=0 time=92\n",
      "note_on channel=9 note=36 velocity=127 time=100\n",
      "note_off channel=9 note=36 velocity=0 time=92\n",
      "note_off channel=9 note=46 velocity=0 time=96\n",
      "note_on channel=9 note=36 velocity=127 time=4\n",
      "note_on channel=9 note=46 velocity=127 time=0\n",
      "note_off channel=9 note=36 velocity=0 time=92\n",
      "note_on channel=9 note=36 velocity=127 time=196\n",
      "note_off channel=9 note=36 velocity=0 time=92\n",
      "note_on channel=9 note=38 velocity=127 time=4\n",
      "note_off channel=9 note=38 velocity=0 time=92\n",
      "note_on channel=9 note=36 velocity=127 time=100\n",
      "note_on channel=9 note=46 velocity=115 time=0\n",
      "note_off channel=9 note=46 velocity=0 time=92\n",
      "note_off channel=9 note=36 velocity=0 time=0\n",
      "note_on channel=9 note=36 velocity=127 time=100\n",
      "note_on channel=9 note=46 velocity=127 time=0\n",
      "note_off channel=9 note=36 velocity=0 time=92\n",
      "note_on channel=9 note=36 velocity=127 time=196\n",
      "note_off channel=9 note=36 velocity=0 time=92\n",
      "note_off channel=9 note=46 velocity=1 time=4\n",
      "note_on channel=9 note=38 velocity=127 time=0\n",
      "note_off channel=9 note=38 velocity=0 time=92\n",
      "note_on channel=9 note=36 velocity=127 time=100\n",
      "note_off channel=9 note=36 velocity=0 time=92\n",
      "note_off channel=9 note=46 velocity=0 time=96\n",
      "note_on channel=9 note=36 velocity=127 time=4\n",
      "note_on channel=9 note=46 velocity=127 time=0\n",
      "note_on channel=9 note=57 velocity=127 time=28\n",
      "note_off channel=9 note=36 velocity=0 time=64\n",
      "note_off channel=9 note=57 velocity=0 time=186\n",
      "note_on channel=9 note=36 velocity=127 time=10\n",
      "note_off channel=9 note=36 velocity=0 time=92\n",
      "note_on channel=9 note=38 velocity=127 time=4\n",
      "note_off channel=9 note=38 velocity=0 time=92\n",
      "note_on channel=9 note=36 velocity=127 time=100\n",
      "note_on channel=9 note=46 velocity=108 time=0\n",
      "note_off channel=9 note=46 velocity=0 time=92\n",
      "note_off channel=9 note=36 velocity=0 time=0\n",
      "note_on channel=9 note=36 velocity=127 time=100\n",
      "note_on channel=9 note=46 velocity=127 time=0\n",
      "note_on channel=9 note=57 velocity=127 time=22\n",
      "note_off channel=9 note=36 velocity=0 time=70\n",
      "note_on channel=9 note=36 velocity=127 time=196\n",
      "note_off channel=9 note=57 velocity=0 time=40\n",
      "note_off channel=9 note=36 velocity=0 time=52\n",
      "note_off channel=9 note=46 velocity=1 time=4\n",
      "note_on channel=9 note=38 velocity=127 time=0\n",
      "note_off channel=9 note=38 velocity=0 time=92\n",
      "note_on channel=9 note=36 velocity=127 time=100\n",
      "note_off channel=9 note=36 velocity=0 time=92\n",
      "note_off channel=9 note=46 velocity=0 time=96\n",
      "note_on channel=9 note=36 velocity=127 time=4\n",
      "note_on channel=9 note=46 velocity=127 time=0\n",
      "note_on channel=9 note=57 velocity=127 time=0\n",
      "note_off channel=9 note=36 velocity=0 time=92\n",
      "note_on channel=9 note=36 velocity=127 time=196\n",
      "note_off channel=9 note=57 velocity=0 time=48\n",
      "note_off channel=9 note=36 velocity=0 time=44\n",
      "note_on channel=9 note=38 velocity=127 time=4\n",
      "note_off channel=9 note=38 velocity=0 time=92\n",
      "note_on channel=9 note=36 velocity=127 time=100\n",
      "note_on channel=9 note=46 velocity=115 time=0\n",
      "note_off channel=9 note=46 velocity=0 time=92\n",
      "note_off channel=9 note=36 velocity=0 time=0\n",
      "note_on channel=9 note=36 velocity=127 time=100\n",
      "note_on channel=9 note=46 velocity=127 time=0\n",
      "note_off channel=9 note=36 velocity=0 time=92\n",
      "note_on channel=9 note=36 velocity=127 time=196\n",
      "note_off channel=9 note=36 velocity=0 time=92\n",
      "note_off channel=9 note=46 velocity=1 time=4\n",
      "note_on channel=9 note=38 velocity=127 time=0\n",
      "note_off channel=9 note=38 velocity=0 time=92\n",
      "note_on channel=9 note=36 velocity=127 time=100\n",
      "note_off channel=9 note=36 velocity=0 time=92\n",
      "note_off channel=9 note=46 velocity=0 time=96\n",
      "note_on channel=9 note=36 velocity=127 time=4\n",
      "note_on channel=9 note=46 velocity=127 time=0\n",
      "note_off channel=9 note=36 velocity=0 time=92\n",
      "note_on channel=9 note=36 velocity=127 time=196\n",
      "note_off channel=9 note=36 velocity=0 time=92\n",
      "note_on channel=9 note=38 velocity=127 time=4\n",
      "note_off channel=9 note=38 velocity=0 time=92\n",
      "note_on channel=9 note=36 velocity=127 time=100\n",
      "note_on channel=9 note=46 velocity=105 time=0\n",
      "note_off channel=9 note=46 velocity=0 time=92\n",
      "note_off channel=9 note=36 velocity=0 time=0\n",
      "note_on channel=9 note=36 velocity=127 time=100\n",
      "note_on channel=9 note=46 velocity=127 time=0\n",
      "note_off channel=9 note=36 velocity=0 time=92\n",
      "note_on channel=9 note=36 velocity=127 time=196\n",
      "note_off channel=9 note=36 velocity=0 time=92\n",
      "note_off channel=9 note=46 velocity=1 time=4\n",
      "note_on channel=9 note=38 velocity=127 time=0\n",
      "note_off channel=9 note=38 velocity=0 time=92\n",
      "note_on channel=9 note=36 velocity=127 time=100\n",
      "note_off channel=9 note=36 velocity=0 time=92\n",
      "note_off channel=9 note=46 velocity=0 time=96\n",
      "note_on channel=9 note=36 velocity=127 time=4\n",
      "note_on channel=9 note=46 velocity=127 time=0\n",
      "note_off channel=9 note=36 velocity=0 time=92\n",
      "note_on channel=9 note=36 velocity=127 time=196\n",
      "note_off channel=9 note=36 velocity=0 time=92\n",
      "note_on channel=9 note=38 velocity=127 time=4\n",
      "note_off channel=9 note=38 velocity=0 time=92\n",
      "note_on channel=9 note=36 velocity=127 time=100\n",
      "note_on channel=9 note=46 velocity=102 time=0\n",
      "note_off channel=9 note=46 velocity=0 time=92\n",
      "note_off channel=9 note=36 velocity=0 time=0\n",
      "note_on channel=9 note=36 velocity=127 time=100\n",
      "note_on channel=9 note=46 velocity=127 time=0\n",
      "note_off channel=9 note=36 velocity=0 time=92\n",
      "note_on channel=9 note=36 velocity=127 time=196\n",
      "note_off channel=9 note=36 velocity=0 time=92\n",
      "note_off channel=9 note=46 velocity=1 time=4\n",
      "note_on channel=9 note=38 velocity=127 time=0\n",
      "note_off channel=9 note=38 velocity=0 time=92\n",
      "note_on channel=9 note=36 velocity=127 time=100\n",
      "note_off channel=9 note=36 velocity=0 time=92\n",
      "note_off channel=9 note=46 velocity=0 time=96\n",
      "note_on channel=9 note=36 velocity=127 time=4\n",
      "note_on channel=9 note=46 velocity=127 time=0\n",
      "note_off channel=9 note=36 velocity=0 time=92\n",
      "note_on channel=9 note=36 velocity=127 time=196\n",
      "note_off channel=9 note=36 velocity=0 time=92\n",
      "note_on channel=9 note=38 velocity=127 time=4\n",
      "note_off channel=9 note=38 velocity=0 time=92\n",
      "note_on channel=9 note=36 velocity=127 time=100\n",
      "note_on channel=9 note=46 velocity=105 time=0\n",
      "note_off channel=9 note=46 velocity=0 time=92\n",
      "note_off channel=9 note=36 velocity=0 time=0\n",
      "note_on channel=9 note=36 velocity=127 time=100\n",
      "note_on channel=9 note=46 velocity=127 time=0\n",
      "note_off channel=9 note=36 velocity=0 time=92\n",
      "note_on channel=9 note=36 velocity=127 time=196\n",
      "note_off channel=9 note=36 velocity=0 time=92\n",
      "note_off channel=9 note=46 velocity=1 time=4\n",
      "note_on channel=9 note=38 velocity=127 time=0\n",
      "note_off channel=9 note=38 velocity=0 time=92\n",
      "note_on channel=9 note=36 velocity=127 time=100\n",
      "note_off channel=9 note=36 velocity=0 time=92\n",
      "note_off channel=9 note=46 velocity=0 time=96\n",
      "note_on channel=9 note=36 velocity=127 time=4\n",
      "note_on channel=9 note=46 velocity=127 time=0\n",
      "note_on channel=9 note=57 velocity=127 time=0\n",
      "note_off channel=9 note=36 velocity=0 time=92\n",
      "note_off channel=9 note=57 velocity=0 time=32\n",
      "note_on channel=9 note=36 velocity=127 time=164\n",
      "note_off channel=9 note=36 velocity=0 time=92\n",
      "note_on channel=9 note=38 velocity=127 time=4\n",
      "note_off channel=9 note=38 velocity=0 time=92\n",
      "note_on channel=9 note=36 velocity=127 time=100\n",
      "note_on channel=9 note=46 velocity=95 time=0\n",
      "note_off channel=9 note=46 velocity=0 time=92\n",
      "note_off channel=9 note=36 velocity=0 time=0\n",
      "note_on channel=9 note=36 velocity=127 time=100\n",
      "note_on channel=9 note=46 velocity=127 time=0\n",
      "note_off channel=9 note=36 velocity=0 time=92\n",
      "note_on channel=9 note=36 velocity=127 time=196\n",
      "note_off channel=9 note=36 velocity=0 time=92\n",
      "note_off channel=9 note=46 velocity=1 time=4\n",
      "note_on channel=9 note=38 velocity=127 time=0\n",
      "note_off channel=9 note=38 velocity=0 time=92\n",
      "note_on channel=9 note=36 velocity=127 time=100\n",
      "note_off channel=9 note=36 velocity=0 time=92\n",
      "note_off channel=9 note=46 velocity=0 time=96\n",
      "note_on channel=9 note=36 velocity=127 time=4\n",
      "note_on channel=9 note=46 velocity=127 time=0\n",
      "note_off channel=9 note=36 velocity=0 time=92\n",
      "note_on channel=9 note=36 velocity=127 time=196\n",
      "note_off channel=9 note=36 velocity=0 time=92\n",
      "note_on channel=9 note=38 velocity=127 time=4\n",
      "note_off channel=9 note=38 velocity=0 time=92\n",
      "note_on channel=9 note=36 velocity=127 time=100\n",
      "note_on channel=9 note=46 velocity=113 time=0\n",
      "note_off channel=9 note=46 velocity=0 time=92\n",
      "note_off channel=9 note=36 velocity=0 time=0\n",
      "note_on channel=9 note=36 velocity=127 time=100\n",
      "note_on channel=9 note=46 velocity=127 time=0\n",
      "note_off channel=9 note=36 velocity=0 time=92\n",
      "note_on channel=9 note=36 velocity=127 time=196\n",
      "note_off channel=9 note=36 velocity=0 time=92\n",
      "note_off channel=9 note=46 velocity=1 time=4\n",
      "note_on channel=9 note=38 velocity=127 time=0\n",
      "note_off channel=9 note=38 velocity=0 time=92\n",
      "note_on channel=9 note=36 velocity=127 time=100\n",
      "note_off channel=9 note=36 velocity=0 time=92\n",
      "note_off channel=9 note=46 velocity=0 time=96\n",
      "note_on channel=9 note=36 velocity=127 time=4\n",
      "note_on channel=9 note=46 velocity=127 time=0\n",
      "note_off channel=9 note=36 velocity=0 time=92\n",
      "note_on channel=9 note=36 velocity=127 time=196\n",
      "note_off channel=9 note=36 velocity=0 time=92\n",
      "note_on channel=9 note=38 velocity=127 time=4\n",
      "note_off channel=9 note=38 velocity=0 time=92\n",
      "note_on channel=9 note=36 velocity=127 time=100\n",
      "note_on channel=9 note=46 velocity=115 time=0\n",
      "note_off channel=9 note=46 velocity=0 time=92\n",
      "note_off channel=9 note=36 velocity=0 time=0\n",
      "note_on channel=9 note=36 velocity=127 time=100\n",
      "note_on channel=9 note=46 velocity=127 time=0\n",
      "note_off channel=9 note=36 velocity=0 time=92\n",
      "note_on channel=9 note=36 velocity=127 time=196\n",
      "note_off channel=9 note=36 velocity=0 time=92\n",
      "note_off channel=9 note=46 velocity=1 time=4\n",
      "note_on channel=9 note=38 velocity=127 time=0\n",
      "note_off channel=9 note=38 velocity=0 time=92\n",
      "note_on channel=9 note=36 velocity=127 time=100\n",
      "note_off channel=9 note=36 velocity=0 time=92\n",
      "note_off channel=9 note=46 velocity=0 time=96\n",
      "note_on channel=9 note=36 velocity=127 time=4\n",
      "note_on channel=9 note=46 velocity=127 time=0\n",
      "note_on channel=9 note=57 velocity=127 time=28\n",
      "note_off channel=9 note=36 velocity=0 time=64\n",
      "note_off channel=9 note=57 velocity=0 time=186\n",
      "note_on channel=9 note=36 velocity=127 time=10\n",
      "note_off channel=9 note=36 velocity=0 time=92\n",
      "note_on channel=9 note=38 velocity=127 time=4\n",
      "note_off channel=9 note=38 velocity=0 time=92\n",
      "note_on channel=9 note=36 velocity=127 time=100\n",
      "note_on channel=9 note=46 velocity=108 time=0\n",
      "note_off channel=9 note=46 velocity=0 time=92\n",
      "note_off channel=9 note=36 velocity=0 time=0\n",
      "note_on channel=9 note=36 velocity=127 time=100\n",
      "note_on channel=9 note=46 velocity=127 time=0\n",
      "note_on channel=9 note=57 velocity=127 time=22\n",
      "note_off channel=9 note=36 velocity=0 time=70\n",
      "note_on channel=9 note=36 velocity=127 time=196\n",
      "note_off channel=9 note=57 velocity=0 time=40\n",
      "note_off channel=9 note=36 velocity=0 time=52\n",
      "note_off channel=9 note=46 velocity=1 time=4\n",
      "note_on channel=9 note=38 velocity=127 time=0\n",
      "note_off channel=9 note=38 velocity=0 time=92\n",
      "note_on channel=9 note=36 velocity=127 time=100\n",
      "note_off channel=9 note=36 velocity=0 time=92\n",
      "note_off channel=9 note=46 velocity=0 time=96\n",
      "note_on channel=9 note=36 velocity=127 time=4\n",
      "note_on channel=9 note=46 velocity=127 time=0\n",
      "note_on channel=9 note=57 velocity=127 time=0\n",
      "note_off channel=9 note=36 velocity=0 time=92\n",
      "note_on channel=9 note=36 velocity=127 time=196\n",
      "note_off channel=9 note=57 velocity=0 time=48\n",
      "note_off channel=9 note=36 velocity=0 time=44\n",
      "note_on channel=9 note=38 velocity=127 time=4\n",
      "note_off channel=9 note=38 velocity=0 time=92\n",
      "note_on channel=9 note=36 velocity=127 time=100\n",
      "note_on channel=9 note=46 velocity=115 time=0\n",
      "note_off channel=9 note=46 velocity=0 time=92\n",
      "note_off channel=9 note=36 velocity=0 time=0\n",
      "note_on channel=9 note=36 velocity=127 time=100\n",
      "note_on channel=9 note=46 velocity=127 time=0\n",
      "note_off channel=9 note=36 velocity=0 time=92\n",
      "note_on channel=9 note=36 velocity=127 time=196\n",
      "note_off channel=9 note=36 velocity=0 time=92\n",
      "note_off channel=9 note=46 velocity=1 time=4\n",
      "note_on channel=9 note=38 velocity=127 time=0\n",
      "note_off channel=9 note=38 velocity=0 time=92\n",
      "note_on channel=9 note=36 velocity=127 time=100\n",
      "note_off channel=9 note=36 velocity=0 time=92\n",
      "note_off channel=9 note=46 velocity=0 time=96\n",
      "note_on channel=9 note=36 velocity=127 time=4\n",
      "note_on channel=9 note=46 velocity=127 time=0\n",
      "note_off channel=9 note=36 velocity=0 time=92\n",
      "note_on channel=9 note=36 velocity=127 time=196\n",
      "note_off channel=9 note=36 velocity=0 time=92\n",
      "note_on channel=9 note=38 velocity=127 time=4\n",
      "note_off channel=9 note=38 velocity=0 time=92\n",
      "note_on channel=9 note=36 velocity=127 time=100\n",
      "note_on channel=9 note=46 velocity=105 time=0\n",
      "note_off channel=9 note=46 velocity=0 time=92\n",
      "note_off channel=9 note=36 velocity=0 time=0\n",
      "note_on channel=9 note=36 velocity=127 time=100\n",
      "note_on channel=9 note=46 velocity=127 time=0\n",
      "note_off channel=9 note=36 velocity=0 time=92\n",
      "note_on channel=9 note=36 velocity=127 time=196\n",
      "note_off channel=9 note=36 velocity=0 time=92\n",
      "note_off channel=9 note=46 velocity=1 time=4\n",
      "note_on channel=9 note=38 velocity=127 time=0\n",
      "note_off channel=9 note=38 velocity=0 time=92\n",
      "note_on channel=9 note=36 velocity=127 time=100\n",
      "note_off channel=9 note=36 velocity=0 time=92\n",
      "note_off channel=9 note=46 velocity=0 time=96\n",
      "note_on channel=9 note=36 velocity=127 time=4\n",
      "note_on channel=9 note=46 velocity=127 time=0\n",
      "note_off channel=9 note=36 velocity=0 time=92\n",
      "note_on channel=9 note=36 velocity=127 time=196\n",
      "note_off channel=9 note=36 velocity=0 time=92\n",
      "note_on channel=9 note=38 velocity=127 time=4\n",
      "note_off channel=9 note=38 velocity=0 time=92\n",
      "note_on channel=9 note=36 velocity=127 time=100\n",
      "note_on channel=9 note=46 velocity=102 time=0\n",
      "note_off channel=9 note=46 velocity=0 time=92\n",
      "note_off channel=9 note=36 velocity=0 time=0\n",
      "note_on channel=9 note=36 velocity=127 time=100\n",
      "note_on channel=9 note=46 velocity=127 time=0\n",
      "note_off channel=9 note=36 velocity=0 time=92\n",
      "note_on channel=9 note=36 velocity=127 time=196\n",
      "note_off channel=9 note=36 velocity=0 time=92\n",
      "note_off channel=9 note=46 velocity=1 time=4\n",
      "note_on channel=9 note=38 velocity=127 time=0\n",
      "note_off channel=9 note=38 velocity=0 time=92\n",
      "note_on channel=9 note=36 velocity=127 time=100\n",
      "note_off channel=9 note=36 velocity=0 time=92\n",
      "note_off channel=9 note=46 velocity=0 time=96\n",
      "note_on channel=9 note=36 velocity=127 time=4\n",
      "note_on channel=9 note=46 velocity=127 time=0\n",
      "note_off channel=9 note=36 velocity=0 time=92\n",
      "note_on channel=9 note=36 velocity=127 time=196\n",
      "note_off channel=9 note=36 velocity=0 time=92\n",
      "note_on channel=9 note=38 velocity=127 time=4\n",
      "note_off channel=9 note=38 velocity=0 time=92\n",
      "note_on channel=9 note=36 velocity=127 time=100\n",
      "note_on channel=9 note=46 velocity=105 time=0\n",
      "note_off channel=9 note=46 velocity=0 time=92\n",
      "note_off channel=9 note=36 velocity=0 time=0\n",
      "note_on channel=9 note=36 velocity=127 time=100\n",
      "note_on channel=9 note=46 velocity=127 time=0\n",
      "note_off channel=9 note=36 velocity=0 time=92\n",
      "note_on channel=9 note=36 velocity=127 time=196\n",
      "note_off channel=9 note=36 velocity=0 time=92\n",
      "note_off channel=9 note=46 velocity=1 time=4\n",
      "note_on channel=9 note=38 velocity=127 time=0\n",
      "note_off channel=9 note=38 velocity=0 time=92\n",
      "note_on channel=9 note=36 velocity=127 time=100\n",
      "note_off channel=9 note=36 velocity=0 time=92\n",
      "note_off channel=9 note=46 velocity=0 time=96\n",
      "note_on channel=9 note=36 velocity=127 time=4\n",
      "note_on channel=9 note=46 velocity=127 time=0\n",
      "note_on channel=9 note=49 velocity=127 time=0\n",
      "note_off channel=9 note=46 velocity=0 time=92\n",
      "note_off channel=9 note=49 velocity=0 time=196\n",
      "note_off channel=9 note=36 velocity=0 time=0\n",
      "note_on channel=9 note=46 velocity=127 time=0\n",
      "note_off channel=9 note=46 velocity=0 time=92\n",
      "note_on channel=9 note=46 velocity=127 time=4\n",
      "note_off channel=9 note=46 velocity=0 time=92\n",
      "note_on channel=9 note=46 velocity=127 time=196\n",
      "note_off channel=9 note=46 velocity=0 time=92\n",
      "note_on channel=9 note=46 velocity=127 time=4\n",
      "note_off channel=9 note=46 velocity=0 time=92\n",
      "note_on channel=9 note=46 velocity=127 time=196\n",
      "note_off channel=9 note=46 velocity=0 time=92\n",
      "note_on channel=9 note=46 velocity=127 time=4\n",
      "note_off channel=9 note=46 velocity=0 time=92\n",
      "note_on channel=9 note=36 velocity=127 time=100\n",
      "note_on channel=9 note=49 velocity=127 time=0\n",
      "note_off channel=9 note=49 velocity=0 time=96\n",
      "note_off channel=9 note=36 velocity=0 time=0\n",
      "note_on channel=9 note=36 velocity=127 time=96\n",
      "note_on channel=9 note=46 velocity=127 time=0\n",
      "note_on channel=9 note=49 velocity=127 time=0\n",
      "note_off channel=9 note=46 velocity=0 time=92\n",
      "note_off channel=9 note=49 velocity=0 time=196\n",
      "note_off channel=9 note=36 velocity=0 time=0\n",
      "note_on channel=9 note=46 velocity=127 time=0\n",
      "note_off channel=9 note=46 velocity=0 time=92\n",
      "note_on channel=9 note=46 velocity=127 time=4\n",
      "note_off channel=9 note=46 velocity=0 time=92\n",
      "note_on channel=9 note=46 velocity=127 time=196\n",
      "note_off channel=9 note=46 velocity=0 time=92\n",
      "note_on channel=9 note=46 velocity=127 time=4\n",
      "note_off channel=9 note=46 velocity=0 time=92\n",
      "note_on channel=9 note=46 velocity=127 time=196\n",
      "note_off channel=9 note=46 velocity=0 time=92\n",
      "note_on channel=9 note=46 velocity=127 time=4\n",
      "note_off channel=9 note=46 velocity=0 time=92\n",
      "note_on channel=9 note=36 velocity=127 time=292\n",
      "note_on channel=9 note=46 velocity=127 time=0\n",
      "note_on channel=9 note=49 velocity=127 time=0\n",
      "note_off channel=9 note=46 velocity=0 time=92\n",
      "note_off channel=9 note=49 velocity=0 time=196\n",
      "note_off channel=9 note=36 velocity=0 time=0\n",
      "note_on channel=9 note=46 velocity=127 time=0\n",
      "note_off channel=9 note=46 velocity=0 time=92\n",
      "note_on channel=9 note=46 velocity=127 time=4\n",
      "note_off channel=9 note=46 velocity=0 time=92\n",
      "note_on channel=9 note=46 velocity=127 time=196\n",
      "note_off channel=9 note=46 velocity=0 time=92\n",
      "note_on channel=9 note=46 velocity=127 time=4\n",
      "note_off channel=9 note=46 velocity=0 time=92\n",
      "note_on channel=9 note=46 velocity=127 time=196\n",
      "note_off channel=9 note=46 velocity=0 time=92\n",
      "note_on channel=9 note=46 velocity=127 time=4\n",
      "note_off channel=9 note=46 velocity=0 time=92\n",
      "note_on channel=9 note=36 velocity=127 time=100\n",
      "note_on channel=9 note=49 velocity=127 time=0\n",
      "note_off channel=9 note=49 velocity=0 time=96\n",
      "note_off channel=9 note=36 velocity=0 time=0\n",
      "note_on channel=9 note=36 velocity=127 time=96\n",
      "note_on channel=9 note=46 velocity=127 time=0\n",
      "note_on channel=9 note=49 velocity=127 time=0\n",
      "note_off channel=9 note=46 velocity=0 time=92\n",
      "note_off channel=9 note=49 velocity=0 time=100\n",
      "note_off channel=9 note=36 velocity=0 time=0\n",
      "note_on channel=9 note=46 velocity=127 time=96\n",
      "note_off channel=9 note=46 velocity=0 time=92\n",
      "note_on channel=9 note=46 velocity=127 time=4\n",
      "note_off channel=9 note=46 velocity=0 time=92\n",
      "note_on channel=9 note=46 velocity=127 time=196\n",
      "note_off channel=9 note=46 velocity=0 time=92\n",
      "note_on channel=9 note=46 velocity=127 time=4\n",
      "note_off channel=9 note=46 velocity=0 time=92\n",
      "note_on channel=9 note=46 velocity=127 time=196\n",
      "note_off channel=9 note=46 velocity=0 time=92\n",
      "note_on channel=9 note=46 velocity=127 time=4\n",
      "note_off channel=9 note=46 velocity=0 time=92\n",
      "note_on channel=9 note=36 velocity=127 time=100\n",
      "note_off channel=9 note=36 velocity=0 time=96\n",
      "note_on channel=9 note=36 velocity=127 time=96\n",
      "note_on channel=9 note=46 velocity=127 time=0\n",
      "note_on channel=9 note=49 velocity=127 time=0\n",
      "note_off channel=9 note=46 velocity=0 time=92\n",
      "note_off channel=9 note=49 velocity=0 time=196\n",
      "note_off channel=9 note=36 velocity=0 time=0\n",
      "note_on channel=9 note=46 velocity=127 time=0\n",
      "note_off channel=9 note=46 velocity=0 time=92\n",
      "note_on channel=9 note=38 velocity=127 time=4\n",
      "note_on channel=9 note=46 velocity=127 time=0\n",
      "note_off channel=9 note=46 velocity=0 time=92\n",
      "note_on channel=9 note=46 velocity=127 time=196\n",
      "note_off channel=9 note=46 velocity=0 time=92\n",
      "note_off channel=9 note=38 velocity=0 time=0\n",
      "note_on channel=9 note=46 velocity=127 time=4\n",
      "note_off channel=9 note=46 velocity=0 time=92\n",
      "note_on channel=9 note=46 velocity=127 time=196\n",
      "note_off channel=9 note=46 velocity=0 time=92\n",
      "note_on channel=9 note=38 velocity=127 time=4\n",
      "note_on channel=9 note=46 velocity=127 time=0\n",
      "note_off channel=9 note=46 velocity=0 time=92\n",
      "note_on channel=9 note=36 velocity=127 time=100\n",
      "note_on channel=9 note=49 velocity=127 time=0\n",
      "note_off channel=9 note=49 velocity=0 time=96\n",
      "note_off channel=9 note=36 velocity=0 time=0\n",
      "note_off channel=9 note=38 velocity=0 time=92\n",
      "note_on channel=9 note=36 velocity=127 time=4\n",
      "note_on channel=9 note=46 velocity=127 time=0\n",
      "note_on channel=9 note=49 velocity=127 time=0\n",
      "note_off channel=9 note=46 velocity=0 time=92\n",
      "note_off channel=9 note=49 velocity=0 time=196\n",
      "note_off channel=9 note=36 velocity=0 time=0\n",
      "note_on channel=9 note=46 velocity=127 time=0\n",
      "note_off channel=9 note=46 velocity=0 time=92\n",
      "note_on channel=9 note=38 velocity=127 time=4\n",
      "note_on channel=9 note=46 velocity=127 time=0\n",
      "note_off channel=9 note=46 velocity=0 time=92\n",
      "note_on channel=9 note=46 velocity=127 time=196\n",
      "note_off channel=9 note=46 velocity=0 time=92\n",
      "note_off channel=9 note=38 velocity=0 time=0\n",
      "note_on channel=9 note=46 velocity=127 time=4\n",
      "note_off channel=9 note=46 velocity=0 time=92\n",
      "note_on channel=9 note=46 velocity=127 time=196\n",
      "note_off channel=9 note=46 velocity=0 time=92\n",
      "note_on channel=9 note=38 velocity=127 time=4\n",
      "note_on channel=9 note=46 velocity=127 time=0\n",
      "note_off channel=9 note=46 velocity=0 time=92\n",
      "note_off channel=9 note=38 velocity=0 time=288\n",
      "note_on channel=9 note=36 velocity=127 time=4\n",
      "note_on channel=9 note=46 velocity=127 time=0\n",
      "note_on channel=9 note=49 velocity=127 time=0\n",
      "note_off channel=9 note=46 velocity=0 time=92\n",
      "note_off channel=9 note=49 velocity=0 time=196\n",
      "note_off channel=9 note=36 velocity=0 time=0\n",
      "note_on channel=9 note=46 velocity=127 time=0\n",
      "note_off channel=9 note=46 velocity=0 time=92\n",
      "note_on channel=9 note=38 velocity=127 time=4\n",
      "note_on channel=9 note=46 velocity=127 time=0\n",
      "note_off channel=9 note=46 velocity=0 time=92\n",
      "note_on channel=9 note=46 velocity=127 time=196\n",
      "note_off channel=9 note=46 velocity=0 time=92\n",
      "note_off channel=9 note=38 velocity=0 time=0\n",
      "note_on channel=9 note=46 velocity=127 time=4\n",
      "note_off channel=9 note=46 velocity=0 time=92\n",
      "note_on channel=9 note=46 velocity=127 time=196\n",
      "note_off channel=9 note=46 velocity=0 time=92\n",
      "note_on channel=9 note=38 velocity=127 time=4\n",
      "note_on channel=9 note=46 velocity=127 time=0\n",
      "note_off channel=9 note=46 velocity=0 time=92\n",
      "note_on channel=9 note=36 velocity=127 time=100\n",
      "note_on channel=9 note=49 velocity=127 time=0\n",
      "note_off channel=9 note=49 velocity=0 time=96\n",
      "note_off channel=9 note=36 velocity=0 time=0\n",
      "note_off channel=9 note=38 velocity=0 time=92\n",
      "note_on channel=9 note=36 velocity=127 time=4\n",
      "note_on channel=9 note=46 velocity=127 time=0\n",
      "note_on channel=9 note=49 velocity=127 time=0\n",
      "note_off channel=9 note=46 velocity=0 time=96\n",
      "note_off channel=9 note=49 velocity=0 time=96\n",
      "note_off channel=9 note=36 velocity=0 time=0\n",
      "note_on channel=9 note=46 velocity=127 time=96\n",
      "note_off channel=9 note=46 velocity=0 time=96\n",
      "note_on channel=9 note=38 velocity=127 time=0\n",
      "note_on channel=9 note=46 velocity=127 time=0\n",
      "note_off channel=9 note=46 velocity=0 time=96\n",
      "note_on channel=9 note=46 velocity=127 time=192\n",
      "note_off channel=9 note=38 velocity=0 time=92\n",
      "note_off channel=9 note=46 velocity=0 time=4\n",
      "note_on channel=9 note=46 velocity=127 time=0\n",
      "note_off channel=9 note=46 velocity=0 time=96\n",
      "note_on channel=9 note=46 velocity=127 time=192\n",
      "note_off channel=9 note=46 velocity=0 time=96\n",
      "note_on channel=9 note=38 velocity=127 time=0\n",
      "note_on channel=9 note=46 velocity=127 time=0\n",
      "note_off channel=9 note=46 velocity=0 time=96\n",
      "note_on channel=9 note=36 velocity=127 time=96\n",
      "note_off channel=9 note=36 velocity=0 time=96\n",
      "note_off channel=9 note=38 velocity=0 time=92\n",
      "note_on channel=9 note=36 velocity=127 time=4\n",
      "note_on channel=9 note=46 velocity=127 time=0\n",
      "note_on channel=9 note=57 velocity=127 time=0\n",
      "note_on channel=9 note=46 velocity=127 time=384\n",
      "note_off channel=9 note=46 velocity=0 time=96\n",
      "note_off channel=9 note=36 velocity=0 time=0\n",
      "note_off channel=9 note=57 velocity=0 time=96\n",
      "note_on channel=9 note=38 velocity=127 time=0\n",
      "note_on channel=9 note=46 velocity=127 time=0\n",
      "note_off channel=9 note=38 velocity=0 time=92\n",
      "note_off channel=9 note=46 velocity=0 time=4\n",
      "note_on channel=9 note=38 velocity=127 time=0\n",
      "note_on channel=9 note=46 velocity=127 time=0\n",
      "note_off channel=9 note=46 velocity=0 time=92\n",
      "note_off channel=9 note=38 velocity=0 time=0\n",
      "note_off channel=9 note=46 velocity=1 time=4\n",
      "note_on channel=9 note=36 velocity=127 time=0\n",
      "note_on channel=9 note=46 velocity=127 time=0\n",
      "note_on channel=9 note=57 velocity=127 time=0\n",
      "note_on channel=9 note=46 velocity=127 time=384\n",
      "note_off channel=9 note=46 velocity=0 time=96\n",
      "note_off channel=9 note=36 velocity=0 time=0\n",
      "note_off channel=9 note=57 velocity=0 time=96\n",
      "note_on channel=9 note=38 velocity=127 time=0\n",
      "note_on channel=9 note=46 velocity=127 time=0\n",
      "note_off channel=9 note=38 velocity=0 time=92\n",
      "note_off channel=9 note=46 velocity=0 time=4\n",
      "note_on channel=9 note=38 velocity=127 time=0\n",
      "note_on channel=9 note=46 velocity=127 time=0\n",
      "note_off channel=9 note=46 velocity=0 time=92\n",
      "note_off channel=9 note=38 velocity=0 time=0\n",
      "note_off channel=9 note=46 velocity=1 time=4\n",
      "note_on channel=9 note=36 velocity=127 time=0\n",
      "note_on channel=9 note=46 velocity=127 time=0\n",
      "note_on channel=9 note=57 velocity=127 time=0\n",
      "note_off channel=9 note=57 velocity=0 time=96\n",
      "note_off channel=9 note=46 velocity=0 time=0\n",
      "note_off channel=9 note=36 velocity=0 time=0\n",
      "note_on channel=9 note=36 velocity=127 time=96\n",
      "note_on channel=9 note=46 velocity=127 time=0\n",
      "note_on channel=9 note=57 velocity=127 time=0\n",
      "note_off channel=9 note=57 velocity=0 time=96\n",
      "note_off channel=9 note=46 velocity=0 time=0\n",
      "note_off channel=9 note=36 velocity=0 time=0\n",
      "note_on channel=9 note=36 velocity=127 time=96\n",
      "note_on channel=9 note=46 velocity=127 time=0\n",
      "note_on channel=9 note=46 velocity=127 time=0\n",
      "note_on channel=9 note=57 velocity=127 time=0\n",
      "note_off channel=9 note=46 velocity=1 time=1\n",
      "note_off channel=9 note=57 velocity=0 time=95\n",
      "note_off channel=9 note=46 velocity=0 time=0\n",
      "note_off channel=9 note=36 velocity=0 time=0\n",
      "note_on channel=9 note=36 velocity=127 time=96\n",
      "note_on channel=9 note=46 velocity=127 time=0\n",
      "note_on channel=9 note=57 velocity=127 time=0\n",
      "note_off channel=9 note=57 velocity=0 time=96\n",
      "note_off channel=9 note=46 velocity=0 time=0\n",
      "note_off channel=9 note=36 velocity=0 time=0\n",
      "note_on channel=9 note=36 velocity=127 time=96\n",
      "note_on channel=9 note=46 velocity=127 time=0\n",
      "note_on channel=9 note=57 velocity=127 time=0\n",
      "note_off channel=9 note=46 velocity=0 time=192\n",
      "note_off channel=9 note=57 velocity=0 time=96\n",
      "note_off channel=9 note=36 velocity=0 time=0\n",
      "note_on channel=9 note=36 velocity=127 time=96\n",
      "note_on channel=9 note=46 velocity=127 time=0\n",
      "note_on channel=9 note=46 velocity=127 time=0\n",
      "note_on channel=9 note=57 velocity=127 time=0\n",
      "note_off channel=9 note=46 velocity=1 time=1\n",
      "note_off channel=9 note=36 velocity=0 time=191\n",
      "note_off channel=9 note=57 velocity=0 time=96\n",
      "note_off channel=9 note=46 velocity=0 time=0\n",
      "note_on channel=9 note=36 velocity=127 time=96\n",
      "note_on channel=9 note=46 velocity=127 time=0\n",
      "note_on channel=9 note=57 velocity=127 time=0\n",
      "note_on channel=9 note=46 velocity=127 time=384\n",
      "note_off channel=9 note=46 velocity=0 time=380\n",
      "note_off channel=9 note=46 velocity=1 time=4\n",
      "note_on channel=9 note=46 velocity=127 time=384\n",
      "note_off channel=9 note=36 velocity=0 time=96\n",
      "note_off channel=9 note=57 velocity=0 time=192\n",
      "note_on channel=9 note=35 velocity=127 time=0\n",
      "note_off channel=9 note=35 velocity=0 time=92\n",
      "note_off channel=9 note=46 velocity=0 time=0\n",
      "note_on channel=9 note=36 velocity=127 time=4\n",
      "note_on channel=9 note=48 velocity=127 time=0\n",
      "note_on channel=9 note=57 velocity=127 time=0\n",
      "note_off channel=9 note=48 velocity=0 time=92\n",
      "note_on channel=9 note=48 velocity=127 time=4\n",
      "note_off channel=9 note=48 velocity=0 time=92\n",
      "note_on channel=9 note=35 velocity=127 time=100\n",
      "note_off channel=9 note=35 velocity=0 time=92\n",
      "note_on channel=9 note=47 velocity=127 time=4\n",
      "note_off channel=9 note=47 velocity=0 time=92\n",
      "note_on channel=9 note=47 velocity=127 time=4\n",
      "note_off channel=9 note=47 velocity=0 time=92\n",
      "note_on channel=9 note=35 velocity=127 time=100\n",
      "note_off channel=9 note=35 velocity=0 time=92\n",
      "note_on channel=9 note=45 velocity=127 time=4\n",
      "note_off channel=9 note=45 velocity=0 time=92\n",
      "note_on channel=9 note=45 velocity=127 time=4\n",
      "note_off channel=9 note=45 velocity=0 time=92\n",
      "note_off channel=9 note=36 velocity=0 time=100\n",
      "note_on channel=9 note=35 velocity=127 time=0\n",
      "note_off channel=9 note=35 velocity=0 time=92\n",
      "note_on channel=9 note=46 velocity=127 time=4\n",
      "note_on channel=9 note=38 velocity=127 time=0\n",
      "note_off channel=9 note=38 velocity=0 time=92\n",
      "note_off channel=9 note=46 velocity=0 time=0\n",
      "note_off channel=9 note=57 velocity=0 time=100\n",
      "note_on channel=9 note=36 velocity=127 time=192\n",
      "note_on channel=9 note=46 velocity=127 time=0\n",
      "note_on channel=9 note=57 velocity=125 time=8\n",
      "note_off channel=9 note=36 velocity=0 time=84\n",
      "note_on channel=9 note=36 velocity=127 time=196\n",
      "note_off channel=9 note=36 velocity=0 time=92\n",
      "note_on channel=9 note=38 velocity=127 time=4\n",
      "note_off channel=9 note=38 velocity=0 time=92\n",
      "note_on channel=9 note=36 velocity=127 time=100\n",
      "note_on channel=9 note=46 velocity=102 time=0\n",
      "note_off channel=9 note=46 velocity=0 time=92\n",
      "note_off channel=9 note=36 velocity=0 time=0\n",
      "note_on channel=9 note=36 velocity=127 time=100\n",
      "note_on channel=9 note=46 velocity=127 time=0\n",
      "note_off channel=9 note=57 velocity=0 time=6\n",
      "note_off channel=9 note=36 velocity=0 time=86\n",
      "note_on channel=9 note=36 velocity=127 time=196\n",
      "note_off channel=9 note=36 velocity=0 time=92\n",
      "note_off channel=9 note=46 velocity=1 time=4\n",
      "note_on channel=9 note=38 velocity=127 time=0\n",
      "note_off channel=9 note=38 velocity=0 time=92\n",
      "note_on channel=9 note=36 velocity=127 time=100\n",
      "note_off channel=9 note=36 velocity=0 time=92\n",
      "note_off channel=9 note=46 velocity=0 time=96\n",
      "note_on channel=9 note=36 velocity=127 time=4\n",
      "note_on channel=9 note=46 velocity=127 time=0\n",
      "note_off channel=9 note=36 velocity=0 time=92\n",
      "note_on channel=9 note=36 velocity=127 time=196\n",
      "note_off channel=9 note=36 velocity=0 time=92\n",
      "note_on channel=9 note=38 velocity=127 time=4\n",
      "note_off channel=9 note=38 velocity=0 time=92\n",
      "note_on channel=9 note=36 velocity=127 time=100\n",
      "note_on channel=9 note=46 velocity=102 time=0\n",
      "note_off channel=9 note=46 velocity=0 time=92\n",
      "note_off channel=9 note=36 velocity=0 time=0\n",
      "note_on channel=9 note=36 velocity=127 time=100\n",
      "note_on channel=9 note=46 velocity=127 time=0\n",
      "note_off channel=9 note=36 velocity=0 time=92\n",
      "note_on channel=9 note=36 velocity=127 time=196\n",
      "note_off channel=9 note=36 velocity=0 time=92\n",
      "note_off channel=9 note=46 velocity=1 time=4\n",
      "note_on channel=9 note=38 velocity=127 time=0\n",
      "note_off channel=9 note=38 velocity=0 time=92\n",
      "note_on channel=9 note=36 velocity=127 time=100\n",
      "note_off channel=9 note=36 velocity=0 time=92\n",
      "note_off channel=9 note=46 velocity=0 time=96\n",
      "note_on channel=9 note=36 velocity=127 time=4\n",
      "note_on channel=9 note=46 velocity=127 time=0\n",
      "note_off channel=9 note=36 velocity=0 time=92\n",
      "note_on channel=9 note=36 velocity=127 time=196\n",
      "note_off channel=9 note=36 velocity=0 time=92\n",
      "note_on channel=9 note=38 velocity=127 time=4\n",
      "note_off channel=9 note=38 velocity=0 time=92\n",
      "note_on channel=9 note=36 velocity=127 time=100\n",
      "note_on channel=9 note=46 velocity=102 time=0\n",
      "note_off channel=9 note=46 velocity=0 time=92\n",
      "note_off channel=9 note=36 velocity=0 time=0\n",
      "note_on channel=9 note=36 velocity=127 time=100\n",
      "note_on channel=9 note=46 velocity=127 time=0\n",
      "note_off channel=9 note=36 velocity=0 time=92\n",
      "note_on channel=9 note=36 velocity=127 time=196\n",
      "note_off channel=9 note=36 velocity=0 time=92\n",
      "note_off channel=9 note=46 velocity=1 time=4\n",
      "note_on channel=9 note=38 velocity=127 time=0\n",
      "note_off channel=9 note=38 velocity=0 time=92\n",
      "note_on channel=9 note=36 velocity=127 time=100\n",
      "note_off channel=9 note=36 velocity=0 time=92\n",
      "note_off channel=9 note=46 velocity=0 time=96\n",
      "note_on channel=9 note=36 velocity=127 time=4\n",
      "note_on channel=9 note=46 velocity=127 time=0\n",
      "note_off channel=9 note=36 velocity=0 time=92\n",
      "note_on channel=9 note=36 velocity=127 time=196\n",
      "note_off channel=9 note=36 velocity=0 time=92\n",
      "note_on channel=9 note=38 velocity=127 time=4\n",
      "note_off channel=9 note=38 velocity=0 time=92\n",
      "note_on channel=9 note=36 velocity=127 time=100\n",
      "note_on channel=9 note=46 velocity=102 time=0\n",
      "note_off channel=9 note=46 velocity=0 time=92\n",
      "note_off channel=9 note=36 velocity=0 time=0\n",
      "note_on channel=9 note=36 velocity=127 time=100\n",
      "note_on channel=9 note=46 velocity=127 time=0\n",
      "note_off channel=9 note=36 velocity=0 time=92\n",
      "note_on channel=9 note=36 velocity=127 time=196\n",
      "note_off channel=9 note=36 velocity=0 time=92\n",
      "note_off channel=9 note=46 velocity=1 time=4\n",
      "note_on channel=9 note=38 velocity=127 time=0\n",
      "note_off channel=9 note=38 velocity=0 time=92\n",
      "note_on channel=9 note=36 velocity=127 time=100\n",
      "note_off channel=9 note=36 velocity=0 time=92\n",
      "note_off channel=9 note=46 velocity=0 time=96\n",
      "note_on channel=9 note=36 velocity=127 time=4\n",
      "note_on channel=9 note=46 velocity=127 time=0\n",
      "note_off channel=9 note=36 velocity=0 time=92\n",
      "note_on channel=9 note=36 velocity=127 time=196\n",
      "note_off channel=9 note=36 velocity=0 time=92\n",
      "note_on channel=9 note=38 velocity=127 time=4\n",
      "note_off channel=9 note=38 velocity=0 time=92\n",
      "note_on channel=9 note=36 velocity=127 time=100\n",
      "note_on channel=9 note=46 velocity=102 time=0\n",
      "note_off channel=9 note=46 velocity=0 time=92\n",
      "note_off channel=9 note=36 velocity=0 time=0\n",
      "note_on channel=9 note=36 velocity=127 time=100\n",
      "note_on channel=9 note=46 velocity=127 time=0\n",
      "note_off channel=9 note=36 velocity=0 time=92\n",
      "note_on channel=9 note=36 velocity=127 time=196\n",
      "note_off channel=9 note=36 velocity=0 time=92\n",
      "note_off channel=9 note=46 velocity=1 time=4\n",
      "note_on channel=9 note=38 velocity=127 time=0\n",
      "note_off channel=9 note=38 velocity=0 time=92\n",
      "note_on channel=9 note=36 velocity=127 time=100\n",
      "note_off channel=9 note=36 velocity=0 time=92\n",
      "note_off channel=9 note=46 velocity=0 time=96\n",
      "note_on channel=9 note=36 velocity=127 time=4\n",
      "note_on channel=9 note=46 velocity=127 time=0\n",
      "note_off channel=9 note=36 velocity=0 time=92\n",
      "note_on channel=9 note=36 velocity=127 time=196\n",
      "note_off channel=9 note=36 velocity=0 time=92\n",
      "note_on channel=9 note=38 velocity=127 time=4\n",
      "note_off channel=9 note=38 velocity=0 time=92\n",
      "note_on channel=9 note=36 velocity=127 time=100\n",
      "note_on channel=9 note=46 velocity=102 time=0\n",
      "note_off channel=9 note=46 velocity=0 time=92\n",
      "note_off channel=9 note=36 velocity=0 time=0\n",
      "note_on channel=9 note=36 velocity=127 time=100\n",
      "note_on channel=9 note=46 velocity=127 time=0\n",
      "note_off channel=9 note=36 velocity=0 time=92\n",
      "note_on channel=9 note=36 velocity=127 time=196\n",
      "note_off channel=9 note=36 velocity=0 time=92\n",
      "note_off channel=9 note=46 velocity=1 time=4\n",
      "note_on channel=9 note=38 velocity=127 time=0\n",
      "note_off channel=9 note=38 velocity=0 time=92\n",
      "note_on channel=9 note=36 velocity=127 time=100\n",
      "note_off channel=9 note=36 velocity=0 time=92\n",
      "note_off channel=9 note=46 velocity=0 time=96\n",
      "note_on channel=9 note=36 velocity=127 time=4\n",
      "note_on channel=9 note=46 velocity=127 time=0\n",
      "note_off channel=9 note=36 velocity=0 time=92\n",
      "note_on channel=9 note=36 velocity=127 time=196\n",
      "note_off channel=9 note=36 velocity=0 time=92\n",
      "note_on channel=9 note=38 velocity=127 time=4\n",
      "note_off channel=9 note=38 velocity=0 time=92\n",
      "note_on channel=9 note=36 velocity=127 time=100\n",
      "note_on channel=9 note=46 velocity=102 time=0\n",
      "note_off channel=9 note=46 velocity=0 time=92\n",
      "note_off channel=9 note=36 velocity=0 time=0\n",
      "note_on channel=9 note=36 velocity=127 time=100\n",
      "note_on channel=9 note=46 velocity=127 time=0\n",
      "note_off channel=9 note=36 velocity=0 time=92\n",
      "note_on channel=9 note=36 velocity=127 time=196\n",
      "note_off channel=9 note=36 velocity=0 time=92\n",
      "note_off channel=9 note=46 velocity=1 time=4\n",
      "note_on channel=9 note=38 velocity=127 time=0\n",
      "note_off channel=9 note=38 velocity=0 time=92\n",
      "note_on channel=9 note=36 velocity=127 time=100\n",
      "note_off channel=9 note=36 velocity=0 time=92\n",
      "note_off channel=9 note=46 velocity=0 time=96\n",
      "note_on channel=9 note=36 velocity=127 time=4\n",
      "note_on channel=9 note=46 velocity=127 time=0\n",
      "note_off channel=9 note=36 velocity=0 time=92\n",
      "note_on channel=9 note=36 velocity=127 time=196\n",
      "note_off channel=9 note=36 velocity=0 time=92\n",
      "note_on channel=9 note=38 velocity=127 time=4\n",
      "note_off channel=9 note=38 velocity=0 time=92\n",
      "note_on channel=9 note=36 velocity=127 time=100\n",
      "note_on channel=9 note=46 velocity=102 time=0\n",
      "note_off channel=9 note=46 velocity=0 time=92\n",
      "note_off channel=9 note=36 velocity=0 time=0\n",
      "note_on channel=9 note=36 velocity=127 time=100\n",
      "note_on channel=9 note=46 velocity=127 time=0\n",
      "note_off channel=9 note=36 velocity=0 time=92\n",
      "note_on channel=9 note=36 velocity=127 time=196\n",
      "note_off channel=9 note=36 velocity=0 time=92\n",
      "note_off channel=9 note=46 velocity=1 time=4\n",
      "note_on channel=9 note=38 velocity=127 time=0\n",
      "note_off channel=9 note=38 velocity=0 time=92\n",
      "note_on channel=9 note=36 velocity=127 time=100\n",
      "note_off channel=9 note=36 velocity=0 time=92\n",
      "note_off channel=9 note=46 velocity=0 time=96\n",
      "note_on channel=9 note=36 velocity=127 time=4\n",
      "note_on channel=9 note=46 velocity=127 time=0\n",
      "note_on channel=9 note=57 velocity=125 time=8\n",
      "note_off channel=9 note=36 velocity=0 time=84\n",
      "note_on channel=9 note=36 velocity=127 time=196\n",
      "note_off channel=9 note=36 velocity=0 time=92\n",
      "note_on channel=9 note=38 velocity=127 time=4\n",
      "note_off channel=9 note=38 velocity=0 time=92\n",
      "note_on channel=9 note=36 velocity=127 time=100\n",
      "note_on channel=9 note=46 velocity=102 time=0\n",
      "note_off channel=9 note=46 velocity=0 time=92\n",
      "note_off channel=9 note=36 velocity=0 time=0\n",
      "note_on channel=9 note=36 velocity=127 time=100\n",
      "note_on channel=9 note=46 velocity=127 time=0\n",
      "note_off channel=9 note=57 velocity=0 time=6\n",
      "note_on channel=9 note=57 velocity=125 time=2\n",
      "note_off channel=9 note=36 velocity=0 time=84\n",
      "note_on channel=9 note=36 velocity=127 time=196\n",
      "note_off channel=9 note=36 velocity=0 time=92\n",
      "note_off channel=9 note=46 velocity=1 time=4\n",
      "note_on channel=9 note=38 velocity=127 time=0\n",
      "note_off channel=9 note=38 velocity=0 time=92\n",
      "note_on channel=9 note=36 velocity=127 time=100\n",
      "note_off channel=9 note=36 velocity=0 time=92\n",
      "note_off channel=9 note=46 velocity=0 time=96\n",
      "note_on channel=9 note=36 velocity=127 time=4\n",
      "note_on channel=9 note=46 velocity=127 time=0\n",
      "note_off channel=9 note=57 velocity=0 time=6\n",
      "note_on channel=9 note=57 velocity=126 time=2\n",
      "note_off channel=9 note=36 velocity=0 time=84\n",
      "note_on channel=9 note=36 velocity=127 time=196\n",
      "note_off channel=9 note=36 velocity=0 time=92\n",
      "note_on channel=9 note=38 velocity=127 time=4\n",
      "note_off channel=9 note=38 velocity=0 time=92\n",
      "note_on channel=9 note=36 velocity=127 time=100\n",
      "note_on channel=9 note=46 velocity=102 time=0\n",
      "note_off channel=9 note=46 velocity=0 time=92\n",
      "note_off channel=9 note=36 velocity=0 time=0\n",
      "note_on channel=9 note=36 velocity=127 time=100\n",
      "note_on channel=9 note=46 velocity=127 time=0\n",
      "note_off channel=9 note=57 velocity=0 time=6\n",
      "note_on channel=9 note=57 velocity=125 time=2\n",
      "note_off channel=9 note=36 velocity=0 time=84\n",
      "note_on channel=9 note=36 velocity=127 time=196\n",
      "note_off channel=9 note=36 velocity=0 time=92\n",
      "note_off channel=9 note=46 velocity=1 time=4\n",
      "note_on channel=9 note=38 velocity=127 time=0\n",
      "note_off channel=9 note=38 velocity=0 time=92\n",
      "note_on channel=9 note=36 velocity=127 time=100\n",
      "note_off channel=9 note=36 velocity=0 time=92\n",
      "note_off channel=9 note=46 velocity=0 time=96\n",
      "note_on channel=9 note=36 velocity=127 time=4\n",
      "note_on channel=9 note=46 velocity=127 time=0\n",
      "note_off channel=9 note=57 velocity=0 time=6\n",
      "note_on channel=9 note=57 velocity=124 time=2\n",
      "note_off channel=9 note=36 velocity=0 time=84\n",
      "note_on channel=9 note=36 velocity=127 time=196\n",
      "note_off channel=9 note=36 velocity=0 time=92\n",
      "note_on channel=9 note=38 velocity=127 time=4\n",
      "note_off channel=9 note=38 velocity=0 time=92\n",
      "note_on channel=9 note=36 velocity=127 time=100\n",
      "note_on channel=9 note=46 velocity=102 time=0\n",
      "note_off channel=9 note=46 velocity=0 time=92\n",
      "note_off channel=9 note=36 velocity=0 time=0\n",
      "note_on channel=9 note=36 velocity=127 time=100\n",
      "note_on channel=9 note=46 velocity=127 time=0\n",
      "note_off channel=9 note=57 velocity=0 time=6\n",
      "note_off channel=9 note=36 velocity=0 time=86\n",
      "note_on channel=9 note=36 velocity=127 time=196\n",
      "note_off channel=9 note=36 velocity=0 time=92\n",
      "note_off channel=9 note=46 velocity=1 time=4\n",
      "note_on channel=9 note=38 velocity=127 time=0\n",
      "note_off channel=9 note=38 velocity=0 time=92\n",
      "note_on channel=9 note=36 velocity=127 time=100\n",
      "note_off channel=9 note=36 velocity=0 time=92\n",
      "note_off channel=9 note=46 velocity=0 time=96\n",
      "note_on channel=9 note=38 velocity=127 time=4\n",
      "note_on channel=9 note=46 velocity=127 time=0\n",
      "note_off channel=9 note=46 velocity=0 time=192\n",
      "note_off channel=9 note=38 velocity=0 time=0\n",
      "note_on channel=9 note=36 velocity=127 time=0\n",
      "note_on channel=9 note=49 velocity=127 time=0\n",
      "note_off channel=9 note=49 velocity=0 time=96\n",
      "note_off channel=9 note=36 velocity=0 time=96\n",
      "note_on channel=9 note=36 velocity=127 time=96\n",
      "note_on channel=9 note=49 velocity=127 time=0\n",
      "note_off channel=9 note=49 velocity=0 time=96\n",
      "note_off channel=9 note=36 velocity=0 time=0\n",
      "note_on channel=9 note=36 velocity=127 time=192\n",
      "note_on channel=9 note=49 velocity=127 time=0\n",
      "note_off channel=9 note=36 velocity=0 time=192\n",
      "note_on channel=9 note=36 velocity=103 time=0\n",
      "note_off channel=9 note=36 velocity=0 time=92\n",
      "note_off channel=9 note=49 velocity=0 time=4\n",
      "note_on channel=9 note=36 velocity=105 time=0\n",
      "note_off channel=9 note=36 velocity=0 time=92\n",
      "note_on channel=9 note=38 velocity=127 time=4\n",
      "note_on channel=9 note=46 velocity=127 time=0\n",
      "note_off channel=9 note=46 velocity=0 time=192\n",
      "note_off channel=9 note=38 velocity=0 time=96\n",
      "note_on channel=9 note=36 velocity=127 time=96\n",
      "note_on channel=9 note=46 velocity=127 time=0\n",
      "note_off channel=9 note=36 velocity=0 time=92\n",
      "note_on channel=9 note=36 velocity=127 time=196\n",
      "note_off channel=9 note=36 velocity=0 time=92\n",
      "note_on channel=9 note=38 velocity=127 time=4\n",
      "note_off channel=9 note=38 velocity=0 time=92\n",
      "note_on channel=9 note=36 velocity=127 time=100\n",
      "note_on channel=9 note=46 velocity=102 time=0\n",
      "note_off channel=9 note=46 velocity=0 time=92\n",
      "note_off channel=9 note=36 velocity=0 time=0\n",
      "note_on channel=9 note=36 velocity=127 time=100\n",
      "note_on channel=9 note=46 velocity=127 time=0\n",
      "note_off channel=9 note=36 velocity=0 time=92\n",
      "note_on channel=9 note=36 velocity=127 time=196\n",
      "note_off channel=9 note=36 velocity=0 time=92\n",
      "note_off channel=9 note=46 velocity=1 time=4\n",
      "note_on channel=9 note=38 velocity=127 time=0\n",
      "note_off channel=9 note=38 velocity=0 time=92\n",
      "note_on channel=9 note=36 velocity=127 time=100\n",
      "note_off channel=9 note=36 velocity=0 time=92\n",
      "note_off channel=9 note=46 velocity=0 time=96\n",
      "note_on channel=9 note=36 velocity=127 time=4\n",
      "note_on channel=9 note=46 velocity=127 time=0\n",
      "note_off channel=9 note=36 velocity=0 time=92\n",
      "note_on channel=9 note=36 velocity=127 time=196\n",
      "note_off channel=9 note=36 velocity=0 time=92\n",
      "note_on channel=9 note=38 velocity=127 time=4\n",
      "note_off channel=9 note=38 velocity=0 time=92\n",
      "note_on channel=9 note=36 velocity=127 time=100\n",
      "note_on channel=9 note=46 velocity=102 time=0\n",
      "note_off channel=9 note=46 velocity=0 time=92\n",
      "note_off channel=9 note=36 velocity=0 time=0\n",
      "note_on channel=9 note=36 velocity=127 time=100\n",
      "note_on channel=9 note=46 velocity=127 time=0\n",
      "note_off channel=9 note=36 velocity=0 time=92\n",
      "note_on channel=9 note=36 velocity=127 time=196\n",
      "note_off channel=9 note=36 velocity=0 time=92\n",
      "note_off channel=9 note=46 velocity=1 time=4\n",
      "note_on channel=9 note=38 velocity=127 time=0\n",
      "note_off channel=9 note=38 velocity=0 time=92\n",
      "note_on channel=9 note=36 velocity=127 time=100\n",
      "note_off channel=9 note=36 velocity=0 time=92\n",
      "note_off channel=9 note=46 velocity=0 time=96\n",
      "note_on channel=9 note=36 velocity=127 time=4\n",
      "note_on channel=9 note=46 velocity=127 time=0\n",
      "note_off channel=9 note=36 velocity=0 time=92\n",
      "note_on channel=9 note=36 velocity=127 time=196\n",
      "note_off channel=9 note=36 velocity=0 time=92\n",
      "note_on channel=9 note=38 velocity=127 time=4\n",
      "note_off channel=9 note=38 velocity=0 time=92\n",
      "note_on channel=9 note=36 velocity=127 time=100\n",
      "note_on channel=9 note=46 velocity=102 time=0\n",
      "note_off channel=9 note=46 velocity=0 time=92\n",
      "note_off channel=9 note=36 velocity=0 time=0\n",
      "note_on channel=9 note=36 velocity=127 time=100\n",
      "note_on channel=9 note=46 velocity=127 time=0\n",
      "note_off channel=9 note=36 velocity=0 time=92\n",
      "note_on channel=9 note=36 velocity=127 time=196\n",
      "note_off channel=9 note=36 velocity=0 time=92\n",
      "note_off channel=9 note=46 velocity=1 time=4\n",
      "note_on channel=9 note=38 velocity=127 time=0\n",
      "note_off channel=9 note=38 velocity=0 time=92\n",
      "note_on channel=9 note=36 velocity=127 time=100\n",
      "note_off channel=9 note=36 velocity=0 time=92\n",
      "note_off channel=9 note=46 velocity=0 time=96\n",
      "note_on channel=9 note=36 velocity=127 time=4\n",
      "note_on channel=9 note=46 velocity=127 time=0\n",
      "note_off channel=9 note=36 velocity=0 time=92\n",
      "note_on channel=9 note=36 velocity=127 time=196\n",
      "note_off channel=9 note=36 velocity=0 time=92\n",
      "note_on channel=9 note=38 velocity=127 time=4\n",
      "note_off channel=9 note=38 velocity=0 time=92\n",
      "note_on channel=9 note=36 velocity=127 time=100\n",
      "note_on channel=9 note=46 velocity=102 time=0\n",
      "note_off channel=9 note=46 velocity=0 time=92\n",
      "note_off channel=9 note=36 velocity=0 time=0\n",
      "note_on channel=9 note=36 velocity=127 time=100\n",
      "note_on channel=9 note=46 velocity=127 time=0\n",
      "note_off channel=9 note=36 velocity=0 time=92\n",
      "note_on channel=9 note=36 velocity=127 time=196\n",
      "note_off channel=9 note=36 velocity=0 time=92\n",
      "note_off channel=9 note=46 velocity=1 time=4\n",
      "note_on channel=9 note=38 velocity=127 time=0\n",
      "note_off channel=9 note=38 velocity=0 time=92\n",
      "note_on channel=9 note=36 velocity=127 time=100\n",
      "note_off channel=9 note=36 velocity=0 time=92\n",
      "note_off channel=9 note=46 velocity=0 time=96\n",
      "note_on channel=9 note=36 velocity=127 time=4\n",
      "note_on channel=9 note=46 velocity=127 time=0\n",
      "note_off channel=9 note=36 velocity=0 time=92\n",
      "note_on channel=9 note=36 velocity=127 time=196\n",
      "note_off channel=9 note=36 velocity=0 time=92\n",
      "note_on channel=9 note=38 velocity=127 time=4\n",
      "note_off channel=9 note=38 velocity=0 time=92\n",
      "note_on channel=9 note=36 velocity=127 time=100\n",
      "note_on channel=9 note=46 velocity=102 time=0\n",
      "note_off channel=9 note=46 velocity=0 time=92\n",
      "note_off channel=9 note=36 velocity=0 time=0\n",
      "note_on channel=9 note=36 velocity=127 time=100\n",
      "note_on channel=9 note=46 velocity=127 time=0\n",
      "note_off channel=9 note=36 velocity=0 time=92\n",
      "note_on channel=9 note=36 velocity=127 time=196\n",
      "note_off channel=9 note=36 velocity=0 time=92\n",
      "note_off channel=9 note=46 velocity=1 time=4\n",
      "note_on channel=9 note=38 velocity=127 time=0\n",
      "note_off channel=9 note=38 velocity=0 time=92\n",
      "note_on channel=9 note=36 velocity=127 time=100\n",
      "note_off channel=9 note=36 velocity=0 time=92\n",
      "note_off channel=9 note=46 velocity=0 time=96\n",
      "note_on channel=9 note=36 velocity=127 time=4\n",
      "note_on channel=9 note=46 velocity=127 time=0\n",
      "note_off channel=9 note=36 velocity=0 time=92\n",
      "note_on channel=9 note=36 velocity=127 time=196\n",
      "note_off channel=9 note=36 velocity=0 time=92\n",
      "note_on channel=9 note=38 velocity=127 time=4\n",
      "note_off channel=9 note=38 velocity=0 time=92\n",
      "note_on channel=9 note=36 velocity=127 time=100\n",
      "note_on channel=9 note=46 velocity=102 time=0\n",
      "note_off channel=9 note=46 velocity=0 time=92\n",
      "note_off channel=9 note=36 velocity=0 time=0\n",
      "note_on channel=9 note=36 velocity=127 time=100\n",
      "note_on channel=9 note=46 velocity=127 time=0\n",
      "note_off channel=9 note=36 velocity=0 time=92\n",
      "note_on channel=9 note=36 velocity=127 time=196\n",
      "note_off channel=9 note=36 velocity=0 time=92\n",
      "note_off channel=9 note=46 velocity=1 time=4\n",
      "note_on channel=9 note=38 velocity=127 time=0\n",
      "note_off channel=9 note=38 velocity=0 time=92\n",
      "note_on channel=9 note=36 velocity=127 time=100\n",
      "note_off channel=9 note=36 velocity=0 time=92\n",
      "note_off channel=9 note=46 velocity=0 time=96\n",
      "note_on channel=9 note=36 velocity=127 time=4\n",
      "note_on channel=9 note=46 velocity=127 time=0\n",
      "note_off channel=9 note=36 velocity=0 time=92\n",
      "note_on channel=9 note=36 velocity=127 time=196\n",
      "note_off channel=9 note=36 velocity=0 time=92\n",
      "note_on channel=9 note=38 velocity=127 time=4\n",
      "note_off channel=9 note=38 velocity=0 time=92\n",
      "note_on channel=9 note=36 velocity=127 time=100\n",
      "note_on channel=9 note=46 velocity=102 time=0\n",
      "note_off channel=9 note=46 velocity=0 time=92\n",
      "note_off channel=9 note=36 velocity=0 time=0\n",
      "note_on channel=9 note=36 velocity=127 time=100\n",
      "note_on channel=9 note=46 velocity=127 time=0\n",
      "note_off channel=9 note=36 velocity=0 time=92\n",
      "note_on channel=9 note=36 velocity=127 time=196\n",
      "note_off channel=9 note=36 velocity=0 time=92\n",
      "note_off channel=9 note=46 velocity=1 time=4\n",
      "note_on channel=9 note=38 velocity=127 time=0\n",
      "note_off channel=9 note=38 velocity=0 time=92\n",
      "note_on channel=9 note=36 velocity=127 time=100\n",
      "note_off channel=9 note=36 velocity=0 time=92\n",
      "note_off channel=9 note=46 velocity=0 time=96\n",
      "note_on channel=9 note=36 velocity=127 time=4\n",
      "note_on channel=9 note=46 velocity=127 time=0\n",
      "note_off channel=9 note=36 velocity=0 time=92\n",
      "note_on channel=9 note=36 velocity=127 time=196\n",
      "note_off channel=9 note=36 velocity=0 time=92\n",
      "note_on channel=9 note=38 velocity=127 time=4\n",
      "note_off channel=9 note=38 velocity=0 time=92\n",
      "note_on channel=9 note=36 velocity=127 time=100\n",
      "note_on channel=9 note=46 velocity=102 time=0\n",
      "note_off channel=9 note=46 velocity=0 time=92\n",
      "note_off channel=9 note=36 velocity=0 time=0\n",
      "note_on channel=9 note=36 velocity=127 time=100\n",
      "note_on channel=9 note=46 velocity=127 time=0\n",
      "note_off channel=9 note=36 velocity=0 time=92\n",
      "note_on channel=9 note=36 velocity=127 time=196\n",
      "note_off channel=9 note=36 velocity=0 time=92\n",
      "note_off channel=9 note=46 velocity=1 time=4\n",
      "note_on channel=9 note=38 velocity=127 time=0\n",
      "note_off channel=9 note=38 velocity=0 time=92\n",
      "note_on channel=9 note=36 velocity=127 time=100\n",
      "note_off channel=9 note=36 velocity=0 time=92\n",
      "note_off channel=9 note=46 velocity=0 time=96\n",
      "note_on channel=9 note=36 velocity=127 time=4\n",
      "note_on channel=9 note=46 velocity=127 time=0\n",
      "note_on channel=9 note=57 velocity=125 time=8\n",
      "note_off channel=9 note=36 velocity=0 time=84\n",
      "note_on channel=9 note=36 velocity=127 time=196\n",
      "note_off channel=9 note=36 velocity=0 time=92\n",
      "note_on channel=9 note=38 velocity=127 time=4\n",
      "note_off channel=9 note=38 velocity=0 time=92\n",
      "note_on channel=9 note=36 velocity=127 time=100\n",
      "note_on channel=9 note=46 velocity=102 time=0\n",
      "note_off channel=9 note=46 velocity=0 time=92\n",
      "note_off channel=9 note=36 velocity=0 time=0\n",
      "note_on channel=9 note=36 velocity=127 time=100\n",
      "note_on channel=9 note=46 velocity=127 time=0\n",
      "note_off channel=9 note=57 velocity=0 time=6\n",
      "note_on channel=9 note=57 velocity=125 time=2\n",
      "note_off channel=9 note=36 velocity=0 time=84\n",
      "note_on channel=9 note=36 velocity=127 time=196\n",
      "note_off channel=9 note=36 velocity=0 time=92\n",
      "note_off channel=9 note=46 velocity=1 time=4\n",
      "note_on channel=9 note=38 velocity=127 time=0\n",
      "note_off channel=9 note=38 velocity=0 time=92\n",
      "note_on channel=9 note=36 velocity=127 time=100\n",
      "note_off channel=9 note=36 velocity=0 time=92\n",
      "note_off channel=9 note=46 velocity=0 time=96\n",
      "note_on channel=9 note=36 velocity=127 time=4\n",
      "note_on channel=9 note=46 velocity=127 time=0\n",
      "note_off channel=9 note=57 velocity=0 time=6\n",
      "note_on channel=9 note=57 velocity=126 time=2\n",
      "note_off channel=9 note=36 velocity=0 time=84\n",
      "note_on channel=9 note=36 velocity=127 time=196\n",
      "note_off channel=9 note=36 velocity=0 time=92\n",
      "note_on channel=9 note=38 velocity=127 time=4\n",
      "note_off channel=9 note=38 velocity=0 time=92\n",
      "note_on channel=9 note=36 velocity=127 time=100\n",
      "note_on channel=9 note=46 velocity=102 time=0\n",
      "note_off channel=9 note=46 velocity=0 time=92\n",
      "note_off channel=9 note=36 velocity=0 time=0\n",
      "note_on channel=9 note=36 velocity=127 time=100\n",
      "note_on channel=9 note=46 velocity=127 time=0\n",
      "note_off channel=9 note=57 velocity=0 time=6\n",
      "note_on channel=9 note=57 velocity=125 time=2\n",
      "note_off channel=9 note=36 velocity=0 time=84\n",
      "note_on channel=9 note=36 velocity=127 time=196\n",
      "note_off channel=9 note=36 velocity=0 time=92\n",
      "note_off channel=9 note=46 velocity=1 time=4\n",
      "note_on channel=9 note=38 velocity=127 time=0\n",
      "note_off channel=9 note=38 velocity=0 time=92\n",
      "note_on channel=9 note=36 velocity=127 time=100\n",
      "note_off channel=9 note=36 velocity=0 time=92\n",
      "note_off channel=9 note=46 velocity=0 time=96\n",
      "note_on channel=9 note=36 velocity=127 time=4\n",
      "note_on channel=9 note=46 velocity=127 time=0\n",
      "note_off channel=9 note=57 velocity=0 time=6\n",
      "note_on channel=9 note=57 velocity=124 time=2\n",
      "note_off channel=9 note=36 velocity=0 time=84\n",
      "note_on channel=9 note=36 velocity=127 time=196\n",
      "note_off channel=9 note=36 velocity=0 time=92\n",
      "note_on channel=9 note=38 velocity=127 time=4\n",
      "note_off channel=9 note=38 velocity=0 time=92\n",
      "note_on channel=9 note=36 velocity=127 time=100\n",
      "note_on channel=9 note=46 velocity=102 time=0\n",
      "note_off channel=9 note=46 velocity=0 time=92\n",
      "note_off channel=9 note=36 velocity=0 time=0\n",
      "note_on channel=9 note=36 velocity=127 time=100\n",
      "note_on channel=9 note=46 velocity=127 time=0\n",
      "note_off channel=9 note=57 velocity=0 time=6\n",
      "note_off channel=9 note=36 velocity=0 time=86\n",
      "note_on channel=9 note=36 velocity=127 time=196\n",
      "note_off channel=9 note=36 velocity=0 time=92\n",
      "note_off channel=9 note=46 velocity=1 time=4\n",
      "note_on channel=9 note=38 velocity=127 time=0\n",
      "note_off channel=9 note=38 velocity=0 time=92\n",
      "note_on channel=9 note=36 velocity=127 time=100\n",
      "note_off channel=9 note=36 velocity=0 time=92\n",
      "note_off channel=9 note=46 velocity=0 time=96\n",
      "note_on channel=9 note=38 velocity=127 time=4\n",
      "note_on channel=9 note=46 velocity=127 time=0\n",
      "note_off channel=9 note=46 velocity=0 time=192\n",
      "note_off channel=9 note=38 velocity=0 time=0\n",
      "note_on channel=9 note=36 velocity=127 time=0\n",
      "note_on channel=9 note=49 velocity=127 time=0\n",
      "note_off channel=9 note=49 velocity=0 time=96\n",
      "note_off channel=9 note=36 velocity=0 time=96\n",
      "note_on channel=9 note=36 velocity=127 time=96\n",
      "note_on channel=9 note=49 velocity=127 time=0\n",
      "note_off channel=9 note=49 velocity=0 time=96\n",
      "note_off channel=9 note=36 velocity=0 time=0\n",
      "note_on channel=9 note=36 velocity=127 time=192\n",
      "note_on channel=9 note=49 velocity=127 time=0\n",
      "note_off channel=9 note=36 velocity=0 time=192\n",
      "note_on channel=9 note=36 velocity=120 time=0\n",
      "note_off channel=9 note=36 velocity=0 time=92\n",
      "note_off channel=9 note=49 velocity=0 time=4\n",
      "note_on channel=9 note=36 velocity=123 time=0\n",
      "note_off channel=9 note=36 velocity=0 time=92\n",
      "note_on channel=9 note=38 velocity=127 time=4\n",
      "note_on channel=9 note=46 velocity=127 time=0\n",
      "note_off channel=9 note=46 velocity=0 time=192\n",
      "note_off channel=9 note=38 velocity=0 time=96\n",
      "control_change channel=9 control=7 value=127 time=96\n",
      "note_on channel=9 note=36 velocity=127 time=0\n",
      "note_on channel=9 note=46 velocity=127 time=0\n",
      "note_off channel=9 note=36 velocity=0 time=92\n",
      "control_change channel=9 control=7 value=126 time=52\n",
      "control_change channel=9 control=7 value=125 time=144\n",
      "note_on channel=9 note=36 velocity=127 time=0\n",
      "note_off channel=9 note=36 velocity=0 time=92\n",
      "note_on channel=9 note=38 velocity=127 time=4\n",
      "control_change channel=9 control=7 value=124 time=50\n",
      "note_off channel=9 note=38 velocity=0 time=42\n",
      "note_on channel=9 note=36 velocity=127 time=100\n",
      "note_on channel=9 note=46 velocity=102 time=0\n",
      "control_change channel=9 control=7 value=123 time=2\n",
      "note_off channel=9 note=46 velocity=0 time=90\n",
      "note_off channel=9 note=36 velocity=0 time=0\n",
      "control_change channel=9 control=7 value=122 time=54\n",
      "note_on channel=9 note=36 velocity=127 time=46\n",
      "note_on channel=9 note=46 velocity=127 time=0\n",
      "note_off channel=9 note=36 velocity=0 time=92\n",
      "control_change channel=9 control=7 value=121 time=10\n",
      "control_change channel=9 control=7 value=120 time=144\n",
      "note_on channel=9 note=36 velocity=127 time=42\n",
      "note_off channel=9 note=36 velocity=0 time=92\n",
      "note_off channel=9 note=46 velocity=1 time=4\n",
      "note_on channel=9 note=38 velocity=127 time=0\n",
      "control_change channel=9 control=7 value=119 time=6\n",
      "note_off channel=9 note=38 velocity=0 time=86\n",
      "control_change channel=9 control=7 value=118 time=60\n",
      "note_on channel=9 note=36 velocity=127 time=40\n",
      "note_off channel=9 note=36 velocity=0 time=92\n",
      "control_change channel=9 control=7 value=117 time=12\n",
      "note_off channel=9 note=46 velocity=0 time=84\n",
      "note_on channel=9 note=36 velocity=127 time=4\n",
      "note_on channel=9 note=46 velocity=127 time=0\n",
      "control_change channel=9 control=7 value=116 time=56\n",
      "note_off channel=9 note=36 velocity=0 time=36\n",
      "control_change channel=9 control=7 value=115 time=112\n",
      "note_on channel=9 note=36 velocity=127 time=84\n",
      "control_change channel=9 control=7 value=114 time=60\n",
      "note_off channel=9 note=36 velocity=0 time=32\n",
      "note_on channel=9 note=38 velocity=127 time=4\n",
      "note_off channel=9 note=38 velocity=0 time=92\n",
      "control_change channel=9 control=7 value=113 time=16\n",
      "note_on channel=9 note=36 velocity=127 time=84\n",
      "note_on channel=9 note=46 velocity=102 time=0\n",
      "control_change channel=9 control=7 value=112 time=64\n",
      "note_off channel=9 note=46 velocity=0 time=28\n",
      "note_off channel=9 note=36 velocity=0 time=0\n",
      "note_on channel=9 note=36 velocity=127 time=100\n",
      "note_on channel=9 note=46 velocity=127 time=0\n",
      "control_change channel=9 control=7 value=111 time=16\n",
      "note_off channel=9 note=36 velocity=0 time=76\n",
      "control_change channel=9 control=7 value=110 time=68\n",
      "note_on channel=9 note=36 velocity=127 time=128\n",
      "control_change channel=9 control=7 value=109 time=18\n",
      "note_off channel=9 note=36 velocity=0 time=74\n",
      "note_off channel=9 note=46 velocity=1 time=4\n",
      "note_on channel=9 note=38 velocity=127 time=0\n",
      "control_change channel=9 control=7 value=108 time=66\n",
      "note_off channel=9 note=38 velocity=0 time=26\n",
      "note_on channel=9 note=36 velocity=127 time=100\n",
      "control_change channel=9 control=7 value=107 time=18\n",
      "note_off channel=9 note=36 velocity=0 time=74\n",
      "control_change channel=9 control=7 value=106 time=74\n",
      "note_off channel=9 note=46 velocity=0 time=22\n",
      "note_on channel=9 note=36 velocity=127 time=4\n",
      "note_on channel=9 note=46 velocity=127 time=0\n",
      "note_off channel=9 note=36 velocity=0 time=92\n",
      "control_change channel=9 control=7 value=105 time=26\n",
      "control_change channel=9 control=7 value=104 time=144\n",
      "note_on channel=9 note=36 velocity=127 time=26\n",
      "note_off channel=9 note=36 velocity=0 time=92\n",
      "note_on channel=9 note=38 velocity=127 time=4\n",
      "control_change channel=9 control=7 value=103 time=24\n",
      "note_off channel=9 note=38 velocity=0 time=68\n",
      "control_change channel=9 control=7 value=102 time=76\n",
      "note_on channel=9 note=36 velocity=127 time=24\n",
      "note_on channel=9 note=46 velocity=102 time=0\n",
      "note_off channel=9 note=46 velocity=0 time=92\n",
      "note_off channel=9 note=36 velocity=0 time=0\n",
      "control_change channel=9 control=7 value=101 time=32\n",
      "note_on channel=9 note=36 velocity=127 time=68\n",
      "note_on channel=9 note=46 velocity=127 time=0\n",
      "control_change channel=9 control=7 value=100 time=76\n",
      "note_off channel=9 note=36 velocity=0 time=16\n",
      "control_change channel=9 control=7 value=99 time=128\n",
      "note_on channel=9 note=36 velocity=127 time=68\n",
      "control_change channel=9 control=7 value=98 time=80\n",
      "note_off channel=9 note=36 velocity=0 time=12\n",
      "note_off channel=9 note=46 velocity=1 time=4\n",
      "note_on channel=9 note=38 velocity=127 time=0\n",
      "note_off channel=9 note=38 velocity=0 time=92\n",
      "control_change channel=9 control=7 value=97 time=36\n",
      "note_on channel=9 note=36 velocity=127 time=64\n",
      "control_change channel=9 control=7 value=96 time=80\n",
      "note_off channel=9 note=36 velocity=0 time=12\n",
      "note_off channel=9 note=46 velocity=0 time=96\n",
      "note_on channel=9 note=36 velocity=127 time=4\n",
      "note_on channel=9 note=46 velocity=127 time=0\n",
      "control_change channel=9 control=7 value=95 time=34\n",
      "note_off channel=9 note=36 velocity=0 time=58\n",
      "control_change channel=9 control=7 value=94 time=86\n",
      "note_on channel=9 note=36 velocity=127 time=110\n",
      "control_change channel=9 control=7 value=93 time=34\n",
      "note_off channel=9 note=36 velocity=0 time=58\n",
      "note_on channel=9 note=38 velocity=127 time=4\n",
      "control_change channel=9 control=7 value=92 time=86\n",
      "note_off channel=9 note=38 velocity=0 time=6\n",
      "note_on channel=9 note=36 velocity=127 time=100\n",
      "note_on channel=9 note=46 velocity=102 time=0\n",
      "control_change channel=9 control=7 value=91 time=38\n",
      "note_off channel=9 note=46 velocity=0 time=54\n",
      "note_off channel=9 note=36 velocity=0 time=0\n",
      "control_change channel=9 control=7 value=90 time=90\n",
      "note_on channel=9 note=36 velocity=127 time=10\n",
      "note_on channel=9 note=46 velocity=127 time=0\n",
      "note_off channel=9 note=36 velocity=0 time=92\n",
      "control_change channel=9 control=7 value=89 time=44\n",
      "control_change channel=9 control=7 value=88 time=144\n",
      "note_on channel=9 note=36 velocity=127 time=8\n",
      "note_off channel=9 note=36 velocity=0 time=92\n",
      "note_off channel=9 note=46 velocity=1 time=4\n",
      "note_on channel=9 note=38 velocity=127 time=0\n",
      "control_change channel=9 control=7 value=87 time=40\n",
      "note_off channel=9 note=38 velocity=0 time=52\n",
      "control_change channel=9 control=7 value=86 time=96\n",
      "note_on channel=9 note=36 velocity=127 time=4\n",
      "note_off channel=9 note=36 velocity=0 time=92\n",
      "control_change channel=9 control=7 value=85 time=48\n",
      "note_off channel=9 note=46 velocity=0 time=48\n",
      "note_on channel=9 note=36 velocity=127 time=4\n",
      "note_on channel=9 note=46 velocity=127 time=0\n",
      "note_off channel=9 note=36 velocity=0 time=92\n",
      "control_change channel=9 control=7 value=84 time=0\n",
      "control_change channel=9 control=7 value=83 time=148\n",
      "note_on channel=9 note=36 velocity=127 time=48\n",
      "note_off channel=9 note=36 velocity=0 time=92\n",
      "control_change channel=9 control=7 value=82 time=4\n",
      "note_on channel=9 note=38 velocity=127 time=0\n",
      "note_off channel=9 note=38 velocity=0 time=92\n",
      "control_change channel=9 control=7 value=81 time=52\n",
      "note_on channel=9 note=36 velocity=127 time=48\n",
      "note_on channel=9 note=46 velocity=102 time=0\n",
      "note_off channel=9 note=46 velocity=0 time=92\n",
      "note_off channel=9 note=36 velocity=0 time=0\n",
      "control_change channel=9 control=7 value=80 time=6\n",
      "note_on channel=9 note=36 velocity=127 time=94\n",
      "note_on channel=9 note=46 velocity=127 time=0\n",
      "control_change channel=9 control=7 value=79 time=50\n",
      "note_off channel=9 note=36 velocity=0 time=42\n",
      "control_change channel=9 control=7 value=78 time=102\n",
      "note_on channel=9 note=36 velocity=127 time=94\n",
      "control_change channel=9 control=7 value=77 time=54\n",
      "note_off channel=9 note=36 velocity=0 time=38\n",
      "note_off channel=9 note=46 velocity=1 time=4\n",
      "note_on channel=9 note=38 velocity=127 time=0\n",
      "note_off channel=9 note=38 velocity=0 time=92\n",
      "control_change channel=9 control=7 value=76 time=10\n",
      "note_on channel=9 note=36 velocity=127 time=90\n",
      "control_change channel=9 control=7 value=75 time=56\n",
      "note_off channel=9 note=36 velocity=0 time=36\n",
      "note_off channel=9 note=46 velocity=0 time=96\n",
      "note_on channel=9 note=36 velocity=127 time=4\n",
      "note_on channel=9 note=46 velocity=127 time=0\n",
      "control_change channel=9 control=7 value=74 time=8\n",
      "note_off channel=9 note=36 velocity=0 time=84\n",
      "control_change channel=9 control=7 value=73 time=60\n",
      "note_on channel=9 note=36 velocity=127 time=136\n",
      "control_change channel=9 control=7 value=72 time=12\n",
      "note_off channel=9 note=36 velocity=0 time=80\n",
      "note_on channel=9 note=38 velocity=127 time=4\n",
      "control_change channel=9 control=7 value=71 time=60\n",
      "note_off channel=9 note=38 velocity=0 time=32\n",
      "note_on channel=9 note=36 velocity=127 time=100\n",
      "note_on channel=9 note=46 velocity=102 time=0\n",
      "control_change channel=9 control=7 value=70 time=12\n",
      "note_off channel=9 note=46 velocity=0 time=80\n",
      "note_off channel=9 note=36 velocity=0 time=0\n",
      "control_change channel=9 control=7 value=69 time=68\n",
      "note_on channel=9 note=36 velocity=127 time=32\n",
      "note_on channel=9 note=46 velocity=127 time=0\n",
      "note_off channel=9 note=36 velocity=0 time=92\n",
      "control_change channel=9 control=7 value=68 time=20\n",
      "control_change channel=9 control=7 value=67 time=144\n",
      "note_on channel=9 note=36 velocity=127 time=32\n",
      "note_off channel=9 note=36 velocity=0 time=92\n",
      "note_off channel=9 note=46 velocity=1 time=4\n",
      "note_on channel=9 note=38 velocity=127 time=0\n",
      "control_change channel=9 control=7 value=66 time=18\n",
      "note_off channel=9 note=38 velocity=0 time=74\n",
      "control_change channel=9 control=7 value=65 time=70\n",
      "note_on channel=9 note=36 velocity=127 time=30\n",
      "note_off channel=9 note=36 velocity=0 time=92\n",
      "control_change channel=9 control=7 value=64 time=22\n",
      "note_off channel=9 note=46 velocity=0 time=74\n",
      "note_on channel=9 note=36 velocity=127 time=4\n",
      "note_on channel=9 note=46 velocity=127 time=0\n",
      "control_change channel=9 control=7 value=63 time=70\n",
      "note_off channel=9 note=36 velocity=0 time=22\n",
      "control_change channel=9 control=7 value=62 time=122\n",
      "note_on channel=9 note=36 velocity=127 time=74\n",
      "control_change channel=9 control=7 value=61 time=70\n",
      "note_off channel=9 note=36 velocity=0 time=22\n",
      "note_on channel=9 note=38 velocity=127 time=4\n",
      "note_off channel=9 note=38 velocity=0 time=92\n",
      "control_change channel=9 control=7 value=60 time=28\n",
      "note_on channel=9 note=36 velocity=127 time=72\n",
      "note_on channel=9 note=46 velocity=102 time=0\n",
      "control_change channel=9 control=7 value=59 time=72\n",
      "note_off channel=9 note=46 velocity=0 time=20\n",
      "note_off channel=9 note=36 velocity=0 time=0\n",
      "note_on channel=9 note=36 velocity=127 time=100\n",
      "note_on channel=9 note=46 velocity=127 time=0\n",
      "control_change channel=9 control=7 value=58 time=24\n",
      "note_off channel=9 note=36 velocity=0 time=68\n",
      "control_change channel=9 control=7 value=57 time=80\n",
      "note_on channel=9 note=36 velocity=127 time=116\n",
      "control_change channel=9 control=7 value=56 time=28\n",
      "note_off channel=9 note=36 velocity=0 time=64\n",
      "note_off channel=9 note=46 velocity=1 time=4\n",
      "note_on channel=9 note=38 velocity=127 time=0\n",
      "control_change channel=9 control=7 value=55 time=76\n",
      "note_off channel=9 note=38 velocity=0 time=16\n",
      "note_on channel=9 note=36 velocity=127 time=100\n",
      "control_change channel=9 control=7 value=54 time=32\n",
      "note_off channel=9 note=36 velocity=0 time=60\n",
      "control_change channel=9 control=7 value=53 time=84\n",
      "note_off channel=9 note=46 velocity=0 time=12\n",
      "note_on channel=9 note=36 velocity=127 time=4\n",
      "note_on channel=9 note=46 velocity=127 time=0\n",
      "note_off channel=9 note=36 velocity=0 time=92\n",
      "control_change channel=9 control=7 value=52 time=36\n",
      "control_change channel=9 control=7 value=51 time=146\n",
      "note_on channel=9 note=36 velocity=127 time=14\n",
      "note_off channel=9 note=36 velocity=0 time=92\n",
      "note_on channel=9 note=38 velocity=127 time=4\n",
      "control_change channel=9 control=7 value=50 time=34\n",
      "note_off channel=9 note=38 velocity=0 time=58\n",
      "control_change channel=9 control=7 value=49 time=90\n",
      "note_on channel=9 note=36 velocity=127 time=10\n",
      "note_on channel=9 note=46 velocity=102 time=0\n",
      "note_off channel=9 note=46 velocity=0 time=92\n",
      "note_off channel=9 note=36 velocity=0 time=0\n",
      "control_change channel=9 control=7 value=48 time=42\n",
      "note_on channel=9 note=36 velocity=127 time=58\n",
      "note_on channel=9 note=46 velocity=127 time=0\n",
      "control_change channel=9 control=7 value=47 time=86\n",
      "note_off channel=9 note=36 velocity=0 time=6\n",
      "control_change channel=9 control=7 value=46 time=140\n",
      "note_on channel=9 note=36 velocity=127 time=56\n",
      "control_change channel=9 control=7 value=45 time=88\n",
      "note_off channel=9 note=36 velocity=0 time=4\n",
      "note_off channel=9 note=46 velocity=1 time=4\n",
      "note_on channel=9 note=38 velocity=127 time=0\n",
      "note_off channel=9 note=38 velocity=0 time=92\n",
      "control_change channel=9 control=7 value=44 time=44\n",
      "note_on channel=9 note=36 velocity=127 time=56\n",
      "note_off channel=9 note=36 velocity=0 time=92\n",
      "control_change channel=9 control=7 value=43 time=0\n",
      "note_off channel=9 note=46 velocity=0 time=96\n",
      "note_on channel=9 note=36 velocity=127 time=4\n",
      "note_on channel=9 note=46 velocity=127 time=0\n",
      "note_on channel=9 note=57 velocity=125 time=8\n",
      "control_change channel=9 control=7 value=42 time=36\n",
      "note_off channel=9 note=36 velocity=0 time=48\n",
      "control_change channel=9 control=7 value=41 time=96\n",
      "note_on channel=9 note=36 velocity=127 time=100\n",
      "control_change channel=9 control=7 value=40 time=48\n",
      "note_off channel=9 note=36 velocity=0 time=44\n",
      "note_on channel=9 note=38 velocity=127 time=4\n",
      "note_off channel=9 note=38 velocity=0 time=92\n",
      "control_change channel=9 control=7 value=39 time=4\n",
      "note_on channel=9 note=36 velocity=127 time=96\n",
      "note_on channel=9 note=46 velocity=102 time=0\n",
      "control_change channel=9 control=7 value=38 time=48\n",
      "note_off channel=9 note=46 velocity=0 time=44\n",
      "note_off channel=9 note=36 velocity=0 time=0\n",
      "note_on channel=9 note=36 velocity=127 time=100\n",
      "note_on channel=9 note=46 velocity=127 time=0\n",
      "control_change channel=9 control=7 value=37 time=2\n",
      "note_off channel=9 note=57 velocity=0 time=4\n",
      "note_on channel=9 note=57 velocity=125 time=2\n",
      "note_off channel=9 note=36 velocity=0 time=84\n",
      "control_change channel=9 control=7 value=36 time=54\n",
      "note_on channel=9 note=36 velocity=127 time=142\n",
      "control_change channel=9 control=7 value=35 time=2\n",
      "note_off channel=9 note=36 velocity=0 time=90\n",
      "note_off channel=9 note=46 velocity=1 time=4\n",
      "note_on channel=9 note=38 velocity=127 time=0\n",
      "control_change channel=9 control=7 value=34 time=54\n",
      "note_off channel=9 note=38 velocity=0 time=38\n",
      "note_on channel=9 note=36 velocity=127 time=100\n",
      "control_change channel=9 control=7 value=33 time=6\n",
      "note_off channel=9 note=36 velocity=0 time=86\n",
      "control_change channel=9 control=7 value=32 time=58\n",
      "note_off channel=9 note=46 velocity=0 time=38\n",
      "note_on channel=9 note=36 velocity=127 time=4\n",
      "note_on channel=9 note=46 velocity=127 time=0\n",
      "note_off channel=9 note=57 velocity=0 time=6\n",
      "note_on channel=9 note=57 velocity=126 time=2\n",
      "note_off channel=9 note=36 velocity=0 time=84\n",
      "control_change channel=9 control=7 value=31 time=12\n",
      "control_change channel=9 control=7 value=30 time=144\n",
      "note_on channel=9 note=36 velocity=127 time=40\n",
      "note_off channel=9 note=36 velocity=0 time=92\n",
      "note_on channel=9 note=38 velocity=127 time=4\n",
      "control_change channel=9 control=7 value=29 time=8\n",
      "note_off channel=9 note=38 velocity=0 time=84\n",
      "control_change channel=9 control=7 value=28 time=64\n",
      "note_on channel=9 note=36 velocity=127 time=36\n",
      "note_on channel=9 note=46 velocity=102 time=0\n",
      "note_off channel=9 note=46 velocity=0 time=92\n",
      "note_off channel=9 note=36 velocity=0 time=0\n",
      "control_change channel=9 control=7 value=27 time=16\n",
      "note_on channel=9 note=36 velocity=127 time=84\n",
      "note_on channel=9 note=46 velocity=127 time=0\n",
      "note_off channel=9 note=57 velocity=0 time=6\n",
      "note_on channel=9 note=57 velocity=125 time=2\n",
      "control_change channel=9 control=7 value=26 time=52\n",
      "note_off channel=9 note=36 velocity=0 time=32\n",
      "control_change channel=9 control=7 value=25 time=116\n",
      "note_on channel=9 note=36 velocity=127 time=80\n",
      "control_change channel=9 control=7 value=24 time=64\n",
      "note_off channel=9 note=36 velocity=0 time=28\n",
      "note_off channel=9 note=46 velocity=1 time=4\n",
      "note_on channel=9 note=38 velocity=127 time=0\n",
      "note_off channel=9 note=38 velocity=0 time=92\n",
      "control_change channel=9 control=7 value=23 time=22\n",
      "note_on channel=9 note=36 velocity=127 time=78\n",
      "control_change channel=9 control=7 value=22 time=66\n",
      "note_off channel=9 note=36 velocity=0 time=26\n",
      "note_off channel=9 note=46 velocity=0 time=96\n",
      "note_on channel=9 note=36 velocity=127 time=4\n",
      "note_on channel=9 note=46 velocity=127 time=0\n",
      "note_off channel=9 note=57 velocity=0 time=6\n",
      "note_on channel=9 note=57 velocity=124 time=2\n",
      "control_change channel=9 control=7 value=21 time=10\n",
      "note_off channel=9 note=36 velocity=0 time=74\n",
      "control_change channel=9 control=7 value=20 time=74\n",
      "note_on channel=9 note=36 velocity=127 time=122\n",
      "control_change channel=9 control=7 value=19 time=22\n",
      "note_off channel=9 note=36 velocity=0 time=70\n",
      "note_on channel=9 note=38 velocity=127 time=4\n",
      "control_change channel=9 control=7 value=18 time=70\n",
      "note_off channel=9 note=38 velocity=0 time=22\n",
      "note_on channel=9 note=36 velocity=127 time=100\n",
      "note_on channel=9 note=46 velocity=102 time=0\n",
      "control_change channel=9 control=7 value=17 time=24\n",
      "note_off channel=9 note=46 velocity=0 time=68\n",
      "note_off channel=9 note=36 velocity=0 time=0\n",
      "control_change channel=9 control=7 value=16 time=76\n",
      "note_on channel=9 note=36 velocity=127 time=24\n",
      "note_on channel=9 note=46 velocity=127 time=0\n",
      "note_off channel=9 note=57 velocity=0 time=6\n",
      "note_off channel=9 note=36 velocity=0 time=86\n",
      "control_change channel=9 control=7 value=15 time=28\n",
      "control_change channel=9 control=7 value=14 time=148\n",
      "note_on channel=9 note=36 velocity=127 time=20\n",
      "note_off channel=9 note=36 velocity=0 time=92\n",
      "note_off channel=9 note=46 velocity=1 time=4\n",
      "note_on channel=9 note=38 velocity=127 time=0\n",
      "control_change channel=9 control=7 value=13 time=28\n",
      "note_off channel=9 note=38 velocity=0 time=64\n",
      "control_change channel=9 control=7 value=12 time=80\n",
      "note_on channel=9 note=36 velocity=127 time=20\n",
      "note_off channel=9 note=36 velocity=0 time=92\n",
      "control_change channel=9 control=7 value=11 time=36\n",
      "note_off channel=9 note=46 velocity=0 time=60\n",
      "note_on channel=9 note=38 velocity=127 time=4\n",
      "note_on channel=9 note=46 velocity=127 time=0\n",
      "control_change channel=9 control=7 value=10 time=80\n",
      "note_off channel=9 note=46 velocity=0 time=112\n",
      "note_off channel=9 note=38 velocity=0 time=0\n",
      "note_on channel=9 note=36 velocity=127 time=0\n",
      "note_on channel=9 note=49 velocity=127 time=0\n",
      "control_change channel=9 control=7 value=9 time=32\n",
      "note_off channel=9 note=49 velocity=0 time=64\n",
      "control_change channel=9 control=7 value=8 time=82\n",
      "note_off channel=9 note=36 velocity=0 time=14\n",
      "note_on channel=9 note=36 velocity=127 time=96\n",
      "note_on channel=9 note=49 velocity=127 time=0\n",
      "control_change channel=9 control=7 value=7 time=34\n",
      "note_off channel=9 note=49 velocity=0 time=62\n",
      "note_off channel=9 note=36 velocity=0 time=0\n",
      "control_change channel=9 control=7 value=6 time=82\n",
      "note_on channel=9 note=36 velocity=127 time=110\n",
      "note_on channel=9 note=49 velocity=127 time=0\n",
      "control_change channel=9 control=7 value=5 time=38\n",
      "control_change channel=9 control=7 value=4 time=144\n",
      "note_off channel=9 note=36 velocity=0 time=10\n",
      "note_on channel=9 note=36 velocity=120 time=0\n",
      "note_off channel=9 note=36 velocity=0 time=92\n",
      "note_off channel=9 note=49 velocity=0 time=4\n",
      "note_on channel=9 note=36 velocity=123 time=0\n",
      "control_change channel=9 control=7 value=3 time=38\n",
      "note_off channel=9 note=36 velocity=0 time=54\n",
      "note_on channel=9 note=38 velocity=127 time=4\n",
      "note_on channel=9 note=46 velocity=127 time=0\n",
      "control_change channel=9 control=7 value=2 time=88\n",
      "note_off channel=9 note=46 velocity=0 time=104\n",
      "control_change channel=9 control=7 value=1 time=40\n",
      "note_off channel=9 note=38 velocity=0 time=56\n",
      "control_change channel=9 control=7 value=0 time=92\n",
      "MetaMessage('end_of_track', time=1540)\n",
      "Track 11\n",
      "MetaMessage('track_name', name='DISTORTION', time=0)\n",
      "program_change channel=10 program=30 time=1536\n",
      "control_change channel=10 control=7 value=127 time=0\n",
      "control_change channel=10 control=93 value=127 time=544\n",
      "control_change channel=10 control=91 value=127 time=6\n",
      "control_change channel=10 control=7 value=127 time=768\n",
      "program_change channel=10 program=30 time=108\n",
      "note_on channel=10 note=42 velocity=127 time=38510\n",
      "note_off channel=10 note=42 velocity=0 time=92\n",
      "note_on channel=10 note=42 velocity=127 time=100\n",
      "note_off channel=10 note=42 velocity=0 time=92\n",
      "note_on channel=10 note=42 velocity=127 time=4\n",
      "note_off channel=10 note=42 velocity=0 time=92\n",
      "note_on channel=10 note=42 velocity=127 time=4\n",
      "note_off channel=10 note=42 velocity=0 time=92\n",
      "note_on channel=10 note=42 velocity=127 time=100\n",
      "note_off channel=10 note=42 velocity=0 time=92\n",
      "note_on channel=10 note=42 velocity=127 time=4\n",
      "note_off channel=10 note=42 velocity=0 time=92\n",
      "note_on channel=10 note=42 velocity=127 time=4\n",
      "note_off channel=10 note=42 velocity=0 time=92\n",
      "note_on channel=10 note=42 velocity=127 time=100\n",
      "note_off channel=10 note=42 velocity=0 time=92\n",
      "note_on channel=10 note=42 velocity=127 time=4\n",
      "note_off channel=10 note=42 velocity=0 time=92\n",
      "note_on channel=10 note=42 velocity=127 time=4\n",
      "note_off channel=10 note=42 velocity=0 time=92\n",
      "note_on channel=10 note=42 velocity=127 time=100\n",
      "note_off channel=10 note=42 velocity=0 time=92\n",
      "note_on channel=10 note=38 velocity=127 time=100\n",
      "note_off channel=10 note=38 velocity=0 time=92\n",
      "note_on channel=10 note=38 velocity=127 time=100\n",
      "note_off channel=10 note=38 velocity=0 time=92\n",
      "note_on channel=10 note=38 velocity=127 time=4\n",
      "note_off channel=10 note=38 velocity=0 time=92\n",
      "note_on channel=10 note=38 velocity=127 time=4\n",
      "note_off channel=10 note=38 velocity=0 time=92\n",
      "note_on channel=10 note=38 velocity=127 time=100\n",
      "note_off channel=10 note=38 velocity=0 time=92\n",
      "note_on channel=10 note=38 velocity=127 time=4\n",
      "note_off channel=10 note=38 velocity=0 time=92\n",
      "note_on channel=10 note=38 velocity=127 time=4\n",
      "note_off channel=10 note=38 velocity=0 time=92\n",
      "note_on channel=10 note=38 velocity=127 time=100\n",
      "note_off channel=10 note=38 velocity=0 time=92\n",
      "note_on channel=10 note=38 velocity=127 time=4\n",
      "note_off channel=10 note=38 velocity=0 time=92\n",
      "note_on channel=10 note=38 velocity=127 time=4\n",
      "note_off channel=10 note=38 velocity=0 time=92\n",
      "note_on channel=10 note=38 velocity=127 time=100\n",
      "note_off channel=10 note=38 velocity=0 time=92\n",
      "note_on channel=10 note=47 velocity=127 time=100\n",
      "note_off channel=10 note=47 velocity=0 time=92\n",
      "note_on channel=10 note=47 velocity=127 time=100\n",
      "note_off channel=10 note=47 velocity=0 time=92\n",
      "note_on channel=10 note=47 velocity=127 time=4\n",
      "note_off channel=10 note=47 velocity=0 time=92\n",
      "note_on channel=10 note=47 velocity=127 time=4\n",
      "note_off channel=10 note=47 velocity=0 time=92\n",
      "note_on channel=10 note=47 velocity=127 time=100\n",
      "note_off channel=10 note=47 velocity=0 time=92\n",
      "note_on channel=10 note=47 velocity=127 time=4\n",
      "note_off channel=10 note=47 velocity=0 time=92\n",
      "note_on channel=10 note=47 velocity=127 time=4\n",
      "note_off channel=10 note=47 velocity=0 time=92\n",
      "note_on channel=10 note=47 velocity=127 time=100\n",
      "note_off channel=10 note=47 velocity=0 time=92\n",
      "note_on channel=10 note=47 velocity=127 time=4\n",
      "note_off channel=10 note=47 velocity=0 time=92\n",
      "note_on channel=10 note=47 velocity=127 time=4\n",
      "note_off channel=10 note=47 velocity=0 time=92\n",
      "note_on channel=10 note=47 velocity=127 time=100\n",
      "note_off channel=10 note=47 velocity=0 time=92\n",
      "note_on channel=10 note=40 velocity=127 time=100\n",
      "note_off channel=10 note=40 velocity=0 time=92\n",
      "note_on channel=10 note=40 velocity=127 time=100\n",
      "note_off channel=10 note=40 velocity=0 time=92\n",
      "note_on channel=10 note=40 velocity=127 time=4\n",
      "note_off channel=10 note=40 velocity=0 time=92\n",
      "note_on channel=10 note=40 velocity=127 time=4\n",
      "note_off channel=10 note=40 velocity=0 time=92\n",
      "note_on channel=10 note=40 velocity=127 time=100\n",
      "note_off channel=10 note=40 velocity=0 time=92\n",
      "note_on channel=10 note=40 velocity=127 time=4\n",
      "note_off channel=10 note=40 velocity=0 time=92\n",
      "note_on channel=10 note=40 velocity=127 time=4\n",
      "note_off channel=10 note=40 velocity=0 time=92\n",
      "note_on channel=10 note=40 velocity=127 time=100\n",
      "note_off channel=10 note=40 velocity=0 time=92\n",
      "note_on channel=10 note=40 velocity=127 time=4\n",
      "note_off channel=10 note=40 velocity=0 time=92\n",
      "note_on channel=10 note=40 velocity=127 time=4\n",
      "note_off channel=10 note=40 velocity=0 time=92\n",
      "note_on channel=10 note=40 velocity=127 time=100\n",
      "note_off channel=10 note=40 velocity=0 time=92\n",
      "note_on channel=10 note=42 velocity=127 time=100\n",
      "note_off channel=10 note=42 velocity=0 time=92\n",
      "note_on channel=10 note=42 velocity=127 time=100\n",
      "note_off channel=10 note=42 velocity=0 time=92\n",
      "note_on channel=10 note=42 velocity=127 time=4\n",
      "note_off channel=10 note=42 velocity=0 time=92\n",
      "note_on channel=10 note=42 velocity=127 time=4\n",
      "note_off channel=10 note=42 velocity=0 time=92\n",
      "note_on channel=10 note=42 velocity=127 time=100\n",
      "note_off channel=10 note=42 velocity=0 time=92\n",
      "note_on channel=10 note=42 velocity=127 time=4\n",
      "note_off channel=10 note=42 velocity=0 time=92\n",
      "note_on channel=10 note=42 velocity=127 time=4\n",
      "note_off channel=10 note=42 velocity=0 time=92\n",
      "note_on channel=10 note=42 velocity=127 time=100\n",
      "note_off channel=10 note=42 velocity=0 time=92\n",
      "note_on channel=10 note=42 velocity=127 time=4\n",
      "note_off channel=10 note=42 velocity=0 time=92\n",
      "note_on channel=10 note=42 velocity=127 time=4\n",
      "note_off channel=10 note=42 velocity=0 time=92\n",
      "note_on channel=10 note=42 velocity=127 time=100\n",
      "note_off channel=10 note=42 velocity=0 time=92\n",
      "note_on channel=10 note=38 velocity=127 time=100\n",
      "note_off channel=10 note=38 velocity=0 time=92\n",
      "note_on channel=10 note=38 velocity=127 time=100\n",
      "note_off channel=10 note=38 velocity=0 time=92\n",
      "note_on channel=10 note=38 velocity=127 time=4\n",
      "note_off channel=10 note=38 velocity=0 time=92\n",
      "note_on channel=10 note=38 velocity=127 time=4\n",
      "note_off channel=10 note=38 velocity=0 time=92\n",
      "note_on channel=10 note=38 velocity=127 time=100\n",
      "note_off channel=10 note=38 velocity=0 time=92\n",
      "note_on channel=10 note=38 velocity=127 time=4\n",
      "note_off channel=10 note=38 velocity=0 time=92\n",
      "note_on channel=10 note=38 velocity=127 time=4\n",
      "note_off channel=10 note=38 velocity=0 time=92\n",
      "note_on channel=10 note=38 velocity=127 time=100\n",
      "note_off channel=10 note=38 velocity=0 time=92\n",
      "note_on channel=10 note=38 velocity=127 time=4\n",
      "note_off channel=10 note=38 velocity=0 time=92\n",
      "note_on channel=10 note=38 velocity=127 time=4\n",
      "note_off channel=10 note=38 velocity=0 time=92\n",
      "note_on channel=10 note=38 velocity=127 time=100\n",
      "note_off channel=10 note=38 velocity=0 time=92\n",
      "note_on channel=10 note=47 velocity=127 time=100\n",
      "note_off channel=10 note=47 velocity=0 time=92\n",
      "note_on channel=10 note=47 velocity=127 time=100\n",
      "note_off channel=10 note=47 velocity=0 time=92\n",
      "note_on channel=10 note=47 velocity=127 time=4\n",
      "note_off channel=10 note=47 velocity=0 time=92\n",
      "note_on channel=10 note=47 velocity=127 time=4\n",
      "note_off channel=10 note=47 velocity=0 time=92\n",
      "note_on channel=10 note=47 velocity=127 time=100\n",
      "note_off channel=10 note=47 velocity=0 time=92\n",
      "note_on channel=10 note=47 velocity=127 time=4\n",
      "note_off channel=10 note=47 velocity=0 time=92\n",
      "note_on channel=10 note=47 velocity=127 time=4\n",
      "note_off channel=10 note=47 velocity=0 time=92\n",
      "note_on channel=10 note=47 velocity=127 time=100\n",
      "note_off channel=10 note=47 velocity=0 time=92\n",
      "note_on channel=10 note=47 velocity=127 time=4\n",
      "note_off channel=10 note=47 velocity=0 time=92\n",
      "note_on channel=10 note=47 velocity=127 time=4\n",
      "note_off channel=10 note=47 velocity=0 time=92\n",
      "note_on channel=10 note=47 velocity=127 time=100\n",
      "note_off channel=10 note=47 velocity=0 time=92\n",
      "note_on channel=10 note=40 velocity=127 time=100\n",
      "note_off channel=10 note=40 velocity=0 time=92\n",
      "note_on channel=10 note=40 velocity=127 time=100\n",
      "note_off channel=10 note=40 velocity=0 time=92\n",
      "note_on channel=10 note=40 velocity=127 time=4\n",
      "note_off channel=10 note=40 velocity=0 time=92\n",
      "note_on channel=10 note=40 velocity=127 time=4\n",
      "note_off channel=10 note=40 velocity=0 time=92\n",
      "note_on channel=10 note=40 velocity=127 time=100\n",
      "note_off channel=10 note=40 velocity=0 time=92\n",
      "note_on channel=10 note=40 velocity=127 time=4\n",
      "note_off channel=10 note=40 velocity=0 time=92\n",
      "note_on channel=10 note=40 velocity=127 time=4\n",
      "note_off channel=10 note=40 velocity=0 time=92\n",
      "note_on channel=10 note=40 velocity=127 time=100\n",
      "note_off channel=10 note=40 velocity=0 time=92\n",
      "note_on channel=10 note=40 velocity=127 time=4\n",
      "note_off channel=10 note=40 velocity=0 time=92\n",
      "note_on channel=10 note=40 velocity=127 time=4\n",
      "note_off channel=10 note=40 velocity=0 time=92\n",
      "note_on channel=10 note=40 velocity=127 time=100\n",
      "note_off channel=10 note=40 velocity=0 time=92\n",
      "note_on channel=10 note=42 velocity=127 time=100\n",
      "note_off channel=10 note=42 velocity=0 time=92\n",
      "note_on channel=10 note=42 velocity=127 time=100\n",
      "note_off channel=10 note=42 velocity=0 time=92\n",
      "note_on channel=10 note=42 velocity=127 time=4\n",
      "note_off channel=10 note=42 velocity=0 time=92\n",
      "note_on channel=10 note=42 velocity=127 time=4\n",
      "note_off channel=10 note=42 velocity=0 time=92\n",
      "note_on channel=10 note=42 velocity=127 time=100\n",
      "note_off channel=10 note=42 velocity=0 time=92\n",
      "note_on channel=10 note=42 velocity=127 time=4\n",
      "note_off channel=10 note=42 velocity=0 time=92\n",
      "note_on channel=10 note=44 velocity=127 time=4\n",
      "note_off channel=10 note=44 velocity=0 time=92\n",
      "note_on channel=10 note=44 velocity=127 time=100\n",
      "note_off channel=10 note=44 velocity=0 time=92\n",
      "note_on channel=10 note=44 velocity=127 time=4\n",
      "note_off channel=10 note=44 velocity=0 time=92\n",
      "note_on channel=10 note=44 velocity=127 time=4\n",
      "note_off channel=10 note=44 velocity=0 time=92\n",
      "note_on channel=10 note=44 velocity=127 time=100\n",
      "note_off channel=10 note=44 velocity=0 time=92\n",
      "note_on channel=10 note=44 velocity=127 time=4\n",
      "note_off channel=10 note=44 velocity=0 time=92\n",
      "note_on channel=10 note=45 velocity=127 time=4\n",
      "note_off channel=10 note=45 velocity=0 time=92\n",
      "note_on channel=10 note=45 velocity=127 time=100\n",
      "note_off channel=10 note=45 velocity=0 time=92\n",
      "note_on channel=10 note=45 velocity=127 time=4\n",
      "note_off channel=10 note=45 velocity=0 time=92\n",
      "note_on channel=10 note=45 velocity=127 time=4\n",
      "note_off channel=10 note=45 velocity=0 time=92\n",
      "note_on channel=10 note=45 velocity=127 time=100\n",
      "note_off channel=10 note=45 velocity=0 time=92\n",
      "note_on channel=10 note=45 velocity=127 time=4\n",
      "note_off channel=10 note=45 velocity=0 time=92\n",
      "note_on channel=10 note=50 velocity=127 time=4\n",
      "note_off channel=10 note=50 velocity=0 time=92\n",
      "note_on channel=10 note=50 velocity=127 time=100\n",
      "note_off channel=10 note=50 velocity=0 time=92\n",
      "note_on channel=10 note=50 velocity=127 time=4\n",
      "note_off channel=10 note=50 velocity=0 time=92\n",
      "note_on channel=10 note=50 velocity=127 time=4\n",
      "note_off channel=10 note=50 velocity=0 time=92\n",
      "note_on channel=10 note=50 velocity=127 time=100\n",
      "note_off channel=10 note=50 velocity=0 time=92\n",
      "note_on channel=10 note=50 velocity=127 time=4\n",
      "note_off channel=10 note=50 velocity=0 time=92\n",
      "note_on channel=10 note=49 velocity=127 time=4\n",
      "note_off channel=10 note=49 velocity=0 time=92\n",
      "note_on channel=10 note=49 velocity=127 time=100\n",
      "note_off channel=10 note=49 velocity=0 time=92\n",
      "note_on channel=10 note=49 velocity=127 time=4\n",
      "note_off channel=10 note=49 velocity=0 time=92\n",
      "note_on channel=10 note=49 velocity=127 time=4\n",
      "note_off channel=10 note=49 velocity=0 time=92\n",
      "note_on channel=10 note=49 velocity=127 time=100\n",
      "note_off channel=10 note=49 velocity=0 time=92\n",
      "note_on channel=10 note=49 velocity=127 time=4\n",
      "note_off channel=10 note=49 velocity=0 time=92\n",
      "note_on channel=10 note=49 velocity=127 time=4\n",
      "note_off channel=10 note=49 velocity=0 time=92\n",
      "note_on channel=10 note=49 velocity=127 time=100\n",
      "note_off channel=10 note=49 velocity=0 time=92\n",
      "note_on channel=10 note=49 velocity=127 time=4\n",
      "note_off channel=10 note=49 velocity=0 time=92\n",
      "note_on channel=10 note=49 velocity=127 time=4\n",
      "note_off channel=10 note=49 velocity=0 time=92\n",
      "note_on channel=10 note=49 velocity=127 time=100\n",
      "note_off channel=10 note=49 velocity=0 time=92\n",
      "note_on channel=10 note=49 velocity=127 time=4\n",
      "note_off channel=10 note=49 velocity=0 time=92\n",
      "note_on channel=10 note=49 velocity=127 time=4\n",
      "note_off channel=10 note=49 velocity=0 time=92\n",
      "note_on channel=10 note=49 velocity=127 time=100\n",
      "note_off channel=10 note=49 velocity=0 time=92\n",
      "note_on channel=10 note=49 velocity=127 time=4\n",
      "note_off channel=10 note=49 velocity=0 time=92\n",
      "note_on channel=10 note=49 velocity=127 time=4\n",
      "note_off channel=10 note=49 velocity=0 time=92\n",
      "note_on channel=10 note=49 velocity=127 time=100\n",
      "note_off channel=10 note=49 velocity=0 time=92\n",
      "note_on channel=10 note=49 velocity=127 time=4\n",
      "note_off channel=10 note=49 velocity=0 time=92\n",
      "note_on channel=10 note=49 velocity=127 time=4\n",
      "note_off channel=10 note=49 velocity=0 time=92\n",
      "note_on channel=10 note=49 velocity=127 time=100\n",
      "note_off channel=10 note=49 velocity=0 time=92\n",
      "note_on channel=10 note=49 velocity=127 time=4\n",
      "note_off channel=10 note=49 velocity=0 time=92\n",
      "note_on channel=10 note=49 velocity=127 time=4\n",
      "note_off channel=10 note=49 velocity=0 time=92\n",
      "note_on channel=10 note=49 velocity=127 time=100\n",
      "note_off channel=10 note=49 velocity=0 time=92\n",
      "note_on channel=10 note=49 velocity=127 time=4\n",
      "note_off channel=10 note=49 velocity=0 time=92\n",
      "note_on channel=10 note=42 velocity=127 time=28\n",
      "note_off channel=10 note=42 velocity=0 time=5984\n",
      "note_on channel=10 note=42 velocity=127 time=136\n",
      "note_off channel=10 note=42 velocity=0 time=4608\n",
      "note_on channel=10 note=47 velocity=127 time=0\n",
      "note_off channel=10 note=47 velocity=0 time=1536\n",
      "note_on channel=10 note=42 velocity=127 time=0\n",
      "note_off channel=10 note=42 velocity=0 time=3840\n",
      "note_on channel=10 note=44 velocity=127 time=0\n",
      "note_off channel=10 note=44 velocity=0 time=768\n",
      "note_on channel=10 note=45 velocity=127 time=0\n",
      "note_off channel=10 note=45 velocity=0 time=1536\n",
      "note_on channel=10 note=50 velocity=127 time=0\n",
      "note_off channel=10 note=50 velocity=0 time=92\n",
      "note_on channel=10 note=50 velocity=127 time=100\n",
      "note_off channel=10 note=50 velocity=0 time=92\n",
      "note_on channel=10 note=50 velocity=127 time=4\n",
      "note_off channel=10 note=50 velocity=0 time=92\n",
      "note_on channel=10 note=50 velocity=127 time=4\n",
      "note_off channel=10 note=50 velocity=0 time=92\n",
      "note_on channel=10 note=50 velocity=127 time=100\n",
      "note_off channel=10 note=50 velocity=0 time=92\n",
      "note_on channel=10 note=50 velocity=127 time=4\n",
      "note_off channel=10 note=50 velocity=0 time=92\n",
      "note_on channel=10 note=50 velocity=127 time=4\n",
      "note_off channel=10 note=50 velocity=0 time=92\n",
      "note_on channel=10 note=50 velocity=127 time=100\n",
      "note_off channel=10 note=50 velocity=0 time=92\n",
      "note_on channel=10 note=50 velocity=127 time=4\n",
      "note_off channel=10 note=50 velocity=0 time=92\n",
      "note_on channel=10 note=50 velocity=127 time=4\n",
      "note_off channel=10 note=50 velocity=0 time=92\n",
      "note_on channel=10 note=50 velocity=127 time=100\n",
      "note_off channel=10 note=50 velocity=0 time=92\n",
      "note_on channel=10 note=50 velocity=127 time=4\n",
      "note_off channel=10 note=50 velocity=0 time=92\n",
      "note_on channel=10 note=52 velocity=127 time=4\n",
      "note_off channel=10 note=52 velocity=0 time=92\n",
      "note_on channel=10 note=52 velocity=127 time=100\n",
      "note_off channel=10 note=52 velocity=0 time=92\n",
      "note_on channel=10 note=52 velocity=127 time=4\n",
      "note_off channel=10 note=52 velocity=0 time=92\n",
      "note_on channel=10 note=52 velocity=127 time=4\n",
      "note_off channel=10 note=52 velocity=0 time=92\n",
      "note_on channel=10 note=52 velocity=127 time=100\n",
      "note_off channel=10 note=52 velocity=0 time=92\n",
      "note_on channel=10 note=52 velocity=127 time=4\n",
      "note_off channel=10 note=52 velocity=0 time=92\n",
      "note_on channel=10 note=52 velocity=127 time=4\n",
      "note_off channel=10 note=52 velocity=0 time=92\n",
      "note_on channel=10 note=52 velocity=127 time=100\n",
      "note_off channel=10 note=52 velocity=0 time=92\n",
      "note_on channel=10 note=52 velocity=127 time=4\n",
      "note_off channel=10 note=52 velocity=0 time=92\n",
      "note_on channel=10 note=52 velocity=127 time=4\n",
      "note_off channel=10 note=52 velocity=0 time=92\n",
      "note_on channel=10 note=52 velocity=127 time=100\n",
      "note_off channel=10 note=52 velocity=0 time=92\n",
      "note_on channel=10 note=52 velocity=127 time=4\n",
      "note_off channel=10 note=52 velocity=0 time=92\n",
      "note_on channel=10 note=45 velocity=127 time=4\n",
      "note_off channel=10 note=45 velocity=0 time=92\n",
      "note_on channel=10 note=45 velocity=127 time=100\n",
      "note_off channel=10 note=45 velocity=0 time=92\n",
      "note_on channel=10 note=45 velocity=127 time=4\n",
      "note_off channel=10 note=45 velocity=0 time=92\n",
      "note_on channel=10 note=45 velocity=127 time=4\n",
      "note_off channel=10 note=45 velocity=0 time=92\n",
      "note_on channel=10 note=45 velocity=127 time=100\n",
      "note_off channel=10 note=45 velocity=0 time=92\n",
      "note_on channel=10 note=45 velocity=127 time=4\n",
      "note_off channel=10 note=45 velocity=0 time=92\n",
      "note_on channel=10 note=44 velocity=127 time=4\n",
      "note_off channel=10 note=44 velocity=0 time=92\n",
      "note_on channel=10 note=44 velocity=127 time=100\n",
      "note_off channel=10 note=44 velocity=0 time=92\n",
      "note_on channel=10 note=44 velocity=127 time=4\n",
      "note_off channel=10 note=44 velocity=0 time=92\n",
      "note_on channel=10 note=44 velocity=127 time=4\n",
      "note_off channel=10 note=44 velocity=0 time=92\n",
      "note_on channel=10 note=44 velocity=127 time=100\n",
      "note_off channel=10 note=44 velocity=0 time=92\n",
      "note_on channel=10 note=44 velocity=127 time=4\n",
      "note_off channel=10 note=44 velocity=0 time=92\n",
      "note_on channel=10 note=42 velocity=127 time=4\n",
      "note_off channel=10 note=42 velocity=0 time=92\n",
      "note_on channel=10 note=42 velocity=127 time=100\n",
      "note_off channel=10 note=42 velocity=0 time=92\n",
      "note_on channel=10 note=42 velocity=127 time=4\n",
      "note_off channel=10 note=42 velocity=0 time=92\n",
      "note_on channel=10 note=42 velocity=127 time=4\n",
      "note_off channel=10 note=42 velocity=0 time=92\n",
      "note_on channel=10 note=42 velocity=127 time=100\n",
      "note_off channel=10 note=42 velocity=0 time=92\n",
      "note_on channel=10 note=42 velocity=127 time=4\n",
      "note_off channel=10 note=42 velocity=0 time=92\n",
      "note_on channel=10 note=40 velocity=127 time=4\n",
      "note_off channel=10 note=40 velocity=0 time=92\n",
      "note_on channel=10 note=40 velocity=127 time=100\n",
      "note_off channel=10 note=40 velocity=0 time=92\n",
      "note_on channel=10 note=40 velocity=127 time=4\n",
      "note_off channel=10 note=40 velocity=0 time=92\n",
      "note_on channel=10 note=40 velocity=127 time=4\n",
      "note_off channel=10 note=40 velocity=0 time=92\n",
      "note_on channel=10 note=40 velocity=127 time=100\n",
      "note_off channel=10 note=40 velocity=0 time=92\n",
      "note_on channel=10 note=40 velocity=127 time=4\n",
      "note_off channel=10 note=40 velocity=0 time=92\n",
      "note_on channel=10 note=50 velocity=127 time=4\n",
      "note_off channel=10 note=50 velocity=0 time=92\n",
      "note_on channel=10 note=50 velocity=127 time=100\n",
      "note_off channel=10 note=50 velocity=0 time=92\n",
      "note_on channel=10 note=50 velocity=127 time=4\n",
      "note_off channel=10 note=50 velocity=0 time=92\n",
      "note_on channel=10 note=50 velocity=127 time=4\n",
      "note_off channel=10 note=50 velocity=0 time=92\n",
      "note_on channel=10 note=50 velocity=127 time=100\n",
      "note_off channel=10 note=50 velocity=0 time=92\n",
      "note_on channel=10 note=50 velocity=127 time=4\n",
      "note_off channel=10 note=50 velocity=0 time=92\n",
      "note_on channel=10 note=50 velocity=127 time=4\n",
      "note_off channel=10 note=50 velocity=0 time=92\n",
      "note_on channel=10 note=50 velocity=127 time=100\n",
      "note_off channel=10 note=50 velocity=0 time=92\n",
      "note_on channel=10 note=50 velocity=127 time=4\n",
      "note_off channel=10 note=50 velocity=0 time=92\n",
      "note_on channel=10 note=50 velocity=127 time=4\n",
      "note_off channel=10 note=50 velocity=0 time=92\n",
      "note_on channel=10 note=50 velocity=127 time=100\n",
      "note_off channel=10 note=50 velocity=0 time=92\n",
      "note_on channel=10 note=50 velocity=127 time=4\n",
      "note_off channel=10 note=50 velocity=0 time=92\n",
      "note_on channel=10 note=49 velocity=127 time=4\n",
      "note_off channel=10 note=49 velocity=0 time=92\n",
      "note_on channel=10 note=49 velocity=127 time=100\n",
      "note_off channel=10 note=49 velocity=0 time=92\n",
      "note_on channel=10 note=49 velocity=127 time=4\n",
      "note_off channel=10 note=49 velocity=0 time=92\n",
      "note_on channel=10 note=49 velocity=127 time=4\n",
      "note_off channel=10 note=49 velocity=0 time=92\n",
      "note_on channel=10 note=49 velocity=127 time=100\n",
      "note_off channel=10 note=49 velocity=0 time=92\n",
      "note_on channel=10 note=49 velocity=127 time=4\n",
      "note_off channel=10 note=49 velocity=0 time=92\n",
      "note_on channel=10 note=49 velocity=127 time=4\n",
      "note_off channel=10 note=49 velocity=0 time=92\n",
      "note_on channel=10 note=49 velocity=127 time=100\n",
      "note_off channel=10 note=49 velocity=0 time=92\n",
      "note_on channel=10 note=49 velocity=127 time=4\n",
      "note_off channel=10 note=49 velocity=0 time=92\n",
      "note_on channel=10 note=49 velocity=127 time=4\n",
      "note_off channel=10 note=49 velocity=0 time=92\n",
      "note_on channel=10 note=49 velocity=127 time=100\n",
      "note_off channel=10 note=49 velocity=0 time=92\n",
      "note_on channel=10 note=49 velocity=127 time=4\n",
      "note_off channel=10 note=49 velocity=0 time=92\n",
      "note_on channel=10 note=52 velocity=127 time=196\n",
      "note_off channel=10 note=52 velocity=0 time=82\n",
      "note_on channel=10 note=52 velocity=127 time=110\n",
      "note_off channel=10 note=52 velocity=0 time=278\n",
      "note_on channel=10 note=52 velocity=127 time=106\n",
      "note_off channel=10 note=52 velocity=0 time=98\n",
      "note_on channel=10 note=52 velocity=127 time=94\n",
      "note_off channel=10 note=52 velocity=0 time=284\n",
      "note_on channel=10 note=52 velocity=127 time=100\n",
      "note_off channel=10 note=52 velocity=0 time=514\n",
      "note_on channel=10 note=42 velocity=127 time=1214\n",
      "note_off channel=10 note=42 velocity=0 time=92\n",
      "note_on channel=10 note=42 velocity=127 time=100\n",
      "note_off channel=10 note=42 velocity=0 time=92\n",
      "note_on channel=10 note=42 velocity=127 time=4\n",
      "note_off channel=10 note=42 velocity=0 time=92\n",
      "note_on channel=10 note=42 velocity=127 time=4\n",
      "note_off channel=10 note=42 velocity=0 time=92\n",
      "note_on channel=10 note=42 velocity=127 time=100\n",
      "note_off channel=10 note=42 velocity=0 time=92\n",
      "note_on channel=10 note=42 velocity=127 time=4\n",
      "note_off channel=10 note=42 velocity=0 time=92\n",
      "note_on channel=10 note=42 velocity=127 time=4\n",
      "note_off channel=10 note=42 velocity=0 time=92\n",
      "note_on channel=10 note=42 velocity=127 time=100\n",
      "note_off channel=10 note=42 velocity=0 time=92\n",
      "note_on channel=10 note=42 velocity=127 time=4\n",
      "note_off channel=10 note=42 velocity=0 time=92\n",
      "note_on channel=10 note=42 velocity=127 time=4\n",
      "note_off channel=10 note=42 velocity=0 time=92\n",
      "note_on channel=10 note=42 velocity=127 time=100\n",
      "note_off channel=10 note=42 velocity=0 time=92\n",
      "note_on channel=10 note=38 velocity=127 time=100\n",
      "note_off channel=10 note=38 velocity=0 time=92\n",
      "note_on channel=10 note=38 velocity=127 time=100\n",
      "note_off channel=10 note=38 velocity=0 time=92\n",
      "note_on channel=10 note=38 velocity=127 time=4\n",
      "note_off channel=10 note=38 velocity=0 time=92\n",
      "note_on channel=10 note=38 velocity=127 time=4\n",
      "note_off channel=10 note=38 velocity=0 time=92\n",
      "note_on channel=10 note=38 velocity=127 time=100\n",
      "note_off channel=10 note=38 velocity=0 time=92\n",
      "note_on channel=10 note=38 velocity=127 time=4\n",
      "note_off channel=10 note=38 velocity=0 time=92\n",
      "note_on channel=10 note=38 velocity=127 time=4\n",
      "note_off channel=10 note=38 velocity=0 time=92\n",
      "note_on channel=10 note=38 velocity=127 time=100\n",
      "note_off channel=10 note=38 velocity=0 time=92\n",
      "note_on channel=10 note=38 velocity=127 time=4\n",
      "note_off channel=10 note=38 velocity=0 time=92\n",
      "note_on channel=10 note=38 velocity=127 time=4\n",
      "note_off channel=10 note=38 velocity=0 time=92\n",
      "note_on channel=10 note=38 velocity=127 time=100\n",
      "note_off channel=10 note=38 velocity=0 time=92\n",
      "note_on channel=10 note=47 velocity=127 time=100\n",
      "note_off channel=10 note=47 velocity=0 time=92\n",
      "note_on channel=10 note=47 velocity=127 time=100\n",
      "note_off channel=10 note=47 velocity=0 time=92\n",
      "note_on channel=10 note=47 velocity=127 time=4\n",
      "note_off channel=10 note=47 velocity=0 time=92\n",
      "note_on channel=10 note=47 velocity=127 time=4\n",
      "note_off channel=10 note=47 velocity=0 time=92\n",
      "note_on channel=10 note=47 velocity=127 time=100\n",
      "note_off channel=10 note=47 velocity=0 time=92\n",
      "note_on channel=10 note=47 velocity=127 time=4\n",
      "note_off channel=10 note=47 velocity=0 time=92\n",
      "note_on channel=10 note=47 velocity=127 time=4\n",
      "note_off channel=10 note=47 velocity=0 time=92\n",
      "note_on channel=10 note=47 velocity=127 time=100\n",
      "note_off channel=10 note=47 velocity=0 time=92\n",
      "note_on channel=10 note=47 velocity=127 time=4\n",
      "note_off channel=10 note=47 velocity=0 time=92\n",
      "note_on channel=10 note=47 velocity=127 time=4\n",
      "note_off channel=10 note=47 velocity=0 time=92\n",
      "note_on channel=10 note=47 velocity=127 time=100\n",
      "note_off channel=10 note=47 velocity=0 time=92\n",
      "note_on channel=10 note=40 velocity=127 time=100\n",
      "note_off channel=10 note=40 velocity=0 time=92\n",
      "note_on channel=10 note=40 velocity=127 time=100\n",
      "note_off channel=10 note=40 velocity=0 time=92\n",
      "note_on channel=10 note=40 velocity=127 time=4\n",
      "note_off channel=10 note=40 velocity=0 time=92\n",
      "note_on channel=10 note=40 velocity=127 time=4\n",
      "note_off channel=10 note=40 velocity=0 time=92\n",
      "note_on channel=10 note=40 velocity=127 time=100\n",
      "note_off channel=10 note=40 velocity=0 time=92\n",
      "note_on channel=10 note=40 velocity=127 time=4\n",
      "note_off channel=10 note=40 velocity=0 time=92\n",
      "note_on channel=10 note=40 velocity=127 time=4\n",
      "note_off channel=10 note=40 velocity=0 time=92\n",
      "note_on channel=10 note=40 velocity=127 time=100\n",
      "note_off channel=10 note=40 velocity=0 time=92\n",
      "note_on channel=10 note=40 velocity=127 time=4\n",
      "note_off channel=10 note=40 velocity=0 time=92\n",
      "note_on channel=10 note=40 velocity=127 time=4\n",
      "note_off channel=10 note=40 velocity=0 time=92\n",
      "note_on channel=10 note=40 velocity=127 time=100\n",
      "note_off channel=10 note=40 velocity=0 time=92\n",
      "note_on channel=10 note=42 velocity=127 time=100\n",
      "note_off channel=10 note=42 velocity=0 time=92\n",
      "note_on channel=10 note=42 velocity=127 time=100\n",
      "note_off channel=10 note=42 velocity=0 time=92\n",
      "note_on channel=10 note=42 velocity=127 time=4\n",
      "note_off channel=10 note=42 velocity=0 time=92\n",
      "note_on channel=10 note=42 velocity=127 time=4\n",
      "note_off channel=10 note=42 velocity=0 time=92\n",
      "note_on channel=10 note=42 velocity=127 time=100\n",
      "note_off channel=10 note=42 velocity=0 time=92\n",
      "note_on channel=10 note=42 velocity=127 time=4\n",
      "note_off channel=10 note=42 velocity=0 time=92\n",
      "note_on channel=10 note=42 velocity=127 time=4\n",
      "note_off channel=10 note=42 velocity=0 time=92\n",
      "note_on channel=10 note=42 velocity=127 time=100\n",
      "note_off channel=10 note=42 velocity=0 time=92\n",
      "note_on channel=10 note=42 velocity=127 time=4\n",
      "note_off channel=10 note=42 velocity=0 time=92\n",
      "note_on channel=10 note=42 velocity=127 time=4\n",
      "note_off channel=10 note=42 velocity=0 time=92\n",
      "note_on channel=10 note=42 velocity=127 time=100\n",
      "note_off channel=10 note=42 velocity=0 time=92\n",
      "note_on channel=10 note=38 velocity=127 time=100\n",
      "note_off channel=10 note=38 velocity=0 time=92\n",
      "note_on channel=10 note=38 velocity=127 time=100\n",
      "note_off channel=10 note=38 velocity=0 time=92\n",
      "note_on channel=10 note=38 velocity=127 time=4\n",
      "note_off channel=10 note=38 velocity=0 time=92\n",
      "note_on channel=10 note=38 velocity=127 time=4\n",
      "note_off channel=10 note=38 velocity=0 time=92\n",
      "note_on channel=10 note=38 velocity=127 time=100\n",
      "note_off channel=10 note=38 velocity=0 time=92\n",
      "note_on channel=10 note=38 velocity=127 time=4\n",
      "note_off channel=10 note=38 velocity=0 time=92\n",
      "note_on channel=10 note=38 velocity=127 time=4\n",
      "note_off channel=10 note=38 velocity=0 time=92\n",
      "note_on channel=10 note=38 velocity=127 time=100\n",
      "note_off channel=10 note=38 velocity=0 time=92\n",
      "note_on channel=10 note=38 velocity=127 time=4\n",
      "note_off channel=10 note=38 velocity=0 time=92\n",
      "note_on channel=10 note=38 velocity=127 time=4\n",
      "note_off channel=10 note=38 velocity=0 time=92\n",
      "note_on channel=10 note=38 velocity=127 time=100\n",
      "note_off channel=10 note=38 velocity=0 time=92\n",
      "note_on channel=10 note=47 velocity=127 time=100\n",
      "note_off channel=10 note=47 velocity=0 time=92\n",
      "note_on channel=10 note=47 velocity=127 time=100\n",
      "note_off channel=10 note=47 velocity=0 time=92\n",
      "note_on channel=10 note=47 velocity=127 time=4\n",
      "note_off channel=10 note=47 velocity=0 time=92\n",
      "note_on channel=10 note=47 velocity=127 time=4\n",
      "note_off channel=10 note=47 velocity=0 time=92\n",
      "note_on channel=10 note=47 velocity=127 time=100\n",
      "note_off channel=10 note=47 velocity=0 time=92\n",
      "note_on channel=10 note=47 velocity=127 time=4\n",
      "note_off channel=10 note=47 velocity=0 time=92\n",
      "note_on channel=10 note=47 velocity=127 time=4\n",
      "note_off channel=10 note=47 velocity=0 time=92\n",
      "note_on channel=10 note=47 velocity=127 time=100\n",
      "note_off channel=10 note=47 velocity=0 time=92\n",
      "note_on channel=10 note=47 velocity=127 time=4\n",
      "note_off channel=10 note=47 velocity=0 time=92\n",
      "note_on channel=10 note=47 velocity=127 time=4\n",
      "note_off channel=10 note=47 velocity=0 time=92\n",
      "note_on channel=10 note=47 velocity=127 time=100\n",
      "note_off channel=10 note=47 velocity=0 time=92\n",
      "note_on channel=10 note=40 velocity=127 time=100\n",
      "note_off channel=10 note=40 velocity=0 time=92\n",
      "note_on channel=10 note=40 velocity=127 time=100\n",
      "note_off channel=10 note=40 velocity=0 time=92\n",
      "note_on channel=10 note=40 velocity=127 time=4\n",
      "note_off channel=10 note=40 velocity=0 time=92\n",
      "note_on channel=10 note=40 velocity=127 time=4\n",
      "note_off channel=10 note=40 velocity=0 time=92\n",
      "note_on channel=10 note=40 velocity=127 time=100\n",
      "note_off channel=10 note=40 velocity=0 time=92\n",
      "note_on channel=10 note=40 velocity=127 time=4\n",
      "note_off channel=10 note=40 velocity=0 time=92\n",
      "note_on channel=10 note=40 velocity=127 time=4\n",
      "note_off channel=10 note=40 velocity=0 time=92\n",
      "note_on channel=10 note=40 velocity=127 time=100\n",
      "note_off channel=10 note=40 velocity=0 time=92\n",
      "note_on channel=10 note=40 velocity=127 time=4\n",
      "note_off channel=10 note=40 velocity=0 time=92\n",
      "note_on channel=10 note=40 velocity=127 time=4\n",
      "note_off channel=10 note=40 velocity=0 time=92\n",
      "note_on channel=10 note=40 velocity=127 time=100\n",
      "note_off channel=10 note=40 velocity=0 time=92\n",
      "note_on channel=10 note=42 velocity=127 time=100\n",
      "note_off channel=10 note=42 velocity=0 time=4608\n",
      "note_on channel=10 note=47 velocity=127 time=0\n",
      "note_off channel=10 note=47 velocity=0 time=1536\n",
      "note_on channel=10 note=42 velocity=127 time=0\n",
      "note_off channel=10 note=42 velocity=0 time=3840\n",
      "note_on channel=10 note=44 velocity=127 time=0\n",
      "note_off channel=10 note=44 velocity=0 time=768\n",
      "note_on channel=10 note=45 velocity=127 time=0\n",
      "note_off channel=10 note=45 velocity=0 time=1536\n",
      "note_on channel=10 note=50 velocity=127 time=0\n",
      "note_off channel=10 note=50 velocity=0 time=92\n",
      "note_on channel=10 note=50 velocity=127 time=100\n",
      "note_off channel=10 note=50 velocity=0 time=92\n",
      "note_on channel=10 note=50 velocity=127 time=4\n",
      "note_off channel=10 note=50 velocity=0 time=92\n",
      "note_on channel=10 note=50 velocity=127 time=4\n",
      "note_off channel=10 note=50 velocity=0 time=92\n",
      "note_on channel=10 note=50 velocity=127 time=100\n",
      "note_off channel=10 note=50 velocity=0 time=92\n",
      "note_on channel=10 note=50 velocity=127 time=4\n",
      "note_off channel=10 note=50 velocity=0 time=92\n",
      "note_on channel=10 note=50 velocity=127 time=4\n",
      "note_off channel=10 note=50 velocity=0 time=92\n",
      "note_on channel=10 note=50 velocity=127 time=100\n",
      "note_off channel=10 note=50 velocity=0 time=92\n",
      "note_on channel=10 note=50 velocity=127 time=4\n",
      "note_off channel=10 note=50 velocity=0 time=92\n",
      "note_on channel=10 note=50 velocity=127 time=4\n",
      "note_off channel=10 note=50 velocity=0 time=92\n",
      "note_on channel=10 note=50 velocity=127 time=100\n",
      "note_off channel=10 note=50 velocity=0 time=92\n",
      "note_on channel=10 note=50 velocity=127 time=4\n",
      "note_off channel=10 note=50 velocity=0 time=92\n",
      "note_on channel=10 note=52 velocity=127 time=4\n",
      "note_off channel=10 note=52 velocity=0 time=92\n",
      "note_on channel=10 note=52 velocity=127 time=100\n",
      "note_off channel=10 note=52 velocity=0 time=92\n",
      "note_on channel=10 note=52 velocity=127 time=4\n",
      "note_off channel=10 note=52 velocity=0 time=92\n",
      "note_on channel=10 note=52 velocity=127 time=4\n",
      "note_off channel=10 note=52 velocity=0 time=92\n",
      "note_on channel=10 note=52 velocity=127 time=100\n",
      "note_off channel=10 note=52 velocity=0 time=92\n",
      "note_on channel=10 note=52 velocity=127 time=4\n",
      "note_off channel=10 note=52 velocity=0 time=92\n",
      "note_on channel=10 note=52 velocity=127 time=4\n",
      "note_off channel=10 note=52 velocity=0 time=92\n",
      "note_on channel=10 note=52 velocity=127 time=100\n",
      "note_off channel=10 note=52 velocity=0 time=92\n",
      "note_on channel=10 note=52 velocity=127 time=4\n",
      "note_off channel=10 note=52 velocity=0 time=92\n",
      "note_on channel=10 note=52 velocity=127 time=4\n",
      "note_off channel=10 note=52 velocity=0 time=92\n",
      "note_on channel=10 note=52 velocity=127 time=100\n",
      "note_off channel=10 note=52 velocity=0 time=92\n",
      "note_on channel=10 note=52 velocity=127 time=4\n",
      "note_off channel=10 note=52 velocity=0 time=92\n",
      "note_on channel=10 note=45 velocity=127 time=4\n",
      "note_off channel=10 note=45 velocity=0 time=92\n",
      "note_on channel=10 note=45 velocity=127 time=100\n",
      "note_off channel=10 note=45 velocity=0 time=92\n",
      "note_on channel=10 note=45 velocity=127 time=4\n",
      "note_off channel=10 note=45 velocity=0 time=92\n",
      "note_on channel=10 note=45 velocity=127 time=4\n",
      "note_off channel=10 note=45 velocity=0 time=92\n",
      "note_on channel=10 note=45 velocity=127 time=100\n",
      "note_off channel=10 note=45 velocity=0 time=92\n",
      "note_on channel=10 note=45 velocity=127 time=4\n",
      "note_off channel=10 note=45 velocity=0 time=92\n",
      "note_on channel=10 note=44 velocity=127 time=4\n",
      "note_off channel=10 note=44 velocity=0 time=92\n",
      "note_on channel=10 note=44 velocity=127 time=100\n",
      "note_off channel=10 note=44 velocity=0 time=92\n",
      "note_on channel=10 note=44 velocity=127 time=4\n",
      "note_off channel=10 note=44 velocity=0 time=92\n",
      "note_on channel=10 note=44 velocity=127 time=4\n",
      "note_off channel=10 note=44 velocity=0 time=92\n",
      "note_on channel=10 note=44 velocity=127 time=100\n",
      "note_off channel=10 note=44 velocity=0 time=92\n",
      "note_on channel=10 note=44 velocity=127 time=4\n",
      "note_off channel=10 note=44 velocity=0 time=92\n",
      "note_on channel=10 note=42 velocity=127 time=4\n",
      "note_off channel=10 note=42 velocity=0 time=92\n",
      "note_on channel=10 note=42 velocity=127 time=100\n",
      "note_off channel=10 note=42 velocity=0 time=92\n",
      "note_on channel=10 note=42 velocity=127 time=4\n",
      "note_off channel=10 note=42 velocity=0 time=92\n",
      "note_on channel=10 note=42 velocity=127 time=4\n",
      "note_off channel=10 note=42 velocity=0 time=92\n",
      "note_on channel=10 note=42 velocity=127 time=100\n",
      "note_off channel=10 note=42 velocity=0 time=92\n",
      "note_on channel=10 note=42 velocity=127 time=4\n",
      "note_off channel=10 note=42 velocity=0 time=92\n",
      "note_on channel=10 note=40 velocity=127 time=4\n",
      "note_off channel=10 note=40 velocity=0 time=92\n",
      "note_on channel=10 note=40 velocity=127 time=100\n",
      "note_off channel=10 note=40 velocity=0 time=92\n",
      "note_on channel=10 note=40 velocity=127 time=4\n",
      "note_off channel=10 note=40 velocity=0 time=92\n",
      "note_on channel=10 note=40 velocity=127 time=4\n",
      "note_off channel=10 note=40 velocity=0 time=92\n",
      "note_on channel=10 note=40 velocity=127 time=100\n",
      "note_off channel=10 note=40 velocity=0 time=92\n",
      "note_on channel=10 note=40 velocity=127 time=4\n",
      "note_off channel=10 note=40 velocity=0 time=92\n",
      "note_on channel=10 note=50 velocity=127 time=4\n",
      "note_off channel=10 note=50 velocity=0 time=92\n",
      "note_on channel=10 note=50 velocity=127 time=100\n",
      "note_off channel=10 note=50 velocity=0 time=92\n",
      "note_on channel=10 note=50 velocity=127 time=4\n",
      "note_off channel=10 note=50 velocity=0 time=92\n",
      "note_on channel=10 note=50 velocity=127 time=4\n",
      "note_off channel=10 note=50 velocity=0 time=92\n",
      "note_on channel=10 note=50 velocity=127 time=100\n",
      "note_off channel=10 note=50 velocity=0 time=92\n",
      "note_on channel=10 note=50 velocity=127 time=4\n",
      "note_off channel=10 note=50 velocity=0 time=92\n",
      "note_on channel=10 note=50 velocity=127 time=4\n",
      "note_off channel=10 note=50 velocity=0 time=92\n",
      "note_on channel=10 note=50 velocity=127 time=100\n",
      "note_off channel=10 note=50 velocity=0 time=92\n",
      "note_on channel=10 note=50 velocity=127 time=4\n",
      "note_off channel=10 note=50 velocity=0 time=92\n",
      "note_on channel=10 note=50 velocity=127 time=4\n",
      "note_off channel=10 note=50 velocity=0 time=92\n",
      "note_on channel=10 note=50 velocity=127 time=100\n",
      "note_off channel=10 note=50 velocity=0 time=92\n",
      "note_on channel=10 note=50 velocity=127 time=4\n",
      "note_off channel=10 note=50 velocity=0 time=92\n",
      "note_on channel=10 note=49 velocity=127 time=4\n",
      "note_off channel=10 note=49 velocity=0 time=92\n",
      "note_on channel=10 note=49 velocity=127 time=100\n",
      "note_off channel=10 note=49 velocity=0 time=92\n",
      "note_on channel=10 note=49 velocity=127 time=4\n",
      "note_off channel=10 note=49 velocity=0 time=92\n",
      "note_on channel=10 note=49 velocity=127 time=4\n",
      "note_off channel=10 note=49 velocity=0 time=92\n",
      "note_on channel=10 note=49 velocity=127 time=100\n",
      "note_off channel=10 note=49 velocity=0 time=92\n",
      "note_on channel=10 note=49 velocity=127 time=4\n",
      "note_off channel=10 note=49 velocity=0 time=92\n",
      "note_on channel=10 note=49 velocity=127 time=4\n",
      "note_off channel=10 note=49 velocity=0 time=92\n",
      "note_on channel=10 note=49 velocity=127 time=100\n",
      "note_off channel=10 note=49 velocity=0 time=92\n",
      "note_on channel=10 note=49 velocity=127 time=4\n",
      "note_off channel=10 note=49 velocity=0 time=92\n",
      "note_on channel=10 note=49 velocity=127 time=4\n",
      "note_off channel=10 note=49 velocity=0 time=92\n",
      "note_on channel=10 note=49 velocity=127 time=100\n",
      "note_off channel=10 note=49 velocity=0 time=92\n",
      "note_on channel=10 note=49 velocity=127 time=4\n",
      "note_off channel=10 note=49 velocity=0 time=92\n",
      "note_on channel=10 note=52 velocity=127 time=196\n",
      "note_off channel=10 note=52 velocity=0 time=82\n",
      "note_on channel=10 note=52 velocity=127 time=110\n",
      "note_off channel=10 note=52 velocity=0 time=278\n",
      "note_on channel=10 note=52 velocity=127 time=106\n",
      "note_off channel=10 note=52 velocity=0 time=98\n",
      "note_on channel=10 note=52 velocity=127 time=94\n",
      "note_off channel=10 note=52 velocity=0 time=284\n",
      "note_on channel=10 note=52 velocity=127 time=100\n",
      "note_off channel=10 note=52 velocity=0 time=514\n",
      "note_on channel=10 note=42 velocity=127 time=1214\n",
      "note_off channel=10 note=42 velocity=0 time=92\n",
      "note_on channel=10 note=42 velocity=127 time=100\n",
      "note_off channel=10 note=42 velocity=0 time=92\n",
      "note_on channel=10 note=42 velocity=127 time=4\n",
      "note_off channel=10 note=42 velocity=0 time=92\n",
      "note_on channel=10 note=42 velocity=127 time=4\n",
      "note_off channel=10 note=42 velocity=0 time=92\n",
      "note_on channel=10 note=42 velocity=127 time=100\n",
      "note_off channel=10 note=42 velocity=0 time=92\n",
      "note_on channel=10 note=42 velocity=127 time=4\n",
      "note_off channel=10 note=42 velocity=0 time=92\n",
      "note_on channel=10 note=42 velocity=127 time=4\n",
      "note_off channel=10 note=42 velocity=0 time=92\n",
      "note_on channel=10 note=42 velocity=127 time=100\n",
      "note_off channel=10 note=42 velocity=0 time=92\n",
      "note_on channel=10 note=42 velocity=127 time=4\n",
      "note_off channel=10 note=42 velocity=0 time=92\n",
      "note_on channel=10 note=42 velocity=127 time=4\n",
      "note_off channel=10 note=42 velocity=0 time=92\n",
      "note_on channel=10 note=42 velocity=127 time=100\n",
      "note_off channel=10 note=42 velocity=0 time=92\n",
      "note_on channel=10 note=38 velocity=127 time=100\n",
      "note_off channel=10 note=38 velocity=0 time=92\n",
      "note_on channel=10 note=38 velocity=127 time=100\n",
      "note_off channel=10 note=38 velocity=0 time=92\n",
      "note_on channel=10 note=38 velocity=127 time=4\n",
      "note_off channel=10 note=38 velocity=0 time=92\n",
      "note_on channel=10 note=38 velocity=127 time=4\n",
      "note_off channel=10 note=38 velocity=0 time=92\n",
      "note_on channel=10 note=38 velocity=127 time=100\n",
      "note_off channel=10 note=38 velocity=0 time=92\n",
      "note_on channel=10 note=38 velocity=127 time=4\n",
      "note_off channel=10 note=38 velocity=0 time=92\n",
      "note_on channel=10 note=38 velocity=127 time=4\n",
      "note_off channel=10 note=38 velocity=0 time=92\n",
      "note_on channel=10 note=38 velocity=127 time=100\n",
      "note_off channel=10 note=38 velocity=0 time=92\n",
      "note_on channel=10 note=38 velocity=127 time=4\n",
      "note_off channel=10 note=38 velocity=0 time=92\n",
      "note_on channel=10 note=38 velocity=127 time=4\n",
      "note_off channel=10 note=38 velocity=0 time=92\n",
      "note_on channel=10 note=38 velocity=127 time=100\n",
      "note_off channel=10 note=38 velocity=0 time=92\n",
      "note_on channel=10 note=47 velocity=127 time=100\n",
      "note_off channel=10 note=47 velocity=0 time=92\n",
      "note_on channel=10 note=47 velocity=127 time=100\n",
      "note_off channel=10 note=47 velocity=0 time=92\n",
      "note_on channel=10 note=47 velocity=127 time=4\n",
      "note_off channel=10 note=47 velocity=0 time=92\n",
      "note_on channel=10 note=47 velocity=127 time=4\n",
      "note_off channel=10 note=47 velocity=0 time=92\n",
      "note_on channel=10 note=47 velocity=127 time=100\n",
      "note_off channel=10 note=47 velocity=0 time=92\n",
      "note_on channel=10 note=47 velocity=127 time=4\n",
      "note_off channel=10 note=47 velocity=0 time=92\n",
      "note_on channel=10 note=47 velocity=127 time=4\n",
      "note_off channel=10 note=47 velocity=0 time=92\n",
      "note_on channel=10 note=47 velocity=127 time=100\n",
      "note_off channel=10 note=47 velocity=0 time=92\n",
      "note_on channel=10 note=47 velocity=127 time=4\n",
      "note_off channel=10 note=47 velocity=0 time=92\n",
      "note_on channel=10 note=47 velocity=127 time=4\n",
      "note_off channel=10 note=47 velocity=0 time=92\n",
      "note_on channel=10 note=47 velocity=127 time=100\n",
      "note_off channel=10 note=47 velocity=0 time=92\n",
      "note_on channel=10 note=40 velocity=127 time=100\n",
      "note_off channel=10 note=40 velocity=0 time=92\n",
      "note_on channel=10 note=40 velocity=127 time=100\n",
      "note_off channel=10 note=40 velocity=0 time=92\n",
      "note_on channel=10 note=40 velocity=127 time=4\n",
      "note_off channel=10 note=40 velocity=0 time=92\n",
      "note_on channel=10 note=40 velocity=127 time=4\n",
      "note_off channel=10 note=40 velocity=0 time=92\n",
      "note_on channel=10 note=40 velocity=127 time=100\n",
      "note_off channel=10 note=40 velocity=0 time=92\n",
      "note_on channel=10 note=40 velocity=127 time=4\n",
      "note_off channel=10 note=40 velocity=0 time=92\n",
      "note_on channel=10 note=40 velocity=127 time=4\n",
      "note_off channel=10 note=40 velocity=0 time=92\n",
      "note_on channel=10 note=40 velocity=127 time=100\n",
      "note_off channel=10 note=40 velocity=0 time=92\n",
      "note_on channel=10 note=40 velocity=127 time=4\n",
      "note_off channel=10 note=40 velocity=0 time=92\n",
      "note_on channel=10 note=40 velocity=127 time=4\n",
      "note_off channel=10 note=40 velocity=0 time=92\n",
      "note_on channel=10 note=40 velocity=127 time=100\n",
      "note_off channel=10 note=40 velocity=0 time=92\n",
      "note_on channel=10 note=42 velocity=127 time=100\n",
      "note_off channel=10 note=42 velocity=0 time=92\n",
      "note_on channel=10 note=42 velocity=127 time=100\n",
      "note_off channel=10 note=42 velocity=0 time=92\n",
      "note_on channel=10 note=42 velocity=127 time=4\n",
      "note_off channel=10 note=42 velocity=0 time=92\n",
      "note_on channel=10 note=42 velocity=127 time=4\n",
      "note_off channel=10 note=42 velocity=0 time=92\n",
      "note_on channel=10 note=42 velocity=127 time=100\n",
      "note_off channel=10 note=42 velocity=0 time=92\n",
      "note_on channel=10 note=42 velocity=127 time=4\n",
      "note_off channel=10 note=42 velocity=0 time=92\n",
      "note_on channel=10 note=42 velocity=127 time=4\n",
      "note_off channel=10 note=42 velocity=0 time=92\n",
      "note_on channel=10 note=42 velocity=127 time=100\n",
      "note_off channel=10 note=42 velocity=0 time=92\n",
      "note_on channel=10 note=42 velocity=127 time=4\n",
      "note_off channel=10 note=42 velocity=0 time=92\n",
      "note_on channel=10 note=42 velocity=127 time=4\n",
      "note_off channel=10 note=42 velocity=0 time=92\n",
      "note_on channel=10 note=42 velocity=127 time=100\n",
      "note_off channel=10 note=42 velocity=0 time=92\n",
      "note_on channel=10 note=38 velocity=127 time=100\n",
      "note_off channel=10 note=38 velocity=0 time=92\n",
      "note_on channel=10 note=38 velocity=127 time=100\n",
      "note_off channel=10 note=38 velocity=0 time=92\n",
      "note_on channel=10 note=38 velocity=127 time=4\n",
      "note_off channel=10 note=38 velocity=0 time=92\n",
      "note_on channel=10 note=38 velocity=127 time=4\n",
      "note_off channel=10 note=38 velocity=0 time=92\n",
      "note_on channel=10 note=38 velocity=127 time=100\n",
      "note_off channel=10 note=38 velocity=0 time=92\n",
      "note_on channel=10 note=38 velocity=127 time=4\n",
      "note_off channel=10 note=38 velocity=0 time=92\n",
      "note_on channel=10 note=38 velocity=127 time=4\n",
      "note_off channel=10 note=38 velocity=0 time=92\n",
      "note_on channel=10 note=38 velocity=127 time=100\n",
      "note_off channel=10 note=38 velocity=0 time=92\n",
      "note_on channel=10 note=38 velocity=127 time=4\n",
      "note_off channel=10 note=38 velocity=0 time=92\n",
      "note_on channel=10 note=38 velocity=127 time=4\n",
      "note_off channel=10 note=38 velocity=0 time=92\n",
      "note_on channel=10 note=38 velocity=127 time=100\n",
      "note_off channel=10 note=38 velocity=0 time=92\n",
      "note_on channel=10 note=47 velocity=127 time=100\n",
      "note_off channel=10 note=47 velocity=0 time=92\n",
      "note_on channel=10 note=47 velocity=127 time=100\n",
      "note_off channel=10 note=47 velocity=0 time=92\n",
      "note_on channel=10 note=47 velocity=127 time=4\n",
      "note_off channel=10 note=47 velocity=0 time=92\n",
      "note_on channel=10 note=47 velocity=127 time=4\n",
      "note_off channel=10 note=47 velocity=0 time=92\n",
      "note_on channel=10 note=47 velocity=127 time=100\n",
      "note_off channel=10 note=47 velocity=0 time=92\n",
      "note_on channel=10 note=47 velocity=127 time=4\n",
      "note_off channel=10 note=47 velocity=0 time=92\n",
      "note_on channel=10 note=47 velocity=127 time=4\n",
      "note_off channel=10 note=47 velocity=0 time=92\n",
      "note_on channel=10 note=47 velocity=127 time=100\n",
      "note_off channel=10 note=47 velocity=0 time=92\n",
      "note_on channel=10 note=47 velocity=127 time=4\n",
      "note_off channel=10 note=47 velocity=0 time=92\n",
      "note_on channel=10 note=47 velocity=127 time=4\n",
      "note_off channel=10 note=47 velocity=0 time=92\n",
      "note_on channel=10 note=47 velocity=127 time=100\n",
      "note_off channel=10 note=47 velocity=0 time=92\n",
      "note_on channel=10 note=40 velocity=127 time=100\n",
      "note_off channel=10 note=40 velocity=0 time=92\n",
      "note_on channel=10 note=40 velocity=127 time=100\n",
      "note_off channel=10 note=40 velocity=0 time=92\n",
      "note_on channel=10 note=40 velocity=127 time=4\n",
      "note_off channel=10 note=40 velocity=0 time=92\n",
      "note_on channel=10 note=40 velocity=127 time=4\n",
      "note_off channel=10 note=40 velocity=0 time=92\n",
      "note_on channel=10 note=40 velocity=127 time=100\n",
      "note_off channel=10 note=40 velocity=0 time=92\n",
      "note_on channel=10 note=40 velocity=127 time=4\n",
      "note_off channel=10 note=40 velocity=0 time=92\n",
      "note_on channel=10 note=40 velocity=127 time=4\n",
      "note_off channel=10 note=40 velocity=0 time=92\n",
      "note_on channel=10 note=40 velocity=127 time=100\n",
      "note_off channel=10 note=40 velocity=0 time=92\n",
      "note_on channel=10 note=40 velocity=127 time=4\n",
      "note_off channel=10 note=40 velocity=0 time=92\n",
      "note_on channel=10 note=40 velocity=127 time=4\n",
      "note_off channel=10 note=40 velocity=0 time=92\n",
      "note_on channel=10 note=40 velocity=127 time=100\n",
      "note_off channel=10 note=40 velocity=0 time=92\n",
      "note_on channel=10 note=42 velocity=127 time=100\n",
      "note_off channel=10 note=42 velocity=0 time=92\n",
      "note_on channel=10 note=42 velocity=127 time=100\n",
      "note_off channel=10 note=42 velocity=0 time=92\n",
      "note_on channel=10 note=42 velocity=127 time=4\n",
      "note_off channel=10 note=42 velocity=0 time=92\n",
      "note_on channel=10 note=42 velocity=127 time=4\n",
      "note_off channel=10 note=42 velocity=0 time=92\n",
      "note_on channel=10 note=42 velocity=127 time=100\n",
      "note_off channel=10 note=42 velocity=0 time=92\n",
      "note_on channel=10 note=42 velocity=127 time=4\n",
      "note_off channel=10 note=42 velocity=0 time=92\n",
      "note_on channel=10 note=44 velocity=127 time=4\n",
      "note_off channel=10 note=44 velocity=0 time=92\n",
      "note_on channel=10 note=44 velocity=127 time=100\n",
      "note_off channel=10 note=44 velocity=0 time=92\n",
      "note_on channel=10 note=44 velocity=127 time=4\n",
      "note_off channel=10 note=44 velocity=0 time=92\n",
      "note_on channel=10 note=44 velocity=127 time=4\n",
      "note_off channel=10 note=44 velocity=0 time=92\n",
      "note_on channel=10 note=44 velocity=127 time=100\n",
      "note_off channel=10 note=44 velocity=0 time=92\n",
      "note_on channel=10 note=44 velocity=127 time=4\n",
      "note_off channel=10 note=44 velocity=0 time=92\n",
      "note_on channel=10 note=45 velocity=127 time=4\n",
      "note_off channel=10 note=45 velocity=0 time=92\n",
      "note_on channel=10 note=45 velocity=127 time=100\n",
      "note_off channel=10 note=45 velocity=0 time=92\n",
      "note_on channel=10 note=45 velocity=127 time=4\n",
      "note_off channel=10 note=45 velocity=0 time=92\n",
      "note_on channel=10 note=45 velocity=127 time=4\n",
      "note_off channel=10 note=45 velocity=0 time=92\n",
      "note_on channel=10 note=45 velocity=127 time=100\n",
      "note_off channel=10 note=45 velocity=0 time=92\n",
      "note_on channel=10 note=45 velocity=127 time=4\n",
      "note_off channel=10 note=45 velocity=0 time=92\n",
      "note_on channel=10 note=50 velocity=127 time=4\n",
      "note_off channel=10 note=50 velocity=0 time=92\n",
      "note_on channel=10 note=50 velocity=127 time=100\n",
      "note_off channel=10 note=50 velocity=0 time=92\n",
      "note_on channel=10 note=50 velocity=127 time=4\n",
      "note_off channel=10 note=50 velocity=0 time=92\n",
      "note_on channel=10 note=50 velocity=127 time=4\n",
      "note_off channel=10 note=50 velocity=0 time=92\n",
      "note_on channel=10 note=50 velocity=127 time=100\n",
      "note_off channel=10 note=50 velocity=0 time=92\n",
      "note_on channel=10 note=50 velocity=127 time=4\n",
      "note_off channel=10 note=50 velocity=0 time=92\n",
      "note_on channel=10 note=49 velocity=127 time=4\n",
      "note_off channel=10 note=49 velocity=0 time=92\n",
      "note_on channel=10 note=49 velocity=127 time=100\n",
      "note_off channel=10 note=49 velocity=0 time=92\n",
      "note_on channel=10 note=49 velocity=127 time=4\n",
      "note_off channel=10 note=49 velocity=0 time=92\n",
      "note_on channel=10 note=49 velocity=127 time=4\n",
      "note_off channel=10 note=49 velocity=0 time=92\n",
      "note_on channel=10 note=49 velocity=127 time=100\n",
      "note_off channel=10 note=49 velocity=0 time=92\n",
      "note_on channel=10 note=49 velocity=127 time=4\n",
      "note_off channel=10 note=49 velocity=0 time=92\n",
      "note_on channel=10 note=49 velocity=127 time=4\n",
      "note_off channel=10 note=49 velocity=0 time=92\n",
      "note_on channel=10 note=49 velocity=127 time=100\n",
      "note_off channel=10 note=49 velocity=0 time=92\n",
      "note_on channel=10 note=49 velocity=127 time=4\n",
      "note_off channel=10 note=49 velocity=0 time=92\n",
      "note_on channel=10 note=49 velocity=127 time=4\n",
      "note_off channel=10 note=49 velocity=0 time=92\n",
      "note_on channel=10 note=49 velocity=127 time=100\n",
      "note_off channel=10 note=49 velocity=0 time=92\n",
      "note_on channel=10 note=49 velocity=127 time=4\n",
      "note_off channel=10 note=49 velocity=0 time=92\n",
      "note_on channel=10 note=49 velocity=127 time=4\n",
      "note_off channel=10 note=49 velocity=0 time=92\n",
      "note_on channel=10 note=49 velocity=127 time=100\n",
      "note_off channel=10 note=49 velocity=0 time=92\n",
      "note_on channel=10 note=49 velocity=127 time=4\n",
      "note_off channel=10 note=49 velocity=0 time=92\n",
      "note_on channel=10 note=49 velocity=127 time=4\n",
      "note_off channel=10 note=49 velocity=0 time=92\n",
      "note_on channel=10 note=49 velocity=127 time=100\n",
      "note_off channel=10 note=49 velocity=0 time=92\n",
      "note_on channel=10 note=49 velocity=127 time=4\n",
      "note_off channel=10 note=49 velocity=0 time=92\n",
      "note_on channel=10 note=49 velocity=127 time=4\n",
      "note_off channel=10 note=49 velocity=0 time=92\n",
      "note_on channel=10 note=49 velocity=127 time=100\n",
      "note_off channel=10 note=49 velocity=0 time=92\n",
      "note_on channel=10 note=49 velocity=127 time=4\n",
      "note_off channel=10 note=49 velocity=0 time=92\n",
      "note_on channel=10 note=49 velocity=127 time=4\n",
      "note_off channel=10 note=49 velocity=0 time=92\n",
      "note_on channel=10 note=49 velocity=127 time=100\n",
      "note_off channel=10 note=49 velocity=0 time=92\n",
      "note_on channel=10 note=49 velocity=127 time=4\n",
      "note_off channel=10 note=49 velocity=0 time=92\n",
      "note_on channel=10 note=42 velocity=127 time=4\n",
      "note_on channel=10 note=47 velocity=127 time=3072\n",
      "note_off channel=10 note=42 velocity=0 time=54\n",
      "note_off channel=10 note=47 velocity=0 time=38\n",
      "note_on channel=10 note=47 velocity=127 time=100\n",
      "note_off channel=10 note=47 velocity=0 time=92\n",
      "note_on channel=10 note=47 velocity=127 time=4\n",
      "note_off channel=10 note=47 velocity=0 time=92\n",
      "note_on channel=10 note=47 velocity=127 time=4\n",
      "note_off channel=10 note=47 velocity=0 time=92\n",
      "note_on channel=10 note=47 velocity=127 time=100\n",
      "note_off channel=10 note=47 velocity=0 time=92\n",
      "note_on channel=10 note=47 velocity=127 time=4\n",
      "note_off channel=10 note=47 velocity=0 time=92\n",
      "note_on channel=10 note=47 velocity=127 time=4\n",
      "note_off channel=10 note=47 velocity=0 time=92\n",
      "note_on channel=10 note=47 velocity=127 time=100\n",
      "note_off channel=10 note=47 velocity=0 time=92\n",
      "note_on channel=10 note=47 velocity=127 time=4\n",
      "note_off channel=10 note=47 velocity=0 time=92\n",
      "note_on channel=10 note=47 velocity=127 time=4\n",
      "note_off channel=10 note=47 velocity=0 time=92\n",
      "note_on channel=10 note=47 velocity=127 time=100\n",
      "note_off channel=10 note=47 velocity=0 time=92\n",
      "note_on channel=10 note=45 velocity=127 time=100\n",
      "note_off channel=10 note=45 velocity=0 time=92\n",
      "note_on channel=10 note=45 velocity=127 time=100\n",
      "note_off channel=10 note=45 velocity=0 time=92\n",
      "note_on channel=10 note=45 velocity=127 time=4\n",
      "note_off channel=10 note=45 velocity=0 time=92\n",
      "note_on channel=10 note=45 velocity=127 time=4\n",
      "note_off channel=10 note=45 velocity=0 time=92\n",
      "note_on channel=10 note=45 velocity=127 time=100\n",
      "note_off channel=10 note=45 velocity=0 time=92\n",
      "note_on channel=10 note=45 velocity=127 time=4\n",
      "note_off channel=10 note=45 velocity=0 time=92\n",
      "note_on channel=10 note=45 velocity=127 time=4\n",
      "note_off channel=10 note=45 velocity=0 time=92\n",
      "note_on channel=10 note=45 velocity=127 time=100\n",
      "note_off channel=10 note=45 velocity=0 time=92\n",
      "note_on channel=10 note=45 velocity=127 time=4\n",
      "note_off channel=10 note=45 velocity=0 time=92\n",
      "note_on channel=10 note=45 velocity=127 time=4\n",
      "note_off channel=10 note=45 velocity=0 time=92\n",
      "note_on channel=10 note=45 velocity=127 time=100\n",
      "note_off channel=10 note=45 velocity=0 time=92\n",
      "note_on channel=10 note=50 velocity=127 time=100\n",
      "note_off channel=10 note=50 velocity=0 time=92\n",
      "note_on channel=10 note=50 velocity=127 time=100\n",
      "note_off channel=10 note=50 velocity=0 time=92\n",
      "note_on channel=10 note=50 velocity=127 time=4\n",
      "note_off channel=10 note=50 velocity=0 time=92\n",
      "note_on channel=10 note=50 velocity=127 time=4\n",
      "note_off channel=10 note=50 velocity=0 time=92\n",
      "note_on channel=10 note=50 velocity=127 time=100\n",
      "note_off channel=10 note=50 velocity=0 time=92\n",
      "note_on channel=10 note=50 velocity=127 time=4\n",
      "note_off channel=10 note=50 velocity=0 time=92\n",
      "note_on channel=10 note=50 velocity=127 time=4\n",
      "note_off channel=10 note=50 velocity=0 time=92\n",
      "note_on channel=10 note=50 velocity=127 time=100\n",
      "note_off channel=10 note=50 velocity=0 time=92\n",
      "note_on channel=10 note=50 velocity=127 time=4\n",
      "note_off channel=10 note=50 velocity=0 time=92\n",
      "note_on channel=10 note=50 velocity=127 time=4\n",
      "note_off channel=10 note=50 velocity=0 time=92\n",
      "note_on channel=10 note=50 velocity=127 time=100\n",
      "note_off channel=10 note=50 velocity=0 time=92\n",
      "note_on channel=10 note=43 velocity=127 time=100\n",
      "note_off channel=10 note=43 velocity=0 time=92\n",
      "note_on channel=10 note=43 velocity=127 time=100\n",
      "note_off channel=10 note=43 velocity=0 time=92\n",
      "note_on channel=10 note=43 velocity=127 time=4\n",
      "note_off channel=10 note=43 velocity=0 time=92\n",
      "note_on channel=10 note=43 velocity=127 time=4\n",
      "note_off channel=10 note=43 velocity=0 time=92\n",
      "note_on channel=10 note=43 velocity=127 time=100\n",
      "note_off channel=10 note=43 velocity=0 time=92\n",
      "note_on channel=10 note=43 velocity=127 time=4\n",
      "note_off channel=10 note=43 velocity=0 time=92\n",
      "note_on channel=10 note=42 velocity=127 time=4\n",
      "note_off channel=10 note=42 velocity=0 time=92\n",
      "note_on channel=10 note=42 velocity=127 time=100\n",
      "note_off channel=10 note=42 velocity=0 time=92\n",
      "note_on channel=10 note=42 velocity=127 time=4\n",
      "note_off channel=10 note=42 velocity=0 time=92\n",
      "note_on channel=10 note=42 velocity=127 time=4\n",
      "note_off channel=10 note=42 velocity=0 time=92\n",
      "note_on channel=10 note=42 velocity=127 time=100\n",
      "note_off channel=10 note=42 velocity=0 time=92\n",
      "note_on channel=10 note=40 velocity=127 time=100\n",
      "note_off channel=10 note=40 velocity=0 time=92\n",
      "note_on channel=10 note=40 velocity=127 time=100\n",
      "note_off channel=10 note=40 velocity=0 time=92\n",
      "note_on channel=10 note=40 velocity=127 time=4\n",
      "note_off channel=10 note=40 velocity=0 time=92\n",
      "note_on channel=10 note=40 velocity=127 time=4\n",
      "note_off channel=10 note=40 velocity=0 time=92\n",
      "note_on channel=10 note=40 velocity=127 time=100\n",
      "note_off channel=10 note=40 velocity=0 time=92\n",
      "note_on channel=10 note=40 velocity=127 time=4\n",
      "note_off channel=10 note=40 velocity=0 time=92\n",
      "note_on channel=10 note=40 velocity=127 time=4\n",
      "note_off channel=10 note=40 velocity=0 time=92\n",
      "note_on channel=10 note=40 velocity=127 time=100\n",
      "note_off channel=10 note=40 velocity=0 time=92\n",
      "note_on channel=10 note=40 velocity=127 time=4\n",
      "note_off channel=10 note=40 velocity=0 time=92\n",
      "note_on channel=10 note=40 velocity=127 time=4\n",
      "note_off channel=10 note=40 velocity=0 time=92\n",
      "note_on channel=10 note=40 velocity=127 time=100\n",
      "note_off channel=10 note=40 velocity=0 time=92\n",
      "note_on channel=10 note=45 velocity=127 time=100\n",
      "note_off channel=10 note=45 velocity=0 time=92\n",
      "note_on channel=10 note=45 velocity=127 time=100\n",
      "note_off channel=10 note=45 velocity=0 time=92\n",
      "note_on channel=10 note=45 velocity=127 time=4\n",
      "note_off channel=10 note=45 velocity=0 time=92\n",
      "note_on channel=10 note=45 velocity=127 time=4\n",
      "note_off channel=10 note=45 velocity=0 time=92\n",
      "note_on channel=10 note=45 velocity=127 time=100\n",
      "note_off channel=10 note=45 velocity=0 time=92\n",
      "note_on channel=10 note=45 velocity=127 time=4\n",
      "note_off channel=10 note=45 velocity=0 time=92\n",
      "note_on channel=10 note=45 velocity=127 time=4\n",
      "note_off channel=10 note=45 velocity=0 time=92\n",
      "note_on channel=10 note=45 velocity=127 time=100\n",
      "note_off channel=10 note=45 velocity=0 time=92\n",
      "note_on channel=10 note=45 velocity=127 time=4\n",
      "note_off channel=10 note=45 velocity=0 time=92\n",
      "note_on channel=10 note=45 velocity=127 time=4\n",
      "note_off channel=10 note=45 velocity=0 time=92\n",
      "note_on channel=10 note=45 velocity=127 time=100\n",
      "note_off channel=10 note=45 velocity=0 time=92\n",
      "note_on channel=10 note=47 velocity=127 time=100\n",
      "note_off channel=10 note=47 velocity=0 time=92\n",
      "note_on channel=10 note=47 velocity=127 time=100\n",
      "note_off channel=10 note=47 velocity=0 time=92\n",
      "note_on channel=10 note=47 velocity=127 time=4\n",
      "note_off channel=10 note=47 velocity=0 time=92\n",
      "note_on channel=10 note=47 velocity=127 time=4\n",
      "note_off channel=10 note=47 velocity=0 time=92\n",
      "note_on channel=10 note=47 velocity=127 time=100\n",
      "note_off channel=10 note=47 velocity=0 time=92\n",
      "note_on channel=10 note=47 velocity=127 time=4\n",
      "note_off channel=10 note=47 velocity=0 time=92\n",
      "note_on channel=10 note=47 velocity=127 time=4\n",
      "note_off channel=10 note=47 velocity=0 time=92\n",
      "note_on channel=10 note=47 velocity=127 time=100\n",
      "note_off channel=10 note=47 velocity=0 time=92\n",
      "note_on channel=10 note=47 velocity=127 time=4\n",
      "note_off channel=10 note=47 velocity=0 time=92\n",
      "note_on channel=10 note=47 velocity=127 time=4\n",
      "note_off channel=10 note=47 velocity=0 time=92\n",
      "note_on channel=10 note=47 velocity=127 time=100\n",
      "note_off channel=10 note=47 velocity=0 time=92\n",
      "note_on channel=10 note=42 velocity=127 time=100\n",
      "note_off channel=10 note=42 velocity=0 time=92\n",
      "note_on channel=10 note=42 velocity=127 time=100\n",
      "note_off channel=10 note=42 velocity=0 time=92\n",
      "note_on channel=10 note=42 velocity=127 time=4\n",
      "note_off channel=10 note=42 velocity=0 time=92\n",
      "note_on channel=10 note=42 velocity=127 time=4\n",
      "note_off channel=10 note=42 velocity=0 time=92\n",
      "note_on channel=10 note=42 velocity=127 time=100\n",
      "note_off channel=10 note=42 velocity=0 time=92\n",
      "note_on channel=10 note=42 velocity=127 time=4\n",
      "note_off channel=10 note=42 velocity=0 time=92\n",
      "note_on channel=10 note=42 velocity=127 time=4\n",
      "note_off channel=10 note=42 velocity=0 time=92\n",
      "note_on channel=10 note=42 velocity=127 time=100\n",
      "note_off channel=10 note=42 velocity=0 time=92\n",
      "note_on channel=10 note=42 velocity=127 time=4\n",
      "note_off channel=10 note=42 velocity=0 time=92\n",
      "note_on channel=10 note=42 velocity=127 time=4\n",
      "note_off channel=10 note=42 velocity=0 time=92\n",
      "note_on channel=10 note=42 velocity=127 time=100\n",
      "note_off channel=10 note=42 velocity=0 time=92\n",
      "note_on channel=10 note=47 velocity=127 time=100\n",
      "note_off channel=10 note=47 velocity=0 time=92\n",
      "note_on channel=10 note=47 velocity=127 time=100\n",
      "note_off channel=10 note=47 velocity=0 time=92\n",
      "note_on channel=10 note=47 velocity=127 time=4\n",
      "note_off channel=10 note=47 velocity=0 time=92\n",
      "note_on channel=10 note=47 velocity=127 time=4\n",
      "note_off channel=10 note=47 velocity=0 time=92\n",
      "note_on channel=10 note=47 velocity=127 time=100\n",
      "note_off channel=10 note=47 velocity=0 time=92\n",
      "note_on channel=10 note=47 velocity=127 time=4\n",
      "note_off channel=10 note=47 velocity=0 time=92\n",
      "note_on channel=10 note=47 velocity=127 time=4\n",
      "note_off channel=10 note=47 velocity=0 time=92\n",
      "note_on channel=10 note=47 velocity=127 time=100\n",
      "note_off channel=10 note=47 velocity=0 time=92\n",
      "note_on channel=10 note=47 velocity=127 time=4\n",
      "note_off channel=10 note=47 velocity=0 time=92\n",
      "note_on channel=10 note=47 velocity=127 time=4\n",
      "note_off channel=10 note=47 velocity=0 time=92\n",
      "note_on channel=10 note=47 velocity=127 time=100\n",
      "note_off channel=10 note=47 velocity=0 time=92\n",
      "note_on channel=10 note=45 velocity=127 time=100\n",
      "note_off channel=10 note=45 velocity=0 time=92\n",
      "note_on channel=10 note=45 velocity=127 time=100\n",
      "note_off channel=10 note=45 velocity=0 time=92\n",
      "note_on channel=10 note=45 velocity=127 time=4\n",
      "note_off channel=10 note=45 velocity=0 time=92\n",
      "note_on channel=10 note=45 velocity=127 time=4\n",
      "note_off channel=10 note=45 velocity=0 time=92\n",
      "note_on channel=10 note=45 velocity=127 time=100\n",
      "note_off channel=10 note=45 velocity=0 time=92\n",
      "note_on channel=10 note=45 velocity=127 time=4\n",
      "note_off channel=10 note=45 velocity=0 time=92\n",
      "note_on channel=10 note=45 velocity=127 time=4\n",
      "note_off channel=10 note=45 velocity=0 time=92\n",
      "note_on channel=10 note=45 velocity=127 time=100\n",
      "note_off channel=10 note=45 velocity=0 time=92\n",
      "note_on channel=10 note=45 velocity=127 time=4\n",
      "note_off channel=10 note=45 velocity=0 time=92\n",
      "note_on channel=10 note=45 velocity=127 time=4\n",
      "note_off channel=10 note=45 velocity=0 time=92\n",
      "note_on channel=10 note=45 velocity=127 time=100\n",
      "note_off channel=10 note=45 velocity=0 time=92\n",
      "note_on channel=10 note=50 velocity=127 time=100\n",
      "note_off channel=10 note=50 velocity=0 time=92\n",
      "note_on channel=10 note=50 velocity=127 time=100\n",
      "note_off channel=10 note=50 velocity=0 time=92\n",
      "note_on channel=10 note=50 velocity=127 time=4\n",
      "note_off channel=10 note=50 velocity=0 time=92\n",
      "note_on channel=10 note=50 velocity=127 time=4\n",
      "note_off channel=10 note=50 velocity=0 time=92\n",
      "note_on channel=10 note=50 velocity=127 time=100\n",
      "note_off channel=10 note=50 velocity=0 time=92\n",
      "note_on channel=10 note=50 velocity=127 time=4\n",
      "note_off channel=10 note=50 velocity=0 time=92\n",
      "note_on channel=10 note=50 velocity=127 time=4\n",
      "note_off channel=10 note=50 velocity=0 time=92\n",
      "note_on channel=10 note=50 velocity=127 time=100\n",
      "note_off channel=10 note=50 velocity=0 time=92\n",
      "note_on channel=10 note=50 velocity=127 time=4\n",
      "note_off channel=10 note=50 velocity=0 time=92\n",
      "note_on channel=10 note=50 velocity=127 time=4\n",
      "note_off channel=10 note=50 velocity=0 time=92\n",
      "note_on channel=10 note=50 velocity=127 time=100\n",
      "note_off channel=10 note=50 velocity=0 time=92\n",
      "note_on channel=10 note=43 velocity=127 time=100\n",
      "note_off channel=10 note=43 velocity=0 time=92\n",
      "note_on channel=10 note=43 velocity=127 time=100\n",
      "note_off channel=10 note=43 velocity=0 time=92\n",
      "note_on channel=10 note=43 velocity=127 time=4\n",
      "note_off channel=10 note=43 velocity=0 time=92\n",
      "note_on channel=10 note=43 velocity=127 time=4\n",
      "note_off channel=10 note=43 velocity=0 time=92\n",
      "note_on channel=10 note=43 velocity=127 time=100\n",
      "note_off channel=10 note=43 velocity=0 time=92\n",
      "note_on channel=10 note=43 velocity=127 time=4\n",
      "note_off channel=10 note=43 velocity=0 time=92\n",
      "note_on channel=10 note=42 velocity=127 time=4\n",
      "note_off channel=10 note=42 velocity=0 time=92\n",
      "note_on channel=10 note=42 velocity=127 time=100\n",
      "note_off channel=10 note=42 velocity=0 time=92\n",
      "note_on channel=10 note=42 velocity=127 time=4\n",
      "note_off channel=10 note=42 velocity=0 time=92\n",
      "note_on channel=10 note=42 velocity=127 time=4\n",
      "note_off channel=10 note=42 velocity=0 time=92\n",
      "note_on channel=10 note=42 velocity=127 time=100\n",
      "note_off channel=10 note=42 velocity=0 time=92\n",
      "note_on channel=10 note=40 velocity=127 time=100\n",
      "note_off channel=10 note=40 velocity=0 time=92\n",
      "note_on channel=10 note=40 velocity=127 time=100\n",
      "note_off channel=10 note=40 velocity=0 time=92\n",
      "note_on channel=10 note=40 velocity=127 time=4\n",
      "note_off channel=10 note=40 velocity=0 time=92\n",
      "note_on channel=10 note=40 velocity=127 time=4\n",
      "note_off channel=10 note=40 velocity=0 time=92\n",
      "note_on channel=10 note=40 velocity=127 time=100\n",
      "note_off channel=10 note=40 velocity=0 time=92\n",
      "note_on channel=10 note=40 velocity=127 time=4\n",
      "note_off channel=10 note=40 velocity=0 time=92\n",
      "note_on channel=10 note=40 velocity=127 time=4\n",
      "note_off channel=10 note=40 velocity=0 time=92\n",
      "note_on channel=10 note=40 velocity=127 time=100\n",
      "note_off channel=10 note=40 velocity=0 time=92\n",
      "note_on channel=10 note=40 velocity=127 time=4\n",
      "note_off channel=10 note=40 velocity=0 time=92\n",
      "note_on channel=10 note=40 velocity=127 time=4\n",
      "note_off channel=10 note=40 velocity=0 time=92\n",
      "note_on channel=10 note=40 velocity=127 time=100\n",
      "note_off channel=10 note=40 velocity=0 time=92\n",
      "note_on channel=10 note=45 velocity=127 time=100\n",
      "note_off channel=10 note=45 velocity=0 time=92\n",
      "note_on channel=10 note=45 velocity=127 time=100\n",
      "note_off channel=10 note=45 velocity=0 time=92\n",
      "note_on channel=10 note=45 velocity=127 time=4\n",
      "note_off channel=10 note=45 velocity=0 time=92\n",
      "note_on channel=10 note=45 velocity=127 time=4\n",
      "note_off channel=10 note=45 velocity=0 time=92\n",
      "note_on channel=10 note=45 velocity=127 time=100\n",
      "note_off channel=10 note=45 velocity=0 time=92\n",
      "note_on channel=10 note=45 velocity=127 time=4\n",
      "note_off channel=10 note=45 velocity=0 time=92\n",
      "note_on channel=10 note=45 velocity=127 time=4\n",
      "note_off channel=10 note=45 velocity=0 time=92\n",
      "note_on channel=10 note=45 velocity=127 time=100\n",
      "note_off channel=10 note=45 velocity=0 time=92\n",
      "note_on channel=10 note=45 velocity=127 time=4\n",
      "note_off channel=10 note=45 velocity=0 time=92\n",
      "note_on channel=10 note=45 velocity=127 time=4\n",
      "note_off channel=10 note=45 velocity=0 time=92\n",
      "note_on channel=10 note=45 velocity=127 time=100\n",
      "note_off channel=10 note=45 velocity=0 time=92\n",
      "note_on channel=10 note=47 velocity=127 time=100\n",
      "note_off channel=10 note=47 velocity=0 time=92\n",
      "note_on channel=10 note=47 velocity=127 time=100\n",
      "note_off channel=10 note=47 velocity=0 time=92\n",
      "note_on channel=10 note=47 velocity=127 time=4\n",
      "note_off channel=10 note=47 velocity=0 time=92\n",
      "note_on channel=10 note=47 velocity=127 time=4\n",
      "note_off channel=10 note=47 velocity=0 time=92\n",
      "note_on channel=10 note=47 velocity=127 time=100\n",
      "note_off channel=10 note=47 velocity=0 time=92\n",
      "note_on channel=10 note=47 velocity=127 time=4\n",
      "note_off channel=10 note=47 velocity=0 time=92\n",
      "note_on channel=10 note=47 velocity=127 time=4\n",
      "note_off channel=10 note=47 velocity=0 time=92\n",
      "note_on channel=10 note=47 velocity=127 time=100\n",
      "note_off channel=10 note=47 velocity=0 time=92\n",
      "note_on channel=10 note=47 velocity=127 time=4\n",
      "note_off channel=10 note=47 velocity=0 time=92\n",
      "note_on channel=10 note=47 velocity=127 time=4\n",
      "note_off channel=10 note=47 velocity=0 time=92\n",
      "note_on channel=10 note=47 velocity=127 time=100\n",
      "note_off channel=10 note=47 velocity=0 time=92\n",
      "note_on channel=10 note=49 velocity=127 time=100\n",
      "note_off channel=10 note=49 velocity=0 time=92\n",
      "note_on channel=10 note=49 velocity=127 time=100\n",
      "note_off channel=10 note=49 velocity=0 time=92\n",
      "note_on channel=10 note=49 velocity=127 time=4\n",
      "note_off channel=10 note=49 velocity=0 time=92\n",
      "note_on channel=10 note=49 velocity=127 time=4\n",
      "note_off channel=10 note=49 velocity=0 time=92\n",
      "note_on channel=10 note=49 velocity=127 time=100\n",
      "note_off channel=10 note=49 velocity=0 time=92\n",
      "note_on channel=10 note=49 velocity=127 time=4\n",
      "note_off channel=10 note=49 velocity=0 time=92\n",
      "note_on channel=10 note=49 velocity=127 time=4\n",
      "note_off channel=10 note=49 velocity=0 time=92\n",
      "note_on channel=10 note=49 velocity=127 time=100\n",
      "note_off channel=10 note=49 velocity=0 time=92\n",
      "note_on channel=10 note=49 velocity=127 time=4\n",
      "note_off channel=10 note=49 velocity=0 time=92\n",
      "note_on channel=10 note=49 velocity=127 time=4\n",
      "note_off channel=10 note=49 velocity=0 time=92\n",
      "note_on channel=10 note=49 velocity=127 time=100\n",
      "note_off channel=10 note=49 velocity=0 time=92\n",
      "note_on channel=10 note=42 velocity=127 time=102\n",
      "note_off channel=10 note=42 velocity=0 time=388\n",
      "note_on channel=10 note=49 velocity=127 time=944\n",
      "note_on channel=10 note=50 velocity=127 time=202\n",
      "note_off channel=10 note=49 velocity=0 time=8\n",
      "note_off channel=10 note=50 velocity=0 time=334\n",
      "note_on channel=10 note=47 velocity=127 time=1212\n",
      "note_off channel=10 note=47 velocity=0 time=404\n",
      "note_on channel=10 note=50 velocity=127 time=912\n",
      "note_off channel=10 note=50 velocity=0 time=198\n",
      "note_on channel=10 note=52 velocity=127 time=10\n",
      "note_off channel=10 note=52 velocity=0 time=378\n",
      "note_on channel=10 note=40 velocity=80 time=960\n",
      "note_off channel=10 note=40 velocity=0 time=188\n",
      "note_on channel=10 note=42 velocity=127 time=4\n",
      "note_off channel=10 note=42 velocity=0 time=576\n",
      "note_on channel=10 note=49 velocity=127 time=768\n",
      "note_off channel=10 note=49 velocity=0 time=192\n",
      "note_on channel=10 note=50 velocity=127 time=0\n",
      "note_off channel=10 note=50 velocity=0 time=576\n",
      "note_on channel=10 note=47 velocity=127 time=960\n",
      "note_off channel=10 note=47 velocity=0 time=672\n",
      "note_on channel=10 note=50 velocity=127 time=672\n",
      "note_off channel=10 note=50 velocity=0 time=192\n",
      "note_on channel=10 note=52 velocity=127 time=0\n",
      "note_off channel=10 note=52 velocity=0 time=576\n",
      "note_on channel=10 note=42 velocity=127 time=960\n",
      "note_off channel=10 note=42 velocity=0 time=764\n",
      "note_on channel=10 note=44 velocity=127 time=4\n",
      "note_off channel=10 note=44 velocity=0 time=764\n",
      "note_on channel=10 note=45 velocity=127 time=4\n",
      "note_off channel=10 note=45 velocity=0 time=188\n",
      "note_on channel=10 note=44 velocity=127 time=4\n",
      "note_off channel=10 note=44 velocity=0 time=188\n",
      "note_on channel=10 note=42 velocity=127 time=4\n",
      "note_off channel=10 note=42 velocity=0 time=188\n",
      "note_on channel=10 note=40 velocity=127 time=4\n",
      "note_off channel=10 note=40 velocity=0 time=188\n",
      "note_on channel=10 note=38 velocity=127 time=4\n",
      "note_off channel=10 note=38 velocity=0 time=380\n",
      "note_on channel=10 note=38 velocity=127 time=4\n",
      "note_off channel=10 note=38 velocity=0 time=380\n",
      "note_on channel=10 note=37 velocity=127 time=4\n",
      "note_off channel=10 note=37 velocity=0 time=3068\n",
      "note_on channel=10 note=42 velocity=127 time=4\n",
      "note_off channel=10 note=42 velocity=0 time=92\n",
      "note_on channel=10 note=42 velocity=127 time=100\n",
      "note_off channel=10 note=42 velocity=0 time=92\n",
      "note_on channel=10 note=42 velocity=127 time=4\n",
      "note_off channel=10 note=42 velocity=0 time=92\n",
      "note_on channel=10 note=42 velocity=127 time=4\n",
      "note_off channel=10 note=42 velocity=0 time=92\n",
      "note_on channel=10 note=42 velocity=127 time=100\n",
      "note_off channel=10 note=42 velocity=0 time=92\n",
      "note_on channel=10 note=42 velocity=127 time=4\n",
      "note_off channel=10 note=42 velocity=0 time=92\n",
      "note_on channel=10 note=42 velocity=127 time=4\n",
      "note_off channel=10 note=42 velocity=0 time=92\n",
      "note_on channel=10 note=42 velocity=127 time=100\n",
      "note_off channel=10 note=42 velocity=0 time=92\n",
      "note_on channel=10 note=42 velocity=127 time=4\n",
      "note_off channel=10 note=42 velocity=0 time=92\n",
      "note_on channel=10 note=42 velocity=127 time=4\n",
      "note_off channel=10 note=42 velocity=0 time=92\n",
      "note_on channel=10 note=42 velocity=127 time=100\n",
      "note_off channel=10 note=42 velocity=0 time=92\n",
      "note_on channel=10 note=38 velocity=127 time=100\n",
      "note_off channel=10 note=38 velocity=0 time=92\n",
      "note_on channel=10 note=38 velocity=127 time=100\n",
      "note_off channel=10 note=38 velocity=0 time=92\n",
      "note_on channel=10 note=38 velocity=127 time=4\n",
      "note_off channel=10 note=38 velocity=0 time=92\n",
      "note_on channel=10 note=38 velocity=127 time=4\n",
      "note_off channel=10 note=38 velocity=0 time=92\n",
      "note_on channel=10 note=38 velocity=127 time=100\n",
      "note_off channel=10 note=38 velocity=0 time=92\n",
      "note_on channel=10 note=38 velocity=127 time=4\n",
      "note_off channel=10 note=38 velocity=0 time=92\n",
      "note_on channel=10 note=38 velocity=127 time=4\n",
      "note_off channel=10 note=38 velocity=0 time=92\n",
      "note_on channel=10 note=38 velocity=127 time=100\n",
      "note_off channel=10 note=38 velocity=0 time=92\n",
      "note_on channel=10 note=38 velocity=127 time=4\n",
      "note_off channel=10 note=38 velocity=0 time=92\n",
      "note_on channel=10 note=38 velocity=127 time=4\n",
      "note_off channel=10 note=38 velocity=0 time=92\n",
      "note_on channel=10 note=38 velocity=127 time=100\n",
      "note_off channel=10 note=38 velocity=0 time=92\n",
      "note_on channel=10 note=47 velocity=127 time=100\n",
      "note_off channel=10 note=47 velocity=0 time=92\n",
      "note_on channel=10 note=47 velocity=127 time=100\n",
      "note_off channel=10 note=47 velocity=0 time=92\n",
      "note_on channel=10 note=47 velocity=127 time=4\n",
      "note_off channel=10 note=47 velocity=0 time=92\n",
      "note_on channel=10 note=47 velocity=127 time=4\n",
      "note_off channel=10 note=47 velocity=0 time=92\n",
      "note_on channel=10 note=47 velocity=127 time=100\n",
      "note_off channel=10 note=47 velocity=0 time=92\n",
      "note_on channel=10 note=47 velocity=127 time=4\n",
      "note_off channel=10 note=47 velocity=0 time=92\n",
      "note_on channel=10 note=47 velocity=127 time=4\n",
      "note_off channel=10 note=47 velocity=0 time=92\n",
      "note_on channel=10 note=47 velocity=127 time=100\n",
      "note_off channel=10 note=47 velocity=0 time=92\n",
      "note_on channel=10 note=47 velocity=127 time=4\n",
      "note_off channel=10 note=47 velocity=0 time=92\n",
      "note_on channel=10 note=47 velocity=127 time=4\n",
      "note_off channel=10 note=47 velocity=0 time=92\n",
      "note_on channel=10 note=47 velocity=127 time=100\n",
      "note_off channel=10 note=47 velocity=0 time=92\n",
      "note_on channel=10 note=40 velocity=127 time=100\n",
      "note_off channel=10 note=40 velocity=0 time=92\n",
      "note_on channel=10 note=40 velocity=127 time=100\n",
      "note_off channel=10 note=40 velocity=0 time=92\n",
      "note_on channel=10 note=40 velocity=127 time=4\n",
      "note_off channel=10 note=40 velocity=0 time=92\n",
      "note_on channel=10 note=40 velocity=127 time=4\n",
      "note_off channel=10 note=40 velocity=0 time=92\n",
      "note_on channel=10 note=40 velocity=127 time=100\n",
      "note_off channel=10 note=40 velocity=0 time=92\n",
      "note_on channel=10 note=40 velocity=127 time=4\n",
      "note_off channel=10 note=40 velocity=0 time=92\n",
      "note_on channel=10 note=40 velocity=127 time=4\n",
      "note_off channel=10 note=40 velocity=0 time=92\n",
      "note_on channel=10 note=40 velocity=127 time=100\n",
      "note_off channel=10 note=40 velocity=0 time=92\n",
      "note_on channel=10 note=40 velocity=127 time=4\n",
      "note_off channel=10 note=40 velocity=0 time=92\n",
      "note_on channel=10 note=40 velocity=127 time=4\n",
      "note_off channel=10 note=40 velocity=0 time=92\n",
      "note_on channel=10 note=40 velocity=127 time=100\n",
      "note_off channel=10 note=40 velocity=0 time=92\n",
      "note_on channel=10 note=42 velocity=127 time=100\n",
      "note_off channel=10 note=42 velocity=0 time=92\n",
      "note_on channel=10 note=42 velocity=127 time=100\n",
      "note_off channel=10 note=42 velocity=0 time=92\n",
      "note_on channel=10 note=42 velocity=127 time=4\n",
      "note_off channel=10 note=42 velocity=0 time=92\n",
      "note_on channel=10 note=42 velocity=127 time=4\n",
      "note_off channel=10 note=42 velocity=0 time=92\n",
      "note_on channel=10 note=42 velocity=127 time=100\n",
      "note_off channel=10 note=42 velocity=0 time=92\n",
      "note_on channel=10 note=42 velocity=127 time=4\n",
      "note_off channel=10 note=42 velocity=0 time=92\n",
      "note_on channel=10 note=42 velocity=127 time=4\n",
      "note_off channel=10 note=42 velocity=0 time=92\n",
      "note_on channel=10 note=42 velocity=127 time=100\n",
      "note_off channel=10 note=42 velocity=0 time=92\n",
      "note_on channel=10 note=42 velocity=127 time=4\n",
      "note_off channel=10 note=42 velocity=0 time=92\n",
      "note_on channel=10 note=42 velocity=127 time=4\n",
      "note_off channel=10 note=42 velocity=0 time=92\n",
      "note_on channel=10 note=42 velocity=127 time=100\n",
      "note_off channel=10 note=42 velocity=0 time=92\n",
      "note_on channel=10 note=38 velocity=127 time=100\n",
      "note_off channel=10 note=38 velocity=0 time=92\n",
      "note_on channel=10 note=38 velocity=127 time=100\n",
      "note_off channel=10 note=38 velocity=0 time=92\n",
      "note_on channel=10 note=38 velocity=127 time=4\n",
      "note_off channel=10 note=38 velocity=0 time=92\n",
      "note_on channel=10 note=38 velocity=127 time=4\n",
      "note_off channel=10 note=38 velocity=0 time=92\n",
      "note_on channel=10 note=38 velocity=127 time=100\n",
      "note_off channel=10 note=38 velocity=0 time=92\n",
      "note_on channel=10 note=38 velocity=127 time=4\n",
      "note_off channel=10 note=38 velocity=0 time=92\n",
      "note_on channel=10 note=38 velocity=127 time=4\n",
      "note_off channel=10 note=38 velocity=0 time=92\n",
      "note_on channel=10 note=38 velocity=127 time=100\n",
      "note_off channel=10 note=38 velocity=0 time=92\n",
      "note_on channel=10 note=38 velocity=127 time=4\n",
      "note_off channel=10 note=38 velocity=0 time=92\n",
      "note_on channel=10 note=38 velocity=127 time=4\n",
      "note_off channel=10 note=38 velocity=0 time=92\n",
      "note_on channel=10 note=38 velocity=127 time=100\n",
      "note_off channel=10 note=38 velocity=0 time=92\n",
      "note_on channel=10 note=47 velocity=127 time=100\n",
      "note_off channel=10 note=47 velocity=0 time=92\n",
      "note_on channel=10 note=47 velocity=127 time=100\n",
      "note_off channel=10 note=47 velocity=0 time=92\n",
      "note_on channel=10 note=47 velocity=127 time=4\n",
      "note_off channel=10 note=47 velocity=0 time=92\n",
      "note_on channel=10 note=47 velocity=127 time=4\n",
      "note_off channel=10 note=47 velocity=0 time=92\n",
      "note_on channel=10 note=47 velocity=127 time=100\n",
      "note_off channel=10 note=47 velocity=0 time=92\n",
      "note_on channel=10 note=47 velocity=127 time=4\n",
      "note_off channel=10 note=47 velocity=0 time=92\n",
      "note_on channel=10 note=47 velocity=127 time=4\n",
      "note_off channel=10 note=47 velocity=0 time=92\n",
      "note_on channel=10 note=47 velocity=127 time=100\n",
      "note_off channel=10 note=47 velocity=0 time=92\n",
      "note_on channel=10 note=47 velocity=127 time=4\n",
      "note_off channel=10 note=47 velocity=0 time=92\n",
      "note_on channel=10 note=47 velocity=127 time=4\n",
      "note_off channel=10 note=47 velocity=0 time=92\n",
      "note_on channel=10 note=47 velocity=127 time=100\n",
      "note_off channel=10 note=47 velocity=0 time=92\n",
      "note_on channel=10 note=40 velocity=127 time=100\n",
      "note_off channel=10 note=40 velocity=0 time=92\n",
      "note_on channel=10 note=40 velocity=127 time=100\n",
      "note_off channel=10 note=40 velocity=0 time=92\n",
      "note_on channel=10 note=40 velocity=127 time=4\n",
      "note_off channel=10 note=40 velocity=0 time=92\n",
      "note_on channel=10 note=40 velocity=127 time=4\n",
      "note_off channel=10 note=40 velocity=0 time=92\n",
      "note_on channel=10 note=40 velocity=127 time=100\n",
      "note_off channel=10 note=40 velocity=0 time=92\n",
      "note_on channel=10 note=40 velocity=127 time=4\n",
      "note_off channel=10 note=40 velocity=0 time=92\n",
      "note_on channel=10 note=40 velocity=127 time=4\n",
      "note_off channel=10 note=40 velocity=0 time=92\n",
      "note_on channel=10 note=40 velocity=127 time=100\n",
      "note_off channel=10 note=40 velocity=0 time=92\n",
      "note_on channel=10 note=40 velocity=127 time=4\n",
      "note_off channel=10 note=40 velocity=0 time=92\n",
      "note_on channel=10 note=40 velocity=127 time=4\n",
      "note_off channel=10 note=40 velocity=0 time=92\n",
      "note_on channel=10 note=40 velocity=127 time=100\n",
      "note_off channel=10 note=40 velocity=0 time=92\n",
      "note_on channel=10 note=42 velocity=127 time=100\n",
      "note_off channel=10 note=42 velocity=0 time=92\n",
      "note_on channel=10 note=42 velocity=127 time=100\n",
      "note_off channel=10 note=42 velocity=0 time=92\n",
      "note_on channel=10 note=42 velocity=127 time=4\n",
      "note_off channel=10 note=42 velocity=0 time=92\n",
      "note_on channel=10 note=42 velocity=127 time=4\n",
      "note_off channel=10 note=42 velocity=0 time=92\n",
      "note_on channel=10 note=42 velocity=127 time=100\n",
      "note_off channel=10 note=42 velocity=0 time=92\n",
      "note_on channel=10 note=42 velocity=127 time=4\n",
      "note_off channel=10 note=42 velocity=0 time=92\n",
      "note_on channel=10 note=44 velocity=127 time=4\n",
      "note_off channel=10 note=44 velocity=0 time=92\n",
      "note_on channel=10 note=44 velocity=127 time=100\n",
      "note_off channel=10 note=44 velocity=0 time=92\n",
      "note_on channel=10 note=44 velocity=127 time=4\n",
      "note_off channel=10 note=44 velocity=0 time=92\n",
      "note_on channel=10 note=44 velocity=127 time=4\n",
      "note_off channel=10 note=44 velocity=0 time=92\n",
      "note_on channel=10 note=44 velocity=127 time=100\n",
      "note_off channel=10 note=44 velocity=0 time=92\n",
      "note_on channel=10 note=44 velocity=127 time=4\n",
      "note_off channel=10 note=44 velocity=0 time=92\n",
      "note_on channel=10 note=45 velocity=127 time=4\n",
      "note_off channel=10 note=45 velocity=0 time=92\n",
      "note_on channel=10 note=45 velocity=127 time=100\n",
      "note_off channel=10 note=45 velocity=0 time=92\n",
      "note_on channel=10 note=45 velocity=127 time=4\n",
      "note_off channel=10 note=45 velocity=0 time=92\n",
      "note_on channel=10 note=45 velocity=127 time=4\n",
      "note_off channel=10 note=45 velocity=0 time=92\n",
      "note_on channel=10 note=45 velocity=127 time=100\n",
      "note_off channel=10 note=45 velocity=0 time=92\n",
      "note_on channel=10 note=45 velocity=127 time=4\n",
      "note_off channel=10 note=45 velocity=0 time=92\n",
      "note_on channel=10 note=50 velocity=127 time=4\n",
      "note_off channel=10 note=50 velocity=0 time=92\n",
      "note_on channel=10 note=50 velocity=127 time=100\n",
      "note_off channel=10 note=50 velocity=0 time=92\n",
      "note_on channel=10 note=50 velocity=127 time=4\n",
      "note_off channel=10 note=50 velocity=0 time=92\n",
      "note_on channel=10 note=50 velocity=127 time=4\n",
      "note_off channel=10 note=50 velocity=0 time=92\n",
      "note_on channel=10 note=50 velocity=127 time=100\n",
      "note_off channel=10 note=50 velocity=0 time=92\n",
      "note_on channel=10 note=50 velocity=127 time=4\n",
      "note_off channel=10 note=50 velocity=0 time=92\n",
      "note_on channel=10 note=49 velocity=127 time=4\n",
      "note_off channel=10 note=49 velocity=0 time=92\n",
      "note_on channel=10 note=49 velocity=127 time=100\n",
      "note_off channel=10 note=49 velocity=0 time=92\n",
      "note_on channel=10 note=49 velocity=127 time=4\n",
      "note_off channel=10 note=49 velocity=0 time=92\n",
      "note_on channel=10 note=49 velocity=127 time=4\n",
      "note_off channel=10 note=49 velocity=0 time=92\n",
      "note_on channel=10 note=49 velocity=127 time=100\n",
      "note_off channel=10 note=49 velocity=0 time=92\n",
      "note_on channel=10 note=49 velocity=127 time=4\n",
      "note_off channel=10 note=49 velocity=0 time=92\n",
      "note_on channel=10 note=49 velocity=127 time=4\n",
      "note_off channel=10 note=49 velocity=0 time=92\n",
      "note_on channel=10 note=49 velocity=127 time=100\n",
      "note_off channel=10 note=49 velocity=0 time=92\n",
      "note_on channel=10 note=49 velocity=127 time=4\n",
      "note_off channel=10 note=49 velocity=0 time=92\n",
      "note_on channel=10 note=49 velocity=127 time=4\n",
      "note_off channel=10 note=49 velocity=0 time=92\n",
      "note_on channel=10 note=49 velocity=127 time=100\n",
      "note_off channel=10 note=49 velocity=0 time=92\n",
      "note_on channel=10 note=49 velocity=127 time=4\n",
      "note_off channel=10 note=49 velocity=0 time=92\n",
      "note_on channel=10 note=49 velocity=127 time=4\n",
      "note_off channel=10 note=49 velocity=0 time=1440\n",
      "note_on channel=10 note=42 velocity=127 time=96\n",
      "note_off channel=10 note=42 velocity=0 time=92\n",
      "note_on channel=10 note=42 velocity=127 time=100\n",
      "note_off channel=10 note=42 velocity=0 time=92\n",
      "note_on channel=10 note=42 velocity=127 time=4\n",
      "note_off channel=10 note=42 velocity=0 time=92\n",
      "note_on channel=10 note=42 velocity=127 time=4\n",
      "note_off channel=10 note=42 velocity=0 time=92\n",
      "note_on channel=10 note=42 velocity=127 time=100\n",
      "note_off channel=10 note=42 velocity=0 time=92\n",
      "note_on channel=10 note=42 velocity=127 time=4\n",
      "note_off channel=10 note=42 velocity=0 time=92\n",
      "note_on channel=10 note=42 velocity=127 time=4\n",
      "note_off channel=10 note=42 velocity=0 time=92\n",
      "note_on channel=10 note=42 velocity=127 time=100\n",
      "note_off channel=10 note=42 velocity=0 time=92\n",
      "note_on channel=10 note=42 velocity=127 time=4\n",
      "note_off channel=10 note=42 velocity=0 time=92\n",
      "note_on channel=10 note=42 velocity=127 time=4\n",
      "note_off channel=10 note=42 velocity=0 time=92\n",
      "note_on channel=10 note=42 velocity=127 time=100\n",
      "note_off channel=10 note=42 velocity=0 time=92\n",
      "note_on channel=10 note=38 velocity=127 time=100\n",
      "note_off channel=10 note=38 velocity=0 time=92\n",
      "note_on channel=10 note=38 velocity=127 time=100\n",
      "note_off channel=10 note=38 velocity=0 time=92\n",
      "note_on channel=10 note=38 velocity=127 time=4\n",
      "note_off channel=10 note=38 velocity=0 time=92\n",
      "note_on channel=10 note=38 velocity=127 time=4\n",
      "note_off channel=10 note=38 velocity=0 time=92\n",
      "note_on channel=10 note=38 velocity=127 time=100\n",
      "note_off channel=10 note=38 velocity=0 time=92\n",
      "note_on channel=10 note=38 velocity=127 time=4\n",
      "note_off channel=10 note=38 velocity=0 time=92\n",
      "note_on channel=10 note=38 velocity=127 time=4\n",
      "note_off channel=10 note=38 velocity=0 time=92\n",
      "note_on channel=10 note=38 velocity=127 time=100\n",
      "note_off channel=10 note=38 velocity=0 time=92\n",
      "note_on channel=10 note=38 velocity=127 time=4\n",
      "note_off channel=10 note=38 velocity=0 time=92\n",
      "note_on channel=10 note=38 velocity=127 time=4\n",
      "note_off channel=10 note=38 velocity=0 time=92\n",
      "note_on channel=10 note=38 velocity=127 time=100\n",
      "note_off channel=10 note=38 velocity=0 time=92\n",
      "note_on channel=10 note=47 velocity=127 time=100\n",
      "note_off channel=10 note=47 velocity=0 time=92\n",
      "note_on channel=10 note=47 velocity=127 time=100\n",
      "note_off channel=10 note=47 velocity=0 time=92\n",
      "note_on channel=10 note=47 velocity=127 time=4\n",
      "note_off channel=10 note=47 velocity=0 time=92\n",
      "note_on channel=10 note=47 velocity=127 time=4\n",
      "note_off channel=10 note=47 velocity=0 time=92\n",
      "note_on channel=10 note=47 velocity=127 time=100\n",
      "note_off channel=10 note=47 velocity=0 time=92\n",
      "note_on channel=10 note=47 velocity=127 time=4\n",
      "note_off channel=10 note=47 velocity=0 time=92\n",
      "note_on channel=10 note=47 velocity=127 time=4\n",
      "note_off channel=10 note=47 velocity=0 time=92\n",
      "note_on channel=10 note=47 velocity=127 time=100\n",
      "note_off channel=10 note=47 velocity=0 time=92\n",
      "note_on channel=10 note=47 velocity=127 time=4\n",
      "note_off channel=10 note=47 velocity=0 time=92\n",
      "note_on channel=10 note=47 velocity=127 time=4\n",
      "note_off channel=10 note=47 velocity=0 time=92\n",
      "note_on channel=10 note=47 velocity=127 time=100\n",
      "note_off channel=10 note=47 velocity=0 time=92\n",
      "note_on channel=10 note=40 velocity=127 time=100\n",
      "note_off channel=10 note=40 velocity=0 time=92\n",
      "note_on channel=10 note=40 velocity=127 time=100\n",
      "note_off channel=10 note=40 velocity=0 time=92\n",
      "note_on channel=10 note=40 velocity=127 time=4\n",
      "note_off channel=10 note=40 velocity=0 time=92\n",
      "note_on channel=10 note=40 velocity=127 time=4\n",
      "note_off channel=10 note=40 velocity=0 time=92\n",
      "note_on channel=10 note=40 velocity=127 time=100\n",
      "note_off channel=10 note=40 velocity=0 time=92\n",
      "note_on channel=10 note=40 velocity=127 time=4\n",
      "note_off channel=10 note=40 velocity=0 time=92\n",
      "note_on channel=10 note=40 velocity=127 time=4\n",
      "note_off channel=10 note=40 velocity=0 time=92\n",
      "note_on channel=10 note=40 velocity=127 time=100\n",
      "note_off channel=10 note=40 velocity=0 time=92\n",
      "note_on channel=10 note=40 velocity=127 time=4\n",
      "note_off channel=10 note=40 velocity=0 time=92\n",
      "note_on channel=10 note=40 velocity=127 time=4\n",
      "note_off channel=10 note=40 velocity=0 time=92\n",
      "note_on channel=10 note=40 velocity=127 time=100\n",
      "note_off channel=10 note=40 velocity=0 time=92\n",
      "note_on channel=10 note=42 velocity=127 time=100\n",
      "note_off channel=10 note=42 velocity=0 time=92\n",
      "note_on channel=10 note=42 velocity=127 time=100\n",
      "note_off channel=10 note=42 velocity=0 time=92\n",
      "note_on channel=10 note=42 velocity=127 time=4\n",
      "note_off channel=10 note=42 velocity=0 time=92\n",
      "note_on channel=10 note=42 velocity=127 time=4\n",
      "note_off channel=10 note=42 velocity=0 time=92\n",
      "note_on channel=10 note=42 velocity=127 time=100\n",
      "note_off channel=10 note=42 velocity=0 time=92\n",
      "note_on channel=10 note=42 velocity=127 time=4\n",
      "note_off channel=10 note=42 velocity=0 time=92\n",
      "note_on channel=10 note=42 velocity=127 time=4\n",
      "note_off channel=10 note=42 velocity=0 time=92\n",
      "note_on channel=10 note=42 velocity=127 time=100\n",
      "note_off channel=10 note=42 velocity=0 time=92\n",
      "note_on channel=10 note=42 velocity=127 time=4\n",
      "note_off channel=10 note=42 velocity=0 time=92\n",
      "note_on channel=10 note=42 velocity=127 time=4\n",
      "note_off channel=10 note=42 velocity=0 time=92\n",
      "note_on channel=10 note=42 velocity=127 time=100\n",
      "note_off channel=10 note=42 velocity=0 time=92\n",
      "note_on channel=10 note=38 velocity=127 time=100\n",
      "note_off channel=10 note=38 velocity=0 time=92\n",
      "note_on channel=10 note=38 velocity=127 time=100\n",
      "note_off channel=10 note=38 velocity=0 time=92\n",
      "note_on channel=10 note=38 velocity=127 time=4\n",
      "note_off channel=10 note=38 velocity=0 time=92\n",
      "note_on channel=10 note=38 velocity=127 time=4\n",
      "note_off channel=10 note=38 velocity=0 time=92\n",
      "note_on channel=10 note=38 velocity=127 time=100\n",
      "note_off channel=10 note=38 velocity=0 time=92\n",
      "note_on channel=10 note=38 velocity=127 time=4\n",
      "note_off channel=10 note=38 velocity=0 time=92\n",
      "note_on channel=10 note=38 velocity=127 time=4\n",
      "note_off channel=10 note=38 velocity=0 time=92\n",
      "note_on channel=10 note=38 velocity=127 time=100\n",
      "note_off channel=10 note=38 velocity=0 time=92\n",
      "note_on channel=10 note=38 velocity=127 time=4\n",
      "note_off channel=10 note=38 velocity=0 time=92\n",
      "note_on channel=10 note=38 velocity=127 time=4\n",
      "note_off channel=10 note=38 velocity=0 time=92\n",
      "note_on channel=10 note=38 velocity=127 time=100\n",
      "note_off channel=10 note=38 velocity=0 time=92\n",
      "note_on channel=10 note=47 velocity=127 time=100\n",
      "note_off channel=10 note=47 velocity=0 time=92\n",
      "note_on channel=10 note=47 velocity=127 time=100\n",
      "note_off channel=10 note=47 velocity=0 time=92\n",
      "note_on channel=10 note=47 velocity=127 time=4\n",
      "note_off channel=10 note=47 velocity=0 time=92\n",
      "note_on channel=10 note=47 velocity=127 time=4\n",
      "note_off channel=10 note=47 velocity=0 time=92\n",
      "note_on channel=10 note=47 velocity=127 time=100\n",
      "note_off channel=10 note=47 velocity=0 time=92\n",
      "note_on channel=10 note=47 velocity=127 time=4\n",
      "note_off channel=10 note=47 velocity=0 time=92\n",
      "note_on channel=10 note=47 velocity=127 time=4\n",
      "note_off channel=10 note=47 velocity=0 time=92\n",
      "note_on channel=10 note=47 velocity=127 time=100\n",
      "note_off channel=10 note=47 velocity=0 time=92\n",
      "note_on channel=10 note=47 velocity=127 time=4\n",
      "note_off channel=10 note=47 velocity=0 time=92\n",
      "note_on channel=10 note=47 velocity=127 time=4\n",
      "note_off channel=10 note=47 velocity=0 time=92\n",
      "note_on channel=10 note=47 velocity=127 time=100\n",
      "note_off channel=10 note=47 velocity=0 time=92\n",
      "note_on channel=10 note=40 velocity=127 time=100\n",
      "note_off channel=10 note=40 velocity=0 time=92\n",
      "note_on channel=10 note=40 velocity=127 time=100\n",
      "note_off channel=10 note=40 velocity=0 time=92\n",
      "note_on channel=10 note=40 velocity=127 time=4\n",
      "note_off channel=10 note=40 velocity=0 time=92\n",
      "note_on channel=10 note=40 velocity=127 time=4\n",
      "note_off channel=10 note=40 velocity=0 time=92\n",
      "note_on channel=10 note=40 velocity=127 time=100\n",
      "note_off channel=10 note=40 velocity=0 time=92\n",
      "note_on channel=10 note=40 velocity=127 time=4\n",
      "note_off channel=10 note=40 velocity=0 time=92\n",
      "note_on channel=10 note=40 velocity=127 time=4\n",
      "note_off channel=10 note=40 velocity=0 time=92\n",
      "note_on channel=10 note=40 velocity=127 time=100\n",
      "note_off channel=10 note=40 velocity=0 time=92\n",
      "note_on channel=10 note=40 velocity=127 time=4\n",
      "note_off channel=10 note=40 velocity=0 time=92\n",
      "note_on channel=10 note=40 velocity=127 time=4\n",
      "note_off channel=10 note=40 velocity=0 time=92\n",
      "note_on channel=10 note=40 velocity=127 time=100\n",
      "note_off channel=10 note=40 velocity=0 time=92\n",
      "note_on channel=10 note=42 velocity=127 time=100\n",
      "note_off channel=10 note=42 velocity=0 time=92\n",
      "note_on channel=10 note=42 velocity=127 time=100\n",
      "note_off channel=10 note=42 velocity=0 time=92\n",
      "note_on channel=10 note=42 velocity=127 time=4\n",
      "note_off channel=10 note=42 velocity=0 time=92\n",
      "note_on channel=10 note=42 velocity=127 time=4\n",
      "note_off channel=10 note=42 velocity=0 time=92\n",
      "note_on channel=10 note=42 velocity=127 time=100\n",
      "note_off channel=10 note=42 velocity=0 time=92\n",
      "note_on channel=10 note=42 velocity=127 time=4\n",
      "note_off channel=10 note=42 velocity=0 time=92\n",
      "note_on channel=10 note=44 velocity=127 time=4\n",
      "note_off channel=10 note=44 velocity=0 time=92\n",
      "note_on channel=10 note=44 velocity=127 time=100\n",
      "note_off channel=10 note=44 velocity=0 time=92\n",
      "note_on channel=10 note=44 velocity=127 time=4\n",
      "note_off channel=10 note=44 velocity=0 time=92\n",
      "note_on channel=10 note=44 velocity=127 time=4\n",
      "note_off channel=10 note=44 velocity=0 time=92\n",
      "note_on channel=10 note=44 velocity=127 time=100\n",
      "note_off channel=10 note=44 velocity=0 time=92\n",
      "note_on channel=10 note=44 velocity=127 time=4\n",
      "note_off channel=10 note=44 velocity=0 time=92\n",
      "note_on channel=10 note=45 velocity=127 time=4\n",
      "note_off channel=10 note=45 velocity=0 time=92\n",
      "note_on channel=10 note=45 velocity=127 time=100\n",
      "note_off channel=10 note=45 velocity=0 time=92\n",
      "note_on channel=10 note=45 velocity=127 time=4\n",
      "note_off channel=10 note=45 velocity=0 time=92\n",
      "note_on channel=10 note=45 velocity=127 time=4\n",
      "note_off channel=10 note=45 velocity=0 time=92\n",
      "note_on channel=10 note=45 velocity=127 time=100\n",
      "note_off channel=10 note=45 velocity=0 time=92\n",
      "note_on channel=10 note=45 velocity=127 time=4\n",
      "note_off channel=10 note=45 velocity=0 time=92\n",
      "note_on channel=10 note=50 velocity=127 time=4\n",
      "note_off channel=10 note=50 velocity=0 time=92\n",
      "note_on channel=10 note=50 velocity=127 time=100\n",
      "note_off channel=10 note=50 velocity=0 time=92\n",
      "note_on channel=10 note=50 velocity=127 time=4\n",
      "note_off channel=10 note=50 velocity=0 time=92\n",
      "note_on channel=10 note=50 velocity=127 time=4\n",
      "note_off channel=10 note=50 velocity=0 time=92\n",
      "note_on channel=10 note=50 velocity=127 time=100\n",
      "note_off channel=10 note=50 velocity=0 time=92\n",
      "note_on channel=10 note=50 velocity=127 time=4\n",
      "note_off channel=10 note=50 velocity=0 time=92\n",
      "note_on channel=10 note=49 velocity=127 time=4\n",
      "note_off channel=10 note=49 velocity=0 time=92\n",
      "note_on channel=10 note=49 velocity=127 time=100\n",
      "note_off channel=10 note=49 velocity=0 time=92\n",
      "note_on channel=10 note=49 velocity=127 time=4\n",
      "note_off channel=10 note=49 velocity=0 time=92\n",
      "note_on channel=10 note=49 velocity=127 time=4\n",
      "note_off channel=10 note=49 velocity=0 time=92\n",
      "note_on channel=10 note=49 velocity=127 time=100\n",
      "note_off channel=10 note=49 velocity=0 time=92\n",
      "note_on channel=10 note=49 velocity=127 time=4\n",
      "note_off channel=10 note=49 velocity=0 time=92\n",
      "note_on channel=10 note=49 velocity=127 time=4\n",
      "note_off channel=10 note=49 velocity=0 time=92\n",
      "note_on channel=10 note=49 velocity=127 time=100\n",
      "note_off channel=10 note=49 velocity=0 time=92\n",
      "note_on channel=10 note=49 velocity=127 time=4\n",
      "note_off channel=10 note=49 velocity=0 time=92\n",
      "note_on channel=10 note=49 velocity=127 time=4\n",
      "note_off channel=10 note=49 velocity=0 time=92\n",
      "note_on channel=10 note=49 velocity=127 time=100\n",
      "note_off channel=10 note=49 velocity=0 time=92\n",
      "note_on channel=10 note=49 velocity=127 time=4\n",
      "note_off channel=10 note=49 velocity=0 time=92\n",
      "note_on channel=10 note=49 velocity=127 time=4\n",
      "note_off channel=10 note=49 velocity=0 time=1440\n",
      "note_on channel=10 note=42 velocity=127 time=96\n",
      "note_off channel=10 note=42 velocity=0 time=92\n",
      "note_on channel=10 note=42 velocity=127 time=100\n",
      "note_off channel=10 note=42 velocity=0 time=92\n",
      "note_on channel=10 note=42 velocity=127 time=4\n",
      "note_off channel=10 note=42 velocity=0 time=92\n",
      "note_on channel=10 note=42 velocity=127 time=4\n",
      "note_off channel=10 note=42 velocity=0 time=92\n",
      "note_on channel=10 note=42 velocity=127 time=100\n",
      "note_off channel=10 note=42 velocity=0 time=92\n",
      "note_on channel=10 note=42 velocity=127 time=4\n",
      "note_off channel=10 note=42 velocity=0 time=92\n",
      "note_on channel=10 note=42 velocity=127 time=4\n",
      "note_off channel=10 note=42 velocity=0 time=92\n",
      "note_on channel=10 note=42 velocity=127 time=100\n",
      "note_off channel=10 note=42 velocity=0 time=92\n",
      "note_on channel=10 note=42 velocity=127 time=4\n",
      "note_off channel=10 note=42 velocity=0 time=92\n",
      "note_on channel=10 note=42 velocity=127 time=4\n",
      "note_off channel=10 note=42 velocity=0 time=92\n",
      "note_on channel=10 note=42 velocity=127 time=100\n",
      "note_off channel=10 note=42 velocity=0 time=92\n",
      "note_on channel=10 note=38 velocity=127 time=100\n",
      "note_off channel=10 note=38 velocity=0 time=92\n",
      "note_on channel=10 note=38 velocity=127 time=100\n",
      "note_off channel=10 note=38 velocity=0 time=92\n",
      "note_on channel=10 note=38 velocity=127 time=4\n",
      "note_off channel=10 note=38 velocity=0 time=92\n",
      "note_on channel=10 note=38 velocity=127 time=4\n",
      "note_off channel=10 note=38 velocity=0 time=92\n",
      "note_on channel=10 note=38 velocity=127 time=100\n",
      "note_off channel=10 note=38 velocity=0 time=92\n",
      "note_on channel=10 note=38 velocity=127 time=4\n",
      "note_off channel=10 note=38 velocity=0 time=92\n",
      "note_on channel=10 note=38 velocity=127 time=4\n",
      "note_off channel=10 note=38 velocity=0 time=92\n",
      "note_on channel=10 note=38 velocity=127 time=100\n",
      "note_off channel=10 note=38 velocity=0 time=92\n",
      "note_on channel=10 note=38 velocity=127 time=4\n",
      "note_off channel=10 note=38 velocity=0 time=92\n",
      "note_on channel=10 note=38 velocity=127 time=4\n",
      "note_off channel=10 note=38 velocity=0 time=92\n",
      "note_on channel=10 note=38 velocity=127 time=100\n",
      "note_off channel=10 note=38 velocity=0 time=92\n",
      "note_on channel=10 note=47 velocity=127 time=100\n",
      "note_off channel=10 note=47 velocity=0 time=92\n",
      "note_on channel=10 note=47 velocity=127 time=100\n",
      "note_off channel=10 note=47 velocity=0 time=92\n",
      "note_on channel=10 note=47 velocity=127 time=4\n",
      "note_off channel=10 note=47 velocity=0 time=92\n",
      "note_on channel=10 note=47 velocity=127 time=4\n",
      "note_off channel=10 note=47 velocity=0 time=92\n",
      "note_on channel=10 note=47 velocity=127 time=100\n",
      "note_off channel=10 note=47 velocity=0 time=92\n",
      "note_on channel=10 note=47 velocity=127 time=4\n",
      "note_off channel=10 note=47 velocity=0 time=92\n",
      "note_on channel=10 note=47 velocity=127 time=4\n",
      "note_off channel=10 note=47 velocity=0 time=92\n",
      "note_on channel=10 note=47 velocity=127 time=100\n",
      "note_off channel=10 note=47 velocity=0 time=92\n",
      "note_on channel=10 note=47 velocity=127 time=4\n",
      "note_off channel=10 note=47 velocity=0 time=92\n",
      "note_on channel=10 note=47 velocity=127 time=4\n",
      "note_off channel=10 note=47 velocity=0 time=92\n",
      "note_on channel=10 note=47 velocity=127 time=100\n",
      "note_off channel=10 note=47 velocity=0 time=92\n",
      "note_on channel=10 note=40 velocity=127 time=100\n",
      "note_off channel=10 note=40 velocity=0 time=92\n",
      "note_on channel=10 note=40 velocity=127 time=100\n",
      "note_off channel=10 note=40 velocity=0 time=92\n",
      "note_on channel=10 note=40 velocity=127 time=4\n",
      "note_off channel=10 note=40 velocity=0 time=92\n",
      "note_on channel=10 note=40 velocity=127 time=4\n",
      "note_off channel=10 note=40 velocity=0 time=92\n",
      "note_on channel=10 note=40 velocity=127 time=100\n",
      "note_off channel=10 note=40 velocity=0 time=92\n",
      "note_on channel=10 note=40 velocity=127 time=4\n",
      "note_off channel=10 note=40 velocity=0 time=92\n",
      "note_on channel=10 note=40 velocity=127 time=4\n",
      "note_off channel=10 note=40 velocity=0 time=92\n",
      "note_on channel=10 note=40 velocity=127 time=100\n",
      "note_off channel=10 note=40 velocity=0 time=92\n",
      "note_on channel=10 note=40 velocity=127 time=4\n",
      "note_off channel=10 note=40 velocity=0 time=92\n",
      "note_on channel=10 note=40 velocity=127 time=4\n",
      "note_off channel=10 note=40 velocity=0 time=92\n",
      "note_on channel=10 note=40 velocity=127 time=100\n",
      "note_off channel=10 note=40 velocity=0 time=92\n",
      "note_on channel=10 note=42 velocity=127 time=100\n",
      "note_off channel=10 note=42 velocity=0 time=92\n",
      "note_on channel=10 note=42 velocity=127 time=100\n",
      "note_off channel=10 note=42 velocity=0 time=92\n",
      "note_on channel=10 note=42 velocity=127 time=4\n",
      "note_off channel=10 note=42 velocity=0 time=92\n",
      "note_on channel=10 note=42 velocity=127 time=4\n",
      "note_off channel=10 note=42 velocity=0 time=92\n",
      "note_on channel=10 note=42 velocity=127 time=100\n",
      "note_off channel=10 note=42 velocity=0 time=92\n",
      "note_on channel=10 note=42 velocity=127 time=4\n",
      "note_off channel=10 note=42 velocity=0 time=92\n",
      "note_on channel=10 note=42 velocity=127 time=4\n",
      "note_off channel=10 note=42 velocity=0 time=92\n",
      "note_on channel=10 note=42 velocity=127 time=100\n",
      "note_off channel=10 note=42 velocity=0 time=92\n",
      "note_on channel=10 note=42 velocity=127 time=4\n",
      "note_off channel=10 note=42 velocity=0 time=92\n",
      "note_on channel=10 note=42 velocity=127 time=4\n",
      "note_off channel=10 note=42 velocity=0 time=92\n",
      "note_on channel=10 note=42 velocity=127 time=100\n",
      "note_off channel=10 note=42 velocity=0 time=92\n",
      "note_on channel=10 note=38 velocity=127 time=100\n",
      "note_off channel=10 note=38 velocity=0 time=92\n",
      "note_on channel=10 note=38 velocity=127 time=100\n",
      "note_off channel=10 note=38 velocity=0 time=92\n",
      "note_on channel=10 note=38 velocity=127 time=4\n",
      "note_off channel=10 note=38 velocity=0 time=92\n",
      "note_on channel=10 note=38 velocity=127 time=4\n",
      "note_off channel=10 note=38 velocity=0 time=92\n",
      "note_on channel=10 note=38 velocity=127 time=100\n",
      "note_off channel=10 note=38 velocity=0 time=92\n",
      "note_on channel=10 note=38 velocity=127 time=4\n",
      "note_off channel=10 note=38 velocity=0 time=92\n",
      "note_on channel=10 note=38 velocity=127 time=4\n",
      "note_off channel=10 note=38 velocity=0 time=92\n",
      "note_on channel=10 note=38 velocity=127 time=100\n",
      "note_off channel=10 note=38 velocity=0 time=92\n",
      "note_on channel=10 note=38 velocity=127 time=4\n",
      "note_off channel=10 note=38 velocity=0 time=92\n",
      "note_on channel=10 note=38 velocity=127 time=4\n",
      "note_off channel=10 note=38 velocity=0 time=92\n",
      "note_on channel=10 note=38 velocity=127 time=100\n",
      "note_off channel=10 note=38 velocity=0 time=92\n",
      "note_on channel=10 note=47 velocity=127 time=100\n",
      "note_off channel=10 note=47 velocity=0 time=92\n",
      "note_on channel=10 note=47 velocity=127 time=100\n",
      "note_off channel=10 note=47 velocity=0 time=92\n",
      "note_on channel=10 note=47 velocity=127 time=4\n",
      "note_off channel=10 note=47 velocity=0 time=92\n",
      "note_on channel=10 note=47 velocity=127 time=4\n",
      "note_off channel=10 note=47 velocity=0 time=92\n",
      "note_on channel=10 note=47 velocity=127 time=100\n",
      "note_off channel=10 note=47 velocity=0 time=92\n",
      "note_on channel=10 note=47 velocity=127 time=4\n",
      "note_off channel=10 note=47 velocity=0 time=92\n",
      "note_on channel=10 note=47 velocity=127 time=4\n",
      "note_off channel=10 note=47 velocity=0 time=92\n",
      "note_on channel=10 note=47 velocity=127 time=100\n",
      "note_off channel=10 note=47 velocity=0 time=92\n",
      "note_on channel=10 note=47 velocity=127 time=4\n",
      "note_off channel=10 note=47 velocity=0 time=92\n",
      "note_on channel=10 note=47 velocity=127 time=4\n",
      "note_off channel=10 note=47 velocity=0 time=92\n",
      "note_on channel=10 note=47 velocity=127 time=100\n",
      "note_off channel=10 note=47 velocity=0 time=92\n",
      "note_on channel=10 note=40 velocity=127 time=100\n",
      "note_off channel=10 note=40 velocity=0 time=92\n",
      "note_on channel=10 note=40 velocity=127 time=100\n",
      "note_off channel=10 note=40 velocity=0 time=92\n",
      "note_on channel=10 note=40 velocity=127 time=4\n",
      "note_off channel=10 note=40 velocity=0 time=92\n",
      "note_on channel=10 note=40 velocity=127 time=4\n",
      "note_off channel=10 note=40 velocity=0 time=92\n",
      "note_on channel=10 note=40 velocity=127 time=100\n",
      "note_off channel=10 note=40 velocity=0 time=92\n",
      "note_on channel=10 note=40 velocity=127 time=4\n",
      "note_off channel=10 note=40 velocity=0 time=92\n",
      "note_on channel=10 note=40 velocity=127 time=4\n",
      "note_off channel=10 note=40 velocity=0 time=92\n",
      "note_on channel=10 note=40 velocity=127 time=100\n",
      "note_off channel=10 note=40 velocity=0 time=92\n",
      "note_on channel=10 note=40 velocity=127 time=4\n",
      "note_off channel=10 note=40 velocity=0 time=92\n",
      "note_on channel=10 note=40 velocity=127 time=4\n",
      "note_off channel=10 note=40 velocity=0 time=92\n",
      "note_on channel=10 note=40 velocity=127 time=100\n",
      "note_off channel=10 note=40 velocity=0 time=92\n",
      "note_on channel=10 note=42 velocity=127 time=100\n",
      "note_off channel=10 note=42 velocity=0 time=92\n",
      "note_on channel=10 note=42 velocity=127 time=100\n",
      "note_off channel=10 note=42 velocity=0 time=92\n",
      "note_on channel=10 note=42 velocity=127 time=4\n",
      "note_off channel=10 note=42 velocity=0 time=92\n",
      "note_on channel=10 note=42 velocity=127 time=4\n",
      "note_off channel=10 note=42 velocity=0 time=92\n",
      "note_on channel=10 note=42 velocity=127 time=100\n",
      "note_off channel=10 note=42 velocity=0 time=92\n",
      "note_on channel=10 note=42 velocity=127 time=4\n",
      "note_off channel=10 note=42 velocity=0 time=92\n",
      "note_on channel=10 note=44 velocity=127 time=4\n",
      "note_off channel=10 note=44 velocity=0 time=92\n",
      "note_on channel=10 note=44 velocity=127 time=100\n",
      "note_off channel=10 note=44 velocity=0 time=92\n",
      "note_on channel=10 note=44 velocity=127 time=4\n",
      "note_off channel=10 note=44 velocity=0 time=92\n",
      "note_on channel=10 note=44 velocity=127 time=4\n",
      "note_off channel=10 note=44 velocity=0 time=92\n",
      "note_on channel=10 note=44 velocity=127 time=100\n",
      "note_off channel=10 note=44 velocity=0 time=92\n",
      "note_on channel=10 note=44 velocity=127 time=4\n",
      "note_off channel=10 note=44 velocity=0 time=92\n",
      "note_on channel=10 note=45 velocity=127 time=4\n",
      "note_off channel=10 note=45 velocity=0 time=92\n",
      "note_on channel=10 note=45 velocity=127 time=100\n",
      "note_off channel=10 note=45 velocity=0 time=92\n",
      "note_on channel=10 note=45 velocity=127 time=4\n",
      "note_off channel=10 note=45 velocity=0 time=92\n",
      "note_on channel=10 note=45 velocity=127 time=4\n",
      "note_off channel=10 note=45 velocity=0 time=92\n",
      "note_on channel=10 note=45 velocity=127 time=100\n",
      "note_off channel=10 note=45 velocity=0 time=92\n",
      "note_on channel=10 note=45 velocity=127 time=4\n",
      "note_off channel=10 note=45 velocity=0 time=92\n",
      "note_on channel=10 note=50 velocity=127 time=4\n",
      "note_off channel=10 note=50 velocity=0 time=92\n",
      "note_on channel=10 note=50 velocity=127 time=100\n",
      "note_off channel=10 note=50 velocity=0 time=92\n",
      "note_on channel=10 note=50 velocity=127 time=4\n",
      "note_off channel=10 note=50 velocity=0 time=92\n",
      "note_on channel=10 note=50 velocity=127 time=4\n",
      "note_off channel=10 note=50 velocity=0 time=92\n",
      "note_on channel=10 note=50 velocity=127 time=100\n",
      "note_off channel=10 note=50 velocity=0 time=92\n",
      "note_on channel=10 note=50 velocity=127 time=4\n",
      "note_off channel=10 note=50 velocity=0 time=92\n",
      "note_on channel=10 note=49 velocity=127 time=4\n",
      "note_off channel=10 note=49 velocity=0 time=92\n",
      "note_on channel=10 note=49 velocity=127 time=100\n",
      "note_off channel=10 note=49 velocity=0 time=92\n",
      "note_on channel=10 note=49 velocity=127 time=4\n",
      "note_off channel=10 note=49 velocity=0 time=92\n",
      "note_on channel=10 note=49 velocity=127 time=4\n",
      "note_off channel=10 note=49 velocity=0 time=92\n",
      "note_on channel=10 note=49 velocity=127 time=100\n",
      "note_off channel=10 note=49 velocity=0 time=92\n",
      "note_on channel=10 note=49 velocity=127 time=4\n",
      "note_off channel=10 note=49 velocity=0 time=92\n",
      "note_on channel=10 note=49 velocity=127 time=4\n",
      "note_off channel=10 note=49 velocity=0 time=92\n",
      "note_on channel=10 note=49 velocity=127 time=100\n",
      "note_off channel=10 note=49 velocity=0 time=92\n",
      "note_on channel=10 note=49 velocity=127 time=4\n",
      "note_off channel=10 note=49 velocity=0 time=92\n",
      "note_on channel=10 note=49 velocity=127 time=4\n",
      "note_off channel=10 note=49 velocity=0 time=92\n",
      "note_on channel=10 note=49 velocity=127 time=100\n",
      "note_off channel=10 note=49 velocity=0 time=92\n",
      "note_on channel=10 note=49 velocity=127 time=4\n",
      "note_off channel=10 note=49 velocity=0 time=92\n",
      "note_on channel=10 note=49 velocity=127 time=4\n",
      "note_off channel=10 note=49 velocity=0 time=1440\n",
      "MetaMessage('end_of_track', time=1632)\n",
      "Track 12\n",
      "MetaMessage('track_name', name='+EXPLOSION', time=0)\n",
      "control_change channel=11 control=0 value=3 time=1536\n",
      "program_change channel=11 program=127 time=0\n",
      "control_change channel=11 control=7 value=127 time=0\n",
      "control_change channel=11 control=7 value=127 time=1304\n",
      "control_change channel=11 control=0 value=3 time=128\n",
      "program_change channel=11 program=127 time=0\n",
      "note_on channel=11 note=24 velocity=127 time=104\n",
      "note_off channel=11 note=24 velocity=0 time=1532\n",
      "note_on channel=11 note=24 velocity=127 time=4\n",
      "note_off channel=11 note=24 velocity=0 time=1532\n",
      "note_on channel=11 note=24 velocity=127 time=4\n",
      "note_off channel=11 note=24 velocity=0 time=1532\n",
      "note_on channel=11 note=24 velocity=127 time=4\n",
      "note_off channel=11 note=24 velocity=0 time=1532\n",
      "note_on channel=11 note=24 velocity=127 time=4\n",
      "note_off channel=11 note=24 velocity=0 time=1532\n",
      "note_on channel=11 note=24 velocity=127 time=4\n",
      "note_off channel=11 note=24 velocity=0 time=1532\n",
      "note_on channel=11 note=24 velocity=127 time=4\n",
      "note_off channel=11 note=24 velocity=0 time=1532\n",
      "note_on channel=11 note=24 velocity=127 time=4\n",
      "note_off channel=11 note=24 velocity=0 time=1532\n",
      "note_on channel=11 note=24 velocity=127 time=4\n",
      "note_off channel=11 note=24 velocity=0 time=1532\n",
      "note_on channel=11 note=24 velocity=127 time=4\n",
      "note_off channel=11 note=24 velocity=0 time=1532\n",
      "note_on channel=11 note=24 velocity=127 time=4\n",
      "note_off channel=11 note=24 velocity=0 time=1532\n",
      "note_on channel=11 note=24 velocity=127 time=4\n",
      "note_off channel=11 note=24 velocity=0 time=1532\n",
      "note_on channel=11 note=24 velocity=127 time=4\n",
      "note_off channel=11 note=24 velocity=0 time=1532\n",
      "note_on channel=11 note=24 velocity=127 time=4\n",
      "note_off channel=11 note=24 velocity=0 time=1532\n",
      "note_on channel=11 note=24 velocity=127 time=4\n",
      "note_off channel=11 note=24 velocity=0 time=1532\n",
      "note_on channel=11 note=24 velocity=127 time=4\n",
      "note_off channel=11 note=24 velocity=0 time=1532\n",
      "note_on channel=11 note=24 velocity=127 time=4\n",
      "note_off channel=11 note=24 velocity=0 time=1532\n",
      "note_on channel=11 note=24 velocity=127 time=4\n",
      "note_off channel=11 note=24 velocity=0 time=1532\n",
      "note_on channel=11 note=24 velocity=127 time=4\n",
      "note_off channel=11 note=24 velocity=0 time=1532\n",
      "note_on channel=11 note=24 velocity=127 time=4\n",
      "note_off channel=11 note=24 velocity=0 time=1532\n",
      "note_on channel=11 note=24 velocity=127 time=4\n",
      "note_off channel=11 note=24 velocity=0 time=1532\n",
      "note_on channel=11 note=24 velocity=127 time=4\n",
      "note_off channel=11 note=24 velocity=0 time=1532\n",
      "note_on channel=11 note=24 velocity=127 time=4\n",
      "note_off channel=11 note=24 velocity=0 time=1532\n",
      "MetaMessage('end_of_track', time=210436)\n",
      "Track 13\n",
      "MetaMessage('track_name', name='GS/RESET', time=0)\n",
      "sysex data=(65,16,66,18,64,0,127,0,65) time=0\n",
      "MetaMessage('end_of_track', time=6144)\n"
     ]
    }
   ],
   "source": [
    "for i, track in enumerate(mario_mido.tracks):\n",
    "    print(f\"Track {i}\")\n",
    "    for msg in track:\n",
    "        print(msg)"
   ]
  },
  {
   "cell_type": "code",
   "execution_count": 41,
   "metadata": {},
   "outputs": [
    {
     "name": "stdout",
     "output_type": "stream",
     "text": [
      "(12042, 16)\n",
      "type\n",
      "note_on           5687\n",
      "note_off          5687\n",
      "pitchwheel         397\n",
      "control_change     214\n",
      "program_change      27\n",
      "end_of_track        14\n",
      "track_name          13\n",
      "time_signature       1\n",
      "set_tempo            1\n",
      "sysex                1\n",
      "Name: count, dtype: int64\n",
      "control\n",
      "7.0      154\n",
      "1.0       26\n",
      "91.0      11\n",
      "93.0       9\n",
      "6.0        4\n",
      "101.0      2\n",
      "100.0      2\n",
      "99.0       2\n",
      "98.0       2\n",
      "0.0        2\n",
      "Name: count, dtype: int64\n",
      "note\n",
      "36.0    722\n",
      "38.0    638\n",
      "46.0    494\n",
      "30.0    328\n",
      "71.0    250\n",
      "73.0    247\n",
      "69.0    246\n",
      "66.0    234\n",
      "74.0    211\n",
      "42.0    211\n",
      "40.0    209\n",
      "35.0    194\n",
      "47.0    193\n",
      "68.0    182\n",
      "28.0    175\n",
      "49.0    145\n",
      "37.0    134\n",
      "50.0    109\n",
      "33.0    105\n",
      "45.0     99\n",
      "64.0     92\n",
      "57.0     71\n",
      "76.0     54\n",
      "78.0     52\n",
      "32.0     50\n",
      "44.0     47\n",
      "59.0     47\n",
      "62.0     45\n",
      "52.0     36\n",
      "61.0     27\n",
      "24.0     23\n",
      "43.0     21\n",
      "67.0     20\n",
      "81.0     10\n",
      "31.0     10\n",
      "79.0     10\n",
      "48.0      9\n",
      "65.0      9\n",
      "77.0      8\n",
      "41.0      4\n",
      "54.0      4\n",
      "55.0      4\n",
      "39.0      1\n",
      "Name: count, dtype: int64\n",
      "channel\n",
      "9.0     3261\n",
      "6.0     2462\n",
      "10.0    2204\n",
      "4.0     1050\n",
      "1.0     1030\n",
      "7.0      837\n",
      "0.0      562\n",
      "2.0      213\n",
      "3.0      162\n",
      "5.0      159\n",
      "11.0      52\n",
      "8.0       20\n",
      "Name: count, dtype: int64\n"
     ]
    },
    {
     "data": {
      "text/html": [
       "<div>\n",
       "<style scoped>\n",
       "    .dataframe tbody tr th:only-of-type {\n",
       "        vertical-align: middle;\n",
       "    }\n",
       "\n",
       "    .dataframe tbody tr th {\n",
       "        vertical-align: top;\n",
       "    }\n",
       "\n",
       "    .dataframe thead th {\n",
       "        text-align: right;\n",
       "    }\n",
       "</style>\n",
       "<table border=\"1\" class=\"dataframe\">\n",
       "  <thead>\n",
       "    <tr style=\"text-align: right;\">\n",
       "      <th></th>\n",
       "      <th>type</th>\n",
       "      <th>numerator</th>\n",
       "      <th>denominator</th>\n",
       "      <th>clocks_per_click</th>\n",
       "      <th>notated_32nd_notes_per_beat</th>\n",
       "      <th>time</th>\n",
       "      <th>tempo</th>\n",
       "      <th>name</th>\n",
       "      <th>program</th>\n",
       "      <th>channel</th>\n",
       "      <th>control</th>\n",
       "      <th>value</th>\n",
       "      <th>note</th>\n",
       "      <th>velocity</th>\n",
       "      <th>pitch</th>\n",
       "      <th>data</th>\n",
       "    </tr>\n",
       "  </thead>\n",
       "  <tbody>\n",
       "    <tr>\n",
       "      <th>0</th>\n",
       "      <td>time_signature</td>\n",
       "      <td>4.0</td>\n",
       "      <td>4.0</td>\n",
       "      <td>24.0</td>\n",
       "      <td>8.0</td>\n",
       "      <td>0</td>\n",
       "      <td>NaN</td>\n",
       "      <td>NaN</td>\n",
       "      <td>NaN</td>\n",
       "      <td>NaN</td>\n",
       "      <td>NaN</td>\n",
       "      <td>NaN</td>\n",
       "      <td>NaN</td>\n",
       "      <td>NaN</td>\n",
       "      <td>NaN</td>\n",
       "      <td>NaN</td>\n",
       "    </tr>\n",
       "    <tr>\n",
       "      <th>1</th>\n",
       "      <td>set_tempo</td>\n",
       "      <td>NaN</td>\n",
       "      <td>NaN</td>\n",
       "      <td>NaN</td>\n",
       "      <td>NaN</td>\n",
       "      <td>0</td>\n",
       "      <td>508470.0</td>\n",
       "      <td>NaN</td>\n",
       "      <td>NaN</td>\n",
       "      <td>NaN</td>\n",
       "      <td>NaN</td>\n",
       "      <td>NaN</td>\n",
       "      <td>NaN</td>\n",
       "      <td>NaN</td>\n",
       "      <td>NaN</td>\n",
       "      <td>NaN</td>\n",
       "    </tr>\n",
       "    <tr>\n",
       "      <th>2</th>\n",
       "      <td>end_of_track</td>\n",
       "      <td>NaN</td>\n",
       "      <td>NaN</td>\n",
       "      <td>NaN</td>\n",
       "      <td>NaN</td>\n",
       "      <td>248832</td>\n",
       "      <td>NaN</td>\n",
       "      <td>NaN</td>\n",
       "      <td>NaN</td>\n",
       "      <td>NaN</td>\n",
       "      <td>NaN</td>\n",
       "      <td>NaN</td>\n",
       "      <td>NaN</td>\n",
       "      <td>NaN</td>\n",
       "      <td>NaN</td>\n",
       "      <td>NaN</td>\n",
       "    </tr>\n",
       "    <tr>\n",
       "      <th>3</th>\n",
       "      <td>track_name</td>\n",
       "      <td>NaN</td>\n",
       "      <td>NaN</td>\n",
       "      <td>NaN</td>\n",
       "      <td>NaN</td>\n",
       "      <td>0</td>\n",
       "      <td>NaN</td>\n",
       "      <td>SAW WAVE</td>\n",
       "      <td>NaN</td>\n",
       "      <td>NaN</td>\n",
       "      <td>NaN</td>\n",
       "      <td>NaN</td>\n",
       "      <td>NaN</td>\n",
       "      <td>NaN</td>\n",
       "      <td>NaN</td>\n",
       "      <td>NaN</td>\n",
       "    </tr>\n",
       "    <tr>\n",
       "      <th>4</th>\n",
       "      <td>program_change</td>\n",
       "      <td>NaN</td>\n",
       "      <td>NaN</td>\n",
       "      <td>NaN</td>\n",
       "      <td>NaN</td>\n",
       "      <td>1536</td>\n",
       "      <td>NaN</td>\n",
       "      <td>NaN</td>\n",
       "      <td>81.0</td>\n",
       "      <td>0.0</td>\n",
       "      <td>NaN</td>\n",
       "      <td>NaN</td>\n",
       "      <td>NaN</td>\n",
       "      <td>NaN</td>\n",
       "      <td>NaN</td>\n",
       "      <td>NaN</td>\n",
       "    </tr>\n",
       "    <tr>\n",
       "      <th>5</th>\n",
       "      <td>control_change</td>\n",
       "      <td>NaN</td>\n",
       "      <td>NaN</td>\n",
       "      <td>NaN</td>\n",
       "      <td>NaN</td>\n",
       "      <td>0</td>\n",
       "      <td>NaN</td>\n",
       "      <td>NaN</td>\n",
       "      <td>NaN</td>\n",
       "      <td>0.0</td>\n",
       "      <td>7.0</td>\n",
       "      <td>127.0</td>\n",
       "      <td>NaN</td>\n",
       "      <td>NaN</td>\n",
       "      <td>NaN</td>\n",
       "      <td>NaN</td>\n",
       "    </tr>\n",
       "    <tr>\n",
       "      <th>6</th>\n",
       "      <td>control_change</td>\n",
       "      <td>NaN</td>\n",
       "      <td>NaN</td>\n",
       "      <td>NaN</td>\n",
       "      <td>NaN</td>\n",
       "      <td>608</td>\n",
       "      <td>NaN</td>\n",
       "      <td>NaN</td>\n",
       "      <td>NaN</td>\n",
       "      <td>0.0</td>\n",
       "      <td>91.0</td>\n",
       "      <td>127.0</td>\n",
       "      <td>NaN</td>\n",
       "      <td>NaN</td>\n",
       "      <td>NaN</td>\n",
       "      <td>NaN</td>\n",
       "    </tr>\n",
       "    <tr>\n",
       "      <th>7</th>\n",
       "      <td>control_change</td>\n",
       "      <td>NaN</td>\n",
       "      <td>NaN</td>\n",
       "      <td>NaN</td>\n",
       "      <td>NaN</td>\n",
       "      <td>6</td>\n",
       "      <td>NaN</td>\n",
       "      <td>NaN</td>\n",
       "      <td>NaN</td>\n",
       "      <td>0.0</td>\n",
       "      <td>93.0</td>\n",
       "      <td>30.0</td>\n",
       "      <td>NaN</td>\n",
       "      <td>NaN</td>\n",
       "      <td>NaN</td>\n",
       "      <td>NaN</td>\n",
       "    </tr>\n",
       "    <tr>\n",
       "      <th>8</th>\n",
       "      <td>control_change</td>\n",
       "      <td>NaN</td>\n",
       "      <td>NaN</td>\n",
       "      <td>NaN</td>\n",
       "      <td>NaN</td>\n",
       "      <td>684</td>\n",
       "      <td>NaN</td>\n",
       "      <td>NaN</td>\n",
       "      <td>NaN</td>\n",
       "      <td>0.0</td>\n",
       "      <td>7.0</td>\n",
       "      <td>127.0</td>\n",
       "      <td>NaN</td>\n",
       "      <td>NaN</td>\n",
       "      <td>NaN</td>\n",
       "      <td>NaN</td>\n",
       "    </tr>\n",
       "    <tr>\n",
       "      <th>9</th>\n",
       "      <td>program_change</td>\n",
       "      <td>NaN</td>\n",
       "      <td>NaN</td>\n",
       "      <td>NaN</td>\n",
       "      <td>NaN</td>\n",
       "      <td>70</td>\n",
       "      <td>NaN</td>\n",
       "      <td>NaN</td>\n",
       "      <td>81.0</td>\n",
       "      <td>0.0</td>\n",
       "      <td>NaN</td>\n",
       "      <td>NaN</td>\n",
       "      <td>NaN</td>\n",
       "      <td>NaN</td>\n",
       "      <td>NaN</td>\n",
       "      <td>NaN</td>\n",
       "    </tr>\n",
       "  </tbody>\n",
       "</table>\n",
       "</div>"
      ],
      "text/plain": [
       "             type  numerator  denominator  clocks_per_click  \\\n",
       "0  time_signature        4.0          4.0              24.0   \n",
       "1       set_tempo        NaN          NaN               NaN   \n",
       "2    end_of_track        NaN          NaN               NaN   \n",
       "3      track_name        NaN          NaN               NaN   \n",
       "4  program_change        NaN          NaN               NaN   \n",
       "5  control_change        NaN          NaN               NaN   \n",
       "6  control_change        NaN          NaN               NaN   \n",
       "7  control_change        NaN          NaN               NaN   \n",
       "8  control_change        NaN          NaN               NaN   \n",
       "9  program_change        NaN          NaN               NaN   \n",
       "\n",
       "   notated_32nd_notes_per_beat    time     tempo      name  program  channel  \\\n",
       "0                          8.0       0       NaN       NaN      NaN      NaN   \n",
       "1                          NaN       0  508470.0       NaN      NaN      NaN   \n",
       "2                          NaN  248832       NaN       NaN      NaN      NaN   \n",
       "3                          NaN       0       NaN  SAW WAVE      NaN      NaN   \n",
       "4                          NaN    1536       NaN       NaN     81.0      0.0   \n",
       "5                          NaN       0       NaN       NaN      NaN      0.0   \n",
       "6                          NaN     608       NaN       NaN      NaN      0.0   \n",
       "7                          NaN       6       NaN       NaN      NaN      0.0   \n",
       "8                          NaN     684       NaN       NaN      NaN      0.0   \n",
       "9                          NaN      70       NaN       NaN     81.0      0.0   \n",
       "\n",
       "   control  value  note  velocity  pitch data  \n",
       "0      NaN    NaN   NaN       NaN    NaN  NaN  \n",
       "1      NaN    NaN   NaN       NaN    NaN  NaN  \n",
       "2      NaN    NaN   NaN       NaN    NaN  NaN  \n",
       "3      NaN    NaN   NaN       NaN    NaN  NaN  \n",
       "4      NaN    NaN   NaN       NaN    NaN  NaN  \n",
       "5      7.0  127.0   NaN       NaN    NaN  NaN  \n",
       "6     91.0  127.0   NaN       NaN    NaN  NaN  \n",
       "7     93.0   30.0   NaN       NaN    NaN  NaN  \n",
       "8      7.0  127.0   NaN       NaN    NaN  NaN  \n",
       "9      NaN    NaN   NaN       NaN    NaN  NaN  "
      ]
     },
     "execution_count": 41,
     "metadata": {},
     "output_type": "execute_result"
    }
   ],
   "source": [
    "messages = []\n",
    "for i, track in enumerate(mario_mido.tracks):\n",
    "    for msg in track:\n",
    "        messages.append(msg.dict())\n",
    "messages = pd.DataFrame(messages)\n",
    "print(messages.shape)\n",
    "print(messages.type.value_counts())\n",
    "print(messages.control.value_counts())\n",
    "print(messages[messages.velocity > 0].note.value_counts())\n",
    "print(messages.channel.value_counts())\n",
    "messages.head(10)"
   ]
  },
  {
   "cell_type": "markdown",
   "metadata": {},
   "source": []
  },
  {
   "cell_type": "code",
   "execution_count": 42,
   "metadata": {},
   "outputs": [
    {
     "name": "stdout",
     "output_type": "stream",
     "text": [
      "Tempo=231.58651849469885, total number of notes:4124, pitch range: 57\n"
     ]
    }
   ],
   "source": [
    "tempo = mario_pm.estimate_tempo()\n",
    "total_notes = sum(len(i.notes) for i in mario_pm.instruments if not i.is_drum)\n",
    "pitch_range = max(note.pitch for i in mario_pm.instruments for note in i.notes) - \\\n",
    "                min(note.pitch for i in mario_pm.instruments for note in i.notes)\n",
    "print(f\"Tempo={tempo}, total number of notes:{total_notes}, pitch range: {pitch_range}\")"
   ]
  },
  {
   "cell_type": "code",
   "execution_count": 43,
   "metadata": {},
   "outputs": [
    {
     "name": "stdout",
     "output_type": "stream",
     "text": [
      "[Instrument(program=81, is_drum=False, name=\"SAW WAVE\"), Instrument(program=62, is_drum=False, name=\"SYNBRASS 1\"), Instrument(program=62, is_drum=False, name=\"SYNBRASS 1\"), Instrument(program=119, is_drum=False, name=\"SYNBRASS 1\"), Instrument(program=19, is_drum=False, name=\"CHURCH ORG\"), Instrument(program=50, is_drum=False, name=\"SYN STR 1\"), Instrument(program=90, is_drum=False, name=\"POLYSYNTH\"), Instrument(program=34, is_drum=False, name=\"PICK BASS\"), Instrument(program=29, is_drum=False, name=\"OVERDRIVE\"), Instrument(program=92, is_drum=False, name=\"BOWEDGLASS\"), Instrument(program=16, is_drum=True, name=\"DRUMS\"), Instrument(program=30, is_drum=False, name=\"DISTORTION\"), Instrument(program=127, is_drum=False, name=\"+EXPLOSION\")]\n"
     ]
    }
   ],
   "source": [
    "print(mario_pm.instruments)"
   ]
  },
  {
   "cell_type": "code",
   "execution_count": 44,
   "metadata": {},
   "outputs": [
    {
     "data": {
      "image/png": "iVBORw0KGgoAAAANSUhEUgAAAz8AAAFkCAYAAAAOg4VeAAAAOnRFWHRTb2Z0d2FyZQBNYXRwbG90bGliIHZlcnNpb24zLjEwLjAsIGh0dHBzOi8vbWF0cGxvdGxpYi5vcmcvlHJYcgAAAAlwSFlzAAAPYQAAD2EBqD+naQAAodtJREFUeJztvQm0bVV1p78fPYqAoIAofY8gICCdHcVTQAohYhSLqqBxSKJiiRhF8rfNsIqEykhZphArqVEaR6nYlJDYQBXSBn200ghIjzTSCqERBIF3/uPb4Xedd729z9ln733O2eec3zfGfffd06y9mrnmWnOtueZa0uv1epkxxhhjjDHGzDgrTToDxhhjjDHGGDMObPwYY4wxxhhj5gIbP8YYY4wxxpi5wMaPMcYYY4wxZi6w8WOMMcYYY4yZC2z8GGOMMcYYY+YCGz/GGGOMMcaYucDGjzHGGGOMMWYusPFjjDHGGGOMmQts/BhjjDHGGGPmgokaP6ecckq2+eabZ2ussUa21157ZZdeeukks2OMMcYYY4yZYSZm/HzrW9/Kjj/++Owzn/lM9rOf/SzbZZddsgMPPDB74IEHJpUlY4wxxhhjzAyzpNfr9SbxYHZ69txzz+y///f/nv+9fPnybJNNNsk+9KEPZZ/4xCf6fpfP3nPPPdmLXvSibMmSJWPKsTHGGGOMMaZrYM48/vjj2cYbb5yttFL/vZ1Vsgnwu9/9LrviiiuyE088ceE1Mrp06dJs2bJlK3z+6aefzn/Er371q2zHHXccW36NMcYYY4wx3eauu+7KXvGKV3TP+Pn1r3+dPffcc9mGG2646HX+vuGGG1b4/EknnZR97nOfKyzg2muvPdK8GmOMMcYYY7rLY489lnuQ4RU2iIkYP8PCDhHng9ICYvjY+DHGGGOMMcYsqXAcZiLGz0te8pJs5ZVXzu6///5Fr/P3RhtttMLnV1999fzHGGOMMcYYY6Yq2ttqq62W7b777tk555yzKIgBf++zzz6TyJIxxhhjjDFmxpmY2xtubEcffXS2xx57ZK95zWuyL3zhC9kTTzyRvec975lUlowxxhhjjDEzzMSMn3e+853Zgw8+mH3605/O7rvvvmzXXXfNzjrrrBWCIBhjjDHGGGPMVN/z0wQCHqyzzjrZo48+6oAHxhhjjDHGzDGPDWEbTOTMjzHGGGOMMcaMGxs/xhhjjDHGmLnAxo8xxhhjjDFmLrDxY4wxxhhjjJkLbPwYY4wxxhhj5gIbP8YYY4wxxpi5wMaPMcYYY4wxZi6w8WOMMcYYY4yZC2z8GGOMMcYYY+YCGz/GGGOMMcaYucDGjzHGGGOMMWYusPFjjDHGGGOMmQts/BhjjDHGGGPmAhs/xhhjjDHGmLnAxo8xxhhjjDFmLrDxY4wxxhhjjJkLbPwYY4wxxhhj5gIbP8YYY4wxxpi5wMaPMcYYY4wxZi6w8WOMMcYYY4yZC2z8GGOMMcYYY+YCGz/GGGOMMcaYucDGjzHGGGOMMWYusPFjjDHGGGOMmQts/BhjjDHGGGPmAhs/xhhjjDHGmLnAxo8xxhhjjDFmLrDxY4wxxhhjjJkLbPwYY4wxxhhj5gIbP8YYY4wxxpi5wMaPMcYYY4wxZi6w8WOMMcYYY4yZC2z8GGOMMcYYY+YCGz/GGGOMMcaYucDGjzHGGGOMMWYusPFjjDHGGGOMmQts/BhjjDHGGGPmgtaNn5NOOinbc889sxe96EXZBhtskB1++OHZjTfeuOgzTz31VPbBD34wW3/99bO11lorO+KII7L777+/7awYY4wxxhhjzOiMnwsuuCA3bC6++OLs7LPPzp555pnszW9+c/bEE08sfOYjH/lI9v3vfz/7zne+k3/+nnvuyd72tre1nRVjjDHGGGOMWWBJr9frZSPkwQcfzHeAMHJe//rXZ48++mj20pe+NPvGN76Rvf3tb88/c8MNN2Q77LBDtmzZsmzvvfcemOZjjz2WrbPOOnlaa6+99iizb4wxxhhjjOkww9gGIz/zQyZgvfXWy39fccUV+W7Q0qVLFz6z/fbbZ5tuumlu/BhjjDHGGGPMKFglGyHLly/PjjvuuGy//fbLdtppp/y1++67L1tttdWyddddd9FnN9xww/y9Ip5++un8J1p3xhhjjDHGGDMMI9354ezPtddem5122mmNgyiwlaWfTTbZpLU8GmOMMcYYY+aDkRk/xx57bPaDH/wgO++887JXvOIVC69vtNFG2e9+97vskUceWfR5or3xXhEnnnhi7j6nn7vuumtU2TbGGGOMMcbMKK0bP8RPwPA5/fTTs3PPPTfbYostFr2/++67Z6uuump2zjnnLLxGKOw777wz22effQrTXH311fPDS/HHGGOMMcYYYyZ65gdXNyK5/eM//mN+14/O8eCutuaaa+a/3/ve92bHH398HgQBQ+ZDH/pQbvhUifRmjDHGGGOMMZ0Idb1kyZLC17/yla9k7373uxcuOf3oRz+affOb38wDGRx44IHZl770pVK3txSHujbGGGOMMcYMaxuM/J6fUWDjxxhjjDHGGNO5e36MMcYYY4wxZubv+Zk0Tz75ZPb4449POhumBljva6yxxqSzYYwxxhhjZoiZNn7Y+rr55ptXOJNUx9Ov6veKPlflu+NIH0ZV9rbT32GHHWz8GGOMMcaYVplp44dJ9corr7zCazZ+hqNJ3uqmXxY4wxhjjDHGmLrMtPGz7rrrZttvv/2ks2FqQJh0Y4wxxhhj2mSmjR/cpuw6ZYwxxhhjjAFHezPGGGOMMcbMBTZ+jDHGGGOMMXOBjR9jjDHGGGPMXGDjxxhjjDHGGDMXzHTAA2OKIKw2P8uXL1/0OmHR64TYJp00rZVWWin/6XodKMx4/K33i14rKlNRWkVpFL3XZkhztanSJq+TDJk+LjlL6zY+f1CbFOWDZwySg6J2bbuuY3vWrbNR5UfUlbM20+oKXS7TNOroNok6etRt0XY/aVOHtsm86IPlLfadLpXTxo+ZSx544IHsscceWzSp22STTbI111xz6LR+85vfZPfdd9+iyeBLX/rSbL311su6ym9/+9vs2WefzdZaa63s17/+dZ7fxx9/PFtttdWyVVddNb8gmPw//PDDecj4Z555Jvvd736XrbPOOiuk9dxzz2X/8i//kr3kJS/Jf6+99tr5a0899VT+edLnvSeeeCJXckRgJF1ea5v7778/b48XvOAF2ctf/vJs0lD2Rx55ZEHZIx+veMUr8vwNC/V37733LkqLNlp//fWzhx56KP8/7Qqkr3alLfmbuqeNX/ziFy98Pr0HDegXtBHv8V3SlxwgA8gNoehTuanTd/rx9NNPZ3fddVde3o033jiX1UlCue+4445ctqUzqCf0Rh3uueeevL2isb7ZZpvl/W8aoRx333133m4qEzJEmVZZZbJTjdh3pKOR61HooC6CzEqnjxrqln6LHIDkYPPNNy/UN4N48MEH87zHsbquDm0TxsQ777xzkT6oO+6kfQfoM13rO4J+Q/+po0N/+ctfLhhT1BvjBu05bmz8mLmECWkcDGHDDTesNYF78skn84lMVA5Mirps/KBk+WFCycAi4wQYoJgAk39+Y8ww6eX9IuMHRcbnSIOJ8Atf+MJ8YNDnNYFmoociZ6Ksz7cNk3QGSyb4XTB+KOevfvWrRQYLBkOdgZv6Q87izgz1Sd1Sx5QZg5NnIcc8m2dhDDKhpl1l/PAexkzRZITP63U+T/pRDnhGlBvkH9o2fpAh+iiTC/IwaeOHfJAf8qX6R74ZuOus9KaTOtqyriHVpUUl+r1klL7ehTKp79CGWrEmb/Ni/NAe9OtxGT/IAc8D6hv9s+mmm9YyfjRWUwa13QYbbDBx44eJPDLFb/V/6reu8YM+QN92re88+fz8Ju7+kLe6xo/6IdCejEM2fowZE6xc0xGj8VN3xRVDJx1EJ62YB0FZVW4mlfyfcuh1DBjgN3/zetmdWSgwfV47DEzkNBlW+quvvvrC9rY+3zZM0JXvLkA+MECi8VNXzqg/5CzKrMqpOmZQ0nP0Hu1Ae1D3kkveK3Nb0OeZqEQ50CRGZYlyM4rVSdKkvAy6KtckoT7IT5zsUJ913DX4DoM+5Yo7P9PuhoVhTZ1oAkcbTtptp6zvdF1Ht0ns+6NGO9LS/03lAD2DDo2LPl3YHZU+iDs/dRdo+D59B10ad366oA/WWGONhfoXdcdX6oy0ovEzqX64pBeXq6cEViG1oqzJjjFVQeTpfOqAAoVaR9mQDhOiiCaPXUV+t5SX/JNXDS786DX9lu91UZlUn0WfH5R+22d+aAetEE564jUOOaMO03qHWMex3lU3/epfg3k/OShq17YHatLVAkXdOmsT8sGuTxwy68pZlFUhw7gLxkIdulwm8kTbRZDdSbsUjQudtRjH2YqiflJXDtrWoW0yL/rguZJxp07fabPOmtoGNn7M1ILoyq9YaHW6jvKhU6bKh5XZuopMk8g6aURIJx24m6JBkLRRPOQ3NXJ4jfdUjrReoyIr+nxMX+4mozBINLHRJLlto5N0cfdKFfak5Qyoc9U7vzUhiG0iAwX0WlE98RnKOUgO1K7kue0JSNt9p1+dRerKjeqsaGJQRzYkZ3y/ycQ89k21kdpNhqrkmfw2acdYB3VlokjHtVUHmvS3NZFUO7UxAVceoWn+ZCiku27qU8PKZFmb1Fm0GpUOrdvXYlpFk/u6+qCoztrQB03HtVGNO23XWdMxZRjbYD6WPcxMQoe55ZZbFk3K2ELdcssta6XHIU381eO287bbbltri53D4Pjw4m6xzTbbNBrUyBOHBCGu7Mf/6z29Hn8XvUc96ewNZ50IFIAbDr7xKFy28wnisNFGG+WH4ylHUb3qYCv+v/h5s6VN0AO5vfF/0iB9lNEofJijHOBXTjnaBCV/6623LnKTpGxbb711YznTYWBkZFjXLr4vOaMNqX+5HeJvz2u0IS4o/M3AR93wedoBN4sIebr99tsXAidQn3yedElLckB/QG622GKLkbgXkj+eRX007Ttl58KQxzgRK6qPqv7wt912W/5/pUdfqOP3T32TFvJMgIem51E4QE1auK1o8YLzE9QrckI/R1Yod5PzVLEO6BN13FiYrJBfGWsKctG0DjhvxzkKdA+Hx9uAOqW86EP6QxMoJ0E0oK4+iaBvaWP0U5RB+hS6eZixTONOjBJHGuiCpjoUkLmmYzWy2/S8CHWDHo1udchK0fnWYepMUGcve9nLGtUZZWx6Xos6YxzQPGDllVfO5zd1XIqpL8aF2F/r1hn6Q/ObrbbaamxucDZ+zNTCZIGJjHzw+UlXI6pC52UA1gFkYKBIQzwOowSZwNGRm26uMkkhLeWzyPiRS1OZ8aNVMpUHJcUASf3xf9LHYEE5cqCdfPMakwYGVD4b04t1xkRZn2cyzOdVd0qf36Pavo9yUGdgHgTloExahaMcnBlL66MqGA6kB1qhTd06qkLdU++qY+2wMQGi7XiNyS/tRP0w0PH5onpiUicDhzzq86ShtGhn0uNzozqMy2BI+pK5tlGdxX5SV26oM+pFO2VQdjZuEHwfuWAxoY2D6Uz66cs6t0e+1JeB95CVOoZPbBfJjXaW6kBeqEft0pB+HWM05o3fyHHbukf6oO7YkELfhLr6JK1H0kvzxng07AF19B2T3DjG1F3sSHWoXms6Vrdx9kf6JkYgw/Cug/pCNKSa1BmyS5oYUE1QX6ANpPNWWWWV2m2ADk37ax0DL+pQICLguLDxY6YWOi+rW2nYxDrwXSLIMMmL7iB1t5q1+9CGqwVlYqKZ+lBX2fmJn42v6VA7E10mP6ws8VuR2rRLo5WconKozvR50uDzOritcMkYCrTTqIIQSA6YeI1i1YgyMBjKsKbc1FvddmUgixPOJmcPVO+qY63yUw96jTbBiKGf8FpZmFi+qzZEPuLneQ51QDqSm1EFIWiz7xShMsU+UVduVGexb9ZZ/QT6DBMI5LiNyHYKziDXFh2gVvASGUV1dy+YsGgHUxHv6k5GyUvaJrRTHdBHrEojv9QjbdtmpED6K+3UhnstZZXh3Yasq5xpm5ZFduxHGsad/NWV7VSHQtOxGvlo49gDZYqLF00WMFRnMa26ngiqM+S46dipXTsFqek9v2NTV4Y17kSDvW57UmfapRxnIAuf+TFTf4gzohWqOv61qQKEJhezRXeBpr7cba0yijKDqei1snKk5aySVtO6GFQ/ozjQ21U5g3ipa796T18rep7KWdWNclR13WbfKSK9ZA/qlqVt2WhLjotkTK8XLWLUyesNN9yQuw+yQ/PKV74yT6Pteqzj/8/u9VVXXZUbkTvuuGO+i9amLCmvbch/bKc2xol0gUz9NvanSbTJqHRoG+06T/qg7XGn7TprWk6f+TFzAZ2krcPtbU6yYloMwLo/R7stddLrYuS4OoOpzpL0C7VcFdyDcKOQO8ao3Oq6KmfQZsCBYctJO+Iywmpdk50wyYbuh2ElcJShrSdZZ1XSoi4k2/xdJ5z2KIzGFNqcfqcd3ibPa7MeFT4XWRpFAJRpGXcUDIgxB5katk+NQrbbLie7fLj6Qd0xZRr0AWWkrF3RByuNoM4oJ+OJguk0HVMGYePHmBHCAHTTTTflHZvD23XdBmYFHbrcaaedGh8WxreaC9NQlKzwzkvY2q6AIYtsc5ag6WFyBjyCVjDhJ2gFQTLmGQ5hs6vCgskOO+wwckOmDrh+4UrTtYUZ9AoHudG5bV+8Oy3Qj9CNyA0r4PSvUZyHnDSs8HNYHhlk97EL94GNAgLXcP4KA2/77bfvpD5oCv2VtsQAQlZHfcGrZwvGjBDtdujOkhiZbhoVWHQ3EMOUA2NQ9ZEejq7iUhG3yBngUZRtuwTOE9F1YVjXGOpd0QGL2qCKC4PaE1lQWm2HdZ9GJNtA3YzKzbCu6w6/qxgWZS67Td2J+6XFRLjKGZ82XXe6BmVD11Ie+lPdQBRdhzGVfqKgMTGU+6zpA/SjghaNUx+MC+1w0Z7I7ihd2cFnfowZIfHwrSaJDMysbE+j4kJdsALFaj87OLiVVF1d1XepB7buWd0G1QNpDopyRf3deeedC/dsyK2FlaJZG/DGgdwMWFFkJ41D8lXlkgGK9qT9cVljcBa0CbtBg3bj0OXscIDcHDggXPew+yygaFb0L9pGEbLKAlW0DW157733LjJaONczjGzEySmhnDX55vu0M6u6dYwfQlcjZzEoDTuFdQ5KI++K1Ke8sJvVZnCESY479C25UDJPmsU+hawSwUzl5DdyWjdSYBehTJRRulp3aqEPZmlns9fr5XMlyhfvr6N/V91d9pkfYzoCnZeILXTsn//85/lgi6vItLr1UA7CKGOoMPCgfIdRwLq3AyXHvR6gUJlMYKoYP0zMmAARFrPOfSrm98iXHONH7Vp1UoqLiWSb+4H4vr5LWzI4DzJ+kCEmtAxue+yxR+0oS7MEdcgAzg8G0M9+9rN80kPfGYfxwySSNpHBolXmOnfukAbuV9rNU2htRYcbFhZMkDMZP8gZOqCO8cNESXcLKS8Y3rNg/NDv0KXUP/pyVJE2Jw39gR/k6/LLL89lFx0yS8YPUB5+mNRfffXV+ThIxLtZMn6AMgH9kkUTxhh0xShca238GDNC4gDPSgSD/zSvwCm4ADDIDDPpiHXB6q8mU3q9ysSOzzKoM8jp89O4g9YV4o3awwaNiJHfmKjHW8wVVnkQyBAGl8Kuui3/lViP1A+TnXGdZ6BP65lq37qTZ9qVtGKYeCZsddsZOYsToapyVgT6Ax0UoxnOypkR1S9106S+p6mcjAsYQbNmEMS2U9/UYuGslnPNNdfMyzmq6w7y59ntzZjRQzdjAqAQqXGiOG3lYDVRvsd1/atJI72Qtsp9NzyfAY7fTe7HMf9K9B9Xu9ZxR6JNYphs0P0yVeWgyufnDepUuyZMBMbh2hmfqfaln9WVDbnpCNKoM6mJfT9SV250BjOics4KUV/Pct+KcjbL48Ik9MEkiH1zmP5tt7cS5Bca/ct1IJ3OIoWssKusSqoT6UAuq0WzKnCzStFEu+4gl04MoIoxowF/2gdRfigrA43KXYe6F8hSj11dne2CnA07WZAuI991V9matEmTi4RHSdFEu8mkXQsfkSqTF95vGhVxWOOEZ7ZliOqMT0TnH/vJdtQ3kTYnfDwv6i+1U9qH6z5T+W9j9Vr6YFgdwOdGaQg0ke02dWiRnLXJvOiD5S2OO03qLO2bo2CujB+47rrr8sbYfffdF167+OKL88O5W265Zf43DXbeeedle++9d34+A/C9Pv/887M3velNY/G7Nu3BYUFCRcZOiJ/4oPMlZWckbrvttkVp4SeOX+qsw8F0zixxKBg/cnyQfebm97DaxFmJ9AB1nbMSTA5vvfXWRQMkK1kc/mwDdBzp417AxIIVs6222mrmXEbqQhvic05/V3syGBOuvs6gTN/RwWxFTdtiiy0mfhZDcsZkTPkiT5ynGxUsIhLSNl7QW6RLOBdIQA0tSKrORnkmB71GP9bzmPjRL+qcRaNPcUZp6623bmz80E6Egsdlui0d0GadUVZ5NUBdXcJ5LnSo2hyQC1ygJgllQ2YVVEELPrRtncWbIjlDtic9t/zd8/pAUfOajDsKXa06Awy3unXWNnNn/DAJjtAo3D0S719B0BGAXXbZZUE4aUCUz/777194S7bpLkxgGESjwVJXmTJJIK04Ke1CRx4HLABQdvoKv2fVtaANOYsHqOvA4EM0KoU5blvfIL+kz8CG/JLvpnf1zBIK7IHMx8lOXS9x0onRDZnsdGHBRHIWAxKkK+9tw7OQtxgBrmhXXPomGj+jrjMm8XGsoG/UNQTRB4om1xTqinx1EdVZdK+rq0swjGObw6QNnzTimmQRg7hu2z7++OMr6INR32tThWeffTbXB/GMXlt1BhjEXTlpM3ezFxSZwu3K9Y1Lo5gM8CM3jFe96lW565ug0bhEC2t9mg+szyOsZLJ6FA+21l1xZQKktMS8yAMTeeqP8jIJmZdyVwWZol6ibNRdpY5RApVemyve6DjSZwCXK0VX3QknAXJO5CEtiukW8rouV+xs6LuaUHShviVn0RAZ9e4fsoYOjQtIRZc/a+EgToRH6fKjiXZslyauveiDtq40IA/U2aR3CsvqjHaJOz91XbwVCTDShTLThlynIHdN7QTX1Qd4naiOtOPaBX2w6qqr5vpAfTMGOGpaZ0q/KxsHcxXwQH7E1157bb7FSBryvySc6G677bawuseqDaGJCb+qULxYsewSYRh1pQFNVusyu7oH9atcADiLxAsG40rsrJd7VuUspq/2nLVL85owics5p72cbcr2JOqs7We2eRml6qxrOndUddaGDm2TedYHS2rK3CR0iwMelKDVO1Y72f3RDdqywvHLljXPqhONh5uctuX5HlasXOf4W6vhpv3AFINueqetaINB9d+m4pQMtVXOuCVchmR2knLWpQG3LvRdBTyJh2TbCkTRVTmbRPqjRoFq4mSJ8rQV1rfN+mm777BYx+KcKHOLjAF7uiQHVZ45CX1T9MwiHc1nOJsRDTV0Sxokou6ihy5wjt9vs53oM9HtsIwq85u226lNHaogVSlyzYt6Y9CuS5f1AfOkOK7FM4qxLmjPKv1u5RbL2eZcKc4JVX/xGfwfV9mqzJXxE7dpv//97+dKjc522GGH5dbiD3/4w3xgYQB9xzvekQvP6aefnlc8gQ8OP/zw3KK89NJL89c4uHXggQdOujgzCQYmB177QZttu+222bTCIETwBDp1VIapMcQAxAFS0wz879m5jbADXCcggelG31FAAkBv77DDDlNt1FVd3eRSWYi7sekuHgF86p45M7+XM+o6GptMlHfccceFySX1zcJp3YtbUzgLgk4a1YW/TCD/7//9v/lcph/Iz8EHH5xNK4yrN91008KOmfoJ7toseik8P31El2tOI7QjwVmiPsB41r2CgFHQhQArTSBIhM69qZ/RjrhK0o6U+c4776yc3twZP1rtZSKE0CAcWrVhsk2HYFVH/qsoNQ0mugtDOz+KBDdo27buNl/bW5DpVmubabWxnRnTRXHFM1dFFPl/y7WxKF91ypmmpS34puWkXUkbA5yBNa5EpfU6L7fet913Ujc9yVScLNY93D0NcjZJRq1v1HdY2W3qua3+mKZT924UnR+NaPxokkf9MEZJjpXnOLnT8wat7M+Cm2QqG9EIbCtvyJm8RKDooLuM8LJdOOU15rEM9BRtF93citKKrsdV0JiD/GBg4cbfj6JoqEWyXbeftKlDY5r6QbfTT1LjRzv9zPt4fmoQFOmDJvq4zTorKiflSPUBZWROq4Ug5Det616L5WxbhxaVkz6GERflQ1dv6Pmxnw5i7owfTZpf//rXL6y46zDqAQcckFeg3Kk4+EVoa6CD8Bl2GhSOsGjFGIWCYRWJB2eHgYGdsI8RVi04RDYslAurOE726CCEMKwjnFjhUdBIg2glTQ6kkjfySF5ZxVXo8TKKDuYSoemaa67J8yOlRzp1ogQxSFx55ZULoRpJjwOs2223XaMOjaKSAa0Dsf12fuYh/DBlVt+JAxWhouusVtF3kNF48aZWwyN1gzYQrQc5k8Lnh5W1OiFBkfurrrpqwb1GO82sLk96clkX6oVdNsomeUan1o3WRX9JBzb6TqTJYVoieSIv5FVuppztrLPwwILZjTfeuEju2JFqusNI/pBr8oesQdH5CPWdNsPmole16qozsIxrk75kXHKGrlZ9M+lraxdG41p0wU7vndFuAjLKnKEMJm9MVAfNBdiJuOeee/L2K0uPSR+6smgBtgwWdznbDFz1McgYL4qydvfdd+c7rsD3qQcCQdXZYWTx+eqrr15oJ9oSD4emEf2IVoa8kj9FnYv9gjkKbahImkXj6w033LAoGhtj0M4771xrfkO/vfnmmxfGeeoM3c68swnICDJVpA8ou4LZAP00zfuzz487pKFQ98gTuqpO32GXTcdEgDpDhzadEyJzcttLPWBoR9KX3h5mMXMujR+U45577rnC6/vuu++iv1Hu6XYo0eL6hb6kQ6dbbyixOsYPk24UexzgGPDrGD8ID4ZU9A0lXyiaOiuSKAaUjCAN8tWGoPMbRTOMYo8uIVdcccXCyqcUV13jh6AXrDZo1QxFj/HTBCZxlJM8ElBjHoybKjBgIe9xoGJQrWP8oNBJSzu4pMckpq1wohiwGMZa1ZPBXtf44f4xhcUlLRZZGISmFfoKg350S0MHErGqzsCKvlH9aGUSHd5W38FthL4u9wkmC/TzOsYPevHyyy9fyCcDdN37ntI6oI8wJo1bNjD25TKq/oS7SReMH00CNblkXGvr/jHSS43sIngmd5r0M3608zxoLkCdMvlu2/hBLi+66KJ8jP7gBz9YK4Q0k1vG13gRJTqvjvHDuIoxFi9arjtWF40jyGcVIy8F2cbA0wIG36fvEhW4zvwGo5M6U1roF8ahJsaPXC3pl+iWOuHYn3322ez666/P56zIphb3KWcdkH+CiUk/NKmzKOf0bxYN0MeUtR/DtPXIjZ+//Mu/zE488cTswx/+cPaFL3whfw1F9dGPfjQ77bTT8krn3MyXvvSlWpP6OoxyNZXBOFUqdRsfxZJuPdcNd4tQ0NniCpZCfdchXTFPD9jVzSPlReDr3jBO/aMIovFTd4BmJQFFLNcaBto2zodQNsqpVaBpXd1vGwZ79Z3URWFY+B51HN3etBLeRn3Td1hV1M4Pv+sscACyymQNOdXODxPcaZYLBY1h0JLx08TfPOqbuILaVh3Rr9EbWkEkr3X1GTpaOkgTnjZ2YagD0tIYME75wAikb8r45HcXQvNqgSQehG4yrhWlX+UzyMqgXWStUld5Hmn16y+0wbD9CblhciuXqDp1hI7TRFvXgtR1y+Z7pBVdmOrq0Ah9Dd2v4CfDlpPPo38Vopm6RjfX1Qd8V+XUbllTV3bNa2hLycGw5Vzp+XGHOo87P3X7DjqUHSh9v0mdxTzSv8lflaBPw+R9pKGuL7vssjxwAJXA5aAyft7//vfnwQW++tWv5hV/7LHH5oX8yU9+MtJQ1+OARkq33rRCMixMqGKMdKDjkFYdn8y46wOkUUcJyu889WMlrSZ+7bG8dOo6B5ep+9Q9RneYDFtO+ZDGcirqX5PBVX7XbdTZrCAf7dQvua4cxDpu2nfK0k+jQLUpZ+Szrchlk0C+6Kk/eZf0TUyfBbkoLzJY6qRPueMBecqLzmgSVTDWQZty3GRcq9s3uypnTaBdqJ9+rpfaIR40F6CdmeNgAJWlJ305jBxQT+gZPo8hVKftmEOkETPRU3XmN22O1UXjSBN9k+oDRZJsSx/UrbM29UGv11s4E9V03Glbhxb17yr6ZhjbYGTGD1uar371q/Mdnc9//vPZrrvumhs/ZArr8hvf+Eb29re/Pf8sW7xs4y9btizbe++9p9L4UaeTZV/ls1pFK1rBlD/qoNVNHRqUABcpS7lsVekgfE4T0KJLvJT3Khf+qYPGVaIuoJX62OmbrCSrfttIy5TLtug3IVC7Vm2DeOg2BpxoQ15HKWf6/jTJmSaIkTL9l7ZN1YABqiPt9sUDwE3rqUhW6l58WiQbKuO0tOc0lSnV0TBuAzLKjya+mjNEGeI1vA0G7SRprK6iq/TsceiLNuWgbR3aJvOiD5Yn447Gx7rlbKvOOnvPDz6lhxxySLZ06dLc+BH4PjIh5nWBXyB+o1WNn67CmRoqvChKSoRGJ3wmKyhs6RX5uHL4GwVYxf8V30/8f1nlIPx2qghJB79JDntXsZw5j4KQc7gs9alX6E98Vgf522Oxc5CY7+C7XMfHeFRQTkW70eHAuq5G1C9+vdpi56fp+Sfz+z7FQkqMbIQcl7kNoPTw+eb9Qf7BmmgooiMrV/QhZAM//zpnzlLwycbXXi4PyARyVsewIn/kNbpyIGfTEg0QfYcvfYxipXNAZfqD8gIuu4Mmg7Sh6pt6pl/KeN5mm20au2BIVrQwxW9kpO4CHPnUyqvc2aY57Dp1QpkUWUrtO2g8HAfqO5pkkVf6+Lj7ju4S1FhDEAnclqJsazwahMZqxuJBZ250t884jhZQt7pHUXobOah7xqVorKbfTXoxlXmsxg4ZLuSrThCdWGfSj+iVLsyZfvv8/AbUf+qOO+hQzo3FQEHovLqBh5owEuOHszwcZMPtLYWCM8FIOyuVqQhYg7Za6QxdhIlXFT9oGhxjhYEvKmPQpIZOwEBeBeoD4cQYwWBJ00LgeJ4iggwaJEhLkVLStBBa0qoysWQA5JAuv1F8qWvCJKGcTJLJE4MRdVR3sosSVHQZTeqmeRLTtT6FvGmCSN0qgk+ZoqYtqp6NI136Gb/pjyh0ZLatHWXJWTz7gWzUGbhTOYNpkjPyj26JEYkoR5nxQ5/UXSRVzzdgMFFH1DPtyjPRP23ckyVZkbsJ6daVE7mckFfSaRoKuytQJtosuh11AdqMfEk/a9I1bhirqRMFUqK+UnfIqrKgsbrKuIW8sog0LuNHcqCJPGWua/zEsRq92ZVFAspGe0oXNDmzFOtMfaety7eb8szz447GMKhrlFE26kyLUvxMynurdeOHKBsENzj77LNbW1U56aSTss997nNZ10Egqhxs1YE6DDo6M6vbcTUI6OBVVyqjIUmEJQQUhaiBR8q2ikJVpByt4mkbUZNJ0iCtKh2T/LPjg6BTVnafMNCahnhsA01C5XrY5JAs9Uta+n4bwR/Mv8KqsUJZauLSr26ZJNMWVXfd6H/0HwVEQK75qRtYpEzOlPcm51QkZ6BD59MkZ+QffaC2hH4DXwz4UrU9GXOoI57F/7VL04ZhIVlRmgzcdcc4ys9qJ2mqPqb5AkJBmWg3TXq7UibkgfFZcqczBOMG+Yl9tigEcVU0VleJeKhD++NAsk39tiEH0qGjCGjRBPquFnU1ka/blmmdQRf7zpLn671u31GdxZ2fSXnItH7m54wzzsj+4A/+YNHKpixZOiA3C+PyxjZmnLSzmnvcccdlH/nIRyrt/LDV27UzP+roVc7CqPHZtiZEIAqMsIxSjHp/kM9nTIt6IVwrn+e8lSZw+kwV/1F1YlZddccNLiNanR0mrejf+Ytf/CI3phSmdZLKS50u3YmqExlG6RVdatgFBT3NRNmO9Dsjop+q7VnUdup3TSfMlrNyfSCkL/ud4RqmnEXyUuXsZJNLp+v6vrcpG12gy2XqQt8pmiP0u8h0EBqrq+iqVC9OixzMi0zNUzmXj7AfTvTMDxeFMgGPvOc978nP9Zxwwgm50YLVeM4552RHHHFE/j7x1LkbZ5999ilME8uwi+cnMBBiFA9WAau4s+jAHmiFkt+4ukmJVQ1HGdNSJDKI+SLNqhE8oiJVVDMmLGyZ63lV09Iqvax7pcf2rtJpKzpcPNg8aDW8SKEoOEOcnFGvVQ5KxzZQWoo2RvmaRh6ijHTqNtYp1HZ10qIN44qPzskMc5M8MlB1tyKt1ypyMGxkxSrPIH3aMj1AP2k5A8qdRoSsQpFOIE+4DVZFIVurynaVHdGmfaeKPkFvx9DIcjEZ9N2i+ievUdeS/3iz+rCyochGkom6kAYLV4Mu/WtDD1MH5Ft5rpOW0oh10jSaH3WgKHVV+mtV0Af0k6rjfT/54TXkR/eEDVPe1OiR/KjvRF3Pa8MGeKjbJkWyLR3dtg6tqjur6BtRVe+U6YO0zqpEKRukD+pGDB7VuPNsgQ5tUmdKa5wRJFs3fti622mnnRa9xvYd22Z6/b3vfW92/PHH5y4NWGcf+tCHcsNn2oIdYBBwoF8rKhzEHvZwJ/VC/SBMpCXhZIdk2AsTUXYYmeQHVzqFkWTbeNjdFhSAzg+xY8PODSCYpDXs5YLsHOFvTJ0R3Y/0ueW4iWskdYabX3RD4Rl1LlwDufkB6ZFOXR9p0uHsCAYD7djE+OHMy49//OMVVkzqgHygYIa5CTnuzqaX/rJoUfUMHnXALmIbdzlEUJy4VFI/9Ke23Sp1YWcMxY1bKc+p0660p86yAPVRR86QUWSMsg8LAxUX9sYBlUUJbumuahizs8zFc22vTKrvoBtYLGs7fXRQDBxBf8Adr875FAwMdK0mmfyg6+q4rCBb5IsJDzLRNOAGLuj46vdDt8030cPUAR4MlJmzoHXaC9nT7fCaXBPsp+miJ32NOiBfbXmJaKwmuFBT1yTkBc8P6pD+2HS3mTNA1GM65lMPjGfDtDNGGe2qXVPJdp2LhaVDtYiEribgRN2xWjoUHdTvYtkqcI5PB/rlVkeadRYfqDPpg1hnde75UnAA6oyxpmnwgzju9BrOb1Rn6q+MI5Szbp0xhiFn5Gdc7n4TcRj/r//1v+YVxs5PvOR02kA4EQJNFtJ7RaqgXS0EgAFAadSZICKAfA/FQlQlBUxIt1OrIB9hRSFRWgjosJPw6PPLwE5addJJIW8xolNRONNh0tI9CPq7ycWEusOgTt2XRb1qw/hBqSNvdWQ1/Q7lGiYwh3YR24Z60eppnXJVTZ+0ZTTWMR4FOi/eb9Fk4qn+NCw8M5VL2ibqs0GMyh0j3v/Rslf2ovQ1cGvxpMkugCY6TXUQcoZ8tHEpKvkaJBs6nzMsqi+tnPMs7fI3uTcr7mbU1XdR50qnN+mvZcED2tJl5I/6a0O/Iz/qw7Et0ruQqqB2jcZP3TJLhyofpFO3TbSrSd7aOLeFXpe+SQNQ1ZVj6ZY0fHUdfUCdNY2Gls5voI35jfor7dC0zurqok4bP+eff/4KA+8pp5yS/0wzCE+MoNbkkDQNrxvjoYmw0/FY6dIuVFO3K9LRVqRWSpvWWdN0gDyxOhr9ZeusSgH5wXDUSmNT40eroG3cJUG+9t1331YmguSpruGZrpxKzobZaanbPv1AjiQHo1g1og05cBsHMp5Tt11ZcYsr2k1klrTYcR6WorsV0MtVIkKKUR08Vt9p426eIujXilYpN4y6rhboVlYroytp3d0K2oPVXSYDbfQT8jXwor8GephJNj8xtH/d9kL22AmI7j913XyYzLLKDZSNtm5T75AvdvPbcMWnrCxI6e68piA/CtoS24IxZNj6pHy0SdQTdaP3SYfKeEKP1h1fpffaOg4hfaO0yWvdtlCdxZ2funVGHlRnTRdDNL+JeVmzQZ+QDlU5q9xvWUXOxhkdcmSXnI6SrlxyWlR1TXxPi6h7qKyttMrSayutJpObcdRZnfTarC+l11Y3bTqZjN+vm6e2J7RtylSV9LsiZ4PSq4Lbs9lzRpnWKHRjmzoONyZ+WKjDBUxpTLoeWUXG84E0maDJXagtOUoPpbeVVtP0+o07em+Y9Keln9RNp19686QPlsxQOTtxyek80Oag3NW02k4vKmPFtGcVoc4qRFfrrOwQeRowYJj0RuVi1IQ6Eybdk8IKDzulTcrFNj5uAaw4NT20PY1y1nZ6w6bFarXOeylMa13kPsbvGLhlntoz6kZkG9ceZLrOLuM49AX6jHZHfzfVUW3mV3XWhtfDNMpP2je1azBsn5qGcjKWoDd0h1qdMaDr5ZSbn4KKqL9NKl+jLKfcyzUGjFKP2fgxE0HnklBcuBBwsHkW0WF8OnaTYAyzgg5hs52/7bbbNkoLv3tWnpmEbb755jNxSeQ0Qd8lUicQzKap8cO5NgZ53Chxg5hnWCRAtjHqcUWc9G32Rej+t64tzGDw6GqGLtbbOKAfEbyEfoVulIvyrMEuH0EZaHOODXTlUt22YaGYIDDSB13rc20Qz5eza1N2+XVb2PgxE0GHHnXwUeEh2zgj0yXiIVGVVT6ys1TOquhAeAyVKaqcvdChcoWxVbALM37UBkBbxpDbVftyvFdM+sDtuVg/xotax2HgFx1sT5+t9q0aurxfWsPkK73HqUiXVj07UHQYvY37oLrUN9W3ZtUIjEFGKKdkYdbKm+qDqvc7TRvLQ1tKb4yqT/rMj5mYkBNaWm5hRLpjBZ/D27OkuOjE7FAoMh0TRLZzdUh6nqAOuNxYLj1pJCrqZFB4X+SGEJt8n4kXK2HIC+43szYQdB3akYPltCs6ORqztA2h8gftBtE3WO2TqxK/0QNtRDubVuT+waq23AHjtQijhucpjC3oCoE6rsnoP3b0olGrKy6GRdcuRL1Bv9ft88OCzJIeoEOQWUL5t3Uf0CRR0AdF5KRcTQIydVkHxfEVOUMmhr1ypMuobOgE+pPc/JD7WdKTvV4vnwfq7jrKy/iB7qnaJ33mx3QeOq8murfffns+QGpLd5ag0+LqpgkiAxLKuW58/WmGCYoGJdqbuzIiDM5VjB8mPyhJ0qp7145pDqvruKfRJtxtEe8uYtDC3WaQ8SMDCoOHth9FNMBpA3mmHvhh4spdH+gP9MY4jB8mWCxS6BwPE0r6Wp22QTbQe7Szdm2alIF+r0m9Vvjr3n/CAgrllJ5GnnHHnQU0aaSe0LOz2q9oM2QT+WIRRaG5Z8n4Qc4xcvjB0NN9WLO28L9kyZIFA51FCY4LsFCc3i3YFjZ+zMRhUMcfeRSHU7uEOvYoD3NPCwzGqQ96lZVJ3T/FZHlcl6GZ/tBn01XIquFiaUe+2/QG81mFOsTAbxIyt87EmcmjjB8FoagD/ZWV2Ljz00T/SUfIYaWJDiAfMpx0UeMs7h6jL2d5XI1yxrgyy+MC/VALfrN6vimOC6O67gDs9mYmjgZGreTNoqJWuGqVc17P/IiiyyCL7p5JUR2C6tF0wx89PYtRpS/r3IX7RHfkPT5Tf9fVyzEtyUeTMz9p3iQzdfIWz/zo+7Mmg6qvWSvXvI4LsZyz3KbLa44LdnvrEApbmt5mXDc0b3qwGFgBqLMyx4QFv8oIg1ydy+rkpx4HJrlvDEqrySWDVcsZzyOQH+qrTv1TvrT+SWtQ/jVAT6tSLpNjVk/rtF3dCVCXD7NGOZPMN5EzpaVJYxU5GyZ9+ms0WOr2fR1+r0NXD+1SL9R/1Gc6F1JHN6Y32utW9EFpjVreJWdRDtqUs6L8S/Yi6TP71VlbO4Sp7MUgKukz60wyFdSljZC9Gqurjqnjkp+266zuWD2OcrapD+rW2TTpg15SZ/yttAaVcxzjgo2fMYA/vHyLgYbffvvtax1Ww9+Z0I4RwkTX8YvE55lQtVHQ694YT0e+9dZb8zSjUbbDDjtM3J0FP3H5yeomYm7VrrNtjAFAe8ZVGNKaxcOkKdQhftWC+txmm21yt0Xzr2FXCU8cdz2QjTq3kMcQ6dpVwU2wrbpm8CUUbhyASZv2NP/atwkti+7Q+RJ046AzaWWwEknfkQ5iQkx7TtqQRw6QWe2+U1bOcY3So4JJPLJNXWg3h7pIdSiruLSBFo6oM/rTKOuMMPyMsZqc6XxmnYk8bY7OZKxvmmeN1UweuzCmpnXG/EYRCXE7Q4bq1JnOtEh/kl5dHdomCrSD7NJXdH617nmzKGeUUW7gk97JeeaZZ/L5jfql9EGdcUc6VIFb+JszdXXrrG2604NmGBo/HgZG2FOXn2Em3zEtqHt4njwwwMTVjCZ+pBxEV2QioEN3wauSAZ5JjLZPGTjqhtOlzmjPNPzkPIDij7JHXaY7QfOM5EzGD/JWV874ngYNGT9t1rUCR8RVVvKrif68o4sFaU+5DTWJrITejrKhZ0wayRmypcWcUfdpPVPGT9kzkU0mw3EVeNR1pnaCpucqyD99rI08a6wmP12Qm6I6k/HD+Fo3j4qOqh0V+koXyivPFsop46fJgieyIX0g+e5COZ97Pvqu3M6ajDupDuVvXNK6go2fMcBqYRw4q95DUAQrckRRSl+rgy4Gi52u7mFByvSKV7xi0WSqrstP27BiqJUoKZu6K2eUSbtsWhmZ9KrUuNABRKHVWFMsZ03cwfgeeiOuwLVZ16TP5cLRcB/GnWbW0U6PFnD4u8lBaiZKUTbQvV3QjZIzTU7alrMiKLsW7DT2FD2T+tZqeBNX5WFghTueIWriskabMya2kWeN1V0MyqBrBmT81HGdFdoBiWe5urDLRX4INECb6ixKE+Mn1QdN6qxNVl111dbGnVSHQpc8ZBzwYMSoetNqrntIUwI5yrTi72HSir+bpNU2ZSJet87aSmuaaFuOZ5FpkrM2+/4s0m9YrKsb20irbSahz6o8cxJ11vYzi8bCpv21a310lHXWNK02sT5Y0lpaddOrggMedIi2lVWbk82204q/u0SbeWozLV1eVnRrud4Htv4nvSrf5fatCruSOmitcrCi2lbI0K7KWVn609yW8VJD/U0/YYe9jXJ1uS110WGqJ9LnsZo8KBDOJGSgyjO7ki+5O0XXH+mMWP+48aWyV3fCyPNou7jD09X+2nae2kxPLlxCLpapKzI7V4N2l7qsD4rGteiBA8hSlYvAl3S0nAq4hBtd7AtpOXUkoQo2foyZEChhDgRGH1v5/9K59RpbxbgomWbgS85hzhiQoEsHMM3wfUdnDfhhgQCX4EkHERg16Is777xzQVdE/3y9xg/uubidmOYH3eOhbdyCYoAhXueQPhd0tzHhIzAGboGzfI/LOGCyrKAxOp/L5DlGGqSf7LTTTp1yxxoWZJMgWPHsEDsf0aUZY/pVr3pV51wmh4EycTl6PFNLoI1ozA4T9djGjzFjRpMVhXLlp5/xMw8BFYru8Gh6J0hab6rveLC/bkAC0x+1ZbqjWeduiiLZ0CF5BYOY9X4S6zMtd2r8MDEoWuFuQppe3bYch5w1ufunCOmNsp0DUJv0e268n2XQ81jRVluW7UjNw/09wxJ1RQyVHv8uCvIybUS5j+OayqN5hZhWo6dXUM6445qGHx+mL9j4MWbMsPLEqrVupdYN7kIDqBR53dvVp3Fn5qGHHloY0PnNynWdVTnVsZQhChLXBg4gx4AEDtgwGhioqH/dGUH9U9d1wwazwqfIWZoUIhvqO+onszwRJDwufYSyv/zlL19BT8ig10+T6HQp7LClfZPdj0nrJu0AssqvOkAm2joLTDnZHUbWpKPZYYxQH7gU3XXXXfnOY5kMsmNHfxi0G8eYwM4eq/Vl6VFu2qNu6PVZBj1BGGn6iYIKxN2fdJFkWgMWoRPpl+m4ppDS6YLANO6IP/vss3n/5je6hmtdoo6jr0fiVSuDsPFjzJhhAEQ505lRUlUm4LM8qYsGCwO6Vjt11qmO8YOypI614sWAx70M3BlhRg8DL4dPmfBp0qE7U+q6dtCeTPqQC1yCcFdM+84s9xMmOtQBE3uMn3HCpEJ9UxMpdNekQR5wh9EF24pO1ZbxI8Om6HWhe1pwqU0jsaZ1yE8/44d0iXKH65uMn36h6m38lI8j1KOMglkDOWchBAMIeaoyrk1jPSxfvjxf9GFxg7FjkIs6Y05VbPwYM2YwepiIM4GoctvxvMCkBeUW3VbqrsqxGkYdq26ZfCtUset79FDHTEAV5lQ7P3VhF4P2jHeJzFvfQX51tgnGWXb6IfUfzxR1wZWGPEQ5i/XTFlXqWcZ4P9IgBmVU2VUrM8rM78cRjR2zqCNkJMcd3lks50rPe3+wmFkl6NMwdeBQ18aMmeg3Pm8TuEme+enKOYV5oO0zP2la89Z3Yh1MQo6Lzrp0of7HceZnmPrpVydVz/zozEYMzFL0GZ/56T+OzLK+n7Q+mEQ5q8wFHOramA7TlVXTLqHJSqwXTQJ0bkTKvcplh1Uvx9OhSf0fMJpYNZxGH+muoIlbhEEM94WIdnH6DdxFaVU5LB4HzRiaeBoZpg7mSWdNul6GqR/yKl3T73war1cJUa5w73x20mevujyOzCJdkftpLqeNH2NMZ8Hflx8ZP0yUuQG8rUAFGFf33nvvgqHFoMmq0TbbbDPV4U+7CIaPQo1rhRaXDdqzTT94wqHiEsL/aVMM2a222qqVZxjTBEJiI/+cRWkKq9y//OUv87Ri6G1jzGBs/BhjOgsHhJnEysWDFfw2QxqTLofpdYkaz8DYmuWwyZOCOuXQvowftWmbsLLOQXDS5Tdt2mbUM2OagK5pawcS2UZXdSHwhDHTho0fY0xn0a3U2vlhC7xNFw9FrdIZIZ7Bjs+0hj/tMrQbK9Rx56fteuZQLOFt2Rnk/7SpXYJMV+AgflvGD7ubm222mc89G1MDBzwwxnQSqab00Hz83dYz9H9NzMd9YHoeSIeaeI6rzfaM7SjcnqZr8t9UHtO7nYyZdx5zwANjzLTT9sS43zPG9bx5Jq3XUdRznAjOczsyKeYOENys+sEZOnbjmrgfcq6Kg/fUN7ttXTmITR1w5wv5o5zsBk5SJtp+to0eY+pj48cYY4yZMa699trsxhtv7PsZ7tA47LDD8rN0Tc7l3XHHHfn/CSzR9j07TSD4BWe/WA3mdnhjjAEbP8YYY8yMwa4HE/9+YPTU8XyXy5WiJHL4nl0I/p8GC4l3kOhZo9yxiHeDEACDvPFbZ/rEPIRENsYUY+PHGGOMmTF22GGHbMMNN+z7GQJOVLkPq4iHHnooj8TI97Wrgqvdr3/964XP4AL38pe/fMEVbhQR/lIwdO65557c+CF4CbtbGD533XXXos/x+otf/OKR5sUY001s/BhjjDEzBve/tHGfTBnsKmEAcbCY52Bs3HDDDXk4c0GkPe5xkvEzjvhK7D6RLwwt7uvC5Y2Q0Knxw66XjR9j5hMbP8YYY8wMMY6D8IRaxpjRGR+eiSEUw5dj9MS8jMP44ZkYNTwL44vnY+ist956iz7XpbNJxpjxYuPHGGOMMUPB/VgYFNG44Y6lNMR4jP4WwzOPCgwdueHp2Rg6m2666aLP+byPMfOLjR9jzMTRJaPpYWnOE9QJnYvLC+4vRc9pI33THx02TyfCWokfNi3asuieoEjd9M2KfYe2GwR9J14gq/M80aigjQg4ECPD6SLh2E70+7S/pn1TcsBz+lEkB2m+gLTIT79nGmNmExs/xphOwGHphx9+eNFrG2+8cfaiF71o6LSY1Nx3332LXmPSlE6cWKmuk77pjw6Yxwkt96ywIl/HOOEMB3fJpM+IBpBW/G38NIN6/tWvfrWC4Zoam5zliRcJytilnVM54Dd9j/NAXEC4//77L2onAiek/ZX7h9IzOXwmvbsozRtud+zyDJIDzgEhVxGCM2CYGWNmGxs/xphOgMHCDc3pBKgOTLaYUEWYfKU7S+uvv36t9E1/mIxS/3HVv2gnbpiwzWl7prtBTLrHcaZk1qGP0A8HGT+4vUUUXjp9jXbDMOL/pPvAAw+s8DneT/s+0dhSMHzi59IQ2nJxqyIHbeobY8x0YePHGNMJ2IFJJy1xFXkYcHt56Utfuig9nTdoI33TH1yMqP9obLIzU3dXJj1ID+kuHi5L3vVpDu2UhsguMn7SvkP9p5/BhQyDAjnAEMagwWhK2wmDhV3YyAte8IIV8sYZo6LXI1VdH9nhSZ9pfWDMfLCkN4VLZazWEL6S7fO47W6MmV6KjBMmMXUmtEVpFVE3fVOv/uvUt9Jxe46Hun2n6ALTmBa7NhiwOn9T9rl+6VedrlSRgzb1jTFmumyDkez84C98wgknZGeeeWau8LbeeuvsK1/5SrbHHnvk76NwPvOZz2R///d/n/vd7rffftmpp56ax+Q34yO6BqHwCV0a72PgPVZXeX3QRXjx81rJYwVR7+G2wsofK2txBVeuEvGQqW7idjSe+aJosoNrSnSX4n1kC9lAnvjh/wpbq88jT8jaoImMXHxAkzLuL2HXIh7mNsNRNImkrtPzGugV6QPeo83RG/zweZ3zoS2r6CA+Tzq0HZ/XJZxpVDLze/1LnUUjoErfKeqbwJke0lRAA/VXPs/rGgPiXUBAe0nf838FSkgDL5DWoIAEOlsUIZ8yviRvkrOq+sYYMzusMopDyxgzHGjE+GEScfPNNy86uHjyySdnX/ziF7N/+Id/yLbYYovsU5/6VHbggQdm119/vbedxwiK/sYbb8wHCwaUnXbaaWESyWu33XZbbrTsuOOOAw+F6/OarGy11VZ524t777039/XmQDKHSgUDXLwrAngmg5IHHHP//ffnxohAJpAtJjCs7vA+ssJrvIeMYcxgsG+++eYD00fWrr766oUIUcjhlVdemR122GE+D9Qy9PU77rhj0UQbNyj0AYbO3XffnU92cblCd/B/fX6zzTarFJgCPcNFmxg7pH3NNdfkY8+b3vSmEZduOlEdRxdCDBfqexC//vWv88VLucTxwxhOO++888650ckPfVOGLMYormapHNBGuLORls76EPwkDUjAfIG+PaycMS+56aabclnTxa+446VnfKQ/ivSNMWZ2aN34+au/+qt8gstOT1RYAoX0hS98IfvkJz+ZTzDga1/7Wj7gnXHGGdmRRx7ZdpZMCQx4TP5k/KQuABhHer8K+jykB8sZZHkvXSkscj0oOjhr5pM0HC2TEclGUahavVZ1soKssSJMutpxxKhK5dc0Ryv/UZ/ElX3t5Knu9XntGlSB9Fj1x4hlMo3hHFf3zWK0wxLlvWrfoa4Vulp6nPrWOMBigtpNkRYVEY7PRB1Pv1X/i6/F/s17VeRAZYqfxfCiX2NkKc2iABz99I0xZnZo3fj5p3/6p3wX5w//8A+zCy64IF9p+cAHPpC9733vy9+//fbb83CVS5cuXfgOPnp77bVXtmzZMhs/Y4RBjlUtXToX3Xz4m3ChDAZVduPi5yFdpWWFjRW71A9TLg5pvnzXggF2X6IsIWdyf0KWkJN4izyfZ+W6qssassbOJpCO3LAc7rZ9MELiri9ItzDJJHSy3GzTz1f1CEDP7Lrrrrnxw3f23nvvRbvKZjHIO3WchgyvArtrcRdGYa4xYmgH+lM830N/5X3S1+6L4PU0UAE7QKkhVsUwI51UzgiywA950BhUtIMk/VGkb4wxs0PrAQ80SB1//PG5AXTZZZdlH/7wh7Mvf/nL2dFHH5399Kc/zd3i7rnnnnywE+94xztyRfOtb31rhTRZiYmrMWxLs7vkgAfNKDuQXPRelcOjddIqOyRb5ZlmtumnmoqiT5V9rskzTHsMM9QUtW+V9nB7Dkfd+hp22sBOUFUDtmzcqJKvYfNWNO7UeaYxZs4DHrByR2CD//yf/3P+92677ZZde+21C8ZPHU466aTsc5/7XMs5NVGh0274b7OyhtsI7+EiUHXVKx1EED7Swsebv1m9ZwUWI5b3WA1k5ZDfPI8fnqWzYQhx6n6gz5sVoY6pM1ZbWdGc9GCtABi4m7DSi0IaNk9Fn1c5WV1mMoVM6f4Q3mPVtmzlOrplihiYw5RDfXMGgzpmRb5OnRW1J20ifcNgRf9GZmgnZJnXyuQgBliBrsj+NFFUV7imxXN2oL6mz6ff0z0+aThzXkPfIzvajUPPMx7Ez0kOIrgtRoNJbR5dJZEXyU1RmfiOXO3SvCFn6cW5qf6I+qbfM40x00Xrxg+7OXIjETvssEP2f/7P/8n/r7j6HFSOOz/8jbtCESeeeGK+k5Tu/Jj2wF3tzjvvzF0DcE1kIkF71N3yJ+IfxgppMXBsu+22+eDH4EWQBQwjJsQMIBxG5XMMiEysGKA4uPzggw8upMeAxIDjiWo57KYyWRh0IHhc0KdpR+SAtm4DJlOUk8kSrjXIFLLLLfK8x0HtMhlB9qJMATrIMjUYJpC33HJL3pdf+cpXtlZnTHjRO+ib7bbbLtcHLMJw8BxZTifJgramLeMlquSJIBc2fpqB4UmbRNTXysCIoC1YvEojdxLIAtnRXT4YNYoGF/smfTiC61q6W4ROiZfdSm7K5BHjJUYRjGCU4YIf4Xxyavygw+KiCe+Tfxs/xkwvrRs/uLQxuY0QZUXRY1AuKMBzzjlnwdjBmLnkkkuy97///YVpxvCUph46BBq39lHeqZ81E8lBdx2Qhg6oRmijuDKo8z8xPYWw1t9KI36GiU2aB9+/MJgu1k/VdkOmkIUoU/K3TycZSrNIPqIMpQea08PSlqnhKKr3MuKKu6Adiy4iLUozvibZiO1XdPDdbTk8Re2kMSCi4BMRjQG0qa4yUPCcmDavp3o/DWFNOgqaoM/xWhrQBNJ+n+ZfzwXyUpQG+VSABY2NGDVpwIMiF2zLmTHTT+vGz0c+8pFs3333zd3eOMdz6aWXZn/3d3+X/0hxHHfccdnnP//5/F4fhbreeOONs8MPP7zt7JgkFHVU7OwQEPBAk0yMUlbVtt9++/y1fqu7rL6zYyP4Prs7+g7tySoddzwxmOkQKb+1wsvAxPPYGZA7hO7qYEU+hhrW50051HmX6gh5GsZFihV/3GMEMogcxAPIyAHlRJ61IILcEGwD2dHt70zG0lVdVp75bvqaGQyLJOjrWMf9oH1Y8Y8GKH2cg+5x8qiwyvFgucIex0AW7PJEFyVeT91g4+dNNTAS2OWJxiT9Kg11ze4J4aMjtC9jAH1U927RngpVrXDYfJdrFHgPGdAzo8HC63gdgHaFcL2Lz1QYbH0OyDf9PC6a0PdvvfXWXJ7wEOF5yFMMay03PcpJvvk85WAnMobX5pmEXY96VUEcjDHTS+vGz5577pmdfvrpuavaX/zFX+TGDaGtjzrqqIXPfPzjH8+VzDHHHJNPeF772tdmZ511lu/4GSEMNAxUcQKR+k7jYsIuHEbHoEkEA1McJJgcxV0c0mJwJK04cDAR1uClFTo+qwkVafBavBfKDEZnJrqUHyYxw0RNY9KCK0okTnTKyol8pW518fLSOKkrc6My/aGOh7n3SOewoo5JV/uLLpqUQRqNUrkuxXMo5AdD1h4BzVA7ReOBvpSe0Svqm7g2Y3joItCiS0lpNwxgrrJQ1EYWvNJ7eBg/eKbOlAHPi8/kOaQT+z9pM87ERT3Sx42aNBlXFM20aKeJZzEmUg/kDxmLz2RcxGD3Iokxs8VIYjj+23/7b/OfMlBEGEb8mPGgVfQ4OKW3eLNSFlft+sFEKE5aFCY4Pq+KEZUavHzeE5r5BEOJyU2kriww8YmX7Cp9Mx6YNFL/cVKdHjgfBibGUVeQTpd2OacV6pAdkbjzU7QIiRGR9k3agHM5LFBo8Ss1EhQ0J44VfJa0ovGDFwLPja+lwS6KvBGQM54fdxh5puRDeU7zpaAL+j+GtMa/+AyHujZmNmk91HXXwtmZf6XoosDUh18+11XO/BRdThp9uqukFb+fhjf16vx8oXYvCm9cRxaK5LMsUpVpn6L6r9uebaZl6tVtv8uoowtY0RgQz/EMemaatzr50liXnjUtGut0iSmfL7vQ1HJmzHQw0VDXZjA618JvVsHSoAPDpkWDkx6rc0VuPazI4X7A6lo/X2W+h/sAbgN8DiFKV1d5Hi6LrMj3u0hSB1YRQr5TFKmN91P/aV4b9YquDrimB+JZeazz7PSQLFDWqhdtNkVuQfGZDOa0k85OjBsFxSiqgxiBSQY5MpDKp26CJx3cbti11OfSFWGt7PJ5yVAMwAE6fK2b6WlvfpQXHcjH9SXd2axbBzwrdQVqU86o33FEq9Ph8CL9QfkUDUuTx6IgNaSBnlL969xW+jnJMe/LTZfPxBV4nsMzSZPfCnMu2dJuA7qMuuZ8UNMJLPnRswT1ke6gV0H5jwtSpEFa4zxPUjSxVztFisYpGQsxsA2u0HyfPkrZ+El1QFpn2h2UK5pkSReipvogDYpSVGe0Oc9W39NYJHkjnbgTKbnRRazTMO5QhjQkOfU+aRe9MtmOodInVWdtEvWTKBp3xl1nbfNsi+NOm3XWFBs/EwABwF+aTs2WfTyIWYfrrrsuj6hHoILXvOY1KwgRwnbzzTfnIcgHKXZCzF599dW5YL/+9a9fQZGSdw6H4gc96AwAzyWKH98hX2k5eR+hj52ICfs4zmVwEJfzZoLnESa3ymHuFCZYtGcEd4v0vMqoQHHi4x6DRCg0MUEoJhH6WndyKHR5UX41cQXkgEPRqYsJ8kg78XmCISAr6ed4bcstt8wnQByMZzGAMqeHtnmd9AjEQcAOziPyGaJTouDJA5Ofn/3sZ9khhxyygptPHchzPBsHyFmdNmFyloYDxrWsqf6ogu5rKhrwmIDRPoq8BegHXKIi6DvOetD36C+0PZ9Lg1Co7+jzyAsBLeSmFEOeoy9++ctf5p8leiifveGGG/LPEnDj5z//eW4UHXjggY11CvLKQf04+UZf0J514LwMbRonAQSgmfRheto6DW7Qb5yi/RVKetmyZXk/o4+SDpOmVA8yptD3hHQAn0V+1ObUa9oHqbN4H1C/OqNP0/+0EPSTn/wkl0nkjXNCMUAMn7n++uuzvffeewW90SboghgoCJmkLuoYLPQjdFWEMZ76mCS0HX0zhgdnsoyOruNCSBvGQDhNdOgorgeJBgu6Bl3VRp1RV7TlpN0un3jiiby/RNAFqVt5FXQtRdShRWP1OLDxMyEYrLWaHbfo6wzQCCcKlckmwoVCj24GsrareDiSL62QkTeUVtyd0QpFuhIz6DCtVvBjyFO5TaTfKULhblNXuboRnrSbENMqe3bVFeE0/XERV8HjazrIO27kUpKGQk/zFleYy1xhkEE+o4sSkUv+jqvJ8XvahSjacZIc0k/oLyhw2kkXJ2qniue01X5xV6SpnEVjcZxyVtT30jyoHWX8FAU3UD9BX2HQ8pvd5bIy8XntEBXVGbpKssHnFGqZv7WLrZ3ntupBekzUnZhoRTud7HTBC31YfSbZUJARBdbBsCOd9KwdOjuWU23LM/jRTmzRM4epM+28So7o1yxu8H3yyW6gjB/yjkymclvk4t1krG5TH1AXutxZFIX1ngTphdJNxqE266xNinYim+zCp7LNWDSN+mDYucq4PGRSbPxMAEWtQQAUrQYBYKWyjkIlBC0r7CiJq666Kp/UsQsgdxJ2e1gpqSJkrNK9+tWvzoWUFXF+Y5VrBQ7DhZWNKofHeS6rsbqQkMviOIxK+Gu9n04eyrZ5qasrr7xy0UopeeUC3Tp1Rj7SXbC6h+vJMyvYkzpcT/l5fnwm9UqbTyp4hHYKitqG1whBGyc4TEKK3BjYydKliKTJZ+gnZSGOmdCwklQ0CJEGq71MgKgvZIB+w2opMkqdyZ2zrbOERaG+25Szcax+Sk+VuZlQr1rJ16SkqP6oB1beqXf0E2li/KSflRzTDtoVKgqMgp6jftnlIY86RI/+UmQ/dpzbcqmg/OQ7jVJWB4VQjgFmuhLEgfpK5azfjrhkkLxT90xuaAsZM6mMRvc56lL9Qa5q2rkouhiZOouv96szBTDgGeThDW94Qy5r/CAb/JYekQtm6s3Ad9kpjncckS5y0Na4U3fCjK7TWC3a2K1ua34TJ8hNwoPThqnO7EJQJEWcjPVfty2lz9I664I+WLPFcUfBRdqos6Y44MEEiFWOQYALCJ2Zm9OHFXalhfLGXe3aa6/N79HB7UACWhRYYFB6rGh8//vfz42NvfbaK3epq5sWv88///x8uxPD6Y1vfGP+3aLgBmUBDxh8vvWtby1yGWCQPOigg2rXWRF1D9e3lVYd+gWOGGc+Yn5opzRkcXy/jCJZaEKT9NqotzZlY1Jyhi5A57LYUPSsqvkapv6jfmhLNprWU5t6o20d1CbDylmTfqpAA2VUbfNh5HIQMS2M6l/84heLzikwWWOsHnbXb9bGnTLmvZ/MSzmXtCizddNLccCDMcGEPPofU/EoxH6rZDp4yco3SpRVIFY2mMDLXQMwOlC4rBTFwSGdFLBVz2oVq6U0OitjrB7gP6rVEXaEJAz9rGzcfzCYMFB0mSQTH55xxRVX5J/Rs/lcav3HvMkNBaNJ4Uj1PYwgPqtVfUGZ2W2iPtK8UibyE1dKKWu8y4X64pnpimFRnbFqFj+nMypaeeE3n2OFsN8qE+1Pm7PSFQ0PVj/5oV3TM0z4yLMTRttSzkHGG+1H3somD+STdNLBmHzQ7tGVg/pn1ZLvUd+UTSuu1KV2PVRnfJcy8poO2MrVQuFvdYu6Dh8rz0X9gO+RBvmI5Y51Jt9/ZJrPkU/qsKye6FOkST0gZ3yP9iOfumSR/NPm1JF2eKhTXaiY5lHuI5RHdUP60V2VnbV+EzfqHhmLd1ZJzniPfMndBn3QbzWNNuBZRSvOyi/54nkK6kB/4G/1I7U50DaxTApNTT3JJVQBKMrczqJLSlqPqjPVF/Wo833aDSibsPJ52lNngvgcZdEluPxNPtkBlGySZlGoZckHafEe5ZHbk1ziMNQpe7+7xdQP0I1RDnku6ZAGZVawGD7Xz1jg8+izmF/VGWWk3RSkgdf5PHqTekYGaL82JguUi+fFRSfttMb0qbP0oLJ2WKlfubFot1cyWbTrRp3RvnLLpT+SfhraGtkhHb1GvaL/424b3yetKJ/SuUpD39eOE2Xmd5G+5ExRqmu1Gxx3iWgnpVs27qQUjTukxXlcnskzVBfpuJOOYXwe2UEHxXEHWZQeRzdH/cTzOU9FHug76a6l3JEVLIR6khuj6hnZ4LtlaDyi38b8R9mWfuGHHeN+RiRpaYc+5pPy6wyoPGZUfuY+PE/nBPv1kzju6G+eWeY9kLrcorejPqDOqCfqTOMSvykDP/psbE/VGbvicVcwyjb1rvqUPqAtKR/fGxQYoWh+89hjj+X12m8MY7zg/dQribKTHvlW/pEn0is65zuozkiL76B3JA+8zvjNuSrKiI5uc8fPxk8D0luvOTCJMNK4kSjodDICFLztbW/LOxeKkAanoW+77baFQQRXOH522223UiWI0F1zzTX5IU12eyRUHD7G/U0g5OwIYYig+MogkAEKgx8EmS11nvHDH/4wu+iiixaeqZuxOcBYVk4m93QIXNwoJwfv2alhcCEIAh2KHaU4QaZDf/3rX8923nnn3BUpdW8gP+nAR/2rzlB6KERW5WLni/niN3W2xx57rDBYxcO0KB3qjHz3C+xAXRfdT0NZOFyPUkonErhRXHjhhXl5cNsbZPygMNIb0QUTDHb8KHM6eZZ8xMGcwZLtdRQR9YVCQeHyN4Mw8kta8dnUMfnksC6fYSWUvDDALV26NJdPyks5pLxluBfBc8lHWm7khTZQ0AJkBzljZxTXzrJ60sFT2ou+QH1TLxyE55Azk0ZknzanjmRY0w5l0fA0uaE8yBd9kXqmnOSRvP7RH/1R6QBJ/dDP2YFN60FBRXRgn0P5RxxxxKJD4OlkhzZA9pn4FkF+KQ/tR3vzN/VGWyqP1BN1q7ajXpAPysSAw2XTfB4dxY60gkjwvTLjBx1ImqmbJ5+nztSmyBx9hLogb6nuiJAfgnVQHh1KR/aoJy3CoB/e9KY35e1OnqlH2rzI+EG3kkcGUMrDBImgCMgLbYuuJLgLLrpl8B3k6R3veMeiZ1BX5BWXXOqJ/1Pf73znO0vllfxQ7wcffPAKxg91dvnll+flk64mj6T73e9+N+8T7HbXOVRdBP2UcUvR/IA+l7YnbYa8RsgDeaTeSYfvayEPGeM7RYei+TztRlkpM32Mtk51IbKjfMk9jjZKxwAFDxKkh97me1o04PuaQJNXXityTaZfMg4KnnX44YcvTMo0OeaZg8adiMYdLoFPjZ8zzzwzH/vRS+gj6gJ9FQNFpPqAPNI30mAb1CsLiKR1wAEHLJrY8t5pp52W68E3v/nNKxg/5IV+hg5BhunbUbbpM8gG/a7foif9lDqL8xbqCh1G/yVd6oyJ7dFHH1266EOapMU4md4/iE4hLV6XMcbnecaPfvSjPL/01aLFrRTakzpXPtEH6OJ+cyV0FDLAM6LMIlu0JWmgG2gLXmMeRznU32OdIbuU89BDD11k/JAXdDRlYW6n+pQ+oC3RB29961tXcEsrgjJqLvDEE0/k/f5Vr3pVX4MCmZGBmepD5gLkW8ctkDn65y677LIgd7Gc1Bl9Pq0z6onn8FnKI+OHeqPP4PFz2GGH5eOTjZ8OUneLXWcdmrr4IDi60Vqrb3HCEif/VdOjo/L5eKg0/k5dq9LX4mqiOrWEt98h1bL34+oHxAEv/X4ZaR7b+uyoaSsfRen0K2faHmmQirLvxYAbVfIwbJ6H+VyR7FZJNy3nKPKtdNuUsyrp6TOawA1yR2gSgazNMsadAP3dNL020onpVW33Jt9vk1gHw+wmoQuQHy2IxR0IdHNZwJNh8lWnLiTX2rXUa8BEksnaMOcMGP9IS+HX67hz9vtMmQym42v62iB9Vycv/b5TVa/0e71K/ofNV1leR0nVemg6dg36TpNy9hrKbXy/jToft070mZ8W3d7IjwyQqm5v8XWFDAVWR/iJW6UpWoVihYh64G+5JkUXBZQ9n4suMEWwKkDeWd2JyhZrXSsjeo3Vmn6H+qPbW8w/ZWLFB8h36vbG6hKrOeQ1rkzJHSOmldaZQqumq0RFdcZuTj+3N7kKDnJ74zsMjnFbuIrbG6v/rCw1dXuT2xRlKXLj4L14iLLI7U1uRTyHNEgrdXuj7ikPK26xPeT2xnu6v4PvkbbcjNI80X+RnSK3N7Uhz6Xemrq9seKfur0hV03c3lRXrA72Mwr4PLJY5PbGe6Qj90r0Qb/+NIzbm3ateK3M7Y33+T/tKRnQYXJFbyM/PJOyUsdFLkzUB88pcnujTVRfulNJ7jRlK7Jlbm/kVRH/gHzS56hL5XlYtzfqnecp8t8gtzeehW5MXTbk9kZa5JtnRB2aIjeRYdzeeE1ub3xvVG5vIN0+yO2NelVEKrmSoVe1A0Z9Rnfg1O1Nsqg2kd5J3d4EnyPNQW5vpE8/T+WR76J3aS92rdLAAzyL/hDvzuGZyKB2seiH1FcMu95k3CFfXFORur2hrwaNO3Xc3ti9RK7QI0Vub7SJ7nBJZVtXCPRze9P8psjtTf1XUT4pZ7/w1ypPP7c37YZrvKKM7Crx/7pub5QX+R/k9kZdpW6wcntTiHVFu6UMMbpgpJ/bW3Qxj25vpB/d3gbpg3R+8+zz7rraqR123KH9NOaqzmgLtVWZ21tZnWl+Q3lStzfKiTxVcXsbxjaw8TMBBq2yTiqtcR5ua5Ou1lnbVM1b0Yphv8/pHoyygUKTGw0uKKGiSX9aD1VWSOvuDhUdiK9K0Spq1WdMUtYG9U29T1sWRVKM6WiyxWBU5N5Rpa2q1k2ddipr37I2aSoLVagiL22l1e8Zw3x3VIelyQMuUjqzo50WZIlJDi5JuDkPij5WVVcNAzLNxEweBzyDfDIpY/LPvAG3wiq7P9pFYkLNBEzGAAsfo9AF+kyVtMc5dXM/WRGXc3zlrIrOMTngQUdBALQCElfQWBWqI5w0uFYutALGCnidMKwIDf7+ghUCVhb6+b+WwSDIYCNXASbQrAyQHnlmlY33mExTdgksn8WfNr29Ou3olI9BqE44yLg71rTOdJ9IrDM6oHZLtDulw7oy3lM5KIPVjkGHadP8aDV7UN3wfPJZdC+LUKjydDcuopVBrR7y7KLJN/LA6xha/cpEvWm1XwEKJAPaweF9JvGUUavkuvOFiQ0ro/yWL7vcOPVcyoyc8aNJHJ9H/vfbb7+FiRxp0kb8PYzPsYwMjBFkgP8jY7xOWsOGQy+SM50ZVHloAyZ82sUrQnkhD2UTQNWZVvaLdkVoI60k836/ySTyw/tMItVWQF61a62+oEAXlE+rzuovfF79ifqQLADfp+3QK7Q1cs1KP+lzFkyf0WR42Ev6tOKqu4WoG+2O1bmmgLIpkh5pSjboO5RBB995TecwKH8qB8OECG4TGRYKmKLyKxx91QujFRCjLWLQIcmvxg1kgdeqjhl8j3Mb6AF+pC+R0zp3PPUbd7TToV3SQaTnsBQUiD6BbtSZKnaVFeCEfkTeL7744kXXRtB2/GCsUi70g3R00e7dIKgn2pXyaNeN8pHWsGOsdgl1llH9hN+8x+6Adhy166Ddf+mPfkjfDAv1GMup8vFc1eMwxPvlkBHKipFOedj90E6+8kzf1nlbzh7zfD5LvRTJzyAdXYb0DeMYv5El7dIOe8G2xhW1iYJ8cdZHF7NTJvKvHUjkEB3Lzjf6HKRz036czhn7YeNnAtDwuJHFm60R5joGBiD8CBRCpHMwUvJNbo3WlvDrXve6WnnjuxyE0+WmKDAOomL80NH1HofuUF48W+5QHBpMb7NPjR/dplzH+KHO5H5HHjTBqFNnGmiAdFBcHNBHSfCeJtdMyMir3FrkZjHoYjo+O4zxo0AcKMFBdcPzaY9+xo+iB5L/fnemSKmhoFC0RcqfYAmkg1tQvzKhaOkjKHU+L7cHlJ4i22nwJ088j3xRt7Qtbcnkls/pLi0Nmnou9Y6bJcEnGMhQuHyPgBy0HzKPDNN+1I/KPwwod+qYA52kg6yTH9xBhzV+kKsoZ3IbUTqUh8k/CwLogbJb43XBaL/JMfVBfpkUlBk/pMEKPwfV+0VH4vu0E/nUYX7JkFw/6R/knXwjj6Qn41R3sKiNZMCkUQ6RO9qOZ6BPmICgy3AN4r4fZIe24Lu0QVno7jK0A4Ccc+Cc8pBXdEbZbmgZ5EFBYeir/J/gGECZcIVCjpm4kle58FD+KAf9VoA1ORoVZRNGdA79u2p9oK/aNH5ojyI9Th3JLadq3nS/HPJEH1Y71b1kMx130rEa2eJZVeqDtNKxet999837FLqRfJNP9B3p8Vz+T78iKIAmkvFOGQ7lM24hX8gcuoR+Mqxso7spC/qbchKQid+p22IV6CPkFV3AYgv1r4UQ5ggcukenUH52GymHgkhJf/RD+mZYpA/QR+gD8kT9oYdpw2GMH42bMkipO8qqwB2Mm7S3AsWQZ+lvvsdVIkLzqXRXVefBh+W3z+sb9DN5QtcpSh//H0aHai6hBV/mebQX7Ua9XXbZZQsugrQhfUNRRwmwoEBePJvAHVrQFGXHA4qw8dMAGrLo0H2KwglHEEKtQPKbxkQ5yeItQ2cWosBpZVyWP9AhtAJWJpxagY/vkzavKV+kyyQHxa/JexGkkZ5fUUSdeJElaZIWZSU9nqMoVHIpUBCI6FetZ0RB5/sovEG3DferM90zoV0DOnq/OuOzqQGg1+IKI/miTChg3pOs8LeiI/HsKgPBMIOFViiRo6Iy6LZz5VX+99qxKfPV5Xu6uFRo9V2Di8Ie67PpZEznRlS/6RmCOGnRpXj6vCZxvKZbtTVQ8B2dvVPIbZ1VicFA+E7MP58hbQZ35U1nouTzrl0knW2Jq6XDyBnPUb+i3Mg5E5GySUWRnNEnUjkjT8iZdhl1DlGLDUXwGYWbTc8dyhCn7PyQBmVI2wp4TWfi5M8teD6vq3wyXvR5lUtyoHNeOlTO5I2/yaeiEUq38Bnynp7rUPRMXX7KDwaQojWSP+1S6NxBv4Gb56bXDJB39I4WShRSXOFxyyBvcTIkmeQZtB3fVZ7ibqfGF9pUEbiok9SoSXUjf9e9IJF8VHFP0TP12Xgp46BnS+/HC4qruqDFvxXJLeZXbazn8J76ZWxPjRvIXpnO17imCJLSrTqv18a4Q//VjhKTNwWRGDRW6zXNIyQfTFR1Zo888hrGCHqeSbXOesS0JC9xZ4H8SF/1WxxLZVuvKdKprgZAhtF7/dq7qg7VbgtooUSh5mkfykxbaZ7VD95Pz0nrXKggfZ6T9uGoDzT+kZZ2vIr0Lu1OvhQdVWXVNQA6I0matJfmDnxPelCuzXyXZ2pnTUaOxomYV76rc6sidY/WWdvYT+I4LL1H/are4vwkBjshn9q90TijOtMYTp1ST8xXabs4L9F5UX7U77UISp61GBnL2U9OU3zmpwE8n5WFVMjSv1m9ixN57Q5IsfAZGvecc87JJ179thKZqPF+9BGOkxkZUt/85jdzA4NVkvRGbYEgsVIUBZ00EEJNahHaZcuW5atIrN6U1TfPYIcoujroUJ0Emc7ASg2rTjyb8IUIL6+xcqKbwYEVj0G7Tdp2HrSyo1XgsjrTyjI7AOSXkKVldaZDpukgqoFRLoyEkWTVixV+dhFQVsgthp/CLevG+EErRJr0VpkksDpDnbBqpxWTiEKqa+BWAIqiA7BChhGwQiO3JV5n1ToaHrQl9V0UyIE0eA8Zpt55bqxb5FquSORTrj/RhU47BKSl80esgrEiJYOL1yi77pHQ+QR+aDutqipQgu6KksGF/NNndR8T6SOf0V2mSDYYgOLBUMmZDsGSLnmn/ikH4U/LVuLIYxpQIcoZ/+e7uOSwIqYLkqlT3dVUNgGVgUxfZcVUn6MdaU8NQMgRdUP9F03saQPqkz6R7mDSXqxSyp2HtGkjBaRQHVEnahvKio6h3eg76EzalNcYHOnD6A2508rQ0QRYEw/dvSWjmL5Du9AnkT/anfz2c8siTeo/PYCsO12oF/LED3mhHhR2uOj8Bi4aUZ8pv9KRCrerEMa4gfCeghzokL5Wtau4SFPuOq5ZtCt5iwYq9RENDxk6CoahCVLVFXTqUDsRUCWAg3b79H+VMd05p35o97g4U7SbQhvyHjqZflBUV9IdvCeDjf/TVnHcKdIH/cYdTbSRUUL5kh5jNXXJ/9E/se8j9/vss8+iPq3gRkqTumCsJoQ7+oCxnbakfOwkKlw3rkVvectbChcXaQe5JpN/5Ltfm/IdzkLFeYFkW4GWqD/amufS/6nrsjrTHURlOpQ20w4EeWXXGf2DDqR8GFcKtsBPFXdU8ojBiBeA8kK7xXDy5J8dlbgDnuoDno1u19UMuvJEYyU7HvRj8ku+aFN0pN5XUBHqiZ1T/k970ga0BeMaz6ScPI/88RtZR3ZUTuqlKPgRckW9yaNmyZIl+fOjXqKcyE2cC2jcQVcjT+SHPFIWwlrHYBS6FkL3r6Gf0b0KkhEX/xSgiGeyY0/7MtbyPekX0uP71B26Qm1C3ovmN9QH+tNnfkZMXH3uZ/ykk3MpGb2uSyJREjRoqpQiqWUrS1rhrQHBZdKGwCAIvBcvaBNFIbblbyzjTLsrCLQmDkVoNSsiBSojg8+guOSyQachfe0EaadJ+Yj3HBQhN59BK3CD6iyeJdClmLE+Yx0VrdTr4ky5WFEmDe6aZFJvtC+dk2dTv1r5adM1RSv2/aJppauWKDWtspdBuamXNNSrdrGE7tBQ9LeIomXpUsq078TnaxdI0ecE9ahdBp6h1XP5hGvnNO4GkQ9tj8e6pv61Q1AEk3+5j5GPuGJW5GZUdOmvBmGeRToMHDK6yN8w4YCjnMkNTxFxJLOqn0FuMxpsI9p5ULni5LFo50fuHRAndMprnPzL0KBPx4FZZ7uoD+RC+oa/tbOjM2k6lyCDMe7M8DrfLXP1U9l0WWXRzmMkhkmOr9HGilqniQD5VfS+MtlI+5byq9Va5AOdTdsp6qZW9HlPq++Sx7JLYtsgXlqqOi/adVG5ZPxU3aGWcR0Xi6qWJe5KaaEv3anSyjG/ZZwVrfHq/iqtYhehMxQRRVaM9VHU5qlXSBx39Df/p/8yYdZYrXlA6kWRIt0iIxqZ4ZmkhSGuM30YBsip7uxizGQyWhSMgjLI/Ry9S1769RNIdZhkW/2TZ2ospJ/Iw2CYOpMO5Tf9RB4LtD/l1JlN7YxqZ4066eeyJ4OaPkce1ed5TjwTyLPSPix9oDaV3Om8TqoPFO1OlwhHHa0600KDIp3yeYwW9Czv6xJlGV3KV1EU0LScWmih/oDPU8aoM3VuN6Ixh/onT+RBYzDPj2OqopfKm0S7cmmdyaNAruXa+WHBSV4a0hHa5SOvZffciaHG08qfNCuA0FS5XKpsIiLlp8EYi5sJQD/jp98qTHQZ4oIzhAlhKVsB7ncrsFZseR/rnnyhLMvKwjPKVrG1zctvLHsudNREh+foUlXlCfqFDRV0Hso3aPOybIVXrif6P+WkU/ars9TVJsJ31JZ0Yt3Gzt/Umw5Bkh8N+HVdU+oectZuU5xA6GBrFeWZyp/CI+sz2tVKXUw0adD3qYO076RnYOTSESHduAPAb+oUo4q/+b986OMkG/kb9nCmzpNIzgbtMJZNvKPc6AJJ8tpv12+QnKl+SU87G7yuc0398gIyYuMzSIf+KRi0mCTJ3SZ+VpNhvYYcxD6byrbaLZUJyQErqppEIE/s9sitQ6Hko+7R5bxV0Qq13Cyq6O2yybz0NnnQ70FnNvud79KhXlZhKbvOuFHH7BxTTtJW/bZ5PqaKm7baPt3pkMGjPjqMey66QOGch9GBqS7nu+pD0ZCUnlFQhqJ+JgM3vXF+EHwWQ6XuuAMaK8nD/vvvn0866cP8jRxo9bvKWK17iHif3QlkCPnWog+7EMiXDGp27/vJo4ISpPqgjH66hnIiuzFMefRcGabO5OqEYSedpMm7+okWs6Q3qhjV1DU7rXG84f+xP5Nm2dxL8xvKR/3rPGsanls72dqZL6o38qxzhHyH3T7mcfKmYNygXdDzPEPublWgrtghUpsueT40vcpFOv1CX0vO0MWct1GQlthm9Cflk/bQuZ0U7drwLMpAH9CYGF0V5RpHOv2uIqiD3d4aMEzVla3C16VKehoMZimtfum2kbeupFWXdNex3/t1KdoRG/b7/VZaRdw5SF9r8ryq9d1V2WhbZTdtz2HTbtKebsv+6bXBqPMkV7J40L/q95qQPoP5AxMu7eyMSpa6Nr7q/WmT7VGNr5Ocx6VpFqXVxnxpknOlovTqlnPQ+8PYBt75aYAaQtv+acPoYi92E4p8mrV6qlWpuIJedDkkKwDaZkxX5rQyL99k+fzLbSKFrUSFbS3aKYiruljcrFqUlVMhJdnuLFrN0Iqh/MIZbHiN7XitLlM//fy+FTEuLbfqpqzOFGY43QmI6cr9r0qdKaRlumUdV8K10yP3N9wQFI5Z7k9l6GLUOlHnYp3UfX+Qm1T0ryet9BCoPlv0LLUHda7LgPvlp+i99DX6loIgaMdJbn3R9a9OuYvyXyQb/eQs9k3JmS5yK5MzhRbl/aJV/iI5GxZdDhkHIfJU5E5V1p6USa6FRXIQKav/+Lrum9KKYLxgVucV+qXVj6LvlOkzXRyMvMfVXrWlDtFrpzeuGJdd6itXtn5jgO6i4TPoZkWzk2tNv8uuy8aYQfBM6WeVr2oQAr4nlxa5xVQhHuBWkIuiMhXttFZ5htzdRJlbHXmWPhtUXp17iHXcTx9orC4KdJHqgyrjDq5KuKvpot7Y33QeBjnCi4LVfJ0d0S6VDuaXlbXfuFO0S6xyKgTyINnm//Hy7LKxmr5Stc74jC4M5/nyAuh3dlXBBHROUPdB6YLuIn3AdxRASuML9ands2H1gepMgQuEykRf1o4H8Fs6hM9Q1jQYSz+kQzX/UkCpJYnRJfc/uVUryEM8I5uOO1V0KGmrn/FZ7Wrrmgq5/1I2XPx4riIMDqPTdMasKjZ+WkBGR6q4EDoOwHHIrOg+mniTOo3PlimkUakEyo9DeSi3uG2NcPAdhEn3Y3DgEcGRwk5BSAgJy3mbohubdQki7L777vm2siKXpfAMQjES9lY3skcU1EG3Tr/hDW/I0/re976XK4KDDjpo0YHhIjRYlt2Q3K/OyFtaZ/oeyk9RcVRnZWGCyes111yzcAgvVc6qM/Kp29t57eyzz87TZQu737kE0D0tdY2fUaKD6ZFBLhQpKDfqhIEQ94AmUOc64M/kQIf+McRpV4JmtIkme0UySLk4UJ+GJZe7EPnR2S8O6cr1rSgqH58lfCvvI0cpUc7ou1VcuFJ0mD76SJMnhVKtAv2eAAmSgzqH64vCa2uiRtl4jWfgltI0/ZQyfUbdcECcM5OUK20fyq2zfegcDnBrcaZoskP+mYjiXpXqKJ0bVWjeXXfdNS8ngSwI60ratEm/O7t4BvKH/hzW+NEZMeWdv/u5WKX1pHs1mPBVNX4YDzT54/tlLrc6/xF3+6oa+vF8YpkLNW2vYCeDIC/omKizdDaqqNwaq1nwim7sUR/oPASuSIPGnZ/85CfZ97///byvIx/IpVa2GcvRPcjlUUcdlbvPowO/9rWv5em+7W1vyyeT/VzYdH9L0bgjo6NofkNgEn6ol7R/KhKiIrQxv6H8RdEK41jNYmtctS/ToaSLvjj33HNzo4++M+j+ONoQnap+yvljuewzphflizHvggsuWFhMI5/MJ5gTgSKX6by05koyhiLIseqMzzI3VBkZv5AJ5mT0D+ke+v91112Xy9POO++c6xG5h1WBvPE8yoYeoQ7XLJAzgq2wIE3dIz/0DXSK5EZ9VvMbXZFRVGe8jg7TXY4Kq4580U5a/Ka8pMPf6Lqf/vSn+XNf+9rX5uUbRqcha9RdVWz8tEC/7UCtrKUHxeN72rmo8hyFwUz9r+OKZJU7CPS5eLg1Ios+lm9QOYtCdCot7drE93XIXvluQtn3Vc60zoreG5SHsrRi/Rc9Q3VcpZ277IWaylaZ+9qg7fc22jumF38X5XMc9JON+PowclbWn+IzmtRjWk9VXBGL8tIWZX1olG1Z5moR6z/dPRxW16bt3+89tUF8ftWxoSlVx6E2np2OLW2mre8NcqMpWrFuKy/9xup+8jDISNWOVhy3GUO1Uh/1Aq9rfK2S3zp1HeW0bHwddk7Sr86KdFacQwwrTzGP/b6r+lYAh7SvDqPb45xAQRRUxviedI9eazJXqpK/5WE+GJ+n+o47gMPMlWI5teOWyo2e0UY5q+IzPy2gyX1q5dMQuC9gMRdF35IA6HAbq0TqHEVb6ZRbN0AXuRpFtzdWTxQqsGjFFCuZVRDyVrQKoJVMfljloL7L7mVQNBdFqSmqH9ABTHZ/yCOrGbrUkPopi1AW81O0ytbP/UAx91lFSFe10jrTtnm/OtON0YPqTG58rAopdKhWb/sd6lQUuDqXkY0SudakYWWHuRhWu2MM0pSvjYhVutNGdx3wf/LJM+QG1xZV5Ez3GqSQn+j+0U/OKAtyxvtFshLlTJG/hoW008g+RXeJ9IN8aOU8XjZaF63uoid0uJnX0stM26Kfy4aiXBUFn9FgrdVw2lMTg6KVXu1EFoVmlQ7S/UYKI6+7X9BJ6MV+d6ypX/XTn2XEiYcmYFUPilNPmozHMPCD0J1Z2v2MkTVjmWLEOclpFRmQ25u+U5S+PkdfK7sTLaKIpVFnaYLWb6xmVbxIP0ofVB2rWUFnp1bRy6LeVRQ10tIuITqQ3SBdOKv7pMrgGWUuY2XzG8qJjJbJXjq/kX7up0MpR5U6o1/wGeqYnRjahb5Tpn/1DLnoaRLO91U2vZ6Wg+/wDOVJbm/aYdLCZlV9oDrjs/FSTpWJ15A36WLqlnohr9QhZe2nD1LIi+5P1Nxx5QK3N0WjJQ8ytHXfU9m4U0WHqp8Bn9U8l2cpAJTKz04cz1VwnGF0mi61xcuqim1g46cB/VZK43txxbCsIas2Q0wr/j2qtKqmVzetKqsITelqnQ1LGxP5pvlKFWbdNOrsMhRR1M/aZtr7ZpXntJHWoPSrMKi849LbTeu/3xhQll4V3TisvqxTj8Pu5o6LtnTGqPIxTn1Q9plxTOemYX4z6rqYVn0wznIumcCcENsAI8oBD0YMq1dUti65kn+vLGIaMIbhlH9wmZsF1jnWKw2n+360iqDVEn23zNdYz2KVCKubVQSsbnxEWQHiO7plWN8f1AFZhSRvus+ClSV8bLHYtZ0ZV2rKVrCA/OBLrzC9rNLgE89qCKsavEY+2BXCT1S3A2tFRCuNrGCQDwVioP7TOlM+qtQZ6PZj1Rnp6zLBtM60Wlq2E8VqkWLZK0Qj/qjyC6ZjkgZ+sdpNoT61GhRXLdkZ6+fHPAySszquRNRtuuOliElVQTFRJvWdCO1XZxeDPAxz5mBY0r6pm651cDPt12WrYTG/lF8ywiqXwsHyDO18QNlOsOD78dBsVRRiNOZR5as68NAndZ6CvpPe56AV7WHQLenD7EANS9SLCiNL/2I1N+ptPV87M2X5pc74jYwgG7rINR0Dquht7fhpxZW8cp5H967Qd/ib85rxripdQig4G8K5iDp3iBW5HbW961aX1BWxanCGUegDjftNxmpgrNY9ZcgkZ90466BLZON5G+0+S9bod/Q1XfaLBwZjKe3OGE0eOEfDe4w5zAPIz2WXXbZwD43uFOL5anfkjHMd2p2jnDqLo3M3TeY3fE7XJNSpM+kbxiP1NcZXeZCQR3aSKLt2/ngW+WS+QdrUOednqDtepz50Ebf6Gnmm/5NX5kEKNlDWH6irqA+QC4WT7ldn/eSM3xp7yR/5ID3tFNHeOusiDxPqB7nSfWRcHcB3tEu8/PkdR4XKlszwGdJXWPJB4w56hzyi8ygnzxt2TqhABbSRysSuEWlT1xqnKI/OHFMXjJnMJXlNO6fDnH/thkabUugsNAiKgcAGHFhDaekgYzrwlR2WBgSGLT+EisOxKB7Fi5e/b5x4ajJeZrDQ6TEeyB+CzSFIJtF8nrSiYEe3tCJIg/QQMg6pEQABgZRbV7zgLrqSFYGQExiB95n00VkwdNii56CgDnRy8A0FrUkmCk0HAQHBJ9Y89a0b4akzFL5c9ChnrO9+dQbUF4qLdqCse+6550Lc+7I6K2tP3diuOzuAOiTfKApd9HnxxRcvRChRfdChlT6fI0BEW8aPDpUPuhi2COo2NX6oMx16HgT1rgsi1XciyGcd40fRfkZl/FBntAnlpJ/TTmnfZOBQ/5FbXxlaTCBN8o4cK+yv7ipS/4kTgxS5beCSMSy6Tyf2efoybVLV+KGtJJfIejTCdN/SsG2iy5773XXWFPQ1fYCJIn2dg9gcLqYNqf8ivV1m/KjOKDsHkplckp6CqMiNLKbVb7KDTJAHJmXINBMV9CO6TX0HN9q/+7u/y/NJnpnYoON1eTRwzxvuH3WMn+jOJjeXrhg/OtuiOoz9blxorKZt0AfpWE3+YpTGQWM1C2C0OzKJ7O+9994LEdqQL9o8jjukz/MxkhiPdZcOv3mdsZQxR3f9LFu2bOHwOPLJ93/wgx8sHELXQX++q3GBvvu6170ul0N0DOMrxjRpKDgDVJVtjTv0Ew7Wk5/ddtuttM60CNRvrKb+tdBAfggSQ5n5IY/0iR/+8Id5XZAWQVMo35lnnpmXF51FP0H/0g6kyWsEoFCAFek1nkP9yB2rrD/oQnjGCvQBYyb6QIGo6ugDPoN8MfbSFugD2kwBKnCJPO+88/LvUIeUB7n48Y9/nOtRyvDv//2/z2WKulY7b7fddgvzEHSYFoAUjKEswJR0KHljHKOcBDEgP7SrZCPqTLks9qsz2pp64nvICvMi5Jp8kQ/mT5QdaA8CJPzzP/9z3u7kl3T+8A//MKtKNzTalKLQgbrMif8jsBgw8VZkbePRWXkv3n4cP6Mb2uXTGW/y1WAkYZTlrYhDqWDJJ1OTE/5WuEOEhLzqO6SvCZz8y6PS0evkAWHk/+QrhkaUwJN/8kWetEIe09IFdHFllefpwjutivO+IrQprCLPloJEoZG+BneFZCR98qaITPGckG4kVv2ndaaL3aTc+Zu6Ig3SVPuozuQvrstaYzlJW7tWgs+Svs6lKHqNVtv4v85d6DXK32bkN8lZnQkDZY9yjUzrgreqz1Ydqe/EiXZd42WYG+LrQNo8Q/1cckb7azIWd2e0ilsmZ/wtOSM97YSRDt+Nl7xpJ0R6Jj2/UPd8mGQ71rmMtmF2fuL/Yz6qnhtJGcdEW3VG+9DXtOOjld/oq69zSNSV2jOWS/Kv3RotDvB5+burXNoRlt6WHJVdfqm8SsfTPhjO6HGtVsuI1aKWqHrejTTSndu4aKQ+W7RTPGqjQ5Ni1Z12PdJJcZq3qGdGgXQo7Vc0VjPupPqg37gjvaKdCf5mQqvdCUU/5HXqA/lh7NUuRNR/5CvKYRxDSA+DgDFWuyXAc3mf8VbGj3ZPVM44v0G21U/qzm+Un7I6o4z9dKj0TQx/r/xqxwRjhrKpL5AOz9cOhXZUpPO0i0Q5FYlXkdz4P7/lscBvPq/xPNUHPEu7NTrzQt3E+hhUZyonr0V9EI0M5EHXPEiWdJ4WA0GXOkuH8H/t3K266qoL446CT5FPPkN5FcmtaH4jHSovllhnun4i6lDKyXuasxXVWey3Spv21RUbvKdyUi4+w9+UUwsFwyz2+MxPAyQs+q2tVvKl+3jUqAgbnZHVRnaIWFmIDSWjScpF24cMdgiOggWo0/AMFCS3N7M6E3cGeF/bwjICeBZWM0qF9OnkEk6ey2oiSoFdHcIpRn9NuedIuBE8VhZk/ERjhg6JFU95d9lll2y//fZbpLiiuxO7R7yHQpZiwIrnh10XVnDoZNSB3MeksOmMUSFrhUx1pvRinfFcVjWoe37ijcFSULrPQaFsWTXRQf94+E67TRhkrKCwEhPrTIpJ7QbUF+WgDqkjwumyShPvX9ABYHVLHaCscii3ClJsdbq9DmoK8oM7wDA3zkuhqc9EUmOxCmq3Ua4Aq86QPZ6lA7ySDf4fDxMjZwpvT/+MN4VHOZOMSM40YZYbCvAaaaHnCN2dhpLXwsWw8HyFIY1tQ3tWlbMo2+Q7dZXSpHDYfElfjWoCqzqj7vlN27HirruatAgRd/1oZ/Q2O0TRYIkTIy2QkKb6ihZU4qFi0mMVHdmIcsP7kif1Bbnhkg5jx4UXXpjL17/5N/9mYbKg8LNRDtAZrFIPMiS1Iq/D+3LxRXYj0aVRix51dpWGgXJSZsmBDkLHoAPkJeaN10cpO2Vjtcb3In3AWI2rFbJDm8fQ2xqrJZPaHfjud7+7MMmmvIxVfJfnsdskt/GlS5cuOhhe5G6NbuEzuqqBsfvAAw9cuKJAba6ALHHnVpPaQfMb8sy4y7M0v4njQqpDtcBAnSloTTTYpEMJ4EC5i8ZquVJpDqBgCRg+hIm/+uqrs3e9610L+ZD7oIIcIDfyKoGoD5A78sVvLZIon5STz1HO9AoT1ZVC2GtSrqAn1JfkU3WGHladxTqIY7WCQER9QN3RltQB+gQkC1qcluskel2LjXKzX2211fJnk0/yJ1c/3bXGHAUZYH4jryER5ZXvI6OkEXWoFsd4PjqP5yp0f1GdgQI56D5A8otnA7uZ7KLp6gfS1oK+jC3qi7bmcz7zM2IQuvSOExpeqxY0hnYfFBkJgWXrOJ18SmhBjabLsPiRYoorBnRMhDJ1YeIzUVkAnYH06BCy9gXpI+gIc3p+gLTkRysoFwYKA7nO4WiSQ9oIK68VlZMOSEeMMDnkh7qT/yqDO0pPdUM+qtwLo86gDpzWGcqGAbSozqR45HKjewpIK3Wh43XKz/fSCGgagNPJgdqEZ6v9MDj1Os8g3bZc3IrQBXnDoolbunqllcY2+k4d0kFz1HWmvqlJBr9TGZec0baxn5XlV8qf7yFL8n2XHzr1rlXHlDoGY9y5jP2A59aJGAb9IkkNQ3T5GxVpnelco/R2XLWkftCb/BQtGqjOQP1Wiy/aAdeCDd9FxzFBZIBOrxiQ20eaV0VHQq8yWQEmEWonXdxYd8Kv1W3pyqIza3IHVDnGcc5G/UJ9QaGc0zNU0eiOOn9UFI3VGneQn/TZvMa4z25dlbGa/s54zFhI22jijT7hGRirPFeLwPF56VgNusePtJBN0mYSyTio16nnKuOOdirIT5zf6Nyt5jfpblyRDqUvpGO14DXSYq7Qb6yO/ZD60fkV6pDvx7u15FGSzj9SSIN+pgm4PDVkMDGHos9FL4iicU31KQOD9BRGWnWmS1oH1VmqD/gseaGs/E17RjlAZpC3IjS/efb5hV4Z8jLmteNYddzR2VfpULWn7g9TNEJeH1RnQuXWnIi0WfxL76pK3aOr3tuVP7fyJ00ltMXKVpy2LGXlIyQ0Hj9VBngGND6rczXaXUHQdHZEl1YNgu+yuqBViTj404lYwUDgUBaDIA+sYvFsucvFg4pY9pSXtIZxZSIddotQYvFyR916XjUNvquOl9YZ7UO+qxgAukSStNI6Q3GQBnWfDl5V2lU+vHF1jLoa9WpqE3QYMTXy5hHqATmTy1usF+RX2/FVDDzkTEEPkCutpur8nFzt4g5SU5A1ZDsOuPPalkAf1sJMdC2kfmhLHUSvspOFXpAOSi+HpA/xjLILFfuBXHEOIzXAmhiLlJN007tTUtJnjMP4QT9qJ1Iub+mkVy6p8e9x5K3KuCN0boGyVBmr+cwhhxyysFMiF3IZT0yUeV7Z5a1lkAc8Kvh+1EvkteruPZNNyolu43vp/Aa55v0qrtr96gyZ5FnU2bCLdZST80TkJfa9YYJj8Hy5v6f6gHzRDujsKulR15STNGOYadUZ6fD+MItYmmNynqju4t9Kz4876L70slKF2h5m3OFz5CXWmYw8dCivV60zQV3RjsitjPW2sNtbywyqzrgqNUgIRpHWoDSrpNdmWmm60Uc+ujZUTWdS9V81fzFdfb9OOcdNv7roYn5HzTTIWd1nzlt7VhkCJ6W30zSb6sdh8hrTK/rcqOWkLG+D8pV+Zhr1QdVp2TDG3jSPr+PsJ9OkD5rIfK/FcaftOhs0V2rDNvDOT8sMapxhBHQUabUxKLSRFqseuH3FLW1WRVjNSFdXJ11nTdJSAIioHOSv2qSc46atCbfOjhWhgBCTRGfDYh5ppzQyWtfkbFjaSFP+3mUDcTxXOCnkIx/zSN+LQV2q1MU421N++am7ic5WNslble8WnQssu3hylKR5U72kfTMN0DMJ2tYHTcvDSj7ja2zDGDa4Sd6avN92WnKLqjKOVM1bF/UBO8/xTB/fiWcT67BkjG1Z5TM6Xy63QJ0tLLocug1s/JiJgIBzKFE3ujPgMlnirM+kJ0xtwiDEYdc4CDGRxud/HuG8QwyaEMGtqMxPeVzQTrRXDN/NFj7umHXO1swyDMapbEd3BXy0J92XkTVCscY84o5bxb13knB4GD/3CO7EbZyTGyYYhnYLcD0Zt/FTBGcH6JtqTya6XW/LScCixKWXXrpwZoX6woV+r732ymYJJsvplQnI6qBzPdMGhiw6QejoQVdC0LcBMkpghHjOD53D2W8bP2amUIhFGT/97p6hI+hQrqCDTOKSu2GQr3r0qe93wWhROXUAu8vlrIouny17rwvoUGr821ST1fT9SaNzU12Us2H7Sb96TnUMKArcsMT0ZPx0oS2L6mUa2nIS0F46q6qJZD89pgP06bgz6msExtlPyj5ft5+Mk7T91Kbj0AfjRO0Td36GGX/SAEP9sPFjJgIdkcN68R6HfjcKKwJLdAXh86xmjepyyzYgj+mtw/12EKgPhZ4VbPu2fdhvUrCzUxYgoq2IYU1AFtmVi0q032Vv8wxyXLbqroWJSUPfYQcqfa3rcBA6PYTe71A6Pu7pyrDCQg+LbokHTSxGHVGxKrrfTXRBxroIdaTLO0U/WWBcvfLKKxctFHBAn6iCXYad0NSLot84wo4Y3gcRyjls8IhxQzCBoshvZaAL0AlRH7Aj1pV+XAR5xPsjGnkx8mYRuiJCVL1wHWz8mImAQPdzVyha1VCIyTRaTJfRZa1Vy0jHJ3xlulPUlvHTdAW3ymHjfqSX3nYN8lbWXl1kku2JbDMod7k9MRgU6ndaoD6Z6JRNVovaiUkdeiNSNUpTmh66Ob0ktWz3Z5RtX/Q8Jm/p3Uhln+2yXI4aJsbpXU2iqK5Y7OFenbjow/+7bvwUXSnRr5wYeWk/QZ66bPzo/GSZy2tROXEHTMvJeequGz/r9mmHtJw6nxvd6Mtc6ouw8WM6B0KNBZ8e+GXiHCcECrU5zeXEoEvdONJJS5s7IroMro67SHpzOLC6NMxWsy5SM+3ApDfevVQV+k16+Jl2jKuFVXY1R3knlSkGd6b0PgvakclNpGo/i3f46O/0/gxkQ3fY8KMLBUe5W6sAB0K30qeTXcaKdLFomOsR5g3qlbv0ot6mbjGWYj22GVp/ElAmxroo2+xspf2kywZBFegj6Y6HgkdFunBmry60IfonvRid+WDcER8mYJKNH9PZA34orjhZ4+BbFO42ouJMukNzcWEc4ClfesCvzTLqRvd+56vKYKcuHSi4oG2Y1RbdCm7akR+MFV18OQy0QRrBDjnkAsSqO0AMPOkOgRk9GLtFh7zTnfSqLmGkF/3sMaxS44dJB3Kms4d8XnehjAqeEXUL8skCTBwDyK+ihkpumdTbKO9fr1xSHifMtPcBBxyw6AD9tPdrjHj0WTToMIpTN7lpXkAtC/rAcYDUW2TaXUQffv7y2jToQ9RBvuTUTD101LhSoXMXsxTdBChPVM469zQqRRUvfh2WokGCtIZZUZr2AbXr/aQqZSGTh+lf0z6YTis6iB6h3erqRtKLd6DQrumhcP6Ol1ryM+pJY/oMyVtcuCFfvN6VgAzTAqvlsR5Z1GJBZJbGV+mzKBvxktFZoW19MC1jndo3lnOYMrd+ySnK6LOf/Wz2v//3/85XijiT8e53vzv75Cc/ueiyqc985jPZ3//93+er+/vtt1926qmn5ive037JqWmO4tqnuxNY+LM04dK9N9H4QZFRzlEpZ55VdjfLsLs2pKFbyKvCIDtrSnmSsBoe738Y9lxJlDP6W3pnRj9GLaumGHY2UvePJjuq0f1JEZTkCqfIUTxP/vgxQM0od3HTCKD6O0YlI1/IsSZFynMq2yZbVI+soqd37OHmNu27IBHkOHUJppwYfrMkG23rgy4iF9jUxT6dE070ktO/+qu/yg2Zf/iHf8he+cpXZpdffnn2nve8J8/Qf/yP/zH/zMknn5x98YtfzD+Dn+mnPvWp7MADD8yuv/76vhFtzHyAYpp2P9xhJqDjhMGtrbtCdNGa6eaB32FhYpC6O5nuwUS/Tf/9NC1dNigDg0kkE+VxG7roqnQCx2Q2Gj9MiJi0e94wXL2m50FmESbF86DP2tYHXQS9Qx9vs5+3bvz89Kc/zQ477LDskEMOyf/efPPNs29+85v5hVuA0vrCF76Q7wTxOfja176W+yeeccYZ2ZFHHtl2lowxxhhTEQwdGRgKbtAFmOSxYKS8zZqrljFmPLS+x7nvvvtm55xzTnbTTTflf1999dXZRRddlB188MH537fffnvuDrd06dKF77ArxM3Dy5YtK0yT1R22s+KPMcYYY9pHIaX5YaeYMboLrkIYOuRJocBxxZslV2hjzHhofcnkE5/4RG6cbL/99gsHJ//Tf/pP2VFHHZW/r8hEaSQK/i6LWnTSSSdln/vc59rOqjHGGGMCRUYOOy3xbBl/87lxnysoylt0gwNc9DDeumCsGWPmZOfn29/+dvb1r389+8Y3vpH97Gc/y8/1/PVf/3X+uy4nnnhifoBJP2lYP2OMMcaMBlzf5HVBiGQCFXXFA4MgHeSJsNj8EH6/zj1mxpj5ofWdn4997GP57o/O7uy8887ZHXfcke/eHH300Qu3bd9///353QSCv3fdddeRH+o1xhhjzHBgUCjSm/7fBRThTbtRNnyMMWPf+SEaSxouEfc3KSSiu2EAcS5IsIJ0ySWXZPvss0/b2THGGGNMAxjTiZzF+R+dAepKJC1c3JQvzgERyWyWQjYbY6Zg5+fQQw/Nz/hwiy6hrq+88srsb/7mb7I//uM/zt9nZea4447LPv/5z+f3+ijUNfcBHX744W1nxxhjjDEthJrtImmYX7xEurIrZYyZE+Pnb//2b3Nj5gMf+EDue4tR8yd/8ifZpz/96YXPfPzjH8/vETjmmGNy3+HXvva12VlnndVZ5WqMMcbMM101KLqaL2NMd1nSq3PV+4QZ5hZXY4wxxhhjzOwyjG1gx1hjjDHGGGPMXGDjxxhjjDHGGDMX2PgxxhhjjDHGzAU2fowxxhhjjDFzgY0fY4wxxhhjzFxg48cYY4wxxhgzF9j4McYYY4wxxswFNn6MMcYYY4wxc4GNH2OMMcYYY8xcYOPHGGOMMcYYMxfY+DHGGGOMMcbMBTZ+jDHGGGOMMXOBjR9jjDHGGGPMXGDjxxhjjDHGGDMX2PgxxhhjjDHGzAU2fowxxhhjjDFzgY0fY4wxxhhjzFxg48cYY4wxxhgzF9j4McYYY4wxxswFNn6MMcYYY4wxc4GNH2OMMcYYY8xcYOPHGGOMMcYYMxfY+DHGGGOMMcbMBTZ+jDHGGGOMMXOBjR9jjDHGGGPMXGDjxxhjjDHGGDMX2PgxxhhjjDHGzAU2fowxxhhjjDFzgY0fY4wxxhhjzFxg48cYY4wxxhgzF9j4McYYY4wxxswFNn6MMcYYY4wxc4GNH2OMMcYYY8xcYOPHGGOMMcYYMxfY+DHGGGOMMcbMBTZ+jDHGGGOMMXOBjR9jjDHGGGPMXDC08XPhhRdmhx56aLbxxhtnS5Ysyc4444xF7/d6vezTn/509rKXvSxbc801s6VLl2Y333zzos88/PDD2VFHHZWtvfba2brrrpu9973vzX7zm980L40xxhhjjDHGtGX8PPHEE9kuu+ySnXLKKYXvn3zyydkXv/jF7Mtf/nJ2ySWXZC984QuzAw88MHvqqacWPoPhc91112Vnn3129oMf/CA3qI455phhs2KMMcYYY4wxlVnSY6umJuz8nH766dnhhx+e/01S7Ah99KMfzf7sz/4sf+3RRx/NNtxww+yrX/1qduSRR2a/+MUvsh133DG77LLLsj322CP/zFlnnZW95S1vye6+++78+4N47LHHsnXWWSdPm90jY4wxxhhjzHzy2BC2Qatnfm6//fbsvvvuy13dBBnZa6+9smXLluV/8xtXNxk+wOdXWmmlfKeoiKeffjovVPwxxhhjjDHGmGFo1fjB8AF2eiL8rff4vcEGGyx6f5VVVsnWW2+9hc+knHTSSbkRpZ9NNtmkzWwbY4wxxhhj5oCpiPZ24okn5ttY+rnrrrsmnSVjjDHGGGPMPBs/G220Uf77/vvvX/Q6f+s9fj/wwAOL3n/22WfzCHD6TMrqq6+e++/FH2OMMcYYY4yZmPGzxRZb5AbMOeecs/Aa53M4y7PPPvvkf/P7kUceya644oqFz5x77rnZ8uXL87NBxhhjjDHGGDMKVhn2C9zHc8sttywKcnDVVVflZ3Y23XTT7Ljjjss+//nPZ9tss01uDH3qU5/KI7gpItwOO+yQHXTQQdn73ve+PBz2M888kx177LF5JLgqkd6MMcYYY4wxZizGz+WXX57tv//+C38ff/zx+e+jjz46D2f98Y9/PL8LiHt72OF57Wtfm4eyXmONNRa+8/Wvfz03eA444IA8ytsRRxyR3w1kjDHGGGOMMZ2852dS+J4fY4wxxhhjzETv+THGGGOMMcaYrmLjxxhjjDHGGDMX2PgxxhhjjDHGzAU2fowxxhhjjDFzgY0fY4wxxhhjzFxg48cYY4wxxhgzF9j4McYYY4wxxswFNn6MMcYYY4wxc4GNH2OMMcYYY8xcYOPHGGOMMcYYMxfY+DHGGGOMMcbMBTZ+jDHGGGOMMXOBjR9jjDHGGGPMXGDjxxhjjDHGGDMX2PgxxhhjjDHGzAU2fowxxhhjjDFzgY0fY4wxxhhjzFxg48cYY4wxxhgzF9j4McYYY4wxxswFNn6MMcYYY4wxc4GNH2OMMcYYY8xcYOPHGGOMMcYYMxfY+DHGGGOMMcbMBTZ+jDHGGGOMMXOBjR9jjDHGGGPMXGDjxxhjjDHGGDMX2PgxxhhjjDHGzAU2fowxxhhjjDFzgY0fY4wxxhhjzFxg48cYY4wxxhgzF9j4McYYY4wxxswFNn6MMcYYY4wxc4GNH2OMMcYYY8xcYOPHGGOMMcYYMxfY+DHGGGOMMcbMBTZ+jDHGGGOMMXOBjR9jjDHGGGPMXDC08XPhhRdmhx56aLbxxhtnS5Ysyc4444yF95555pnshBNOyHbeeefshS98Yf6ZP/qjP8ruueeeRWk8/PDD2VFHHZWtvfba2brrrpu9973vzX7zm9+0UyJjjDHGGGOMacP4eeKJJ7JddtklO+WUU1Z478knn8x+9rOfZZ/61Kfy39/73veyG2+8MXvrW9+66HMYPtddd1129tlnZz/4wQ9yg+qYY44ZNivGGGOMMcYYU5klvV6vV/vLS5Zkp59+enb44YeXfuayyy7LXvOa12R33HFHtummm2a/+MUvsh133DF/fY899sg/c9ZZZ2VvectbsrvvvjvfLRrEY489lq2zzjrZo48+mu8eGWOMMcYYY+aTx4awDUZ+5odMYCTh3gbLli3L/y/DB5YuXZqttNJK2SWXXFKYxtNPP50XKv4YY4wxxhhjzDCM1Ph56qmn8jNA73rXuxassPvuuy/bYIMNFn1ulVVWydZbb738vSJOOumk3JrTzyabbDLKbBtjjDHGGGNmkJEZPwQ/eMc73pHhVXfqqac2SuvEE0/Md5D0c9ddd7WWT2OMMcYYY8x8sMooDR/O+Zx77rmLfO822mij7IEHHlj0+WeffTaPAMd7Ray++ur5jzHGGGOMMcZ0ZudHhs/NN9+c/fjHP87WX3/9Re/vs88+2SOPPJJdccUVC69hIC1fvjzba6+92s6OMcYYY4wxxtTb+eE+nltuuWXh79tvvz276qqr8jM7L3vZy7K3v/3teZhrQlg/99xzC+d4eH+11VbLdthhh+yggw7K3ve+92Vf/vKXc2Pp2GOPzY488shKkd6MMcYYY4wxZiyhrs8///xs//33X+H1o48+OvvsZz+bbbHFFoXfO++887I3vvGN+f9xccPg+f73v59HeTviiCOyL37xi9laa61VKQ8OdW2MMcYYY4wZ1jZodM/PpLDxY4wxxhhjjOncPT/GGGOMMcYY0wVs/BhjjDHGGGPmAhs/xhhjjDHGmLnAxo8xxhhjjDFmLrDxY4wxxhhjjJkLbPwYY4wxxhhj5gIbP8YYY4wxxpi5wMaPMcYYY4wxZi6w8WOMMcYYY4yZC2z8GGOMMcYYY+aCVbIppNfr5b8fe+yxSWfFGGOMMcYYM0FkE8hGmDnj56GHHsp/b7LJJpPOijHGGGOMMaYDPP7449k666wze8bPeuutl/++8847BxbQTJfVjkF71113ZWuvvfaks2NaxG07m7hdZxO36+zitp1N3K5ZvuOD4bPxxhsP/OxUGj8rrfSvR5UwfOa1kWcZ2tTtOpu4bWcTt+ts4nadXdy2s8m8t+s6FTdEHPDAGGOMMcYYMxfY+DHGGGOMMcbMBVNp/Ky++urZZz7zmfy3mR3crrOL23Y2cbvOJm7X2cVtO5u4XYdjSa9KTDhjjDHGGGOMmXKmcufHGGOMMcYYY4bFxo8xxhhjjDFmLrDxY4wxxhhjjJkLbPwYY4wxxhhj5oKpNH5OOeWUbPPNN8/WWGONbK+99souvfTSSWfJPM9nP/vZbMmSJYt+tt9++4X3n3rqqeyDH/xgtv7662drrbVWdsQRR2T333//ojTuvPPO7JBDDsle8IIXZBtssEH2sY99LHv22WcXfeb888/PXv3qV+eRTbbeeuvsq1/96tjKOA9ceOGF2aGHHprflEwbnnHGGYveJ07Kpz/96exlL3tZtuaaa2ZLly7Nbr755kWfefjhh7Ojjjoqv3Bt3XXXzd773vdmv/nNbxZ95pprrsle97rX5X2Z26lPPvnkFfLyne98J5chPrPzzjtnP/rRj0ZU6vlgUNu++93vXqEPH3TQQYs+47btHieddFK25557Zi960YtyvXn44YdnN95446LPjFP/epweX7u+8Y1vXKHP/umf/umiz7hdu8Wpp56avepVr1q4lHSfffbJzjzzzIX33VdHTG/KOO2003qrrbZa73/9r//Vu+6663rve9/7euuuu27v/vvvn3TWTK/X+8xnPtN75Stf2bv33nsXfh588MGF9//0T/+0t8kmm/TOOeec3uWXX97be++9e/vuu+/C+88++2xvp5126i1durR35ZVX9n70ox/1XvKSl/ROPPHEhc/cdtttvRe84AW9448/vnf99df3/vZv/7a38sor984666yxl3dWod7/v//v/+t973vfIxpk7/TTT1/0/l/+5V/21llnnd4ZZ5zRu/rqq3tvfetbe1tssUXvt7/97cJnDjrooN4uu+zSu/jii3v//M//3Nt6661773rXuxbef/TRR3sbbrhh76ijjupde+21vW9+85u9Nddcs/c//sf/WPjMT37yk7xtTz755LytP/nJT/ZWXXXV3s9//vMx1cT8te3RRx+dt13sww8//PCiz7htu8eBBx7Y+8pXvpLX91VXXdV7y1ve0tt00017v/nNb8aufz1Oj7dd3/CGN+R1HPssfVC4XbvHP/3TP/V++MMf9m666abejTfe2PvzP//zXP/RzuC+Olqmzvh5zWte0/vgBz+48Pdzzz3X23jjjXsnnXTSRPNlfm/8MCkq4pFHHsk793e+852F137xi1/kE7Bly5blf9OBV1pppd5999238JlTTz21t/baa/eefvrp/O+Pf/zjuYEVeec735kPEqZ90gny8uXLextttFHvv/yX/7KobVdfffV8kgsoWr532WWXLXzmzDPP7C1ZsqT3q1/9Kv/7S1/6Uu/FL37xQrvCCSec0Ntuu+0W/n7HO97RO+SQQxblZ6+99ur9yZ/8yYhKO1+UGT+HHXZY6XfcttPBAw88kLfTBRdcMHb963F6fO0q4+fDH/5w6XfcrtMBOvN//s//6b46BqbK7e13v/tddsUVV+QuNmKllVbK/162bNlE82Z+D+5PuNRsueWWuWsMW7NA2z3zzDOL2g+Xl0033XSh/fiN+8uGG2648JkDDzwwe+yxx7Lrrrtu4TMxDX3GMjAebr/99uy+++5b1AbrrLNOvl0e2xF3qD322GPhM3ye/nrJJZcsfOb1r399ttpqqy1qR1w6/uVf/mXhM27r8YOrBG4U2223Xfb+978/e+ihhxbec9tOB48++mj+e7311hur/vU4Pd52FV//+tezl7zkJdlOO+2UnXjiidmTTz658J7btds899xz2WmnnZY98cQTufub++roWSWbIn7961/nQhIbG/j7hhtumFi+zO9hAoxPKZOme++9N/vc5z6X+/1fe+21+YSZyRATp7T9eA/4XdS+eq/fZ+j0v/3tb/MzKGZ0qB2K2iC2EZPnyCqrrJIP2PEzW2yxxQpp6L0Xv/jFpW2tNEz7cL7nbW97W942t956a/bnf/7n2cEHH5wPhiuvvLLbdgpYvnx5dtxxx2X77bdfPhmGcelfjFuP0+NrV/h3/+7fZZtttlm+6MhZuxNOOCFfaPje976Xv+927SY///nPc2OH8z2c6zn99NOzHXfcMbvqqqvcV0fMVBk/pvswSRIc5sMYQil/+9vftlFizBRw5JFHLvyflUX68VZbbZXvBh1wwAETzZupBgelWXC66KKLJp0VM4Z2PeaYYxb1WQLR0FdZvKDvmm7CIjGGDrt53/3ud7Ojjz46u+CCCyadrblgqtze2NJl5TGNeMHfG2200cTyZcph5WLbbbfNbrnllryN2GZ95JFHStuP30Xtq/f6fYaIKTawRo/aoV8/5PcDDzyw6H2i0BAlrI22dn8fH7ivonvpw+C27TbHHnts9oMf/CA777zzsle84hULr49L/3qcHm+7FsGiI8Q+63btHuzuEIFt9913z6P67bLLLtl/+2//zX11DKw0bYKCkJxzzjmLtoH5m61D0z0If8vqEytRtN2qq666qP3YmudMkNqP32wFx8nV2WefnXdWtoP1mZiGPmMZGA+4M6EYYxuwjc55j9iOKG78icW5556b91cNzHyGsMv4Nsd2ZDUMtyh9xm09We6+++78zA99GNy23YT4FUyQcZ2hPVK3w3HpX4/T423XIthNgNhn3a7dh/p8+umn3VfHQW/KICwfUaW++tWv5lGHjjnmmDwsX4x4YSbHRz/60d7555/fu/322/NQtoRhJPwiEWoUvpEwneeee24evnGfffbJf9LwjW9+85vzsJ6EZHzpS19aGL7xYx/7WB4B5ZRTTnGo65Z5/PHH8/CZ/KAm/uZv/ib//x133LEQ6pp+94//+I+9a665Jo8OVhTqerfddutdcsklvYsuuqi3zTbbLAqHTEQbwiH/h//wH/LwnvRt2jUNh7zKKqv0/vqv/zpva6IJOhzy6NqW9/7sz/4sjyhEH/7xj3/ce/WrX5233VNPPbWQhtu2e7z//e/Pw8+jf2PI4yeffHLhM+PSvx6nx9eut9xyS+8v/uIv8vakz6KTt9xyy97rX//6hTTcrt3jE5/4RB6xjzZjDOVvImb+v//3//L33VdHy9QZP0CscoSC2OSE6eOuCdMNCKP4spe9LG+bl7/85fnfKGfB5PgDH/hAHtKRTvkHf/AHuSKP/PKXv+wdfPDB+b0gGE4YVM8888yiz5x33nm9XXfdNX8Oip57EEx7UL9MjNMfwiAr3PWnPvWpfIKL4jzggAPyuwoiDz30UD4hXmuttfLwm+95z3vyyXWEO4Je+9rX5mkgLxhVKd/+9rd72267bd7WhO3kbgQzmrZlQsVgyiCKIbLZZpvl9z6kA6HbtnsUtSk/UTeOU/96nB5Pu9555525obPeeuvlfY07t5jsxnt+wO3aLf74j/8416/UI/qWMVSGD7ivjpYl/DOWLSZjjDHGGGOMmSBTdebHGGOMMcYYY+pi48cYY4wxxhgzF9j4McYYY4wxxswFNn6MMcYYY4wxc4GNH2OMMcYYY8xcYOPHGGOMMcYYMxfY+DHGGGOMMcbMBTZ+jDHGGGOMMXOBjR9jjDHGGGPMXGDjxxhjjDHGGDMX2PgxxhhjjDHGzAU2fowxxhhjjDHZPPD/AyCUm7s2Ht/PAAAAAElFTkSuQmCC",
      "text/plain": [
       "<Figure size 1000x400 with 1 Axes>"
      ]
     },
     "metadata": {},
     "output_type": "display_data"
    }
   ],
   "source": [
    "piano_roll = mario_pm.get_piano_roll()\n",
    "\n",
    "plt.figure(figsize=(10, 4))\n",
    "plt.imshow(piano_roll, aspect='auto', cmap='binary')\n",
    "plt.show()"
   ]
  },
  {
   "cell_type": "code",
   "execution_count": 46,
   "metadata": {},
   "outputs": [
    {
     "data": {
      "text/plain": [
       "<Axes: xlabel='note'>"
      ]
     },
     "execution_count": 46,
     "metadata": {},
     "output_type": "execute_result"
    },
    {
     "data": {
      "image/png": "iVBORw0KGgoAAAANSUhEUgAAAjIAAAHBCAYAAABzIlFzAAAAOnRFWHRTb2Z0d2FyZQBNYXRwbG90bGliIHZlcnNpb24zLjEwLjAsIGh0dHBzOi8vbWF0cGxvdGxpYi5vcmcvlHJYcgAAAAlwSFlzAAAPYQAAD2EBqD+naQAAO7lJREFUeJzt3Qt0FEXa8PEnIRAQDSEgICs3V5e7sIJCvKBIJFxehJVVUURUhBVBF3FRWBERdUFERC7Ci0cFdkFZdxUVlYugooJcgldgEZVLVhbQF0gEl3DJfOep7/ScmTCB1DBNpib/3zl9MjNd6amuqe55prqqOikQCAQEAADAQcmlnQEAAIBoEcgAAABnEcgAAABnEcgAAABnEcgAAABnEcgAAABnEcgAAABnpUiCKiwslJ07d8pZZ50lSUlJpZ0dAABQAjq93c8//yy1a9eW5OTkshvIaBBTp06d0s4GAACIQm5urpx77rllN5DRlhivINLS0ko7OwAAoATy8/NNQ4T3PV5mAxnvcpIGMQQyAAC4paTdQujsCwAAnEUgAwAAnEUgAwAAnEUgAwAAnEUgAwAAnEUgAwAAnEUgAwAAnEUgAwAAnEUgAwAAnEUgAwAAnEUgAwAAnEUgAwAAnEUgAwAAnEUgAwAAnEUgAwAAnJUiZUT94W8f99q2cV1LJS8AACA2aJEBAADOIpABAADOIpABAADOIpABAADOIpABAADOIpABAABlJ5BZsWKFdOvWTWrXri1JSUmyYMGCYtPeddddJs2kSZPCXt+7d6/07t1b0tLSJD09Xfr16ycHDhwIS/Pll1/KFVdcIRUrVpQ6derI+PHjbbMKAAASnHUgc/DgQWnRooVMmzbthOlef/11+fTTT03AU5QGMRs2bJClS5fKwoULTXA0YMCA4Pr8/Hzp2LGj1KtXT3JycuSpp56S0aNHy8yZM22zCwAAEpj1hHidO3c2y4n88MMPcs8998jixYula9fwSec2bdokixYtkrVr10rr1q3Na1OmTJEuXbrIhAkTTOAzd+5cOXz4sLz44otSoUIFadq0qXz++ecyceLEsIAHAACUbTHvI1NYWCh9+vSRYcOGmQCkqFWrVpnLSV4Qo7KysiQ5OVlWr14dTNOuXTsTxHiys7Nl8+bNsm/fvojvW1BQYFpyQhcAAJDYYh7IPPnkk5KSkiL33ntvxPW7du2SGjVqhL2m6TMyMsw6L03NmjXD0njPvTRFjR07VqpUqRJctF8NAABIbDENZLQ/y7PPPiuzZs0ynXxPpxEjRkheXl5wyc3NPa3vDwAAHA9kPvroI9mzZ4/UrVvXtLLosn37drn//vulfv36Jk2tWrVMmlBHjx41I5l0nZdm9+7dYWm8516aolJTU80oqNAFAAAktpgGMto3RodNa8dcb9HOu9pfRjv+qszMTNm/f79pvfEsX77c9K1p06ZNMI2OZDpy5EgwjY5watiwoVStWjWWWQYAAGVp1JLO9/Ltt98Gn2/dutUELNrHRVtiqlWrFpa+fPnyphVFgxDVuHFj6dSpk/Tv319mzJhhgpXBgwdLr169gkO1b775Znn00UfN/DIPPvigfP311+aS1TPPPHPqewwAAMpuILNu3Tpp37598PnQoUPN3759+5q+MSWhw6s1eOnQoYMZrdSzZ0+ZPHlycL121l2yZIkMGjRIWrVqJdWrV5dRo0Yx9BoAAIRJCgQCAUlAOvxaAyLt+Kv9ZeoPf/u4NNvGhc9xAwAA4uv7+2S41xIAAHAWgQwAAHAWgQwAAHAWgQwAAHAWgQwAAHAWgQwAAHAWgQwAAHAWgQwAAHAWgQwAAHAWgQwAAHAWgQwAAHAWgQwAAHAWgQwAAHAWgQwAAHAWgQwAAHAWgQwAAHAWgQwAAHAWgQwAAHAWgQwAAHAWgQwAAHAWgQwAAHAWgQwAAHAWgQwAAHBWSmlnIB7VH/52xNe3jet62vMCAACKR4sMAABwFoEMAABwFoEMAABwFoEMAABwFoEMAABwFoEMAABwFoEMAABwFoEMAABwFoEMAABwFoEMAABwFoEMAABwFoEMAABwFoEMAABwFoEMAAAoO4HMihUrpFu3blK7dm1JSkqSBQsWBNcdOXJEHnzwQWnevLlUrlzZpLn11ltl586dYdvYu3ev9O7dW9LS0iQ9PV369esnBw4cCEvz5ZdfyhVXXCEVK1aUOnXqyPjx409lPwEAQAKyDmQOHjwoLVq0kGnTph237pdffpH169fLww8/bP6+9tprsnnzZrn22mvD0mkQs2HDBlm6dKksXLjQBEcDBgwIrs/Pz5eOHTtKvXr1JCcnR5566ikZPXq0zJw5M9r9BAAACSjF9h86d+5slkiqVKligpNQU6dOlUsuuUR27NghdevWlU2bNsmiRYtk7dq10rp1a5NmypQp0qVLF5kwYYJpxZk7d64cPnxYXnzxRalQoYI0bdpUPv/8c5k4cWJYwBOqoKDALKHBEAAASGy+95HJy8szl6D0EpJatWqVeewFMSorK0uSk5Nl9erVwTTt2rUzQYwnOzvbtO7s27cv4vuMHTvWBFLeopejAABAYvM1kDl06JDpM3PTTTeZ/jBq165dUqNGjbB0KSkpkpGRYdZ5aWrWrBmWxnvupSlqxIgRJmjyltzcXJ/2CgAAOHtpqaS04+8NN9wggUBApk+fLn5LTU01CwAAKDtS/Axitm/fLsuXLw+2xqhatWrJnj17wtIfPXrUjGTSdV6a3bt3h6XxnntpAAAAkv0KYrZs2SLvvfeeVKtWLWx9Zmam7N+/34xG8miwU1hYKG3atAmm0ZFMui2PdiJu2LChVK1aNdZZBgAAZSWQ0fledASRLmrr1q3msY5K0sDj97//vaxbt86MPDp27Jjp06KLjkJSjRs3lk6dOkn//v1lzZo18sknn8jgwYOlV69eZsSSuvnmm01HX51fRodpz58/X5599lkZOnRorPcfAACUpUtLGqS0b98++NwLLvr27WvmennzzTfN85YtW4b93/vvvy9XXXWVeaxBjgYvHTp0MKOVevbsKZMnTw6m1VFHS5YskUGDBkmrVq2kevXqMmrUqGKHXgMAgLLJOpDRYEQ78BbnROs8OkJp3rx5J0xz4YUXykcffWSbPQAAUIZwryUAAOAsAhkAAOAsAhkAAOAsAhkAAOAsAhkAAOAsAhkAAOAsAhkAAOAsAhkAAOAsAhkAAOAsAhkAAOAsAhkAAOAsAhkAAOAsAhkAAOAsAhkAAOAsAhkAAOAsAhkAAOAsAhkAAOAsAhkAAOAsAhkAAOAsAhkAAOAsAhkAAOAsAhkAAOAsAhkAAOAsAhkAAOAsAhkAAOAsAhkAAOAsAhkAAOAsAhkAAOAsAhkAAOAsAhkAAOAsAhkAAOAsAhkAAOAsAhkAAOAsAhkAAOAsAhkAAOAsAhkAAOAsAhkAAFB2ApkVK1ZIt27dpHbt2pKUlCQLFiwIWx8IBGTUqFFyzjnnSKVKlSQrK0u2bNkSlmbv3r3Su3dvSUtLk/T0dOnXr58cOHAgLM2XX34pV1xxhVSsWFHq1Kkj48ePj3YfAQBAgrIOZA4ePCgtWrSQadOmRVyvAcfkyZNlxowZsnr1aqlcubJkZ2fLoUOHgmk0iNmwYYMsXbpUFi5caIKjAQMGBNfn5+dLx44dpV69epKTkyNPPfWUjB49WmbOnBntfgIAgASUYvsPnTt3Nksk2hozadIkGTlypHTv3t28NmfOHKlZs6ZpuenVq5ds2rRJFi1aJGvXrpXWrVubNFOmTJEuXbrIhAkTTEvP3Llz5fDhw/Liiy9KhQoVpGnTpvL555/LxIkTwwIeAABQtsW0j8zWrVtl165d5nKSp0qVKtKmTRtZtWqVea5/9XKSF8QoTZ+cnGxacLw07dq1M0GMR1t1Nm/eLPv27Yv43gUFBaYlJ3QBAACJLaaBjAYxSltgQulzb53+rVGjRtj6lJQUycjICEsTaRuh71HU2LFjTdDkLdqvBgAAJLaEGbU0YsQIycvLCy65ubmlnSUAAOBSIFOrVi3zd/fu3WGv63Nvnf7ds2dP2PqjR4+akUyhaSJtI/Q9ikpNTTWjoEIXAACQ2GIayDRo0MAEGsuWLQu+pn1VtO9LZmamea5/9+/fb0YjeZYvXy6FhYWmL42XRkcyHTlyJJhGRzg1bNhQqlatGsssAwCAshTI6HwvOoJIF6+Drz7esWOHmVdmyJAh8vjjj8ubb74pX331ldx6661mJFKPHj1M+saNG0unTp2kf//+smbNGvnkk09k8ODBZkSTplM333yz6eir88voMO358+fLs88+K0OHDo31/gMAgLI0/HrdunXSvn374HMvuOjbt6/MmjVLHnjgATPXjA6T1paXyy+/3Ay31ontPDq8WoOXDh06mNFKPXv2NHPPeLSz7pIlS2TQoEHSqlUrqV69uplkj6HXAAAgVFJAJ39JQHpJSwMi7fir/WXqD3/7uDTbxnWN+L+R0p4oPQAA8Of7u8yMWgIAAGUPgQwAAHAWgQwAAHAWgQwAAHAWgQwAAHAWgQwAAHAWgQwAAHAWgQwAAHAWgQwAAHAWgQwAAHAWgQwAAHAWgQwAAHAWgQwAAHAWgQwAAHAWgQwAAHAWgQwAAHAWgQwAAHAWgQwAAHAWgQwAAHAWgQwAAHAWgQwAAHAWgQwAAHAWgQwAAHAWgQwAAHAWgQwAAHAWgQwAAHBWSmlnIBHUH/52xNe3jet62vMCAEBZQosMAABwFoEMAABwFoEMAABwFoEMAABwFoEMAABwFoEMAABwFoEMAABwFoEMAABwFoEMAABwFoEMAABwFoEMAABwVswDmWPHjsnDDz8sDRo0kEqVKsmvf/1reeyxxyQQCATT6ONRo0bJOeecY9JkZWXJli1bwrazd+9e6d27t6SlpUl6err069dPDhw4EOvsAgAAh8U8kHnyySdl+vTpMnXqVNm0aZN5Pn78eJkyZUowjT6fPHmyzJgxQ1avXi2VK1eW7OxsOXToUDCNBjEbNmyQpUuXysKFC2XFihUyYMCAWGcXAAA4LOZ3v165cqV0795dunb9/3d+rl+/vrz88suyZs2aYGvMpEmTZOTIkSadmjNnjtSsWVMWLFggvXr1MgHQokWLZO3atdK6dWuTRgOhLl26yIQJE6R27dqxzjYAAHBQzFtkLr30Ulm2bJl888035vkXX3whH3/8sXTu3Nk837p1q+zatctcTvJUqVJF2rRpI6tWrTLP9a9eTvKCGKXpk5OTTQtOJAUFBZKfnx+2AACAxBbzFpnhw4ebIKJRo0ZSrlw502fmiSeeMJeKlAYxSltgQulzb53+rVGjRnhGU1IkIyMjmKaosWPHyqOPPhrr3QEAAGWpRebvf/+7zJ07V+bNmyfr16+X2bNnm8tB+tdPI0aMkLy8vOCSm5vr6/sBAIAEbJEZNmyYaZXRvi6qefPmsn37dtNi0rdvX6lVq5Z5fffu3WbUkkeft2zZ0jzWNHv27Anb7tGjR81IJu//i0pNTTULAAAoO2LeIvPLL7+Yviyh9BJTYWGheazDsjUY0X40Hr0UpX1fMjMzzXP9u3//fsnJyQmmWb58udmG9qUBAADwpUWmW7dupk9M3bp1pWnTpvLZZ5/JxIkT5Y477jDrk5KSZMiQIfL444/LBRdcYAIbnXdGRyL16NHDpGncuLF06tRJ+vfvb4ZoHzlyRAYPHmxaeRixBAAAfAtkdJi0BiZ33323uTykgccf/vAHMwGe54EHHpCDBw+aeWG05eXyyy83w60rVqwYTKP9bDR46dChg2nh6dmzp5l7BgAAwJMUCJ1yN4Ho5Sod1q0df3V24PrD3z4uzbZx/3+um6IipY1legAAULLv75PhXksAAMBZBDIAAMBZBDIAAMBZBDIAAMBZBDIAAMBZBDIAAMBZBDIAAMBZBDIAAMBZBDIAAMBZBDIAAMBZBDIAAMBZBDIAAMBZBDIAAMBZBDIAAMBZBDIAAMBZBDIAAMBZBDIAAMBZBDIAAMBZBDIAAMBZBDIAAMBZBDIAAMBZBDIAAMBZBDIAAMBZBDIAAMBZBDIAAMBZBDIAAMBZBDIAAMBZBDIAAMBZKaWdgbKm/vC3I76+bVzX054XAABcR4sMAABwFoEMAABwFoEMAABwFoEMAABwFoEMAABwFoEMAABwFoEMAABwFoEMAABwFoEMAABwli+BzA8//CC33HKLVKtWTSpVqiTNmzeXdevWBdcHAgEZNWqUnHPOOWZ9VlaWbNmyJWwbe/fuld69e0taWpqkp6dLv3795MCBA35kFwAAOCrmgcy+ffvksssuk/Lly8u7774rGzdulKefflqqVq0aTDN+/HiZPHmyzJgxQ1avXi2VK1eW7OxsOXToUDCNBjEbNmyQpUuXysKFC2XFihUyYMCAWGcXAAA4LOb3WnryySelTp068tJLLwVfa9CgQVhrzKRJk2TkyJHSvXt389qcOXOkZs2asmDBAunVq5ds2rRJFi1aJGvXrpXWrVubNFOmTJEuXbrIhAkTpHbt2rHONgAAcFDMW2TefPNNE3xcf/31UqNGDfntb38rzz//fHD91q1bZdeuXeZykqdKlSrSpk0bWbVqlXmuf/VykhfEKE2fnJxsWnAiKSgokPz8/LAFAAAktpgHMt9//71Mnz5dLrjgAlm8eLEMHDhQ7r33Xpk9e7ZZr0GM0haYUPrcW6d/NQgKlZKSIhkZGcE0RY0dO9YERN6irUIAACCxxTyQKSwslIsuukj+8pe/mNYY7dfSv39/0x/GTyNGjJC8vLzgkpub6+v7AQCABAxkdCRSkyZNwl5r3Lix7NixwzyuVauW+bt79+6wNPrcW6d/9+zZE7b+6NGjZiSTl6ao1NRUM8IpdAEAAIkt5oGMjljavHlz2GvffPON1KtXL9jxV4ORZcuWBddrfxbt+5KZmWme69/9+/dLTk5OMM3y5ctNa4/2pQEAAPBl1NJ9990nl156qbm0dMMNN8iaNWtk5syZZlFJSUkyZMgQefzxx00/Gg1sHn74YTMSqUePHsEWnE6dOgUvSR05ckQGDx5sRjQxYgkAAPgWyFx88cXy+uuvmz4rY8aMMYGKDrfWeWE8DzzwgBw8eND0n9GWl8svv9wMt65YsWIwzdy5c03w0qFDBzNaqWfPnmbuGQAAAN8CGfU///M/ZimOtspokKNLcXSE0rx58/zIHgAASBDcawkAADiLQAYAADiLQAYAADiLQAYAADiLQAYAADiLQAYAADiLQAYAADiLQAYAADiLQAYAADiLQAYAADiLQAYAADiLQAYAADiLQAYAADiLQAYAADiLQAYAADiLQAYAADiLQAYAADiLQAYAADiLQAYAADgrpbQzgBOrP/ztiK9vG9f1tOcFAIB4Q4sMAABwFoEMAABwFpeWEgiXoQAAZQ0tMgAAwFm0yJRhtOAAAFxHIIMSIegBAMQjLi0BAABnEcgAAABnEcgAAABnEcgAAABnEcgAAABnEcgAAABnEcgAAABnEcgAAABnEcgAAABnEcgAAABncYsC+IJbGgAATgcCGcRt4EPQAwAo9UtL48aNk6SkJBkyZEjwtUOHDsmgQYOkWrVqcuaZZ0rPnj1l9+7dYf+3Y8cO6dq1q5xxxhlSo0YNGTZsmBw9etTv7AIAAIf4GsisXbtW/vd//1cuvPDCsNfvu+8+eeutt+TVV1+VDz/8UHbu3CnXXXddcP2xY8dMEHP48GFZuXKlzJ49W2bNmiWjRo3yM7sAAMAxvgUyBw4ckN69e8vzzz8vVatWDb6el5cnL7zwgkycOFGuvvpqadWqlbz00ksmYPn0009NmiVLlsjGjRvlb3/7m7Rs2VI6d+4sjz32mEybNs0EN5EUFBRIfn5+2AIAABKbb4GMXjrSVpWsrKyw13NycuTIkSNhrzdq1Ejq1q0rq1atMs/1b/PmzaVmzZrBNNnZ2SY42bBhQ8T3Gzt2rFSpUiW41KlTx69dQxz0p4m0AADKHl8CmVdeeUXWr19vgouidu3aJRUqVJD09PSw1zVo0XVemtAgxlvvrYtkxIgRprXHW3Jzc2O4RwAAoEyMWtIA4o9//KMsXbpUKlasKKdLamqqWQAAQNkR80BGLx3t2bNHLrroorDOuytWrJCpU6fK4sWLTT+X/fv3h7XK6KilWrVqmcf6d82aNWHb9UY1eWmAkmJoNwAkrpgHMh06dJCvvvoq7LXbb7/d9IN58MEHTd+V8uXLy7Jly8ywa7V582Yz3DozM9M8179PPPGECYh06LXSFp60tDRp0qRJrLMMBDGRHwCU8UDmrLPOkmbNmoW9VrlyZTNnjPd6v379ZOjQoZKRkWGCk3vuuccEL23btjXrO3bsaAKWPn36yPjx402/mJEjR5oOxFw+AgAApTqz7zPPPCPJycmmRUaHTeuIpOeeey64vly5crJw4UIZOHCgCXA0EOrbt6+MGTOmNLILAADKciDzwQcfhD3XTsA6J4wuxalXr5688847pyF3AADAVdz9GgAAOIubRgKngBFRAFC6aJEBAADOIpABAADOIpABAADOoo8McJow2R4AxB4tMgAAwFkEMgAAwFkEMgAAwFkEMgAAwFkEMgAAwFkEMgAAwFkEMgAAwFkEMgAAwFkEMgAAwFkEMgAAwFkEMgAAwFkEMgAAwFkEMgAAwFnc/RqIU9wtGwBOjhYZAADgLAIZAADgLAIZAADgLAIZAADgLAIZAADgLEYtAQmAEU4AyipaZAAAgLMIZAAAgLMIZAAAgLMIZAAAgLMIZAAAgLMIZAAAgLMIZAAAgLMIZAAAgLMIZAAAgLMIZAAAgLMIZAAAgLNiHsiMHTtWLr74YjnrrLOkRo0a0qNHD9m8eXNYmkOHDsmgQYOkWrVqcuaZZ0rPnj1l9+7dYWl27NghXbt2lTPOOMNsZ9iwYXL06NFYZxcos/dmirQAgJT1QObDDz80Qcqnn34qS5culSNHjkjHjh3l4MGDwTT33XefvPXWW/Lqq6+a9Dt37pTrrrsuuP7YsWMmiDl8+LCsXLlSZs+eLbNmzZJRo0bFOrsAAMBhMb/79aJFi8KeawCiLSo5OTnSrl07ycvLkxdeeEHmzZsnV199tUnz0ksvSePGjU3w07ZtW1myZIls3LhR3nvvPalZs6a0bNlSHnvsMXnwwQdl9OjRUqFChVhnG0AxuLM2gDLdR0YDF5WRkWH+akCjrTRZWVnBNI0aNZK6devKqlWrzHP927x5cxPEeLKzsyU/P182bNgQ8X0KCgrM+tAFAAAkNl8DmcLCQhkyZIhcdtll0qxZM/Parl27TItKenp6WFoNWnSdlyY0iPHWe+uK65tTpUqV4FKnTh2f9goAACTspaVQ2lfm66+/lo8//lj8NmLECBk6dGjwubbIEMwApx+XogAkRCAzePBgWbhwoaxYsULOPffc4Ou1atUynXj3798f1iqjo5Z0nZdmzZo1YdvzRjV5aYpKTU01CwAAKDtifmkpEAiYIOb111+X5cuXS4MGDcLWt2rVSsqXLy/Lli0LvqbDs3W4dWZmpnmuf7/66ivZs2dPMI2OgEpLS5MmTZrEOssAAMBRKX5cTtIRSW+88YaZS8br06L9VipVqmT+9uvXz1wG0g7AGpzcc889JnjREUtKh2trwNKnTx8ZP3682cbIkSPNtml1ARIHl6EAnKqYBzLTp083f6+66qqw13WI9W233WYeP/PMM5KcnGwmwtPRRjoi6bnnngumLVeunLksNXDgQBPgVK5cWfr27StjxoyJdXYBAIDDUvy4tHQyFStWlGnTppmlOPXq1ZN33nknxrkDAACJhHstAQAAZxHIAAAAZxHIAAAAZxHIAAAAZxHIAAAAZxHIAAAAZxHIAAAAZ/l600gAiCVmAgZQFC0yAADAWQQyAADAWQQyAADAWQQyAADAWQQyAADAWQQyAADAWQQyAADAWQQyAADAWUyIByAh2U6ex2R7gJsIZAAgCpECH4Ie4PTj0hIAAHAWLTIA4MBlLlp7gMgIZADAYfTtQVnHpSUAAOAsAhkAAOAsAhkAAOAs+sgAQBlCR2IkGlpkAACAswhkAACAswhkAACAswhkAACAs+jsCwCIiMn24AJaZAAAgLNokQEAxAQtOCgNBDIAACdvpHmi9Cg7uLQEAACcRSADAACcRSADAACcRSADAACcRWdfAEBC8bMjsd+dlLmpZ4IFMtOmTZOnnnpKdu3aJS1atJApU6bIJZdcUtrZAgCg1DGSK84vLc2fP1+GDh0qjzzyiKxfv94EMtnZ2bJnz57SzhoAAIgTcdsiM3HiROnfv7/cfvvt5vmMGTPk7bfflhdffFGGDx9e2tkDAMAp9S0uW7l0SSwuA5nDhw9LTk6OjBgxIvhacnKyZGVlyapVqyL+T0FBgVk8eXl55m9+fr75W1jwy3H/460rKlLaWKVn2yVPz7bj4/Nh2/Hx2bu67eLSs+34+HzyS2HbzR5ZHPH1rx/NDvu/QCAgJRKIQz/88IPmPrBy5cqw14cNGxa45JJLIv7PI488Yv6HhYWFhYWFRZxfcnNzSxQzxGWLTDS09Ub71HgKCwtl7969Uq1aNUlKSgq+rpFenTp1JDc3V9LS0k64TZu0bLvsbjue8sK2E2fb8ZQXts22c09jXrQl5ueff5batWtLScRlIFO9enUpV66c7N69O+x1fV6rVq2I/5OammqWUOnp6cW+hxZaST4U27Rsu+xuO57ywrYTZ9vxlBe2zbZPV16qVKni9qilChUqSKtWrWTZsmVhLSz6PDMzs1TzBgAA4kdctsgovUzUt29fad26tZk7ZtKkSXLw4MHgKCYAAIC4DWRuvPFG+fHHH2XUqFFmQryWLVvKokWLpGbNmqe0Xb38pHPTFL0Mdapp2XbZ3XY85YVtJ8624ykvbJttp8ZBXoqTpD1+T2kLAAAApSQu+8gAAACUBIEMAABwFoEMAABwFoEMAABwFoEMAABwFoEMAABwVtzOIxPvfvrpJ3nxxRfN3bh1nhult0+49NJL5bbbbpOzzz77lLa/ceNGmTp16nHb15mNBw8eLE2aNInJfsQ6H3rn8gULFkQsl+7du5tZm6NJ6zfbvNiUi01d8btexUv5ubqftvys436WYTwd9zb7GS/nTdt8+/lZ/lQGjrWEn0fGj8q0du1ayc7OljPOOEOysrKCk/TpvaD0Ngq//PKLLF682MxKHM3B++6770qPHj3koosuMu8Tuv2lS5dKTk6OvPHGG2ad7T7a5MU2H99++615vHPnTmnTpk1Y+tWrV8u5555rtnn++edbpY2mDG3S2+bFplxs6orf9co2vV/ldzr2088vEb/KxSYvfpZhPB33Nvtpm28/60m8HPdr4+yc4ldQldCBjF+VqW3bttKiRQuZMWNG2J21lRbnXXfdJV9++aX5sJTtwavb1gowZsyYiPs1evRoee2118x72FZUm7zY5ENdc801UrlyZZkzZ85xNwDTu5zeeuut8t///tfkxyZtNGVok942LzblYlNX/K5Xfn3h2Jaf3/vp55eIn+USL+egeDrubfbTNt9+1pN4Oe7bxtE5JZqgqsQCCaxNmzaBAQMGBAoLC49bp6/purZt21qnrVixYmDTpk3Fvq+u0zSerKysQPfu3QN5eXnHpdXXdF3Hjh2Dr+n//utf/yp2+7rO275Nvm3zYpMPValSpcBXX31VbPovv/zSpLFNa5tv2/S2ebEpF5u64ne9sknvd/n5uZ9+Hfd+l0u8nIPi6bi3PX5s8u1nPYmX475iHJ1TbMvQRkIHMn5Vpvr16wdmz55dbFpdV69eveBz24O3UaNGgaeffrrY9LquYcOG1vm2zYtNPtQ555wTeOutt4pN/+abb5o0tmlt822b3jYvNuViU1f8rld+feHYlp/f++nnl4if5RIv56B4Ou5t9tM2337Wk3g57uvH0TnFtgxtJHRnX732tmbNGmnUqFHE9brOa96ySfunP/1JBgwYYK65dujQ4bgmsueff14mTJgQ/N/09HTZtm2bNGvWLOK2dZ2m8WjT6M033ywffPBBxCY4vXnmvHnzrPNtmxebfKg777zTNA0//PDDEcvl8ccfl3vuucc6bTRlaJPeNi825WJTV/yuVzbp/Sw/v/fTr+Pe73KJl3NQPB33Nvtpm28/60m8HPd/iqNzim0ZWgkksKlTpwZSU1MD9957b+CNN94IfPrpp2bRx/qaRorTpk2zTqteeeUV01SWkpISSEpKMos+1tfmz58flo+HH344ULVq1cDEiRMDX3zxRWDXrl1m0cf6WkZGRuCRRx4J+59PPvkkcOONNwbq1q0bqFChgln0sb62cuXKqPYxmryUNB+ecePGmV9UWh7Jyclm0cf62pNPPhl1Wtt826a3yYttudjUFT/rlU16v8vPz/3087j3s1zi6RwUL8e97X7a5NvPemKbbz8/y1fi5JwSTRmWVEIHMn5WJs/hw4cDO3fuNIs+Lo7twevXPvqdF8/3339vThy66ONYpLXNdzT7aZNvWyWtKzZp/SyT01F+fu2nn8e9n+Xi6jnIdj9t09oeP/Hy/WCbbz8/y8NxcE6JtgxPJqFHLYU6cuSIGfqlqlevLuXLl49JWltbt24NG3bWoEGDmG3bNt9+5sVPtvl2dT/jpUziqfxs8+LncR9Px7KNePo840W8fD/E02e51cdzSqzLsMwEMqfTc889Zz6kUaNG+bL9P//5z6bC6Hj80mSbD53DIS8vz1wjj2Vav9nmxaZcbOqK3/UqXsrP1f205Wcd97MM4+m4t9nPeDlvxtNx/1yiHGuBMkyvxz366KMxT3v11VcHGjRoUOJ8LFiw4IQ9y4u69dZbA+3bt495vm3zYpMPpSMGtNkx1mmjKUOb9LZ5sSkXm7rid72ySe9n+fm9n34d936XS7ycg+LpuLfZT9t8+1lP4uW4vzqOzim2ZRiqTAcyflYmG7YHrw3bfPuZFz/Z5tvV/YyXMomn8vPzyy+ejh9Xz0Guipfvh3j6LBv6eE45lTLk0hIAAHAWd7+OQkFBgems5Pnuu+/koYcekj59+sjIkSNNp6dTpdN067XcO+64Qzp37ixdu3Y18yvo2P/T5d///newQ5b66KOPpHfv3nLFFVfILbfcEpzWuqjCwsJiX9+xY8dxcwc8++yzMmLECLPoY33tdPrnP/9ppse2sXDhQnNd+ZNPPjHPly9fLl26dJFOnTrJzJkzw9J+8cUX5rP8/vvvzfMNGzbI3XffbaYH96ZiD6Xb0jkxBg4cKIMGDZKnn35atmzZIi7RY0Dvb/P111+X+H/OO+885/YzGldffbVs3749ZsfogQMHjntdz08rVqwQP+gcJMXdBqAk+6m/nbV+HD16NHivnvnz55vbFoSeb5TW/ViVVUnzHSu2x31o+bz//vtmjhc9z4R+18Tavn37TLk7L5DADh06FDbM7Ntvvw38+c9/Dtxyyy2Bhx566Lghf59//nnghRdeCHz33Xfm+ddffx0YOHBg4A9/+ENg0aJFwXRXXnll4NVXXzWPP/74YzM2/sILLzRzFfz2t78NnHHGGRHnWli9enVg0qRJgeHDh5tFH+trRW3ZssXMtlijRo1AnTp1zBC1rl27miFq5cqVC1x//fWBI0eOlKgM9u7de9w1Sp0OWvfd20ZBQYEZFqfpfvzxx2C6Sy65JDgLp17r1CbCa6+9NvDggw8Gfve73wXKly8fNkunTkmtedPZGTXvOsfA0aNHg+t1fgGvmXH37t2Byy+/3Oyb7qu+ly76WF/TdZrmZPSa97Zt20pUFrrPS5YsOW4mSn2/tLS0QP/+/c28BiczY8YMM2SwVatW5v/++te/Bs4666zAnXfeaeqKzoegn6365z//aT6zatWqBc4888zA0qVLA+np6WZq7+zsbLNu7ty5wTLRMtAy0u3rX32PWrVqmXTDhg0Ly8c//vGPwMGDBwO2SloPS1pP9Bj5+eefzeNffvkl0LNnz+AQTP2rn5G3Xj377LMRF93HESNGBJ9Hu59+Hfehjh07Vuzr27dvN491foxIi+6nzqnhPS9q2bJlpq/AXXfdFbj77rsDEyZMCHzzzTdhaXQI7cUXX2zKV7fXp0+fsDIOPdZs830yWl6h27bZT71NgB7j+v/nn3+++Sy0jleuXNmcN6tXrx62r1qHdDt6vGjd0zoYraL5jubcWZLPxva479y5c2D//v3m8f/93/+Z87zu99lnn23yqzMW79mz55SP+1Mpk1icZ23L0EZCBzI2AYdNxdMvL6/g9T3uu+++sPcdOXJk4LLLLgs+t/3S1oqtJ1HvnhQ6Tl9fU/q+Ou100Qn0SlpRbU4k+pp30teDS/MRasqUKaYcPTqp0W9+8xtT5s8//7x5Hw3AvJOPnlx1f5V+2WVmZka8N4q+dumllwZ+//vfB1+z/VKw+XLV18aMGWP2RR83bdo08MwzzwR++umniGXapEmTwMyZM83j5cuXm8AtdCKnl156KdC4cWPz+KKLLgo8/vjj5vHLL79s6pS+l0cP4pYtW5rHWi979OhhAkL9Mh48eLDpoOgd/Fo3vQApmgDMph7a1BNN4/2fBiLnnnuuKRc92epx9+tf/9oETKH51jRaj0MXff1Xv/qVeRx6rdx2P/067m2Dda+uefNlRFpCj02bQFbrhR6Ta9euNXnWdK1btzZfvkWPNdt862RmJ1p0vo/QfNvsp957R38M6dT1Q4YMMceJvqaBp9b5bt26mYAzdNt6PGka/eGkn9Mf//jHiF+Stvm2OXfa/siwOe51H73jR89ben7xzru5ubnmffRLP5rjIS8v74TLRx99FHVQanuetS1DGwkdyNgEHDYVT0/m3j0jatasaSp8KP0FqCdFj+2Xtp5oQyNUDQT0IPa+WLV1RE/20VRUmxNJlSpVzAlA6cnPexy6n5pXj86g+f777wef6692rbh60zDddujJUstn/fr1xX5269atCytD2y8Fmy/X0BOJvq8enPr56xegnvz110UobXEJ/fWqn03oiXXr1q3BctG6os+VBqaaVsveo60A3n5qfdXWAM+BAwdMeu+GbNryE3qvGNsAzKYe2tST0PJr1qxZYN68eWHb1hOfBrgeDdL1WNq4cWNYOj25bdiw4bi82e6nX8e9bbDeqVMns65oy2Jx+2kTyNauXTusFc37TDSv+qu+aIuMTb5PdKyFfkl5bPZTWxk+++yzYP3Wbek5KnRmXj2PeELrlv7VCda0hULfX1uk9AdFfn5+VPm2OXfa/siwOe5D91GP76KtdO+9995xgX1Jj4ekkEnqIi1Fy8TP86xtGdpI6EDGJuCwqXjau3r8+PHmsZ78izY/atNf6MFo+6WtJ6mcnJzg83379pkK5B2wGq3rl2w0FdXmRKJfZF4l1F+noc39Sk+IF1xwQdgXfNFme82zfnlqmek6Ly9aaT/44INiy0QDIk3jsf1SsPlyDU3r+e9//xuYM2dO4KqrrjJ59gJHpQfrihUrzOMffvjB/P/bb78dXK/7pWmU/trQz1fpr2VNGxrsrVmzxqTxPpvQfdFfOPre+sXk1UHvc48mALOphzb1RNd5Td/aUhMajCltkg690Zx67bXXzGVTbdWz+SxLsp9+Hfe2wbrSadp1P0MvwRa3nzaBrOa7aHO8XgLULwptfdJ9CM2HTb71uNNLbfq5RVq0rhdt2Sjpfhb9EaBlq5+HZ8eOHcXW8VB6/PXt29eUgy7R5Nvm3Gn7I8PmuA89fvQHY6TjJ9rjPi0tzQR/ek6KtOg5PNqg1PY8a1uGNhI6kLEJOGwqnjZLa2uFXt7RE7GevPVXnjZBjxo1ylSq0KmZbb+09QDVX5J6MtYvf69J3KPb0pNGNBXV5kSiv5g1Xxo1P/bYYyat/gp/4oknzGuaTpt9PVoJQ7/QPdq0qMFMixYtgnnRa6P6q1C/0EJvAa+P9TUNHDRiD2XzpWDz5Rr6qyIS7bOkfSw8gwYNMgGc/pLXLwP9vPRX4rvvvmv6VDRv3jxwxx13mLRaXnoJ4G9/+5v5xawBod6qXj9bbQXRz9lrBdF+R9pqoge4tnxoS4he1vFoM7JXB6MJwGzqoU090XxoK4u2fOiJuGhgoUG5fgZF/fvf/zbHqJ48//Of/5ToZFmS/fTruLcN1j0aEOrlggEDBphfqsXtp00gq3VM96MoL5jR/St63Jc03xrc6PFeHA0MQy9b2eyn/kIPDYife+654A80r66ElvfJjk09X3iXeW3zbXPutP2RYXPca566dOlijn+9b1HRu4Prca8BeTTHw1VXXXXC209E+iz9Os/alqGNhA5kbAIOm4rnbVvXF21202v8RZvHbL+0tZJ629YPWv839Je0Ng9Pnjw5qopqeyLRL69evXqZzqzePmoUrV8Qr7/+eth73XPPPWFlFErfQ8vXOzHor0C97qs3ddPX9Nq9Lrp9fU1/ZWiaokr6pWDz5Vrcr77iaKCh16f1F4jmQ5vnn3rqKZNv3ZZ+Jt729JfuNddcYwIBrVPaqU8/a++z1YDICxD0QNbPR/dJy1jrp/Z/8GjQGNrXxDYAs6mHNvVEjw3dZ2/RL4BQ+uWiaSLRVpC//OUvwevkkT5L2/3087i3CdZD6Ulb66N+3sXtp00g+8ADD5gv7kg0mNHW1NB82ORb64L+Oi6OBnyzZs2KuO5k+6nritaPUGPHjjVf6h6bY9M23zbnTtsfGTbH/W233Ra2FL3nkPYd0W1EczzMnDnzuJb0UJrP0aNHn5bzrG0Z2kjoQMYm4DhRxdMltOKF0mhUP4AT3fisuC9tfXyiL21tOta+FycaoaQV9UTXFYtWVNsTSegXjm7rRDcc0xNF0Yjc+1+lX4RFWwT0S1Svj2qTpC76OPRLNpKSfCnYfLnqr4ZIozm8fJeU/ioK/bI/EQ1aIn22etJYvHix+TXkjQwqLh+2AZhNPYy2noTy8q37qp0WT0RbRbQee51VT2U/Y3XcF/3CsQ3WI/Hu9BtpfyIFsqFfDKGBrNabEx0nuj50lMmp5tuW7qd+UZX0c/Pqip5D9RxzOticO21/ZNge9yeiX/x6bjmV4yGac1usz7OxKsMyPSHejz/+aMbz61wm55xzjtSvX79E/6f/o3OMNGrUSFJSUk6YtkKFCmbugMaNG0dcn5+fLzk5OWE31mrVqpWkpaVJvND5HSpWrGjKKFZOVi7Rpn3zzTfNfAs6/0yNGjWs8qSfq77XueeeG5O8+Km4fOj8GnXr1pWkpCSr7cWiHpaknsSq/KLdTz+Oe513Y+fOndK0adOI//fzzz/L+vXr5corr4yqXPQ9dW4inauqbdu25oZ6sRCLfPspXo61E9HP5uOPPzbz3kT72cRiP0/leIgmH2+99ZaZ2yoW51m/6veJv5kTwKZNm+TTTz+VSy+9VNq0aSP/+te/5MknnzQFqZO66aRNkdI2bNjQpNUJ2oqmHTp0aMT3OnbsmIwbN06qVatmnk+cOPG4bWdmZkr79u2D2/7rX/96XD70hFK1atXg3UM1zYwZM8xkcvXq1ZPBgwdLr169zDqdJO+GG24wk9SVxMnSh96x1CYftuViW4aR8n3ttdeapTh+fZ625aKTG2rgkJGRIU2aNAl7j0OHDsnf//53c5M823zoe4XWK/3SLW4fQ2nAonXw4MGD5r3fe+892bhxo8mz9x6h5XeybftdfvpaKC/f3377rQlObrrpprB8h9aVs88+2yy2x4NOzheJ5lsDwJdeeinm5aLOOOMMueaaa4L7qe8TaT9ty1DT6nKiMvSCGNtt+1nHbfMydepUM6GmTk6pr2v6sWPHmkD2uuuuMxPihQamJa3jXj3p2LGjlITNftru44QJE0p8zh8aRR0MpfVEJynUeqmfYdFjLVL6Ex2bGoTpJI5a3hrElOR8VSKBBKadL7XJPCMjwzSh63PtcKRzRGgHN20u00sZtmm1aU+HOYY2qemir+uQQH0cenMym20rHXXgNblpU512ltLm6OnTp5vmWm0G1975Xl68JnCd50U7TZ6ITXqbfNiWi20Z2u6nn5+nTbls3rw5OE+L5r9du3ZhTedF5x3xs17pEGqvY5121tU+MdqXRLet29Br3N7l0XgpP9t829aVeKpXRfdT601x++lnGdpu2886bpMXvYyhffm0H4b2tdDPUzuva6d87Yeln5P2kYr2s7Q9z5Z0P6M5z9rU75Y+1UHb9LbnKxsJHchoJzadydObI0J7hId2CtTrcXp93Dat9g/Qcf1FC724DlE221Zakb3r2zpayeuV79FOi9oRS2mF1HkGdJIo7VSl1x61o5/2sYjU78MmvU0+bMvFtgxt99PPz9OmXHQEiQ5n1P4u2glPH+t7eSOCQk/yfter0GvrvXv3Nh22vRlFtdOnnlBuuummuCo/23zb1pV4qlc2++lnGdpu2886bpMX7X+hExx6HXX1i1E7cYd2Bg7tXGrzWdrWE5v9jOazLGlexvpYB23T256vbCR0IKPD6/TAUvoB64cXOvpHO115w9ps0nrDMnV8/P333x/s/Hqi+SFstq2/IrwhoRrRRpoHwxvSFlqRNB/a492bkVTno9GK4r23bXqbfERTLjZpbffTz8/Tplx0fei8JNrJTjvc6vBY7fxWdN4RP+tVaBmed955x40w0LlhQof1x0P52ebbtq7EU72y2U8/y9B2237WcZu8RJqoMnTwgQYLoRN42nyWtvXEZj9P5bMsSV7W+FQHbdPbHjs2Ev6mkV6HqOTkZNM5sUqVKsF1Z511luTl5UWV9uKLLzbXhLUzYevWrc3N8U7U+cpm23qTyOnTp5vHet36H//4R9i29Brk+eeff9x7lC9f3lw7XbRokelk1b9/f5k7d67pHxLJydJHkw+bcrEtQ9v99OvztCkX7TsQek1et6n/261bN/O/33zzzSmVic0+hqbXfgtFO+r+6le/Mu8bT+UXTb6jPSZKu17Z7KefZWi7bT/ruE1etNO69vVSevNR7QfiPfdu2li0s6rt8WNTT0q6n9Ge70ual4t9qoPRpI+mvEskkMD02qNeh/MUHfams0N6Uz/bpC1Km8k0ktRfHZGiXNtt62yxeg1brzUPHTrURON6Hxydu0Rf0+uM3pwQJxuKp7+OQqNkm/Q2+YimXGzS2u6nn5+nTbnotWKdqCoSnVhPhyAWN+w11vVKy1AnUtPma73uXnRCtQ8//NAMT46n8rPNt21diad6ZbOffpah7bb9rOM2edG5grTPhd68VT8DvVShrULa10Rv9KotA6G3q7D5LG3ric1+RvNZRpuXl2NYB23Tn8qxczIJPWpp4MCBJir3NGvWLGz9u+++G+wlbZO2KO1Rfvnll5uot+gIi2i2Xbt2bfnss89Mr3Id+qaXALUnfm5urlx22WVm+JpG1krfr1y5csWWgUbA3igI2/Q2+YimXGzS2u6nn5+nTbn87ne/k5dffln69Olz3HZ0hIWOptARCtHkw3YfH3nkkbD1Z555Zthz3RdvJES8lJ9tvm3rSjzVK5v99LMMbbftZx23ycujjz4qlSpVklWrVpmWieHDh0uLFi3kgQceMMN+tYXosccei+qztK0nNvtpW96nkpdeMayDtulP5dg5mTIzjwwAAEg8Cd9HBgAAJC4CGQAA4CwCGQAA4CwCGQAA4CwCGQAA4CwCGQDOGj16tLRs2bK0swGgFBHIAAAAZxHIACg1V111ldx7771m0rKMjAwzzby2snh27Ngh3bt3NxNtpaWlmenYd+/ebdbNmjXLTIL2xRdfmEnAdNHX1P79++XOO++Us88+2/yfTrSl6QAkHgIZAKVq9uzZUrlyZVm9erWMHz9exowZI0uXLjUzwmoQs3fvXvnwww/Na3o/mRtvvNH8n/69//77pWnTpvKf//zHLN6666+/Xvbs2WNmC9VZTC+66CLp0KGD2RaAxJLQtygAEP8uvPDC4FTnF1xwgZnWftmyZeb5V199JVu3bpU6deqY53PmzDGBy9q1a83N8LSlRm9YqC05no8//thM8a6BTGpqqnltwoQJsmDBAnNDvgEDBpTKfgLwB4EMgFIPZELpHXQ1CNm0aZMJYLwgRjVp0kTS09PNOg1kItFLSAcOHJBq1aqFva53af7uu+982gsApYVABkCpKl++fNhz7euil5WipUGMBkMffPDBces0CAKQWAhkAMSlxo0bmzsA6+K1ymzcuNF05NWWGVWhQoWwO+oq7Q+za9cuc8mpfv36pZJ3AKcPnX0BxKWsrCxp3ry59O7dW9avX2/6vdx6661y5ZVXSuvWrU0aDVS0D83nn38uP/30kxQUFJj/y8zMlB49esiSJUtk27ZtsnLlSnnooYdk3bp1pb1bAGKMQAZAXNJLTG+88YZUrVpV2rVrZwKU8847T+bPnx9M07NnT+nUqZO0b9/eDLV++eWXzf+988475n9uv/12+c1vfiO9evWS7du3S82aNUt1nwDEXlIgEAj4sF0AAADf0SIDAACcRSADAACcRSADAACcRSADAACcRSADAACcRSADAACcRSADAACcRSADAACcRSADAACcRSADAACcRSADAADEVf8Prh5aYTWwcR8AAAAASUVORK5CYII=",
      "text/plain": [
       "<Figure size 640x480 with 1 Axes>"
      ]
     },
     "metadata": {},
     "output_type": "display_data"
    }
   ],
   "source": [
    "note_counts = messages['note'].value_counts()\n",
    "note_counts.plot(kind='bar')"
   ]
  },
  {
   "cell_type": "code",
   "execution_count": null,
   "metadata": {},
   "outputs": [],
   "source": []
  }
 ],
 "metadata": {
  "kernelspec": {
   "display_name": "vmelodies",
   "language": "python",
   "name": "python3"
  },
  "language_info": {
   "codemirror_mode": {
    "name": "ipython",
    "version": 3
   },
   "file_extension": ".py",
   "mimetype": "text/x-python",
   "name": "python",
   "nbconvert_exporter": "python",
   "pygments_lexer": "ipython3",
   "version": "3.11.5"
  }
 },
 "nbformat": 4,
 "nbformat_minor": 2
}
